; Pokémon X/Y - Bicycle
; Demixed by ShantyTown
; https://github.com/huderlem/pokestyle-music-devamps/blob/master/music/kalos_bicycle.asm

Music_BicycleXY:
	channel_count 4
	channel 1, BicycleXY_Ch1
	channel 2, BicycleXY_Ch2
	channel 3, BicycleXY_Ch3
	channel 4, BicycleXY_Ch4

BicycleXY_Ch1::
	tempo 120
	volume 7, 7
	stereo_panning TRUE, TRUE
	duty_cycle 1
	vibrato 16, 2, 2
	note_type 12, 10, 7

BicycleXY_Ch1_sub_0:
	rest 2
	octave 3
	note E_, 4
	octave 2
	note G#, 2
	note G#, 2
	rest 2
	note G#, 4
	note E_, 2
	note F#, 4
	note A_, 2
	note A_, 2
	rest 2
	note A_, 4
	note A_, 2
	note A_, 2
	note A_, 2
	rest 16
	note G#, 5
	rest 1
	note G#, 1
	rest 3
	note G#, 6
	octave 3
	note A_, 6
	note B_, 6
	note A_, 4
	note G#, 6
	note E_, 6
	note G#, 4
	rest 16
	octave 2
	note E_, 5
	rest 1
	note E_, 1
	rest 3
	octave 3
	note E_, 2
	note D#, 2
	note E_, 2
	octave 2
	note G#, 2
	note G#, 2
	rest 2
	note G#, 4
	octave 3
	note E_, 2
	note D#, 2
	note E_, 2
	octave 2
	note A_, 4
	note B_, 4
	octave 3
	note C#, 4
	note E_, 4
	note F#, 4
	note E_, 4
	note F#, 4
	note G#, 4
	octave 2
	note G#, 5
	rest 1
	note G#, 1
	rest 3
	note G#, 6
	octave 3
	note A_, 6
	note B_, 6
	note A_, 4
	note G#, 6
	note E_, 8
	rest 2
	note E_, 6
	note D#, 2
	rest 2
	note E_, 2
	rest 2
	note E_, 8
	note D#, 10
	note G#, 2
	rest 2
	note G#, 2
	rest 2
	note G#, 2
	rest 2
	note G#, 2
	rest 2
	note F#, 2
	rest 2
	octave 2
	note B_, 2
	octave 3
	note F#, 2
	rest 2
	note G#, 6
	note G#, 2
	rest 2
	note G#, 2
	rest 2
	note G#, 2
	rest 2
	note G#, 2
	rest 2
	note F#, 2
	rest 2
	octave 2
	note B_, 2
	octave 3
	note F#, 2
	rest 2
	note B_, 6
	note G#, 2
	rest 2
	note G#, 2
	rest 2
	note G#, 2
	rest 2
	note G#, 2
	rest 2
	note F#, 2
	rest 2
	octave 2
	note B_, 2
	octave 3
	note F#, 2
	rest 2
	note G#, 4
	note G#, 10
	rest 6
	note G#, 8
	note B_, 4
	sound_jump BicycleXY_Ch1_sub_0

BicycleXY_Ch2::
	duty_cycle 1
	note_type 12, 12, 7
	vibrato 16, 0, 0

BicycleXY_Ch2_sub_0:
	note_type 12, 12, 8
	duty_cycle 2
	octave 4
	note E_, 2
	note D#, 2
	note E_, 2
	octave 3
	note G#, 8
	rest 2
	octave 4
	note E_, 2
	note D#, 2
	note E_, 2
	octave 3
	note A_, 4
	note B_, 4
	octave 4
	note C#, 4
	note_type 6, 12, 7
	note E_, 7
	note F_, 1
	note_type 12, 12, 7
	note F#, 4
	note E_, 4
	note F#, 4
	note G#, 4
	vibrato 0, 2, 3
	note E_, 5
	vibrato 16, 0, 0
	rest 1
	note E_, 1
	rest 3
	note D_, 6
	note C#, 6
	note D#, 6
	note C#, 3
	rest 1
	octave 3
	note B_, 6
	octave 4
	note E_, 4
	octave 3
	note G#, 2
	note A_, 2
	note B_, 2
	note A_, 4
	note G#, 4
	note F#, 4
	note E_, 4
	note F#, 5
	rest 1
	note F#, 1
	duty_cycle 3
	note_type 6, 12, 7
	vibrato 8, 2, 3
	octave 5
	rest 5
	note D#, 1
	note_type 12, 12, 7
	note E_, 2
	note D#, 2
	note E_, 2
	octave 4
	note G#, 8
	note_type 6, 12, 7
	rest 3
	octave 5
	note D#, 1
	note_type 12, 12, 7
	note E_, 2
	note D#, 2
	note E_, 2
	octave 4
	note A_, 4
	note B_, 4
	octave 5
	note C#, 4
	note E_, 4
	note F#, 4
	note E_, 4
	note F#, 4
	note G#, 4
	note E_, 5
	rest 1
	note E_, 1
	rest 3
	note D_, 6
	note C#, 6
	note D#, 6
	note C#, 3
	rest 1
	octave 4
	note B_, 6
	octave 5
	note E_, 8
	rest 2
	note E_, 6
	note D#, 2
	rest 2
	note E_, 2
	rest 2
	note E_, 8
	note D#, 10
	vibrato 16, 2, 3
	note_type 12, 12, 4
	duty_cycle 1
	octave 4
	note G#, 8
	note E_, 4
	octave 5
	note C#, 4
	octave 4
	note B_, 2
	note A_, 2
	note G#, 2
	note E_, 2
	rest 2
	note E_, 6
	note G#, 8
	note E_, 4
	octave 5
	note E_, 4
	note D#, 2
	note E_, 2
	note F#, 2
	note G#, 2
	rest 2
	note G#, 6
	note C#, 8
	octave 4
	note G#, 4
	octave 5
	note E_, 4
	note D#, 2
	note C#, 2
	octave 4
	note B_, 2
	note G#, 2
	rest 2
	note G#, 4
	octave 5
	note C_, 10
	octave 4
	note G#, 4
	octave 5
	note D#, 2
	note C#, 8
	note D#, 4
	sound_jump BicycleXY_Ch2_sub_0

BicycleXY_Ch3::
	stereo_panning TRUE, TRUE
	vibrato 0, 0, 0
	note_type 12, 1, 6

BicycleXY_Ch3_sub_0:
	rest 6

	octave 2
	note E_, 2
	note E_, 3
	rest 1
	note B_, 4
	note E_, 2
	note F#, 2
	note G#, 2
	note F#, 2
	note F#, 3
	rest 1
	octave 3
	note C#, 4
	octave 2
	note F#, 2
	note A_, 2
	note A_, 2
	octave 3
	note C_, 2
	note C_, 2
	octave 2
	note G#, 2
	note G#, 2
	note F#, 2
	note E_, 2
	note F#, 2
	note C#, 2
	octave 3
	note C#, 5
	rest 1
	note C#, 1
	rest 3
	octave 2
	note B_, 6
	note A_, 2
	note A_, 2
	rest 2
	octave 3
	note E_, 4
	octave 2
	note A_, 2
	note B_, 2
	note A_, 2
	note G#, 2
	note F#, 2
	note G#, 2
	octave 3
	note C#, 4
	note C#, 2
	note E_, 2
	note C#, 2
	note D_, 2
	note D_, 2
	octave 2
	note A_, 2
	note A_, 2
	octave 3
	note D_, 2
	note D_, 2
	octave 2
	note F#, 2
	note F#, 2
	note B_, 5
	rest 1
	note B_, 1
	rest 9
	note E_, 2
	note E_, 3
	rest 1
	note B_, 4
	note E_, 2
	note F#, 2
	note G#, 2
	note F#, 2
	note F#, 3
	rest 1
	octave 3
	note C#, 4
	octave 2
	note F#, 2
	note A_, 2
	note A_, 2
	octave 3
	note C_, 2
	note C_, 2
	octave 2
	note G#, 2
	note G#, 2
	note F#, 2
	note E_, 2
	note F#, 2
	note C#, 2
	octave 3
	note C#, 5
	rest 1
	note C#, 1
	rest 3
	octave 2
	note B_, 6
	note A_, 2
	note A_, 2
	rest 2
	octave 3
	note D#, 4
	octave 2
	note A_, 2
	note B_, 2
	note A_, 2
	note G#, 2
	note F#, 2
	note G#, 2
	octave 3
	note C#, 4
	note C#, 2
	note E_, 2
	note C#, 2
	octave 2
	note F#, 6
	note B_, 2
	rest 2
	note B_, 2
	rest 2
	octave 3
	note E_, 8
	note F#, 10
	note E_, 2
	rest 2
	note E_, 2
	rest 2
	note E_, 2
	rest 2
	note E_, 2
	rest 2
	octave 2
	note B_, 2
	note A_, 2
	note G#, 2
	note E_, 2
	rest 2
	note E_, 6
	octave 3
	note E_, 2
	rest 2
	note E_, 2
	rest 2
	note E_, 2
	rest 2
	note E_, 2
	rest 2
	octave 2
	note B_, 2
	note A_, 2
	note G#, 2
	note E_, 2
	rest 2
	note E_, 6
	octave 3
	note E_, 2
	rest 2
	note E_, 2
	rest 2
	note E_, 2
	rest 2
	note E_, 2
	rest 2
	octave 2
	note B_, 2
	note A_, 2
	note G#, 2
	note E_, 2
	rest 2
	note E_, 4
	octave 3
	note D#, 2
	note G#, 2
	note G#, 2
	note C_, 2
	note C_, 2
	note D#, 2
	note D#, 2
	note C_, 2
	note A_, 4
	note D#, 2
	note F#, 2
	note B_, 4
	sound_jump BicycleXY_Ch3_sub_0

BicycleXY_Ch4::
	toggle_noise 3
	drum_speed 12
	rest 6

BicycleXY_Ch4_0:
	sound_call BicycleXY_Ch4_sub_0
	sound_call BicycleXY_Ch4_sub_0
	sound_call BicycleXY_Ch4_sub_0
	sound_call BicycleXY_Ch4_sub_0
	sound_call BicycleXY_Ch4_sub_0
	sound_call BicycleXY_Ch4_sub_0
	sound_call BicycleXY_Ch4_sub_0
	sound_call BicycleXY_Ch4_sub_0
	sound_call BicycleXY_Ch4_sub_1
	sound_call BicycleXY_Ch4_sub_1
	sound_call BicycleXY_Ch4_sub_1
	sound_call BicycleXY_Ch4_sub_1
	sound_call BicycleXY_Ch4_sub_1
	sound_call BicycleXY_Ch4_sub_1
	rest 4
	drum_note 11, 4
	drum_note 12, 8
	rest 4
	drum_note 11, 4
	drum_note 12, 8
	sound_jump BicycleXY_Ch4_0

BicycleXY_Ch4_sub_0:
	drum_note 2, 4
	drum_note 3, 4
	drum_note 2, 4
	drum_note 3, 4
	drum_note 2, 4
	drum_note 3, 4
	drum_note 2, 2
	drum_note 3, 2
	drum_note 3, 4
	sound_ret

BicycleXY_Ch4_sub_1:
	drum_note 2, 2
	drum_note 3, 2
	drum_note 2, 2
	drum_note 3, 2
	drum_note 2, 2
	drum_note 3, 2
	drum_note 2, 2
	drum_note 3, 2
	sound_ret
