; Pokémon X/Y - Battle! Gym Leader
; Demixed by Pum
; https://hax.iimarck.us/topic/6443/

Music_GymLeaderBattleXY: 
	musicheader 4, 1, Music_GymLeaderBattleXY_Ch1
	musicheader 1, 2, Music_GymLeaderBattleXY_Ch2
	musicheader 1, 3, Music_GymLeaderBattleXY_Ch3
	musicheader 1, 4, Music_GymLeaderBattleXY_Ch4

Music_GymLeaderBattleXY_Ch1:
		tempo $80
		volume $E0
		dutycycle 2
		notetype 12, $78
		octave 4
		note C_, 1
		note __, 1
		note C_, 1
		note C#, 1
		octave 3
		note A#, 1
		octave 4
		note D#, 1
		note C#, 1
		octave 3
		note A#, 1
		octave 4
		note C_, 1
		note __, 1
		note C_, 1
		note C#, 1
		octave 3
		note A#, 1
		octave 4
		note D#, 1
		note C#, 1
		octave 3
		note A#, 1
		octave 4
		note C_, 1
		note __, 1
		note C_, 1
		note C#, 1
		octave 3
		note A#, 1
		octave 4
		note D#, 1
		note C#, 1
		octave 3
		note A#, 1
		octave 4
		note C_, 1
		note __, 1
		note C_, 1
		note C#, 1
		octave 3
		note A#, 1
		octave 4
		note D#, 1
		note C#, 1
		octave 3
		note A#, 1
Music_GymLeaderBattleXY_Ch1_loop:
		octave 4
		note C_, 1
		note __, 1
		note C_, 1
		note C#, 1
		octave 3
		note A#, 1
		octave 4
		note D#, 1
		note C#, 1
		octave 3
		note A#, 1
		octave 4
		note C_, 1
		note __, 1
		note C_, 1
		note C#, 1
		octave 3
		note A#, 1
		octave 4
		note D#, 1
		note C#, 1
		octave 3
		note A#, 1
		octave 4
		note C_, 1
		note __, 1
		note C_, 1
		note C#, 1
		octave 3
		note A#, 1
		octave 4
		note D#, 1
		note C#, 1
		octave 3
		note A#, 1
		octave 4
		note C_, 1
		note __, 1
		note C_, 1
		note C#, 1
		octave 3
		note A#, 1
		octave 4
		note D#, 1
		note C#, 1
		octave 3
		note A#, 1
		octave 4
		note C_, 1
		note __, 1
		note C_, 1
		note C#, 1
		octave 3
		note A#, 1
		octave 4
		note D#, 1
		note C#, 1
		octave 3
		note A#, 1
		octave 4
		note C_, 1
		note __, 1
		note C_, 1
		note C#, 1
		octave 3
		note A#, 1
		octave 4
		note D#, 1
		note C#, 1
		octave 3
		note A#, 1
		octave 4
		note C_, 1
		note __, 1
		note C_, 1
		note C#, 1
		octave 3
		note A#, 1
		octave 4
		note D#, 1
		note C#, 1
		octave 3
		note A#, 1
		octave 4
		note C_, 1
		note __, 1
		note C_, 1
		note C#, 1
		octave 3
		note A#, 1
		octave 4
		note D#, 1
		note C#, 1
		octave 3
		note A#, 1
		octave 4
		note C_, 1
		note __, 1
		note C_, 1
		note C#, 1
		octave 3
		note A#, 1
		octave 4
		note D#, 1
		note C#, 1
		octave 3
		note A#, 1
		octave 4
		note C_, 1
		note __, 1
		note C_, 1
		note C#, 1
		octave 3
		note A#, 1
		octave 4
		note D#, 1
		note C#, 1
		octave 3
		note A#, 1
		octave 4
		note C_, 1
		note __, 1
		note C_, 1
		note C#, 1
		octave 3
		note A#, 1
		octave 4
		note D#, 1
		note C#, 1
		octave 3
		note A#, 1
		octave 4
		note C_, 1
		note __, 1
		note C_, 1
		note C#, 1
		octave 3
		note A#, 1
		octave 4
		note D#, 1
		note C#, 1
		octave 3
		note A#, 1
		octave 4
		note C_, 1
		note __, 1
		note C_, 1
		note C#, 1
		octave 3
		note A#, 1
		octave 4
		note D#, 1
		note C#, 1
		octave 3
		note A#, 1
		octave 4
		note C_, 1
		note __, 1
		note C_, 1
		note C#, 1
		octave 3
		note A#, 1
		octave 4
		note D#, 1
		note C#, 1
		octave 3
		note A#, 1
		octave 4
		note C_, 1
		note __, 1
		note C_, 1
		note C#, 1
		octave 3
		note A#, 1
		octave 4
		note D#, 1
		note C#, 1
		octave 3
		note A#, 1
		octave 4
		note C_, 1
		note __, 1
		note C_, 1
		note C#, 1
		octave 3
		note A#, 1
		octave 4
		note D#, 1
		note C#, 1
		octave 3
		note A#, 1
		octave 4
		note C_, 1
		note __, 1
		note C_, 1
		note C#, 1
		octave 3
		note A#, 1
		octave 4
		note D#, 1
		note C#, 1
		octave 3
		note A#, 1
		octave 4
		note C_, 1
		note __, 1
		note C_, 1
		note C#, 1
		octave 3
		note A#, 1
		octave 4
		note D#, 1
		note C#, 1
		octave 3
		note A#, 1
		octave 4
		note C_, 1
		note __, 1
		note C_, 1
		note C#, 1
		octave 3
		note A#, 1
		octave 4
		note D#, 1
		note C#, 1
		octave 3
		note A#, 1
		octave 4
		note C_, 1
		note __, 1
		note C_, 1
		note C#, 1
		octave 3
		note A#, 1
		octave 4
		note D#, 1
		note C#, 1
		octave 3
		note A#, 1
		note __, 16
		note __, 16
		octave 4
		note C_, 1
		note __, 1
		note C_, 1
		note C#, 1
		octave 3
		note A#, 1
		octave 4
		note D#, 1
		note C#, 1
		octave 3
		note A#, 1
		octave 4
		note C_, 1
		note __, 1
		note C_, 1
		note C#, 1
		octave 3
		note A#, 1
		octave 4
		note D#, 1
		note C#, 1
		octave 3
		note A#, 1
		octave 4
		note C_, 1
		note __, 1
		note C_, 1
		note C#, 1
		octave 3
		note A#, 1
		octave 4
		note D#, 1
		note C#, 1
		octave 3
		note A#, 1
		octave 4
		note C_, 1
		note __, 1
		note C_, 1
		note C#, 1
		octave 3
		note A#, 1
		octave 4
		note D#, 1
		note C#, 1
		octave 3
		note A#, 1
		octave 4
		note C_, 1
		note __, 1
		note C_, 1
		note C#, 1
		octave 3
		note A#, 1
		octave 4
		note D#, 1
		note C#, 1
		octave 3
		note A#, 1
		octave 4
		note C_, 1
		note __, 1
		note C_, 1
		note C#, 1
		octave 3
		note A#, 1
		octave 4
		note D#, 1
		note C#, 1
		octave 3
		note A#, 1
		octave 4
		note C_, 1
		note __, 1
		note C_, 1
		note C#, 1
		octave 3
		note A#, 1
		octave 4
		note D#, 1
		note C#, 1
		octave 3
		note A#, 1
		octave 4
		note C_, 1
		note __, 1
		note C_, 1
		note C#, 1
		octave 3
		note A#, 1
		octave 4
		note D#, 1
		note C#, 1
		octave 3
		note A#, 1
		note G_, 1
		note G#, 1
		note G_, 1
		note __, 1
		note G_, 1
		note G#, 1
		note G_, 1
		note __, 1
		note G_, 1
		note G#, 1
		note G_, 1
		note __, 1
		note G_, 1
		note G#, 1
		note G_, 1
		note __, 1
		note A#, 1
		note B_, 1
		note A#, 1
		note __, 1
		note A#, 1
		note B_, 1
		note A#, 1
		note __, 1
		note A#, 1
		note B_, 1
		note A#, 1
		note __, 1
		note A#, 1
		note B_, 1
		note A#, 1
		note __, 1
		note A_, 1
		note A#, 1
		note A_, 1
		note __, 1
		note A_, 1
		note A#, 1
		note A_, 1
		note __, 1
		note A_, 1
		note A#, 1
		note A_, 1
		note __, 1
		note A_, 1
		note A#, 1
		note A_, 1
		note __, 1
		octave 4
		note C_, 1
		note C#, 1
		note C_, 1
		note __, 1
		note C_, 1
		note C#, 1
		note C_, 1
		note __, 1
		note C_, 1
		note C#, 1
		note C_, 1
		note __, 1
		note C_, 1
		note C#, 1
		note C_, 1
		note __, 1
		octave 3
		note G_, 1
		note G#, 1
		note G_, 1
		note __, 1
		note G_, 1
		note G#, 1
		note G_, 1
		note __, 1
		note G_, 1
		note G#, 1
		note G_, 1
		note __, 1
		note G_, 1
		note G#, 1
		note G_, 1
		note __, 1
		note A#, 1
		note B_, 1
		note A#, 1
		note __, 1
		note A#, 1
		note B_, 1
		note A#, 1
		note __, 1
		note A#, 1
		note B_, 1
		note A#, 1
		note __, 1
		note A#, 1
		note B_, 1
		note A#, 1
		note __, 1
		note A_, 1
		note A#, 1
		note A_, 1
		note __, 1
		note A_, 1
		note A#, 1
		note A_, 1
		note __, 1
		note A_, 1
		note A#, 1
		note A_, 1
		note __, 1
		note A_, 1
		note A#, 1
		note A_, 1
		note __, 1
		octave 4
		note C_, 1
		note C#, 1
		note C_, 1
		note __, 1
		note C_, 1
		note C#, 1
		note C_, 1
		note __, 1
		note C_, 1
		note C#, 1
		note C_, 1
		note __, 1
		note C_, 1
		note C#, 1
		note C_, 1
		note __, 1
		octave 3
		note G_, 1
		note G#, 1
		note G_, 1
		note __, 1
		note G_, 1
		note G#, 1
		note G_, 1
		note __, 1
		note G_, 1
		note G#, 1
		note G_, 1
		note __, 1
		note G_, 1
		note G#, 1
		note G_, 1
		note __, 1
		note A#, 1
		note B_, 1
		note A#, 1
		note __, 1
		note A#, 1
		note B_, 1
		note A#, 1
		note __, 1
		note A#, 1
		note B_, 1
		note A#, 1
		note __, 1
		note A#, 1
		note B_, 1
		note A#, 1
		note __, 1
		note A_, 1
		note A#, 1
		note A_, 1
		note __, 1
		note A_, 1
		note A#, 1
		note A_, 1
		note __, 1
		note A_, 1
		note A#, 1
		note A_, 1
		note __, 1
		note A_, 1
		note A#, 1
		note A_, 1
		note __, 1
		octave 4
		note C_, 1
		note C#, 1
		note C_, 1
		note __, 1
		note C_, 1
		note C#, 1
		note C_, 1
		note __, 1
		note C_, 1
		note C#, 1
		note C_, 1
		note __, 1
		note C_, 1
		note C#, 1
		note C_, 1
		note __, 1
		octave 3
		note G_, 1
		note G#, 1
		note G_, 1
		note __, 1
		note G_, 1
		note G#, 1
		note G_, 1
		note __, 1
		note G_, 1
		note G#, 1
		note G_, 1
		note __, 1
		note G_, 1
		note G#, 1
		note G_, 1
		note __, 1
		note A#, 1
		note B_, 1
		note A#, 1
		note __, 1
		note A#, 1
		note B_, 1
		note A#, 1
		note __, 1
		note A#, 1
		note B_, 1
		note A#, 1
		note __, 1
		note A#, 1
		note B_, 1
		note A#, 1
		note __, 1
		note A_, 1
		note A#, 1
		note A_, 1
		note __, 1
		note A_, 1
		note A#, 1
		note A_, 1
		note __, 1
		note A_, 1
		note A#, 1
		note A_, 1
		note __, 1
		note A_, 1
		note A#, 1
		note A_, 1
		note __, 1
		octave 4
		note C_, 1
		note C#, 1
		note C_, 1
		note __, 1
		note C_, 1
		note C#, 1
		note C_, 1
		note __, 1
		note C_, 1
		note C#, 1
		note C_, 1
		note __, 1
		note C_, 1
		note C#, 1
		note C_, 1
		note __, 1
		octave 3
		note A#, 12
		note A_, 4
		note A#, 4
		note A_, 4
		note G_, 4
		note F_, 4
		note A_, 12
		note F_, 4
		note C_, 16
		note A#, 12
		note A_, 4
		note A#, 4
		octave 4
		note C_, 4
		note D_, 2
		note C_, 2
		octave 3
		note A#, 2
		octave 4
		note D_, 2
		note C_, 12
		note F_, 2
		note __, 2
		note F_, 14
		octave 3
		note A_, 2
		note A#, 16
		note A#, 16
		note D#, 16
		note D#, 8
		note G_, 8
		note C_, 16
		note C_, 16
		octave 2
		note F_, 16
		note C_, 16
		note D#, 16
		note D#, 8
		note G_, 8
		octave 3
		note D#, 16
		note D#, 8
		note G_, 8
		note F_, 16
		note F_, 16
		note A_, 16
		note A_, 16
		note G_, 16
		note D#, 4
		note G_, 4
		note A#, 8
		octave 4
		note D#, 16
		note G_, 8
		note F_, 8
		note C_, 16
		octave 3
		note A_, 16
		note F_, 16
		note C_, 16
		note __, 16
		note __, 16
		loopchannel 0, Music_GymLeaderBattleXY_Ch1_loop 
		endchannel

Music_GymLeaderBattleXY_Ch2:
		dutycycle 2
		notetype 12, $98
		note __, 16
		dutycycle 2
		note __, 16
Music_GymLeaderBattleXY_Ch2_loop:
		note __, 16
		note __, 16
		octave 3
		note G_, 16
		note A#, 16
		note A_, 16
		octave 4
		note C_, 16
		octave 3
		note G_, 16
		note A#, 16
		note A_, 16
		octave 4
		note C_, 16
		octave 3
		note C_, 1
		note __, 1
		note C_, 1
		note C#, 1
		octave 2
		note A#, 1
		octave 3
		note D#, 1
		note C#, 1
		octave 2
		note A#, 1
		octave 3
		note C_, 1
		note __, 1
		note C_, 1
		note C#, 1
		octave 2
		note A#, 1
		octave 3
		note D#, 1
		note C#, 1
		octave 2
		note A#, 1
		octave 3
		note C_, 1
		note __, 1
		note C_, 1
		note C#, 1
		octave 2
		note A#, 1
		octave 3
		note D#, 1
		note C#, 1
		octave 2
		note A#, 1
		octave 3
		note C_, 1
		note __, 1
		note C_, 1
		note C#, 1
		octave 2
		note A#, 1
		octave 3
		note D#, 1
		note C#, 1
		octave 2
		note A#, 1
		octave 3
		note C_, 1
		note __, 1
		note C_, 1
		note C#, 1
		octave 2
		note A#, 1
		octave 3
		note D#, 1
		note C#, 1
		octave 2
		note A#, 1
		octave 3
		note C_, 1
		note __, 1
		note C_, 1
		note C#, 1
		octave 2
		note A#, 1
		octave 3
		note D#, 1
		note C#, 1
		octave 2
		note A#, 1
		octave 3
		note C_, 1
		note __, 1
		note C_, 1
		note C#, 1
		octave 2
		note A#, 1
		octave 3
		note D#, 1
		note C#, 1
		octave 2
		note A#, 1
		octave 3
		note C_, 1
		note __, 1
		note C_, 1
		note C#, 1
		octave 2
		note A#, 1
		octave 3
		note D#, 1
		note C#, 1
		octave 2
		note A#, 1
		octave 3
		note C_, 1
		note __, 1
		note C_, 1
		note C#, 1
		octave 2
		note A#, 1
		octave 3
		note D#, 1
		note C#, 1
		octave 2
		note A#, 1
		octave 3
		note C_, 1
		note __, 1
		note C_, 1
		note C#, 1
		octave 2
		note A#, 1
		octave 3
		note D#, 1
		note C#, 1
		octave 2
		note A#, 1
		octave 3
		note C_, 1
		note __, 1
		note C_, 1
		note C#, 1
		octave 2
		note A#, 1
		octave 3
		note D#, 1
		note C#, 1
		octave 2
		note A#, 1
		octave 3
		note C_, 1
		note __, 1
		note C_, 1
		note C#, 1
		octave 2
		note A#, 1
		octave 3
		note D#, 1
		note C#, 1
		octave 2
		note A#, 1
		octave 3
		note C_, 1
		note __, 1
		note C_, 1
		note C#, 1
		octave 2
		note A#, 1
		octave 3
		note D#, 1
		note C#, 1
		octave 2
		note A#, 1
		octave 3
		note C_, 1
		note __, 1
		note C_, 1
		note C#, 1
		octave 2
		note A#, 1
		octave 3
		note D#, 1
		note C#, 1
		octave 2
		note A#, 1
		octave 3
		note C_, 1
		note __, 1
		note C_, 1
		note C#, 1
		octave 2
		note A#, 1
		octave 3
		note D#, 1
		note C#, 1
		octave 2
		note A#, 1
		octave 3
		note C_, 1
		note __, 1
		note C_, 1
		note C#, 1
		octave 2
		note A#, 1
		octave 3
		note D#, 1
		note C#, 1
		octave 2
		note A#, 1
		octave 3
		note C_, 1
		note __, 1
		note C_, 1
		note C#, 1
		octave 2
		note A#, 1
		octave 3
		note D#, 1
		note C#, 1
		octave 2
		note A#, 1
		octave 3
		note C_, 1
		note __, 1
		note C_, 1
		note C#, 1
		octave 2
		note A#, 1
		octave 3
		note D#, 1
		note C#, 1
		octave 2
		note A#, 1
		octave 3
		note C_, 1
		note __, 1
		note C_, 1
		note C#, 1
		octave 2
		note A#, 1
		octave 3
		note D#, 1
		note C#, 1
		octave 2
		note A#, 1
		octave 3
		note C_, 1
		note __, 1
		note C_, 1
		note C#, 1
		octave 2
		note A#, 1
		octave 3
		note D#, 1
		note C#, 1
		octave 2
		note A#, 1
		octave 3
		note C_, 1
		note __, 1
		note C_, 1
		note C#, 1
		octave 2
		note A#, 1
		octave 3
		note D#, 1
		note C#, 1
		octave 2
		note A#, 1
		octave 3
		note C_, 1
		note __, 1
		note C_, 1
		note C#, 1
		octave 2
		note A#, 1
		octave 3
		note D#, 1
		note C#, 1
		octave 2
		note A#, 1
		octave 3
		note C_, 1
		note __, 1
		note C_, 1
		note C#, 1
		octave 2
		note A#, 1
		octave 3
		note D#, 1
		note C#, 1
		octave 2
		note A#, 1
		octave 3
		note C_, 1
		note __, 1
		note C_, 1
		note C#, 1
		octave 2
		note A#, 1
		octave 3
		note D#, 1
		note C#, 1
		octave 2
		note A#, 1
		octave 3
		note C_, 1
		note __, 1
		note C_, 1
		note C#, 1
		octave 2
		note A#, 1
		octave 3
		note D#, 1
		note C#, 1
		octave 2
		note A#, 1
		octave 3
		note C_, 1
		note __, 1
		note C_, 1
		note C#, 1
		octave 2
		note A#, 1
		octave 3
		note D#, 1
		note C#, 1
		octave 2
		note A#, 1
		octave 3
		note C_, 1
		note __, 1
		note C_, 1
		note C#, 1
		octave 2
		note A#, 1
		octave 3
		note D#, 1
		note C#, 1
		octave 2
		note A#, 1
		octave 3
		note C_, 1
		note __, 1
		note C_, 1
		note C#, 1
		octave 2
		note A#, 1
		octave 3
		note D#, 1
		note C#, 1
		octave 2
		note A#, 1
		note __, 16
		note __, 16
		octave 3
		note C_, 1
		note __, 1
		note C_, 1
		note C#, 1
		octave 2
		note A#, 1
		octave 3
		note D#, 1
		note C#, 1
		octave 2
		note A#, 1
		octave 3
		note C_, 1
		note __, 1
		note C_, 1
		note C#, 1
		octave 2
		note A#, 1
		octave 3
		note D#, 1
		note C#, 1
		octave 2
		note A#, 1
		octave 3
		note C_, 1
		note __, 1
		note C_, 1
		note C#, 1
		octave 2
		note A#, 1
		octave 3
		note D#, 1
		note C#, 1
		octave 2
		note A#, 1
		octave 3
		note C_, 1
		note __, 1
		note C_, 1
		note C#, 1
		octave 2
		note A#, 1
		octave 3
		note D#, 1
		note C#, 1
		octave 2
		note A#, 1
		note __, 16
		note __, 16
		octave 3
		note C_, 1
		note __, 1
		note C_, 1
		note C#, 1
		octave 2
		note A#, 1
		octave 3
		note D#, 1
		note C#, 1
		octave 2
		note A#, 1
		octave 3
		note C_, 1
		note __, 1
		note C_, 1
		note C#, 1
		octave 2
		note A#, 1
		octave 3
		note D#, 1
		note C#, 1
		octave 2
		note A#, 1
		octave 3
		note C_, 1
		note __, 1
		note C_, 1
		note C#, 1
		octave 2
		note A#, 1
		octave 3
		note D#, 1
		note C#, 1
		octave 2
		note A#, 1
		octave 3
		note C_, 1
		note __, 1
		note C_, 1
		note C#, 1
		octave 2
		note A#, 1
		octave 3
		note D#, 1
		note C#, 1
		octave 2
		note A#, 1
		note __, 16
		note __, 16
		note __, 16
		note __, 16
		note __, 16
		note __, 16
		note __, 16
		note __, 16
		octave 3
		note G_, 1
		note A#, 1
		octave 4
		note D#, 1
		octave 3
		note A#, 1
		note G_, 1
		note A#, 1
		octave 4
		note D#, 1
		octave 3
		note A#, 1
		note G_, 1
		note A#, 1
		octave 4
		note D#, 1
		octave 3
		note A#, 1
		note G_, 1
		note A#, 1
		octave 4
		note D#, 1
		octave 3
		note A#, 1
		note G_, 1
		note A#, 1
		octave 4
		note D#, 1
		octave 3
		note A#, 1
		note G_, 1
		note A#, 1
		octave 4
		note D#, 1
		octave 3
		note A#, 1
		note G_, 1
		note A#, 1
		octave 4
		note D#, 1
		octave 3
		note A#, 1
		note G_, 1
		note A#, 1
		octave 4
		note D#, 1
		octave 3
		note A#, 1
		note G_, 1
		note A#, 1
		octave 4
		note D#, 1
		octave 3
		note A#, 1
		note G_, 1
		note A#, 1
		octave 4
		note D#, 1
		octave 3
		note A#, 1
		note G_, 1
		note A#, 1
		octave 4
		note D#, 1
		octave 3
		note A#, 1
		note G_, 1
		note A#, 1
		octave 4
		note D#, 1
		octave 3
		note A#, 1
		note G_, 1
		note A#, 1
		octave 4
		note D#, 1
		octave 3
		note A#, 1
		note G_, 1
		note A#, 1
		octave 4
		note D#, 1
		octave 3
		note A#, 1
		note G_, 1
		note A#, 1
		octave 4
		note D#, 1
		octave 3
		note A#, 1
		note G_, 1
		note A#, 1
		octave 4
		note D#, 1
		octave 3
		note A#, 1
		note A_, 1
		octave 4
		note C_, 1
		note F_, 1
		note C_, 1
		octave 3
		note A_, 1
		octave 4
		note C_, 1
		note F_, 1
		note C_, 1
		octave 3
		note A_, 1
		octave 4
		note C_, 1
		note F_, 1
		note C_, 1
		octave 3
		note A_, 1
		octave 4
		note C_, 1
		note F_, 1
		note C_, 1
		octave 3
		note A_, 1
		octave 4
		note C_, 1
		note F_, 1
		note C_, 1
		octave 3
		note A_, 1
		octave 4
		note C_, 1
		note F_, 1
		note C_, 1
		octave 3
		note A_, 1
		octave 4
		note C_, 1
		note F_, 1
		note C_, 1
		octave 3
		note A_, 1
		octave 4
		note C_, 1
		note F_, 1
		note C_, 1
		octave 3
		note A_, 1
		octave 4
		note C_, 1
		note F_, 1
		note C_, 1
		octave 3
		note A_, 1
		octave 4
		note C_, 1
		note F_, 1
		note C_, 1
		octave 3
		note A_, 1
		octave 4
		note C_, 1
		note F_, 1
		note C_, 1
		octave 3
		note A_, 1
		octave 4
		note C_, 1
		note F_, 1
		note C_, 1
		octave 3
		note A_, 1
		octave 4
		note C_, 1
		note F_, 1
		note C_, 1
		octave 3
		note A_, 1
		octave 4
		note C_, 1
		note F_, 1
		note C_, 1
		octave 3
		note A_, 1
		octave 4
		note C_, 1
		note F_, 1
		note C_, 1
		octave 3
		note A_, 1
		octave 4
		note C_, 1
		note F_, 1
		note C_, 1
		octave 3
		note G_, 1
		note A#, 1
		octave 4
		note D#, 1
		octave 3
		note A#, 1
		note G_, 1
		note A#, 1
		octave 4
		note D#, 1
		octave 3
		note A#, 1
		note G_, 1
		note A#, 1
		octave 4
		note D#, 1
		octave 3
		note A#, 1
		note G_, 1
		note A#, 1
		octave 4
		note D#, 1
		octave 3
		note A#, 1
		note G_, 1
		note A#, 1
		octave 4
		note D#, 1
		octave 3
		note A#, 1
		note G_, 1
		note A#, 1
		octave 4
		note D#, 1
		octave 3
		note A#, 1
		note G_, 1
		note A#, 1
		octave 4
		note D#, 1
		octave 3
		note A#, 1
		note G_, 1
		note A#, 1
		octave 4
		note D#, 1
		octave 3
		note A#, 1
		note G_, 1
		note A#, 1
		octave 4
		note D#, 1
		octave 3
		note A#, 1
		note G_, 1
		note A#, 1
		octave 4
		note D#, 1
		octave 3
		note A#, 1
		note G_, 1
		note A#, 1
		octave 4
		note D#, 1
		octave 3
		note A#, 1
		note G_, 1
		note A#, 1
		octave 4
		note D#, 1
		octave 3
		note A#, 1
		note G_, 1
		note A#, 1
		octave 4
		note D#, 1
		octave 3
		note A#, 1
		note G_, 1
		note A#, 1
		octave 4
		note D#, 1
		octave 3
		note A#, 1
		note G_, 1
		note A#, 1
		octave 4
		note D#, 1
		octave 3
		note A#, 1
		note G_, 1
		note A#, 1
		octave 4
		note D#, 1
		octave 3
		note A#, 1
		note A_, 1
		octave 4
		note C_, 1
		note F_, 1
		note C_, 1
		octave 3
		note A_, 1
		octave 4
		note C_, 1
		note F_, 1
		note C_, 1
		octave 3
		note A_, 1
		octave 4
		note C_, 1
		note F_, 1
		note C_, 1
		octave 3
		note A_, 1
		octave 4
		note C_, 1
		note F_, 1
		note C_, 1
		octave 3
		note A_, 1
		octave 4
		note C_, 1
		note F_, 1
		note C_, 1
		octave 3
		note A_, 1
		octave 4
		note C_, 1
		note F_, 1
		note C_, 1
		octave 3
		note A_, 1
		octave 4
		note C_, 1
		note F_, 1
		note C_, 1
		octave 3
		note A_, 1
		octave 4
		note C_, 1
		note F_, 1
		note C_, 1
		octave 3
		note A_, 1
		octave 4
		note C_, 1
		note F_, 1
		note C_, 1
		octave 3
		note A_, 1
		octave 4
		note C_, 1
		note F_, 1
		note C_, 1
		octave 3
		note A_, 1
		octave 4
		note C_, 1
		note F_, 1
		note C_, 1
		octave 3
		note A_, 1
		octave 4
		note C_, 1
		note F_, 1
		note C_, 1
		octave 3
		note A_, 1
		octave 4
		note C_, 1
		note F_, 1
		note C_, 1
		octave 3
		note A_, 1
		octave 4
		note C_, 1
		note F_, 1
		note C_, 1
		octave 3
		note A_, 1
		octave 4
		note C_, 1
		note F_, 1
		note C_, 1
		octave 3
		note A_, 1
		octave 4
		note C_, 1
		note F_, 1
		note C_, 1
		octave 3
		note G_, 1
		note A#, 1
		octave 4
		note D#, 1
		octave 3
		note A#, 1
		note G_, 1
		note A#, 1
		octave 4
		note D#, 1
		octave 3
		note A#, 1
		note G_, 1
		note A#, 1
		octave 4
		note D#, 1
		octave 3
		note A#, 1
		note G_, 1
		note A#, 1
		octave 4
		note D#, 1
		octave 3
		note A#, 1
		note G_, 1
		note A#, 1
		octave 4
		note D#, 1
		octave 3
		note A#, 1
		note G_, 1
		note A#, 1
		octave 4
		note D#, 1
		octave 3
		note A#, 1
		note G_, 1
		note A#, 1
		octave 4
		note D#, 1
		octave 3
		note A#, 1
		note G_, 1
		note A#, 1
		octave 4
		note D#, 1
		octave 3
		note A#, 1
		note G_, 1
		note A#, 1
		octave 4
		note D#, 1
		octave 3
		note A#, 1
		note G_, 1
		note A#, 1
		octave 4
		note D#, 1
		octave 3
		note A#, 1
		note G_, 1
		note A#, 1
		octave 4
		note D#, 1
		octave 3
		note A#, 1
		note G_, 1
		note A#, 1
		octave 4
		note D#, 1
		octave 3
		note A#, 1
		note G_, 1
		note A#, 1
		octave 4
		note D#, 1
		octave 3
		note A#, 1
		note G_, 1
		note A#, 1
		octave 4
		note D#, 1
		octave 3
		note A#, 1
		note G_, 1
		note A#, 1
		octave 4
		note D#, 1
		octave 3
		note A#, 1
		note G_, 1
		note A#, 1
		octave 4
		note D#, 1
		octave 3
		note A#, 1
		note A_, 1
		octave 4
		note C_, 1
		note F_, 1
		note C_, 1
		octave 3
		note A_, 1
		octave 4
		note C_, 1
		note F_, 1
		note C_, 1
		octave 3
		note A_, 1
		octave 4
		note C_, 1
		note F_, 1
		note C_, 1
		octave 3
		note A_, 1
		octave 4
		note C_, 1
		note F_, 1
		note C_, 1
		octave 3
		note A_, 1
		octave 4
		note C_, 1
		note F_, 1
		note C_, 1
		octave 3
		note A_, 1
		octave 4
		note C_, 1
		note F_, 1
		note C_, 1
		octave 3
		note A_, 1
		octave 4
		note C_, 1
		note F_, 1
		note C_, 1
		octave 3
		note A_, 1
		octave 4
		note C_, 1
		note F_, 1
		note C_, 1
		octave 3
		note A_, 1
		octave 4
		note C_, 1
		note F_, 1
		note C_, 1
		octave 3
		note A_, 1
		octave 4
		note C_, 1
		note F_, 1
		note C_, 1
		octave 3
		note A_, 1
		octave 4
		note C_, 1
		note F_, 1
		note C_, 1
		octave 3
		note A_, 1
		octave 4
		note C_, 1
		note F_, 1
		note C_, 1
		octave 3
		note A_, 1
		octave 4
		note C_, 1
		note F_, 1
		note C_, 1
		octave 3
		note A_, 1
		octave 4
		note C_, 1
		note F_, 1
		note C_, 1
		octave 3
		note A_, 1
		octave 4
		note C_, 1
		note F_, 1
		note C_, 1
		octave 3
		note A_, 1
		octave 4
		note C_, 1
		note F_, 1
		note C_, 1
		note __, 16
		note __, 16
		loopchannel 0, Music_GymLeaderBattleXY_Ch2_loop 
		endchannel

Music_GymLeaderBattleXY_Ch3:
		notetype 12, $91
		note __, 16
		intensity $92
		note __, 16
Music_GymLeaderBattleXY_Ch3_loop:
		octave 2
		note C_, 2
		note F_, 2
		note C_, 2
		note F_, 2
		note C_, 2
		note F_, 2
		note C_, 2
		note F_, 2
		note C_, 2
		note F_, 2
		note C_, 2
		note F_, 2
		note C_, 2
		note F_, 2
		note C_, 2
		note F_, 2
		note C_, 2
		note F_, 2
		note C_, 2
		note F_, 2
		note C_, 2
		note F_, 2
		note C_, 2
		note F_, 2
		note C_, 2
		note F_, 2
		note C_, 2
		note F_, 2
		note C_, 2
		note F_, 2
		note C_, 2
		note F_, 2
		note C_, 2
		note F_, 2
		note C_, 2
		note F_, 2
		note C_, 2
		note F_, 2
		note C_, 2
		note F_, 2
		note C_, 2
		note F_, 2
		note C_, 2
		note F_, 2
		note C_, 2
		note F_, 2
		note C_, 2
		note F_, 2
		note C_, 2
		note F_, 2
		note C_, 2
		note F_, 2
		note C_, 2
		note F_, 2
		note C_, 2
		note F_, 2
		note C_, 2
		note F_, 2
		note C_, 2
		note F_, 2
		note C_, 2
		note F_, 2
		note C_, 2
		note F_, 2
		note C_, 2
		note F_, 2
		note C_, 2
		note F_, 2
		note C_, 2
		note F_, 2
		note C_, 2
		note F_, 2
		note C_, 2
		note F_, 2
		note C_, 2
		note F_, 2
		note C_, 2
		note F_, 2
		note C_, 2
		note F_, 2
		note __, 16
		note __, 16
		note __, 16
		note __, 16
		note __, 16
		note __, 16
		octave 1
		note B_, 2
		octave 2
		note E_, 2
		octave 1
		note B_, 2
		octave 2
		note E_, 2
		octave 1
		note B_, 2
		octave 2
		note E_, 2
		octave 1
		note B_, 2
		octave 2
		note E_, 2
		octave 1
		note B_, 2
		octave 2
		note E_, 2
		octave 1
		note B_, 2
		octave 2
		note E_, 2
		octave 1
		note B_, 2
		octave 2
		note E_, 2
		octave 1
		note B_, 2
		octave 2
		note E_, 2
		note C_, 2
		note F_, 2
		note C_, 2
		note F_, 2
		note C_, 2
		note F_, 2
		note C_, 2
		note F_, 2
		note C_, 2
		note F_, 2
		note C_, 2
		note F_, 2
		note C_, 2
		note F_, 2
		note C_, 2
		note F_, 2
		octave 1
		note A#, 2
		octave 2
		note D#, 2
		octave 1
		note A#, 2
		octave 2
		note D#, 2
		octave 1
		note A#, 2
		octave 2
		note D#, 2
		octave 1
		note A#, 2
		octave 2
		note D#, 2
		octave 1
		note A#, 2
		octave 2
		note D#, 2
		octave 1
		note A#, 2
		octave 2
		note D#, 2
		octave 1
		note A#, 2
		octave 2
		note D#, 2
		octave 1
		note A#, 2
		octave 2
		note D#, 2
		note C_, 2
		note F_, 2
		note C_, 2
		note F_, 2
		note C_, 2
		note F_, 2
		note C_, 2
		note F_, 2
		note C_, 2
		note F_, 2
		note C_, 2
		note F_, 2
		note C_, 2
		note F_, 2
		note C_, 2
		note F_, 2
		octave 1
		note B_, 2
		octave 2
		note E_, 2
		octave 1
		note B_, 2
		octave 2
		note E_, 2
		octave 1
		note B_, 2
		octave 2
		note E_, 2
		octave 1
		note B_, 2
		octave 2
		note E_, 2
		octave 1
		note B_, 2
		octave 2
		note E_, 2
		octave 1
		note B_, 2
		octave 2
		note E_, 2
		octave 1
		note B_, 2
		octave 2
		note E_, 2
		octave 1
		note B_, 2
		octave 2
		note E_, 2
		note C_, 2
		note F_, 2
		note C_, 2
		note F_, 2
		note C_, 2
		note F_, 2
		note C_, 2
		note F_, 2
		note C_, 2
		note F_, 2
		note C_, 2
		note F_, 2
		note C_, 2
		note F_, 2
		note C_, 2
		note F_, 2
		octave 1
		note A#, 2
		octave 2
		note D#, 2
		octave 1
		note A#, 2
		octave 2
		note D#, 2
		octave 1
		note A#, 2
		octave 2
		note D#, 2
		octave 1
		note A#, 2
		octave 2
		note D#, 2
		octave 1
		note A#, 2
		octave 2
		note D#, 2
		octave 1
		note A#, 2
		octave 2
		note D#, 2
		octave 1
		note A#, 2
		octave 2
		note D#, 2
		octave 1
		note A#, 2
		octave 2
		note D#, 2
		note C_, 2
		note F_, 2
		note C_, 2
		note F_, 2
		note C_, 2
		note F_, 2
		note C_, 2
		note F_, 2
		note C_, 2
		note F_, 2
		note C_, 2
		note F_, 2
		note C_, 2
		note F_, 2
		note C_, 2
		note F_, 2
		octave 1
		note B_, 2
		octave 2
		note E_, 2
		octave 1
		note B_, 2
		octave 2
		note E_, 2
		octave 1
		note B_, 2
		octave 2
		note E_, 2
		octave 1
		note B_, 2
		octave 2
		note E_, 2
		octave 1
		note B_, 2
		octave 2
		note E_, 2
		octave 1
		note B_, 2
		octave 2
		note E_, 2
		octave 1
		note B_, 2
		octave 2
		note E_, 2
		octave 1
		note B_, 2
		octave 2
		note E_, 2
		note C_, 2
		note F_, 2
		note C_, 2
		note F_, 2
		note C_, 2
		note F_, 2
		note C_, 2
		note F_, 2
		note C_, 2
		note F_, 2
		note C_, 2
		note F_, 2
		note C_, 2
		note F_, 2
		note C_, 2
		note F_, 2
		octave 1
		note A#, 2
		octave 2
		note D#, 2
		octave 1
		note A#, 2
		octave 2
		note D#, 2
		octave 1
		note A#, 2
		octave 2
		note D#, 2
		octave 1
		note A#, 2
		octave 2
		note D#, 2
		octave 1
		note A#, 2
		octave 2
		note D#, 2
		octave 1
		note A#, 2
		octave 2
		note D#, 2
		octave 1
		note A#, 2
		octave 2
		note D#, 2
		octave 1
		note A#, 2
		octave 2
		note D#, 2
		note C_, 2
		note F_, 2
		note C_, 2
		note F_, 2
		note C_, 2
		note F_, 2
		note C_, 2
		note F_, 2
		note C_, 2
		note F_, 2
		note C_, 2
		note F_, 2
		note C_, 2
		note F_, 2
		note C_, 2
		note F_, 2
		octave 1
		note B_, 2
		octave 2
		note E_, 2
		octave 1
		note B_, 2
		octave 2
		note E_, 2
		octave 1
		note B_, 2
		octave 2
		note E_, 2
		octave 1
		note B_, 2
		octave 2
		note E_, 2
		octave 1
		note B_, 2
		octave 2
		note E_, 2
		octave 1
		note B_, 2
		octave 2
		note E_, 2
		octave 1
		note B_, 2
		octave 2
		note E_, 2
		octave 1
		note B_, 2
		octave 2
		note E_, 2
		octave 1
		note B_, 2
		octave 2
		note E_, 2
		octave 1
		note B_, 2
		octave 2
		note E_, 2
		octave 1
		note B_, 2
		octave 2
		note E_, 2
		octave 1
		note B_, 2
		octave 2
		note E_, 2
		octave 1
		note B_, 2
		octave 2
		note E_, 2
		octave 1
		note B_, 2
		octave 2
		note E_, 2
		octave 1
		note B_, 2
		octave 2
		note E_, 2
		octave 1
		note B_, 2
		octave 2
		note E_, 2
		note C_, 2
		note F_, 2
		note C_, 2
		note F_, 2
		note C_, 2
		note F_, 2
		note C_, 2
		note F_, 2
		note C_, 2
		note F_, 2
		note C_, 2
		note F_, 2
		note C_, 2
		note F_, 2
		note C_, 2
		note F_, 2
		note C_, 2
		note F_, 2
		note C_, 2
		note F_, 2
		note C_, 2
		note F_, 2
		note C_, 2
		note F_, 2
		note C_, 2
		note F_, 2
		note C_, 2
		note F_, 2
		note C_, 2
		note F_, 2
		note C_, 2
		note F_, 2
		octave 1
		note A#, 2
		octave 2
		note D#, 2
		octave 1
		note A#, 2
		octave 2
		note D#, 2
		octave 1
		note A#, 2
		octave 2
		note D#, 2
		octave 1
		note A#, 2
		octave 2
		note D#, 2
		octave 1
		note A#, 2
		octave 2
		note D#, 2
		octave 1
		note A#, 2
		octave 2
		note D#, 2
		octave 1
		note A#, 2
		octave 2
		note D#, 2
		octave 1
		note A#, 2
		octave 2
		note D#, 2
		octave 1
		note A#, 2
		octave 2
		note D#, 2
		octave 1
		note A#, 2
		octave 2
		note D#, 2
		octave 1
		note A#, 2
		octave 2
		note D#, 2
		octave 1
		note A#, 2
		octave 2
		note D#, 2
		octave 1
		note A#, 2
		octave 2
		note D#, 2
		octave 1
		note A#, 2
		octave 2
		note D#, 2
		octave 1
		note A#, 2
		octave 2
		note D#, 2
		octave 1
		note A#, 2
		octave 2
		note D#, 2
		note C_, 2
		note F_, 2
		note C_, 2
		note F_, 2
		note C_, 2
		note F_, 2
		note C_, 2
		note F_, 2
		note C_, 2
		note F_, 2
		note C_, 2
		note F_, 2
		note C_, 2
		note F_, 2
		note C_, 2
		note F_, 2
		note C_, 2
		note F_, 2
		note C_, 2
		note F_, 2
		note C_, 2
		note F_, 2
		note C_, 2
		note F_, 2
		note C_, 2
		note F_, 2
		note C_, 2
		note F_, 2
		note C_, 2
		note F_, 2
		note C_, 2
		note F_, 2
		octave 1
		note B_, 2
		octave 2
		note E_, 2
		octave 1
		note B_, 2
		octave 2
		note E_, 2
		octave 1
		note B_, 2
		octave 2
		note E_, 2
		octave 1
		note B_, 2
		octave 2
		note E_, 2
		octave 1
		note B_, 2
		octave 2
		note E_, 2
		octave 1
		note B_, 2
		octave 2
		note E_, 2
		octave 1
		note B_, 2
		octave 2
		note E_, 2
		octave 1
		note B_, 2
		octave 2
		note E_, 2
		octave 1
		note B_, 2
		octave 2
		note E_, 2
		octave 1
		note B_, 2
		octave 2
		note E_, 2
		octave 1
		note B_, 2
		octave 2
		note E_, 2
		octave 1
		note B_, 2
		octave 2
		note E_, 2
		octave 1
		note B_, 2
		octave 2
		note E_, 2
		octave 1
		note B_, 2
		octave 2
		note E_, 2
		octave 1
		note B_, 2
		octave 2
		note E_, 2
		octave 1
		note B_, 2
		octave 2
		note E_, 2
		note C_, 2
		note F_, 2
		note C_, 2
		note F_, 2
		note C_, 2
		note F_, 2
		note C_, 2
		note F_, 2
		note C_, 2
		note F_, 2
		note C_, 2
		note F_, 2
		note C_, 2
		note F_, 2
		note C_, 2
		note F_, 2
		note C_, 2
		note F_, 2
		note C_, 2
		note F_, 2
		note C_, 2
		note F_, 2
		note C_, 2
		note F_, 2
		note C_, 2
		note F_, 2
		note C_, 2
		note F_, 2
		note C_, 2
		note F_, 2
		note C_, 2
		note F_, 2
		note C_, 2
		note F_, 2
		note C_, 2
		note F_, 2
		note C_, 2
		note F_, 2
		note C_, 2
		note F_, 2
		note C_, 2
		note F_, 2
		note C_, 2
		note F_, 2
		note C_, 2
		note F_, 2
		note C_, 2
		note F_, 2
		loopchannel 0, Music_GymLeaderBattleXY_Ch3_loop 
		endchannel

Music_GymLeaderBattleXY_Ch4:
		notetype $C
		togglenoise 0
		note D#, 1
		note __, 3
		note D#, 1
		note __, 3
		note D#, 1
		note __, 3
		note D#, 1
		note __, 3
		note D#, 1
		note __, 3
		note D#, 1
		note __, 3
		note D#, 1
		note __, 1
		note D#, 1
		note __, 1
		note D#, 1
		note A_, 1
		note D#, 1
		note A_, 1
Music_GymLeaderBattleXY_Ch4_loop:
		note D#, 1
		note G_, 1
		note G#, 1
		note __, 1
		note D#, 1
		note G_, 1
		note G#, 1
		note __, 1
		note D#, 1
		note G_, 1
		note G#, 1
		note __, 1
		note D#, 1
		note G_, 1
		note G#, 1
		note __, 1
		note D#, 1
		note G_, 1
		note G#, 1
		note __, 1
		note D#, 1
		note G_, 1
		note G#, 1
		note __, 1
		note D#, 1
		note G_, 1
		note G#, 1
		note __, 1
		note D#, 1
		note G_, 1
		note G#, 1
		note __, 1
		note D#, 1
		note G_, 1
		note G#, 1
		note __, 1
		note D#, 1
		note G_, 1
		note G#, 1
		note __, 1
		note D#, 1
		note G_, 1
		note G#, 1
		note __, 1
		note D#, 1
		note G_, 1
		note G#, 1
		note __, 1
		note D#, 1
		note G_, 1
		note G#, 1
		note __, 1
		note D#, 1
		note G_, 1
		note G#, 1
		note __, 1
		note D#, 1
		note G_, 1
		note G#, 1
		note __, 1
		note D#, 1
		note G_, 1
		note G#, 1
		note __, 1
		note D#, 1
		note G_, 1
		note G#, 1
		note __, 1
		note D#, 1
		note G_, 1
		note G#, 1
		note __, 1
		note D#, 1
		note G_, 1
		note G#, 1
		note __, 1
		note D#, 1
		note G_, 1
		note G#, 1
		note __, 1
		note D#, 1
		note G_, 1
		note G#, 1
		note __, 1
		note D#, 1
		note G_, 1
		note G#, 1
		note __, 1
		note D#, 1
		note G_, 1
		note G#, 1
		note __, 1
		note D#, 1
		note G_, 1
		note G#, 1
		note __, 1
		note D#, 1
		note G_, 1
		note G#, 1
		note __, 1
		note D#, 1
		note G_, 1
		note G#, 1
		note __, 1
		note D#, 1
		note G_, 1
		note G#, 1
		note __, 1
		note D#, 1
		note G_, 1
		note G#, 1
		note __, 1
		note D#, 1
		note G_, 1
		note G#, 1
		note __, 1
		note D#, 1
		note G_, 1
		note G#, 1
		note __, 1
		note D#, 1
		note G_, 1
		note G#, 1
		note __, 1
		note D#, 1
		note G_, 1
		note G#, 1
		note __, 1
		note D#, 1
		note G_, 1
		note G#, 1
		note __, 1
		note D#, 1
		note G_, 1
		note G#, 1
		note __, 1
		note D#, 1
		note G_, 1
		note G#, 1
		note __, 1
		note D#, 1
		note G_, 1
		note G#, 1
		note __, 1
		note D#, 1
		note G_, 1
		note G#, 1
		note __, 1
		note D#, 1
		note G_, 1
		note G#, 1
		note __, 1
		note D#, 1
		note G_, 1
		note G#, 1
		note __, 1
		note D#, 1
		note G_, 1
		note G#, 1
		note __, 1
		note D#, 1
		note __, 3
		note D#, 1
		note __, 3
		note D#, 1
		note __, 3
		note D#, 1
		note __, 3
		note D#, 1
		note __, 3
		note D#, 1
		note __, 3
		note D#, 1
		note __, 3
		note D#, 1
		note __, 3
		note D#, 1
		note __, 3
		note D#, 1
		note __, 3
		note D#, 1
		note __, 3
		note D#, 1
		note __, 3
		note D#, 1
		note __, 3
		note D#, 1
		note __, 3
		note D#, 1
		note __, 3
		note D#, 1
		note __, 3
		note D#, 1
		note __, 3
		note D#, 1
		note __, 3
		note D#, 1
		note __, 3
		note D#, 1
		note __, 3
		note D#, 1
		note __, 3
		note D#, 1
		note __, 3
		note D#, 1
		note A_, 1
		note D#, 1
		note A_, 1
		note D#, 1
		note A_, 1
		note D#, 1
		note A_, 1
		note D#, 1
		note G_, 1
		note __, 1
		note G_, 1
		note C_, 1
		note G_, 1
		note D#, 1
		note G_, 1
		note D#, 1
		note G_, 1
		note __, 1
		note G_, 1
		note C_, 1
		note G_, 1
		note __, 1
		note G_, 1
		note D#, 1
		note G_, 1
		note __, 1
		note G_, 1
		note C_, 1
		note G_, 1
		note D#, 1
		note G_, 1
		note D#, 1
		note G_, 1
		note __, 1
		note G_, 1
		note C_, 1
		note G_, 1
		note __, 1
		note G_, 1
		note D#, 1
		note G_, 1
		note __, 1
		note G_, 1
		note C_, 1
		note G_, 1
		note D#, 1
		note G_, 1
		note D#, 1
		note G_, 1
		note __, 1
		note G_, 1
		note C_, 1
		note G_, 1
		note __, 1
		note G_, 1
		note D#, 1
		note G_, 1
		note __, 1
		note G_, 1
		note C_, 1
		note G_, 1
		note D#, 1
		note G_, 1
		note D#, 1
		note G_, 1
		note __, 1
		note G_, 1
		note C_, 1
		note G_, 1
		note C_, 1
		note G_, 1
		note D#, 1
		note G_, 1
		note __, 1
		note G_, 1
		note C_, 1
		note G_, 1
		note D#, 1
		note G_, 1
		note D#, 1
		note G_, 1
		note __, 1
		note G_, 1
		note C_, 1
		note G_, 1
		note __, 1
		note G_, 1
		note D#, 1
		note G_, 1
		note __, 1
		note G_, 1
		note C_, 1
		note G_, 1
		note D#, 1
		note G_, 1
		note D#, 1
		note G_, 1
		note __, 1
		note G_, 1
		note C_, 1
		note G_, 1
		note __, 1
		note G_, 1
		note D#, 1
		note G_, 1
		note __, 1
		note G_, 1
		note C_, 1
		note G_, 1
		note D#, 1
		note G_, 1
		note D#, 1
		note G_, 1
		note __, 1
		note G_, 1
		note C_, 1
		note G_, 1
		note __, 1
		note G_, 1
		note D#, 1
		note G_, 1
		note __, 1
		note G_, 1
		note C_, 1
		note G_, 1
		note D#, 1
		note G_, 1
		note D#, 1
		note G_, 1
		note __, 1
		note G_, 1
		note C_, 1
		note G_, 1
		note C_, 1
		note G_, 1
		note D#, 1
		note G_, 1
		note __, 1
		note G_, 1
		note C_, 1
		note G_, 1
		note D#, 1
		note G_, 1
		note D#, 1
		note G_, 1
		note __, 1
		note G_, 1
		note C_, 1
		note G_, 1
		note __, 1
		note G_, 1
		note D#, 1
		note G_, 1
		note __, 1
		note G_, 1
		note C_, 1
		note G_, 1
		note D#, 1
		note G_, 1
		note D#, 1
		note G_, 1
		note __, 1
		note G_, 1
		note C_, 1
		note G_, 1
		note __, 1
		note G_, 1
		note D#, 1
		note G_, 1
		note __, 1
		note G_, 1
		note C_, 1
		note G_, 1
		note D#, 1
		note G_, 1
		note D#, 1
		note G_, 1
		note __, 1
		note G_, 1
		note C_, 1
		note G_, 1
		note __, 1
		note G_, 1
		note D#, 1
		note G_, 1
		note __, 1
		note G_, 1
		note C_, 1
		note G_, 1
		note D#, 1
		note G_, 1
		note D#, 1
		note G_, 1
		note __, 1
		note G_, 1
		note C_, 1
		note G_, 1
		note C_, 1
		note G_, 1
		note D#, 1
		note G_, 1
		note __, 1
		note G_, 1
		note C_, 1
		note G_, 1
		note D#, 1
		note G_, 1
		note D#, 1
		note G_, 1
		note __, 1
		note G_, 1
		note C_, 1
		note G_, 1
		note __, 1
		note G_, 1
		note D#, 1
		note G_, 1
		note __, 1
		note G_, 1
		note C_, 1
		note G_, 1
		note D#, 1
		note G_, 1
		note D#, 1
		note G_, 1
		note __, 1
		note G_, 1
		note C_, 1
		note G_, 1
		note __, 1
		note G_, 1
		note D#, 1
		note G_, 1
		note __, 1
		note G_, 1
		note C_, 1
		note G_, 1
		note D#, 1
		note G_, 1
		note D#, 1
		note G_, 1
		note __, 1
		note G_, 1
		note C_, 1
		note G_, 1
		note __, 1
		note G_, 1
		note D#, 1
		note G_, 1
		note __, 1
		note G_, 1
		note C_, 1
		note G_, 1
		note D#, 1
		note G_, 1
		note D#, 1
		note G_, 1
		note __, 1
		note G_, 1
		note C_, 1
		note G_, 1
		note C_, 1
		note G_, 1
		note D#, 1
		note G_, 1
		note __, 1
		note G_, 1
		note C_, 1
		note G_, 1
		note D#, 1
		note G_, 1
		note D#, 1
		note G_, 1
		note __, 1
		note G_, 1
		note C_, 1
		note G_, 1
		note __, 1
		note G_, 1
		note D#, 1
		note G_, 1
		note __, 1
		note G_, 1
		note C_, 1
		note G_, 1
		note D#, 1
		note G_, 1
		note D#, 1
		note G_, 1
		note __, 1
		note G_, 1
		note C_, 1
		note G_, 1
		note __, 1
		note G_, 1
		note D#, 1
		note G_, 1
		note __, 1
		note G_, 1
		note C_, 1
		note G_, 1
		note D#, 1
		note G_, 1
		note D#, 1
		note G_, 1
		note __, 1
		note G_, 1
		note C_, 1
		note G_, 1
		note __, 1
		note G_, 1
		note D#, 1
		note G_, 1
		note __, 1
		note G_, 1
		note C_, 1
		note G_, 1
		note D#, 1
		note G_, 1
		note D#, 1
		note G_, 1
		note __, 1
		note G_, 1
		note C_, 1
		note G_, 1
		note C_, 1
		note G_, 1
		note D#, 1
		note G_, 1
		note __, 1
		note G_, 1
		note C_, 1
		note G_, 1
		note D#, 1
		note G_, 1
		note D#, 1
		note G_, 1
		note __, 1
		note G_, 1
		note C_, 1
		note G_, 1
		note __, 1
		note G_, 1
		note D#, 1
		note G_, 1
		note __, 1
		note G_, 1
		note C_, 1
		note G_, 1
		note D#, 1
		note G_, 1
		note D#, 1
		note G_, 1
		note __, 1
		note G_, 1
		note C_, 1
		note G_, 1
		note __, 1
		note G_, 1
		note D#, 1
		note G_, 1
		note __, 1
		note G_, 1
		note C_, 1
		note G_, 1
		note D#, 1
		note G_, 1
		note D#, 1
		note G_, 1
		note __, 1
		note G_, 1
		note C_, 1
		note G_, 1
		note __, 1
		note G_, 1
		note D#, 1
		note G_, 1
		note __, 1
		note G_, 1
		note C_, 1
		note G_, 1
		note D#, 1
		note G_, 1
		note D#, 1
		note A_, 1
		note D#, 1
		note A_, 1
		note C_, 1
		note D#, 1
		note C_, 1
		note D#, 1
		note A_, 1
		note __, 3
		note D#, 1
		note __, 3
		note D#, 1
		note __, 3
		note D#, 1
		note __, 3
		note D#, 1
		note __, 3
		note D#, 1
		note __, 3
		note D#, 1
		note __, 3
		note D#, 1
		note __, 3
		note D#, 1
		note __, 3
		note D#, 1
		note __, 3
		note D#, 1
		note __, 3
		note D#, 1
		note __, 3
		note D#, 1
		note __, 3
		note D#, 1
		note __, 3
		note D#, 1
		note __, 3
		note D#, 1
		note __, 3
		note D#, 1
		note G_, 1
		note A_, 1
		note __, 1
		note D#, 1
		note G_, 1
		note A_, 1
		note __, 1
		note D#, 1
		note G_, 1
		note A_, 1
		note __, 1
		note D#, 1
		note G_, 1
		note A_, 1
		note __, 1
		note D#, 1
		note G_, 1
		note A_, 1
		note __, 1
		note D#, 1
		note G_, 1
		note A_, 1
		note __, 1
		note D#, 1
		note G_, 1
		note A_, 1
		note __, 1
		note D#, 1
		note G_, 1
		note A_, 1
		note __, 1
		note D#, 1
		note G_, 1
		note A_, 1
		note __, 1
		note D#, 1
		note G_, 1
		note A_, 1
		note __, 1
		note D#, 1
		note G_, 1
		note A_, 1
		note __, 1
		note D#, 1
		note G_, 1
		note A_, 1
		note __, 1
		note D#, 1
		note G_, 1
		note A_, 1
		note __, 1
		note D#, 1
		note G_, 1
		note A_, 1
		note __, 1
		note D#, 1
		note G_, 1
		note A_, 1
		note __, 1
		note D#, 1
		note G_, 1
		note A_, 1
		note __, 1
		note D#, 1
		note G_, 1
		note A_, 1
		note __, 1
		note D#, 1
		note G_, 1
		note A_, 1
		note __, 1
		note D#, 1
		note G_, 1
		note A_, 1
		note __, 1
		note D#, 1
		note G_, 1
		note A_, 1
		note __, 1
		note D#, 1
		note G_, 1
		note A_, 1
		note __, 1
		note D#, 1
		note G_, 1
		note A_, 1
		note __, 1
		note D#, 1
		note G_, 1
		note A_, 1
		note __, 1
		note D#, 1
		note G_, 1
		note A_, 1
		note __, 1
		note D#, 1
		note G_, 1
		note A_, 1
		note __, 1
		note D#, 1
		note G_, 1
		note A_, 1
		note __, 1
		note D#, 1
		note G_, 1
		note A_, 1
		note __, 1
		note D#, 1
		note G_, 1
		note A_, 1
		note __, 1
		note D#, 1
		note G_, 1
		note A_, 1
		note __, 1
		note D#, 1
		note G_, 1
		note A_, 1
		note __, 1
		note D#, 1
		note G_, 1
		note A_, 1
		note __, 1
		note D#, 1
		note G_, 1
		note A_, 1
		note __, 1
		note D#, 1
		note G_, 1
		note A_, 1
		note __, 1
		note D#, 1
		note G_, 1
		note A_, 1
		note __, 1
		note D#, 1
		note G_, 1
		note A_, 1
		note __, 1
		note D#, 1
		note G_, 1
		note A_, 1
		note __, 1
		note D#, 1
		note G_, 1
		note A_, 1
		note __, 1
		note D#, 1
		note G_, 1
		note A_, 1
		note __, 1
		note D#, 1
		note G_, 1
		note A_, 1
		note __, 1
		note D#, 1
		note G_, 1
		note A_, 1
		note __, 1
		note D#, 1
		note G_, 1
		note A_, 1
		note __, 1
		note D#, 1
		note G_, 1
		note A_, 1
		note __, 1
		note D#, 1
		note G_, 1
		note A_, 1
		note __, 1
		note D#, 1
		note G_, 1
		note A_, 1
		note __, 1
		note D#, 1
		note G_, 1
		note A_, 1
		note __, 1
		note D#, 1
		note G_, 1
		note A_, 1
		note __, 1
		note D#, 1
		note G_, 1
		note A_, 1
		note __, 1
		note D#, 1
		note G_, 1
		note A_, 1
		note __, 1
		note D#, 1
		note G_, 1
		note A_, 1
		note __, 1
		note D#, 1
		note G_, 1
		note A_, 1
		note __, 1
		note D#, 1
		note G_, 1
		note A_, 1
		note __, 1
		note D#, 1
		note G_, 1
		note A_, 1
		note __, 1
		note D#, 1
		note G_, 1
		note A_, 1
		note __, 1
		note D#, 1
		note G_, 1
		note A_, 1
		note __, 1
		note D#, 1
		note G_, 1
		note A_, 1
		note __, 1
		note D#, 1
		note G_, 1
		note A_, 1
		note __, 1
		note D#, 1
		note G_, 1
		note A_, 1
		note __, 1
		note D#, 1
		note G_, 1
		note A_, 1
		note __, 1
		note D#, 1
		note G_, 1
		note A_, 1
		note __, 1
		note D#, 1
		note G_, 1
		note A_, 1
		note __, 1
		note D#, 1
		note G_, 1
		note A_, 1
		note __, 1
		note D#, 1
		note G_, 1
		note A_, 1
		note __, 1
		note D#, 1
		note G_, 1
		note A_, 1
		note __, 1
		note D#, 1
		note G_, 1
		note A_, 1
		note __, 1
		note D#, 1
		note G_, 1
		note A_, 1
		note __, 1
		note D#, 1
		note G_, 1
		note A_, 1
		note __, 1
		note D#, 1
		note G_, 1
		note A_, 1
		note __, 1
		note D#, 1
		note G_, 1
		note A_, 1
		note __, 1
		note D#, 1
		note G_, 1
		note A_, 1
		note __, 1
		note D#, 1
		note G_, 1
		note A_, 1
		note __, 1
		note D#, 1
		note G_, 1
		note A_, 1
		note __, 1
		note D#, 1
		note G_, 1
		note A_, 1
		note __, 1
		note D#, 1
		note G_, 1
		note A_, 1
		note __, 1
		note D#, 1
		note G_, 1
		note A_, 1
		note __, 1
		note D#, 1
		note G_, 1
		note A_, 1
		note __, 1
		note D#, 1
		note G_, 1
		note A_, 1
		note __, 1
		note D#, 1
		note G_, 1
		note A_, 1
		note __, 1
		note D#, 1
		note G_, 1
		note A_, 1
		note __, 1
		note D#, 1
		note G_, 1
		note A_, 1
		note __, 1
		note D#, 1
		note G_, 1
		note A_, 1
		note __, 1
		note D#, 1
		note G_, 1
		note A_, 1
		note __, 1
		note D#, 1
		note G_, 1
		note A_, 1
		note __, 1
		note D#, 1
		note G_, 1
		note A_, 1
		note __, 1
		note D#, 1
		note G_, 1
		note A_, 1
		note __, 1
		note D#, 1
		note G_, 1
		note A_, 1
		note __, 1
		note D#, 1
		note G_, 1
		note A_, 1
		note __, 1
		note D#, 1
		note G_, 1
		note A_, 1
		note __, 1
		note D#, 1
		note G_, 1
		note A_, 1
		note __, 1
		loopchannel 0, Music_GymLeaderBattleXY_Ch4_loop 
		endchannel
