; Pokémon X/Y - Battle! Gym Leader
; Demixed by Pum
; https://hax.iimarckus.org/topic/6443/

Music_GymLeaderBattleXY:
	channel_count 4
	channel 1, Music_GymLeaderBattleXY_Ch1
	channel 2, Music_GymLeaderBattleXY_Ch2
	channel 3, Music_GymLeaderBattleXY_Ch3
	channel 4, Music_GymLeaderBattleXY_Ch4

Music_GymLeaderBattleXY_Ch1:
	tempo $82
	volume 7, 7
	dutycycle 1
	note_type 3, 11, 7
	stereopanning $F0
	octave 4
	note C_, 4
	note __, 4
	note C_, 4
	note C#, 4
	octave 3
	note A#, 4
	octave 4
	note D#, 4
	note C#, 4
	octave 3
	note A#, 4
	octave 4
	note C_, 4
	note __, 4
	note C#, 4
	note F_, 4
	note F#, 4
	note C_, 4
	octave 3
	note G#, 4
	note B_, 4
	octave 4
	note C_, 4
	note __, 4
	note C_, 4
	note C#, 4
	octave 3
	note A#, 4
	octave 4
	note D#, 4
	note C#, 4
	octave 3
	note A#, 4
	octave 4
	note C_, 4
	note __, 4
	note C_, 4
	note C#, 4
	note D#, 4
	note C_, 4
	octave 3
	note A_, 4
	note F#, 4
	octave 4
	note C_, 4
	note __, 4
	note C_, 4
	note C#, 4
	octave 3
	note A#, 4
	octave 4
	note D#, 4
	note C#, 4
	octave 3
	note A#, 4
	octave 4
	note C_, 4
	note __, 4
	note E_, 2
	note __, 2
	note E_, 4
	octave 3
	note A_, 2
	note __, 2
	note A_, 4
	note B_, 2
	note __, 2
	note B_, 4
	octave 4
	note C_, 4
	note __, 4
	note C_, 4
	note C#, 4
	octave 3
	note A#, 4
	octave 4
	note D#, 4
	note C#, 4
	octave 3
	note A#, 4
	octave 4
	note C_, 4
	note __, 4
	note C_, 4
	note C#, 4
	octave 3
	note A_, 4
	note A#, 2
	note __, 2
	note A#, 2
	note __, 2
	note A#, 4
Music_GymLeaderBattleXY_Ch1_loop:
	note_type 3, 9, 7
	stereopanning $FF
	octave 4
	note C_, 4
	note __, 4
	note C_, 4
	note C#, 4
	octave 3
	note A#, 4
	octave 4
	note D#, 4
	note C#, 4
	octave 3
	note A#, 4
	octave 4
	note C_, 4
	note __, 4
	note C_, 4
	note C#, 4
	octave 3
	note A#, 4
	octave 4
	note D#, 4
	note C#, 4
	octave 3
	note A#, 4
	octave 4
	note C_, 4
	note __, 4
	note C_, 4
	note C#, 4
	octave 3
	note A#, 4
	octave 4
	note D#, 4
	note C#, 4
	octave 3
	note A#, 4
	octave 4
	note C_, 4
	note __, 4
	note C_, 4
	note C#, 4
	octave 3
	note A#, 4
	octave 4
	note D#, 4
	note C#, 4
	octave 3
	note A#, 4
	octave 4
	note C_, 4
	note __, 4
	note C_, 4
	note C#, 4
	octave 3
	note A#, 4
	octave 4
	note D#, 4
	note C#, 4
	octave 3
	note A#, 4
	octave 4
	note C_, 4
	note __, 4
	note C#, 4
	note F_, 4
	note F#, 4
	note C_, 4
	octave 3
	note G#, 4
	note B_, 4
	octave 4
	note C_, 4
	note __, 4
	note C_, 4
	note C#, 4
	octave 3
	note A#, 4
	octave 4
	note D#, 4
	note C#, 4
	octave 3
	note A#, 4
	octave 4
	note C_, 4
	note __, 4
	note C_, 4
	note C#, 4
	note D#, 4
	note C_, 4
	octave 3
	note A_, 4
	note F#, 4
	octave 4
	note C_, 4
	note __, 4
	note C_, 4
	note C#, 4
	octave 3
	note A#, 4
	octave 4
	note D#, 4
	note C#, 4
	octave 3
	note A#, 4
	octave 4
	note C_, 4
	note __, 4
	note E_, 4
	note E_, 2
	note __, 2
	octave 3
	note A_, 2
	note __, 2
	note A_, 4
	note B_, 2
	note __, 2
	note B_, 4
	octave 4
	note C_, 4
	note __, 4
	note C_, 4
	note C#, 4
	octave 3
	note A#, 4
	octave 4
	note D#, 4
	note C#, 4
	octave 3
	note A#, 4
	octave 4
	note C_, 4
	note __, 4
	note C_, 4
	note C#, 4
	octave 3
	note A_, 4
	note A#, 2
	note __, 2
	note A#, 2
	note __, 2
	note A#, 4
	octave 4
	note C_, 4
	note __, 4
	note C_, 4
	note C#, 4
	octave 3
	note A#, 4
	octave 4
	note D#, 4
	note C#, 4
	octave 3
	note A#, 4
	octave 4
	note C_, 4
	note __, 4
	note C_, 4
	note C#, 4
	octave 3
	note A#, 4
	octave 4
	note D#, 4
	note C#, 4
	octave 3
	note A#, 4
	octave 4
	note C_, 4
	note __, 4
	note C_, 4
	note C#, 4
	octave 3
	note A#, 4
	octave 4
	note D#, 4
	note C#, 4
	octave 3
	note A#, 4
	octave 4
	note C_, 4
	note __, 4
	note C_, 4
	note C#, 4
	octave 3
	note A#, 4
	octave 4
	note D#, 4
	note C#, 4
	octave 3
	note A#, 4
	note_type 12, 11, 7
	note __, 16
	note __, 16
	note_type 3, 11, 7
	stereopanning $F0
	octave 4
	note C_, 4
	note __, 4
	note C_, 4
	note C#, 4
	octave 3
	note A#, 4
	octave 4
	note D#, 4
	note C#, 4
	octave 3
	note A#, 4
	octave 4
	note C_, 4
	note __, 4
	note E_, 2
	note __, 2
	note E_, 4
	octave 3
	note A_, 2
	note __, 2
	note A_, 4
	note B_, 2
	note __, 2
	note B_, 4
	octave 4
	note C_, 4
	note __, 4
	note C_, 4
	note C#, 4
	octave 3
	note A#, 4
	octave 4
	note D#, 4
	note C#, 4
	octave 3
	note A#, 4
	octave 4
	note C_, 4
	note __, 4
	note C_, 4
	note C#, 4
	octave 3
	note A_, 4
	note A#, 2
	note __, 2
	note A#, 2
	note __, 2
	note A#, 4
	octave 4
	note C_, 4
	note __, 4
	note C_, 4
	note C#, 4
	octave 3
	note A#, 4
	octave 4
	note D#, 4
	note C#, 4
	octave 3
	note A#, 4
	octave 4
	note C_, 4
	note __, 4
	note C_, 4
	note C#, 4
	octave 3
	note A#, 4
	octave 4
	note D#, 4
	note C#, 4
	octave 3
	note A#, 4
	octave 4
	note C_, 4
	note __, 4
	note C_, 4
	note C#, 4
	octave 3
	note A#, 4
	octave 4
	note D#, 4
	note C#, 4
	octave 3
	note A#, 4
	octave 4
	note C_, 4
	note __, 4
	note C_, 4
	note C#, 4
	octave 3
	note A#, 4
	octave 4
	note D#, 4
	note C#, 4
	octave 3
	note A#, 4
	octave 2
	note_type 3, 14, 7
	dutycycle 1
	note G_, 3
	note __, 1
	note G_, 3
	note __, 1
	note G_, 7
	note __, 1
	note G_, 3
	note __, 1
	note G_, 3
	note __, 1
	note G_, 7
	note __, 1
	note G_, 3
	note __, 1
	note G_, 3
	note __, 1
	note G_, 7
	note __, 1
	note G_, 3
	note __, 1
	note G_, 3
	note __, 1
	note G_, 8
	note A#, 3
	note __, 1
	note A#, 3
	note __, 1
	note A#, 7
	note __, 1
	note A#, 3
	note __, 1
	note A#, 3
	note __, 1
	note A#, 7
	note __, 1
	note A#, 3
	note __, 1
	note A#, 3
	note __, 1
	note A#, 7
	note __, 1
	note A#, 3
	note __, 1
	note A#, 3
	note __, 1
	note A#, 8
	note_type 3, 14, 7
	dutycycle 2
	note F_, 4
	note __, 4
	note F_, 4
	note F#, 4
	note D#, 4
	note G#, 4
	note F#, 4
	note D#, 4
	note F_, 4
	note __, 4
	note F#, 4
	note A#, 4
	note B_, 4
	note F_, 4
	note C#, 4
	note E_, 4
	note F_, 4
	note __, 4
	note F_, 4
	note F#, 4
	note D#, 4
	note G#, 4
	note F#, 4
	note D#, 4
	note F_, 4
	note __, 4
	note F_, 4
	note F#, 4
	note G#, 4
	note F_, 4
	note D_, 4
	octave 1
	note B_, 4
	dutycycle 1
	octave 2
	note G_, 3
	note __, 1
	note G_, 3
	note __, 1
	note G_, 7
	note __, 1
	note G_, 3
	note __, 1
	note G_, 3
	note __, 1
	note G_, 7
	note __, 1
	note G_, 3
	note __, 1
	note G_, 3
	note __, 1
	note G_, 7
	note __, 1
	note G_, 3
	note __, 1
	note G_, 3
	note __, 1
	note G_, 8
	note A#, 3
	note __, 1
	note A#, 3
	note __, 1
	note A#, 7
	note __, 1
	note A#, 3
	note __, 1
	note A#, 3
	note __, 1
	note A#, 7
	note __, 1
	note A#, 3
	note __, 1
	note A#, 3
	note __, 1
	note A#, 7
	note __, 1
	note A#, 3
	note __, 1
	note A#, 3
	note __, 1
	note A#, 8
	dutycycle 2
	note F_, 4
	note __, 4
	note F_, 4
	note F#, 4
	note D#, 4
	note G#, 4
	note F#, 4
	note D#, 4
	note F_, 4
	note __, 4
	note A_, 2
	note __, 2
	note A_, 4
	note D_, 2
	note __, 2
	note D_, 4
	note E_, 2
	note __, 2
	note E_, 4
	note F_, 4
	note __, 4
	note F_, 4
	note F#, 4
	note D#, 4
	note G#, 4
	note F#, 4
	note D#, 4
	note F_, 4
	note __, 4
	note F_, 4
	note F#, 4
	note D_, 4
	note D#, 2
	note __, 2
	note D#, 2
	note __, 2
	note D#, 4
	octave 3
	note_type 12, 15, 7
	vibrato 0, $26
	note A#, 12
	note A_, 4
	note A#, 4
	note A_, 4
	note G_, 4
	note F_, 4
	note A_, 12
	note F_, 4
	note_type 12, 10, -7
	note C_, 8
	note_type 12, 15, 7
	note C_, 8
	note A#, 12
	note A_, 4
	note A#, 4
	octave 4
	note C_, 4
	note D_, 2
	note C_, 2
	octave 3
	note A#, 2
	octave 4
	note D_, 2
	note C_, 12
	note F_, 4
	note F_, 14
	octave 3
	note A_, 2
	note_type 12, 7, -7
	note A#, 16
	note_type 12, 15, 8
	note A#, 6
	note_type 12, 15, 7
	note A#, 10
	note_type 12, 15, 8
	note D#, 16
	note_type 12, 15, 7
	note D#, 8
	note G_, 8
	note_type 12, 15, 8
	note C_, 16
	note C_, 6
	note_type 12, 15, 7
	note C_, 10
	octave 2
	note_type 12, 15, 8
	note F_, 16
	note F_, 6
	note_type 12, 15, 7
	note F_, 10
	note_type 12, 15, 8
	note D#, 16
	note_type 12, 15, 7
	note D#, 8
	note G_, 8
	octave 3
	note_type 12, 15, 8
	note D#, 16
	note_type 12, 15, 7
	note D#, 8
	note G_, 8
	note_type 12, 15, 8
	note F_, 16
	note F_, 6
	note_type 12, 15, 7
	note F_, 10
	note_type 12, 7, -7
	note A_, 16
	note_type 12, 15, 8
	note A_, 6
	note_type 12, 15, 7
	note A_, 10
	note G_, 16
	note D#, 4
	note G_, 4
	note A#, 8
	octave 4
	note D#, 16
	note G_, 8
	note F_, 8
	note C_, 16
	octave 3
	note A_, 16
	note F_, 16
	note C_, 16
	vibrato 0, $0
	octave 5
	note_type 3, 11, 7
	note D#, 4
	octave 4
	note A#, 4
	octave 5
	note D#, 3
	note __, 1
	note D#, 4
	note E_, 4
	octave 4
	note B_, 4
	octave 5
	note E_, 3
	note __, 1
	note E_, 4
	note F_, 4
	note C_, 4
	note F_, 3
	note __, 1
	note F_, 4
	note F#, 4
	note C#, 4
	note F#, 3
	note __, 1
	note F#, 4
	note G_, 4
	note D_, 4
	note G_, 3
	note __, 1
	note G_, 4
	note G#, 4
	note D#, 4
	note G#, 3
	note __, 1
	note G#, 4
	note A_, 4
	note E_, 4
	note A_, 3
	note __, 1
	note A_, 4
	note A#, 4
	note F_, 4
	note A#, 3
	note __, 1
	note A#, 4
	jumpchannel Music_GymLeaderBattleXY_Ch1_loop
	endchannel

Music_GymLeaderBattleXY_Ch2:
	dutycycle 2
	note_type 3, 11, 7
	octave 3
	stereopanning $0F
	note C_, 4
	note __, 4
	note C_, 4
	note C#, 4
	octave 2
	note A#, 4
	octave 3
	note D#, 4
	note C#, 4
	octave 2
	note A#, 4
	octave 3
	note C_, 4
	note __, 4
	note C#, 4
	note F_, 4
	note F#, 4
	note C_, 4
	octave 2
	note G#, 4
	note B_, 4
	octave 3
	note C_, 4
	note __, 4
	note C_, 4
	note C#, 4
	octave 2
	note A#, 4
	octave 3
	note D#, 4
	note C#, 4
	octave 2
	note A#, 4
	octave 3
	note C_, 4
	note __, 4
	note C_, 4
	note C#, 4
	note D#, 4
	note C_, 4
	octave 2
	note A_, 4
	note F#, 4
	note F_, 4
	note __, 4
	note F_, 4
	note F#, 4
	note D#, 4
	note G#, 4
	note F#, 4
	note D#, 4
	note F_, 8
	note A_, 2
	note __, 2
	note A_, 4
	note D_, 2
	note __, 2
	note D_, 4
	note E_, 2
	note __, 2
	note E_, 4
	note F_, 4
	note __, 4
	note F_, 4
	note F#, 4
	note D#, 4
	note G#, 4
	note F#, 4
	note D#, 4
	note F_, 4
	note __, 4
	note F_, 4
	note F#, 4
	note D_, 4
	note D#, 2
	note __, 2
	note D#, 2
	note __, 2
	note D#, 4
Music_GymLeaderBattleXY_Ch2_loop:
	stereopanning $F0
	vibrato 0, $46
	octave 3
	note_type 12, 11, -7
	note G_, 10
	note_type 12, 15, 7
	note G_, 6
	stereopanning $0F
	note_type 12, 11, -7
	note A#, 10
	note_type 12, 15, 7
	note A#, 6
	stereopanning $F0
	note_type 12, 11, -7
	note A_, 10
	note_type 12, 15, 7
	note A_, 6
	stereopanning $0F
	octave 4
	note_type 12, 11, -7
	note C_, 10
	note_type 12, 15, 7
	note C_, 6
	stereopanning $F0
	octave 3
	note_type 12, 11, -7
	note G_, 10
	note_type 12, 15, 7
	note G_, 6
	stereopanning $0F
	note_type 12, 11, -7
	note A#, 10
	note_type 12, 15, 7
	note A#, 6
	stereopanning $F0
	note_type 12, 11, -7
	note A_, 10
	note_type 12, 15, 7
	note A_, 6
	stereopanning $0F
	octave 4
	note_type 12, 11, -7
	note C_, 10
	note_type 12, 15, 7
	note C_, 6
	note __, 16
	note __, 16
	stereopanning $FF
	vibrato 0, $C1
	octave 2
	note_type 12, 1, -7
	note F_, 4
	note_type 12, 3, -7
	note F_, 4
	note_type 12, 5, -7
	note F_, 4
	note_type 12, 7, -7
	note F_, 4
	note F_, 4
	note_type 12, 9, -7
	note F_, 4
	note_type 12, 11, -7
	note F_, 4
	note_type 12, 13, -7
	note F_, 4
	note_type 12, 15, 8
	note F_, 16
	note_type 12, 15, 7
	note F_, 16
	vibrato 0, $0
	stereopanning $0F
	note_type 3, 14, 7
	dutycycle 1
	octave 2
	note G_, 2
	note __, 1
	note G_, 3
	note __, 1
	note G_, 7
	note __, 1
	note G_, 3
	note __, 1
	note G_, 3
	note __, 1
	note G_, 7
	note __, 1
	note G_, 3
	note __, 1
	note G_, 3
	note __, 1
	note G_, 7
	note __, 1
	note G_, 3
	note __, 1
	note G_, 3
	note __, 1
	note G_, 8
	note A#, 3
	note __, 1
	note A#, 3
	note __, 1
	note A#, 7
	note __, 1
	note A#, 3
	note __, 1
	note A#, 3
	note __, 1
	note A#, 7
	note __, 1
	note A#, 3
	note __, 1
	note A#, 3
	note __, 1
	note A#, 7
	note __, 1
	note A#, 3
	note __, 1
	note A#, 3
	note __, 1
	note A#, 8
	dutycycle 2
	note F_, 4
	note __, 4
	note F_, 4
	note F#, 4
	note D#, 4
	note G#, 4
	note F#, 4
	note D#, 4
	note F_, 4
	note __, 4
	note F#, 4
	note A#, 4
	note B_, 4
	note F_, 4
	note C#, 4
	note E_, 4
	note F_, 4
	note __, 4
	note F_, 4
	note F#, 4
	note D#, 4
	note G#, 4
	note F#, 4
	note D#, 4
	note F_, 4
	note __, 4
	note F_, 4
	note F#, 4
	note G#, 4
	note F_, 4
	note D_, 4
	octave 1
	note B_, 4
	octave 2
	dutycycle 1
	note G_, 3
	note __, 1
	note G_, 3
	note __, 1
	note G_, 7
	note __, 1
	note G_, 3
	note __, 1
	note G_, 3
	note __, 1
	note G_, 7
	note __, 1
	note G_, 3
	note __, 1
	note G_, 3
	note __, 1
	note G_, 7
	note __, 1
	note G_, 3
	note __, 1
	note G_, 3
	note __, 1
	note G_, 8
	note A#, 3
	note __, 1
	note A#, 3
	note __, 1
	note A#, 7
	note __, 1
	note A#, 3
	note __, 1
	note A#, 3
	note __, 1
	note A#, 7
	note __, 1
	note A#, 3
	note __, 1
	note A#, 3
	note __, 1
	note A#, 7
	note __, 1
	note A#, 3
	note __, 1
	note A#, 3
	note __, 1
	note A#, 8
	dutycycle 2
	note F_, 4
	note __, 4
	note F_, 4
	note F#, 4
	note D#, 4
	note G#, 4
	note F#, 4
	note D#, 4
	note F_, 4
	note __, 4
	note A_, 2
	note __, 2
	note A_, 4
	note D_, 2
	note __, 2
	note D_, 4
	note E_, 2
	note __, 2
	note E_, 4
	note F_, 4
	note __, 4
	note F_, 4
	note F#, 4
	note D#, 4
	note G#, 4
	note F#, 4
	note D#, 4
	note F_, 4
	note __, 4
	note F_, 4
	note F#, 4
	note D_, 4
	note D#, 2
	note __, 2
	note D#, 2
	note __, 2
	note D#, 5
	octave 2
	note_type 12, 15, 7
	vibrato 0, $26
	note A#, 12
	note A_, 4
	note A#, 4
	note A_, 4
	note G_, 4
	note F_, 4
	note A_, 12
	note F_, 4
	note_type 12, 10, -7
	note C_, 8
	note_type 12, 15, 7
	note C_, 8
	note A#, 12
	note A_, 4
	note A#, 4
	octave 3
	note C_, 4
	note D_, 2
	note C_, 2
	octave 2
	note A#, 2
	octave 3
	note D_, 2
	note C_, 12
	note F_, 2
	note __, 2
	note F_, 14
	note C_, 2
	note_type 12, 7, -7
	note D#, 16
	note_type 12, 15, 8
	note D#, 6
	note_type 12, 15, 7
	note D#, 10
	octave 2
	note_type 12, 15, 8
	note A#, 16
	note_type 12, 15, 7
	note A#, 8
	note_type 12, 1, -7
	note A#, 8
	note_type 12, 7, 7
	note A#, 8
	note_type 12, 1, -7
	note A#, 8
	note_type 12, 7, 7
	note A#, 8
	note_type 12, 1, -7
	note A#, 8
	note_type 12, 7, 7
	note A#, 8
	note __, 8
	note_type 12, 15, 8
	note C_, 16
	octave 1
	note D#, 16
	note_type 12, 15, 7
	note D#, 8
	note G_, 8
	octave 2
	note_type 12, 15, 8
	note D#, 16
	note_type 12, 15, 7
	note D#, 8
	note G_, 8
	note_type 12, 15, 8
	note F_, 16
	note F_, 6
	note_type 12, 15, 7
	note F_, 10
	note_type 12, 7, -7
	note A_, 16
	note_type 12, 15, 8
	note A_, 6
	note_type 12, 15, 7
	note A_, 10
	note G_, 16
	note D#, 4
	note G_, 4
	note A#, 8
	octave 3
	note D#, 16
	note G_, 8
	note F_, 8
	note C_, 16
	octave 2
	note A_, 16
	note F_, 16
	octave 1
	note F_, 16
	vibrato 0, $0
	note_type 3, 9, 7
	octave 5
	note D#, 4
	octave 4
	note A#, 4
	octave 5
	note D#, 3
	note __, 1
	note D#, 4
	note E_, 4
	octave 4
	note B_, 4
	octave 5
	note E_, 3
	note __, 1
	note E_, 4
	note F_, 4
	note C_, 4
	note F_, 3
	note __, 1
	note F_, 4
	note F#, 4
	note C#, 4
	note F#, 3
	note __, 1
	note F#, 4
	note G_, 4
	note D_, 4
	note G_, 3
	note __, 1
	note G_, 4
	note G#, 4
	note D#, 4
	note G#, 3
	note __, 1
	note G#, 4
	note A_, 4
	note E_, 4
	note A_, 3
	note __, 1
	note A_, 4
	note A#, 4
	note F_, 4
	note A#, 3
	note __, 1
	note A#, 4
	jumpchannel Music_GymLeaderBattleXY_Ch2_loop
	endchannel

Music_GymLeaderBattleXY_Ch3:
	note_type 3, 1, 6
	octave 3
	note C_, 4
	note __, 4
	note C_, 4
	note C#, 4
	octave 2
	note A#, 4
	octave 3
	note D#, 4
	note C#, 4
	octave 2
	note A#, 4
	octave 3
	note C_, 4
	note __, 4
	note C#, 4
	note F_, 4
	note F#, 4
	note C_, 4
	octave 2
	note G#, 4
	note B_, 4
	octave 3
	note C_, 4
	note __, 4
	note C_, 4
	note C#, 4
	octave 2
	note A#, 4
	octave 3
	note D#, 4
	note C#, 4
	octave 2
	note A#, 4
	octave 3
	note C_, 4
	note __, 4
	note C_, 4
	note C#, 4
	note D#, 4
	note C_, 4
	octave 2
	note A_, 4
	note F#, 4
	note C_, 8
	note F_, 8
	note C_, 12
	note __, 4
	note C_, 8
	note F_, 8
	note C_, 12
	note __, 4
	note C_, 8
	note F_, 8
	note C_, 8
	note F_, 8
	note C_, 8
	note F_, 8
	note C_, 12
	note __, 4
Music_GymLeaderBattleXY_Ch3_loop:
	note_type 3, 1, 6
	octave 2
	note C_, 8
	note F_, 8
	note C_, 12
	note __, 4
	note C_, 8
	note F_, 8
	note C_, 12
	note __, 4
	note C_, 8
	note F_, 8
	note C_, 8
	note F_, 8
	note C_, 8
	note F_, 8
	note C_, 12
	note __, 4
	note C_, 8
	note A_, 8
	note C_, 12
	note __, 4
	note C_, 8
	note A_, 8
	note C_, 12
	note __, 4
	note C_, 8
	note A_, 6
	note __, 2
	note A_, 6
	note __, 2
	note A_, 6
	note __, 2
	note A_, 8
	note C_, 6
	note __, 2
	note C_, 8
	note __, 8
	note C_, 8
	note F_, 8
	note C_, 12
	note __, 4
	note C_, 8
	note F_, 8
	note C_, 12
	note __, 4
	note C_, 8
	note F_, 8
	note C_, 8
	note F_, 8
	note C_, 8
	note F_, 8
	note C_, 12
	note __, 4
	note F_, 8
	note C_, 8
	note F_, 12
	note __, 4
	note F_, 8
	note C_, 8
	note F_, 12
	note __, 4
	note F_, 8
	note C_, 8
	note F_, 8
	note C_, 8
	note F_, 8
	note C_, 8
	note F_, 12
	note __, 4
	note_type 3, 1, 5
	octave 3
	note F_, 4
	note __, 4
	note F_, 4
	note F#, 4
	note D#, 4
	note G#, 4
	note F#, 4
	note D#, 4
	note F_, 4
	note __, 4
	note F#, 4
	note A#, 4
	note B_, 4
	note F_, 4
	note C#, 4
	note E_, 4
	note F_, 4
	note __, 4
	note F_, 4
	note F#, 4
	note D#, 4
	note G#, 4
	note F#, 4
	note D#, 4
	note F_, 4
	note __, 4
	note F_, 4
	note F#, 4
	note F_, 4
	note E_, 4
	note D_, 4
	note C_, 4
	stereopanning $0F
	note F_, 4
	note __, 4
	note F_, 4
	note F#, 4
	note D#, 4
	note G#, 4
	note F#, 4
	note D#, 4
	note F_, 4
	note __, 4
	note A_, 2
	note __, 2
	note A_, 4
	note D_, 2
	note __, 2
	note D_, 4
	note E_, 2
	note __, 2
	note E_, 4
	note F_, 4
	note __, 4
	note F_, 4
	note F#, 4
	note D#, 4
	note G#, 4
	note F#, 4
	note D#, 4
	note F_, 4
	note __, 4
	note F_, 4
	note F#, 4
	note D_, 4
	note D#, 2
	note __, 2
	note D#, 2
	note __, 2
	note D#, 4
	note F_, 4
	note __, 4
	note F_, 4
	note F#, 4
	note D#, 4
	note G#, 4
	note F#, 4
	note D#, 4
	note F_, 4
	note __, 4
	note F_, 4
	note F#, 4
	note D#, 4
	note G#, 4
	note F#, 4
	note D#, 4
	note F_, 4
	note __, 4
	note F_, 4
	note F#, 4
	note D#, 4
	note G#, 4
	note F#, 4
	note D#, 4
	note F_, 4
	note __, 4
	note F_, 4
	note F#, 4
	note D#, 4
	note G#, 4
	note F#, 4
	note D#, 4
	note_type 12, 1, 6
	stereopanning $FF
	octave 1
	note A#, 2
	octave 2
	note D#, 2
	octave 1
	note A#, 2
	octave 2
	note D#, 2
	octave 1
	note A#, 2
	octave 2
	note D#, 2
	octave 1
	note A#, 2
	octave 2
	note D#, 2
	octave 1
	note A#, 2
	octave 2
	note D#, 2
	octave 1
	note A#, 2
	octave 2
	note D#, 2
	octave 1
	note A#, 2
	octave 2
	note D#, 2
	octave 1
	note A#, 2
	octave 2
	note D#, 2
	note C_, 2
	note F_, 2
	note C_, 2
	note F_, 2
	note C_, 2
	note F_, 2
	note C_, 2
	note F_, 2
	note C_, 2
	note F_, 2
	note C_, 2
	note F_, 2
	note C_, 2
	note F_, 2
	note C_, 2
	note F_, 2
	octave 1
	note A#, 2
	octave 2
	note D#, 2
	octave 1
	note A#, 2
	octave 2
	note D#, 2
	octave 1
	note A#, 2
	octave 2
	note D#, 2
	octave 1
	note A#, 2
	octave 2
	note D#, 2
	octave 1
	note A#, 2
	octave 2
	note D#, 2
	octave 1
	note A#, 2
	octave 2
	note D#, 2
	octave 1
	note A#, 2
	octave 2
	note D#, 2
	octave 1
	note A#, 2
	octave 2
	note D#, 2
	note C_, 2
	note F_, 2
	note C_, 2
	note F_, 2
	note C_, 2
	note F_, 2
	note C_, 2
	note F_, 2
	note C_, 2
	note F_, 2
	note C_, 2
	note F_, 2
	note C_, 2
	note F_, 2
	note C_, 2
	note F_, 2
	octave 1
	note A#, 2
	octave 2
	note D#, 2
	octave 1
	note A#, 2
	octave 2
	note D#, 2
	octave 1
	note A#, 2
	octave 2
	note D#, 2
	octave 1
	note A#, 2
	octave 2
	note D#, 2
	octave 1
	note A#, 2
	octave 2
	note D#, 2
	octave 1
	note A#, 2
	octave 2
	note D#, 2
	octave 1
	note A#, 2
	octave 2
	note D#, 2
	octave 1
	note A#, 2
	octave 2
	note D#, 2
	note C_, 2
	note F_, 2
	note C_, 2
	note F_, 2
	note C_, 2
	note F_, 2
	note C_, 2
	note F_, 2
	note C_, 2
	note F_, 2
	note C_, 2
	note F_, 2
	note C_, 2
	note F_, 2
	note C_, 2
	note F_, 2
	octave 1
	note A#, 2
	octave 2
	note D#, 2
	octave 1
	note A#, 2
	octave 2
	note D#, 2
	octave 1
	note A#, 2
	octave 2
	note D#, 2
	octave 1
	note A#, 2
	octave 2
	note D#, 2
	octave 1
	note A#, 2
	octave 2
	note D#, 2
	octave 1
	note A#, 2
	octave 2
	note D#, 2
	octave 1
	note A#, 2
	octave 2
	note D#, 2
	octave 1
	note A#, 2
	octave 2
	note D#, 2
	note C_, 2
	note F_, 2
	note C_, 2
	note F_, 2
	note C_, 2
	note F_, 2
	note C_, 2
	note F_, 2
	note C_, 2
	note F_, 2
	note C_, 2
	note F_, 2
	note C_, 2
	note F_, 2
	note C_, 2
	note F_, 2
	octave 4
	intensity $24
	note G_, 1
	note A#, 1
	octave 5
	note D#, 1
	octave 4
	note A#, 1
	note G_, 1
	note A#, 1
	octave 5
	note D#, 1
	octave 4
	note A#, 1
	note G_, 1
	note A#, 1
	octave 5
	note D#, 1
	octave 4
	note A#, 1
	note G_, 1
	note A#, 1
	octave 5
	note D#, 1
	octave 4
	note A#, 1
	note G_, 1
	note A#, 1
	octave 5
	note D#, 1
	octave 4
	note A#, 1
	note G_, 1
	note A#, 1
	octave 5
	note D#, 1
	octave 4
	note A#, 1
	note G_, 1
	note A#, 1
	octave 5
	note D#, 1
	octave 4
	note A#, 1
	note G_, 1
	note A#, 1
	octave 5
	note D#, 1
	octave 4
	note A#, 1
	note G_, 1
	note A#, 1
	octave 5
	note D#, 1
	octave 4
	note A#, 1
	note G_, 1
	note A#, 1
	octave 5
	note D#, 1
	octave 4
	note A#, 1
	note G_, 1
	note A#, 1
	octave 5
	note D#, 1
	octave 4
	note A#, 1
	note G_, 1
	note A#, 1
	octave 5
	note D#, 1
	octave 4
	note A#, 1
	note G_, 1
	note A#, 1
	octave 5
	note D#, 1
	octave 4
	note A#, 1
	note G_, 1
	note A#, 1
	octave 5
	note D#, 1
	octave 4
	note A#, 1
	note G_, 1
	note A#, 1
	octave 5
	note D#, 1
	octave 4
	note A#, 1
	note G_, 1
	note A#, 1
	octave 5
	note D#, 1
	octave 4
	note A#, 1
	note A_, 1
	octave 5
	note C_, 1
	note F_, 1
	note C_, 1
	octave 4
	note A_, 1
	octave 5
	note C_, 1
	note F_, 1
	note C_, 1
	octave 4
	note A_, 1
	octave 5
	note C_, 1
	note F_, 1
	note C_, 1
	octave 4
	note A_, 1
	octave 5
	note C_, 1
	note F_, 1
	note C_, 1
	octave 4
	note A_, 1
	octave 5
	note C_, 1
	note F_, 1
	note C_, 1
	octave 4
	note A_, 1
	octave 5
	note C_, 1
	note F_, 1
	note C_, 1
	octave 4
	note A_, 1
	octave 5
	note C_, 1
	note F_, 1
	note C_, 1
	octave 4
	note A_, 1
	octave 5
	note C_, 1
	note F_, 1
	note C_, 1
	octave 4
	note A_, 1
	octave 5
	note C_, 1
	note F_, 1
	note C_, 1
	octave 4
	note A_, 1
	octave 5
	note C_, 1
	note F_, 1
	note C_, 1
	octave 4
	note A_, 1
	octave 5
	note C_, 1
	note F_, 1
	note C_, 1
	octave 4
	note A_, 1
	octave 5
	note C_, 1
	note F_, 1
	note C_, 1
	octave 4
	note A_, 1
	octave 5
	note C_, 1
	note F_, 1
	note C_, 1
	octave 4
	note A_, 1
	octave 5
	note C_, 1
	note F_, 1
	note C_, 1
	octave 4
	note A_, 1
	octave 5
	note C_, 1
	note F_, 1
	note C_, 1
	octave 4
	note A_, 1
	octave 5
	note C_, 1
	note F_, 1
	note C_, 1
	octave 4
	note G_, 1
	note A#, 1
	octave 5
	note D#, 1
	octave 4
	note A#, 1
	note G_, 1
	note A#, 1
	octave 5
	note D#, 1
	octave 4
	note A#, 1
	note G_, 1
	note A#, 1
	octave 5
	note D#, 1
	octave 4
	note A#, 1
	note G_, 1
	note A#, 1
	octave 5
	note D#, 1
	octave 4
	note A#, 1
	note G_, 1
	note A#, 1
	octave 5
	note D#, 1
	octave 4
	note A#, 1
	note G_, 1
	note A#, 1
	octave 5
	note D#, 1
	octave 4
	note A#, 1
	note G_, 1
	note A#, 1
	octave 5
	note D#, 1
	octave 4
	note A#, 1
	note G_, 1
	note A#, 1
	octave 5
	note D#, 1
	octave 4
	note A#, 1
	note G_, 1
	note A#, 1
	octave 5
	note D#, 1
	octave 4
	note A#, 1
	note G_, 1
	note A#, 1
	octave 5
	note D#, 1
	octave 4
	note A#, 1
	note G_, 1
	note A#, 1
	octave 5
	note D#, 1
	octave 4
	note A#, 1
	note G_, 1
	note A#, 1
	octave 5
	note D#, 1
	octave 4
	note A#, 1
	note G_, 1
	note A#, 1
	octave 5
	note D#, 1
	octave 4
	note A#, 1
	note G_, 1
	note A#, 1
	octave 5
	note D#, 1
	octave 4
	note A#, 1
	note G_, 1
	note A#, 1
	octave 5
	note D#, 1
	octave 4
	note A#, 1
	note G_, 1
	note A#, 1
	octave 5
	note D#, 1
	octave 4
	note A#, 1
	note A_, 1
	octave 5
	note C_, 1
	note F_, 1
	note C_, 1
	octave 4
	note A_, 1
	octave 5
	note C_, 1
	note F_, 1
	note C_, 1
	octave 4
	note A_, 1
	octave 5
	note C_, 1
	note F_, 1
	note C_, 1
	octave 4
	note A_, 1
	octave 5
	note C_, 1
	note F_, 1
	note C_, 1
	octave 4
	note A_, 1
	octave 5
	note C_, 1
	note F_, 1
	note C_, 1
	octave 4
	note A_, 1
	octave 5
	note C_, 1
	note F_, 1
	note C_, 1
	octave 4
	note A_, 1
	octave 5
	note C_, 1
	note F_, 1
	note C_, 1
	octave 4
	note A_, 1
	octave 5
	note C_, 1
	note F_, 1
	note C_, 1
	octave 4
	note A_, 1
	octave 5
	note C_, 1
	note F_, 1
	note C_, 1
	octave 4
	note A_, 1
	octave 5
	note C_, 1
	note F_, 1
	note C_, 1
	octave 4
	note A_, 1
	octave 5
	note C_, 1
	note F_, 1
	note C_, 1
	octave 4
	note A_, 1
	octave 5
	note C_, 1
	note F_, 1
	note C_, 1
	octave 4
	note A_, 1
	octave 5
	note C_, 1
	note F_, 1
	note C_, 1
	octave 4
	note A_, 1
	octave 5
	note C_, 1
	note F_, 1
	note C_, 1
	octave 4
	note A_, 1
	octave 5
	note C_, 1
	note F_, 1
	note C_, 1
	octave 4
	note A_, 1
	octave 5
	note C_, 1
	note F_, 1
	note C_, 1
	octave 4
	note G_, 1
	note A#, 1
	octave 5
	note D#, 1
	octave 4
	note A#, 1
	note G_, 1
	note A#, 1
	octave 5
	note D#, 1
	octave 4
	note A#, 1
	note G_, 1
	note A#, 1
	octave 5
	note D#, 1
	octave 4
	note A#, 1
	note G_, 1
	note A#, 1
	octave 5
	note D#, 1
	octave 4
	note A#, 1
	note G_, 1
	note A#, 1
	octave 5
	note D#, 1
	octave 4
	note A#, 1
	note G_, 1
	note A#, 1
	octave 5
	note D#, 1
	octave 4
	note A#, 1
	note G_, 1
	note A#, 1
	octave 5
	note D#, 1
	octave 4
	note A#, 1
	note G_, 1
	note A#, 1
	octave 5
	note D#, 1
	octave 4
	note A#, 1
	note G_, 1
	note A#, 1
	octave 5
	note D#, 1
	octave 4
	note A#, 1
	note G_, 1
	note A#, 1
	octave 5
	note D#, 1
	octave 4
	note A#, 1
	note G_, 1
	note A#, 1
	octave 5
	note D#, 1
	octave 4
	note A#, 1
	note G_, 1
	note A#, 1
	octave 5
	note D#, 1
	octave 4
	note A#, 1
	note G_, 1
	note A#, 1
	octave 5
	note D#, 1
	octave 4
	note A#, 1
	note G_, 1
	note A#, 1
	octave 5
	note D#, 1
	octave 4
	note A#, 1
	note G_, 1
	note A#, 1
	octave 5
	note D#, 1
	octave 4
	note A#, 1
	note G_, 1
	note A#, 1
	octave 5
	note D#, 1
	octave 4
	note A#, 1
	note A_, 1
	octave 5
	note C_, 1
	note F_, 1
	note C_, 1
	octave 4
	note A_, 1
	octave 5
	note C_, 1
	note F_, 1
	note C_, 1
	octave 4
	note A_, 1
	octave 5
	note C_, 1
	note F_, 1
	note C_, 1
	octave 4
	note A_, 1
	octave 5
	note C_, 1
	note F_, 1
	note C_, 1
	octave 4
	note A_, 1
	octave 5
	note C_, 1
	note F_, 1
	note C_, 1
	octave 4
	note A_, 1
	octave 5
	note C_, 1
	note F_, 1
	note C_, 1
	octave 4
	note A_, 1
	octave 5
	note C_, 1
	note F_, 1
	note C_, 1
	octave 4
	note A_, 1
	octave 5
	note C_, 1
	note F_, 1
	note C_, 1
	octave 4
	note A_, 1
	octave 5
	note C_, 1
	note F_, 1
	note C_, 1
	octave 4
	note A_, 1
	octave 5
	note C_, 1
	note F_, 1
	note C_, 1
	octave 4
	note A_, 1
	octave 5
	note C_, 1
	note F_, 1
	note C_, 1
	octave 4
	note A_, 1
	octave 5
	note C_, 1
	note F_, 1
	note C_, 1
	octave 4
	note A_, 1
	octave 5
	note C_, 1
	note F_, 1
	note C_, 1
	octave 4
	note A_, 1
	octave 5
	note C_, 1
	note F_, 1
	note C_, 1
	octave 4
	note A_, 1
	octave 5
	note C_, 1
	note F_, 1
	note C_, 1
	octave 4
	note A_, 1
	octave 5
	note C_, 1
	note F_, 1
	note C_, 1
	note __, 16
	note __, 16
	jumpchannel Music_GymLeaderBattleXY_Ch3_loop
	endchannel

Music_GymLeaderBattleXY_Ch4:
	note_type 12
	togglenoise 0
	note G_, 4
	note G_, 4
	note G_, 4
	note G_, 4
	note G_, 4
	note G_, 4
	note G_, 2
	note G_, 2
	note G_, 1
	note G_, 1
	note G_, 1
	note G_, 1
	note D#, 1
	note D#, 1
	note F#, 2
	note D#, 1
	note D#, 1
	note F#, 2
	note D#, 1
	note D#, 1
	note F#, 2
	note D#, 1
	note D#, 1
	note F#, 2
	note D#, 1
	note D#, 1
	note F#, 2
	note D#, 1
	note D#, 1
	note F#, 2
	note D#, 1
	note D#, 1
	note F#, 2
	note D#, 1
	note D#, 1
	note F#, 2
Music_GymLeaderBattleXY_Ch4_loop:
	note D#, 1
	note D#, 1
	note F#, 2
	note D#, 1
	note D#, 1
	note F#, 2
	note D#, 1
	note D#, 1
	note F#, 2
	note D#, 1
	note D#, 1
	note F#, 2
	note D#, 1
	note D#, 1
	note F#, 2
	note D#, 1
	note D#, 1
	note F#, 2
	note D#, 1
	note D#, 1
	note F#, 2
	note D#, 1
	note D#, 1
	note F#, 2
	note D#, 1
	note D#, 1
	note F#, 2
	note D#, 1
	note D#, 1
	note F#, 2
	note D#, 1
	note D#, 1
	note F#, 2
	note D#, 1
	note D#, 1
	note F#, 2
	note D#, 1
	note D#, 1
	note F#, 2
	note D#, 1
	note D#, 1
	note F#, 2
	note D#, 1
	note D#, 1
	note F#, 2
	note D#, 1
	note D#, 1
	note F#, 2
	note D#, 1
	note D#, 1
	note F#, 2
	note D#, 1
	note D#, 1
	note F#, 2
	note D#, 1
	note D#, 1
	note F#, 2
	note D#, 1
	note D#, 1
	note F#, 2
	note D#, 1
	note D#, 1
	note F#, 2
	note D#, 1
	note D#, 1
	note F#, 2
	note D#, 1
	note D#, 1
	note F#, 2
	note D#, 1
	note D#, 1
	note F#, 2
	note D#, 1
	note D#, 1
	note F#, 2
	note D#, 1
	note D#, 1
	note F#, 2
	note D#, 1
	note D#, 1
	note F#, 2
	note D#, 1
	note D#, 1
	note F#, 2
	note D#, 1
	note D#, 1
	note F#, 2
	note D#, 1
	note D#, 1
	note F#, 2
	note D#, 1
	note D#, 1
	note F#, 2
	note D#, 1
	note D#, 1
	note F#, 2
	note G_, 4
	note G_, 4
	note G_, 4
	note G_, 4
	note G_, 4
	note G_, 4
	note G_, 4
	note G_, 4
	note G_, 4
	note G_, 4
	note G_, 4
	note G_, 4
	note G_, 4
	note G_, 4
	note G_, 4
	note G_, 4
	note G_, 4
	note G_, 4
	note G_, 4
	note G_, 4
	note G_, 4
	note G_, 4
	note G_, 1
	note G_, 1
	note G_, 1
	note G_, 1
	note G_, 1
	note G_, 1
	note G_, 1
	note G_, 1
	note D#, 1
	note B_, 2
	note B_, 1
	note C_, 1
	note B_, 1
	note D#, 1
	note B_, 1
	note D#, 1
	note B_, 2
	note B_, 1
	note C_, 1
	note B_, 2
	note B_, 1
	note D#, 1
	note B_, 2
	note B_, 1
	note C_, 1
	note B_, 1
	note D#, 1
	note B_, 1
	note D#, 1
	note B_, 2
	note B_, 1
	note C_, 1
	note B_, 2
	note B_, 1
	note D#, 1
	note B_, 2
	note B_, 1
	note C_, 1
	note B_, 1
	note D#, 1
	note B_, 1
	note D#, 1
	note B_, 2
	note B_, 1
	note C_, 1
	note B_, 2
	note B_, 1
	note D#, 1
	note B_, 2
	note B_, 1
	note C_, 1
	note B_, 1
	note D#, 1
	note B_, 1
	note D#, 1
	note B_, 2
	note B_, 1
	note C_, 1
	note B_, 1
	note C_, 1
	note B_, 1
	note D#, 1
	note B_, 2
	note B_, 1
	note C_, 1
	note B_, 1
	note D#, 1
	note B_, 1
	note D#, 1
	note B_, 2
	note B_, 1
	note C_, 1
	note B_, 2
	note B_, 1
	note D#, 1
	note B_, 2
	note B_, 1
	note C_, 1
	note B_, 1
	note D#, 1
	note B_, 1
	note D#, 1
	note B_, 2
	note B_, 1
	note C_, 1
	note B_, 2
	note B_, 1
	note D#, 1
	note B_, 2
	note B_, 1
	note C_, 1
	note B_, 1
	note D#, 1
	note B_, 1
	note D#, 1
	note B_, 2
	note B_, 1
	note C_, 1
	note B_, 2
	note B_, 1
	note D#, 1
	note B_, 2
	note B_, 1
	note C_, 1
	note B_, 1
	note D#, 1
	note B_, 1
	note D#, 1
	note B_, 2
	note B_, 1
	note C_, 1
	note B_, 1
	note C_, 1
	note B_, 1
	note D#, 1
	note B_, 2
	note B_, 1
	note C_, 1
	note B_, 1
	note D#, 1
	note B_, 1
	note D#, 1
	note B_, 2
	note B_, 1
	note C_, 1
	note B_, 2
	note B_, 1
	note D#, 1
	note B_, 2
	note B_, 1
	note C_, 1
	note B_, 1
	note D#, 1
	note B_, 1
	note D#, 1
	note B_, 2
	note B_, 1
	note C_, 1
	note B_, 2
	note B_, 1
	note D#, 1
	note B_, 2
	note B_, 1
	note C_, 1
	note B_, 1
	note D#, 1
	note B_, 1
	note D#, 1
	note B_, 2
	note B_, 1
	note C_, 1
	note B_, 2
	note B_, 1
	note D#, 1
	note B_, 2
	note B_, 1
	note C_, 1
	note B_, 1
	note D#, 1
	note B_, 1
	note D#, 1
	note B_, 2
	note B_, 1
	note C_, 1
	note B_, 1
	note C_, 1
	note B_, 1
	note D#, 1
	note B_, 2
	note B_, 1
	note C_, 1
	note B_, 1
	note D#, 1
	note B_, 1
	note D#, 1
	note B_, 2
	note B_, 1
	note C_, 1
	note B_, 2
	note B_, 1
	note D#, 1
	note B_, 2
	note B_, 1
	note C_, 1
	note B_, 1
	note D#, 1
	note B_, 1
	note D#, 1
	note B_, 2
	note B_, 1
	note C_, 1
	note B_, 2
	note B_, 1
	note D#, 1
	note B_, 2
	note B_, 1
	note C_, 1
	note B_, 1
	note D#, 1
	note B_, 1
	note D#, 1
	note B_, 2
	note B_, 1
	note C_, 1
	note B_, 2
	note B_, 1
	note D#, 1
	note B_, 2
	note B_, 1
	note C_, 1
	note B_, 1
	note D#, 1
	note B_, 1
	note D#, 1
	note B_, 2
	note B_, 1
	note C_, 1
	note B_, 1
	note C_, 1
	note B_, 1
	note D#, 1
	note B_, 2
	note B_, 1
	note C_, 1
	note B_, 1
	note D#, 1
	note B_, 1
	note D#, 1
	note B_, 2
	note B_, 1
	note C_, 1
	note B_, 2
	note B_, 1
	note D#, 1
	note B_, 2
	note B_, 1
	note C_, 1
	note B_, 1
	note D#, 1
	note B_, 1
	note D#, 1
	note B_, 2
	note B_, 1
	note C_, 1
	note B_, 2
	note B_, 1
	note D#, 1
	note B_, 2
	note B_, 1
	note C_, 1
	note B_, 1
	note D#, 1
	note B_, 1
	note D#, 1
	note B_, 2
	note B_, 1
	note C_, 1
	note B_, 2
	note B_, 1
	note D#, 1
	note B_, 2
	note B_, 1
	note C_, 1
	note B_, 1
	note D#, 1
	note B_, 1
	note D#, 1
	note B_, 2
	note B_, 1
	note C_, 1
	note B_, 1
	note C_, 1
	note B_, 1
	note D#, 1
	note B_, 2
	note B_, 1
	note C_, 1
	note B_, 1
	note D#, 1
	note B_, 1
	note D#, 1
	note B_, 2
	note B_, 1
	note C_, 1
	note B_, 2
	note B_, 1
	note D#, 1
	note B_, 2
	note B_, 1
	note C_, 1
	note B_, 1
	note D#, 1
	note B_, 1
	note D#, 1
	note B_, 2
	note B_, 1
	note C_, 1
	note B_, 2
	note B_, 1
	note D#, 1
	note B_, 2
	note B_, 1
	note C_, 1
	note B_, 1
	note D#, 1
	note B_, 1
	note D#, 1
	note B_, 2
	note B_, 1
	note C_, 1
	note B_, 2
	note B_, 1
	note D#, 1
	note B_, 2
	note B_, 1
	note C_, 1
	note B_, 1
	note D#, 1
	note B_, 1
	note B_, 1
	note B_, 1
	note B_, 1
	note B_, 1
	note C_, 1
	note B_, 1
	note C_, 1
	note B_, 1
	note B_, 4
	note B_, 4
	note B_, 4
	note B_, 4
	note B_, 4
	note B_, 4
	note B_, 4
	note B_, 4
	note B_, 4
	note B_, 4
	note B_, 4
	note B_, 4
	note B_, 4
	note B_, 4
	note B_, 4
	note B_, 4
	note B_, 1
	note D#, 1
	note F#, 2
	note B_, 1
	note D#, 1
	note F#, 2
	note B_, 1
	note D#, 1
	note F#, 2
	note B_, 1
	note D#, 1
	note F#, 2
	note B_, 1
	note D#, 1
	note F#, 2
	note B_, 1
	note D#, 1
	note F#, 2
	note B_, 1
	note D#, 1
	note F#, 2
	note B_, 1
	note D#, 1
	note F#, 2
	note B_, 1
	note D#, 1
	note F#, 2
	note B_, 1
	note D#, 1
	note F#, 2
	note B_, 1
	note D#, 1
	note F#, 2
	note B_, 1
	note D#, 1
	note F#, 2
	note B_, 1
	note D#, 1
	note F#, 2
	note B_, 1
	note D#, 1
	note F#, 2
	note B_, 1
	note D#, 1
	note F#, 2
	note B_, 1
	note D#, 1
	note F#, 2
	note B_, 1
	note D#, 1
	note F#, 2
	note B_, 1
	note D#, 1
	note F#, 2
	note B_, 1
	note D#, 1
	note F#, 2
	note B_, 1
	note D#, 1
	note F#, 2
	note B_, 1
	note D#, 1
	note F#, 2
	note B_, 1
	note D#, 1
	note F#, 2
	note B_, 1
	note D#, 1
	note F#, 2
	note B_, 1
	note D#, 1
	note F#, 2
	note B_, 1
	note D#, 1
	note F#, 2
	note B_, 1
	note D#, 1
	note F#, 2
	note B_, 1
	note D#, 1
	note F#, 2
	note B_, 1
	note D#, 1
	note F#, 2
	note B_, 1
	note D#, 1
	note F#, 2
	note B_, 1
	note D#, 1
	note F#, 2
	note B_, 1
	note D#, 1
	note F#, 2
	note B_, 1
	note D#, 1
	note F#, 2
	note B_, 1
	note D#, 1
	note F#, 2
	note B_, 1
	note D#, 1
	note F#, 2
	note B_, 1
	note D#, 1
	note F#, 2
	note B_, 1
	note D#, 1
	note F#, 2
	note B_, 1
	note D#, 1
	note F#, 2
	note B_, 1
	note D#, 1
	note F#, 2
	note B_, 1
	note D#, 1
	note F#, 2
	note B_, 1
	note D#, 1
	note F#, 2
	note B_, 1
	note D#, 1
	note F#, 2
	note B_, 1
	note D#, 1
	note F#, 2
	note B_, 1
	note D#, 1
	note F#, 2
	note B_, 1
	note D#, 1
	note F#, 2
	note B_, 1
	note D#, 1
	note F#, 2
	note B_, 1
	note D#, 1
	note F#, 2
	note B_, 1
	note D#, 1
	note F#, 2
	note B_, 1
	note D#, 1
	note F#, 2
	note B_, 1
	note D#, 1
	note F#, 2
	note B_, 1
	note D#, 1
	note F#, 2
	note B_, 1
	note D#, 1
	note F#, 2
	note B_, 1
	note D#, 1
	note F#, 2
	note B_, 1
	note D#, 1
	note F#, 2
	note B_, 1
	note D#, 1
	note F#, 2
	note B_, 1
	note D#, 1
	note F#, 2
	note B_, 1
	note D#, 1
	note F#, 2
	note B_, 1
	note D#, 1
	note F#, 2
	note B_, 1
	note D#, 1
	note F#, 2
	note B_, 1
	note D#, 1
	note F#, 2
	note B_, 1
	note D#, 1
	note F#, 2
	note B_, 1
	note D#, 1
	note F#, 2
	note B_, 1
	note D#, 1
	note F#, 2
	note B_, 1
	note D#, 1
	note F#, 2
	note B_, 1
	note D#, 1
	note F#, 2
	note B_, 1
	note D#, 1
	note F#, 2
	note B_, 1
	note D#, 1
	note F#, 2
	note B_, 1
	note D#, 1
	note F#, 2
	note B_, 1
	note D#, 1
	note F#, 2
	note B_, 1
	note D#, 1
	note F#, 2
	note B_, 1
	note D#, 1
	note F#, 2
	note B_, 1
	note D#, 1
	note F#, 2
	note B_, 1
	note D#, 1
	note F#, 2
	note B_, 1
	note D#, 1
	note F#, 2
	note B_, 1
	note D#, 1
	note F#, 2
	note B_, 1
	note D#, 1
	note F#, 2
	note B_, 1
	note D#, 1
	note F#, 2
	note B_, 1
	note D#, 1
	note F#, 2
	note B_, 1
	note D#, 1
	note F#, 2
	note B_, 1
	note D#, 1
	note F#, 2
	note B_, 1
	note D#, 1
	note F#, 2
	note B_, 1
	note D#, 1
	note F#, 2
	note B_, 1
	note D#, 1
	note F#, 2
	note B_, 1
	note D#, 1
	note F#, 2
	note B_, 1
	note D#, 1
	note F#, 2
	note B_, 1
	note D#, 1
	note F#, 2
	note B_, 1
	note D#, 1
	note F#, 1
	note B_, 1
	note B_, 1
	note B_, 1
	note B_, 1
	note C_, 1
	note B_, 1
	note C_, 1
	note B_, 2
	jumpchannel Music_GymLeaderBattleXY_Ch4_loop
	endchannel
