; Pokémon X/Y - Laverre City
; Demixed by Mmmmmm
; https://pastebin.com/pVtgJivC
; https://hax.iimarckus.org/topic/6777/

Music_LaverreCityXY:
	channel_count 4
	channel 1, Music_LaverreCityXY_Ch1
	channel 2, Music_LaverreCityXY_Ch2
	channel 3, Music_LaverreCityXY_Ch3
	channel 4, Music_LaverreCityXY_Ch4

Music_LaverreCityXY_Ch1:
	tempo 120
	volume 7, 7
	stereo_panning FALSE, TRUE
	vibrato 18, 2, 5
Music_LaverreCityXY_branch_ef2e5:
	duty_cycle 0
	note_type 12, 10, 4
	rest 4
	octave 3
	note_type 6, 10, 7
	note B_, 8
	octave 4
	note E_, 8
	note D_, 16
	note E_, 8
	note E_, 1
	note F#, 15
	note D_, 8
	note D_, 1
	note E_, 15
	octave 3
	note B_, 8
	octave 4
	note C#, 1
	volume_envelope 10, 0
	note D_, 7
	volume_envelope 10, 7
	note D_, 16
	note C#, 8
	octave 3
	note B_, 8
	note A_, 8
	note A_, 1
	volume_envelope 10, 0
	note B_, 7
	volume_envelope 10, 7
	note B_, 16
	note_type 12, 10, 7
	rest 12
	duty_cycle 3
	note_type 12, 12, 4
	rest 4
	octave 3
	note_type 6, 12, 7
	note B_, 8
	octave 4
	note E_, 8
	note D_, 16
	note E_, 8
	note F#, 16
	note D_, 8
	note E_, 16
	octave 3
	note B_, 8
	octave 4
	volume_envelope 12, 0
	note D_, 8
	volume_envelope 12, 7
	note D_, 16
	note C#, 8
	octave 3
	note B_, 8
	note A_, 8
	volume_envelope 12, 0
	note B_, 8
	volume_envelope 12, 7
	note B_, 16
	note_type 12, 6, 7
	note B_, 12
	volume_envelope 8, 0
	note F#, 12
	volume_envelope 8, 7
	note F#, 12
	volume_envelope 8, 0
	note G_, 12
	volume_envelope 8, 7
	note G_, 12
	volume_envelope 8, 0
	note F#, 12
	volume_envelope 8, 7
	note F#, 12
	volume_envelope 8, 0
	note A#, 12
	note G#, 12
	note F#, 12
	volume_envelope 8, 7
	note F#, 12
	volume_envelope 8, 0
	note G_, 12
	volume_envelope 8, 7
	note G_, 12
	volume_envelope 8, 0
	note F#, 12
	volume_envelope 8, 7
	note F#, 12
	volume_envelope 8, 0
	note F#, 12
	note_type 8, 8, 7
	duty_cycle 1
	note B_, 2
	note A#, 2
	note G#, 2
	volume_envelope 10, 7
	note C#, 2
	note D#, 2
	note F_, 2
	volume_envelope 12, 7
	note G_, 2
	note G#, 2
	note A#, 2
	note_type 12, 12, 7
	note B_, 4
	note A#, 4
	note B_, 4
	octave 4
	note C#, 8
	octave 3
	note B_, 4
	note A#, 8
	octave 4
	note C#, 4
	octave 3
	note F#, 12
	note G#, 4
	note A#, 4
	note B_, 4
	note E_, 8
	note G#, 4
	note G_, 4
	note F_, 4
	note G_, 4
	note G#, 12
	note B_, 4
	note A#, 4
	note B_, 4
	octave 4
	note C#, 8
	octave 3
	note B_, 4
	note A#, 4
	note B_, 4
	octave 4
	note C#, 4
	note D#, 12
	note E_, 4
	note D#, 4
	octave 3
	note B_, 4
	note B_, 8
	octave 4
	note D#, 4
	note C#, 4
	volume_envelope 10, -7
	note C#, 8
	volume_envelope 15, 0
	note C#, 1
	rest 3
	volume_envelope 10, 7
	octave 3
	note B_, 4
	note A#, 2
	note B_, 1
	note A#, 1
	volume_envelope 10, 0
	note G#, 8
	volume_envelope 10, 7
	note G#, 16
	rest 16
	duty_cycle 3
	volume_envelope 12, 7
	note B_, 4
	note A#, 4
	note G#, 12
	note D#, 8
	note G#, 4
	note A#, 4
	note G#, 4
	note F#, 4
	note G#, 12
	sound_jump Music_LaverreCityXY_branch_ef2e5

Music_LaverreCityXY_Ch2:
	vibrato 18, 2, 5
	duty_cycle 2
	stereo_panning TRUE, FALSE
	pitch_offset 2
Music_LaverreCityXY_branch_ef3f2:
	note_type 12, 10, 7
	octave 2
	note E_, 12
	octave 1
	note B_, 12
	octave 2
	note E_, 12
	octave 1
	note B_, 12
	octave 2
	note E_, 12
	octave 1
	note B_, 12
	octave 2
	note E_, 12
	octave 1
	note B_, 12
	note A_, 12
	octave 2
	note E_, 12
	octave 1
	note A_, 12
	octave 2
	note E_, 12
	note E_, 12
	octave 1
	note B_, 12
	octave 2
	note E_, 12
	octave 1
	note B_, 12
	volume_envelope 5, 0
	note D#, 12
	volume_envelope 5, 7
	note D#, 12
	volume_envelope 5, 0
	note E_, 12
	volume_envelope 5, 7
	note E_, 12
	volume_envelope 5, 0
	note F#, 12
	volume_envelope 5, 7
	note F#, 12
	volume_envelope 5, 0
	note F#, 12
	note E_, 12
	note D#, 12
	volume_envelope 5, 7
	note D#, 12
	volume_envelope 5, 0
	note E_, 12
	volume_envelope 5, 7
	note E_, 12
	volume_envelope 5, 0
	note F#, 12
	volume_envelope 5, 7
	note F#, 12
	volume_envelope 5, 0
	note F#, 12
	note D#, 12
	volume_envelope 10, 7
	note G#, 8
	note G#, 2
	rest 2
	note E_, 8
	note E_, 2
	rest 2
	note F#, 8
	note F#, 2
	rest 2
	note D#, 8
	note D#, 2
	rest 2
	note E_, 8
	note E_, 2
	rest 2
	note C#, 8
	note C#, 2
	rest 2
	note D#, 8
	note D#, 2
	rest 2
	note E_, 8
	note E_, 2
	rest 2
	note G#, 8
	note G#, 2
	rest 2
	note E_, 8
	note E_, 2
	rest 2
	note F#, 8
	note F#, 2
	rest 2
	note D#, 8
	note D#, 2
	rest 2
	note E_, 8
	note E_, 2
	rest 2
	note C#, 8
	note C#, 2
	rest 2
	note F#, 4
	volume_envelope 8, -7
	note F#, 7
	rest 1
	volume_envelope 13, 0
	note F#, 1
	rest 11
	volume_envelope 10, 7
	note G#, 8
	note G#, 2
	rest 2
	note E_, 8
	note E_, 2
	rest 2
	note F#, 8
	note F#, 2
	rest 2
	note B_, 8
	note A#, 2
	rest 2
	note G#, 8
	note G#, 2
	rest 2
	note E_, 8
	note E_, 2
	rest 2
	note F#, 8
	note F#, 2
	rest 2
	note G#, 8
	note G#, 2
	rest 2
	sound_jump Music_LaverreCityXY_branch_ef3f2

Music_LaverreCityXY_Ch3:
	stereo_panning TRUE, TRUE
	vibrato 18, 2, 5
Music_LaverreCityXY_branch_ef4e3:
	note_type 12, 2, 5
	octave 3
	rest 4
	note E_, 2
	note F#, 2
	note G#, 2
	rest 6
	note F#, 2
	rest 2
	note A_, 2
	rest 6
	note E_, 2
	rest 2
	note G#, 2
	rest 6
	note D_, 2
	rest 2
	note F#, 2
	rest 6
	note E_, 2
	note F#, 2
	note G#, 2
	rest 6
	note E_, 2
	rest 2
	note D_, 2
	rest 6
	note E_, 2
	rest 2
	note G#, 2
	rest 2
	note_type 12, 1, 3
	octave 5
	note A_, 1
	rest 1
	note G#, 1
	rest 1
	note A_, 1
	rest 1
	note B_, 1
	rest 1
	octave 6
	note C#, 1
	rest 1
	note D_, 1
	rest 1
	octave 5
	note B_, 10
	rest 6
	note_type 12, 2, 5
	octave 3
	note F#, 2
	rest 2
	note A_, 2
	rest 6
	note E_, 2
	rest 2
	note G#, 2
	rest 6
	note D_, 2
	rest 2
	note F#, 2
	rest 6
	note E_, 2
	note F#, 2
	note G#, 2
	rest 6
	note E_, 2
	rest 2
	note D_, 2
	rest 6
	note E_, 2
	rest 2
	note G#, 2
	rest 6
	note E_, 2
	rest 2
	note G#, 2
	rest 2
	note_type 12, 1, 3
	octave 5
	note F#, 12
	note B_, 8
	note F#, 4
	note A_, 12
	note G_, 12
	note F#, 12
	note F#, 12
	note_type 12, 2, 3
	note F#, 12
	note F#, 12
	note_type 12, 1, 3
	note F#, 12
	note B_, 8
	note F#, 4
	note A_, 12
	note G_, 4
	note A_, 4
	note G_, 4
	note F#, 12
	note F#, 12
	rest 12
	rest 12
	note_type 12, 2, 5
	rest 4
	octave 3
	note G#, 2
	note F#, 2
	note G#, 2
	rest 6
	note G#, 2
	rest 2
	note F#, 2
	rest 6
	note F#, 2
	rest 2
	note D#, 2
	rest 2
	note_type 12, 1, 3
	octave 5
	note A#, 2
	rest 2
	note G#, 2
	rest 2
	note F#, 2
	rest 2
	note G#, 12
	note E_, 8
	note G#, 4
	note G_, 4
	note F_, 4
	note G_, 4
	note G#, 4
	octave 6
	note D#, 2
	rest 2
	note C#, 2
	rest 2
	octave 5
	note B_, 12
	note_type 12, 2, 5
	octave 3
	rest 4
	note G#, 2
	rest 2
	note F#, 2
	rest 6
	note F#, 2
	rest 2
	note A#, 2
	rest 2
	note_type 12, 1, 3
	octave 5
	note A#, 4
	note G#, 4
	note F#, 4
	note B_, 4
	note A#, 4
	note G#, 4
	octave 6
	note D#, 4
	note C#, 4
	octave 5
	note B_, 4
	note A#, 4
	octave 4
	note F#, 1
	note G#, 1
	note A#, 1
	octave 5
	note C#, 1
	note D#, 1
	note F#, 1
	note G#, 1
	note A#, 1
	octave 6
	note C#, 2
	rest 10
	rest 4
	octave 5
	note G#, 1
	rest 1
	note A#, 1
	rest 1
	note B_, 1
	rest 3
	octave 6
	note D#, 4
	note C#, 4
	octave 5
	note B_, 4
	note A#, 4
	note B_, 4
	octave 6
	note C#, 4
	octave 5
	note F#, 12
	rest 4
	note G#, 1
	rest 1
	note A#, 1
	rest 1
	note B_, 1
	rest 3
	octave 6
	note D#, 4
	note C#, 4
	octave 5
	note B_, 4
	note A#, 4
	note G#, 4
	note F#, 4
	note G#, 12
	sound_jump Music_LaverreCityXY_branch_ef4e3

Music_LaverreCityXY_Ch4:
	toggle_noise 3
	stereo_panning FALSE, TRUE
	drum_speed 12
Music_LaverreCityXY_Ch4_loop:
	sound_call Music_LaverreCityXY_Ch4_branch_1
	sound_call Music_LaverreCityXY_Ch4_branch_1
	sound_call Music_LaverreCityXY_Ch4_branch_1
	sound_call Music_LaverreCityXY_Ch4_branch_1
	sound_call Music_LaverreCityXY_Ch4_branch_1
	sound_call Music_LaverreCityXY_Ch4_branch_1
	sound_call Music_LaverreCityXY_Ch4_branch_1
	sound_call Music_LaverreCityXY_Ch4_branch_1
	sound_call Music_LaverreCityXY_Ch4_branch_2
	sound_call Music_LaverreCityXY_Ch4_branch_2
	sound_call Music_LaverreCityXY_Ch4_branch_2
	sound_call Music_LaverreCityXY_Ch4_branch_2
	sound_call Music_LaverreCityXY_Ch4_branch_2
	sound_call Music_LaverreCityXY_Ch4_branch_2
	sound_call Music_LaverreCityXY_Ch4_branch_2
	sound_call Music_LaverreCityXY_Ch4_branch_2
	sound_call Music_LaverreCityXY_Ch4_branch_1
	sound_call Music_LaverreCityXY_Ch4_branch_1
	sound_call Music_LaverreCityXY_Ch4_branch_1
	sound_call Music_LaverreCityXY_Ch4_branch_1
	sound_call Music_LaverreCityXY_Ch4_branch_1
	sound_call Music_LaverreCityXY_Ch4_branch_1
	sound_call Music_LaverreCityXY_Ch4_branch_1
	drum_speed 8
	drum_note 2, 1
	drum_note 2, 1
	drum_note 2, 1
	rest 3
	drum_note 2, 1
	drum_note 2, 1
	drum_note 2, 1
	rest 3
	drum_note 2, 1
	drum_note 2, 1
	drum_note 2, 1
	rest 3
	drum_speed 12
	drum_note 2, 12
	sound_call Music_LaverreCityXY_Ch4_branch_1
	sound_call Music_LaverreCityXY_Ch4_branch_1
	sound_call Music_LaverreCityXY_Ch4_branch_1
	sound_call Music_LaverreCityXY_Ch4_branch_1
	sound_jump Music_LaverreCityXY_Ch4_loop

Music_LaverreCityXY_Ch4_branch_1:
	drum_speed 8
	drum_note 2, 1
	drum_note 2, 1
	drum_note 2, 1
	rest 3
	drum_speed 12
	drum_note 2, 4
	drum_note 2, 4
	rest 4
	drum_note 2, 4
	drum_note 2, 4
	sound_ret

Music_LaverreCityXY_Ch4_branch_2:
	drum_speed 12
	rest 12
	rest 12
	sound_ret
