; Pokémon X/Y - Battle! Legendary
; Demixed by Mmmmmm
; https://pastebin.com/Tas8HR3b
; https://hax.iimarckus.org/topic/6777/9/

Music_LegendaryBattleXY:
	channel_count 3
	channel 1, Music_LegendaryBattleXY_Ch1
	channel 2, Music_LegendaryBattleXY_Ch2
	channel 3, Music_LegendaryBattleXY_Ch3

Music_LegendaryBattleXY_Ch1:
	vibrato 18, 1, 5
	pitch_offset 1
	tempo 200
	note_type 12, 8, 4
	octave 2
	note C_, 2
	octave 3
	volume_envelope 10, 0
	note C_, 2
	note G_, 3
	note A#, 1
	note A_, 2
	volume_envelope 10, 7
	note A_, 6
	volume_envelope 8, 4
	octave 2
	note C_, 2
	volume_envelope 10, 0
	octave 3
	note C_, 2
	note G_, 3
	note A#, 1
	octave 4
	note C_, 2
	volume_envelope 10, 7
	note C_, 6
	volume_envelope 8, 4
	octave 2
	note C_, 2
	volume_envelope 10, 0
	octave 3
	note C_, 2
	note G_, 3
	note A#, 1
	note A_, 2
	volume_envelope 10, 7
	note A_, 4
	note G_, 1
	note F_, 1
	volume_envelope 10, 0
	note G_, 2
	volume_envelope 10, 7
	note G_, 4
	note A#, 2
	octave 4
	volume_envelope 10, 0
	note C_, 2
	volume_envelope 10, 7
	note C_, 6
Music_LegendaryBattleXY_Ch1_loop_main:
	octave 3
	volume_envelope 6, 0
	note C_, 12
	volume_envelope 6, 4
	note C_, 4
	volume_envelope 6, 0
	note F_, 12
	volume_envelope 6, 4
	note F_, 4
	volume_envelope 6, 0
	note G_, 12
	volume_envelope 6, 4
	note G_, 4
	volume_envelope 6, 0
	note G_, 6
	volume_envelope 6, 4
	note G_, 2
	volume_envelope 6, 0
	note A#, 6
	volume_envelope 6, 4
	note A#, 2
	volume_envelope 6, 0
	note C_, 12
	volume_envelope 6, 4
	note C_, 4
	volume_envelope 6, 0
	note F_, 12
	volume_envelope 6, 4
	note F_, 4
	volume_envelope 6, 0
	note G_, 12
	volume_envelope 6, 4
	note G_, 4
	volume_envelope 6, 0
	note G_, 6
	volume_envelope 6, 4
	note G_, 2
	volume_envelope 6, 0
	note G_, 2
	volume_envelope 6, 4
	note G_, 2
	volume_envelope 6, 0
	note G_, 2
	volume_envelope 6, 4
	note G_, 2
	octave 2
	note C_, 2
	octave 3
	volume_envelope 10, 0
	note C_, 2
	note G_, 3
	note A#, 1
	volume_envelope 10, 7
	note A_, 2
	note F_, 2
	octave 4
	note C_, 3
	note D#, 1
	note D_, 2
	volume_envelope 10, 0
	octave 3
	note C_, 2
	note G_, 3
	note A#, 1
	octave 4
	volume_envelope 10, 7
	note C_, 2
	octave 3
	note F_, 2
	octave 4
	note C_, 3
	note D#, 1
	note F_, 2
	volume_envelope 10, 0
	octave 3
	note C_, 2
	note G_, 3
	note A#, 1
	note A_, 2
	volume_envelope 10, 7
	note A_, 4
	note G_, 1
	note F_, 1
	volume_envelope 10, 0
	note G_, 2
	volume_envelope 10, 7
	note G_, 4
	note A#, 2
	octave 4
	volume_envelope 10, 0
	note C_, 2
	volume_envelope 10, 7
	note C_, 4
	note D_, 1
	octave 3
	note A#, 1
	octave 4
	volume_envelope 10, 0
	note C_, 2
	volume_envelope 10, 7
	note C_, 4
	note D_, 1
	octave 3
	note A#, 1
	octave 4
	note C_, 2
	note D_, 1
	note D#, 1
	note F_, 2
	note D_, 1
	octave 3
	note A#, 1
	octave 4
	volume_envelope 10, 0
	note C_, 2
	volume_envelope 10, 7
	note C_, 4
	note D_, 1
	octave 3
	note A#, 1
	octave 4
	volume_envelope 10, 0
	note C_, 2
	volume_envelope 10, 7
	note C_, 6
	duty_cycle 1
	volume_envelope 10, 0
	note C#, 4
	volume_envelope 10, 7
	note C#, 4
	volume_envelope 10, 2
	note C_, 1
	octave 3
	note A#, 5
	volume_envelope 10, 4
	note A_, 1
	note A#, 1
	octave 4
	volume_envelope 10, 0
	note C_, 4
	volume_envelope 10, 7
	note C_, 4
	volume_envelope 10, 2
	octave 3
	note A#, 1
	note A_, 7
	octave 4
	volume_envelope 10, 0
	note C#, 4
	volume_envelope 10, 7
	note C#, 4
	volume_envelope 10, 2
	note C_, 1
	octave 3
	note A#, 5
	volume_envelope 10, 4
	note A_, 1
	note A#, 1
	octave 4
	volume_envelope 10, 0
	note C_, 4
	volume_envelope 10, 7
	note C_, 2
	octave 3
	note A_, 1
	octave 4
	note C_, 1
	volume_envelope 10, 0
	note E_, 4
	volume_envelope 10, 7
	note E_, 4
	duty_cycle 2
	octave 2
	note A#, 1
	octave 3
	note C#, 1
	octave 2
	note A#, 1
	note A_, 1
	note A#, 1
	octave 3
	note C#, 1
	octave 2
	note A#, 1
	note A_, 1
	note A#, 1
	octave 3
	note C#, 1
	octave 2
	note A#, 1
	note A_, 1
	note A#, 1
	octave 3
	note C#, 1
	octave 2
	note A#, 1
	octave 3
	note C#, 1
	octave 2
	note A#, 1
	note A_, 1
	note A#, 1
	octave 3
	note C#, 1
	octave 2
	note A#, 1
	note A_, 1
	note A#, 1
	octave 3
	note C#, 1
	octave 2
	note A#, 1
	note A_, 1
	note A#, 1
	octave 3
	note C#, 1
	note D_, 1
	note C#, 1
	note C_, 1
	octave 2
	note B_, 1
	duty_cycle 0
	octave 3
Music_LegendaryBattleXY_Ch1_loop_1:
	volume_envelope 8, 0
	pitch_sweep 3, -7
	note D_, 1
	pitch_sweep 0, 0
	note C_, 3
	volume_envelope 8, 7
	note C_, 4
	volume_envelope 8, 0
	pitch_sweep 3, 7
	note C_, 1
	pitch_sweep 0, 0
	note D_, 3
	volume_envelope 8, 7
	note D_, 4
	sound_loop 3, Music_LegendaryBattleXY_Ch1_loop_1
	volume_envelope 8, 0
	pitch_sweep 3, -7
	note D_, 1
	pitch_sweep 0, 0
	note C_, 3
	volume_envelope 8, 7
	note C_, 4
	volume_envelope 8, 0
	pitch_sweep 3, 7
	note D#, 1
	octave 3
	pitch_sweep 0, 0
	note F_, 3
	volume_envelope 8, 7
	note F_, 4
	sound_jump Music_LegendaryBattleXY_Ch1_loop_main

Music_LegendaryBattleXY_Ch2:
	duty_cycle 3
	vibrato 18, 1, 5
	pitch_offset 1
	note_type 12, 8, 4
	octave 2
	note F_, 2
	octave 3
	volume_envelope 10, 0
	note F_, 2
	octave 4
	note C_, 3
	note D#, 1
	note D_, 2
	volume_envelope 10, 7
	note D_, 6
	volume_envelope 8, 4
	octave 2
	note F_, 2
	volume_envelope 10, 0
	octave 3
	note F_, 2
	octave 4
	note C_, 3
	note D#, 1
	note F_, 2
	volume_envelope 10, 7
	note F_, 6
	volume_envelope 8, 4
	octave 2
	note F_, 2
	volume_envelope 10, 0
	octave 3
	note F_, 2
	octave 4
	note C_, 3
	note D#, 1
	note D_, 2
	volume_envelope 10, 7
	note D_, 4
	note C_, 1
	octave 3
	note A#, 1
	volume_envelope 10, 0
	octave 4
	note C_, 2
	volume_envelope 10, 7
	note C_, 4
	note D#, 2
	volume_envelope 10, 0
	note F_, 2
	volume_envelope 10, 7
	note F_, 6
Music_LegendaryBattleXY_Ch2_loop_main:
	duty_cycle 2
	octave 3
	volume_envelope 8, 0
	note F_, 12
	volume_envelope 8, 4
	note F_, 4
	volume_envelope 8, 0
	octave 4
	note C_, 6
	volume_envelope 8, 4
	note C_, 2
	octave 3
	volume_envelope 8, 0
	note A#, 2
	volume_envelope 8, 4
	note A#, 2
	octave 4
	volume_envelope 8, 0
	note D#, 2
	volume_envelope 8, 4
	note D#, 2
	volume_envelope 8, 0
	note C#, 12
	volume_envelope 8, 4
	note C#, 4
	octave 3
	volume_envelope 8, 0
	note A#, 6
	volume_envelope 8, 4
	note A#, 2
	octave 4
	volume_envelope 8, 0
	note C#, 2
	volume_envelope 8, 4
	note C#, 2
	volume_envelope 8, 0
	note C_, 2
	volume_envelope 8, 4
	note C_, 2
	octave 3
	volume_envelope 8, 0
	note F_, 6
	volume_envelope 8, 4
	note F_, 2
	volume_envelope 8, 0
	octave 4
	note C_, 6
	volume_envelope 8, 4
	note C_, 2
	volume_envelope 8, 0
	octave 3
	note A#, 6
	volume_envelope 8, 4
	note A#, 2
	octave 4
	volume_envelope 8, 0
	note D#, 6
	volume_envelope 8, 4
	note D#, 2
	volume_envelope 8, 0
	note C#, 12
	volume_envelope 8, 4
	note C#, 4
	volume_envelope 8, 0
	note C_, 6
	volume_envelope 8, 4
	note C_, 2
	octave 3
	volume_envelope 8, 0
	note A#, 2
	volume_envelope 8, 4
	note A#, 2
	octave 4
	volume_envelope 8, 0
	note C_, 2
	volume_envelope 8, 4
	note C_, 2
	duty_cycle 3
	octave 2
	note F_, 2
	octave 3
	volume_envelope 10, 0
	note F_, 2
	octave 4
	note C_, 3
	note D#, 1
	note D_, 2
	volume_envelope 10, 7
	note D_, 6
	volume_envelope 8, 4
	octave 2
	note F_, 2
	volume_envelope 10, 0
	octave 3
	note F_, 2
	octave 4
	note C_, 3
	note D#, 1
	note F_, 2
	volume_envelope 10, 7
	note F_, 6
	volume_envelope 8, 4
	octave 2
	note F_, 2
	volume_envelope 10, 0
	octave 3
	note F_, 2
	octave 4
	note C_, 3
	note D#, 1
	note D_, 2
	volume_envelope 10, 7
	note D_, 4
	note C_, 1
	octave 3
	note A#, 1
	volume_envelope 10, 0
	octave 4
	note C_, 2
	volume_envelope 10, 7
	note C_, 4
	note D#, 2
	volume_envelope 10, 0
	note F_, 2
	volume_envelope 10, 7
	note F_, 4
	note G_, 1
	note D#, 1
	volume_envelope 10, 0
	note F_, 2
	volume_envelope 10, 7
	note F_, 4
	note G_, 1
	note D#, 1
	note F_, 2
	note G_, 1
	note G#, 1
	note A#, 2
	note G_, 1
	note D#, 1
	volume_envelope 10, 0
	note F_, 2
	volume_envelope 10, 7
	note F_, 4
	note G_, 1
	note D#, 1
	volume_envelope 10, 0
	note F_, 2
	volume_envelope 10, 7
	note F_, 6
	duty_cycle 0
	volume_envelope 10, 0
	note F#, 4
	volume_envelope 10, 7
	note F#, 4
	volume_envelope 10, 2
	note F_, 1
	note D#, 5
	volume_envelope 10, 4
	note D_, 1
	note D#, 1
	volume_envelope 10, 0
	note F_, 4
	volume_envelope 10, 7
	note F_, 4
	volume_envelope 10, 2
	note D#, 1
	note D_, 7
	volume_envelope 10, 0
	note F#, 4
	volume_envelope 10, 7
	note F#, 4
	volume_envelope 10, 2
	note F_, 1
	note D#, 5
	volume_envelope 10, 4
	note D_, 1
	note D#, 1
	volume_envelope 10, 0
	note F_, 4
	volume_envelope 10, 7
	note F_, 2
	note D_, 1
	note F_, 1
	volume_envelope 10, 0
	note A_, 4
	volume_envelope 10, 7
	note A_, 4
	duty_cycle 3
	octave 3
	note A#, 1
	octave 4
	note C#, 1
	octave 3
	note A#, 1
	note A_, 1
	note A#, 1
	octave 4
	note C#, 1
	octave 3
	note A#, 1
	note A_, 1
	note A#, 1
	octave 4
	note C#, 1
	octave 3
	note A#, 1
	note A_, 1
	note A#, 1
	octave 4
	note C#, 1
	octave 3
	note A#, 1
	octave 4
	note C#, 1
	octave 3
	note A#, 1
	note A_, 1
	note A#, 1
	octave 4
	note C#, 1
	octave 3
	note A#, 1
	note A_, 1
	note A#, 1
	octave 4
	note C#, 1
	octave 3
	note A#, 1
	note A_, 1
	note A#, 1
	octave 4
	note C#, 1
	note D_, 1
	note C#, 1
	note C_, 1
	octave 3
	note B_, 1
	duty_cycle 2
	octave 2
	volume_envelope 8, 0
	note F_, 4
	volume_envelope 8, 7
	note F_, 4
	volume_envelope 8, 0
	note A_, 4
	volume_envelope 8, 7
	note A_, 4
	volume_envelope 8, 0
	note F_, 4
	volume_envelope 8, 7
	note F_, 4
	volume_envelope 8, 0
	note A_, 4
	volume_envelope 8, 7
	note A_, 4
	volume_envelope 8, 0
	note F_, 4
	volume_envelope 8, 7
	note F_, 4
	volume_envelope 8, 0
	note A_, 4
	volume_envelope 8, 7
	note A_, 4
	volume_envelope 8, 0
	note F_, 4
	volume_envelope 8, 7
	note F_, 4
	volume_envelope 8, 0
	octave 3
	note D#, 4
	volume_envelope 8, 7
	note D#, 4
	sound_jump Music_LegendaryBattleXY_Ch2_loop_main

Music_LegendaryBattleXY_Ch3:
	note_type 12, 1, 9
	vibrato 18, 3, 4
	octave 2
	note F_, 16
	note F_, 16
	note F_, 16
	note F_, 8
	volume_envelope 2, 9
	note F_, 8
Music_LegendaryBattleXY_Ch3_loop_main:
Music_LegendaryBattleXY_Ch3_loop_1:
	note_type 6, 1, 4
	octave 1
	note F_, 6
	octave 2
	note F_, 6
	octave 1
	note F_, 6
	octave 2
	note F_, 6
	octave 1
	note F_, 4
	octave 2
	note F_, 4
	octave 1
	note F_, 6
	octave 2
	note F_, 6
	octave 1
	note F_, 6
	octave 2
	note F_, 6
	octave 1
	note F_, 4
	octave 2
	note F_, 4
	octave 2
	note C_, 6
	octave 3
	note C_, 6
	octave 2
	note C_, 6
	octave 3
	note C_, 6
	octave 2
	note C_, 4
	octave 3
	note C_, 4
	octave 2
	note C_, 6
	octave 3
	note C_, 6
	octave 2
	note C_, 6
	octave 3
	note C_, 6
	note C#, 4
	note C_, 4
	sound_loop 2, Music_LegendaryBattleXY_Ch3_loop_1
Music_LegendaryBattleXY_Ch3_loop_2:
	volume_envelope 1, 9
	octave 1
	note F_, 2
	octave 2
	note F_, 2
	octave 1
	note F_, 2
	octave 2
	note F_, 2
	sound_loop 15, Music_LegendaryBattleXY_Ch3_loop_2
	octave 1
	note F_, 2
	octave 2
	note A#, 2
	octave 1
	note F_, 2
	octave 2
	note F_, 2
	octave 1
	note F_, 2
	octave 2
	note F_, 2
	octave 1
	note F_, 2
	octave 2
	note F_, 2
	octave 1
	note F_, 2
	octave 2
	note A#, 2
	octave 1
	note F_, 2
	octave 2
	note F_, 2
	octave 1
	note F_, 2
	octave 2
	note F_, 2
	octave 1
	note F_, 2
	octave 2
	note F_, 2
	octave 1
	note F_, 2
	octave 2
	note A#, 2
Music_LegendaryBattleXY_Ch3_loop_3:
	volume_envelope 1, 9
	octave 1
	note F_, 2
	octave 2
	note F_, 2
	sound_loop 6, Music_LegendaryBattleXY_Ch3_loop_3
	note A_, 2
	note A#, 2
	note A_, 2
	note F_, 2
	octave 1
	note F_, 1
	octave 2
	note F_, 1
	octave 1
	note F_, 1
	octave 2
	note F_, 1
Music_LegendaryBattleXY_Ch3_loop_4:
	octave 1
	note F#, 2
	octave 2
	note F#, 2
	sound_loop 4, Music_LegendaryBattleXY_Ch3_loop_4
Music_LegendaryBattleXY_Ch3_loop_5:
	octave 1
	note D#, 2
	octave 2
	note D#, 2
	sound_loop 4, Music_LegendaryBattleXY_Ch3_loop_5
Music_LegendaryBattleXY_Ch3_loop_6:
	octave 1
	note F_, 2
	octave 2
	note F_, 2
	sound_loop 4, Music_LegendaryBattleXY_Ch3_loop_6
Music_LegendaryBattleXY_Ch3_loop_7:
	octave 1
	note D_, 2
	octave 2
	note D_, 2
	sound_loop 4, Music_LegendaryBattleXY_Ch3_loop_7
Music_LegendaryBattleXY_Ch3_loop_8:
	octave 1
	note F#, 2
	octave 2
	note F#, 2
	sound_loop 4, Music_LegendaryBattleXY_Ch3_loop_8
Music_LegendaryBattleXY_Ch3_loop_9:
	octave 1
	note D#, 2
	octave 2
	note D#, 2
	sound_loop 4, Music_LegendaryBattleXY_Ch3_loop_9
Music_LegendaryBattleXY_Ch3_loop_10:
	octave 1
	note F_, 2
	octave 2
	note F_, 2
	sound_loop 8, Music_LegendaryBattleXY_Ch3_loop_10
Music_LegendaryBattleXY_Ch3_loop_11:
	octave 1
	note A#, 2
	octave 2
	note A#, 2
	octave 3
	note A#, 2
	octave 2
	note A#, 2
	sound_loop 8, Music_LegendaryBattleXY_Ch3_loop_11
Music_LegendaryBattleXY_Ch3_loop_12:
	octave 1
	note F_, 2
	octave 2
	note F_, 2
	sound_loop 32, Music_LegendaryBattleXY_Ch3_loop_12
	sound_jump Music_LegendaryBattleXY_Ch3_loop_main
