Music_Bicycle:
	channel_count 4
	channel 1, Music_Bicycle_Ch1
	channel 2, Music_Bicycle_Ch2
	channel 3, Music_Bicycle_Ch3
	channel 4, Music_Bicycle_Ch4

Music_Bicycle_Ch1:
	tempo 140
	volume 7, 7
	duty_cycle 3
	pitch_offset 1
	stereo_panning FALSE, TRUE
	vibrato $8, $15
	note_type 12, 11, 4
	octave 3
	note B_, 6
	note A_, 6
	note G_, 4
	volume_envelope 11, 0
	note A_, 6
	volume_envelope 11, 6
	note A_, 8
	volume_envelope 11, 2
	note F#, 2
Music_Bicycle_branch_ee144:
	stereo_panning FALSE, TRUE
	volume_envelope 11, 2
	note G_, 2
	note G_, 2
	note E_, 2
	note E_, 2
	note F#, 1
	note E_, 1
	note D#, 2
	note D_, 2
	note D_, 2
	note E_, 2
	note E_, 2
	note C_, 2
	note C_, 2
	octave 2
	note B_, 2
	note G_, 2
	note A_, 2
	note B_, 2
	octave 3
	note C_, 2
	note C_, 2
	note E_, 2
	note E_, 2
	note C#, 2
	note E_, 2
	note F#, 2
	note E_, 2
	note D_, 2
	note E_, 2
	note D_, 2
	note C#, 2
	note D_, 2
	note D_, 2
	note C#, 2
	note D_, 2
	note G_, 2
	note G_, 2
	note E_, 2
	note E_, 2
	note F#, 1
	note E_, 1
	note D#, 2
	note D_, 2
	note D_, 2
	note E_, 2
	note E_, 2
	note C_, 2
	note C_, 2
	octave 2
	note B_, 2
	note B_, 2
	note A#, 2
	note B_, 2
	octave 3
	note C_, 2
	octave 2
	note B_, 2
	octave 3
	note C_, 2
	note E_, 2
	note C_, 2
	note E_, 2
	note F#, 2
	note G_, 2
	note F#, 2
	volume_envelope 8, 2
	note F#, 2
	volume_envelope 11, 2
	note A_, 2
	note G_, 2
	note F#, 2
	note G_, 2
	note G#, 2
	note A_, 2
	stereo_panning TRUE, FALSE
	volume_envelope 11, 6
	note B_, 4
	note G_, 4
	octave 4
	note D_, 4
	octave 3
	note G_, 4
	note A_, 4
	note F#, 4
	octave 4
	note D_, 4
	octave 3
	note F#, 4
	note G_, 4
	note E_, 4
	octave 4
	note C_, 4
	octave 3
	note E_, 4
	note F#, 4
	note D_, 2
	note F#, 2
	note G_, 2
	note G#, 2
	note A_, 4
	octave 4
	note D_, 2
	octave 3
	note B_, 2
	note G_, 2
	note B_, 2
	octave 4
	note D_, 2
	note G_, 2
	note D_, 2
	octave 3
	note B_, 2
	octave 4
	note C_, 2
	octave 3
	note A_, 2
	note F#, 2
	note A_, 2
	octave 4
	note C_, 2
	note F#, 2
	note C_, 2
	octave 3
	note A_, 2
	note G_, 2
	note E_, 2
	note C_, 2
	note E_, 2
	note G_, 2
	note G#, 2
	note A_, 2
	note B_, 2
	octave 4
	note C_, 2
	note C_, 2
	octave 3
	note A_, 2
	note G_, 2
	note F#, 2
	note G_, 2
	note G#, 2
	note A_, 2
	jumpchannel Music_Bicycle_branch_ee144

Music_Bicycle_Ch2:
	duty_cycle 2
	vibrato $10, $24
	stereo_panning TRUE, FALSE
	note_type 12, 12, 6
	octave 4
	note D_, 6
	note C_, 6
	octave 3
	note B_, 4
	volume_envelope 12, 2
	octave 4
	note D_, 2
	note D_, 1
	note E_, 1
	note D_, 2
	note D_, 1
	note E_, 1
	note D_, 2
	volume_envelope 12, 3
	note C_, 2
	octave 3
	note B_, 2
	note A_, 2
Music_Bicycle_branch_ee1fd:
	stereo_panning TRUE, TRUE
	duty_cycle 2
	volume_envelope 12, 3
	octave 3
	note B_, 4
	note G_, 4
	note A_, 4
	note F#, 4
	volume_envelope 12, 2
	note G_, 2
	note F#, 2
	note E_, 2
	note F#, 2
	volume_envelope 12, 5
	note D_, 8
	volume_envelope 12, 4
	note E_, 4
	note G_, 4
	volume_envelope 12, 2
	note E_, 2
	note B_, 2
	note A_, 2
	note G_, 2
	note F#, 2
	note G_, 2
	note A_, 2
	note G_, 2
	volume_envelope 12, 5
	note F#, 8
	volume_envelope 12, 3
	note B_, 4
	note G_, 4
	note A_, 4
	note F#, 4
	volume_envelope 12, 2
	note G_, 2
	note F#, 2
	note E_, 2
	note F#, 2
	volume_envelope 12, 5
	note D_, 8
	volume_envelope 12, 4
	note E_, 4
	note G_, 4
	volume_envelope 12, 2
	note E_, 2
	octave 4
	note E_, 2
	note D_, 2
	note C_, 2
	octave 3
	note B_, 2
	octave 4
	note C_, 2
	note D_, 2
	note E_, 2
	volume_envelope 12, 7
	note F#, 8
	stereo_panning FALSE, TRUE
	callchannel Music_Bicycle_branch_ee263
	note F#, 4
	volume_envelope 12, 3
	note A_, 2
	note D_, 2
	note E_, 2
	note F_, 2
	note F#, 4
	volume_envelope 12, 7
	callchannel Music_Bicycle_branch_ee263
	note F#, 4
	volume_envelope 12, 3
	note A_, 2
	note B_, 2
	note A_, 2
	note G_, 2
	note F#, 4
	jumpchannel Music_Bicycle_branch_ee1fd

Music_Bicycle_branch_ee263:
	note G_, 6
	note B_, 6
	note G_, 4
	note F#, 6
	note A_, 6
	note F#, 4
	note E_, 6
	note G_, 6
	note E_, 4
	endchannel

Music_Bicycle_Ch3:
	note_type 12, 1, 4
	note __, 16
	octave 3
	note A_, 2
	octave 4
	note C_, 2
	octave 3
	note B_, 2
	octave 4
	note D_, 2
	note C_, 2
	note E_, 2
	note D_, 2
	octave 3
	note A_, 1
	note __, 1
Music_Bicycle_branch_ee27f:
	callchannel Music_Bicycle_branch_ee333
	note E_, 1
	note __, 1
	note G_, 1
	note __, 1
	note E_, 1
	note __, 1
	note G_, 1
	note __, 1
	note D_, 1
	note __, 1
	octave 2
	note B_, 1
	note __, 1
	octave 3
	note C_, 1
	note __, 1
	note D_, 1
	note __, 1
	note E_, 1
	note __, 1
	note G_, 1
	note __, 1
	note C_, 1
	note __, 1
	note G_, 1
	note __, 1
	note E_, 1
	note __, 1
	note G_, 1
	note __, 1
	note C_, 1
	note __, 1
	note G_, 1
	note __, 1
	note F#, 1
	note __, 1
	note A_, 1
	note __, 1
	note D_, 1
	note __, 1
	note A_, 1
	note __, 1
	note F#, 1
	note __, 1
	note D_, 1
	note __, 1
	note E_, 1
	note __, 1
	note F#, 1
	note __, 1
	callchannel Music_Bicycle_branch_ee333
	note E_, 1
	note __, 1
	note G_, 1
	note __, 1
	note E_, 1
	note __, 1
	note G_, 1
	note __, 1
	note D_, 1
	note __, 1
	note G_, 1
	note __, 1
	note F#, 1
	note __, 1
	note F_, 1
	note __, 1
	note E_, 1
	note __, 1
	note G_, 1
	note __, 1
	note C_, 1
	note __, 1
	note G_, 1
	note __, 1
	note E_, 1
	note __, 1
	note G_, 1
	note __, 1
	note C_, 1
	note __, 1
	note G_, 1
	note __, 1
	note F#, 1
	note __, 1
	note A_, 1
	note __, 1
	note D_, 1
	note __, 1
	note A_, 1
	note __, 1
	octave 4
	note D_, 1
	note __, 1
	note C_, 1
	note __, 1
	octave 3
	note B_, 1
	note __, 1
	note A_, 1
	note __, 1
Music_Bicycle_branch_ee2e9:
	note G_, 1
	note __, 1
	note B_, 1
	note __, 1
	note D_, 1
	note __, 1
	note B_, 1
	note __, 1
	note G_, 1
	note __, 1
	note B_, 1
	note __, 1
	note D_, 1
	note __, 1
	note B_, 1
	note __, 1
	note F#, 1
	note __, 1
	note A_, 1
	note __, 1
	note D_, 1
	note __, 1
	note A_, 1
	note __, 1
	note F#, 1
	note __, 1
	note A_, 1
	note __, 1
	note D_, 1
	note __, 1
	note A_, 1
	note __, 1
	note E_, 1
	note __, 1
	note G_, 1
	note __, 1
	note C_, 1
	note __, 1
	note G_, 1
	note __, 1
	note E_, 1
	note __, 1
	note G_, 1
	note __, 1
	note C_, 1
	note __, 1
	note G_, 1
	note __, 1
	note F#, 1
	note __, 1
	note A_, 1
	note __, 1
	note D_, 1
	note __, 1
	note A_, 1
	note __, 1
	note F#, 1
	note __, 1
	octave 4
	note C_, 1
	note __, 1
	octave 3
	note B_, 1
	note __, 1
	note A_, 1
	note __, 1
	loopchannel 2, Music_Bicycle_branch_ee2e9
	jumpchannel Music_Bicycle_branch_ee27f

Music_Bicycle_branch_ee333:
	octave 3
	note G_, 1
	note __, 1
	note B_, 1
	note __, 1
	note D_, 1
	note __, 1
	note B_, 1
	note __, 1
	note G_, 1
	note __, 1
	note B_, 1
	note __, 1
	note D_, 1
	note __, 1
	note B_, 1
	note __, 1
	endchannel

Music_Bicycle_Ch4:
	toggle_noise 0
	note_type 12
	note __, 16
	note __, 16
Music_Bicycle_branch_ee34b:
	note __, 2
Music_Bicycle_branch_ee34c:
	stereo_panning TRUE, FALSE
	note F_, 4
	loopchannel 12, Music_Bicycle_branch_ee34c
	note F_, 4
	note F_, 4
	stereo_panning TRUE, TRUE
	note F_, 2
	note F_, 2
	note F_, 2
	jumpchannel Music_Bicycle_branch_ee34b
