Music_RocketTheme:
	channel_count 4
	channel 1, Music_RocketTheme_Ch1
	channel 2, Music_RocketTheme_Ch2
	channel 3, Music_RocketTheme_Ch3
	channel 4, Music_RocketTheme_Ch4

Music_RocketTheme_Ch1:
	tempo 128
	volume 7, 7
	duty_cycle 3
	stereo_panning FALSE, TRUE
	vibrato $5, $64
	note_type 12, 10, 8
	octave 4
	note C_, 1
	note D_, 1
Music_RocketTheme_branch_f768b:
	duty_cycle 3
	note_type 12, 10, 8
	callchannel Music_RocketTheme_branch_f74e6
	duty_cycle 1
	volume_envelope 10, 8
	callchannel Music_RocketTheme_branch_f74f7
	callchannel Music_RocketTheme_branch_f758a
	octave 4
	note F#, 1
	note __, 1
	volume_envelope 5, 3
	callchannel Music_RocketTheme_branch_f750c
	volume_envelope 12, 3
	callchannel Music_RocketTheme_branch_f750c
	volume_envelope 14, 3
	callchannel Music_RocketTheme_branch_f750c
	note __, 16
	duty_cycle 0
	note_type 6, 11, 3
	vibrato $6, $64
	callchannel Music_RocketTheme_branch_f7727
	octave 4
	note F_, 1
	note F#, 3
	note F_, 2
	note __, 2
	note D#, 2
	note __, 2
	note C_, 2
	note D_, 2
	note D#, 2
	note C_, 2
	octave 3
	note A#, 2
	note G_, 2
	note A#, 2
	octave 4
	note C_, 2
	note __, 4
	note D_, 4
	note __, 4
	note D#, 4
	note __, 4
	note D#, 2
	note F#, 2
	callchannel Music_RocketTheme_branch_f7727
	octave 3
	note F#, 1
	note G_, 3
	note F_, 2
	note __, 2
	note D#, 2
	note __, 2
	note C_, 2
	note D_, 2
	note D#, 2
	note C_, 2
	octave 2
	note A#, 2
	note G_, 2
	note A#, 2
	octave 3
	note C_, 2
	note __, 4
	note D_, 4
	note __, 4
	note D#, 4
	note F_, 2
	note E_, 2
	note D#, 2
	note D_, 2
Music_RocketTheme_branch_f76ef:
	note __, 4
	note F_, 2
	note __, 14
	note F#, 2
	note __, 10
	sound_loop 3, Music_RocketTheme_branch_f76ef
	note __, 4
	note F_, 2
	note __, 14
	note F#, 2
	note __, 2
	note F#, 2
	note __, 2
	note D#, 2
	note C_, 2
Music_RocketTheme_branch_f7701:
	note F#, 2
	note A_, 2
	sound_loop 4, Music_RocketTheme_branch_f7701
Music_RocketTheme_branch_f7707:
	note G_, 2
	note A#, 2
	sound_loop 4, Music_RocketTheme_branch_f7707
Music_RocketTheme_branch_f770d:
	note G#, 2
	note B_, 2
	sound_loop 4, Music_RocketTheme_branch_f770d
Music_RocketTheme_branch_f7713:
	octave 3
	note A_, 2
	octave 4
	note C_, 2
	sound_loop 4, Music_RocketTheme_branch_f7713
	note_type 12, 11, 3
	note __, 16
	note __, 12
	note F_, 2
	note C_, 1
	note D_, 1
	sound_jump Music_RocketTheme_branch_f768b

Music_RocketTheme_branch_f7727:
	note __, 7
	note B_, 1
	octave 4
	note C_, 2
	note __, 6
	note C_, 2
	note __, 2
	octave 3
	note G_, 2
	note __, 6
	octave 4
	note D#, 12
	note D_, 8
	octave 3
	note A#, 2
	note __, 6
	note G_, 2
	note __, 2
	note A_, 2
	note __, 2
	note A#, 2
	note __, 10
	endchannel

Music_RocketTheme_Ch2:
	stereo_panning TRUE, TRUE
	vibrato $4, $64
	duty_cycle 3
	note_type 12, 11, 7
	octave 5
	note C_, 1
	note D_, 1
Music_RocketTheme_branch_f774b:
	note_type 12, 11, 7
	callchannel Music_RocketTheme_branch_f7547
	volume_envelope 11, 7
	callchannel Music_RocketTheme_branch_f758a
	octave 5
	note C_, 1
	note __, 1
	callchannel Music_RocketTheme_branch_f7554
	volume_envelope 5, 3
	callchannel Music_RocketTheme_branch_f7568
	volume_envelope 12, 3
	callchannel Music_RocketTheme_branch_f7568
	volume_envelope 14, 3
	callchannel Music_RocketTheme_branch_f7568
	callchannel Music_RocketTheme_branch_f756f
	vibrato $6, $64
	callchannel Music_RocketTheme_branch_f7800
	octave 4
	note A_, 1
	vibrato $0, $0
	volume_envelope 11, 8
	note A#, 14
	vibrato $5, $22
	volume_envelope 11, 7
	note A#, 5
	vibrato $6, $64
	note_type 12, 11, 7
	note A#, 12
	note __, 2
	octave 5
	note C_, 1
	note D_, 1
	callchannel Music_RocketTheme_branch_f7800
	note B_, 1
	vibrato $0, $0
	volume_envelope 11, 8
	octave 4
	note C_, 14
	vibrato $5, $22
	volume_envelope 11, 7
	note C_, 5
	vibrato $6, $64
	note_type 12, 11, 7
	note C_, 12
	octave 3
	note A#, 1
	note A_, 1
	note G#, 1
	note G_, 1
	note_type 6, 11, 7
	callchannel Music_RocketTheme_branch_f781c
	octave 4
	note D_, 1
	note D#, 9
	note D_, 1
	note C#, 1
	note C_, 12
	note F_, 2
	note __, 2
	note F#, 2
	note __, 2
	callchannel Music_RocketTheme_branch_f781c
	octave 3
	note B_, 2
	note __, 2
	octave 4
	note C_, 2
	note __, 2
	note D_, 2
	note __, 2
	note D#, 8
	note __, 4
	note D_, 2
	note __, 2
	note C_, 2
	octave 3
	note G_, 2
	note B_, 1
	octave 4
	note C_, 15
	note C#, 16
	note D_, 16
	note D#, 16
	note E_, 2
	note C#, 2
	octave 3
	note A#, 2
	note G_, 2
	octave 4
	note F_, 2
	note D_, 2
	octave 3
	note B_, 2
	note G#, 2
	octave 4
	note F#, 2
	note D#, 2
	note C_, 2
	octave 3
	note A_, 2
	octave 4
	note G_, 2
	note E_, 2
	note C#, 2
	octave 3
	note A#, 2
	octave 4
	note G#, 2
	note F_, 2
	note D_, 2
	octave 3
	note B_, 2
	octave 4
	note A_, 2
	note F#, 2
	note D#, 2
	note C_, 2
	note A#, 2
	note G_, 2
	note E_, 2
	note C#, 2
	note B_, 4
	octave 5
	note C_, 2
	note D_, 2
	sound_jump Music_RocketTheme_branch_f774b

Music_RocketTheme_branch_f7800:
	note_type 6, 11, 7
	note __, 7
	octave 4
	note D_, 1
	note D#, 2
	note __, 6
	note D#, 2
	note __, 2
	note C_, 2
	note __, 6
	note F#, 12
	note F_, 8
	note D#, 2
	note __, 6
	note C_, 2
	note __, 2
	note D_, 2
	note __, 2
	note D#, 2
	note __, 2
	octave 3
	note D#, 2
	note __, 2
	note D#, 2
	note __, 2
	endchannel

Music_RocketTheme_branch_f781c:
	octave 3
	note B_, 1
	octave 4
	note C_, 3
	note D#, 4
	note C_, 4
	note F#, 8
	note F_, 8
	note C_, 4
	endchannel

Music_RocketTheme_Ch3:
	stereo_panning TRUE, FALSE
	vibrato $4, $22
	note_type 12, 1, 4
	note __, 2
Music_RocketTheme_branch_f782f:
	note_type 12, 1, 4
	callchannel Music_RocketTheme_branch_f75bf
	callchannel Music_RocketTheme_branch_f75fe
	callchannel Music_RocketTheme_branch_f75fe
	volume_envelope 2, 4
	callchannel Music_RocketTheme_branch_f7623
	volume_envelope 1, 4
	callchannel Music_RocketTheme_branch_f75cc
	callchannel Music_RocketTheme_branch_f7623
	callchannel Music_RocketTheme_branch_f75e1
	callchannel Music_RocketTheme_branch_f75fe
	callchannel Music_RocketTheme_branch_f75fe
	callchannel Music_RocketTheme_branch_f75fe
	callchannel Music_RocketTheme_branch_f75fe
	callchannel Music_RocketTheme_branch_f7623
	callchannel Music_RocketTheme_branch_f75cc
	callchannel Music_RocketTheme_branch_f7623
	callchannel Music_RocketTheme_branch_f75cc
	octave 3
	note C_, 1
	note __, 1
	octave 4
	note C_, 1
	note __, 1
	octave 3
	note C_, 1
	note __, 1
	note C_, 1
	note __, 1
	note C#, 1
	note __, 1
	octave 4
	note C#, 1
	note __, 1
	octave 3
	note A#, 1
	note G_, 1
	note E_, 1
	note C#, 1
	note D_, 1
	note __, 1
	octave 4
	note D_, 1
	note __, 1
	octave 3
	note D_, 1
	note __, 1
	note D_, 1
	note __, 1
	note D#, 1
	note __, 1
	octave 4
	note D#, 1
	note __, 1
	note C_, 1
	octave 3
	note A_, 1
	note F#, 1
	note D#, 1
	note E_, 1
	note __, 1
	octave 4
	note C#, 1
	note __, 1
	octave 3
	note F_, 1
	note __, 1
	octave 4
	note D_, 1
	note __, 1
	octave 3
	note F#, 1
	note __, 1
	octave 4
	note D#, 1
	note __, 1
	octave 3
	note G_, 1
	note __, 1
	octave 4
	note E_, 1
	note __, 1
	octave 3
	note G#, 1
	note __, 1
	octave 4
	note F_, 1
	note __, 1
	octave 3
	note A_, 1
	note __, 1
	octave 4
	note F#, 1
	note __, 1
	octave 3
	note A#, 1
	note __, 1
	octave 4
	note G_, 1
	note __, 1
	octave 3
	note B_, 2
	octave 4
	note G#, 1
	note __, 1
	sound_jump Music_RocketTheme_branch_f782f

Music_RocketTheme_Ch4:
	toggle_noise 3
	note_type 12
	note __, 2
Music_RocketTheme_branch_f78c3:
	callchannel Music_RocketTheme_branch_f765c
	callchannel Music_RocketTheme_branch_f7664
	callchannel Music_RocketTheme_branch_f7664
	callchannel Music_RocketTheme_branch_f7664
	callchannel Music_RocketTheme_branch_f7664
	callchannel Music_RocketTheme_branch_f7664
	callchannel Music_RocketTheme_branch_f7664
	callchannel Music_RocketTheme_branch_f7664
	callchannel Music_RocketTheme_branch_f765c
Music_RocketTheme_branch_f78de:
	note A#, 2
	note F#, 2
	note D_, 2
	note F#, 2
	note A#, 2
	note F#, 2
	note D_, 2
	note F#, 2
	sound_loop 11, Music_RocketTheme_branch_f78de
	callchannel Music_RocketTheme_branch_f7664
	callchannel Music_RocketTheme_branch_f7664
	callchannel Music_RocketTheme_branch_f7664
	callchannel Music_RocketTheme_branch_f765c
	callchannel Music_RocketTheme_branch_f765c
	sound_jump Music_RocketTheme_branch_f78c3
