Music_TitleScreen:
	channel_count 4
	channel 1, Music_TitleScreen_Ch1
	channel 2, Music_TitleScreen_Ch2
	channel 3, Music_TitleScreen_Ch3
	channel 4, Music_TitleScreen_Ch4

Music_TitleScreen_Ch1:
	tempo 134
	volume 7, 7
	dutycycle $3
	tone $0002
	vibrato $10, $12
	stereopanning $f0
	note_type 12, 10, 7
	intensity $a0
	octave 3
	note __, 4
	intensity $a7
	octave 2
	note G_, 1
	note __, 2
	note A_, 1
	note B_, 8
	note G_, 4
	octave 3
	note C_, 1
	note __, 2
	note D_, 1
	note E_, 8
	note C_, 4
	octave 2
	note B_, 1
	note __, 2
	octave 3
	note C_, 1
	octave 2
	note B_, 8
	note A_, 4
	note A_, 1
	note __, 2
	note B_, 1
	octave 3
	note C_, 6
	note E_, 4
	note F#, 2
	stereopanning $ff
	octave 4
	note G_, 1
	stereopanning $f0
	octave 3
	note D_, 5
	octave 2
	note B_, 2
	octave 3
	note D_, 4
	octave 2
	note B_, 4
	octave 3
	note C_, 6
	note F_, 6
	note C_, 4
	note D_, 6
	intensity $b7
	note D#, 1
	note E_, 1
	note F_, 6
	note E_, 1
	note D#, 1
	note D_, 8
	note_type 8, 10, 7
	note C_, 4
	octave 2
	note B_, 4
	octave 3
	note C_, 4
	note D_, 9
	octave 2
	note B_, 3
	octave 3
	note D_, 6
	octave 2
	note B_, 6
	octave 3
	note C_, 3
	note D_, 6
	note E_, 3
	note E_, 4
	note E_, 4
	note C_, 4
	note_type 8, 10, 0
	octave 2
	note B_, 6
	note_type 8, 10, 7
	note B_, 6
	note_type 8, 10, 7
	octave 3
	note F_, 4
	note E_, 4
	note C_, 4
	note_type 8, 10, 0
	note D_, 6
	note_type 8, 10, 7
	note D_, 6
	note_type 8, 10, 7
	note __, 3
	octave 2
	note B_, 3
	octave 3
	note C_, 3
	note D_, 3
	note D_, 9
	octave 2
	note B_, 3
	octave 3
	note D_, 6
	octave 2
	note B_, 6
	octave 3
	note C_, 9
	note F_, 9
	note C_, 6
	note D_, 9
	note_type 12, 11, 7
	note D#, 1
	note E_, 1
	note F_, 6
	note E_, 1
	note D#, 1
	note D_, 8
	note_type 8, 10, 7
	note C_, 4
	octave 2
	note B_, 4
	octave 3
	note C_, 4
	note D_, 9
	octave 2
	note B_, 3
	octave 3
	note D_, 9
	note_type 8, 11, 7
	note G_, 3
	note A_, 4
	note G_, 4
	note F_, 4
	note F_, 6
	note E_, 6
	note D_, 9
	note F_, 3
	note G_, 3
	note D_, 6
	note G_, 3
	note_type 8, 5, 4
	octave 2
	note G_, 3
	note B_, 3
	note_type 8, 9, 4
	octave 3
	note D_, 3
	note G_, 3
	tempo 136
	note_type 8, 11, 4
	note F_, 3
	note A_, 3
	note_type 8, 13, 4
	octave 4
	note C_, 3
	note F_, 3
	tempo 138
	note_type 8, 11, 4
	note D_, 9
	note C_, 9
	octave 3
	note A#, 6
	note_type 12, 11, 7
	note F_, 1
	note E_, 1
	note D_, 1
	note E_, 1
	note F_, 4
	octave 4
	note D_, 4
	note F_, 4
	note E_, 6
	octave 3
	note G_, 2
	note_type 8, 11, 7
	note A_, 4
	note G_, 4
	note F_, 4
	note G_, 12
	octave 4
	note C_, 6
	tempo 136
	note C#, 6
	tempo 134
	callchannel Music_TitleScreen_branch_eb96d
	octave 4
	note C_, 4
	note C_, 4
	note C#, 4
	callchannel Music_TitleScreen_branch_eb96d
	octave 4
	note C_, 4
	note C_, 4
	note C#, 4
	callchannel Music_TitleScreen_branch_eb96d
	octave 3
	note E_, 4
	note E_, 4
	note C_, 4
	note_type 12, 10, 0
	note D_, 6
	note_type 12, 10, 7
	note D_, 10
	intensity $a0
	note C_, 8
	intensity $a7
	note C_, 8
	intensity $a0
	octave 2
	note B_, 8
	intensity $a7
	note B_, 8
	octave 3
	note C_, 8
	octave 2
	note B_, 8
	octave 3
	note D_, 8
	octave 2
	note B_, 8
	octave 3
	note C_, 8
	note F_, 8
	note A_, 8
	note G_, 6
	note G_, 1
	note F#, 1
	note F_, 8
	note E_, 8
	intensity $a0
	note D_, 16
	intensity $a7
	note D_, 16
	intensity $a3
	octave 2
	note G_, 1
	note __, 3
	note G_, 1
	note __, 5
	note G_, 1
	note G_, 1
	note G_, 1
	note __, 3
	note G_, 1
	note __, 3
	note G_, 1
	note __, 3
	note_type 8, 11, 2
	note A_, 2
	note A_, 2
	note A_, 2
	note A_, 2
	note A_, 2
	note F#, 2
	note_type 12, 11, 7
	note G_, 1
	note __, 3
	octave 1
	note G_, 1
	note __, 11
	endchannel

Music_TitleScreen_branch_eb96d:
	note_type 12, 12, 3
	note D_, 1
Music_TitleScreen_branch_eb971:
	note __, 1
	octave 2
	note D_, 1
	octave 1
	note A_, 1
	octave 2
	note D_, 1
	loopchannel 5, Music_TitleScreen_branch_eb971
	note __, 1
	note D_, 1
	octave 1
	note A_, 1
	note_type 8, 11, 7
	endchannel

Music_TitleScreen_Ch2:
	dutycycle $3
	vibrato $14, $12
	note_type 12, 12, 7
	intensity $a4
	octave 1
	note G_, 1
	octave 2
	note D_, 1
	note G_, 1
	octave 3
	note C_, 1
	intensity $c2
	octave 3
	note B_, 1
	note __, 2
	note A_, 1
	intensity $b0
	note G_, 6
	intensity $b7
	note G_, 6
	note __, 16
	note __, 16
	intensity $c7
	octave 4
	note C_, 1
	note __, 2
	note D_, 1
	note E_, 8
	note F#, 2
	note E_, 1
	note F#, 1
	octave 3
	note G_, 6
	note B_, 2
	octave 4
	note D_, 8
	stereopanning $f0
	intensity $97
	octave 2
	note A_, 4
	note F_, 4
	stereopanning $ff
	intensity $c7
	octave 4
	note F_, 6
	note E_, 1
	note D#, 1
	note D_, 8
	stereopanning $f0
	intensity $97
	octave 2
	note A_, 6
	octave 3
	note C_, 2
	stereopanning $f
	intensity $a3
	octave 4
	note D_, 4
	note D_, 2
	note C_, 4
	note C_, 2
	octave 3
	note B_, 4
	stereopanning $ff
	intensity $c7
	octave 3
	note G_, 6
	note B_, 2
	octave 4
	note D_, 8
	stereopanning $f0
	intensity $97
	octave 2
	note A_, 2
	note F_, 4
	note A_, 2
	stereopanning $ff
	note_type 8, 12, 7
	octave 4
	note C_, 4
	octave 3
	note B_, 4
	octave 4
	note C_, 4
	note D_, 12
	stereopanning $f0
	note_type 8, 11, 7
	octave 2
	note A_, 9
	stereopanning $f
	note_type 12, 12, 7
	note G_, 1
	note A_, 1
	note B_, 6
	note E_, 1
	note F#, 1
	note G_, 4
	note_type 12, 4, -3
	note A_, 4
	stereopanning $ff
	note_type 12, 12, 7
	octave 3
	note G_, 6
	note B_, 2
	octave 4
	note D_, 8
	stereopanning $f0
	intensity $97
	octave 2
	note A_, 2
	note F_, 6
	stereopanning $ff
	intensity $c7
	octave 4
	note F_, 6
	note E_, 1
	note D#, 1
	note D_, 8
	stereopanning $f0
	intensity $97
	octave 3
	note C_, 2
	octave 2
	note A_, 6
	note B_, 6
	note G_, 2
	note_type 8, 12, 7
	note F_, 4
	note G_, 4
	note F_, 4
	stereopanning $ff
	octave 3
	note G_, 9
	note B_, 3
	octave 4
	note D_, 12
	stereopanning $f0
	note_type 8, 10, 7
	octave 3
	note D_, 4
	note C_, 4
	note D_, 4
	stereopanning $ff
	note_type 8, 12, 7
	octave 4
	note F_, 4
	note E_, 4
	note F_, 4
	note G_, 9
	note A#, 3
	note_type 12, 11, 0
	note G_, 8
	note_type 12, 11, 7
	note G_, 8
	intensity $c6
	note A_, 4
	intensity $5d
	note A_, 4
	intensity $c7
	note A#, 6
	intensity $c3
	note F_, 2
	intensity $c7
	note F_, 8
	intensity $a7
	octave 3
	note A#, 8
	intensity $c7
	octave 4
	note A#, 4
	note B_, 4
	octave 5
	note C_, 6
	intensity $c3
	octave 4
	note G_, 2
	intensity $c7
	note G_, 8
	intensity $a7
	octave 3
	note E_, 8
	intensity $c7
	octave 5
	note C_, 4
	note C#, 4
	tone $0001
	stereopanning $f
	callchannel Music_TitleScreen_branch_ebae7
	note C#, 4
	callchannel Music_TitleScreen_branch_ebae7
	note C#, 4
	callchannel Music_TitleScreen_branch_ebae7
	octave 4
	note A_, 4
	stereopanning $ff
	tone 0
	note_type 12, 11, 0
	octave 3
	note B_, 6
	note_type 12, 11, 7
	note B_, 10
	intensity $c7
	note A_, 8
	note F_, 6
	note E_, 1
	note D#, 1
	note D_, 8
	note G_, 8
	note F_, 8
	note A_, 8
	intensity $b0
	note G_, 8
	intensity $b7
	note G_, 8
	intensity $c7
	note F_, 8
	octave 4
	note F_, 6
	note E_, 1
	note D#, 1
	note D_, 8
	octave 2
	note B_, 8
	octave 3
	note C_, 8
	note A_, 6
	note F_, 1
	note A_, 1
	intensity $b0
	note G_, 16
	intensity $b7
	note G_, 16
	intensity $c2
	octave 4
	note G_, 1
	note __, 3
	note G_, 1
	note __, 5
	note G_, 1
	note G_, 1
	note G_, 1
	note __, 3
	note G_, 1
	note __, 3
	intensity $90
	note G_, 4
	note_type 8, 12, 2
	octave 3
	note F_, 2
	note F_, 2
	note F_, 2
	note F_, 2
	note F_, 2
	note F#, 2
	note_type 12, 12, 7
	note G_, 1
	note __, 3
	octave 2
	note G_, 1
	note __, 11
	endchannel

Music_TitleScreen_branch_ebae7:
	note_type 12, 11, 2
	note D_, 1
Music_TitleScreen_branch_ebaeb:
	octave 3
	note A_, 1
	octave 4
	note D_, 1
	note A_, 1
	note D_, 1
	loopchannel 5, Music_TitleScreen_branch_ebaeb
	octave 3
	note A_, 1
	octave 4
	note D_, 1
	note A_, 1
	note_type 8, 11, 7
	octave 5
	note C_, 4
	note C_, 4
	endchannel

Music_TitleScreen_Ch3:
	stereopanning $f
	vibrato $10, $14
	tone $0001
	note_type 12, 1, 6
	octave 3
	octave 3
	note __, 4
	octave 2
	note G_, 2
	note D_, 1
	note C#, 1
	note D_, 1
	note __, 1
	note G_, 2
	note D_, 1
	note __, 1
	note D_, 2
	note G_, 2
	note D_, 2
	note F_, 2
	note C_, 1
	octave 1
	note B_, 1
	octave 2
	note C_, 1
	note __, 1
	note F_, 2
	note C_, 1
	note __, 1
	note C_, 2
	note F_, 2
	note C_, 2
	note G_, 2
	note D_, 1
	note C#, 1
	note D_, 1
	note __, 1
	note G_, 2
	note D_, 1
	note __, 1
	note D_, 2
	note G_, 2
	note D_, 2
	note A_, 2
	note F_, 1
	note E_, 1
	note F_, 1
	note __, 1
	note A_, 2
	note F_, 2
	note A_, 4
	octave 3
	note C_, 2
	octave 2
	note G_, 4
	note D_, 2
	note G_, 4
	note D_, 2
	note G_, 2
	note D_, 2
	note A_, 4
	note F_, 2
	note A_, 4
	note F_, 2
	note A_, 2
	octave 3
	note C_, 2
	octave 2
	note B_, 4
	note G_, 2
	note B_, 4
	note G_, 2
	note B_, 2
	note G_, 2
	note G_, 4
	note B_, 2
	note A_, 4
	note B_, 2
	octave 3
	note C_, 4
	octave 2
	note G_, 4
	note D_, 2
	note G_, 4
	note D_, 2
	note G_, 2
	note D_, 2
	note A_, 4
	note F_, 2
	note A_, 4
	note F_, 2
	note A_, 2
	octave 3
	note C_, 2
	octave 2
	note B_, 4
	note G_, 2
	note B_, 4
	note G_, 2
	note B_, 2
	octave 3
	note C_, 2
	octave 2
	note B_, 4
	note G_, 2
	note B_, 4
	note G_, 2
	octave 3
	note D_, 4
	octave 2
	note G_, 4
	note D_, 2
	note G_, 4
	note D_, 2
	note G_, 2
	note D_, 2
	note A_, 4
	note F_, 2
	note A_, 4
	note F_, 2
	note A_, 2
	octave 3
	note C_, 2
	octave 2
	note B_, 4
	note G_, 2
	note B_, 4
	note G_, 2
	note B_, 2
	note G_, 2
	octave 3
	note D_, 4
	octave 2
	note G_, 2
	octave 3
	note D_, 4
	octave 2
	note G_, 2
	octave 3
	note D_, 2
	octave 2
	note A_, 2
	note G_, 4
	note D_, 2
	note G_, 4
	note D_, 2
	note G_, 2
	note D_, 2
	note A_, 4
	note F_, 2
	note A_, 4
	note F_, 2
	note A_, 2
	octave 3
	note C_, 2
	octave 2
	note B_, 4
	note G_, 2
	note B_, 4
	note G_, 2
	octave 3
	note D_, 2
	octave 2
	note G_, 2
	note G_, 2
	note D_, 2
	note G_, 2
	note A_, 2
	note A_, 2
	note F_, 2
	note A_, 2
	octave 3
	note C_, 2
	note D_, 6
	octave 2
	note A#, 6
	octave 3
	note F_, 4
	note A#, 6
	note F_, 6
	note D_, 4
	note E_, 6
	note C_, 6
	note E_, 4
	octave 4
	note C_, 6
	octave 3
	note G_, 6
	note E_, 4
	note D_, 1
	note __, 1
	stereopanning $ff
	note_type 12, 1, 6
	tone 0
	octave 4
	note A_, 2
	octave 5
	note D_, 2
	note A_, 6
	note G_, 2
	note F#, 2
	note D_, 1
	note __, 2
	note E_, 1
	note F#, 4
	note_type 8, 1, 6
	octave 3
	note C_, 4
	note C_, 4
	note C#, 4
	note_type 12, 1, 6
	note D_, 1
	note __, 1
	octave 4
	note A_, 2
	octave 5
	note D_, 2
	note A_, 6
	note G_, 2
	note F#, 2
	note B_, 1
	note __, 2
	note A_, 1
	note A_, 4
	note_type 8, 1, 6
	octave 3
	note C_, 4
	note C_, 4
	note C#, 4
	note_type 12, 1, 6
	note D_, 1
	note __, 1
	note_type 12, 1, 6
	octave 4
	note A_, 2
	octave 5
	note D_, 2
	note G_, 6
	note E_, 2
	note G_, 2
	note F#, 1
	note E_, 1
	note D_, 6
	tone $0001
	note_type 8, 1, 6
	octave 3
	note C_, 4
	note C_, 4
	note E_, 2
	note F#, 2
	stereopanning $f
	note_type 12, 1, 6
	note G_, 16
	note F_, 16
	note G_, 8
	note D_, 6
	note D_, 1
	note E_, 1
	note F_, 2
	note F_, 12
	note E_, 1
	note D#, 1
	note D_, 8
	note G_, 8
	note F_, 8
	note A_, 8
	note G_, 8
	note D_, 6
	note D_, 1
	note E_, 1
	note F_, 16
	note G_, 1
	note __, 3
	note G_, 1
	note __, 5
	note G_, 1
	note G_, 1
	note G_, 1
	note __, 3
	note G_, 1
	note __, 3
	note G_, 1
	note __, 5
	note G_, 1
	note G_, 1
	note G_, 1
	note __, 3
	octave 2
	note G_, 1
	note __, 3
	note G_, 1
	note __, 5
	note G_, 1
	note G_, 1
	note G_, 1
	note __, 3
	note G_, 1
	note __, 3
	note G_, 1
	note __, 3
	note_type 8, 1, 6
	note F_, 2
	note F_, 2
	note F_, 2
	note F_, 2
	note F_, 2
	note A_, 2
	note_type 12, 1, 6
	note G_, 1
	note __, 3
	octave 1
	note G_, 1
	note __, 11
	endchannel

Music_TitleScreen_Ch4:
	togglenoise $5
	stereopanning $f0
	note_type 12
	note __, 4
	note C_, 2
	note C_, 1
	note C_, 1
	note C_, 2
	note C_, 1
	note C_, 1
	note C_, 1
	note C_, 1
	note C_, 6
	note C_, 2
	note C_, 1
	note C_, 1
	note C_, 2
	note C_, 1
	note C_, 1
	note C_, 1
	note C_, 1
	note C_, 3
	note C_, 1
	note C_, 1
	note C_, 1
	note C_, 2
	note C_, 1
	note C_, 1
	note C_, 2
	note C_, 1
	note C_, 1
	note C_, 1
	note C_, 1
	note C_, 4
	note D#, 2
	note C_, 2
	note C_, 1
	note C_, 1
	note C_, 2
	note C_, 1
	note C_, 1
	note C_, 1
	note C_, 1
	note C_, 2
	note_type 6
	note D_, 1
	note D_, 1
	note C#, 1
	note C#, 1
	note C#, 1
	note C#, 1
	note C_, 1
	note C_, 1
	note_type 12
	callchannel Music_TitleScreen_branch_ebd77
	callchannel Music_TitleScreen_branch_ebd81
	callchannel Music_TitleScreen_branch_ebd81
	note C_, 2
	note D#, 2
	note C_, 2
	note D#, 2
	note D#, 2
	note C_, 1
	note C_, 1
	note C_, 2
	note_type 6
	note C#, 1
	note C#, 1
	note C_, 1
	note C_, 1
	note_type 12
	callchannel Music_TitleScreen_branch_ebd77
	note C_, 2
	note D#, 2
	note C_, 2
	note F_, 2
	note D#, 2
	note C_, 1
	note C_, 1
	note C_, 2
	note C_, 2
	callchannel Music_TitleScreen_branch_ebd81
	note C_, 2
	note D#, 2
	note C_, 2
	note D#, 2
	note D#, 2
	note C_, 1
	note C_, 1
	note C_, 2
	note C_, 1
	note C_, 1
	callchannel Music_TitleScreen_branch_ebd77
	callchannel Music_TitleScreen_branch_ebd81
	callchannel Music_TitleScreen_branch_ebd81
	note C_, 2
	note D#, 2
	note C_, 2
	note D#, 2
	note D#, 2
	note C_, 1
	note C_, 1
	note C_, 2
	note_type 6
	note C#, 1
	note D_, 1
	note D_, 1
	note C#, 1
	note_type 12
	callchannel Music_TitleScreen_branch_ebd77
	callchannel Music_TitleScreen_branch_ebd81
	note C_, 2
	note D#, 2
	note C_, 2
	note F_, 2
	note D#, 2
	note C_, 1
	note C_, 1
	note C_, 2
	note C_, 1
	note C_, 1
	note C_, 2
	note D#, 2
	note C_, 2
	note D#, 2
	note D#, 2
	note C_, 1
	note C_, 1
	note C_, 2
	note_type 6
	note D_, 1
	note D_, 1
	note C#, 1
	note C#, 1
	note_type 12
	note A_, 2
	note D#, 4
	note A_, 4
	note D#, 2
	note A_, 4
	note A_, 2
	note D#, 4
	note A_, 4
	note D#, 2
	note A_, 2
	note A_, 2
	note A_, 2
	note D#, 4
	note A_, 4
	note D#, 2
	note A_, 4
	note A_, 4
	note A_, 4
	note A_, 2
	note D_, 1
	note D_, 1
	note C#, 1
	note C#, 1
	note C_, 1
	note C_, 1
	callchannel Music_TitleScreen_branch_ebd8b
	callchannel Music_TitleScreen_branch_ebd93
	note C#, 1
	note D_, 1
	note D_, 1
	note C#, 1
	note_type 12
	callchannel Music_TitleScreen_branch_ebd8b
	callchannel Music_TitleScreen_branch_ebd93
	note D_, 1
	note D_, 1
	note C#, 1
	note C#, 1
	note_type 12
	callchannel Music_TitleScreen_branch_ebd8b
	callchannel Music_TitleScreen_branch_ebd93
	note C#, 1
	note C#, 1
	note C#, 1
	note C#, 1
	note_type 12
	note G#, 16
Music_TitleScreen_branch_ebd40:
	note __, 16
	loopchannel 6, Music_TitleScreen_branch_ebd40
	note __, 12
	note_type 6
	note D_, 1
	note C#, 1
	note D_, 1
	note C#, 1
	note D_, 1
	note C#, 1
	note C_, 1
	note C_, 1
	note_type 12
	note C_, 4
	note C_, 6
	note C_, 1
	note C_, 1
	note C_, 4
	note C_, 4
	note C_, 6
	note C_, 1
	note C_, 1
	note C_, 4
	note C_, 4
	note C_, 6
	note C_, 1
	note C_, 1
	note C_, 4
	note C_, 4
	note C_, 4
	note_type 8
	note C_, 2
	note C_, 2
	note C_, 2
	note_type 6
	note C#, 1
	note C#, 1
	note D_, 1
	note D_, 1
	note C#, 1
	note C#, 1
	note C_, 1
	note C_, 1
	note_type 12
	note C_, 4
	note B_, 4
	endchannel

Music_TitleScreen_branch_ebd77:
	note C_, 2
	note D#, 2
	note C_, 2
	note D#, 2
	note F_, 2
	note C_, 1
	note C_, 1
	note C_, 2
	note D#, 2
	endchannel

Music_TitleScreen_branch_ebd81:
	note C_, 2
	note D#, 2
	note C_, 2
	note F_, 2
	note D#, 2
	note C_, 1
	note C_, 1
	note C_, 2
	note D#, 2
	endchannel

Music_TitleScreen_branch_ebd8b:
	note C_, 2
	note C_, 1
	note C_, 1
	loopchannel 4, Music_TitleScreen_branch_ebd8b
	endchannel

Music_TitleScreen_branch_ebd93:
	note C_, 2
	note C_, 1
	note C_, 1
	note C_, 2
	note C_, 1
	note C_, 1
	note_type 8
	note C_, 4
	note C_, 4
	endchannel
