; Pokémon Prism - Battle! Gym Leader
; Composed by GRonnoc
; Revised by FroggestSpirit

Music_GymLeaderBattlePrism:
	channel_count 3
	channel 1, Music_GymLeaderBattlePrism_Ch1
	channel 2, Music_GymLeaderBattlePrism_Ch2
	channel 3, Music_GymLeaderBattlePrism_Ch3

Music_GymLeaderBattlePrism_Ch1:
	tempo 101
	volume 7, 7
	note_type 12, 11, 2
	duty_cycle 3
	pitch_offset 2
	vibrato 18, 1, 5
	octave 2
	note D_, 1
	note C#, 1
	note D_, 1
	note D#, 1
	note E_, 1
	note D#, 1
	note E_, 1
	note F_, 1
	note F#, 1
	note F_, 1
	note F#, 1
	note G_, 1
	note G#, 1
	note G_, 1
	note G#, 1
	note A_, 1
	note A#, 1
	note A_, 1
	note A#, 1
	note B_, 1
	octave 3
	note C_, 1
	octave 2
	note B_, 1
	octave 3
	note C_, 1
	note C#, 1
	note D_, 1
	note C#, 1
	note D_, 1
	note D#, 1
	note E_, 1
	note D#, 1
	note E_, 1
	note F_, 1
	volume_envelope 11, 4
	note A_, 6
	volume_envelope 11, 2
	note A_, 6
	volume_envelope 11, 4
	note A_, 6
	volume_envelope 11, 2
	note A_, 6
	volume_envelope 11, 4
	note G_, 4
	note A#, 4
	note A_, 6
	volume_envelope 11, 2
	note A_, 6
	volume_envelope 11, 4
	note A_, 6
	volume_envelope 11, 2
	note A_, 6
	volume_envelope 11, 4
	note G_, 4
	volume_envelope 11, 2
	note A#, 2
	octave 4
	note A_, 1
	octave 5
	note C_, 1
	volume_envelope 11, 4
	note D_, 6
	volume_envelope 11, 2
	note D_, 6
	volume_envelope 11, 4
	note D_, 6
	volume_envelope 11, 2
	note D_, 6
	volume_envelope 11, 4
	note C_, 4
	note D#, 4
	note D_, 6
	volume_envelope 11, 2
	note D_, 6
	volume_envelope 11, 4
	note D_, 6
	volume_envelope 11, 2
	note D_, 6
	volume_envelope 11, 4
	note D#, 4
	note F_, 4
Music_GymLeaderBattlePrism_Loop1:
	volume_envelope 11, 2
	octave 3
	note F_, 2
	note D_, 2
	note F_, 2
	note A_, 4
	note F_, 2
	note D_, 2
	note D#, 2
	note F_, 2
	note D_, 2
	note F_, 2
	note A_, 2
	octave 4
	note D_, 2
	octave 3
	note A_, 2
	octave 4
	note D_, 2
	note A_, 2
	octave 5
	note D_, 6
	octave 3
	note D_, 6
	note D_, 6
	note D_, 6
	note C_, 4
	note D#, 4
	note F_, 2
	note D_, 2
	note F_, 2
	note A_, 4
	note D#, 2
	note C_, 2
	note D#, 2
	octave 4
	note D_, 4
	octave 3
	note A_, 2
	octave 4
	note D_, 4
	octave 3
	note A_, 2
	octave 4
	note D_, 2
	note D#, 2
	volume_envelope 11, 7
	note F_, 16
	rest 12
	volume_envelope 11, 4
	note C_, 4
	octave 3
	note A#, 6
	note F_, 6
	note D_, 2
	note E_, 2
	note F_, 6
	note A#, 6
	note A#, 2
	octave 4
	note D_, 2
	note F_, 8
	note C_, 8
	note F_, 6
	note C_, 6
	note F_, 4
	volume_envelope 11, 7
	octave 3
	note A#, 16
	note F_, 16
	octave 4
	note C_, 16
	octave 3
	note E_, 15
	octave 5
	note C_, 1
	note D_, 6
	volume_envelope 11, 2
	octave 3
	note D_, 6
	volume_envelope 11, 4
	note D_, 6
	volume_envelope 11, 2
	note D_, 6
	volume_envelope 11, 4
	note C_, 4
	note D#, 4
	octave 4
	note D_, 6
	volume_envelope 11, 2
	octave 3
	note A_, 6
	volume_envelope 11, 4
	note A_, 6
	volume_envelope 11, 2
	note A_, 6
	note G_, 2
	note F_, 2
	note E_, 2
	note C_, 2
	volume_envelope 11, 7
	note D_, 16
	note C_, 16
	octave 2
	note F_, 16
	note E_, 16
	note F_, 16
	rest 16
	note F_, 16
	note E_, 14
	volume_envelope 11, 2
	duty_cycle 2
	octave 3
	note A_, 1
	octave 4
	note C_, 1
	note D_, 2
	note C_, 2
	octave 3
	note A_, 2
	octave 4
	note D_, 4
	note E_, 2
	note F_, 2
	note D_, 2
	note G_, 2
	note F_, 2
	note G_, 2
	note A_, 4
	note A#, 2
	note A_, 2
	note A#, 2
	volume_envelope 11, 7
	octave 5
	note C_, 16
	rest 16
	volume_envelope 11, 4
	octave 3
	note A_, 8
	note G_, 8
	note F_, 8
	note E_, 8
	note C_, 8
	note D_, 8
	note E_, 8
	note G_, 8
	note A_, 2
	note G_, 2
	note F_, 2
	note G_, 2
	note A_, 4
	note F_, 2
	note G_, 2
	note A_, 4
	note F_, 4
	note D_, 4
	note A_, 4
	note A#, 2
	note A_, 2
	note G_, 2
	note A_, 2
	note A#, 4
	note G_, 2
	note A_, 2
	note A#, 4
	note F_, 4
	note D_, 4
	note A#, 4
	note A_, 2
	note G_, 2
	note F_, 2
	note G_, 2
	note A_, 2
	note G_, 2
	note F_, 2
	note E_, 2
	note D_, 4
	note A_, 4
	octave 4
	note D_, 4
	note E_, 4
	volume_envelope 11, 7
	note F_, 16
	note E_, 12
	volume_envelope 11, 2
	duty_cycle 3
	note F_, 2
	note E_, 2
	sound_jump Music_GymLeaderBattlePrism_Loop1

Music_GymLeaderBattlePrism_Ch2:
	note_type 12, 12, 2
	duty_cycle 3
	vibrato 8, 3, 6
	pitch_offset 1
	octave 5
	note D_, 1
	note C#, 1
	note C_, 1
	octave 4
	note B_, 1
	octave 5
	note D_, 1
	note C#, 1
	note C_, 1
	octave 4
	note B_, 1
	octave 5
	note D_, 1
	note C#, 1
	note C_, 1
	octave 4
	note B_, 1
	octave 5
	note D_, 1
	note C#, 1
	note C_, 1
	octave 4
	note B_, 1
	octave 5
	note D_, 1
	note C#, 1
	note C_, 1
	octave 4
	note B_, 1
	octave 5
	note D_, 1
	note C#, 1
	note C_, 1
	octave 4
	note B_, 1
	octave 5
	note D_, 1
	note C#, 1
	note C_, 1
	octave 4
	note B_, 1
	octave 5
	note D_, 1
	note C#, 1
	note C_, 1
	octave 4
	note B_, 1
	note D_, 6
	note D_, 6
	note D_, 6
	note D_, 6
	note C_, 4
	note D#, 4
	note D_, 6
	note D_, 6
	note D_, 6
	note D_, 6
	note D#, 4
	note C_, 4
	note A_, 6
	note A_, 6
	note A_, 6
	note A_, 6
	note G_, 4
	note A#, 4
	note A_, 6
	note A_, 6
	note A_, 6
	note A_, 6
	note G_, 4
	note A#, 2
	octave 3
	note A_, 1
	octave 4
	note C_, 1
Music_GymLeaderBattlePrism_Loop2:
	volume_envelope 12, 7
	note D_, 6
	note D#, 6
	note F_, 4
	note G_, 6
	note A_, 6
	note D#, 4
	note D_, 16
	rest 14
	octave 3
	note A_, 1
	octave 4
	note C_, 1
	note D_, 6
	note D#, 6
	note F_, 4
	note G_, 6
	note A_, 6
	note A#, 4
	note A_, 16
	rest 12
	note F_, 2
	note E_, 2
	note D_, 6
	octave 3
	note A#, 6
	note F_, 4
	note A#, 6
	octave 4
	note D_, 6
	note F_, 2
	note G_, 2
	note A_, 4
	note G_, 4
	note F_, 4
	note G_, 4
	note A_, 6
	note G_, 6
	note F_, 4
	note D_, 16
	rest 14
	note E_, 1
	note F_, 1
	note E_, 16
	rest 12
	note F_, 2
	note E_, 2
	volume_envelope 12, 3
	note D_, 6
	octave 3
	note A_, 6
	note A_, 6
	note A_, 6
	note A#, 2
	note A_, 2
	note G_, 2
	note A#, 2
	octave 5
	note D_, 6
	octave 3
	note D_, 6
	note D_, 6
	note D_, 6
	note D#, 4
	note C_, 4
	volume_envelope 12, 7
	octave 2
	note A_, 16
	note G_, 16
	note A#, 16
	note A_, 12
	note F_, 2
	note G_, 2
	note A_, 16
	rest 16
	note A_, 16
	rest 16
	octave 3
	note A_, 8
	note G_, 8
	note F_, 8
	note E_, 8
	note C_, 16
	rest 4
	volume_envelope 12, 3
	note D_, 4
	note E_, 4
	note G_, 4
	note A_, 2
	note F_, 2
	note D_, 2
	note A_, 4
	note F_, 2
	note D_, 2
	note A_, 2
	note A#, 2
	note F_, 2
	note D_, 2
	note A#, 4
	note F_, 2
	note D_, 2
	note A#, 2
	octave 4
	note C_, 2
	octave 3
	note G_, 2
	note E_, 2
	octave 4
	note C_, 4
	octave 3
	note G_, 2
	octave 4
	note C_, 2
	note D_, 2
	volume_envelope 12, 7
	note E_, 16
	note D_, 16
	note D_, 12
	note D_, 2
	note E_, 2
	note F_, 16
	note F_, 12
	note F_, 2
	note G_, 2
	note A_, 16
	note A_, 12
	note A_, 2
	note A#, 2
	note A_, 16
	note G_, 16
	sound_jump Music_GymLeaderBattlePrism_Loop2

Music_GymLeaderBattlePrism_Ch3:
	note_type 4, 1, 9
	octave 3
	note D_, 11
	rest 1
	note D_, 3
	rest 1
	note D_, 3
	rest 1
	note D_, 3
	rest 1
	note D_, 11
	rest 1
	note D_, 3
	rest 1
	note D_, 3
	rest 1
	note D_, 3
	rest 1
	note_type 12, 1, 9
	note D_, 8
	note D#, 8
	note D_, 2
	note A_, 2
	note D_, 2
	note A_, 2
	note D_, 2
	note A_, 2
	note D_, 2
	note A_, 2
	note D_, 2
	note A_, 2
	note D_, 2
	note A_, 2
	note D_, 2
	note F_, 2
	note A_, 2
	note F_, 2
	note D_, 2
	note A_, 2
	note D_, 2
	note A_, 2
	note D_, 2
	note A_, 2
	note D_, 2
	note A_, 2
	note D_, 2
	note A_, 2
	note A_, 2
	note D_, 2
	note D_, 2
	octave 4
	note D_, 2
	octave 3
	note A_, 2
	note F_, 2
	note D_, 2
	note A_, 2
	note D_, 2
	note A_, 2
	note D_, 2
	note A_, 2
	note D_, 2
	note A_, 2
	note D_, 2
	note A_, 2
	note D_, 2
	note A_, 2
	note D_, 2
	note F_, 2
	note A_, 2
	note F_, 2
	note D_, 2
	note A_, 2
	note D_, 2
	note A_, 2
	note D_, 2
	note A_, 2
	note D_, 2
	note A_, 2
	note D_, 2
	note A_, 2
	note A_, 2
	note D_, 2
	note D_, 2
	octave 4
	note D_, 2
	octave 3
	note A_, 2
	note F_, 2
Music_GymLeaderBattlePrism_Loop3:
	note D_, 2
	note A_, 2
	note D_, 2
	note A_, 2
	note D_, 2
	note A_, 2
	note D_, 2
	note A_, 2
	note D_, 2
	note A_, 2
	note D_, 2
	note A_, 2
	note D_, 2
	note F_, 2
	note A_, 2
	note F_, 2
	note D_, 2
	note A_, 2
	note D_, 2
	note A_, 2
	note D_, 2
	note A_, 2
	note D_, 2
	note A_, 2
	note D_, 2
	note A_, 2
	note A_, 2
	note D_, 2
	note D_, 2
	octave 4
	note D_, 2
	octave 3
	note A_, 2
	note F_, 2
	note D_, 2
	note A_, 2
	note D_, 2
	note A_, 2
	note D_, 2
	note A_, 2
	note D_, 2
	note A_, 2
	note D_, 2
	note A_, 2
	note D_, 2
	note A_, 2
	note D_, 2
	note F_, 2
	note A_, 2
	note F_, 2
	note D_, 2
	note A_, 2
	note D_, 2
	note A_, 2
	note D_, 2
	note A_, 2
	note D_, 2
	note A_, 2
	note D_, 2
	note A_, 2
	note D_, 2
	note A_, 2
	note D_, 2
	note A_, 2
	note C_, 2
	note G_, 2
	octave 2
	note A#, 2
	octave 3
	note F_, 2
	octave 2
	note A#, 2
	octave 3
	note F_, 2
	octave 2
	note A#, 2
	octave 3
	note F_, 2
	octave 2
	note A#, 2
	octave 3
	note F_, 2
	octave 2
	note A#, 2
	octave 3
	note F_, 2
	octave 2
	note A#, 2
	octave 3
	note F_, 2
	octave 2
	note A#, 2
	octave 3
	note F_, 2
	octave 2
	note A#, 2
	octave 3
	note F_, 2
	note C_, 2
	note F_, 2
	note C_, 2
	note F_, 2
	note C_, 2
	note F_, 2
	note C_, 2
	note F_, 2
	note C_, 2
	note F_, 2
	note C_, 2
	note F_, 2
	note C_, 2
	note F_, 2
	note C_, 2
	note F_, 2
	octave 2
	note A#, 2
	octave 3
	note F_, 2
	octave 2
	note A#, 2
	octave 3
	note F_, 2
	octave 2
	note A#, 2
	octave 3
	note F_, 2
	octave 2
	note A#, 2
	octave 3
	note F_, 2
	octave 2
	note A#, 2
	octave 3
	note F_, 2
	octave 2
	note A#, 2
	octave 3
	note F_, 2
	octave 2
	note A#, 2
	octave 3
	note F_, 2
	octave 2
	note B_, 2
	octave 3
	note F_, 2
	note C_, 2
	note G_, 2
	note C_, 2
	note G_, 2
	note C_, 2
	note G_, 2
	note C_, 2
	note G_, 2
	note C_, 2
	note G_, 2
	note C_, 2
	note C_, 2
	note G_, 2
	note F_, 2
	note E_, 2
	note G_, 2
	octave 1
	note A_, 2
	octave 2
	note D_, 2
	octave 1
	note A_, 2
	octave 2
	note D_, 2
	octave 1
	note A_, 2
	octave 2
	note D_, 2
	octave 1
	note A_, 2
	octave 2
	note D_, 2
	octave 1
	note A_, 2
	octave 2
	note D_, 2
	octave 1
	note A_, 2
	octave 2
	note D_, 2
	octave 1
	note A_, 2
	octave 2
	note D_, 2
	octave 1
	note A_, 2
	octave 2
	note D_, 2
	octave 1
	note A_, 2
	octave 2
	note D_, 2
	octave 1
	note A_, 2
	octave 2
	note D_, 2
	octave 1
	note A_, 2
	octave 2
	note D_, 2
	octave 1
	note A_, 2
	octave 2
	note D_, 2
	octave 1
	note A_, 2
	octave 2
	note D_, 2
	octave 1
	note A_, 2
	octave 2
	note D_, 2
	octave 1
	note A_, 2
	octave 2
	note D_, 2
	octave 1
	note A_, 2
	octave 2
	note D_, 2
	octave 1
	note A_, 2
	octave 2
	note D_, 2
	octave 1
	note A_, 2
	octave 2
	note D_, 2
	octave 1
	note A_, 2
	octave 2
	note D_, 2
	octave 1
	note A_, 2
	octave 2
	note D_, 2
	octave 1
	note G_, 2
	octave 2
	note C_, 2
	octave 1
	note G_, 2
	octave 2
	note C_, 2
	octave 1
	note G_, 2
	octave 2
	note C_, 2
	octave 1
	note G_, 2
	octave 2
	note C_, 2
	octave 1
	note F_, 2
	note A#, 2
	note F_, 2
	note A#, 2
	note F_, 2
	note A#, 2
	note F_, 2
	note A#, 2
	note E_, 2
	note A_, 2
	note E_, 2
	note A_, 2
	note E_, 2
	note A_, 2
	note E_, 2
	note A_, 2
	note A_, 2
	octave 2
	note D_, 2
	octave 1
	note A_, 2
	octave 2
	note D_, 2
	octave 1
	note A_, 2
	octave 2
	note D_, 2
	octave 1
	note A_, 2
	octave 2
	note D_, 2
	octave 1
	note A_, 2
	octave 2
	note D_, 2
	octave 1
	note A_, 2
	octave 2
	note D_, 2
	octave 1
	note A_, 2
	octave 2
	note D_, 2
	octave 1
	note A_, 2
	octave 2
	note D_, 2
	octave 1
	note A_, 2
	octave 2
	note D_, 2
	octave 1
	note A_, 2
	octave 2
	note D_, 2
	note D_, 2
	note A_, 2
	note D_, 2
	note A_, 2
	note A_, 2
	octave 3
	note D_, 2
	octave 2
	note A_, 2
	octave 3
	note D_, 2
	octave 2
	note A_, 2
	note D_, 2
	octave 1
	note A_, 2
	octave 2
	note D_, 2
	octave 3
	note D_, 2
	note A_, 2
	note D_, 2
	note A_, 2
	note D_, 2
	note A_, 2
	note D_, 2
	note A_, 2
	note D_, 2
	note A_, 2
	note D_, 2
	note A_, 2
	note D_, 2
	note A_, 2
	note D_, 2
	note A_, 2
	note C_, 2
	note G_, 2
	note C_, 2
	note G_, 2
	note C_, 2
	note G_, 2
	note C_, 2
	note G_, 2
	note C_, 2
	note G_, 2
	note C_, 2
	note G_, 2
	note C_, 2
	note G_, 2
	note C_, 2
	note G_, 2
	note D_, 2
	note A_, 2
	note D_, 2
	note A_, 2
	note D_, 2
	note A_, 2
	note D_, 2
	note A_, 2
	octave 2
	note A#, 2
	octave 3
	note F_, 2
	octave 2
	note A#, 2
	octave 3
	note F_, 2
	octave 2
	note A#, 2
	octave 3
	note F_, 2
	octave 2
	note A#, 2
	octave 3
	note F_, 2
	note C_, 2
	note G_, 2
	note C_, 2
	note G_, 2
	note C_, 2
	note G_, 2
	note C_, 2
	note G_, 2
	note C_, 2
	note G_, 2
	note C_, 2
	note G_, 2
	note C_, 2
	note G_, 2
	note C_, 2
	note G_, 2
	note D_, 2
	note A_, 2
	note D_, 2
	note A_, 2
	note D_, 2
	note A_, 2
	note D_, 2
	note A_, 2
	note D_, 2
	note A_, 2
	note D_, 2
	note D_, 2
	note A_, 2
	note G_, 2
	note F_, 2
	note A_, 2
	octave 2
	note A#, 2
	octave 3
	note F_, 2
	octave 2
	note A#, 2
	octave 3
	note F_, 2
	octave 2
	note A#, 2
	octave 3
	note F_, 2
	octave 2
	note A#, 2
	octave 3
	note F_, 2
	octave 2
	note A#, 2
	octave 3
	note F_, 2
	octave 2
	note A#, 2
	note A#, 2
	octave 3
	note F_, 2
	note E_, 2
	note D_, 2
	note F_, 2
	note D_, 2
	note A_, 2
	note D_, 2
	note A_, 2
	note D_, 2
	note A_, 2
	note D_, 2
	note A_, 2
	note D_, 2
	note A_, 2
	note D_, 2
	note D_, 2
	note A_, 2
	note G_, 2
	note F_, 2
	note G_, 2
	note C_, 2
	note F_, 2
	note C_, 2
	note F_, 2
	note C_, 2
	note F_, 2
	note C_, 2
	note F_, 2
	note C_, 2
	note G_, 2
	note C_, 2
	note G_, 2
	note C_, 2
	note G_, 2
	note C_, 2
	note G_, 2
	sound_jump Music_GymLeaderBattlePrism_Loop3
