; Pokémon Prism - Battle! Palette Ranger
; Composed by Cat333Pokemon
; Revised by NotFroggestSpirit

Music_PaletteBattlePrism:
	channel_count 3
	channel 1, Music_PaletteBattlePrism_Ch1
	channel 2, Music_PaletteBattlePrism_Ch2
	channel 3, Music_PaletteBattlePrism_Ch3

Music_PaletteBattlePrism_Ch1:
	tempo 96
	volume 7, 7
	duty_cycle 3
	pitch_offset 2
	vibrato 16, 1, 2
	note_type 12, 11, 2
	octave 1
	note G_, 1
	note G#, 1
	note A_, 1
	note A#, 1
	note A_, 1
	note A#, 1
	note B_, 1
	octave 2
	note C_, 1
	octave 1
	note B_, 1
	octave 2
	note C_, 1
	note C#, 1
	note D_, 1
	note C#, 1
	note D_, 1
	note D#, 1
	note E_, 1
	note D#, 1
	note E_, 1
	note F_, 1
	note F#, 1
	note F_, 1
	note F#, 1
	note G_, 1
	note G#, 1
	note G_, 1
	note G#, 1
	note A_, 1
	note A#, 1
	note A_, 1
	note A#, 1
	note B_, 1
	octave 3
	note C_, 1

Music_PaletteBattlePrism_branch_1edc47:
	note E_, 4
	octave 2
	note G_, 2
	note B_, 2
	octave 3
	note C_, 2
	octave 2
	note G_, 2
	note E_, 2
	note B_, 2
	note G_, 4
	octave 3
	note D_, 2
	note C_, 2
	octave 2
	note B_, 2
	octave 3
	note E_, 2
	octave 2
	note F_, 2
	note G_, 2
	note D_, 4
	octave 1
	note B_, 4
	octave 2
	note G_, 4
	note D_, 4
	octave 1
	note G_, 4
	note D_, 4
	note B_, 4
	note G_, 4
	octave 2
	note G_, 4
	octave 3
	note E_, 2
	note D_, 2
	note C_, 2
	octave 2
	note B_, 2
	octave 3
	note C_, 2
	octave 2
	note G_, 2
	note B_, 4
	octave 3
	note C_, 2
	note D_, 2
	note E_, 2
	note G_, 2
	note G_, 2
	note F_, 2
	note D_, 4
	octave 2
	note B_, 4
	octave 3
	note G_, 4
	note D_, 4
	octave 2
	note B_, 4
	note G_, 4
	octave 3
	note D_, 4
	octave 2
	note G_, 2
	note G_, 2
	octave 3
	note C_, 4
	note D_, 2
	note C_, 2
	octave 2
	note B_, 2
	note G_, 2
	octave 3
	note D_, 2
	note C_, 2
	octave 2
	note B_, 4
	octave 3
	note C_, 2
	octave 2
	note G_, 2
	note G_, 2
	note B_, 2
	octave 3
	note C_, 2
	note D_, 2
	note D_, 4
	octave 2
	note B_, 4
	octave 3
	note G_, 4
	note D_, 4
	octave 2
	note B_, 4
	note G_, 4
	octave 3
	note D_, 4
	octave 2
	note B_, 4
	octave 3
	note G_, 4
	note G_, 2
	note F_, 2
	note E_, 2
	octave 2
	note G_, 2
	note G_, 2
	note B_, 2
	octave 3
	note C_, 4
	note D_, 2
	note C_, 2
	octave 2
	note B_, 2
	octave 3
	note C_, 2
	octave 2
	note B_, 2
	note G_, 2
	octave 2
	note G_, 4
	note E_, 4
	note C_, 4
	octave 1
	note G_, 4
	octave 2
	note C_, 4
	octave 1
	note G_, 4
	note E_, 4
	note C_, 4
	rest 16
	rest 16
	rest 16
	rest 16
	octave 3
	note G#, 2
	note G#, 2
	note C#, 2
	note G#, 2
	note G#, 2
	note C#, 2
	note G#, 2
	note C#, 2
	note G#, 2
	note G#, 2
	note C#, 2
	note G#, 2
	note G#, 2
	note C#, 2
	note G#, 2
	note C#, 2
	octave 3
	note D#, 2
	note D#, 2
	octave 2
	note G#, 2
	octave 3
	note D#, 2
	note D#, 2
	octave 2
	note G#, 2
	octave 3
	note D#, 2
	octave 2
	note G#, 2
	octave 3
	note D#, 2
	note D#, 2
	octave 2
	note G#, 2
	octave 3
	note D#, 2
	note D#, 2
	octave 2
	note G#, 2
	octave 3
	note D#, 2
	octave 2
	note G#, 2
	octave 3
	note F_, 2
	note F_, 2
	octave 2
	note A#, 2
	octave 3
	note F_, 2
	note F_, 2
	octave 2
	note A#, 2
	octave 3
	note F_, 2
	octave 2
	note A#, 2
	octave 3
	note F#, 2
	note F#, 2
	note C_, 2
	note F#, 2
	note F#, 2
	note C_, 2
	note F#, 2
	note C_, 2
	note G#, 2
	note G#, 2
	note C#, 2
	note G#, 2
	note G#, 2
	note C#, 2
	note G#, 2
	note C#, 2
	note D#, 2
	note D#, 2
	octave 2
	note A#, 2
	octave 3
	note D#, 2
	note D#, 2
	octave 2
	note A#, 2
	octave 3
	note D#, 2
	octave 2
	note A#, 2
	volume_envelope 11, 8
	note G_, 16
	note G_, 16
	note D_, 16
	note D_, 16
	note G_, 16
	note G_, 16
	note D_, 16
	note D_, 16
	volume_envelope 11, 2
	octave 3
	sound_jump Music_PaletteBattlePrism_branch_1edc47

Music_PaletteBattlePrism_Ch2:
	duty_cycle 3
	pitch_offset 1
	vibrato 8, 3, 6
	note_type 12, 12, 2
	octave 5
	note C#, 1
	note C_, 1
	octave 4
	note A#, 1
	note A_, 1
	note A#, 1
	note A#, 1
	note G#, 1
	note G_, 1
	note G#, 1
	note G_, 1
	note F#, 1
	note F_, 1
	note F#, 1
	note F_, 1
	note E_, 1
	note D#, 1
	note E_, 1
	note D#, 1
	note D_, 1
	note C#, 1
	note D_, 1
	note C#, 1
	note C_, 1
	octave 3
	note B_, 1
	octave 4
	note C_, 1
	octave 3
	note B_, 1
	note A#, 1
	note A_, 1
	note A#, 1
	note A_, 1
	note G#, 1
	note G_, 1

Music_PaletteBattlePrism_branch_1edb37:
	note G_, 4
	note C_, 2
	note D_, 2
	note E_, 2
	note C_, 2
	octave 2
	note G_, 2
	octave 3
	note D_, 2
	note C_, 4
	note F_, 2
	note E_, 2
	note D_, 2
	note G_, 2
	octave 2
	note A_, 2
	note B_, 2
	volume_envelope 12, 7
	note G_, 16
	rest 16
	octave 3
	volume_envelope 12, 2
	note C_, 4
	note G_, 2
	note F_, 2
	note E_, 2
	note D_, 2
	note E_, 2
	note D_, 2
	note D_, 4
	note E_, 2
	note F_, 2
	note G_, 2
	octave 4
	note C_, 2
	octave 3
	note B_, 2
	note A_, 2
	volume_envelope 12, 7
	note G_, 16
	rest 12
	volume_envelope 12, 2
	note D_, 2
	note D_, 2
	note E_, 4
	note F_, 2
	note E_, 2
	note D_, 2
	note C_, 2
	note F_, 2
	note E_, 2
	note D_, 4
	note E_, 2
	note C_, 2
	octave 2
	note B_, 2
	octave 3
	note D_, 2
	note E_, 2
	note F_, 2
	volume_envelope 12, 7
	note G_, 16
	rest 16
	octave 4
	volume_envelope 12, 2
	note C_, 4
	octave 3
	note B_, 2
	note A_, 2
	note G_, 2
	octave 2
	note B_, 2
	octave 3
	note C_, 2
	note D_, 2
	note E_, 4
	note F_, 2
	note E_, 2
	note D_, 2
	note E_, 2
	note D_, 2
	octave 2
	note B_, 2
	octave 3
	volume_envelope 12, 7
	note C_, 16
	rest 16

Music_PaletteBattlePrism_branch_1edb87:
	octave 4
	volume_envelope 12, 2
	note C#, 2
	note C#, 2
	octave 3
	note G#, 2
	octave 4
	note C#, 2
	note C#, 2
	octave 3
	note G#, 2
	octave 4
	note C#, 2
	octave 3
	note G#, 2
	sound_loop 2, Music_PaletteBattlePrism_branch_1edb87

Music_PaletteBattlePrism_branch_1edb99:
	note G#, 2
	note G#, 2
	note D#, 2
	note G#, 2
	note G#, 2
	note D#, 2
	note G#, 2
	note D#, 2
	sound_loop 2, Music_PaletteBattlePrism_branch_1edb99

Music_PaletteBattlePrism_branch_1edba5:
	octave 4
	note C#, 2
	note C#, 2
	octave 3
	note G#, 2
	octave 4
	note C#, 2
	note C#, 2
	octave 3
	note G#, 2
	octave 4
	note C#, 2
	octave 3
	note G#, 2
	sound_loop 2, Music_PaletteBattlePrism_branch_1edba5

Music_PaletteBattlePrism_branch_1edbb7:
	note G#, 2
	note G#, 2
	note D#, 2
	note G#, 2
	note G#, 2
	note D#, 2
	note G#, 2
	note D#, 2
	sound_loop 2, Music_PaletteBattlePrism_branch_1edbb7
	note A#, 2
	note A#, 2
	note F_, 2
	note A#, 2
	note A#, 2
	note F_, 2
	note A#, 2
	note F_, 2
	note B_, 2
	note B_, 2
	note F#, 2
	note B_, 2
	note B_, 2
	note F#, 2
	note B_, 2
	note F#, 2
	octave 4
	note C#, 2
	note C#, 2
	octave 3
	note G#, 2
	octave 4
	note C#, 2
	note C#, 2
	octave 3
	note G#, 2
	octave 4
	note C#, 2
	octave 3
	note G#, 2
	octave 4
	note D#, 2
	note D#, 2
	octave 3
	note A#, 2
	octave 4
	note D#, 2
	note D#, 2
	octave 3
	note A#, 2
	octave 4
	note D#, 2
	octave 3
	note A#, 2

Music_PaletteBattlePrism_branch_1edbef:
	octave 3
	volume_envelope 12, 8
	note C_, 16
	note C_, 16
	octave 2
	note G_, 16
	note G_, 16
	sound_loop 2, Music_PaletteBattlePrism_branch_1edbef
	volume_envelope 12, 2
	octave 3
	sound_jump Music_PaletteBattlePrism_branch_1edb37

Music_PaletteBattlePrism_Ch3:
	note_type 12, 1, 9
	rest 16
	rest 16

Music_PaletteBattlePrism_branch_1ede24:
	octave 3

Music_PaletteBattlePrism_branch_1ede25:
	note C_, 2
	note G_, 2
	sound_loop 8, Music_PaletteBattlePrism_branch_1ede25

Music_PaletteBattlePrism_branch_1ede2b:
	octave 2
	note G_, 2
	octave 3
	note D_, 2
	sound_loop 8, Music_PaletteBattlePrism_branch_1ede2b
	octave 3

Music_PaletteBattlePrism_branch_1ede34:
	note C_, 2
	note G_, 2
	sound_loop 8, Music_PaletteBattlePrism_branch_1ede34

Music_PaletteBattlePrism_branch_1ede3a:
	octave 2
	note G_, 2
	octave 3
	note D_, 2
	sound_loop 8, Music_PaletteBattlePrism_branch_1ede3a
	octave 3

Music_PaletteBattlePrism_branch_1ede43:
	note C_, 2
	note G_, 2
	sound_loop 8, Music_PaletteBattlePrism_branch_1ede43

Music_PaletteBattlePrism_branch_1ede49:
	octave 2
	note G_, 2
	octave 3
	note D_, 2
	sound_loop 8, Music_PaletteBattlePrism_branch_1ede49
	octave 3

Music_PaletteBattlePrism_branch_1ede52:
	note C_, 2
	note G_, 2
	sound_loop 16, Music_PaletteBattlePrism_branch_1ede52
	octave 3

Music_PaletteBattlePrism_branch_1ede59:
	note C#, 2
	note G#, 2
	sound_loop 8, Music_PaletteBattlePrism_branch_1ede59

Music_PaletteBattlePrism_branch_1ede5f:
	octave 2
	note G#, 2
	octave 3
	note D#, 2
	sound_loop 8, Music_PaletteBattlePrism_branch_1ede5f
	octave 3

Music_PaletteBattlePrism_branch_1ede68:
	note C#, 2
	note G#, 2
	sound_loop 8, Music_PaletteBattlePrism_branch_1ede68

Music_PaletteBattlePrism_branch_1ede6e:
	octave 2
	note G#, 2
	octave 3
	note D#, 2
	sound_loop 8, Music_PaletteBattlePrism_branch_1ede6e

Music_PaletteBattlePrism_branch_1ede76:
	octave 2
	note A#, 2
	octave 3
	note F_, 2
	sound_loop 4, Music_PaletteBattlePrism_branch_1ede76

Music_PaletteBattlePrism_branch_1ede7e:
	octave 2
	note B_, 2
	octave 3
	note F#, 2
	sound_loop 4, Music_PaletteBattlePrism_branch_1ede7e

Music_PaletteBattlePrism_branch_1ede86:
	octave 3
	note C#, 2
	note G#, 2
	sound_loop 4, Music_PaletteBattlePrism_branch_1ede86

Music_PaletteBattlePrism_branch_1ede8d:
	note D#, 2
	note A#, 2
	sound_loop 4, Music_PaletteBattlePrism_branch_1ede8d
	octave 3

Music_PaletteBattlePrism_branch_1ede94:
	note C_, 2
	note G_, 2
	sound_loop 8, Music_PaletteBattlePrism_branch_1ede94

Music_PaletteBattlePrism_branch_1ede9a:
	octave 2
	note G_, 2
	octave 3
	note D_, 2
	sound_loop 8, Music_PaletteBattlePrism_branch_1ede9a
	octave 3

Music_PaletteBattlePrism_branch_1edea3:
	note C_, 2
	note G_, 2
	sound_loop 8, Music_PaletteBattlePrism_branch_1edea3

Music_PaletteBattlePrism_branch_1edea9:
	octave 2
	note G_, 2
	octave 3
	note D_, 2
	sound_loop 8, Music_PaletteBattlePrism_branch_1edea9
	sound_jump Music_PaletteBattlePrism_branch_1ede24
