; Pokémon Prism - Battle! Trainer
; Composed by GACT
; Revised by NotFroggestSpirit

Music_TrainerBattlePrism:
	channel_count 3
	channel 1, Music_TrainerBattlePrism_Ch2
	channel 2, Music_TrainerBattlePrism_Ch1
	channel 3, Music_TrainerBattlePrism_Ch3

Music_TrainerBattlePrism_Ch1:
	duty_cycle 1
	note_type 12, 12, 7
	octave 5
	note C_, 1
	octave 4
	note B_, 1
	note A#, 1
	note A_, 1
	note A#, 1
	note A_, 1
	note G#, 1
	note G_, 1
	note G#, 1
	note G_, 1
	note F#, 1
	note F_, 1
	note F#, 1
	note F_, 1
	note E_, 1
	note D#, 1
	note E_, 1
	note D#, 1
	note D_, 1
	note C#, 1
	note D_, 1
	note C#, 1
	note C_, 1
	octave 3
	note B_, 1
	octave 4
	note C_, 1
	octave 3
	note B_, 1
	note A#, 1
	note A_, 1
	note A#, 1
	note A_, 1
	note A#, 1
	note B_, 1
	sound_call Music_TrainerBattlePrism_P1
	note C#, 4
	sound_call Music_TrainerBattlePrism_P1
	note C#, 4
	octave 4
	sound_call Music_TrainerBattlePrism_P1
	note C#, 4
	octave 5
	sound_call Music_TrainerBattlePrism_P1
	octave 4
	note G_, 4
Music_TrainerBattlePrism_L1:
	note F_, 8
	note D#, 5
	note E_, 1
	note F_, 1
	note F#, 1
	note G_, 6
	note C_, 2
	volume_envelope 5, 7
	note C_, 2
	volume_envelope 12, 7
	note C_, 2
	note F_, 2
	note G_, 2
	note G#, 4
	note A#, 2
	note G#, 2
	note G_, 4
	note G#, 2
	note G_, 2
	note F_, 5
	note E_, 1
	note D#, 1
	note D_, 1
	note C#, 2
	note D#, 2
	note C#, 2
	octave 3
	note A#, 2
	octave 4
	note C_, 8
	octave 3
	note A#, 8
	octave 4
	note D_, 6
	octave 3
	note G_, 2
	volume_envelope 5, 7
	note G_, 2
	volume_envelope 12, 7
	note G_, 2
	octave 4
	note F_, 2
	note G_, 2
	note G#, 4
	note A#, 1
	note G#, 1
	note G_, 1
	note G#, 1
	note G_, 4
	note F_, 1
	note E_, 1
	note G_, 1
	note G#, 1
	note A#, 8
	note G#, 8
	note G_, 10
	volume_envelope 12, 3
	note G_, 2
	note G_, 2
	note G_, 2
	volume_envelope 12, 7
	note G_, 4
	volume_envelope 11, 7
	note F_, 2
	volume_envelope 9, 7
	note G_, 2
	volume_envelope 8, 7
	note A#, 4
	volume_envelope 7, 7
	octave 5
	note D_, 2
	volume_envelope 5, 7
	note F_, 2
	volume_envelope 12, 7
	octave 4
	note A#, 8
	note D_, 8
	note F_, 6
	note A#, 4
	note A_, 2
	note G_, 2
	note F_, 2
	note E_, 4
	note E_, 1
	note D#, 1
	note D_, 1
	note C#, 1
	note C_, 1
	octave 3
	note B_, 1
	octave 4
	note C_, 1
	note C#, 1
	note C_, 4
	note G_, 4
	note G_, 2
	note A#, 2
	note G_, 4
	note G_, 4
	note A#, 8
	note D_, 8
	note F_, 6
	note A#, 4
	note D_, 2
	note F_, 2
	note A#, 2
	octave 5
	note C_, 8
	octave 4
	note C_, 5
	note E_, 1
	note F_, 1
	note F#, 1
	note G_, 6
	note A#, 2
	octave 5
	note C_, 4
	octave 4
	note E_, 4
	note C_, 6
	octave 3
	note A_, 14
	octave 4
	note C_, 4
	octave 3
	note A_, 4
	octave 4
	note C_, 4
	octave 3
	note A#, 6
	octave 4
	note F_, 14
	octave 3
	note A#, 4
	octave 4
	note F_, 4
	note D_, 4
	note C_, 6
	octave 3
	note A_, 14
	octave 4
	note C_, 4
	note E_, 2
	note D_, 2
	note C_, 2
	note E_, 2
	note D_, 2
	octave 3
	note A#, 4
	octave 4
	note F_, 10
	note G_, 6
	note F_, 3
	rest 1
	note F_, 2
	note D_, 4
	volume_envelope 12, 4
	vibrato 17, 1, 2
	sound_call Music_TrainerBattlePrism_P2
	sound_call Music_TrainerBattlePrism_P3
	note D_, 2
	note D_, 2
	note D_, 2
	note D_, 4
	note D_, 2
	note D_, 2
	note D_, 2
	sound_call Music_TrainerBattlePrism_P3
	octave 5
	sound_call Music_TrainerBattlePrism_P2
	sound_call Music_TrainerBattlePrism_P3
	note G_, 2
	note G_, 2
	note G_, 2
	note G_, 4
	note G_, 2
	note G_, 2
	note G_, 2
	sound_call Music_TrainerBattlePrism_P2
	volume_envelope 12, 7
	vibrato 0, 0, 0
	octave 4
	note G_, 4
	note C_, 2
	note G#, 4
	note G#, 2
	octave 3
	note G_, 2
	note G_, 2
	octave 4
	note E_, 4
	octave 3
	note G#, 2
	octave 4
	note F_, 4
	note F_, 2
	octave 3
	note G#, 2
	note G#, 2
	octave 4
	note G_, 4
	note C_, 2
	note G#, 4
	note G#, 2
	note C_, 2
	note C_, 2
	note G_, 4
	note C_, 2
	note G#, 4
	note G#, 2
	note F_, 2
	note F_, 2
	octave 5
	note C_, 4
	octave 4
	note G_, 2
	octave 5
	note C#, 4
	note C#, 2
	octave 4
	note C_, 2
	note C_, 2
	note G_, 4
	note C_, 2
	note G#, 4
	note G#, 2
	note C#, 2
	note C#, 2
	note E_, 1
	note D#, 1
	note D_, 1
	note C#, 1
	note C_, 1
	note C#, 1
	note D_, 1
	note D#, 1
	note E_, 1
	note D#, 1
	note D_, 1
	note C#, 1
	note C_, 1
	note C#, 1
	note D_, 1
	note D#, 1
	note E_, 1
	note D#, 1
	note D_, 1
	note C#, 1
	note D_, 1
	note D#, 1
	note E_, 1
	note F_, 1
	note F#, 1
	note F_, 1
	note E_, 1
	note F_, 1
	note F#, 1
	note G_, 1
	note G#, 1
	note A#, 1
	sound_jump Music_TrainerBattlePrism_L1

Music_TrainerBattlePrism_Ch2:
	tempo 102
	duty_cycle 3
	note_type 12, 11, 4
	vibrato 17, 1, 2
	octave 3
	note G_, 2
	note C_, 1
	octave 4
	note C_, 1
	octave 3
	note G_, 2
	note C_, 1
	octave 4
	note C_, 1
	octave 3
	note G_, 2
	note C_, 1
	octave 4
	note C_, 1
	octave 3
	note G_, 2
	note C_, 1
	octave 4
	note C_, 1
	octave 3
	note F_, 2
	octave 2
	note A#, 1
	octave 3
	note A#, 1
	note F_, 2
	octave 2
	note A#, 1
	octave 3
	note A#, 1
	note F_, 2
	octave 2
	note A#, 1
	octave 3
	note A#, 1
	note F_, 2
	octave 2
	note A#, 2
	sound_call Music_TrainerBattlePrism_P4
	octave 3
	sound_call Music_TrainerBattlePrism_P4
	sound_call Music_TrainerBattlePrism_P5
	note C_, 2
	note G_, 2
	note C#, 2
	note F_, 2
	sound_call Music_TrainerBattlePrism_P5
	note F_, 2
	octave 4
	note C_, 2
	note C#, 4
Music_TrainerBattlePrism_L2:
	octave 3
	sound_call Music_TrainerBattlePrism_P6
	note G#, 12
	note G#, 2
	note G_, 2
	note F_, 8
	note A#, 8
	sound_call Music_TrainerBattlePrism_P6
	octave 4
	note C#, 12
	note C#, 2
	note C_, 2
	note C#, 8
	note D#, 8
	note C_, 6
	octave 3
	note A#, 10
	note E_, 6
	note C_, 10
	note D_, 8
	octave 2
	note A#, 4
	octave 3
	note D_, 4
	note F_, 4
	note G_, 4
	note A#, 4
	octave 4
	note D_, 4
	octave 3
	note C_, 10
	octave 2
	note C_, 2
	octave 3
	note C_, 2
	octave 2
	note C_, 2
	octave 3
	note C_, 2
	octave 2
	note C_, 4
	note C_, 4
	octave 3
	note C_, 2
	note C_, 2
	note C_, 2
	note D_, 8
	octave 2
	note A#, 4
	octave 3
	note D_, 4
	note F_, 4
	note A#, 4
	octave 4
	note F_, 4
	note D_, 4
	note E_, 12
	note D_, 4
	note C_, 16
	duty_cycle 2
	volume_envelope 8, 4
	vibrato 0, 0, 0
Music_TrainerBattlePrism_L3:
	sound_call Music_TrainerBattlePrism_P7
	sound_call Music_TrainerBattlePrism_P7
	sound_call Music_TrainerBattlePrism_P8
	sound_call Music_TrainerBattlePrism_P8
	sound_loop 2, Music_TrainerBattlePrism_L3
	duty_cycle 3
	volume_envelope 11, 4
	vibrato 17, 1, 2
	octave 2
	note F_, 2
	note F_, 2
	note F_, 2
	note F_, 4
	note F_, 2
	note F_, 2
	note F_, 2
	note E_, 2
	note E_, 2
	note E_, 2
	note E_, 4
	note E_, 2
	note E_, 2
	note E_, 2
	note D_, 2
	note D_, 2
	note D_, 2
	note D_, 4
	note D_, 2
	note D_, 2
	note D_, 2
	note E_, 2
	note E_, 2
	note E_, 2
	note E_, 4
	note E_, 2
	note E_, 2
	note G_, 1
	note B_, 1
	octave 3
	note F_, 2
	octave 2
	note F_, 2
	note F_, 2
	octave 3
	note F_, 2
	octave 2
	note F_, 2
	note F_, 2
	octave 3
	note F_, 2
	octave 2
	note F_, 2
	octave 3
	note E_, 2
	octave 2
	note E_, 2
	note E_, 2
	octave 3
	note E_, 2
	octave 2
	note E_, 2
	note E_, 2
	octave 3
	note E_, 2
	octave 2
	note E_, 2
	octave 3
	note G_, 2
	octave 2
	note G_, 2
	note G_, 2
	octave 3
	note G_, 2
	octave 2
	note G_, 2
	note G_, 2
	octave 3
	note G_, 2
	octave 2
	note G_, 2
	octave 3
	note F_, 2
	octave 2
	note F_, 2
	note F_, 2
	octave 3
	note F_, 2
	octave 2
	note F_, 2
	note F_, 2
	octave 3
	note F_, 2
	octave 2
	note F_, 2
Music_TrainerBattlePrism_L4:
	octave 4
	note C_, 6
	note C#, 10
	octave 3
	note G_, 6
	note G#, 6
	note C#, 4
	sound_loop 2, Music_TrainerBattlePrism_L4
	octave 4
	note C_, 6
	note C#, 6
	note G_, 4
	octave 3
	note G_, 6
	note G#, 6
	octave 5
	note C#, 4
	note C_, 2
	octave 3
	note C_, 4
	octave 5
	note C#, 2
	octave 3
	note C#, 4
	octave 4
	note G_, 4
	octave 5
	note C_, 2
	octave 2
	note G_, 4
	octave 5
	note C#, 2
	octave 2
	note G#, 4
	octave 4
	note A#, 3
	rest 1
	sound_jump Music_TrainerBattlePrism_L2

Music_TrainerBattlePrism_Ch3:
	note_type 12, 1, 9
	octave 3
	note C_, 16
	note C#, 16
Music_TrainerBattlePrism_L5:
	note C_, 2
	note G_, 2
	note F_, 2
	note D#, 2
	note F_, 2
	note D#, 2
	note C#, 2
	note D#, 2
	sound_loop 8, Music_TrainerBattlePrism_L5
Music_TrainerBattlePrism_L6:
	note C_, 4
	note D#, 2
	note G_, 2
	sound_call Music_TrainerBattlePrism_P9
	note C_, 2
	note G_, 2
	note F_, 2
	note G#, 2
Music_TrainerBattlePrism_L7:
	note C#, 2
	note G#, 2
	note F_, 2
	note G#, 2
	sound_loop 3, Music_TrainerBattlePrism_L7
	note C#, 2
	note G#, 2
	note G_, 2
	note G#, 2
	sound_call Music_TrainerBattlePrism_P9
	sound_call Music_TrainerBattlePrism_P9
Music_TrainerBattlePrism_L8:
	octave 2
	note A#, 2
	octave 3
	note F_, 2
	note C#, 2
	note F_, 2
	sound_loop 3, Music_TrainerBattlePrism_L8
	octave 2
	note A#, 2
	octave 3
	note F_, 2
	octave 2
	note A_, 2
	octave 3
	note D#, 2
Music_TrainerBattlePrism_L9:
	octave 2
	note G_, 2
	octave 3
	note D_, 2
	octave 2
	note A#, 2
	octave 3
	note D_, 2
	sound_loop 4, Music_TrainerBattlePrism_L9
	sound_call Music_TrainerBattlePrism_P10
	sound_call Music_TrainerBattlePrism_P10
	octave 2
	note A_, 3
	rest 1
	note A_, 2
	octave 3
	note C_, 3
	rest 1
	note C_, 2
	note C_, 2
	octave 2
	note A_, 3
	rest 1
	note A_, 2
	octave 3
	note C_, 2
	note C_, 2
	octave 2
	note A_, 2
	note A_, 2
	octave 3
	note C_, 2
	note C_, 2
	octave 2
	note A#, 3
	rest 1
	note A#, 2
	octave 3
	note F_, 3
	rest 1
	note F_, 2
	note F_, 2
	octave 2
	note A#, 3
	rest 1
	note A#, 2
	octave 3
	note F_, 2
	note F_, 2
	note D_, 2
	note D_, 2
	octave 2
	note G#, 2
	note G#, 2
	note A_, 3
	rest 1
	note A_, 2
	octave 3
	note C_, 3
	rest 1
	note C_, 2
	note C_, 2
	octave 2
	note A_, 3
	rest 1
	note A_, 2
	octave 3
	note C_, 2
	note C_, 2
	note D_, 2
	note D_, 2
	note C_, 2
	note C_, 2
	octave 2
	note A#, 3
	rest 1
	note A#, 2
	octave 3
	note F_, 3
	rest 1
	note F_, 2
	note F_, 2
	octave 2
	note A#, 3
	rest 1
	note A#, 2
	octave 3
	note F_, 2
	note F_, 2
	note G_, 2
	note E_, 2
	note F_, 2
	note D_, 2
	sound_call Music_TrainerBattlePrism_P11
	sound_call Music_TrainerBattlePrism_P12
	sound_call Music_TrainerBattlePrism_P11
Music_TrainerBattlePrism_L11:
	octave 2
	note A_, 2
	octave 3
	note F_, 2
	sound_loop 4, Music_TrainerBattlePrism_L11
Music_TrainerBattlePrism_L12:
	note C_, 2
	note F_, 2
	sound_loop 4, Music_TrainerBattlePrism_L12
	sound_call Music_TrainerBattlePrism_P12
Music_TrainerBattlePrism_L13:
	note D_, 2
	note G_, 2
	sound_loop 4, Music_TrainerBattlePrism_L13
Music_TrainerBattlePrism_L14:
	octave 2
	note A#, 2
	octave 3
	note F_, 2
	sound_loop 4, Music_TrainerBattlePrism_L14
	note C_, 2
	octave 4
	note C_, 2
	octave 3
	note C_, 2
	octave 4
	note C#, 2
	octave 3
	note C#, 2
	octave 4
	note C#, 2
	octave 3
	note C_, 2
	octave 4
	note C_, 2
	octave 2
	note G_, 2
	octave 3
	note G_, 2
	octave 2
	note G_, 2
	octave 3
	note G#, 2
	octave 2
	note G#, 2
	octave 3
	note G#, 2
	note C#, 2
	octave 4
	note C#, 2
	octave 3
	note C_, 2
	octave 4
	note C_, 2
	octave 3
	note C_, 2
	octave 4
	note C#, 2
	octave 3
	note C#, 2
	octave 4
	note C#, 2
	octave 3
	note C_, 2
	note G_, 2
	note C_, 2
	octave 4
	note C_, 2
	octave 3
	note C_, 2
	octave 4
	note C#, 2
	octave 3
	note C#, 2
	octave 4
	note C#, 2
	octave 3
	note C#, 2
	note A#, 2
	sound_jump Music_TrainerBattlePrism_L6

Music_TrainerBattlePrism_P1:
	note C_, 6
	note D#, 6
	note C#, 4
	note C_, 2
	note C#, 4
	note D#, 6
	sound_ret

Music_TrainerBattlePrism_P2:
	note F_, 2
	note F_, 2
	note F_, 2
	note F_, 4
	note F_, 2
	note F_, 2
	note F_, 2
	sound_ret

Music_TrainerBattlePrism_P3:
	note E_, 2
	note E_, 2
	note E_, 2
	note E_, 4
	note E_, 2
	note E_, 2
	note E_, 2
	sound_ret

Music_TrainerBattlePrism_P4:
	note G_, 6
	note G#, 6
	note A#, 4
	note G_, 2
	note A#, 4
	note G#, 6
	note F_, 4
	sound_ret

Music_TrainerBattlePrism_P5:
	note G_, 2
	note C_, 2
	note F_, 2
	note A#, 2
	note G_, 2
	note C_, 2
	note G#, 2
	note C_, 2
	note G_, 2
	note C#, 2
	note F_, 2
	note A#, 2
	sound_ret

Music_TrainerBattlePrism_P6:
	note C_, 6
	note G_, 6
	note F_, 4
	note E_, 2
	note F_, 2
	note E_, 2
	note D_, 2
	note C_, 2
	note E_, 2
	note F_, 2
	note G_, 2
	sound_ret

Music_TrainerBattlePrism_P7:
	note F_, 2
	note C_, 2
	note F_, 2
	note A_, 2
	octave 5
	note C_, 2
	octave 4
	note A_, 2
	note F_, 2
	note C_, 2
	sound_ret

Music_TrainerBattlePrism_P8:
	note E_, 2
	note C_, 2
	note E_, 2
	note G_, 2
	octave 5
	note C_, 2
	octave 4
	note G_, 2
	note E_, 2
	note C_, 2
	sound_ret

Music_TrainerBattlePrism_P9:
	note C_, 2
	note G_, 2
	note D#, 2
	note G_, 2
	sound_loop 2, Music_TrainerBattlePrism_P9
	sound_ret

Music_TrainerBattlePrism_P10:
	octave 2
	note A#, 2
	octave 3
	note F_, 2
	sound_loop 8, Music_TrainerBattlePrism_P10
.loop2
	note C_, 2
	note G_, 2
	sound_loop 8, .loop2
	sound_ret

Music_TrainerBattlePrism_P11:
	note C_, 2
	note F_, 2
	sound_loop 4, Music_TrainerBattlePrism_P11
.loop2
	octave 2
	note A_, 2
	octave 3
	note E_, 2
	sound_loop 4, .loop2
.loop3
	octave 2
	note G_, 2
	octave 3
	note D_, 2
	sound_loop 4, .loop3
	sound_ret

Music_TrainerBattlePrism_P12:
	octave 2
	note A_, 2
	octave 3
	note E_, 2
	sound_loop 4, Music_TrainerBattlePrism_P12
	sound_ret
