; Pokémon D/P/Pt - Battle! Champion
; Ported by FroggestSpirit
; https://github.com/froggestspirit/pokecrystal/blob/master/audio/music/145_ChampionBattle.asm

Music_ChampionBattleDPPt:
	channel_count 4
	channel 1, Music_ChampionBattleDPPt_Ch1
	channel 2, Music_ChampionBattleDPPt_Ch2
	channel 3, Music_ChampionBattleDPPt_Ch3
	channel 4, Music_ChampionBattleDPPt_Ch4

Music_ChampionBattleDPPt_Ch1:
	volume 7, 7
	stereo_panning TRUE, TRUE
	tempo 128
	duty_cycle 3
	pitch_offset 2
	vibrato 16, 2, 4
	octave 4
	note_type 12, 11, 7
	note A#, 16
	rest 16
	tempo 104
	octave 3
	note A#, 16
	rest 16
	rest 16
	rest 16
Music_ChampionBattleDPPt_Ch1_loop:
	note A#, 16
	rest 16
	rest 16
	rest 16
	note F_, 8
	octave 2
	note A#, 4
	octave 3
	note D#, 2
	note F_, 2
	note F#, 2
	note F_, 2
	note E_, 2
	note F#, 2
	note F_, 4
	note E_, 2
	note D_, 2
	note D#, 8
	octave 2
	note G#, 4
	octave 3
	note D_, 2
	note D#, 2
	note E_, 2
	note D#, 2
	note D_, 2
	note E_, 2
	note D#, 4
	note C#, 2
	note C_, 2
	note C#, 10
	octave 2
	note F#, 6
	duty_cycle 2
	volume_envelope 10, 1
	note F#, 1
	note G_, 1
	note G#, 1
	note A_, 1
	note A#, 1
	note B_, 1
	octave 3
	note C_, 1
	note C#, 1
	note D_, 1
	note C#, 1
	note C_, 1
	octave 2
	note B_, 1
	note A#, 1
	note A_, 1
	note G#, 1
	note G_, 1
	duty_cycle 3
	volume_envelope 11, 7
	note G#, 10
	note D#, 6
	duty_cycle 2
	volume_envelope 10, 1
	note G#, 1
	note A_, 1
	note A#, 1
	note B_, 1
	octave 3
	note C_, 1
	note C#, 1
	note D_, 1
	note D#, 1
	note E_, 1
	note D#, 1
	note D_, 1
	note C#, 1
	note C_, 1
	octave 2
	note B_, 1
	note A#, 1
	note A_, 1
	duty_cycle 3
	volume_envelope 11, 7
	octave 5
	note F_, 1
	rest 1
	note E_, 1
	rest 1
	note F_, 1
	rest 5
	note F#, 1
	rest 1
	octave 3
	note D#, 2
	octave 5
	note F_, 1
	rest 1
	octave 3
	note F#, 2
	note F_, 2
	note E_, 2
	note F#, 2
	note F_, 4
	note E_, 2
	note D_, 2
	octave 5
	note D#, 1
	rest 1
	note D_, 1
	rest 1
	note D#, 1
	rest 5
	note E_, 1
	rest 1
	octave 3
	note D_, 2
	octave 5
	note D#, 1
	rest 1
	octave 3
	note E_, 2
	note D#, 2
	note D_, 2
	note E_, 2
	note D#, 4
	note C#, 2
	note C_, 2
	note C#, 10
	octave 2
	note F#, 6
	duty_cycle 2
	volume_envelope 10, 1
	note F#, 1
	note G_, 1
	note G#, 1
	note A_, 1
	note A#, 1
	note B_, 1
	octave 3
	note C_, 1
	note C#, 1
	note D_, 1
	note C#, 1
	note C_, 1
	octave 2
	note B_, 1
	note A#, 1
	note A_, 1
	note G#, 1
	note G_, 1
	duty_cycle 3
	volume_envelope 11, 7
	note G#, 10
	note D#, 6
	duty_cycle 2
	volume_envelope 10, 1
	note G#, 1
	note A_, 1
	note A#, 1
	note B_, 1
	octave 3
	note C_, 1
	note C#, 1
	note D_, 1
	note D#, 1
	note E_, 1
	note D#, 1
	note D_, 1
	note C#, 1
	note C_, 1
	octave 2
	note B_, 1
	note A#, 1
	note A_, 1
	duty_cycle 3
	volume_envelope 11, 7
	note A#, 10
	note F_, 6
	duty_cycle 2
	volume_envelope 10, 1
	note A#, 1
	note B_, 1
	octave 3
	note C_, 1
	note C#, 1
	note D_, 1
	note D#, 1
	note E_, 1
	note F_, 1
	note F#, 1
	note F_, 1
	note E_, 1
	note D#, 1
	note D_, 1
	note C#, 1
	note C_, 1
	octave 2
	note B_, 1
	duty_cycle 3
	volume_envelope 11, 7
	note A#, 10
	note F_, 6
	duty_cycle 2
	volume_envelope 10, 1
	note A#, 1
	note B_, 1
	octave 3
	note C_, 1
	note C#, 1
	note D_, 1
	note D#, 1
	note E_, 1
	note F_, 1
	note F#, 1
	note F_, 1
	note E_, 1
	note D#, 1
	note D_, 1
	note C#, 1
	note C_, 1
	octave 2
	note B_, 1
	duty_cycle 3
	volume_envelope 11, 7
	octave 3
	note F_, 8
	note D#, 8
	note A#, 6
	note G_, 6
	note D#, 4
	note A#, 6
	note G_, 6
	note D#, 4
	octave 2
	note A#, 16
	octave 4
	note F_, 8
	note D#, 8
	octave 3
	note A#, 6
	octave 4
	note C_, 6
	octave 3
	note A#, 4
	octave 4
	note D#, 6
	note G_, 6
	note F#, 4
	note G_, 16
	volume_envelope 10, 8
	octave 2
	note G#, 16
	note G#, 16
	note C#, 16
	note C#, 16
	note D_, 16
	note D_, 16
	note A_, 16
	note A_, 16
	duty_cycle 2
	volume_envelope 11, 1
	octave 4
	note C#, 1
	rest 3
	note C#, 1
	rest 1
	note G#, 1
	rest 1
	octave 5
	note C#, 1
	rest 3
	octave 4
	note G#, 1
	rest 3
	note C#, 1
	rest 1
	note G#, 1
	rest 1
	note C#, 1
	rest 1
	note G#, 1
	rest 1
	octave 5
	note C#, 1
	rest 1
	note F#, 1
	rest 1
	octave 4
	note G#, 1
	rest 1
	octave 5
	note C#, 1
	rest 1
	octave 4
	note C#, 1
	rest 3
	note C#, 1
	rest 1
	note G#, 1
	rest 1
	octave 5
	note C#, 1
	rest 3
	octave 4
	note G#, 1
	rest 3
	note C#, 1
	rest 1
	note G#, 1
	rest 1
	note C#, 1
	rest 1
	note G#, 1
	rest 1
	octave 5
	note C#, 1
	rest 1
	note F#, 1
	rest 1
	octave 4
	note G#, 1
	rest 1
	octave 5
	note C#, 1
	rest 1
	octave 4
	note D_, 1
	rest 3
	note D_, 1
	rest 1
	note A_, 1
	rest 1
	octave 5
	note D_, 1
	rest 3
	octave 4
	note A_, 1
	rest 3
	note D_, 1
	rest 1
	note A_, 1
	rest 1
	note D_, 1
	rest 1
	note A_, 1
	rest 1
	octave 5
	note D_, 1
	rest 1
	note G_, 1
	rest 1
	octave 4
	note A_, 1
	rest 1
	octave 5
	note D_, 1
	rest 1
	octave 4
	note D_, 1
	rest 3
	note D_, 1
	rest 1
	note A_, 1
	rest 1
	octave 5
	note D_, 1
	rest 3
	octave 4
	note A_, 1
	rest 3
	note D_, 1
	rest 1
	note A_, 1
	rest 1
	note D_, 1
	rest 1
	note A_, 1
	rest 1
	octave 5
	note D_, 1
	rest 1
	note G_, 1
	rest 1
	octave 4
	note A_, 1
	rest 1
	octave 5
	note D_, 1
	rest 1
	duty_cycle 3
	volume_envelope 11, 7
	note C#, 16
	rest 16
	octave 4
	note G#, 2
	rest 4
	note G#, 2
	rest 4
	note G#, 2
	rest 4
	note G#, 2
	rest 4
	note B_, 4
	note A_, 4
	note G#, 2
	rest 16
	rest 15
	duty_cycle 0
	volume_envelope 10, 1
	octave 3
	note G_, 2
	octave 4
	note C_, 2
	note G_, 2
	note C#, 2
	note F_, 2
	octave 3
	note A_, 2
	octave 4
	note D#, 2
	octave 3
	note B_, 2
	octave 4
	note A_, 2
	note G_, 2
	note G#, 2
	note D_, 2
	note C#, 2
	octave 3
	note A#, 2
	note A#, 2
	octave 4
	note A_, 16
	rest 16
	rest 1
	duty_cycle 3
	volume_envelope 12, 7
	octave 1
	note C#, 2
	note G#, 2
	note G_, 2
	note E_, 2
	note C#, 2
	note E_, 2
	note C_, 2
	note D_, 2
	note C#, 2
	note G#, 2
	note G_, 2
	note D#, 2
	note G#, 2
	note F#, 2
	note B_, 2
	note E_, 2
	octave 3
	sound_jump Music_ChampionBattleDPPt_Ch1_loop

Music_ChampionBattleDPPt_Ch2:
	duty_cycle 2
	pitch_offset 1
	vibrato 8, 3, 6
	octave 3
	note_type 12, 12, 2
	note A#, 2
	note F_, 2
	octave 2
	note B_, 2
	note A#, 2
	note F_, 2
	note C#, 2
	octave 1
	note A#, 2
	octave 2
	note C#, 2
	note D_, 2
	note F_, 2
	note B_, 2
	octave 3
	note D_, 2
	note_type 8, 12, 2
	note D#, 2
	note F_, 2
	note G#, 2
	note A#, 2
	note B_, 2
	octave 4
	note C#, 2
	duty_cycle 3
	note_type 12, 12, 7
	octave 2
	note A#, 16
	rest 16
	rest 16
	rest 16
Music_ChampionBattleDPPt_Ch2_loop:
	note A#, 16
	rest 16
	rest 16
	rest 12
	duty_cycle 0
	note A#, 1
	note B_, 1
	octave 3
	note E_, 1
	note F_, 1
	note A#, 12
	note G#, 2
	note A#, 2
	note B_, 2
	note A#, 2
	note A_, 2
	note B_, 2
	note A#, 4
	note A_, 2
	note G_, 2
	note G#, 12
	note G_, 2
	note G#, 2
	note A_, 2
	note G#, 2
	note G_, 2
	note A_, 2
	note G#, 4
	note F#, 2
	note F_, 2
	note F#, 10
	note C#, 2
	note F#, 2
	note A#, 2
	note B_, 2
	note A#, 2
	note B_, 2
	octave 4
	note C_, 2
	note C#, 8
	octave 3
	note G#, 10
	note D#, 2
	note G#, 2
	octave 4
	note C_, 2
	note C#, 2
	note C_, 2
	note C#, 2
	note D_, 2
	note D#, 8
	octave 3
	note A#, 12
	note G#, 2
	note A#, 2
	note B_, 2
	note A#, 2
	note A_, 2
	note B_, 2
	note A#, 4
	note A_, 2
	note G_, 2
	note G#, 12
	note G_, 2
	note G#, 2
	note A_, 2
	note G#, 2
	note G_, 2
	note A_, 2
	note G#, 4
	note F#, 2
	note F_, 2
	note F#, 10
	note C#, 2
	note F#, 2
	note A#, 2
	note B_, 2
	note A#, 2
	note B_, 2
	octave 4
	note C_, 2
	note C#, 8
	octave 3
	note G#, 10
	note D#, 2
	note G#, 2
	octave 4
	note C_, 2
	note C#, 2
	note C_, 2
	note C#, 2
	note D_, 2
	note D#, 8
	octave 3
	note A#, 10
	note F_, 2
	note A#, 2
	octave 4
	note D_, 2
	note D#, 2
	note D_, 2
	note D#, 2
	note E_, 2
	note F_, 8
	note D_, 10
	octave 3
	note F_, 2
	note A#, 2
	octave 4
	note D_, 2
	note D#, 2
	note D_, 2
	note D#, 2
	note E_, 2
	note F_, 8
	duty_cycle 3
	note A#, 8
	note G#, 8
	note G_, 6
	note D#, 6
	octave 3
	note A#, 4
	octave 4
	note D#, 16
	rest 16
	note A#, 8
	octave 5
	note C_, 8
	octave 4
	note F_, 6
	note G_, 6
	note G#, 4
	note A#, 16
	rest 16
	duty_cycle 2
	volume_envelope 11, 1
	note C#, 1
	rest 3
	note C#, 1
	rest 1
	note G#, 1
	rest 1
	octave 5
	note C#, 1
	rest 3
	octave 4
	note G#, 1
	rest 3
	note C#, 1
	rest 1
	note G#, 1
	rest 1
	note C#, 1
	rest 1
	note G#, 1
	rest 1
	octave 5
	note C#, 1
	rest 1
	note F#, 1
	rest 1
	octave 4
	note G#, 1
	rest 1
	octave 5
	note C#, 1
	rest 1
	octave 4
	note C#, 1
	rest 3
	note C#, 1
	rest 1
	note G#, 1
	rest 1
	octave 5
	note C#, 1
	rest 3
	octave 4
	note G#, 1
	rest 3
	note C#, 1
	rest 1
	note G#, 1
	rest 1
	note C#, 1
	rest 1
	note G#, 1
	rest 1
	octave 5
	note C#, 1
	rest 1
	note F#, 1
	rest 1
	octave 4
	note G#, 1
	rest 1
	octave 5
	note C#, 1
	rest 1
	octave 4
	note C#, 1
	rest 3
	note C#, 1
	rest 1
	note G#, 1
	rest 1
	octave 5
	note C#, 1
	rest 3
	octave 4
	note G#, 1
	rest 3
	note C#, 1
	rest 1
	note G#, 1
	rest 1
	note C#, 1
	rest 1
	note G#, 1
	rest 1
	octave 5
	note C#, 1
	rest 1
	note F#, 1
	rest 1
	octave 4
	note G#, 1
	rest 1
	octave 5
	note C#, 1
	rest 1
	octave 4
	note C#, 1
	rest 3
	note C#, 1
	rest 1
	note G#, 1
	rest 1
	octave 5
	note C#, 1
	rest 3
	octave 4
	note G#, 1
	rest 3
	note C#, 1
	rest 1
	note G#, 1
	rest 1
	note C#, 1
	rest 1
	note G#, 1
	rest 1
	octave 5
	note C#, 1
	rest 1
	note F#, 1
	rest 1
	octave 4
	note G#, 1
	rest 1
	octave 5
	note C#, 1
	rest 1
	duty_cycle 3
	volume_envelope 12, 7
	octave 4
	note C#, 2
	octave 3
	note G#, 2
	octave 4
	note C#, 2
	note G#, 6
	note F#, 2
	note F_, 2
	note G#, 4
	note F#, 2
	note F_, 2
	note C#, 4
	octave 3
	note B_, 4
	octave 4
	note C#, 6
	note G#, 6
	note F#, 2
	note F_, 2
	note G#, 4
	note F#, 2
	note F_, 2
	note C#, 4
	octave 3
	note B_, 4
	octave 4
	note D_, 6
	note A_, 6
	note G_, 2
	note F#, 2
	note A_, 4
	note G_, 2
	note F#, 2
	note D_, 4
	octave 3
	note A_, 4
	octave 4
	note D_, 6
	note A_, 6
	note G_, 2
	note F#, 2
	note A_, 4
	note G_, 2
	note F#, 2
	note D_, 4
	octave 3
	note A_, 4
	duty_cycle 0
	volume_envelope 12, 1
	octave 4
	note C#, 2
	octave 3
	note G#, 2
	octave 4
	note C#, 2
	note D_, 2
	note E_, 2
	octave 5
	note E_, 2
	octave 4
	note G#, 2
	note B_, 2
	octave 5
	note B_, 2
	note G#, 2
	note D_, 2
	note E_, 2
	note D_, 2
	octave 4
	note A#, 2
	note G#, 2
	note E_, 2
	duty_cycle 3
	volume_envelope 12, 7
	octave 5
	note C#, 2
	rest 4
	note C#, 2
	rest 4
	note C#, 2
	rest 4
	note C#, 2
	rest 4
	note E_, 4
	note D_, 4
	note C#, 2
	rest 16
	rest 14
	duty_cycle 0
	volume_envelope 10, 1
	octave 4
	note C#, 2
	octave 2
	note B_, 2
	octave 5
	note C_, 2
	octave 4
	note A_, 2
	octave 5
	note D#, 2
	octave 4
	note A_, 2
	note D_, 2
	note B_, 2
	note E_, 2
	note F#, 2
	octave 5
	note F#, 2
	note D_, 2
	octave 4
	note A#, 2
	note G#, 2
	octave 3
	note E_, 2
	octave 4
	note E_, 2
	duty_cycle 3
	volume_envelope 12, 7
	octave 2
	note C#, 2
	note G#, 2
	note G_, 2
	note E_, 2
	note C#, 2
	note D_, 2
	note C_, 2
	note D_, 2
	note C#, 2
	note G#, 2
	note G_, 2
	note E_, 2
	note C#, 2
	note E_, 2
	note G_, 2
	note E_, 2
	note C#, 2
	note G#, 2
	note G_, 2
	note E_, 2
	note C#, 2
	note E_, 2
	note C_, 2
	note D_, 2
	note C#, 2
	note G#, 2
	note G_, 2
	note D#, 2
	note G#, 2
	note F#, 2
	note B_, 2
	note E_, 2
	sound_jump Music_ChampionBattleDPPt_Ch2_loop

Music_ChampionBattleDPPt_Ch3:
	octave 1
	note_type 12, 1, 4
	note F_, 4
	rest 4
	note F_, 4
	rest 4
	note F_, 4
	rest 4
	octave 2
	note F_, 2
	note F#, 2
	note F_, 2
	note B_, 2
	octave 1
	note F_, 2
	octave 2
	note A#, 2
	octave 1
	note F_, 2
	octave 2
	note A#, 2
	octave 1
	note F_, 2
	octave 2
	note A#, 2
	octave 1
	note F_, 2
	octave 2
	note A#, 2
	octave 1
	note F_, 2
	octave 2
	note A#, 2
	octave 1
	note F_, 2
	octave 2
	note A#, 2
	octave 1
	note F_, 2
	octave 2
	note A#, 2
	octave 1
	note F_, 2
	octave 2
	note A#, 2
	octave 1
	note F_, 2
	octave 2
	note A#, 2
	octave 1
	note F_, 2
	octave 2
	note A#, 2
	octave 1
	note F_, 2
	octave 2
	note A#, 2
	octave 1
	note F_, 2
	octave 2
	note A#, 2
	octave 1
	note F_, 2
	octave 2
	note A#, 2
	octave 1
	note F_, 2
	octave 2
	note A#, 2
	octave 1
	note F_, 2
	octave 2
	note A#, 2
	octave 1
	note F_, 2
	octave 2
	note A#, 2
Music_ChampionBattleDPPt_Ch3_loop:
	octave 1
	note F_, 2
	octave 2
	note A#, 2
	octave 1
	note F_, 2
	octave 2
	note A#, 2
	octave 1
	note F_, 2
	octave 2
	note A#, 2
	octave 1
	note F_, 2
	octave 2
	note A#, 2
	octave 1
	note F_, 2
	octave 2
	note A#, 2
	octave 1
	note F_, 2
	octave 2
	note A#, 2
	octave 1
	note F_, 2
	octave 2
	note A#, 2
	octave 1
	note F_, 2
	octave 2
	note A#, 2
	octave 1
	note F_, 2
	octave 2
	note A#, 2
	octave 1
	note F_, 2
	octave 2
	note A#, 2
	octave 1
	note F_, 2
	octave 2
	note A#, 2
	octave 1
	note F_, 2
	octave 2
	note A#, 2
	octave 1
	note F_, 2
	octave 2
	note A#, 2
	octave 1
	note F_, 2
	octave 2
	note A#, 2
	octave 1
	note F_, 2
	octave 2
	note A#, 2
	octave 1
	note F_, 2
	octave 2
	note A#, 2
	octave 1
	note F_, 2
	octave 2
	note A#, 2
	octave 1
	note F_, 2
	octave 2
	note A#, 2
	octave 1
	note F_, 2
	octave 2
	note A#, 2
	octave 1
	note F_, 2
	octave 2
	note A#, 2
	octave 1
	note F_, 2
	octave 2
	note A#, 2
	octave 1
	note F_, 2
	octave 2
	note A#, 2
	octave 1
	note F_, 2
	octave 2
	note A#, 2
	octave 1
	note F_, 2
	octave 2
	note A#, 2
	octave 1
	note D#, 2
	octave 2
	note G#, 2
	octave 1
	note D#, 2
	octave 2
	note G#, 2
	octave 1
	note D#, 2
	octave 2
	note G#, 2
	octave 1
	note D#, 2
	octave 2
	note G#, 2
	octave 1
	note D#, 2
	octave 2
	note G#, 2
	octave 1
	note D#, 2
	octave 2
	note G#, 2
	octave 1
	note D#, 2
	octave 2
	note G#, 2
	octave 1
	note D#, 2
	octave 2
	note G#, 2
	octave 1
	note C#, 2
	octave 2
	note F#, 2
	octave 1
	note C#, 2
	octave 2
	note F#, 2
	octave 1
	note C#, 2
	octave 2
	note F#, 2
	octave 1
	note C#, 2
	octave 2
	note F#, 2
	octave 1
	note C#, 2
	octave 2
	note F#, 2
	note A#, 2
	octave 3
	note C#, 2
	note F#, 2
	note C#, 2
	octave 2
	note A#, 2
	note F#, 2
	octave 1
	note D#, 2
	octave 2
	note G#, 2
	octave 1
	note D#, 2
	octave 2
	note G#, 2
	octave 1
	note D#, 2
	octave 2
	note G#, 2
	octave 1
	note D#, 2
	octave 2
	note G#, 2
	octave 1
	note D#, 2
	octave 2
	note G#, 2
	octave 3
	note C_, 2
	note D#, 2
	note G#, 2
	note D#, 2
	note C_, 2
	octave 2
	note G#, 2
	octave 1
	note F_, 2
	octave 2
	note A#, 2
	octave 1
	note F_, 2
	octave 2
	note A#, 2
	octave 1
	note F_, 2
	octave 2
	note A#, 2
	octave 1
	note F_, 2
	octave 2
	note A#, 2
	octave 1
	note F_, 2
	octave 2
	note A#, 2
	octave 1
	note F_, 2
	octave 2
	note A#, 2
	octave 1
	note F_, 2
	octave 2
	note A#, 2
	octave 1
	note F_, 2
	octave 2
	note A#, 2
	octave 1
	note D#, 2
	octave 2
	note G#, 2
	octave 1
	note D#, 2
	octave 2
	note G#, 2
	octave 1
	note D#, 2
	octave 2
	note G#, 2
	octave 1
	note D#, 2
	octave 2
	note G#, 2
	octave 1
	note D#, 2
	octave 2
	note G#, 2
	octave 1
	note D#, 2
	octave 2
	note G#, 2
	octave 1
	note D#, 2
	octave 2
	note G#, 2
	octave 1
	note D#, 2
	octave 2
	note G#, 2
	octave 1
	note C#, 2
	octave 2
	note F#, 2
	octave 1
	note C#, 2
	octave 2
	note F#, 2
	octave 1
	note C#, 2
	octave 2
	note F#, 2
	octave 1
	note C#, 2
	octave 2
	note F#, 2
	octave 1
	note C#, 2
	octave 2
	note F#, 2
	note A#, 2
	octave 3
	note C#, 2
	note F#, 2
	note C#, 2
	octave 2
	note A#, 2
	note F#, 2
	octave 1
	note D#, 2
	octave 2
	note G#, 2
	octave 1
	note D#, 2
	octave 2
	note G#, 2
	octave 1
	note D#, 2
	octave 2
	note G#, 2
	octave 1
	note D#, 2
	octave 2
	note G#, 2
	octave 1
	note D#, 2
	octave 2
	note G#, 2
	octave 3
	note C_, 2
	note D#, 2
	note G#, 2
	note D#, 2
	note C_, 2
	octave 2
	note G#, 2
	octave 1
	note F_, 2
	octave 2
	note A#, 2
	octave 1
	note F_, 2
	octave 2
	note A#, 2
	octave 1
	note F_, 2
	octave 2
	note A#, 2
	octave 1
	note F_, 2
	octave 2
	note A#, 2
	octave 1
	note F_, 2
	octave 2
	note A#, 2
	octave 3
	note D_, 2
	note F_, 2
	note A#, 2
	note F_, 2
	note D_, 2
	octave 2
	note A#, 2
	octave 1
	note F_, 2
	octave 2
	note A#, 2
	octave 1
	note F_, 2
	octave 2
	note A#, 2
	octave 1
	note F_, 2
	octave 2
	note A#, 2
	octave 1
	note F_, 2
	octave 2
	note A#, 2
	octave 1
	note F_, 2
	octave 2
	note A#, 2
	octave 3
	note D_, 2
	note F_, 2
	note A#, 2
	note F_, 2
	note D_, 2
	octave 2
	note A#, 2
	octave 1
	note F_, 2
	octave 2
	note A#, 2
	octave 1
	note F_, 2
	octave 2
	note A#, 2
	octave 1
	note D#, 2
	octave 2
	note G#, 2
	octave 1
	note D#, 2
	octave 2
	note G#, 2
	octave 1
	note D#, 2
	octave 2
	note G_, 2
	octave 1
	note G_, 2
	octave 2
	note D#, 2
	octave 1
	note G_, 2
	octave 2
	note D#, 2
	octave 1
	note F_, 2
	octave 2
	note G_, 2
	octave 1
	note D#, 2
	octave 2
	note G_, 2
	octave 1
	note D#, 2
	octave 2
	note G_, 2
	octave 1
	note D#, 2
	octave 2
	note G_, 2
	octave 1
	note D#, 2
	octave 2
	note G_, 2
	octave 1
	note G_, 2
	octave 2
	note A#, 2
	octave 1
	note G_, 2
	octave 2
	note A#, 2
	octave 1
	note G_, 2
	octave 2
	note A#, 2
	octave 1
	note G_, 2
	octave 2
	note A#, 2
	octave 1
	note F_, 2
	octave 2
	note A#, 2
	octave 1
	note F_, 2
	octave 2
	note A#, 2
	octave 1
	note D#, 2
	octave 2
	note G#, 2
	octave 1
	note D#, 2
	octave 2
	note G#, 2
	octave 1
	note D#, 2
	octave 2
	note G_, 2
	octave 1
	note G_, 2
	octave 2
	note D#, 2
	octave 1
	note G_, 2
	octave 2
	note D#, 2
	octave 1
	note F_, 2
	octave 2
	note G_, 2
	octave 1
	note D#, 2
	octave 2
	note G_, 2
	octave 1
	note D#, 2
	octave 2
	note G_, 2
	octave 1
	note D#, 2
	octave 2
	note G_, 2
	octave 1
	note D#, 2
	octave 2
	note G_, 2
	octave 1
	note G_, 2
	octave 2
	note A#, 2
	octave 1
	note G_, 2
	octave 2
	note A#, 2
	octave 3
	note D#, 2
	octave 2
	note A#, 2
	note C#, 2
	note D_, 2
	note C#, 2
	note G#, 2
	note G_, 2
	note E_, 2
	note C#, 2
	note D_, 2
	note C_, 2
	note D_, 2
	note C#, 2
	note G#, 2
	note G_, 2
	note E_, 2
	note C#, 2
	note E_, 2
	note G_, 2
	note E_, 2
	note C#, 2
	note G#, 2
	note G_, 2
	note E_, 2
	note C#, 2
	note E_, 2
	note C_, 2
	note D_, 2
	note C#, 2
	note G#, 2
	note G_, 2
	note D#, 2
	note G#, 2
	note F#, 2
	note B_, 2
	note E_, 2
	note C#, 2
	note G#, 2
	note G_, 2
	note E_, 2
	note C#, 2
	note D_, 2
	note C_, 2
	note D_, 2
	note C#, 2
	note G#, 2
	note G_, 2
	note E_, 2
	note C#, 2
	note E_, 2
	note G_, 2
	note E_, 2
	note C#, 2
	note G#, 2
	note G_, 2
	note E_, 2
	note C#, 2
	note E_, 2
	note C_, 2
	note D_, 2
	note C#, 2
	note G#, 2
	note G_, 2
	note D#, 2
	note G#, 2
	note F#, 2
	note B_, 2
	note E_, 2
	note C#, 2
	note G#, 2
	note G_, 2
	note E_, 2
	note C#, 2
	note D_, 2
	note C_, 2
	note D_, 2
	note C#, 2
	note G#, 2
	note G_, 2
	note E_, 2
	note C#, 2
	note E_, 2
	note G_, 2
	note E_, 2
	note C#, 2
	note G#, 2
	note G_, 2
	note E_, 2
	note C#, 2
	note E_, 2
	note C_, 2
	note D_, 2
	note C#, 2
	note G#, 2
	note G_, 2
	note D#, 2
	note G#, 2
	note F#, 2
	note B_, 2
	note E_, 2
	note C#, 2
	note G#, 2
	note G_, 2
	note E_, 2
	note C#, 2
	note D_, 2
	note C_, 2
	note D_, 2
	note C#, 2
	note G#, 2
	note G_, 2
	note E_, 2
	note C#, 2
	note E_, 2
	note G_, 2
	note E_, 2
	note C#, 2
	note G#, 2
	note G_, 2
	note E_, 2
	note C#, 2
	note E_, 2
	note C_, 2
	note D_, 2
	note C#, 2
	note G#, 2
	note G_, 2
	note D#, 2
	note G#, 2
	note F#, 2
	note B_, 2
	note E_, 2
	note C#, 2
	note G#, 2
	note G_, 2
	note E_, 2
	note C#, 2
	note D_, 2
	note C_, 2
	note D_, 2
	note C#, 2
	note G#, 2
	note G_, 2
	note E_, 2
	note C#, 2
	note E_, 2
	note G_, 2
	note E_, 2
	note C#, 2
	note G#, 2
	note G_, 2
	note E_, 2
	note C#, 2
	note E_, 2
	note C_, 2
	note D_, 2
	note C#, 2
	note G#, 2
	note G_, 2
	note D#, 2
	note G#, 2
	note F#, 2
	note B_, 2
	note E_, 2
	note C#, 2
	note G#, 2
	note G_, 2
	note E_, 2
	note C#, 2
	note D_, 2
	note C_, 2
	note D_, 2
	note C#, 2
	note G#, 2
	note G_, 2
	note E_, 2
	note C#, 2
	note E_, 2
	note G_, 2
	note E_, 2
	note C#, 2
	note G#, 2
	note G_, 2
	note E_, 2
	note C#, 2
	note E_, 2
	note C_, 2
	note D_, 2
	note C#, 2
	note G#, 2
	note G_, 2
	note D#, 2
	note G#, 2
	note F#, 2
	note B_, 2
	note E_, 2
	note C#, 2
	note G#, 2
	note G_, 2
	note E_, 2
	note C#, 2
	note D_, 2
	note C_, 2
	note D_, 2
	note C#, 2
	note G#, 2
	note G_, 2
	note E_, 2
	note C#, 2
	note E_, 2
	note G_, 2
	note E_, 2
	note C#, 2
	note G#, 2
	note G_, 2
	note E_, 2
	note C#, 2
	note E_, 2
	note C_, 2
	note D_, 2
	note C#, 2
	note G#, 2
	note G_, 2
	note D#, 2
	note G#, 2
	note F#, 2
	note B_, 2
	note E_, 2
	sound_jump Music_ChampionBattleDPPt_Ch3_loop

Music_ChampionBattleDPPt_Ch4:
	toggle_noise 3
	drum_speed 12
	drum_note 4, 8
	drum_note 4, 8
	drum_note 4, 8
	drum_note 4, 4
	drum_note 4, 4
	drum_note 4, 2
	drum_note 8, 2
	drum_note 4, 2
	drum_note 8, 2
	drum_note 4, 2
	drum_note 8, 2
	drum_note 4, 2
	drum_note 8, 2
	drum_note 4, 2
	drum_note 8, 2
	drum_note 4, 2
	drum_note 8, 2
	drum_note 4, 2
	drum_note 8, 2
	drum_note 4, 2
	drum_note 8, 2
	drum_note 4, 2
	drum_note 8, 2
	drum_note 4, 2
	drum_note 8, 2
	drum_note 4, 2
	drum_note 8, 2
	drum_note 4, 2
	drum_note 8, 2
	drum_note 4, 2
	drum_note 8, 2
	drum_note 4, 2
	drum_note 8, 2
	drum_note 4, 2
	drum_note 8, 2
	drum_note 1, 1
	drum_note 1, 1
	drum_note 1, 1
	drum_note 1, 1
Music_ChampionBattleDPPt_Ch4_loop:
	drum_note 1, 2
	drum_note 1, 1
	drum_note 1, 1
	drum_note 1, 2
	drum_note 1, 2
	drum_note 1, 1
	drum_note 1, 1
	drum_note 1, 2
	drum_note 1, 2
	drum_note 1, 1
	drum_note 1, 1
	drum_note 1, 2
	drum_note 1, 1
	drum_note 1, 1
	drum_note 1, 2
	drum_note 1, 2
	drum_note 1, 1
	drum_note 1, 1
	drum_note 1, 2
	drum_note 1, 1
	drum_note 1, 1
	drum_note 1, 1
	drum_note 1, 1
	drum_note 1, 2
	drum_note 1, 1
	drum_note 1, 1
	drum_note 1, 2
	drum_note 1, 2
	drum_note 1, 2
	drum_note 1, 2
	drum_note 1, 1
	drum_note 1, 1
	drum_note 1, 2
	drum_note 1, 1
	drum_note 1, 1
	drum_note 1, 1
	drum_note 1, 1
	drum_note 1, 2
	drum_note 1, 2
	drum_note 1, 2
	drum_note 1, 2
	drum_note 1, 1
	drum_note 1, 1
	drum_note 1, 1
	drum_note 1, 1
	drum_note 1, 2
	drum_note 1, 1
	drum_note 1, 1
	drum_note 1, 2
	drum_note 1, 2
	drum_note 1, 1
	drum_note 1, 1
	drum_note 1, 2
	drum_note 1, 2
	drum_note 1, 1
	drum_note 1, 1
	drum_note 1, 2
	drum_note 1, 1
	drum_note 1, 1
	drum_note 1, 2
	drum_note 1, 2
	drum_note 1, 1
	drum_note 1, 1
	drum_note 1, 2
	drum_note 1, 1
	drum_note 1, 1
	drum_note 1, 1
	drum_note 1, 1
	drum_note 1, 2
	drum_note 1, 1
	drum_note 1, 1
	drum_note 1, 2
	drum_note 1, 2
	drum_note 1, 2
	drum_note 1, 2
	drum_note 1, 1
	drum_note 1, 1
	drum_note 1, 2
	drum_note 1, 1
	drum_note 1, 1
	drum_note 1, 1
	drum_note 1, 1
	drum_note 1, 2
	drum_note 1, 2
	drum_note 1, 2
	drum_note 1, 2
	drum_note 1, 1
	drum_note 1, 1
	drum_note 1, 1
	drum_note 1, 1
	drum_note 1, 2
	drum_note 1, 1
	drum_note 1, 1
	drum_note 1, 2
	drum_note 1, 2
	drum_note 1, 1
	drum_note 1, 1
	drum_note 1, 2
	drum_note 1, 2
	drum_note 1, 1
	drum_note 1, 1
	drum_note 1, 2
	drum_note 1, 1
	drum_note 1, 1
	drum_note 1, 2
	drum_note 1, 2
	drum_note 1, 1
	drum_note 1, 1
	drum_note 1, 2
	drum_note 1, 1
	drum_note 1, 1
	drum_note 1, 1
	drum_note 1, 1
	drum_note 1, 2
	drum_note 1, 1
	drum_note 1, 1
	drum_note 1, 2
	drum_note 1, 2
	drum_note 1, 2
	drum_note 1, 2
	drum_note 1, 1
	drum_note 1, 1
	drum_note 1, 2
	drum_note 1, 1
	drum_note 1, 1
	drum_note 1, 1
	drum_note 1, 1
	drum_note 1, 2
	drum_note 1, 2
	drum_note 1, 2
	drum_note 1, 2
	drum_note 1, 1
	drum_note 1, 3
	drum_note 1, 2
	drum_note 1, 1
	drum_note 1, 1
	drum_note 1, 2
	drum_note 1, 2
	drum_note 1, 1
	drum_note 1, 1
	drum_note 1, 2
	drum_note 1, 2
	drum_note 1, 1
	drum_note 1, 1
	drum_note 1, 2
	drum_note 1, 1
	drum_note 1, 1
	drum_note 1, 2
	drum_note 1, 2
	drum_note 1, 1
	drum_note 1, 1
	drum_note 1, 2
	drum_note 1, 1
	drum_note 1, 1
	drum_note 1, 1
	drum_note 1, 1
	drum_note 1, 2
	drum_note 1, 1
	drum_note 1, 1
	drum_note 1, 2
	drum_note 1, 2
	drum_note 1, 2
	drum_note 1, 2
	drum_note 1, 1
	drum_note 1, 1
	drum_note 1, 2
	drum_note 1, 1
	drum_note 1, 1
	drum_note 1, 1
	drum_note 1, 1
	drum_note 1, 2
	drum_note 1, 2
	drum_note 1, 2
	drum_note 1, 2
	drum_note 1, 1
	drum_note 1, 1
	drum_note 1, 1
	drum_note 1, 1
	drum_note 1, 2
	drum_note 1, 1
	drum_note 1, 1
	drum_note 1, 2
	drum_note 1, 2
	drum_note 1, 2
	drum_note 1, 2
	drum_note 1, 1
	drum_note 1, 1
	drum_note 1, 2
	drum_note 1, 1
	drum_note 1, 1
	drum_note 1, 1
	drum_note 1, 1
	drum_note 1, 2
	drum_note 1, 2
	drum_note 1, 2
	drum_note 1, 2
	drum_note 1, 1
	drum_note 1, 1
	drum_note 1, 1
	drum_note 1, 1
	drum_note 1, 2
	drum_note 1, 1
	drum_note 1, 1
	drum_note 1, 2
	drum_note 1, 2
	drum_note 1, 2
	drum_note 1, 2
	drum_note 1, 1
	drum_note 1, 1
	drum_note 1, 2
	drum_note 1, 1
	drum_note 1, 1
	drum_note 1, 1
	drum_note 1, 1
	drum_note 1, 2
	drum_note 1, 2
	drum_note 1, 2
	drum_note 1, 2
	drum_note 1, 1
	drum_note 1, 1
	drum_note 1, 1
	drum_note 1, 1
	drum_note 1, 2
	drum_note 1, 1
	drum_note 1, 1
	drum_note 1, 2
	drum_note 1, 2
	drum_note 1, 2
	drum_note 1, 2
	drum_note 1, 1
	drum_note 1, 1
	drum_note 1, 2
	drum_note 1, 1
	drum_note 1, 1
	drum_note 1, 1
	drum_note 1, 1
	drum_note 1, 2
	drum_note 1, 2
	drum_note 1, 2
	drum_note 1, 2
	drum_note 1, 1
	drum_note 1, 1
	drum_note 1, 1
	drum_note 1, 1
	drum_note 1, 2
	drum_note 1, 1
	drum_note 1, 1
	drum_note 1, 2
	drum_note 1, 2
	drum_note 1, 2
	drum_note 1, 2
	drum_note 1, 1
	drum_note 1, 1
	drum_note 1, 2
	drum_note 1, 1
	drum_note 1, 1
	drum_note 1, 1
	drum_note 1, 1
	drum_note 1, 2
	drum_note 1, 2
	drum_note 1, 2
	drum_note 1, 2
	drum_note 1, 1
	drum_note 1, 1
	drum_note 1, 1
	drum_note 1, 1
	drum_note 12, 2
	drum_note 8, 2
	drum_note 4, 2
	drum_note 8, 2
	drum_note 4, 2
	drum_note 8, 2
	drum_note 4, 2
	drum_note 8, 2
	drum_note 4, 2
	drum_note 8, 2
	drum_note 4, 2
	drum_note 8, 2
	drum_note 4, 2
	drum_note 8, 2
	drum_note 4, 2
	drum_note 8, 2
	drum_note 4, 2
	drum_note 8, 2
	drum_note 4, 2
	drum_note 8, 2
	drum_note 4, 2
	drum_note 8, 2
	drum_note 4, 2
	drum_note 4, 2
	drum_note 4, 2
	drum_note 8, 2
	drum_note 4, 2
	drum_note 8, 2
	drum_note 4, 2
	drum_note 8, 2
	drum_note 4, 2
	drum_note 8, 2
	drum_note 4, 2
	drum_note 8, 2
	drum_note 4, 2
	drum_note 8, 2
	drum_note 4, 2
	drum_note 8, 2
	drum_note 4, 2
	drum_note 8, 2
	drum_note 4, 2
	drum_note 8, 2
	drum_note 4, 2
	drum_note 8, 2
	drum_note 4, 2
	drum_note 8, 2
	drum_note 4, 2
	drum_note 8, 2
	drum_note 4, 2
	drum_note 8, 2
	drum_note 4, 2
	drum_note 8, 2
	drum_note 4, 2
	drum_note 8, 2
	drum_note 4, 2
	drum_note 8, 2
	drum_note 4, 2
	drum_note 8, 2
	drum_note 4, 2
	drum_note 8, 2
	drum_note 4, 2
	drum_note 8, 2
	drum_note 4, 2
	drum_note 1, 1
	drum_note 1, 1
	drum_note 1, 2
	drum_note 1, 1
	drum_note 1, 1
	drum_note 1, 2
	drum_note 1, 2
	drum_note 1, 1
	drum_note 1, 1
	drum_note 1, 2
	drum_note 1, 2
	drum_note 1, 1
	drum_note 1, 1
	drum_note 1, 2
	drum_note 1, 1
	drum_note 1, 1
	drum_note 1, 2
	drum_note 1, 2
	drum_note 1, 1
	drum_note 1, 1
	drum_note 1, 2
	drum_note 1, 1
	drum_note 1, 1
	drum_note 1, 1
	drum_note 1, 1
	drum_note 1, 2
	drum_note 1, 1
	drum_note 1, 1
	drum_note 1, 2
	drum_note 1, 2
	drum_note 1, 2
	drum_note 1, 2
	drum_note 1, 1
	drum_note 1, 1
	drum_note 1, 2
	drum_note 1, 1
	drum_note 1, 1
	drum_note 1, 1
	drum_note 1, 1
	drum_note 1, 2
	drum_note 1, 2
	drum_note 1, 2
	drum_note 1, 2
	drum_note 1, 1
	drum_note 1, 1
	drum_note 1, 1
	drum_note 1, 1
	drum_note 1, 2
	drum_note 1, 1
	drum_note 1, 1
	drum_note 1, 2
	drum_note 1, 2
	drum_note 1, 2
	drum_note 1, 2
	drum_note 1, 1
	drum_note 1, 1
	drum_note 1, 2
	drum_note 1, 1
	drum_note 1, 1
	drum_note 1, 1
	drum_note 1, 1
	drum_note 1, 2
	drum_note 1, 2
	drum_note 1, 2
	drum_note 1, 2
	drum_note 1, 1
	drum_note 1, 1
	drum_note 1, 1
	drum_note 1, 1
	drum_note 1, 2
	drum_note 1, 1
	drum_note 1, 1
	drum_note 1, 2
	drum_note 1, 2
	drum_note 1, 2
	drum_note 1, 2
	drum_note 1, 1
	drum_note 1, 1
	drum_note 1, 2
	drum_note 1, 1
	drum_note 1, 1
	drum_note 1, 1
	drum_note 1, 1
	drum_note 1, 2
	drum_note 1, 2
	drum_note 1, 2
	drum_note 1, 2
	drum_note 1, 1
	drum_note 1, 1
	drum_note 1, 1
	drum_note 1, 1
	drum_note 1, 2
	drum_note 1, 1
	drum_note 1, 1
	drum_note 1, 2
	drum_note 1, 2
	drum_note 1, 2
	drum_note 1, 2
	drum_note 1, 1
	drum_note 1, 1
	drum_note 1, 2
	drum_note 1, 1
	drum_note 1, 1
	drum_note 1, 1
	drum_note 1, 1
	drum_note 1, 2
	drum_note 1, 2
	drum_note 1, 2
	drum_note 1, 2
	drum_note 1, 1
	drum_note 1, 1
	drum_note 1, 1
	drum_note 1, 1
	drum_note 1, 2
	drum_note 1, 1
	drum_note 1, 1
	drum_note 1, 2
	drum_note 1, 2
	drum_note 1, 2
	drum_note 1, 2
	drum_note 1, 1
	drum_note 1, 1
	drum_note 1, 2
	drum_note 1, 1
	drum_note 1, 1
	drum_note 1, 1
	drum_note 1, 1
	drum_note 1, 2
	drum_note 1, 2
	drum_note 1, 2
	drum_note 1, 2
	drum_note 1, 1
	drum_note 1, 1
	drum_note 1, 1
	drum_note 1, 1
	drum_note 1, 2
	drum_note 1, 1
	drum_note 1, 1
	drum_note 1, 2
	drum_note 1, 2
	drum_note 1, 2
	drum_note 1, 2
	drum_note 1, 1
	drum_note 1, 1
	drum_note 1, 2
	drum_note 1, 1
	drum_note 1, 1
	drum_note 1, 1
	drum_note 1, 1
	drum_note 1, 2
	drum_note 1, 2
	drum_note 1, 2
	drum_note 1, 2
	drum_note 1, 1
	drum_note 1, 1
	drum_note 1, 1
	drum_note 1, 1
	drum_note 1, 2
	drum_note 1, 1
	drum_note 1, 1
	drum_note 1, 2
	drum_note 1, 2
	drum_note 1, 2
	drum_note 1, 2
	drum_note 1, 1
	drum_note 1, 1
	drum_note 1, 2
	drum_note 1, 1
	drum_note 1, 1
	drum_note 1, 1
	drum_note 1, 1
	drum_note 1, 2
	drum_note 1, 2
	drum_note 1, 2
	drum_note 1, 2
	drum_note 4, 1
	drum_note 4, 1
	drum_note 4, 1
	drum_note 4, 1
	drum_note 12, 2
	drum_note 8, 2
	drum_note 4, 2
	drum_note 8, 2
	drum_note 4, 2
	drum_note 8, 2
	drum_note 4, 2
	drum_note 8, 2
	drum_note 4, 2
	drum_note 8, 2
	drum_note 4, 2
	drum_note 8, 2
	drum_note 4, 2
	drum_note 8, 2
	drum_note 4, 2
	drum_note 8, 2
	drum_note 12, 2
	drum_note 8, 2
	drum_note 4, 2
	drum_note 8, 2
	drum_note 4, 2
	drum_note 8, 2
	drum_note 12, 2
	drum_note 8, 2
	drum_note 4, 2
	drum_note 12, 4
	drum_note 8, 2
	drum_note 4, 2
	drum_note 8, 2
	drum_note 4, 2
	drum_note 8, 2
	drum_note 12, 2
	drum_note 8, 2
	drum_note 4, 2
	drum_note 8, 2
	drum_note 4, 2
	drum_note 8, 2
	drum_note 4, 2
	drum_note 8, 2
	drum_note 1, 2
	drum_note 1, 1
	drum_note 1, 1
	drum_note 1, 2
	drum_note 1, 2
	drum_note 1, 1
	drum_note 1, 1
	drum_note 1, 2
	drum_note 1, 1
	drum_note 1, 1
	drum_note 1, 1
	drum_note 1, 1
	drum_note 1, 2
	drum_note 1, 1
	drum_note 1, 1
	drum_note 1, 2
	drum_note 1, 2
	drum_note 1, 2
	drum_note 1, 2
	drum_note 1, 1
	drum_note 1, 1
	drum_note 1, 2
	drum_note 1, 1
	drum_note 1, 1
	drum_note 1, 1
	drum_note 1, 1
	drum_note 1, 2
	drum_note 1, 2
	drum_note 1, 2
	drum_note 1, 2
	drum_note 1, 1
	drum_note 1, 1
	drum_note 1, 1
	drum_note 1, 1
	drum_note 12, 16
	rest 16
	rest 16
	rest 4
	drum_note 1, 2
	drum_note 1, 2
	drum_note 1, 2
	drum_note 1, 2
	drum_note 1, 1
	drum_note 1, 1
	drum_note 1, 1
	drum_note 1, 1
	sound_jump Music_ChampionBattleDPPt_Ch4_loop
