; Pokémon D/P/Pt - Eterna Forest
; Ported by FroggestSpirit
; https://github.com/froggestspirit/CrystalComplete/blob/master/audio/music/DPPt/EternaForest.asm

Music_EternaForestDPPt:
	dbw $C0, Music_EternaForestDPPt_Ch1
	dbw $01, Music_EternaForestDPPt_Ch2
	dbw $02, Music_EternaForestDPPt_Ch3
	dbw $03, Music_EternaForestDPPt_Ch4

Music_EternaForestDPPt_Ch1:
	tempo $88
	volume 7, 7
Music_EternaForestDPPt_Ch1_loop:
	note_type 12, 8, 2
	duty_cycle 0
	octave 5
	note __, 1
	note B_, 5
	volume_envelope 7, 2
	note B_, 6
	volume_envelope 6, 2
	note B_, 6
	volume_envelope 5, 2
	note B_, 6
	volume_envelope 4, 2
	note B_, 9
	volume_envelope 8, 2
	note B_, 5
	volume_envelope 7, 2
	note B_, 6
	volume_envelope 6, 2
	note B_, 6
	volume_envelope 5, 2
	note B_, 6
	volume_envelope 4, 2
	note B_, 7
	volume_envelope 8, 2
	octave 4
	note B_, 5
	volume_envelope 7, 2
	note B_, 6
	volume_envelope 6, 2
	note B_, 6
	volume_envelope 5, 2
	note B_, 6
	volume_envelope 4, 2
	note B_, 9
	volume_envelope 8, 2
	octave 5
	note F#, 5
	volume_envelope 7, 2
	note F#, 6
	volume_envelope 6, 2
	note F#, 6
	volume_envelope 5, 2
	note F#, 6
	volume_envelope 4, 2
	note F#, 9
	volume_envelope 8, 2
	octave 4
	note F#, 5
	volume_envelope 7, 2
	note F#, 6
	volume_envelope 6, 2
	note F#, 6
	volume_envelope 8, 2
	note D_, 6
	volume_envelope 7, 2
	note D_, 4
	volume_envelope 8, 2
	note C_, 16
	duty_cycle 1
	note __, 16
	note __, 12
	octave 6
	note C_, 2
	octave 5
	note F#, 2
	octave 6
	note C_, 12
	octave 5
	note F#, 2
	note C_, 2
	note F#, 14
	octave 4
	note B_, 2
	octave 5
	note D_, 10
	octave 3
	note B_, 4
	note A_, 2
	note B_, 2
	octave 4
	note F#, 8
	octave 3
	note B_, 4
	note F#, 2
	octave 4
	note D_, 6
	octave 3
	note G_, 2
	octave 4
	note D_, 6
	octave 3
	note A_, 2
	octave 4
	note D_, 16
	note __, 16
	note __, 2
	octave 6
	note D_, 2
	octave 5
	note G_, 2
	note_type 15, 8, 2
	note B_, 16
	note_type 12, 8, 2
	octave 6
	note D_, 2
	octave 5
	note F#, 2
	note_type 15, 8, 2
	note A_, 16
	note_type 12, 8, 2
	octave 6
	note D_, 2
	octave 5
	note G_, 2
	note D_, 4
	octave 3
	note B_, 2
	octave 4
	note B_, 2
	octave 3
	note A_, 2
	note B_, 2
	octave 4
	note F#, 8
	octave 3
	note B_, 2
	octave 4
	note B_, 2
	octave 3
	note F#, 2
	octave 4
	note F#, 2
	octave 5
	note F#, 4
	octave 3
	note G_, 2
	octave 4
	note G_, 2
	octave 5
	note G_, 4
	octave 4
	note D_, 2
	octave 5
	note D_, 2
	octave 6
	note D_, 8
	octave 4
	note G_, 2
	octave 5
	note C_, 2
	note G_, 2
	octave 4
	note G_, 2
	octave 6
	note C_, 2
	note G_, 2
	note F#, 2
	note G_, 2
	note D_, 2
	octave 4
	note G_, 4
	octave 5
	note D_, 2
	note G_, 8
	octave 4
	note G_, 2
	note B_, 2
	octave 5
	note G_, 2
	octave 4
	note G_, 2
	octave 5
	note B_, 2
	octave 6
	note G_, 2
	note F#, 2
	note G_, 2
	note D_, 2
	octave 4
	note G_, 4
	octave 5
	note D_, 2
	note G_, 6
	note B_, 4
	note G_, 4
	note A_, 2
	note D_, 6
	octave 4
	note B_, 4
	note G_, 4
	note A_, 2
	octave 5
	note D_, 2
	note E_, 16
	note __, 6
	note F#, 4
	note G_, 2
	note F#, 4
	note D_, 16
	note __, 6
	note A_, 4
	note B_, 2
	note A_, 4
	note E_, 16
	note __, 16
	note __, 2
	octave 6
	note D_, 2
	note C_, 2
	octave 5
	note G_, 2
	note E_, 2
	note C_, 2
	octave 4
	note B_, 2
	note G_, 2
	note C_, 2
	octave 6
	note D#, 2
	note C_, 2
	octave 5
	note A_, 2
	note F#, 2
	note D#, 2
	note C_, 2
	octave 4
	note A_, 2
	note D#, 3
	duty_cycle 0
	octave 5
	note B_, 5
	volume_envelope 7, 2
	note B_, 6
	volume_envelope 6, 2
	note B_, 6
	volume_envelope 5, 2
	note B_, 6
	volume_envelope 4, 2
	note B_, 9
	volume_envelope 8, 2
	note B_, 5
	volume_envelope 7, 2
	note B_, 6
	volume_envelope 6, 2
	note B_, 6
	volume_envelope 5, 2
	note B_, 6
	volume_envelope 4, 2
	note B_, 9
	volume_envelope 8, 2
	note B_, 5
	volume_envelope 7, 2
	note B_, 6
	volume_envelope 6, 2
	note B_, 6
	volume_envelope 5, 2
	note B_, 6
	volume_envelope 4, 2
	note B_, 9
	volume_envelope 8, 2
	note B_, 5
	volume_envelope 7, 2
	note B_, 6
	volume_envelope 6, 2
	note B_, 6
	volume_envelope 5, 2
	note B_, 6
	volume_envelope 4, 2
	note B_, 8
	sound_jump Music_EternaForestDPPt_Ch1_loop

Music_EternaForestDPPt_Ch2:
Music_EternaForestDPPt_Ch2_loop:
	note_type 12, 9, 2
	duty_cycle 0
	octave 5
	note D_, 6
	volume_envelope 8, 2
	note D_, 6
	volume_envelope 7, 2
	note D_, 6
	volume_envelope 6, 2
	note D_, 6
	volume_envelope 5, 2
	note D_, 8
	volume_envelope 9, 2
	note E_, 6
	volume_envelope 8, 2
	note E_, 6
	volume_envelope 7, 2
	note E_, 6
	volume_envelope 6, 2
	note E_, 6
	volume_envelope 5, 2
	note E_, 6
	volume_envelope 9, 2
	octave 4
	note E_, 6
	volume_envelope 8, 2
	note E_, 6
	volume_envelope 7, 2
	note E_, 6
	volume_envelope 6, 2
	note E_, 6
	volume_envelope 5, 2
	note E_, 8
	volume_envelope 9, 2
	note B_, 6
	volume_envelope 8, 2
	note B_, 6
	volume_envelope 7, 2
	note B_, 6
	volume_envelope 6, 2
	note B_, 6
	volume_envelope 5, 2
	note B_, 8
	volume_envelope 9, 2
	octave 3
	note B_, 6
	volume_envelope 8, 2
	note B_, 6
	volume_envelope 7, 2
	note B_, 6
	volume_envelope 6, 2
	note G_, 6
	volume_envelope 5, 2
	note G_, 4
	volume_envelope 9, 2
	note F#, 6
	volume_envelope 11, 6
	duty_cycle 2
	octave 2
	note C_, 2
	note __, 4
	octave 1
	note C_, 2
	note __, 16
	note __, 8
	octave 2
	note C_, 2
	note __, 4
	octave 1
	note C_, 2
	note __, 16
	note __, 8
	note G_, 2
	note __, 4
	octave 1
	note G_, 2
	note __, 16
	note __, 16
	note __, 8
	octave 1
	note E_, 2
	note __, 6
	note D_, 2
	note __, 6
	octave 2
	note C_, 2
	note __, 4
	octave 1
	note C_, 2
	note __, 16
	note __, 8
	octave 2
	note C_, 2
	note __, 4
	octave 1
	note C_, 2
	note __, 16
	note __, 8
	note G_, 2
	note __, 4
	octave 1
	note G_, 2
	note __, 16
	note __, 16
	note __, 8
	octave 1
	note E_, 2
	note __, 6
	note D_, 2
	note __, 6
	octave 1
	note A_, 2
	note __, 4
	note A_, 2
	note __, 2
	note A_, 2
	note __, 1
	note A_, 2
	note __, 1
	note B_, 2
	note __, 4
	note B_, 2
	note __, 2
	note B_, 2
	note __, 1
	note B_, 2
	note __, 1
	octave 1
	note E_, 2
	note __, 4
	note E_, 2
	note __, 2
	note E_, 2
	note __, 1
	note E_, 2
	note __, 1
	note D_, 2
	note __, 4
	note D_, 2
	note __, 2
	note D_, 2
	note __, 1
	note D_, 2
	note __, 1
	octave 1
	note A_, 2
	note __, 6
	note B_, 2
	note __, 6
	note A_, 2
	note __, 2
	note B_, 2
	note __, 2
	octave 1
	note C_, 2
	note D_, 2
	note __, 2
	note C_, 16
	note __, 16
	note __, 2
	octave 1
	note B_, 16
	note __, 16
	note __, 4
	octave 1
	note A_, 4
	octave 2
	note C_, 4
	octave 1
	note A_, 4
	note B_, 4
	octave 2
	note D_, 4
	note F#, 4
	note A_, 4
	octave 3
	note C_, 6
	octave 2
	note C_, 6
	octave 3
	note C_, 4
	octave 4
	note C_, 6
	octave 3
	note C_, 10
	volume_envelope 9, 2
	duty_cycle 0
	octave 5
	note C_, 6
	volume_envelope 8, 2
	note C_, 6
	volume_envelope 7, 2
	note C_, 6
	volume_envelope 6, 2
	note C_, 6
	volume_envelope 5, 2
	note C_, 8
	volume_envelope 9, 2
	octave 4
	note G_, 6
	volume_envelope 8, 2
	note G_, 6
	volume_envelope 7, 2
	note G_, 6
	volume_envelope 6, 2
	note G_, 6
	volume_envelope 5, 2
	note G_, 8
	volume_envelope 9, 2
	octave 5
	note C_, 6
	volume_envelope 8, 2
	note C_, 6
	volume_envelope 7, 2
	note C_, 6
	volume_envelope 6, 2
	note C_, 6
	volume_envelope 5, 2
	note C_, 8
	volume_envelope 9, 2
	octave 4
	note G_, 6
	volume_envelope 8, 2
	note G_, 6
	volume_envelope 7, 2
	note G_, 6
	volume_envelope 6, 2
	note G_, 6
	volume_envelope 5, 2
	note G_, 8
	sound_jump Music_EternaForestDPPt_Ch2_loop

Music_EternaForestDPPt_Ch3:
Music_EternaForestDPPt_Ch3_loop:
	note_type 12, 1, 2
	vibrato $10, $14
	octave 7
	note __, 16
	note __, 16
	note __, 16
	octave 5
	note B_, 2
	octave 6
	note C_, 2
	note __, 2
	octave 5
	note B_, 2
	note A_, 2
	note B_, 2
	note __, 2
	octave 6
	note C_, 2
	octave 5
	note B_, 2
	note __, 2
	note F#, 2
	note G_, 2
	note __, 2
	note A_, 2
	note __, 2
	note G_, 2
	note F#, 2
	note G_, 2
	note __, 2
	note A_, 2
	note G_, 2
	note __, 2
	note E_, 2
	note G_, 2
	note F#, 2
	note G_, 2
	note __, 2
	note F#, 2
	note D_, 2
	note __, 2
	octave 4
	note B_, 2
	note __, 16
	note __, 16
	note __, 16
	note __, 16
	note __, 2
	octave 5
	note B_, 2
	octave 6
	note C_, 2
	note __, 2
	octave 5
	note B_, 2
	note A_, 2
	note B_, 2
	note __, 2
	octave 6
	note C_, 2
	octave 5
	note B_, 2
	note __, 2
	note F#, 2
	note G_, 2
	note __, 2
	note A_, 2
	note __, 2
	note G_, 2
	note F#, 2
	note G_, 2
	note __, 2
	note A_, 2
	note G_, 2
	note __, 2
	note E_, 2
	note G_, 2
	note F#, 2
	note G_, 2
	note __, 2
	note F#, 2
	note D_, 2
	note __, 2
	octave 4
	note B_, 2
	note __, 16
	note __, 16
	note __, 16
	note __, 14
	octave 5
	note E_, 2
	note F#, 2
	note G_, 2
	note B_, 2
	note __, 2
	note A_, 2
	octave 6
	note D_, 2
	note C_, 2
	note __, 2
	octave 5
	note B_, 2
	note F#, 2
	note __, 2
	note G_, 2
	note A_, 2
	note __, 2
	note B_, 2
	note __, 2
	octave 6
	note C_, 2
	octave 5
	note B_, 2
	octave 6
	note C_, 2
	note __, 2
	note D_, 2
	note __, 2
	note A_, 2
	note F#, 2
	note G_, 2
	note A_, 2
	note G_, 2
	note __, 2
	note D_, 2
	note __, 2
	octave 5
	note B_, 2
	note __, 16
	note __, 16
	note __, 16
	note __, 4
	octave 4
	note G_, 8
	octave 5
	note C_, 4
	octave 4
	note B_, 8
	octave 5
	note D_, 4
	note A_, 4
	note G_, 12
	octave 4
	note B_, 4
	octave 5
	note D_, 8
	note G_, 4
	note A_, 4
	note G_, 8
	note E_, 4
	note F#, 4
	note G_, 4
	note A_, 4
	note B_, 4
	octave 6
	note C_, 2
	note D_, 4
	note E_, 2
	note_type 8, 1, 2
	note F#, 4
	note G_, 4
	note F#, 4
	note D_, 4
	octave 5
	note B_, 4
	octave 6
	note E_, 4
	note_type 12, 1, 2
	octave 5
	note G_, 16
	note_type 8, 1, 2
	note A_, 4
	note B_, 4
	note A_, 4
	note G_, 4
	note E_, 4
	note A_, 4
	note_type 12, 1, 2
	note D_, 12
	note A_, 4
	note G_, 8
	note E_, 4
	note A_, 8
	note G_, 4
	note B_, 4
	note A_, 4
	octave 6
	note D_, 16
	note C_, 16
	note C_, 8
	octave 5
	note C_, 2
	octave 6
	note F#, 2
	note F#, 2
	octave 5
	note C_, 2
	octave 6
	note A_, 2
	note B_, 4
	note __, 16
	note __, 2
	octave 4
	note G_, 2
	octave 6
	note D_, 2
	note D_, 2
	octave 4
	note G_, 2
	octave 6
	note A_, 2
	note B_, 4
	note __, 16
	note __, 2
	octave 5
	note C_, 2
	octave 6
	note F#, 2
	note F#, 2
	octave 5
	note C_, 2
	octave 6
	note A_, 2
	note B_, 2
	octave 7
	note D_, 2
	note __, 16
	note __, 2
	octave 4
	note G_, 2
	octave 6
	note D_, 2
	note D_, 2
	octave 4
	note G_, 2
	octave 6
	note A_, 2
	note B_, 2
	octave 7
	note D_, 2
	note __, 10
	sound_jump Music_EternaForestDPPt_Ch3_loop

Music_EternaForestDPPt_Ch4:
	toggle_noise 4
Music_EternaForestDPPt_Ch4_loop:
	note_type 12
	note __, 16
	note __, 16
	note __, 16
	note __, 16
	note __, 16
	note __, 16
	note __, 16
	note __, 16
	note __, 16
	note __, 16
	note F#, 2
	note G#, 2
	note G#, 2
	note G#, 2
	note F#, 2
	note G#, 2
	note G#, 2
	note G#, 2
	note F#, 2
	note G#, 2
	note G#, 2
	note G#, 2
	note F#, 2
	note G#, 2
	note G#, 2
	note G#, 2
	note F#, 2
	note G#, 2
	note G#, 2
	note G#, 2
	note F#, 2
	note G#, 2
	note G#, 2
	note G#, 2
	note F#, 2
	note G#, 2
	note G#, 2
	note G#, 2
	note F#, 2
	note G#, 2
	note G#, 2
	note G#, 2
	note F#, 2
	note G#, 2
	note G#, 2
	note G#, 2
	note F#, 2
	note G#, 2
	note G#, 2
	note G#, 2
	note F#, 2
	note G#, 2
	note G#, 2
	note G#, 2
	note F#, 2
	note G#, 2
	note G#, 2
	note G#, 2
	note F#, 2
	note G#, 2
	note G#, 2
	note G#, 2
	note F#, 2
	note G#, 2
	note G#, 2
	note G#, 2
	note F#, 2
	note G#, 2
	note G#, 2
	note G#, 2
	note F#, 2
	note G#, 2
	note G#, 2
	note G#, 2
	note F#, 2
	note G#, 2
	note G#, 2
	note G#, 2
	note F#, 2
	note G#, 2
	note G#, 2
	note G#, 2
	note F#, 2
	note G#, 2
	note G#, 2
	note G#, 2
	note F#, 2
	note G#, 2
	note G#, 2
	note G#, 2
	note F#, 2
	note G#, 2
	note G#, 2
	note G#, 2
	note F#, 2
	note G#, 2
	note G#, 2
	note G#, 2
	note F#, 2
	note G#, 2
	note G#, 2
	note G#, 2
	note F#, 2
	note G#, 2
	note G#, 2
	note G#, 2
	note F#, 2
	note G#, 2
	note G#, 2
	note G#, 2
	note F#, 2
	note G#, 2
	note G#, 2
	note G#, 2
	note F#, 2
	note G#, 2
	note G#, 2
	note G#, 2
	note F#, 2
	note G#, 2
	note G#, 2
	note G#, 2
	note F#, 2
	note G#, 2
	note G#, 2
	note G#, 2
	note F#, 2
	note G#, 2
	note G#, 2
	note G#, 2
	note F#, 2
	note G#, 2
	note G#, 2
	note G#, 2
	note F#, 2
	note G#, 2
	note G#, 2
	note G#, 2
	note D#, 2
	note F#, 1
	note D#, 1
	note C_, 2
	note D#, 2
	note F#, 2
	note D#, 2
	note C_, 1
	note D#, 1
	note F#, 2
	note D#, 2
	note F#, 1
	note D#, 1
	note C_, 2
	note D#, 2
	note F#, 2
	note D#, 2
	note C_, 1
	note D#, 1
	note F#, 2
	note D#, 2
	note F#, 1
	note D#, 1
	note C_, 2
	note D#, 2
	note F#, 2
	note D#, 2
	note C_, 1
	note D#, 1
	note F#, 2
	note D#, 2
	note F#, 1
	note D#, 1
	note C_, 2
	note D#, 2
	note F#, 2
	note D#, 2
	note C_, 1
	note D#, 1
	note F#, 2
	note D#, 2
	note D#, 2
	note C_, 1
	note D#, 2
	note C_, 1
	note D#, 2
	note D#, 2
	note C_, 1
	note D#, 2
	note C_, 1
	note D#, 2
	note D#, 2
	note C_, 1
	note C_, 2
	note C_, 1
	note C_, 2
	note C_, 2
	note C_, 1
	note D#, 2
	note C_, 1
	note F#, 16
	note __, 16
	note __, 16
	note __, 16
	note __, 16
	note __, 16
	note __, 16
	note __, 16
	note __, 16
	note __, 16
	note __, 16
	note __, 16
	note __, 16
	note __, 16
	note __, 16
	note __, 16
	sound_jump Music_EternaForestDPPt_Ch4_loop
