; Pokémon D/P/Pt - Battle! Gym Leader
; Demixed by FroggestSpirit
; https://soundcloud.com/froggestspirit/battle-gym-leader

Music_GymLeaderBattleDPPt:
	channel_count 4
	channel 1, Music_GymLeaderBattleDPPt_Ch1
	channel 2, Music_GymLeaderBattleDPPt_Ch2
	channel 3, Music_GymLeaderBattleDPPt_Ch3
	channel 4, Music_GymLeaderBattleDPPt_Ch4

Music_GymLeaderBattleDPPt_Ch1:
	tempo 106
	volume 7, 7
	stereo_panning TRUE, TRUE
	duty_cycle 1
	pitch_offset 2
	vibrato 8, 1, 5
	octave 2
	note_type 12, 11, 6
	note A#, 8
	note B_, 8
	octave 3
	note C_, 8
	note C#, 8
	volume_envelope 11, 2
	note C_, 2
	rest 4
	note C_, 2
	rest 4
	note C_, 2
	rest 4
	note C_, 2
	rest 4
	volume_envelope 11, 4
	note F_, 4
	note C#, 4
	volume_envelope 11, 2
	note C_, 2
	rest 4
	note C_, 2
	rest 4
	note C_, 2
	rest 4
	note C_, 2
	rest 4
	volume_envelope 11, 4
	octave 2
	note A#, 4
	octave 3
	note C#, 4
	volume_envelope 11, 2
	octave 4
	note C_, 2
	rest 4
	note C_, 2
	rest 4
	note C_, 2
	rest 4
	note C_, 2
	rest 4
	volume_envelope 11, 4
	note F_, 4
	note C#, 4
	volume_envelope 11, 2
	note C_, 2
	rest 4
	note C_, 2
	rest 4
	note C_, 2
	rest 4
	note C_, 2
	rest 4
	volume_envelope 11, 4
	octave 3
	note A#, 4
	octave 4
	note C#, 4
Music_GymLeaderBattleDPPt_Ch1_loop:
	octave 2
	note G_, 6
	octave 3
	note C_, 6
	octave 2
	note A#, 2
	octave 3
	note C_, 2
	note C#, 6
	note F_, 4
	note D#, 2
	note C#, 2
	note F_, 2
	note E_, 6
	note C_, 10
	rest 16
	octave 2
	note G_, 6
	octave 3
	note C_, 6
	octave 2
	note A#, 2
	octave 3
	note C_, 2
	note C#, 6
	note F_, 4
	note D#, 2
	note C#, 2
	note F_, 2
	note E_, 6
	note G_, 10
	duty_cycle 2
	octave 2
	note E_, 6
	note G_, 10
	rest 12
	duty_cycle 1
	note G_, 4
	note G#, 3
	note G_, 3
	note F_, 3
	note G#, 7
	rest 12
	duty_cycle 0
	octave 4
	note C#, 4
	note C_, 3
	note C#, 3
	note C_, 2
	note E_, 8
	rest 8
	note_type 8, 11, 4
	note C#, 4
	note C_, 4
	octave 3
	note A#, 4
	octave 4
	note F_, 4
	note D#, 4
	note C#, 4
	octave 3
	note A#, 4
	octave 4
	note C_, 4
	note C#, 4
	note_type 12, 11, 4
	note E_, 12
	note C#, 4
	note C_, 16
	octave 1
	note G_, 2
	octave 2
	note G_, 2
	octave 1
	note G_, 2
	octave 2
	note G#, 6
	note G#, 2
	note F_, 2
	octave 1
	note G_, 2
	octave 2
	note G_, 2
	octave 1
	note G_, 2
	octave 2
	note G#, 6
	note G#, 2
	note F_, 2
	octave 1
	note G_, 2
	octave 2
	note G_, 2
	octave 1
	note G_, 2
	octave 2
	note G#, 6
	note G#, 2
	note F_, 2
	octave 1
	note G_, 2
	octave 2
	note G_, 2
	octave 1
	note G_, 2
	octave 2
	note G#, 6
	octave 3
	note E_, 1
	note G#, 1
	note B_, 1
	octave 4
	note D#, 1
	note E_, 1
	rest 1
	octave 2
	note A_, 2
	octave 1
	note A_, 2
	octave 2
	note A#, 6
	note A#, 2
	note G_, 2
	octave 1
	note A_, 2
	octave 2
	note A_, 2
	octave 1
	note A_, 2
	octave 2
	note A#, 6
	note A#, 2
	note G_, 2
	octave 1
	note A_, 2
	octave 2
	note A_, 2
	octave 1
	note A_, 2
	octave 2
	note A#, 6
	note A#, 2
	note G_, 2
	octave 1
	note A_, 2
	octave 2
	note A_, 2
	octave 1
	note A_, 4
	duty_cycle 2
	pitch_slide 1, 1, G_
	octave 2
	note A#, 8
	rest 16
	rest 16
	rest 16
	rest 12
	volume_envelope 11, 2
	note G_, 1
	octave 3
	note C_, 1
	note E_, 1
	note G_, 1
	octave 4
	note C_, 2
	rest 4
	note C_, 2
	rest 4
	note C_, 2
	rest 4
	note C_, 2
	rest 4
	volume_envelope 11, 4
	octave 3
	note G#, 4
	octave 4
	note C#, 4
	volume_envelope 11, 2
	note C_, 2
	rest 4
	note C_, 2
	rest 4
	note C_, 2
	rest 4
	note C_, 2
	rest 4
	note C#, 4
	volume_envelope 11, 4
	octave 3
	note A#, 4
	volume_envelope 11, 2
	octave 4
	note C_, 2
	rest 4
	note C_, 2
	rest 4
	note C_, 2
	rest 4
	note C_, 2
	rest 4
	volume_envelope 11, 4
	octave 3
	note G#, 8
	duty_cycle 1
	octave 2
	note E_, 2
	note D_, 2
	note E_, 2
	note G_, 6
	note F_, 2
	note G_, 2
	note G#, 2
	note G_, 5
	note A#, 1
	octave 3
	note C#, 2
	note C_, 2
	octave 2
	note A#, 2
	octave 3
	note C#, 2
	note C_, 4
	note C_, 2
	octave 2
	note G_, 10
	rest 12
	octave 3
	note D_, 1
	octave 2
	note B_, 1
	note G#, 1
	note F_, 1
	note E_, 1
	note D_, 1
	note E_, 1
	rest 1
	note E_, 1
	rest 1
	note G_, 6
	note F_, 2
	note G_, 2
	note G#, 2
	note G_, 4
	note A#, 1
	octave 3
	note C_, 1
	note C#, 2
	note C_, 2
	octave 2
	note A#, 2
	octave 3
	note C#, 2
	note C_, 1
	octave 2
	note A#, 1
	octave 3
	note C_, 1
	rest 1
	note C_, 1
	rest 1
	note E_, 10
	octave 4
	note C_, 1
	octave 3
	note A#, 1
	octave 4
	note C_, 1
	rest 1
	note C_, 1
	rest 1
	note E_, 6
	octave 3
	note G_, 4
	rest 12
	octave 2
	note G_, 4
	note G#, 3
	note G_, 3
	note F_, 3
	note G#, 7
	rest 12
	duty_cycle 0
	octave 4
	note C#, 4
	note C_, 3
	note C#, 3
	note C_, 2
	note E_, 8
	rest 8
	note_type 8, 11, 4
	note C#, 4
	note C_, 4
	octave 3
	note A#, 4
	octave 4
	note F_, 4
	note D#, 4
	note C#, 4
	octave 3
	note A#, 4
	octave 4
	note C_, 4
	note C#, 4
	note_type 12, 11, 4
	note E_, 12
	note C#, 4
	note C_, 16
	rest 16
	rest 16
	rest 16
	rest 16
	note C_, 2
	rest 4
	note C_, 2
	rest 16
	rest 8
	note C_, 2
	rest 4
	note C_, 2
	rest 2
	note C_, 2
	note_type 15, 11, 4
	rest 16
	octave 2
	note_type 12, 11, 4
	note F_, 4
	note A#, 4
	octave 3
	note F_, 1
	rest 1
	note C#, 2
	octave 2
	note A#, 2
	note F#, 2
	duty_cycle 1
	sound_jump Music_GymLeaderBattleDPPt_Ch1_loop

Music_GymLeaderBattleDPPt_Ch2:
	duty_cycle 1
	pitch_offset 1
	vibrato 8, 3, 6
	octave 4
	note_type 12, 12, 1
	note E_, 1
	octave 5
	note C#, 1
	note C_, 1
	note C#, 1
	octave 4
	note E_, 1
	octave 5
	note C#, 1
	note C_, 1
	note C#, 1
	octave 4
	note E_, 1
	octave 5
	note C#, 1
	note C_, 1
	note C#, 1
	octave 4
	note E_, 1
	octave 5
	note C#, 1
	note C_, 1
	note C#, 1
	octave 4
	note E_, 1
	octave 5
	note C#, 1
	note C_, 1
	note C#, 1
	octave 4
	note E_, 1
	octave 5
	note C#, 1
	note C_, 1
	note C#, 1
	octave 4
	note E_, 1
	octave 5
	note C#, 1
	note C_, 1
	note C#, 1
	octave 4
	note E_, 1
	octave 5
	note C#, 1
	note C_, 1
	note C#, 1
	volume_envelope 12, 2
	octave 3
	note E_, 6
	note E_, 6
	note E_, 6
	note E_, 6
	volume_envelope 12, 4
	note G#, 4
	note F_, 4
	volume_envelope 12, 2
	note E_, 6
	note E_, 6
	note E_, 6
	note E_, 6
	volume_envelope 12, 4
	note C#, 4
	note F_, 4
	volume_envelope 12, 2
	octave 4
	note E_, 6
	note E_, 6
	note E_, 6
	note E_, 6
	volume_envelope 12, 4
	note G#, 4
	note F_, 4
	volume_envelope 12, 2
	note E_, 6
	note E_, 6
	note E_, 6
	note E_, 6
	volume_envelope 12, 4
	note C#, 4
	note F_, 4
Music_GymLeaderBattleDPPt_Ch2_loop:
	octave 3
	note G_, 6
	octave 4
	note C_, 6
	octave 3
	note A#, 2
	octave 4
	note C_, 2
	note C#, 6
	note F_, 4
	note D#, 2
	note C#, 2
	note F_, 2
	note E_, 6
	note C_, 6
	duty_cycle 2
	octave 3
	note G_, 1
	octave 4
	note D_, 1
	note F_, 1
	rest 1
	note E_, 6
	note C_, 10
	duty_cycle 1
	octave 3
	note G_, 6
	octave 4
	note C_, 6
	octave 3
	note A#, 2
	octave 4
	note C_, 2
	note C#, 6
	note F_, 4
	note D#, 2
	note C#, 2
	note F_, 2
	note E_, 6
	volume_envelope 12, 7
	note G_, 16
	rest 6
	volume_envelope 12, 5
	note G_, 4
	volume_envelope 12, 4
	note G#, 3
	note G_, 3
	note F_, 3
	volume_envelope 12, 7
	note C#, 16
	note_type 1, 12, 7
	rest 12
	note_type 12, 12, 7
	volume_envelope 12, 4
	note F_, 6
	note E_, 3
	note F_, 3
	note G_, 3
	volume_envelope 12, 7
	note G_, 16
	rest 3
	volume_envelope 12, 4
	note G_, 4
	note_type 8, 12, 4
	note G#, 4
	note G_, 4
	note F_, 4
	note_type 12, 12, 7
	note C#, 16
	volume_envelope 12, 4
	note F_, 8
	note_type 8, 12, 4
	note E_, 4
	note F_, 4
	note G_, 4
	volume_envelope 12, 7
	note G_, 16
	rest 16
	rest 4
	duty_cycle 0
	volume_envelope 12, 2
	octave 2
	note C_, 3
	octave 3
	note C_, 3
	octave 2
	note C_, 3
	volume_envelope 12, 5
	octave 3
	note C#, 9
	volume_envelope 12, 2
	note C#, 3
	octave 2
	note A#, 3
	note C_, 3
	octave 3
	note C_, 3
	octave 2
	note C_, 3
	volume_envelope 12, 5
	octave 3
	note C#, 9
	volume_envelope 12, 2
	note C#, 3
	octave 2
	note A#, 3
	note C_, 3
	octave 3
	note C_, 3
	octave 2
	note C_, 3
	volume_envelope 12, 5
	octave 3
	note C#, 9
	volume_envelope 12, 2
	note C#, 3
	octave 2
	note A#, 3
	note C_, 3
	octave 3
	note C_, 3
	octave 2
	note C_, 3
	volume_envelope 12, 5
	octave 3
	note C#, 9
	volume_envelope 12, 2
	note C#, 3
	octave 2
	note A#, 3
	note D_, 3
	octave 3
	note D_, 3
	octave 2
	note D_, 3
	volume_envelope 12, 5
	octave 3
	note D#, 9
	volume_envelope 12, 2
	note D#, 3
	note C_, 3
	octave 2
	note D_, 3
	octave 3
	note D_, 3
	octave 2
	note D_, 3
	volume_envelope 12, 5
	octave 3
	note D#, 9
	volume_envelope 12, 2
	note D#, 3
	note C_, 3
	octave 2
	note D_, 3
	octave 3
	note D_, 3
	octave 2
	note D_, 3
	volume_envelope 12, 5
	octave 3
	note D#, 9
	volume_envelope 12, 2
	note D#, 3
	note C_, 3
	octave 2
	note D_, 3
	octave 3
	note D_, 3
	octave 2
	note D_, 3
	volume_envelope 12, 5
	octave 3
	note D#, 9
	volume_envelope 12, 2
	note D#, 3
	note C_, 3
	duty_cycle 2
	octave 2
	note G_, 3
	note F_, 3
	note G_, 3
	note G#, 6
	note G_, 3
	note F_, 3
	note G#, 3
	note_type 6, 12, 2
	note G_, 1
	rest 1
	note G_, 2
	note F_, 4
	note G_, 4
	note G#, 4
	note G_, 1
	rest 1
	note G_, 2
	note F_, 4
	note C#, 4
	note G#, 4
	note G_, 4
	note F_, 4
	note G_, 4
	note G#, 8
	note G_, 4
	note F_, 4
	note G#, 4
	note G_, 4
	note F_, 4
	note G_, 4
	note G#, 4
	octave 3
	note C_, 4
	note C_, 4
	duty_cycle 1
	note E_, 2
	note G_, 2
	octave 4
	note C_, 2
	note D#, 2
	note E_, 4
	rest 8
	note E_, 4
	rest 8
	note E_, 4
	rest 8
	note E_, 4
	rest 8
	volume_envelope 12, 4
	note C#, 8
	note F_, 8
	volume_envelope 12, 2
	note E_, 4
	rest 8
	note E_, 4
	rest 8
	note E_, 4
	rest 8
	note E_, 4
	rest 8
	volume_envelope 12, 4
	note G#, 8
	note F_, 8
	volume_envelope 12, 2
	note E_, 4
	rest 8
	note E_, 4
	rest 8
	note E_, 4
	rest 8
	note E_, 4
	rest 8
	duty_cycle 2
	note G#, 2
	note F_, 2
	note C#, 2
	octave 3
	note A#, 2
	note F_, 2
	note G#, 2
	octave 4
	note C#, 2
	octave 3
	note A#, 2
	duty_cycle 1
	volume_envelope 12, 4
	note G_, 4
	note F_, 4
	note G_, 4
	octave 4
	note C_, 12
	octave 3
	note A#, 4
	octave 4
	note C_, 4
	note C#, 4
	note C_, 8
	note C_, 2
	note D#, 2
	note F_, 4
	note D#, 4
	note C#, 4
	note F_, 4
	note E_, 4
	rest 4
	note E_, 4
	note C_, 12
	duty_cycle 2
	octave 3
	note G_, 2
	octave 4
	note D_, 2
	note F_, 2
	note D_, 2
	note E_, 4
	rest 4
	note E_, 4
	note C_, 12
	duty_cycle 1
	note E_, 2
	note C#, 2
	octave 3
	note A#, 2
	note G#, 2
	note G_, 2
	note F_, 2
	note G_, 2
	rest 2
	note G_, 2
	rest 2
	octave 4
	note C_, 12
	octave 3
	note A#, 4
	octave 4
	note C_, 4
	note C#, 4
	note C_, 8
	note C#, 2
	note D#, 2
	note F_, 4
	note D#, 4
	note C#, 4
	note F_, 4
	note E_, 2
	note D_, 2
	note E_, 2
	rest 2
	note E_, 2
	rest 2
	volume_envelope 12, 7
	note G_, 16
	rest 16
	rest 12
	volume_envelope 12, 4
	note G_, 8
	note G#, 6
	note G_, 6
	note F_, 6
	volume_envelope 12, 7
	note C#, 16
	rest 16
	rest 2
	volume_envelope 12, 4
	note F_, 12
	note E_, 6
	note F_, 6
	note G_, 6
	volume_envelope 12, 7
	note G_, 16
	rest 16
	rest 6
	volume_envelope 12, 4
	note G_, 8
	note_type 8, 12, 4
	note G#, 4
	note G_, 4
	note F_, 4
	note_type 12, 12, 7
	note C#, 16
	volume_envelope 12, 4
	note F_, 8
	note_type 8, 12, 4
	note E_, 4
	note F_, 4
	note G_, 4
	volume_envelope 12, 7
	note G_, 16
	rest 16
	rest 4
	rest 16
	rest 16
	rest 16
	rest 16
	rest 16
	rest 16
	volume_envelope 12, 2
	note E_, 3
	rest 6
	note E_, 3
	rest 16
	rest 16
	rest 4
	note E_, 3
	rest 6
	note E_, 3
	rest 3
	note E_, 3
	rest 16
	rest 16
	rest 10
	duty_cycle 2
	note_type 12, 12, 2
	note G#, 1
	note F_, 1
	note C#, 1
	octave 3
	note A#, 1
	note F_, 1
	note G#, 1
	octave 4
	note C#, 1
	octave 3
	note A#, 1
	volume_envelope 12, 4
	duty_cycle 1
	sound_jump Music_GymLeaderBattleDPPt_Ch2_loop

Music_GymLeaderBattleDPPt_Ch3:
	note_type 12, 1, 9
	octave 1
	note A#, 8
	note B_, 8
	octave 2
	note C_, 8
	note C#, 4
	octave 3
	note C_, 1
	octave 2
	note F_, 1
	note G_, 1
	note G#, 1
	note G_, 2
	note F_, 2
	note G_, 2
	note G#, 4
	note G_, 2
	note F_, 2
	note G#, 2
	note G_, 2
	note F_, 2
	note G_, 2
	note G#, 4
	note G_, 2
	note F_, 2
	note G#, 2
	note G_, 2
	note F_, 2
	note G_, 2
	note G#, 4
	note G_, 2
	note F_, 2
	note G#, 2
	note G_, 2
	note F_, 2
	note G_, 2
	note G#, 4
	note G_, 2
	note F_, 2
	note G#, 2
	note G_, 2
	note F_, 2
	note G_, 2
	note G#, 4
	note G_, 2
	note F_, 2
	note G#, 2
	note G_, 2
	note F_, 2
	note G_, 2
	note G#, 4
	note G_, 2
	note F_, 2
	note G_, 1
	note G#, 1
	note G_, 2
	note F_, 2
	note G_, 2
	note G#, 4
	note G_, 2
	note F_, 2
	note G#, 2
	note G_, 2
	note F_, 2
	note G_, 2
	note G#, 4
	note G_, 2
	note F_, 2
	note G#, 2
Music_GymLeaderBattleDPPt_Ch3_loop:
	note C_, 2
	note G_, 2
	note C_, 2
	note G_, 2
	note C_, 2
	note G_, 2
	note C_, 2
	note G_, 2
	note C#, 2
	note G#, 2
	note C#, 2
	note G#, 2
	note C#, 2
	note G#, 2
	note C#, 2
	note G#, 2
	note C_, 2
	note G_, 2
	note C_, 2
	note G_, 2
	note C_, 2
	note G_, 2
	note C_, 2
	note G_, 2
	note C_, 2
	note G_, 2
	note C_, 2
	note G_, 2
	note C_, 2
	note G_, 2
	note C_, 2
	note G_, 2
	note C_, 2
	note G_, 2
	note C_, 2
	note G_, 2
	note C_, 2
	note G_, 2
	note C_, 2
	note G_, 2
	note C#, 2
	note G#, 2
	note C#, 2
	note G#, 2
	note C#, 2
	note G#, 2
	note C#, 2
	note G#, 2
	note C_, 2
	note G_, 2
	note C_, 2
	note G_, 2
	note C_, 2
	note G_, 2
	note C_, 2
	note G_, 2
	note C_, 2
	note G_, 2
	note C_, 2
	note G_, 2
	note C_, 2
	note G_, 2
	note C_, 2
	note G_, 2
	note C#, 2
	note G#, 2
	octave 3
	note C#, 2
	octave 2
	note G#, 2
	note C#, 2
	note G#, 2
	note C#, 2
	note G#, 2
	note C#, 2
	note G#, 2
	octave 3
	note C#, 2
	octave 2
	note G#, 2
	note C#, 2
	note G#, 2
	note F_, 2
	note G#, 2
	note C_, 2
	note G_, 2
	octave 3
	note C_, 2
	octave 2
	note G_, 2
	note C_, 2
	note G_, 2
	note C_, 2
	note G_, 2
	note C_, 2
	note G_, 2
	octave 3
	note C_, 2
	octave 2
	note G_, 2
	note C_, 2
	note G_, 2
	note E_, 2
	note G_, 2
	note C#, 2
	note G#, 2
	note C#, 2
	note G#, 2
	note C#, 2
	note G#, 2
	note C#, 2
	note G#, 2
	note C#, 2
	note G#, 2
	note C#, 2
	note G#, 2
	note C#, 2
	note G#, 2
	note C#, 2
	note G#, 2
	note C_, 2
	note G_, 2
	note C_, 2
	note G_, 2
	note C_, 2
	note G_, 2
	note C_, 2
	note G_, 2
	note C_, 2
	note G_, 2
	note C_, 2
	note G_, 2
	note C_, 2
	note G_, 2
	note C_, 2
	note G_, 2
	note C_, 2
	octave 3
	note C_, 2
	octave 2
	note C_, 2
	octave 3
	note C#, 6
	note C#, 2
	octave 2
	note A#, 2
	note C_, 2
	octave 3
	note C_, 2
	octave 2
	note C_, 2
	octave 3
	note C#, 6
	note C#, 2
	octave 2
	note A#, 2
	note C_, 2
	octave 3
	note C_, 2
	octave 2
	note C_, 2
	octave 3
	note C#, 6
	note C#, 2
	octave 2
	note A#, 2
	note C_, 2
	octave 3
	note C_, 2
	octave 2
	note C_, 2
	octave 3
	note C#, 6
	note C#, 2
	octave 2
	note A#, 2
	note D_, 2
	octave 3
	note D_, 2
	octave 2
	note D_, 2
	octave 3
	note D#, 6
	note D#, 2
	note C_, 2
	octave 2
	note D_, 2
	octave 3
	note D_, 2
	octave 2
	note D_, 2
	octave 3
	note D#, 6
	note D#, 2
	note C_, 2
	octave 2
	note D_, 2
	octave 3
	note D_, 2
	octave 2
	note D_, 2
	octave 3
	note D#, 6
	note D#, 2
	note C_, 2
	octave 2
	note D_, 2
	octave 3
	note D_, 2
	octave 2
	note D_, 2
	octave 3
	note D#, 6
	note D#, 2
	note C_, 2
	octave 2
	note G_, 2
	note F_, 2
	note G_, 2
	note G#, 4
	note G_, 2
	note F_, 2
	note G#, 2
	note_type 6, 1, 9
	note G_, 1
	rest 1
	note G_, 2
	note F_, 4
	note G_, 4
	note G#, 4
	note G_, 1
	rest 1
	note G_, 2
	note F_, 4
	note C#, 4
	note G#, 4
	note G_, 4
	note F_, 4
	note G_, 4
	note G#, 8
	note G_, 4
	note F_, 4
	note G#, 4
	note G_, 4
	note F_, 4
	note G_, 4
	note G#, 4
	octave 3
	note C_, 4
	note C_, 4
	octave 2
	note F_, 4
	note G#, 4
	note G_, 4
	note F_, 4
	note G_, 4
	note G#, 8
	note G_, 4
	note F_, 4
	note G#, 4
	note G_, 4
	note F_, 4
	note G_, 4
	note G#, 8
	note G_, 4
	note F_, 4
	note G_, 2
	note G#, 2
	note G_, 4
	note F_, 4
	note G_, 4
	note G#, 8
	note G_, 4
	note F_, 4
	note G#, 4
	note G_, 4
	note F_, 4
	note G_, 4
	note G#, 8
	note G_, 4
	note F_, 4
	note G#, 4
	note G_, 4
	note F_, 4
	note G_, 4
	note G#, 8
	note G_, 4
	note F_, 4
	note G#, 4
	note G_, 4
	note F_, 4
	note G_, 4
	note G#, 8
	note G_, 4
	note F_, 4
	note D#, 2
	note C#, 2
	note C_, 4
	note G_, 4
	note C_, 4
	note G_, 4
	note C_, 4
	note G_, 4
	note C_, 4
	note G_, 4
	note C#, 4
	note G#, 4
	note C#, 4
	note G#, 4
	note C#, 4
	note G#, 4
	note C#, 4
	note G#, 4
	note C_, 4
	note G_, 4
	octave 3
	note C_, 4
	octave 2
	note G_, 4
	note C_, 4
	note G_, 4
	note C_, 4
	note G_, 4
	note C_, 4
	note G_, 4
	octave 3
	note C_, 4
	octave 2
	note G_, 4
	note C_, 4
	note G_, 4
	note E_, 4
	note G_, 4
	note C_, 4
	note G_, 4
	note C_, 4
	note G_, 4
	note C_, 4
	note G_, 4
	note C_, 4
	note G_, 4
	note C#, 4
	note G#, 4
	note C#, 4
	note G#, 4
	note C#, 4
	note G#, 4
	note C#, 4
	note G#, 4
	note C_, 4
	note G_, 4
	note C_, 4
	note G_, 4
	note C_, 4
	note G_, 4
	note C_, 4
	note G_, 4
	note C_, 4
	note G_, 4
	note C_, 4
	note G_, 4
	note C_, 4
	note G_, 4
	note C_, 4
	note G_, 4
	note C#, 4
	note G#, 4
	octave 3
	note C#, 4
	octave 2
	note G#, 4
	note C#, 4
	note G#, 4
	note C#, 4
	note G#, 4
	note C#, 4
	note G#, 4
	octave 3
	note C#, 4
	octave 2
	note G#, 4
	note C#, 4
	note G#, 4
	note F_, 4
	note G#, 4
	note C_, 4
	note G_, 4
	octave 3
	note C_, 4
	octave 2
	note G_, 4
	note C_, 4
	note G_, 4
	note C_, 4
	note G_, 4
	note C_, 4
	note G_, 4
	octave 3
	note C_, 4
	octave 2
	note G_, 4
	note C_, 4
	note G_, 4
	note E_, 4
	note G_, 4
	note C#, 4
	note G#, 4
	note C#, 4
	note G#, 4
	note C#, 4
	note G#, 4
	note C#, 4
	note G#, 4
	note C#, 4
	note G#, 4
	note C#, 4
	note G#, 4
	note C#, 4
	note G#, 4
	note C#, 4
	note G#, 4
	note C_, 4
	note G_, 4
	note C_, 4
	note G_, 4
	note C_, 4
	note G_, 4
	note C_, 4
	note G_, 4
	note C_, 4
	note G_, 4
	note C_, 4
	note G_, 4
	note C_, 4
	note G_, 4
	note C_, 4
	note G_, 4
	note G_, 4
	note F_, 4
	note G_, 4
	note G#, 8
	note G_, 4
	note F_, 4
	note G#, 4
	note G_, 1
	rest 1
	note G_, 2
	note F_, 4
	note G_, 4
	note G#, 4
	note G_, 1
	rest 1
	note G_, 2
	note F_, 4
	note C#, 4
	note G#, 4
	note G_, 4
	note F_, 4
	note G_, 4
	note G#, 8
	note G_, 4
	note F_, 4
	note G#, 4
	note G_, 4
	note F_, 4
	note G_, 4
	note G#, 4
	octave 3
	note C_, 8
	octave 2
	note F_, 4
	note G#, 4
	note G_, 4
	note F_, 4
	note G_, 4
	note G#, 8
	note G_, 4
	note F_, 4
	note G#, 4
	note G_, 1
	rest 1
	note G_, 2
	note F_, 4
	note G_, 4
	note G#, 4
	note G_, 1
	rest 1
	note G_, 2
	note F_, 4
	note C#, 4
	note G#, 4
	note G_, 4
	note F_, 4
	note G_, 4
	note G#, 8
	note G_, 4
	note F_, 4
	note G#, 4
	note G_, 4
	note F_, 4
	note G_, 4
	note G#, 4
	octave 3
	note C_, 8
	octave 2
	note F_, 4
	note G#, 4
	octave 3
	note C#, 8
	note F_, 8
	octave 4
	note C#, 4
	octave 3
	note A#, 4
	note F#, 4
	note D#, 4
	note_type 12, 1, 9
	octave 2
	sound_jump Music_GymLeaderBattleDPPt_Ch3_loop

Music_GymLeaderBattleDPPt_Ch4:
	toggle_noise 0
	drum_speed 12
	rest 2
	drum_note 4, 4
	drum_note 4, 4
	drum_note 4, 4
	drum_note 4, 2
	drum_note 4, 2
	drum_note 4, 2
	drum_note 4, 4
	drum_note 4, 1
	drum_note 4, 1
	drum_note 4, 1
	drum_note 4, 1
	drum_note 4, 1
	drum_note 4, 1
	drum_note 4, 1
	drum_note 4, 1
	drum_note 4, 1
	drum_note 4, 1
	drum_note 4, 1
	drum_note 4, 3
	drum_note 4, 1
	drum_note 4, 5
	drum_note 4, 6
	drum_note 4, 2
	drum_note 4, 1
	drum_note 4, 1
	drum_note 4, 1
	drum_note 4, 1
	drum_note 4, 4
	drum_note 4, 2
	drum_note 4, 1
	drum_note 4, 1
	drum_note 4, 6
	drum_note 4, 6
	drum_note 4, 6
	drum_note 4, 6
	drum_note 4, 4
	drum_note 4, 2
	drum_note 4, 1
	drum_note 4, 1
	drum_note 4, 1
	drum_note 4, 1
	drum_note 4, 4
	drum_note 4, 1
	drum_note 4, 5
	drum_note 4, 6
	drum_note 4, 2
	drum_note 4, 1
	drum_note 4, 1
	drum_note 4, 1
	drum_note 4, 1
	drum_note 4, 4
	drum_note 4, 2
	drum_note 4, 1
	drum_note 4, 1
	drum_note 4, 6
	drum_note 4, 6
	drum_note 4, 6
	drum_note 4, 6
	drum_note 4, 4
	drum_note 4, 1
	drum_note 4, 1
	drum_note 4, 1
	drum_note 4, 1
Music_GymLeaderBattleDPPt_Ch4_loop:
	drum_note 4, 1
	drum_note 4, 1
	drum_note 4, 2
	drum_note 4, 2
	drum_note 4, 1
	drum_note 4, 1
	drum_note 4, 2
	drum_note 4, 2
	drum_note 4, 1
	drum_note 4, 1
	drum_note 4, 1
	drum_note 4, 1
	drum_note 4, 1
	drum_note 4, 1
	drum_note 4, 2
	drum_note 4, 2
	drum_note 4, 2
	drum_note 4, 2
	drum_note 4, 1
	drum_note 4, 1
	drum_note 4, 2
	drum_note 4, 1
	drum_note 4, 1
	drum_note 4, 2
	drum_note 4, 2
	drum_note 4, 2
	drum_note 4, 1
	drum_note 4, 1
	drum_note 4, 2
	drum_note 4, 3
	drum_note 4, 1
	drum_note 4, 2
	drum_note 4, 1
	drum_note 4, 1
	drum_note 4, 2
	drum_note 4, 2
	drum_note 4, 1
	drum_note 4, 1
	drum_note 4, 2
	drum_note 4, 2
	drum_note 4, 1
	drum_note 4, 1
	drum_note 4, 2
	drum_note 4, 2
	drum_note 4, 2
	drum_note 4, 2
	drum_note 4, 1
	drum_note 4, 1
	drum_note 4, 2
	drum_note 4, 2
	drum_note 4, 1
	drum_note 4, 1
	drum_note 4, 1
	drum_note 4, 1
	drum_note 4, 1
	drum_note 4, 1
	drum_note 4, 2
	drum_note 4, 2
	drum_note 4, 2
	drum_note 4, 2
	drum_note 4, 1
	drum_note 4, 1
	drum_note 4, 2
	drum_note 4, 1
	drum_note 4, 1
	drum_note 4, 2
	drum_note 4, 2
	drum_note 4, 2
	drum_note 4, 1
	drum_note 4, 1
	drum_note 4, 2
	drum_note 4, 2
	drum_note 4, 1
	drum_note 4, 1
	drum_note 4, 2
	drum_note 4, 1
	drum_note 4, 1
	drum_note 4, 2
	drum_note 4, 2
	drum_note 4, 1
	drum_note 4, 1
	drum_note 4, 2
	drum_note 4, 2
	drum_note 4, 1
	drum_note 4, 1
	drum_note 4, 2
	drum_note 4, 2
	drum_note 4, 2
	drum_note 4, 2
	drum_note 4, 1
	drum_note 4, 1
	drum_note 4, 2
	drum_note 4, 2
	drum_note 4, 1
	drum_note 4, 1
	drum_note 4, 1
	drum_note 4, 1
	drum_note 4, 2
	drum_note 4, 2
	drum_note 4, 2
	drum_note 4, 2
	drum_note 4, 2
	drum_note 4, 1
	drum_note 4, 1
	drum_note 4, 2
	drum_note 4, 1
	drum_note 4, 1
	drum_note 4, 2
	drum_note 4, 2
	drum_note 4, 2
	drum_note 4, 1
	drum_note 4, 1
	drum_note 4, 2
	drum_note 4, 2
	drum_note 4, 1
	drum_note 4, 1
	drum_note 4, 2
	drum_note 4, 1
	drum_note 4, 1
	drum_note 4, 2
	drum_note 4, 2
	drum_note 4, 1
	drum_note 4, 1
	drum_note 4, 2
	drum_note 4, 2
	drum_note 4, 1
	drum_note 4, 1
	drum_note 4, 2
	drum_note 4, 2
	drum_note 4, 2
	drum_note 4, 2
	drum_note 4, 1
	drum_note 4, 1
	drum_note 4, 2
	drum_note 4, 2
	drum_note 4, 1
	drum_note 4, 1
	drum_note 4, 1
	drum_note 4, 1
	drum_note 4, 1
	drum_note 4, 1
	drum_note 4, 2
	drum_note 4, 2
	drum_note 4, 2
	drum_note 4, 2
	drum_note 4, 1
	drum_note 4, 1
	drum_note 4, 2
	drum_note 4, 1
	drum_note 4, 1
	drum_note 4, 2
	drum_note 4, 2
	drum_note 4, 2
	drum_note 4, 1
	drum_note 4, 1
	drum_note 4, 2
	drum_note 4, 2
	drum_note 4, 1
	drum_note 4, 1
	drum_note 4, 2
	drum_note 4, 1
	drum_note 4, 1
	drum_note 4, 2
	drum_note 4, 2
	drum_note 4, 1
	drum_note 4, 1
	drum_note 4, 2
	drum_note 4, 2
	drum_note 4, 1
	drum_note 4, 1
	drum_note 4, 2
	drum_note 4, 2
	drum_note 4, 2
	drum_note 4, 2
	drum_note 4, 2
	drum_note 4, 2
	drum_note 4, 2
	drum_note 4, 2
	drum_note 4, 2
	drum_note 4, 2
	drum_note 4, 2
	drum_note 4, 2
	drum_note 4, 2
	drum_note 4, 2
	drum_note 4, 2
	drum_note 4, 2
	drum_note 4, 2
	drum_note 4, 1
	drum_note 4, 1
	drum_note 4, 2
	drum_note 4, 2
	drum_note 4, 2
	drum_note 4, 2
	drum_note 4, 2
	drum_note 4, 2
	drum_note 4, 2
	drum_note 4, 1
	drum_note 4, 1
	drum_note 4, 2
	drum_note 4, 2
	drum_note 4, 2
	drum_note 4, 2
	drum_note 4, 2
	drum_note 4, 2
	drum_note 4, 1
	drum_note 4, 1
	drum_note 4, 2
	drum_note 4, 2
	drum_note 4, 2
	drum_note 4, 2
	drum_note 4, 2
	drum_note 4, 2
	drum_note 4, 2
	drum_note 4, 2
	drum_note 4, 2
	drum_note 4, 2
	drum_note 4, 2
	drum_note 4, 2
	drum_note 4, 2
	drum_note 4, 2
	drum_note 4, 2
	drum_note 4, 1
	drum_note 4, 1
	drum_note 4, 2
	drum_note 4, 2
	drum_note 4, 2
	drum_note 4, 2
	drum_note 4, 2
	drum_note 4, 2
	drum_note 4, 2
	drum_note 4, 2
	drum_note 4, 2
	drum_note 4, 2
	drum_note 4, 2
	drum_note 4, 2
	drum_note 4, 1
	drum_note 4, 1
	drum_note 4, 1
	drum_note 4, 1
	drum_note 4, 1
	drum_note 4, 1
	drum_note 4, 1
	drum_note 4, 1
	drum_note 4, 1
	drum_note 4, 1
	drum_note 4, 1
	drum_note 4, 3
	drum_note 4, 1
	drum_note 4, 5
	drum_note 4, 4
	drum_note 4, 1
	drum_note 4, 1
	drum_note 4, 2
	drum_note 4, 1
	drum_note 4, 1
	drum_note 4, 1
	drum_note 4, 1
	drum_note 4, 4
	drum_note 4, 2
	drum_note 4, 1
	drum_note 4, 1
	drum_note 4, 6
	drum_note 4, 6
	drum_note 4, 6
	drum_note 4, 6
	drum_note 4, 4
	drum_note 4, 2
	drum_note 4, 1
	drum_note 4, 1
	drum_note 4, 1
	drum_note 4, 1
	drum_note 4, 4
	drum_note 4, 1
	drum_note 4, 5
	drum_note 4, 6
	drum_note 4, 2
	drum_note 4, 1
	drum_note 4, 1
	drum_note 4, 1
	drum_note 4, 1
	drum_note 4, 4
	drum_note 4, 2
	drum_note 4, 1
	drum_note 4, 1
	drum_note 4, 6
	drum_note 4, 6
	drum_note 4, 6
	drum_note 4, 6
	drum_note 4, 4
	drum_note 4, 1
	drum_note 4, 1
	drum_note 4, 1
	drum_note 4, 1
	drum_note 4, 1
	drum_note 4, 1
	drum_note 4, 4
	drum_note 4, 1
	drum_note 4, 5
	drum_note 4, 6
	drum_note 4, 2
	drum_note 4, 1
	drum_note 4, 1
	drum_note 4, 1
	drum_note 4, 1
	drum_note 4, 4
	drum_note 4, 2
	drum_note 4, 1
	drum_note 4, 1
	drum_note 4, 2
	drum_note 4, 2
	drum_note 4, 2
	drum_note 4, 1
	drum_note 4, 1
	drum_note 4, 2
	drum_note 4, 3
	drum_note 4, 1
	drum_note 4, 2
	drum_note 4, 1
	drum_note 4, 1
	drum_note 4, 2
	drum_note 4, 2
	drum_note 4, 1
	drum_note 4, 1
	drum_note 4, 2
	drum_note 4, 2
	drum_note 4, 1
	drum_note 4, 1
	drum_note 4, 2
	drum_note 4, 2
	drum_note 4, 2
	drum_note 4, 2
	drum_note 4, 1
	drum_note 4, 1
	drum_note 4, 2
	drum_note 4, 2
	drum_note 4, 1
	drum_note 4, 1
	drum_note 4, 1
	drum_note 4, 1
	drum_note 4, 1
	drum_note 4, 1
	drum_note 4, 2
	drum_note 4, 2
	drum_note 4, 2
	drum_note 4, 2
	drum_note 4, 1
	drum_note 4, 1
	drum_note 4, 2
	drum_note 4, 1
	drum_note 4, 1
	drum_note 4, 2
	drum_note 4, 2
	drum_note 4, 2
	drum_note 4, 1
	drum_note 4, 1
	drum_note 4, 2
	drum_note 4, 2
	drum_note 4, 1
	drum_note 4, 1
	drum_note 4, 2
	drum_note 4, 1
	drum_note 4, 1
	drum_note 4, 2
	drum_note 4, 2
	drum_note 4, 1
	drum_note 4, 1
	drum_note 4, 2
	drum_note 4, 2
	drum_note 4, 1
	drum_note 4, 1
	drum_note 4, 2
	drum_note 4, 2
	drum_note 4, 2
	drum_note 4, 2
	drum_note 4, 1
	drum_note 4, 1
	drum_note 4, 2
	drum_note 4, 2
	drum_note 4, 1
	drum_note 4, 1
	drum_note 4, 1
	drum_note 4, 1
	drum_note 4, 2
	drum_note 4, 2
	drum_note 4, 2
	drum_note 4, 2
	drum_note 4, 2
	drum_note 4, 1
	drum_note 4, 1
	drum_note 4, 2
	drum_note 4, 1
	drum_note 4, 1
	drum_note 4, 2
	drum_note 4, 2
	drum_note 4, 2
	drum_note 4, 1
	drum_note 4, 1
	drum_note 4, 2
	drum_note 4, 2
	drum_note 4, 1
	drum_note 4, 1
	drum_note 4, 2
	drum_note 4, 1
	drum_note 4, 1
	drum_note 4, 2
	drum_note 4, 2
	drum_note 4, 1
	drum_note 4, 1
	drum_note 4, 2
	drum_note 4, 2
	drum_note 4, 1
	drum_note 4, 1
	drum_note 4, 2
	drum_note 4, 2
	drum_note 4, 2
	drum_note 4, 2
	drum_note 4, 1
	drum_note 4, 1
	drum_note 4, 2
	drum_note 4, 2
	drum_note 4, 1
	drum_note 4, 1
	drum_note 4, 1
	drum_note 4, 1
	drum_note 4, 1
	drum_note 4, 1
	drum_note 4, 2
	drum_note 4, 2
	drum_note 4, 2
	drum_note 4, 2
	drum_note 4, 1
	drum_note 4, 1
	drum_note 4, 2
	drum_note 4, 1
	drum_note 4, 1
	drum_note 4, 2
	drum_note 4, 2
	drum_note 4, 2
	drum_note 4, 1
	drum_note 4, 1
	drum_note 4, 1
	drum_note 4, 1
	drum_note 4, 2
	drum_note 4, 2
	drum_note 4, 2
	drum_note 4, 1
	drum_note 4, 1
	drum_note 4, 2
	drum_note 4, 2
	drum_note 4, 1
	drum_note 4, 1
	drum_note 4, 2
	drum_note 4, 2
	drum_note 4, 1
	drum_note 4, 1
	drum_note 4, 2
	drum_note 4, 2
	drum_note 4, 2
	drum_note 4, 2
	drum_note 4, 2
	drum_note 4, 1
	drum_note 4, 1
	drum_note 4, 2
	drum_note 4, 2
	drum_note 4, 2
	drum_note 4, 2
	drum_note 4, 2
	drum_note 4, 2
	drum_note 4, 2
	drum_note 4, 1
	drum_note 4, 1
	drum_note 4, 2
	drum_note 4, 2
	drum_note 4, 2
	drum_note 4, 1
	drum_note 4, 1
	drum_note 4, 1
	drum_note 4, 3
	drum_note 4, 1
	drum_note 4, 5
	drum_note 4, 4
	drum_note 4, 1
	drum_note 4, 1
	drum_note 4, 2
	drum_note 4, 1
	drum_note 4, 1
	drum_note 4, 1
	drum_note 4, 1
	drum_note 4, 4
	drum_note 4, 2
	drum_note 4, 1
	drum_note 4, 1
	drum_note 4, 6
	drum_note 4, 6
	drum_note 4, 6
	drum_note 4, 6
	drum_note 4, 4
	drum_note 4, 2
	drum_note 4, 1
	drum_note 4, 1
	drum_note 4, 1
	drum_note 4, 1
	drum_note 4, 1
	drum_note 4, 3
	drum_note 4, 1
	drum_note 4, 5
	drum_note 4, 4
	drum_note 4, 1
	drum_note 4, 1
	drum_note 4, 2
	drum_note 4, 1
	drum_note 4, 1
	drum_note 4, 1
	drum_note 4, 1
	drum_note 4, 4
	drum_note 4, 2
	drum_note 4, 1
	drum_note 4, 1
	drum_note 4, 6
	drum_note 4, 4
	drum_note 4, 8
	drum_note 4, 6
	drum_note 4, 4
	drum_note 4, 2
	drum_note 4, 1
	drum_note 4, 1
	drum_note 4, 2
	drum_note 4, 2
	drum_note 4, 1
	drum_note 4, 1
	drum_note 4, 1
	drum_note 4, 1
	drum_note 4, 1
	drum_note 4, 1
	drum_note 4, 1
	drum_note 4, 1
	drum_note 4, 1
	drum_note 4, 1
	drum_note 4, 1
	drum_note 4, 1
	sound_jump Music_GymLeaderBattleDPPt_Ch4_loop
