; Pokémon D/P/Pt - Oreburgh Gate
; Demixed by Mmmmmm
; https://pastebin.com/xEactCTm
; https://hax.iimarckus.org/topic/6777/

Music_OreburghGateDPPt:
	channel_count 3
	channel 1, Music_OreburghGateDPPt_Ch1
	channel 2, Music_OreburghGateDPPt_Ch2
	channel 3, Music_OreburghGateDPPt_Ch3

Music_OreburghGateDPPt_Ch1:
	tempo 130
	volume 7, 7
	duty_cycle 0
	pitch_offset 1
	note_type 12, 2, 0
	vibrato 8, 1, 2
	octave 3
	note G_, 8
	volume_envelope 2, -6
	note G_, 8
Music_OreburghGateDPPt_Ch1_branch_1:
	octave 4
	volume_envelope 4, 0
	note F#, 12
	volume_envelope 4, -7
	note F#, 8
	volume_envelope 7, -7
	note G_, 2
	note A_, 2
	volume_envelope 10, 0
	note F#, 12
	volume_envelope 10, 7
	note E_, 12
	volume_envelope 4, 0
	note F#, 12
	volume_envelope 4, -7
	note F#, 8
	volume_envelope 7, -7
	note G_, 2
	note A_, 2
	volume_envelope 10, 0
	note F#, 12
	volume_envelope 10, 7
	note F#, 12
	volume_envelope 4, 0
	note D#, 12
	volume_envelope 4, -7
	note D#, 8
	volume_envelope 7, -7
	note E_, 2
	note F#, 2
	volume_envelope 10, 0
	note D#, 12
	volume_envelope 10, 7
	note C#, 12
	volume_envelope 4, 0
	note D#, 12
	volume_envelope 4, -7
	note C#, 8
	volume_envelope 7, -7
	note D#, 2
	note E_, 2
	volume_envelope 10, 0
	note D#, 12
	volume_envelope 10, 7
	note D_, 8
	volume_envelope 4, 0
	note E_, 4
	sound_loop 3, Music_OreburghGateDPPt_Ch1_branch_1
	volume_envelope 13, 7
	octave 2
	note C#, 2
	octave 4
	note C#, 1
	note C_, 1
	octave 3
	note B_, 2
	note A_, 2
	note G#, 2
	note F_, 2
	note F#, 2
	note C_, 2
	note D_, 2
	note F#, 2
	note C#, 2
	note E_, 2
	volume_envelope 4, 0
	note G_, 12
	volume_envelope 4, -7
	note G_, 12
	volume_envelope 4, 0
	note G#, 12
	volume_envelope 4, -7
	note G#, 12
	volume_envelope 4, 0
	note A_, 12
	volume_envelope 4, -7
	note A_, 12
	volume_envelope 4, 0
	note A_, 6
	volume_envelope 4, -7
	note A_, 6
	volume_envelope 9, 7
	note A_, 6
	volume_envelope 4, 7
	note A_, 6
	rest 8
	volume_envelope 2, 0
	note G_, 8
	volume_envelope 2, -6
	note G_, 8
	sound_jump Music_OreburghGateDPPt_Ch1_branch_1

Music_OreburghGateDPPt_Ch2:
	pitch_offset 1
	duty_cycle 1
	note_type 12, 5, 5
	rest 16
Music_OreburghGateDPPt_Ch2_branch_1:
	octave 3
	volume_envelope 5, 5
	note G_, 2
	note A#, 2
	octave 4
	note C#, 2
	note F#, 2
	note C#, 2
	octave 3
	note A#, 2
	note G_, 2
	note A#, 2
	octave 4
	note C#, 2
	note F#, 2
	note C#, 2
	octave 3
	note A#, 2
	note G_, 2
	note A#, 2
	octave 4
	note C#, 2
	note F#, 2
	note C#, 2
	octave 3
	note A#, 2
	note G_, 2
	note A#, 2
	octave 4
	note C#, 2
	note F#, 2
	note C#, 2
	octave 3
	note A#, 2
	note F#, 2
	note A#, 2
	octave 4
	note D#, 2
	note E_, 2
	note D#, 2
	octave 3
	note A#, 2
	note F#, 2
	note A#, 2
	octave 4
	note D#, 2
	note E_, 2
	note D#, 2
	octave 3
	note A#, 2
	note F#, 2
	note A_, 2
	octave 4
	note C_, 2
	note E_, 2
	note C_, 2
	octave 3
	note A_, 2
	note F#, 2
	note A_, 2
	octave 4
	note C_, 2
	note E_, 2
	note C_, 2
	octave 3
	note A_, 2
	note E_, 2
	note G_, 2
	note B_, 2
	octave 4
	note D#, 2
	octave 3
	note B_, 2
	note G_, 2
	note E_, 2
	note G_, 2
	note B_, 2
	octave 4
	note D#, 2
	octave 3
	note B_, 2
	note G_, 2
	note E_, 2
	note G_, 2
	note A#, 2
	octave 4
	note E_, 2
	octave 3
	note A#, 2
	note G_, 2
	note E_, 2
	note G_, 2
	note B_, 2
	octave 4
	note D#, 2
	octave 3
	note B_, 2
	note G_, 2
	note D#, 2
	note G_, 2
	note A#, 2
	octave 4
	note E_, 2
	octave 3
	note A#, 2
	note G_, 2
	note D#, 2
	note G_, 2
	note A#, 2
	octave 4
	note E_, 2
	octave 3
	note A#, 2
	note G_, 2
	note D#, 2
	note G_, 2
	note A#, 2
	octave 4
	note D#, 2
	octave 3
	note A#, 2
	note G_, 2
	note E_, 2
	note G_, 2
	note A#, 2
	octave 4
	note E_, 2
	octave 3
	note A#, 2
	note G_, 2
	sound_loop 2, Music_OreburghGateDPPt_Ch2_branch_1
	octave 4
	volume_envelope 3, 0
	rest 8
	note C#, 4
	volume_envelope 3, -7
	note C#, 8
	volume_envelope 6, -7
	note C_, 2
	octave 3
	note B_, 2
	volume_envelope 9, 0
	note A#, 8
	volume_envelope 9, 7
	note A#, 4
	volume_envelope 7, 7
	note A_, 2
	note G#, 2
	volume_envelope 5, 7
	note G_, 8
	volume_envelope 3, 0
	note C#, 12
	volume_envelope 3, -7
	note C#, 12
	volume_envelope 9, 0
	note C_, 12
	volume_envelope 9, 7
	note C_, 8
	volume_envelope 4, 7
	note E_, 4
	octave 2
	volume_envelope 3, 0
	note B_, 12
	volume_envelope 3, -7
	note B_, 8
	volume_envelope 6, -7
	octave 3
	note D#, 2
	note C#, 2
	volume_envelope 9, 0
	octave 2
	note A#, 12
	volume_envelope 9, 7
	note A#, 4
	volume_envelope 5, 7
	note A_, 2
	note G#, 2
	note G_, 4
	octave 3
	volume_envelope 3, 0
	note D#, 12
	volume_envelope 3, -7
	note D#, 8
	volume_envelope 6, -7
	note C#, 2
	octave 2
	note B_, 2
	volume_envelope 9, 0
	note A#, 8
	volume_envelope 9, 7
	note A#, 12
	volume_envelope 3, 0
	octave 3
	note E_, 4
	octave 5
	volume_envelope 5, 3
	rest 1
	note F#, 1
	note C#, 1
	note D_, 1
	octave 4
	note A#, 1
	octave 5
	note C#, 1
	octave 4
	note G_, 1
	note A#, 1
	note F#, 1
	note G_, 1
	note C#, 1
	note D_, 1
	octave 3
	note A#, 1
	octave 4
	note C#, 1
	octave 3
	note G_, 1
	note A#, 1
	note F#, 1
	note G_, 1
	note C#, 1
	note D_, 1
	octave 2
	note A#, 1
	octave 3
	note C#, 1
	octave 2
	note G_, 1
	note A#, 1
	volume_envelope 10, 7
	octave 3
	note C#, 2
	note C#, 4
	volume_envelope 8, 7
	note C#, 2
	note C#, 2
	note C#, 4
	volume_envelope 5, 7
	note C#, 2
	note C#, 2
	note C#, 4
	volume_envelope 3, 7
	note C#, 2
	volume_envelope 10, 7
	octave 3
	note D_, 2
	note D_, 4
	volume_envelope 8, 7
	note D_, 2
	note D_, 2
	note D_, 4
	volume_envelope 5, 7
	note D_, 2
	note D_, 2
	note D_, 4
	volume_envelope 3, 7
	note D_, 2
	volume_envelope 10, 7
	octave 3
	note D#, 2
	note D#, 4
	volume_envelope 8, 7
	note D#, 2
	note D#, 2
	note D#, 4
	volume_envelope 5, 7
	note D#, 2
	note D#, 2
	note D#, 4
	volume_envelope 3, 7
	note D#, 2
	volume_envelope 8, 7
	octave 3
	note D#, 2
	note D#, 4
	volume_envelope 4, 7
	note D#, 2
	note D#, 2
	note D#, 4
	volume_envelope 2, 7
	note D#, 2
	note D#, 2
	note D#, 4
	note D#, 2
	rest 12
	rest 12
	sound_jump Music_OreburghGateDPPt_Ch2_branch_1

Music_OreburghGateDPPt_Ch3:
	note_type 12, 1, 2
	vibrato 8, 1, 2
	rest 16
Music_OreburghGateDPPt_Ch3_branch_1:
	octave 3
	volume_envelope 1, 2
	note G_, 1
	rest 1
	octave 4
	note C#, 1
	rest 1
	note F#, 1
	rest 1
	note G_, 1
	rest 1
	note A#, 1
	rest 1
	octave 5
	note C#, 1
	rest 1
	note F#, 1
	rest 1
	note G_, 1
	rest 1
	note A#, 1
	rest 1
	note G_, 1
	rest 1
	note F#, 1
	rest 1
	note C#, 1
	rest 1
	octave 4
	note A#, 1
	rest 1
	note G_, 1
	rest 1
	note F#, 1
	rest 1
	note G_, 1
	rest 1
	note A#, 1
	rest 1
	octave 5
	note C#, 1
	rest 1
	octave 3
	note G_, 1
	rest 1
	octave 4
	note C#, 1
	rest 1
	note F#, 1
	rest 1
	note G_, 1
	rest 1
	note A#, 1
	rest 1
	note F#, 1
	rest 1
	octave 3
	note F#, 1
	rest 1
	note A#, 1
	rest 1
	octave 4
	note E_, 1
	rest 1
	note F#, 1
	rest 1
	note A#, 1
	rest 1
	octave 5
	note C#, 1
	rest 1
	note E_, 1
	rest 1
	note F#, 1
	rest 1
	note A#, 1
	rest 1
	note F#, 1
	rest 1
	note E_, 1
	rest 1
	note C#, 1
	rest 1
	octave 4
	note F#, 1
	rest 1
	note E_, 1
	rest 1
	note C_, 1
	rest 1
	note F#, 1
	rest 1
	note A#, 1
	rest 1
	octave 5
	note C_, 1
	rest 1
	octave 3
	note F#, 1
	rest 1
	octave 4
	note C_, 1
	rest 1
	note E_, 1
	rest 1
	note F#, 1
	rest 1
	note A_, 1
	rest 1
	note F#, 1
	rest 1
	octave 3
	note E_, 1
	rest 1
	note B_, 1
	rest 1
	octave 4
	note D#, 1
	rest 1
	note E_, 1
	rest 1
	note G_, 1
	rest 1
	note B_, 1
	rest 1
	octave 5
	note D#, 1
	rest 1
	note E_, 1
	rest 1
	note G_, 1
	rest 1
	note E_, 1
	rest 1
	note D#, 1
	rest 1
	octave 4
	note B_, 1
	rest 1
	note G_, 1
	rest 1
	note E_, 1
	rest 1
	note D#, 1
	rest 1
	note E_, 1
	rest 1
	note G_, 1
	rest 1
	note A#, 1
	rest 1
	octave 3
	note E_, 1
	rest 1
	note A#, 1
	rest 1
	octave 4
	note D#, 1
	rest 1
	note E_, 1
	rest 1
	note G_, 1
	rest 1
	note E_, 1
	rest 1
	octave 3
	note D#, 1
	rest 1
	note A#, 1
	rest 1
	octave 4
	note C#, 1
	rest 1
	note E_, 1
	rest 1
	note G_, 1
	rest 1
	note A#, 1
	rest 1
	octave 5
	note C#, 1
	rest 1
	note E_, 1
	rest 1
	note G_, 1
	rest 1
	note E_, 1
	rest 1
	note C#, 1
	rest 1
	octave 4
	note A#, 1
	rest 1
	note G_, 1
	rest 1
	note D#, 1
	rest 1
	note C#, 1
	rest 1
	note D#, 1
	rest 1
	note G_, 1
	rest 1
	octave 5
	note C#, 1
	rest 1
	octave 3
	note E_, 1
	rest 1
	note A#, 1
	rest 1
	octave 4
	note E_, 1
	rest 1
	note G_, 1
	rest 1
	note A#, 1
	rest 1
	octave 5
	note E_, 1
	rest 1
Music_OreburghGateDPPt_Ch3_branch_2:
	octave 3
	volume_envelope 1, 2
	note G_, 1
	volume_envelope 2, 2
	octave 4
	note G_, 1
	volume_envelope 1, 2
	note C#, 1
	volume_envelope 2, 2
	note A#, 1
	volume_envelope 1, 2
	note F#, 1
	volume_envelope 2, 2
	octave 5
	note C#, 1
	volume_envelope 1, 2
	octave 4
	note G_, 1
	volume_envelope 2, 2
	octave 5
	note F#, 1
	volume_envelope 1, 2
	octave 4
	note A#, 1
	volume_envelope 2, 2
	octave 5
	note C#, 1
	volume_envelope 1, 2
	note C#, 1
	volume_envelope 2, 2
	octave 4
	note A#, 1
	volume_envelope 1, 2
	octave 5
	note F#, 1
	volume_envelope 2, 2
	octave 4
	note G_, 1
	volume_envelope 1, 2
	octave 5
	note G_, 1
	volume_envelope 2, 2
	octave 4
	note A#, 1
	volume_envelope 1, 2
	octave 5
	note A#, 1
	volume_envelope 2, 2
	note C#, 1
	volume_envelope 1, 2
	note G_, 1
	volume_envelope 2, 2
	note F#, 1
	volume_envelope 1, 2
	note F#, 1
	volume_envelope 2, 2
	note C#, 1
	volume_envelope 1, 2
	note C#, 1
	volume_envelope 2, 2
	octave 4
	note A#, 1
	volume_envelope 1, 2
	note A#, 1
	volume_envelope 2, 2
	note G_, 1
	volume_envelope 1, 2
	note G_, 1
	volume_envelope 2, 2
	note A#, 1
	volume_envelope 1, 2
	note F#, 1
	volume_envelope 2, 2
	octave 5
	note C#, 1
	volume_envelope 1, 2
	octave 4
	note G_, 1
	volume_envelope 2, 2
	octave 5
	note F#, 1
	volume_envelope 1, 2
	octave 4
	note A#, 1
	volume_envelope 2, 2
	octave 5
	note C#, 1
	volume_envelope 1, 2
	note C#, 1
	volume_envelope 2, 2
	octave 4
	note A#, 1
	octave 3
	volume_envelope 1, 2
	note G_, 1
	volume_envelope 2, 2
	octave 4
	note G_, 1
	volume_envelope 1, 2
	note C#, 1
	volume_envelope 2, 2
	note A#, 1
	volume_envelope 1, 2
	note F#, 1
	volume_envelope 2, 2
	octave 5
	note C#, 1
	volume_envelope 1, 2
	octave 4
	note G_, 1
	volume_envelope 2, 2
	octave 5
	note F#, 1
	volume_envelope 1, 2
	octave 4
	note A#, 1
	volume_envelope 2, 2
	octave 5
	note C#, 1
	volume_envelope 1, 2
	octave 4
	note F#, 1
	volume_envelope 2, 2
	note A#, 1
	octave 3
	volume_envelope 1, 2
	note F#, 1
	volume_envelope 2, 2
	octave 4
	note F#, 1
	volume_envelope 1, 2
	octave 3
	note A#, 1
	volume_envelope 2, 2
	octave 4
	note A#, 1
	volume_envelope 1, 2
	note E_, 1
	volume_envelope 2, 2
	octave 5
	note D#, 1
	volume_envelope 1, 2
	octave 4
	note F#, 1
	volume_envelope 2, 2
	octave 5
	note E_, 1
	volume_envelope 1, 2
	octave 4
	note A#, 1
	volume_envelope 2, 2
	octave 5
	note D#, 1
	volume_envelope 1, 2
	note C#, 1
	volume_envelope 2, 2
	octave 4
	note A#, 1
	volume_envelope 1, 2
	octave 5
	note E_, 1
	volume_envelope 2, 2
	octave 4
	note F#, 1
	volume_envelope 1, 2
	octave 5
	note F#, 1
	volume_envelope 2, 2
	octave 4
	note A#, 1
	volume_envelope 1, 2
	octave 5
	note A#, 1
	volume_envelope 2, 2
	note D#, 1
	volume_envelope 1, 2
	note F#, 1
	volume_envelope 2, 2
	note E_, 1
	volume_envelope 1, 2
	note E_, 1
	volume_envelope 2, 2
	note D#, 1
	volume_envelope 1, 2
	note C#, 1
	volume_envelope 2, 2
	octave 4
	note A#, 1
	volume_envelope 1, 2
	note F#, 1
	volume_envelope 2, 2
	note F#, 1
	volume_envelope 1, 2
	note E_, 1
	volume_envelope 2, 2
	note A_, 1
	volume_envelope 1, 2
	note C_, 1
	volume_envelope 2, 2
	octave 5
	note C_, 1
	volume_envelope 1, 2
	octave 4
	note F#, 1
	volume_envelope 2, 2
	octave 5
	note E_, 1
	volume_envelope 1, 2
	octave 4
	note A#, 1
	volume_envelope 2, 2
	octave 5
	note C_, 1
	volume_envelope 1, 2
	note C_, 1
	volume_envelope 2, 2
	octave 4
	note A_, 1
	volume_envelope 1, 2
	octave 3
	note F#, 1
	volume_envelope 2, 2
	octave 4
	note F#, 1
	volume_envelope 1, 2
	note C_, 1
	volume_envelope 2, 2
	note A_, 1
	volume_envelope 1, 2
	note E_, 1
	volume_envelope 2, 2
	octave 5
	note C_, 1
	volume_envelope 1, 2
	octave 4
	note F#, 1
	volume_envelope 2, 2
	octave 5
	note E_, 1
	volume_envelope 1, 2
	octave 4
	note A_, 1
	volume_envelope 2, 2
	octave 5
	note C_, 1
	volume_envelope 1, 2
	octave 4
	note F#, 1
	volume_envelope 2, 2
	note A_, 1
	octave 3
	volume_envelope 1, 2
	note E_, 1
	octave 4
	volume_envelope 2, 2
	note E_, 1
	volume_envelope 1, 2
	octave 3
	note B_, 1
	volume_envelope 2, 2
	octave 4
	note G_, 1
	octave 4
	volume_envelope 1, 2
	note D#, 1
	volume_envelope 2, 2
	note B_, 1
	volume_envelope 1, 2
	note E_, 1
	volume_envelope 2, 2
	octave 5
	note D#, 1
	volume_envelope 1, 2
	octave 4
	note G_, 1
	volume_envelope 2, 2
	note B_, 1
	volume_envelope 1, 2
	note B_, 1
	volume_envelope 2, 2
	note G_, 1
	octave 5
	volume_envelope 1, 2
	note D#, 1
	volume_envelope 2, 2
	octave 4
	note E_, 1
	volume_envelope 1, 2
	octave 5
	note E_, 1
	volume_envelope 2, 2
	octave 4
	note G_, 1
	volume_envelope 1, 2
	octave 5
	note G_, 1
	volume_envelope 2, 2
	octave 5
	note B_, 1
	volume_envelope 1, 2
	octave 5
	note E_, 1
	volume_envelope 2, 2
	note D#, 1
	volume_envelope 1, 2
	note D#, 1
	volume_envelope 2, 2
	octave 4
	note B_, 1
	volume_envelope 1, 2
	note B_, 1
	volume_envelope 2, 2
	note G_, 1
	volume_envelope 1, 2
	note G_, 1
	volume_envelope 2, 2
	note E_, 1
	volume_envelope 1, 2
	note E_, 1
	volume_envelope 2, 2
	note G_, 1
	volume_envelope 1, 2
	note D#, 1
	volume_envelope 2, 2
	note A#, 1
	volume_envelope 1, 2
	note E_, 1
	volume_envelope 2, 2
	octave 5
	note E_, 1
	volume_envelope 1, 2
	octave 4
	note G_, 1
	volume_envelope 2, 2
	note A#, 1
	volume_envelope 1, 2
	note A#, 1
	volume_envelope 2, 2
	note G_, 1
	octave 3
	volume_envelope 1, 2
	note E_, 1
	volume_envelope 2, 2
	octave 4
	note E_, 1
	volume_envelope 1, 2
	octave 3
	note A#, 1
	volume_envelope 2, 2
	octave 4
	note G_, 1
	volume_envelope 1, 2
	note D#, 1
	volume_envelope 2, 2
	note B_, 1
	volume_envelope 1, 2
	octave 4
	note E_, 1
	volume_envelope 2, 2
	octave 5
	note D#, 1
	volume_envelope 1, 2
	octave 4
	note G_, 1
	volume_envelope 2, 2
	note B_, 1
	volume_envelope 1, 2
	note E_, 1
	volume_envelope 2, 2
	note G_, 1
	octave 3
	volume_envelope 1, 2
	note D#, 1
	volume_envelope 2, 2
	octave 4
	note D#, 1
	volume_envelope 1, 2
	octave 3
	note A#, 1
	volume_envelope 2, 2
	octave 4
	note G_, 1
	volume_envelope 1, 2
	note C#, 1
	volume_envelope 2, 2
	note A#, 1
	volume_envelope 1, 2
	note E_, 1
	volume_envelope 2, 2
	octave 5
	note E_, 1
	volume_envelope 1, 2
	octave 4
	note G_, 1
	volume_envelope 2, 2
	note A#, 1
	volume_envelope 1, 2
	note A#, 1
	volume_envelope 2, 2
	note G_, 1
	octave 5
	volume_envelope 1, 2
	note C#, 1
	volume_envelope 2, 2
	octave 4
	note D#, 1
	volume_envelope 1, 2
	octave 5
	note E_, 1
	volume_envelope 2, 2
	octave 4
	note G_, 1
	volume_envelope 1, 2
	octave 5
	note G_, 1
	volume_envelope 2, 2
	octave 4
	note A#, 1
	volume_envelope 1, 2
	octave 5
	note E_, 1
	volume_envelope 2, 2
	note E_, 1
	volume_envelope 1, 2
	note C#, 1
	volume_envelope 2, 2
	octave 4
	note A#, 1
	volume_envelope 1, 2
	note A#, 1
	volume_envelope 2, 2
	note G_, 1
	volume_envelope 1, 2
	note G_, 1
	volume_envelope 2, 2
	note D#, 1
	volume_envelope 1, 2
	note D#, 1
	volume_envelope 2, 2
	note G_, 1
	volume_envelope 1, 2
	note C#, 1
	volume_envelope 2, 2
	note A#, 1
	volume_envelope 1, 2
	note D#, 1
	volume_envelope 2, 2
	octave 5
	note D#, 1
	volume_envelope 1, 2
	octave 4
	note G_, 1
	volume_envelope 2, 2
	note A#, 1
	octave 5
	volume_envelope 1, 2
	note C#, 1
	volume_envelope 2, 2
	octave 4
	note G_, 1
	octave 3
	volume_envelope 1, 2
	note E_, 1
	volume_envelope 2, 2
	octave 4
	note E_, 1
	volume_envelope 1, 2
	octave 3
	note A#, 1
	volume_envelope 2, 2
	octave 4
	note G_, 1
	volume_envelope 1, 2
	note E_, 1
	volume_envelope 2, 2
	note A#, 1
	volume_envelope 1, 2
	note G_, 1
	volume_envelope 2, 2
	octave 5
	note E_, 1
	volume_envelope 1, 2
	octave 4
	note A#, 1
	volume_envelope 2, 2
	note A#, 1
	octave 5
	volume_envelope 1, 2
	note E_, 1
	octave 4
	volume_envelope 2, 2
	note G_, 1
	sound_loop 2, Music_OreburghGateDPPt_Ch3_branch_2
	octave 5
	volume_envelope 2, 2
	note F#, 1
	note C#, 1
	note D_, 1
	octave 4
	note A#, 1
	octave 5
	note C#, 1
	octave 4
	note G_, 1
	note A#, 1
	note F#, 1
	note G_, 1
	note C#, 1
	note D_, 1
	octave 3
	note A#, 1
	octave 4
	note C#, 1
	octave 3
	note G_, 1
	note A#, 1
	note F#, 1
	note G_, 1
	note C#, 1
	note D_, 1
	octave 2
	note A#, 1
	octave 3
	note C#, 1
	octave 2
	note G_, 1
	note A#, 1
	note F#, 1
	octave 3
	volume_envelope 1, 5
	note G_, 1
	rest 1
	note G_, 3
	rest 1
	note G_, 1
	rest 1
	note G_, 1
	rest 1
	note G_, 3
	rest 1
	volume_envelope 2, 5
	note G_, 1
	rest 1
	note G_, 1
	rest 1
	note G_, 3
	rest 1
	note G_, 1
	rest 1
	volume_envelope 1, 5
	note G#, 1
	rest 1
	note G#, 3
	rest 1
	note G#, 1
	rest 1
	note G#, 1
	rest 1
	note G#, 3
	rest 1
	volume_envelope 2, 5
	note G#, 1
	rest 1
	note G#, 1
	rest 1
	note G#, 3
	rest 1
	note G#, 1
	rest 1
	volume_envelope 1, 5
	note A_, 1
	rest 1
	note A_, 3
	rest 1
	note A_, 1
	rest 1
	note A_, 1
	rest 1
	note A_, 3
	rest 1
	volume_envelope 2, 5
	note A_, 1
	rest 1
	note A_, 1
	rest 1
	note A_, 3
	rest 1
	note A_, 1
	rest 1
	note A_, 1
	rest 1
	note A_, 3
	rest 1
	note A_, 1
	rest 1
	note A_, 1
	rest 1
	note A_, 3
	rest 1
	volume_envelope 3, 5
	note A_, 1
	rest 1
	note A_, 1
	rest 1
	note A_, 3
	rest 1
	note A_, 1
	rest 1
	volume_envelope 1, 2
	rest 12
	rest 12
	sound_jump Music_OreburghGateDPPt_Ch3_branch_1
