; Pokémon D/P/Pt - Route 209
; Demixed by FroggestSpirit
; https://github.com/froggestspirit/CrystalComplete/blob/master/audio/music/DPPt/route209.asm

Music_Route209DPPt:
	channel_count 4
	channel 1, Music_Route209DPPt_Ch1
	channel 2, Music_Route209DPPt_Ch2
	channel 3, Music_Route209DPPt_Ch3
	channel 4, Music_Route209DPPt_Ch4

Music_Route209DPPt_Ch1:
	tempo 224
	volume 7, 7
	note_type 12, 9, 2
	duty_cycle 1
	pitch_offset 1
	octave 4
	rest 2
	octave 2
	note E_, 2
	note A_, 2
	note B_, 2
	octave 3
	note C#, 2
	note E_, 2
	note A_, 2
	octave 4
	note C#, 2
Music_Route209DPPt_Ch1_loop:
	volume_envelope 9, 1
	duty_cycle 0
	note A_, 2
	note E_, 2
	note A_, 2
	octave 5
	note C#, 1
	note D_, 1
	note E_, 3
	note F#, 1
	note E_, 1
	note D_, 1
	note C#, 1
	octave 4
	note B_, 1
	octave 5
	note C#, 2
	note D_, 2
	note C#, 2
	octave 4
	note B_, 2
	note A_, 2
	note E_, 2
	note A_, 2
	octave 5
	note C#, 1
	note D_, 1
	note E_, 2
	octave 4
	note A_, 2
	note E_, 2
	octave 5
	note C#, 1
	note D_, 1
	note E_, 1
	note D_, 1
	note C#, 1
	octave 4
	note B_, 1
	note A_, 2
	note E_, 2
	octave 5
	note C_, 2
	octave 4
	note B_, 2
	note A_, 1
	note E_, 1
	note C_, 1
	note D_, 1
	note F_, 2
	note A_, 2
	octave 5
	note C_, 2
	octave 4
	note B_, 2
	octave 5
	note A_, 1
	note E_, 1
	note E_, 1
	octave 4
	note A_, 1
	note A_, 1
	note E_, 1
	note E_, 1
	octave 3
	note A_, 1
	note A_, 1
	note E_, 1
	note E_, 1
	note A_, 1
	note A_, 1
	octave 4
	note E_, 1
	note A_, 1
	octave 5
	note E_, 1
	note A_, 1
	note D_, 1
	note D_, 1
	octave 4
	note A_, 1
	note A_, 1
	note D_, 1
	note D_, 1
	octave 3
	note A_, 1
	note A_, 1
	note D_, 1
	note D_, 1
	note A_, 1
	note A_, 1
	octave 4
	note D_, 1
	note A_, 1
	octave 5
	note D_, 1
	note A_, 1
	note E_, 1
	note E_, 1
	octave 4
	note A_, 1
	note A_, 1
	note E_, 1
	note E_, 1
	octave 3
	note A_, 1
	note A_, 1
	note E_, 1
	note E_, 1
	note A_, 1
	note A_, 1
	octave 4
	note E_, 1
	note A_, 1
	octave 5
	note E_, 1
	note A_, 1
	note D_, 1
	note D_, 1
	octave 4
	note A_, 1
	note A_, 1
	note D_, 1
	note D_, 1
	octave 3
	note A_, 1
	note A_, 1
	note D_, 1
	note D_, 1
	note A_, 1
	note A_, 1
	octave 4
	note D_, 1
	note A_, 1
	octave 5
	note D_, 5
	volume_envelope 9, 5
	octave 3
	note G#, 8
	note B_, 8
	octave 4
	note C#, 8
	note D_, 8
	octave 3
	note G#, 8
	note B_, 8
	octave 4
	note C#, 8
	volume_envelope 9, 3
	note C#, 4
	volume_envelope 9, 1
	note C#, 2
	volume_envelope 9, 3
	note C#, 6
	volume_envelope 9, 1
	note C#, 2
	volume_envelope 9, 3
	note C#, 6
	volume_envelope 9, 1
	note C#, 2
	volume_envelope 9, 3
	note C#, 4
	volume_envelope 9, 5
	note C#, 10
	volume_envelope 9, 1
	note D_, 2
	note_type 8, 9, 1
	note D_, 1
	note D_, 1
	note D_, 1
	note_type 12, 9, 1
	octave 3
	note A_, 1
	octave 4
	note D_, 2
	octave 3
	note A_, 1
	octave 4
	note E_, 2
	note_type 8, 9, 1
	note E_, 1
	note E_, 1
	note E_, 1
	note_type 12, 9, 1
	octave 3
	note B_, 1
	octave 4
	note E_, 2
	octave 3
	note B_, 1
	octave 4
	note F_, 2
	note_type 8, 9, 1
	note F_, 1
	note F_, 1
	note F_, 1
	note_type 12, 9, 1
	note C_, 1
	note F_, 2
	note C_, 1
	note G_, 2
	note_type 8, 9, 1
	note G_, 1
	note G_, 1
	note G_, 1
	note_type 12, 9, 1
	note D_, 1
	note G_, 2
	note G#, 1
	volume_envelope 7, 8
	note A_, 10
	volume_envelope 7, 7
	note A_, 6
	volume_envelope 9, 1
	rest 2
	octave 3
	note E_, 3
	volume_envelope 9, 3
	note E_, 5
	volume_envelope 9, 1
	note F#, 3
	volume_envelope 9, 3
	note F#, 7
	volume_envelope 9, 1
	duty_cycle 2
	octave 5
	note A_, 1
	note E_, 1
	octave 6
	note C#, 1
	note D_, 1
	note E_, 1
	octave 5
	note E_, 1
	note A_, 1
	octave 6
	note E_, 1
	note D_, 1
	note C#, 1
	octave 5
	note A_, 1
	note E_, 1
	note D_, 1
	note C#, 1
	octave 4
	note A_, 1
	note E_, 1
	note D_, 1
	note C#, 1
	octave 3
	note A_, 1
	note E_, 1
	note A_, 1
	note E_, 1
	octave 4
	note C#, 1
	note D_, 1
	note E_, 1
	note A_, 1
	note B_, 1
	octave 5
	note C#, 3
	octave 3
	note E_, 3
	volume_envelope 9, 3
	note E_, 5
	volume_envelope 9, 1
	note G#, 3
	volume_envelope 9, 3
	note G#, 5
	volume_envelope 9, 1
	note A_, 3
	volume_envelope 9, 3
	note A_, 5
	volume_envelope 9, 1
	note B_, 2
	note B_, 1
	note B_, 2
	note E_, 2
	note E_, 3
	note E_, 1
	note E_, 2
	note G_, 2
	note G_, 3
	note G_, 1
	note G_, 2
	note A_, 2
	note A_, 3
	note A_, 1
	note A_, 2
	note B_, 2
	note B_, 2
	note B_, 1
	note B_, 1
	note B_, 2
	note A_, 1
	volume_envelope 10, 2
	duty_cycle 1
	vibrato 8, 2, 5
	octave 4
	note B_, 1
	volume_envelope 10, 7
	note A_, 16
	rest 15
	sound_jump Music_Route209DPPt_Ch1_loop

Music_Route209DPPt_Ch2:
	note_type 12, 10, 1
	duty_cycle 2
	octave 5
	note B_, 1
	note A_, 1
	note E_, 1
	note A_, 1
	note B_, 1
	note A_, 1
	note E_, 1
	note A_, 1
	note B_, 1
	note A_, 1
	note E_, 1
	note A_, 1
	note E_, 1
	octave 4
	note B_, 1
	note A_, 1
	note E_, 1
Music_Route209DPPt_Ch2_loop:
	note_type 3, 10, 7
	duty_cycle 3
	pitch_offset 2
	vibrato 8, 2, 5
	octave 2
	note G#, 1
	note A_, 15
	note E_, 16
	octave 3
	note C#, 8
	note D_, 8
	note E_, 8
	note_type 2, 10, 7
	note G#, 1
	note_type 14, 10, 7
	note A_, 5
	note_type 12, 10, 7
	note E_, 4
	note C#, 2
	note D_, 2
	note E_, 2
	note A_, 6
	note E_, 4
	octave 4
	note C#, 2
	note D_, 2
	note E_, 2
	octave 3
	note A_, 6
	note E_, 4
	note B_, 2
	octave 4
	note C_, 2
	octave 3
	note B_, 2
	volume_envelope 10, 0
	note A_, 16
	note A_, 8
	volume_envelope 10, 7
	note A_, 8
	volume_envelope 10, 1
	rest 2
	volume_envelope 10, 3
	duty_cycle 2
	octave 5
	note C#, 2
	note A_, 2
	note G#, 2
	note A_, 4
	note E_, 2
	note B_, 2
	octave 6
	note E_, 2
	octave 5
	note B_, 2
	note A_, 2
	note G#, 2
	note A_, 4
	note E_, 2
	note B_, 2
	octave 6
	note E_, 2
	duty_cycle 1
	octave 3
	note A_, 4
	note E_, 2
	octave 4
	note C#, 1
	note D_, 1
	note E_, 2
	note F#, 2
	note E_, 1
	note D_, 1
	note C#, 1
	octave 3
	note B_, 1
	note A_, 2
	note E_, 2
	note A_, 2
	note B_, 4
	octave 4
	note D_, 2
	note C#, 2
	octave 3
	note A_, 2
	note B_, 2
	note A_, 2
	note E_, 2
	octave 4
	note C#, 1
	note D_, 1
	note E_, 2
	note F#, 2
	note E_, 1
	note D_, 1
	note C#, 1
	octave 3
	note B_, 1
	note A_, 2
	note E_, 2
	note A_, 2
	note B_, 4
	octave 4
	note C#, 2
	octave 3
	note B_, 2
	note A_, 2
	note G#, 2
	note A_, 4
	volume_envelope 10, 1
	note G#, 1
	note F#, 1
	volume_envelope 10, 3
	note G#, 2
	note A_, 4
	volume_envelope 10, 1
	note G#, 1
	note F#, 1
	volume_envelope 10, 3
	note G#, 2
	note A_, 2
	octave 4
	note E_, 2
	note A_, 4
	volume_envelope 10, 4
	duty_cycle 2
	octave 3
	note E_, 2
	note A_, 2
	note G#, 2
	note A_, 2
	note E_, 2
	note A_, 2
	note G#, 4
	note A_, 2
	note B_, 2
	octave 4
	note C_, 4
	octave 3
	note B_, 2
	octave 4
	note C_, 2
	note D_, 4
	note C_, 2
	note D_, 2
	volume_envelope 5, -6
	note E_, 4
	volume_envelope 10, 0
	note E_, 6
	volume_envelope 10, 7
	note E_, 6
	volume_envelope 10, 1
	rest 2
	note A_, 2
	note E_, 2
	note A_, 2
	volume_envelope 10, 3
	octave 5
	note C_, 4
	volume_envelope 10, 1
	octave 4
	note B_, 2
	note A_, 2
	volume_envelope 10, 3
	note B_, 4
	volume_envelope 10, 1
	note B_, 2
	volume_envelope 10, 7
	note A_, 16
	rest 12
	volume_envelope 10, 2
	duty_cycle 1
	note A_, 1
	note E_, 2
	note A_, 3
	octave 5
	note C#, 1
	note D_, 1
	note E_, 1
	note F#, 2
	note E_, 2
	note D_, 1
	note C#, 1
	octave 4
	note B_, 1
	note A_, 1
	note E_, 2
	note A_, 3
	octave 5
	note D_, 1
	note C#, 2
	octave 4
	note A_, 2
	note E_, 2
	note A_, 1
	note B_, 1
	note A_, 2
	note E_, 2
	note A_, 3
	octave 5
	note C#, 1
	note D_, 1
	note C#, 1
	octave 4
	note B_, 1
	note A_, 1
	note E_, 2
	note A_, 1
	octave 5
	note C#, 1
	note D_, 1
	note E_, 1
	note E_, 2
	octave 4
	note A_, 1
	note A_, 2
	octave 5
	note F#, 1
	note E_, 1
	note C#, 1
	octave 4
	note A_, 2
	note E_, 2
	octave 5
	note D_, 1
	note C#, 1
	octave 4
	note A_, 1
	volume_envelope 10, 1
	duty_cycle 2
	pitch_offset 0
	octave 5
	note B_, 1
	note A_, 1
	note E_, 1
	note A_, 1
	note B_, 1
	note A_, 1
	note E_, 1
	note A_, 1
	note B_, 1
	note A_, 1
	note E_, 1
	note A_, 1
	note E_, 1
	octave 4
	note B_, 1
	note A_, 1
	note E_, 1
	octave 5
	note B_, 1
	note A_, 1
	note D_, 1
	note A_, 1
	note B_, 1
	note A_, 1
	note D_, 1
	note A_, 1
	note B_, 1
	note A_, 1
	note D_, 1
	note A_, 1
	note D_, 1
	octave 4
	note B_, 1
	note A_, 1
	note E_, 1
	sound_jump Music_Route209DPPt_Ch2_loop

Music_Route209DPPt_Ch3:
	note_type 12, 1, 2
	octave 2
	rest 16
Music_Route209DPPt_Ch3_loop:
	note_type 14, 1, 2
	note A_, 3
	note_type 6, 1, 2
	rest 1
	note A_, 7
	rest 1
	note G#, 7
	rest 1
	note G#, 7
	rest 1
	note F#, 7
	rest 1
	note F#, 7
	rest 1
	note E_, 7
	rest 1
	note E_, 7
	rest 1
	note D_, 7
	rest 1
	note D_, 7
	rest 1
	note C#, 7
	rest 1
	note C#, 7
	rest 1
	note F_, 7
	rest 1
	note F_, 7
	rest 1
	note G_, 7
	rest 1
	note G_, 7
	rest 1
	note_type 12, 1, 2
	octave 1
	note A_, 12
	rest 4
	note A_, 12
	rest 4
	note A_, 3
	note A_, 3
	rest 10
	note A_, 3
	note A_, 3
	rest 10
	note A_, 1
	rest 1
	note A_, 1
	rest 3
	note A_, 1
	rest 1
	octave 2
	note C#, 1
	rest 1
	note C#, 1
	rest 3
	note C#, 1
	rest 1
	note D_, 1
	rest 1
	note D_, 1
	rest 3
	note D_, 1
	rest 1
	note E_, 1
	rest 1
	note E_, 1
	rest 3
	note E_, 1
	rest 1
	octave 1
	note A_, 1
	rest 1
	note A_, 1
	rest 3
	note A_, 1
	rest 1
	octave 2
	note C#, 1
	rest 1
	note C#, 1
	rest 3
	note C#, 1
	rest 1
	note D_, 1
	rest 1
	note D_, 1
	rest 3
	note D_, 1
	rest 1
	note C#, 1
	rest 1
	note C#, 1
	rest 3
	note C#, 1
	rest 5
	note F#, 1
	note F#, 2
	rest 5
	note F_, 1
	note F_, 2
	rest 1
	note E_, 2
	note E_, 2
	rest 2
	note D#, 2
	rest 8
	note D_, 2
	note D_, 2
	rest 1
	note A_, 1
	rest 1
	octave 3
	note D_, 1
	octave 2
	note E_, 2
	note E_, 2
	rest 1
	note B_, 1
	rest 1
	octave 3
	note E_, 1
	octave 2
	note F_, 2
	note F_, 2
	rest 1
	octave 3
	note C_, 1
	rest 1
	note F_, 1
	octave 2
	note G_, 2
	note G_, 2
	rest 1
	octave 3
	note D_, 1
	rest 1
	note G_, 1
	octave 2
	note A_, 1
	octave 1
	note A_, 1
	note A_, 12
	octave 2
	note A_, 2
	octave 1
	note A_, 2
	rest 1
	note A_, 7
	octave 2
	note D_, 4
	note E_, 2
	octave 1
	note A_, 2
	rest 1
	note A_, 5
	rest 8
	note A_, 2
	rest 1
	note A_, 5
	rest 5
	octave 2
	note E_, 1
	rest 1
	note E_, 1
	note_type 6, 1, 2
	octave 1
	note A_, 1
	rest 1
	note A_, 1
	rest 13
	octave 2
	note C#, 1
	rest 1
	note C#, 1
	rest 13
	note D_, 1
	rest 1
	note D_, 1
	rest 13
	note E_, 1
	rest 1
	note E_, 1
	rest 15
	note A_, 1
	rest 1
	octave 1
	note A_, 1
	rest 1
	note A_, 1
	rest 3
	note A_, 1
	rest 1
	octave 2
	note C#, 1
	rest 1
	octave 1
	note A_, 1
	rest 3
	octave 3
	note C#, 1
	rest 1
	octave 2
	note C#, 1
	rest 1
	note C#, 1
	rest 3
	note E_, 1
	rest 1
	note G_, 1
	rest 1
	note E_, 1
	rest 3
	octave 3
	note D_, 1
	rest 1
	octave 2
	note D_, 1
	rest 1
	note D_, 1
	rest 3
	note D_, 1
	rest 1
	note A_, 1
	rest 1
	note F#, 1
	rest 3
	octave 3
	note E_, 1
	rest 1
	octave 2
	note E_, 1
	rest 1
	note E_, 1
	rest 3
	note E_, 1
	rest 1
	note B_, 1
	rest 1
	note A_, 1
	rest 16
	rest 16
	rest 13
	octave 3
	note A_, 4
	note D_, 4
	octave 2
	note B_, 4
	note A_, 4
	note E_, 4
	sound_jump Music_Route209DPPt_Ch3_loop

Music_Route209DPPt_Ch4:
	toggle_noise 3
	drum_speed 12
	drum_note 2, 2
	drum_note 2, 2
	drum_note 2, 2
	drum_speed 8
	drum_note 2, 1
	drum_note 2, 1
	drum_note 2, 1
	drum_note 2, 3
	drum_note 2, 3
	drum_note 2, 3
	drum_note 2, 1
	drum_note 2, 1
	drum_note 2, 1
Music_Route209DPPt_Ch4_loop:
	drum_note 2, 3
	drum_note 2, 3
	drum_note 12, 3
	drum_note 2, 1
	drum_note 2, 1
	drum_note 2, 1
	drum_note 2, 3
	drum_note 2, 3
	drum_note 12, 3
	drum_note 2, 1
	drum_note 2, 1
	drum_note 2, 1
	drum_note 2, 3
	drum_note 2, 3
	drum_note 12, 3
	drum_note 2, 1
	drum_note 2, 1
	drum_note 2, 1
	drum_note 2, 3
	drum_note 2, 3
	drum_note 12, 3
	drum_note 2, 1
	drum_note 2, 1
	drum_note 2, 1
	drum_note 2, 3
	drum_note 2, 3
	drum_note 12, 3
	drum_note 2, 1
	drum_note 2, 1
	drum_note 2, 1
	drum_note 2, 3
	drum_note 2, 3
	drum_note 12, 3
	drum_note 2, 1
	drum_note 2, 1
	drum_note 2, 1
	drum_note 2, 3
	drum_note 2, 3
	drum_note 12, 3
	drum_note 2, 1
	drum_note 2, 1
	drum_note 2, 1
	drum_note 2, 3
	drum_note 2, 3
	drum_note 12, 3
	drum_note 2, 1
	drum_note 2, 1
	drum_note 2, 1
	drum_speed 12
	drum_note 12, 16
	drum_note 12, 16
	rest 16
	rest 16
	drum_note 2, 2
	drum_note 2, 2
	drum_note 9, 2
	drum_note 8, 2
	drum_note 2, 2
	drum_note 2, 2
	drum_note 9, 2
	drum_note 8, 2
	drum_note 2, 2
	drum_note 2, 2
	drum_note 9, 2
	drum_note 8, 2
	drum_note 2, 2
	drum_note 2, 2
	drum_note 9, 2
	drum_note 8, 2
	drum_note 2, 2
	drum_note 2, 2
	drum_note 9, 2
	drum_note 8, 2
	drum_note 2, 2
	drum_note 2, 2
	drum_note 9, 2
	drum_note 8, 2
	drum_note 2, 2
	drum_note 2, 2
	drum_note 9, 2
	drum_note 8, 2
	drum_note 2, 2
	drum_note 2, 2
	drum_note 9, 2
	drum_note 8, 2
	drum_note 2, 2
	drum_note 2, 6
	drum_note 2, 2
	drum_note 2, 6
	drum_note 2, 2
	drum_note 2, 2
	drum_note 2, 1
	drum_note 2, 1
	drum_note 12, 6
	drum_note 2, 1
	drum_note 2, 2
	drum_note 2, 1
	drum_note 2, 2
	drum_note 2, 2
	drum_note 12, 2
	drum_speed 8
	drum_note 2, 1
	drum_note 2, 1
	drum_note 2, 1
	drum_note 2, 3
	drum_note 2, 3
	drum_note 12, 3
	drum_note 2, 1
	drum_note 2, 1
	drum_note 2, 1
	drum_note 2, 3
	drum_note 2, 3
	drum_note 12, 3
	drum_note 2, 1
	drum_note 2, 1
	drum_note 2, 1
	drum_note 2, 3
	drum_note 2, 3
	drum_note 12, 6
	drum_speed 12
	drum_note 12, 12
	drum_note 2, 1
	drum_note 2, 3
	drum_note 2, 2
	drum_note 2, 2
	drum_note 2, 1
	drum_note 2, 5
	drum_note 2, 2
	drum_note 2, 1
	drum_note 2, 3
	drum_note 2, 2
	drum_note 2, 2
	drum_note 2, 2
	drum_note 2, 2
	drum_note 2, 2
	drum_note 2, 2
	drum_note 2, 2
	drum_note 2, 4
	drum_note 2, 2
	drum_note 2, 2
	drum_note 2, 4
	drum_note 2, 2
	drum_note 2, 1
	drum_note 2, 2
	drum_note 2, 1
	drum_note 2, 1
	drum_note 2, 3
	drum_note 9, 4
	drum_note 2, 1
	drum_note 2, 3
	drum_note 9, 4
	drum_note 2, 1
	drum_note 2, 3
	drum_note 9, 4
	drum_note 2, 1
	drum_note 2, 3
	drum_note 9, 4
	drum_note 2, 1
	drum_note 2, 3
	drum_note 9, 4
	drum_note 2, 1
	drum_note 2, 3
	drum_note 9, 4
	drum_note 2, 1
	drum_note 2, 3
	drum_note 9, 4
	drum_note 2, 1
	drum_note 2, 3
	drum_note 9, 4
	drum_note 2, 2
	drum_note 2, 2
	drum_note 2, 2
	drum_speed 8
	drum_note 2, 1
	drum_note 2, 1
	drum_note 2, 1
	drum_note 2, 3
	drum_note 2, 3
	drum_note 2, 3
	drum_note 2, 1
	drum_note 2, 1
	drum_note 2, 1
	drum_note 2, 3
	drum_note 2, 3
	drum_note 2, 3
	drum_note 2, 1
	drum_note 2, 1
	drum_note 2, 1
	drum_note 2, 3
	drum_note 2, 3
	drum_note 2, 3
	drum_note 2, 1
	drum_note 2, 1
	drum_note 2, 1
	sound_jump Music_Route209DPPt_Ch4_loop
