; Pokémon D/P/Pt - Route 216
; Demixed by FroggestSpirit
; https://github.com/froggestspirit/CrystalComplete/blob/master/audio/music/DPPt/route216.asm

Music_Route216DPPt:
	dbw $C0, Music_Route216DPPt_Ch1
	dbw $01, Music_Route216DPPt_Ch2
	dbw $02, Music_Route216DPPt_Ch3
	dbw $03, Music_Route216DPPt_Ch4

Music_Route216DPPt_Ch1:
	tempo $C0
	volume $77
	notetype $C, $A6
	dutycycle 1
	tone $0001
	octave 3
	note __, 16
	note __, 12
	octave 2
	note D_, 2
	octave 3
	note E_, 16
	note __, 14
	octave 2
	note D_, 2
	octave 3
	note E_, 16
	note __, 14
	octave 2
	note D_, 2
	octave 3
	note D_, 16
	note __, 14
	octave 2
	note C_, 2
	octave 3
	note D_, 16
	notetype $6, $B2
	note __, 1
	octave 5
	note E_, 1
	note C#, 1
	octave 4
	note A_, 1
	note F#, 5
	intensity $82
	octave 5
	note E_, 1
	note C#, 1
	octave 4
	note A_, 1
	note F#, 5
	intensity $52
	octave 5
	note E_, 1
	note C#, 1
	octave 4
	note A_, 1
	note F#, 8
	intensity $A6
	octave 2
	note D_, 4
	octave 3
	note E_, 16
	note __, 16
	note __, 1
	intensity $B2
	octave 5
	note E_, 1
	note C_, 1
	octave 4
	note A_, 1
	note F_, 5
	intensity $82
	octave 5
	note E_, 1
	note C_, 1
	octave 4
	note A_, 1
	note F_, 5
	intensity $52
	octave 5
	note E_, 1
	note C_, 1
	octave 4
	note A_, 1
	note F_, 8
	intensity $A6
	octave 2
	note D_, 4
	octave 3
	note E_, 16
	note __, 16
	note __, 1
	intensity $B2
	octave 5
	note D_, 1
	octave 4
	note B_, 1
	note G_, 1
	note D_, 5
	intensity $82
	octave 5
	note D_, 1
	octave 4
	note B_, 1
	note G_, 1
	note D_, 5
	intensity $52
	octave 5
	note D_, 1
	octave 4
	note B_, 1
	note G_, 1
	note D_, 8
	intensity $A6
	octave 2
	note D_, 4
	octave 3
	note D_, 16
	note __, 16
	note __, 1
	intensity $B2
	octave 5
	note D_, 1
	octave 4
	note B_, 1
	note G_, 1
	note C_, 5
	intensity $82
	octave 5
	note D_, 1
	octave 4
	note B_, 1
	note G_, 1
	note C_, 5
	intensity $52
	octave 5
	note D_, 1
	octave 4
	note B_, 1
	note G_, 1
	note C_, 8
	intensity $A7
	octave 2
	note C_, 4
	notetype $F, $A7
	octave 3
	note D_, 8
	notetype $C, $A7
	note D_, 4
	note E_, 4
Music_Route216DPPt_Ch1_loop:
	note F#, 4
	note D_, 4
	note E_, 4
	note A_, 4
	note G_, 8
	note D_, 8
	note A_, 4
	note E_, 4
	note G_, 4
	notetype $F, $A4
	note F#, 16
	notetype $C, $A7
	note F#, 2
	note D_, 2
	notetype $8, $A7
	note E_, 2
	note F#, 1
	note D_, 2
	octave 2
	note A_, 7
	octave 3
	note A_, 6
	note G_, 12
	note D_, 12
	note A_, 3
	note F#, 3
	note G_, 2
	note A_, 1
	note F#, 2
	note D_, 7
	notetype $F, $A4
	octave 4
	note D_, 16
	notetype $8, $A7
	octave 3
	note F#, 16
	note __, 1
	notetype $4, $A7
	note G_, 1
	note G#, 1
	note A_, 6
	note G#, 2
	note G_, 2
	note F#, 2
	note F_, 9
	note D_, 9
	note G#, 1
	note A_, 11
	note D_, 6
	note A_, 6
	note B_, 1
	octave 4
	note C_, 5
	notetype $C, $A7
	octave 3
	note B_, 12
	note D_, 2
	note E_, 2
	note F_, 2
	note G_, 2
	note A_, 2
	note G_, 6
	note F#, 2
	note G_, 2
	notetype $8, $A2
	dutycycle 0
	note A_, 2
	note D_, 1
	note E_, 2
	note F#, 1
	intensity $82
	note A_, 2
	note D_, 1
	note E_, 2
	note F#, 1
	intensity $62
	note A_, 2
	note D_, 1
	note E_, 2
	note F#, 1
	intensity $42
	note A_, 2
	note D_, 1
	note E_, 2
	note F#, 1
	intensity $A2
	note A_, 2
	note D_, 1
	note F_, 2
	note A_, 1
	intensity $82
	note A_, 2
	note D_, 1
	note F_, 2
	note A_, 1
	intensity $62
	note A_, 2
	note D_, 1
	note F_, 2
	note A_, 1
	intensity $42
	note A_, 2
	note D_, 1
	note F_, 2
	note A_, 1
	intensity $A2
	note B_, 2
	note D_, 1
	note G_, 2
	note B_, 1
	intensity $82
	note B_, 2
	note D_, 1
	note G_, 2
	note B_, 1
	intensity $62
	note B_, 2
	note D_, 1
	note G_, 2
	note B_, 1
	intensity $42
	note B_, 2
	note D_, 1
	note G_, 2
	note B_, 1
	intensity $A2
	octave 4
	note C_, 2
	octave 3
	note C_, 1
	note G_, 2
	octave 4
	note C_, 1
	intensity $82
	note C_, 2
	octave 3
	note C_, 1
	note G_, 2
	octave 4
	note C_, 1
	intensity $62
	note C_, 2
	octave 3
	note C_, 1
	note G_, 2
	octave 4
	note C_, 1
	intensity $A7
	dutycycle 1
	octave 3
	note C#, 1
	note D_, 1
	note E_, 1
	note F#, 1
	note G_, 1
	note A_, 1
	notetype $4, $A7
	note A#, 1
	note B_, 6
	note D_, 5
	note F#, 1
	note G_, 5
	notetype $C, $A7
	note D_, 6
	notetype $4, $A7
	note F#, 1
	note G_, 3
	note B_, 2
	note A#, 2
	note A_, 2
	note G_, 2
	note F#, 6
	note C#, 6
	note F_, 1
	note F#, 5
	notetype $C, $A7
	note C#, 6
	notetype $4, $A7
	octave 4
	note C_, 1
	note C#, 4
	octave 3
	note A#, 1
	note A_, 4
	note F#, 2
	octave 4
	note D_, 10
	octave 3
	note B_, 6
	note G_, 6
	note F_, 6
	note E_, 2
	note D_, 4
	note E_, 2
	note F_, 4
	note G_, 2
	note A#, 4
	note A_, 2
	note A#, 1
	note B_, 5
	note A_, 6
	note G_, 4
	note A_, 8
	note B_, 4
	octave 4
	note C#, 1
	octave 3
	note B_, 1
	note A_, 6
	note B_, 4
	octave 4
	note C#, 6
	octave 3
	note A_, 14
	note F#, 1
	note G_, 5
	notetype $C, $A7
	note D_, 6
	notetype $4, $A7
	note F#, 1
	note G_, 3
	note B_, 2
	note A#, 2
	note A_, 2
	note G_, 2
	note F#, 6
	note C#, 6
	note F_, 1
	note F#, 5
	note C#, 6
	octave 4
	note D#, 6
	note F#, 4
	note G_, 6
	note F#, 2
	note F#, 4
	note F_, 2
	note F#, 10
	note E_, 6
	note D_, 6
	octave 3
	note B_, 2
	note B_, 4
	octave 4
	note C#, 1
	octave 3
	note B_, 1
	note G_, 6
	note G_, 6
	note E_, 4
	octave 2
	note A#, 6
	octave 4
	note C#, 6
	octave 3
	note F#, 6
	octave 4
	note D_, 8
	note D_, 4
	octave 3
	note A#, 6
	note G_, 2
	note E_, 4
	octave 2
	note F#, 2
	note G#, 2
	octave 3
	note D_, 2
	note E_, 2
	notetype $C, $A7
	loopchannel 0, Music_Route216DPPt_Ch1_loop

Music_Route216DPPt_Ch2:
	notetype $6, $B2
	dutycycle 1
	tone $0002
	octave 4
	note __, 13
	note __, 16
	octave 5
	note E_, 1
	note C#, 1
	octave 4
	note A_, 1
	note F#, 5
	intensity $82
	octave 5
	note E_, 1
	note C#, 1
	octave 4
	note A_, 1
	note F#, 5
	intensity $52
	octave 5
	note E_, 1
	note C#, 1
	octave 4
	note A_, 1
	note F#, 8
	intensity $B6
	octave 1
	note D_, 4
	octave 3
	note C#, 16
	note __, 16
	note __, 1
	intensity $B2
	octave 5
	note E_, 1
	note C_, 1
	octave 4
	note A_, 1
	note F_, 5
	intensity $82
	octave 5
	note E_, 1
	note C_, 1
	octave 4
	note A_, 1
	note F_, 5
	intensity $52
	octave 5
	note E_, 1
	note C_, 1
	octave 4
	note A_, 1
	note F_, 8
	intensity $B6
	octave 1
	note D_, 4
	octave 3
	note C_, 16
	note __, 16
	note __, 1
	intensity $B2
	octave 5
	note D_, 1
	octave 4
	note B_, 1
	note G_, 1
	note D_, 5
	intensity $82
	octave 5
	note D_, 1
	octave 4
	note B_, 1
	note G_, 1
	note D_, 5
	intensity $52
	octave 5
	note D_, 1
	octave 4
	note B_, 1
	note G_, 1
	note D_, 8
	intensity $B6
	octave 1
	note D_, 4
	octave 2
	note B_, 16
	note __, 16
	note __, 1
	intensity $B2
	octave 5
	note D_, 1
	octave 4
	note B_, 1
	note G_, 1
	note C_, 5
	intensity $82
	octave 5
	note D_, 1
	octave 4
	note B_, 1
	note G_, 1
	note C_, 5
	intensity $52
	octave 5
	note D_, 1
	octave 4
	note B_, 1
	note G_, 1
	note C_, 8
	intensity $B7
	octave 1
	note C_, 4
	notetype $C, $B7
	octave 2
	note A#, 16
	notetype $E, $B7
	vibrato $00, $12
	octave 3
	note A_, 1
	notetype $A, $B7
	note B_, 1
	notetype $6, $B7
	octave 4
	note C_, 1
	note C#, 11
	note C_, 1
	octave 3
	note B_, 1
	note A#, 2
	note A_, 4
	note F#, 6
	note G_, 1
	note G#, 1
	notetype $C, $B7
	note A_, 16
	notetype $6, $B7
	note A_, 1
	note B_, 1
	note A_, 1
	note G_, 1
	note F_, 4
	note A_, 4
	octave 4
	note C_, 4
	note D#, 1
	note E_, 6
	note D#, 1
	note D_, 4
	note C_, 2
	octave 3
	note A_, 2
	note B_, 10
	note A#, 1
	note B_, 1
	octave 4
	note C_, 8
	note D_, 12
	note C_, 1
	note D_, 1
	note C_, 2
	octave 3
	note B_, 4
	note G_, 6
	note F#, 1
	note E_, 1
	note D_, 4
	note F#, 1
	note G_, 7
	notetype $4, $B7
	note C#, 1
	note D_, 5
	notetype $C, $B7
	note G_, 16
	note G_, 1
	note F_, 1
	note D#, 4
	note G_, 3
	notetype $6, $B7
	note B_, 1
	octave 4
	note C_, 1
	note D_, 8
	note C_, 6
	octave 3
	note G_, 1
	note A_, 1
	note A#, 6
	octave 4
	note C_, 1
	octave 3
	note A#, 1
	note A_, 8
	note A#, 8
	notetype $8, $B7
	octave 4
	note C_, 4
	octave 3
	note D_, 1
	note E_, 1
Music_Route216DPPt_Ch2_loop:
	dutycycle 2
	vibrato $00, $34
	note F#, 9
	note F_, 1
	note E_, 1
	note D#, 1
	note D_, 12
	notetype $4, $B7
	note E_, 1
	note F_, 5
	note G_, 4
	note F_, 2
	note A_, 4
	note D_, 6
	note D_, 2
	note F_, 4
	note F_, 2
	note G_, 4
	note F_, 2
	note A_, 4
	note G_, 2
	note A_, 4
	octave 4
	note C_, 2
	notetype $A, $B7
	note D_, 8
	notetype $8, $B7
	note C#, 1
	note C_, 1
	octave 3
	note B_, 12
	intensity $B2
	dutycycle 0
	octave 4
	note F_, 3
	note D_, 2
	note F_, 3
	note D_, 1
	note F_, 2
	note D_, 1
	note F_, 2
	note D_, 3
	note F_, 1
	note G_, 2
	note A_, 1
	note A#, 3
	intensity $B7
	dutycycle 2
	octave 3
	note A_, 10
	note G#, 1
	note G_, 1
	note F#, 12
	notetype $4, $B7
	note E_, 1
	note F_, 5
	note G_, 4
	note F_, 2
	note A_, 4
	note A_, 3
	note G_, 1
	note F_, 2
	note D_, 2
	note F_, 4
	note F_, 2
	note G_, 4
	note F_, 2
	note A_, 4
	note G#, 2
	note A_, 4
	octave 4
	note C#, 2
	notetype $A, $B7
	note D_, 8
	notetype $8, $B7
	note C#, 1
	note C_, 1
	octave 3
	note B_, 12
	intensity $B2
	dutycycle 0
	octave 4
	note F_, 3
	note D_, 2
	note A_, 3
	note D_, 1
	note F_, 2
	note D_, 1
	note G_, 2
	note D_, 3
	note F_, 1
	note G_, 2
	note A_, 1
	note A#, 3
	intensity $B7
	dutycycle 1
	note F#, 16
	note __, 1
	notetype $4, $B7
	note G_, 1
	note G#, 1
	note A_, 6
	note G#, 2
	note G_, 2
	note F#, 2
	note F_, 9
	note D_, 9
	note G#, 1
	note A_, 11
	note D_, 6
	note A_, 6
	note B_, 1
	octave 5
	note C_, 5
	notetype $C, $B7
	octave 4
	note B_, 12
	note D_, 2
	note E_, 2
	note F_, 2
	note G_, 2
	note A_, 2
	note G_, 6
	note F#, 2
	notetype $8, $B7
	note G_, 2
	notetype $4, $B7
	dutycycle 2
	octave 3
	note F#, 1
	note F_, 1
	note F#, 16
	note __, 16
	note __, 2
	note G_, 1
	note G#, 1
	note A_, 6
	note G_, 4
	note F#, 2
	note F_, 9
	note D_, 9
	note G#, 1
	note A_, 11
	note D_, 6
	note A_, 6
	note B_, 1
	octave 4
	note C_, 5
	notetype $C, $B7
	octave 3
	note B_, 12
	note D_, 2
	note E_, 2
	note F_, 2
	note G_, 2
	note A_, 2
	note G_, 6
	note A_, 2
	note A#, 2
	notetype $4, $B7
	octave 4
	note A#, 1
	note B_, 6
	note D_, 16
	note __, 1
	note E_, 4
	note F#, 1
	note E_, 1
	note C#, 4
	note D_, 2
	octave 3
	note B_, 4
	octave 4
	note C#, 2
	note D_, 4
	note B_, 2
	note A_, 6
	note F_, 1
	note F#, 16
	note __, 1
	note D#, 6
	note F#, 6
	note A_, 4
	note B_, 1
	note A_, 1
	note F#, 4
	note A_, 2
	note G_, 10
	note F#, 6
	note D#, 1
	note E_, 5
	note D_, 8
	octave 3
	note A#, 6
	octave 4
	note D_, 6
	octave 3
	note A#, 6
	octave 4
	note C#, 1
	note D_, 5
	note C#, 6
	octave 3
	note B_, 4
	octave 4
	note C#, 8
	note D_, 4
	note E_, 1
	note D_, 1
	note C#, 6
	note D_, 4
	note E_, 6
	note D_, 2
	note A#, 1
	note B_, 5
	notetype $C, $B7
	note D_, 6
	notetype $8, $B7
	note E_, 2
	notetype $4, $B7
	note F#, 1
	note E_, 1
	note C#, 4
	note D_, 2
	octave 3
	note B_, 4
	octave 4
	note C#, 2
	note D_, 4
	note B_, 2
	octave 5
	note C#, 6
	notetype $C, $B7
	octave 4
	note A_, 6
	note F#, 2
	notetype $8, $B7
	note A_, 2
	octave 5
	note D_, 3
	note E_, 1
	octave 4
	note B_, 2
	note A#, 1
	note A_, 5
	note G_, 3
	note F#, 4
	note D_, 2
	notetype $4, $B7
	note E_, 1
	note D_, 1
	octave 3
	note B_, 6
	note A#, 6
	octave 4
	note C#, 10
	note E_, 6
	octave 3
	note A_, 6
	octave 4
	note E_, 8
	note F#, 4
	note D_, 6
	octave 3
	note A#, 2
	note A_, 2
	note B_, 2
	octave 4
	note C#, 2
	note D_, 2
	note D#, 2
	note E_, 2
	octave 3
	notetype $8, $B7
	loopchannel 0, Music_Route216DPPt_Ch2_loop

Music_Route216DPPt_Ch3:
	notetype $C, $12
	octave 2
	note D_, 4
	note __, 4
	note D_, 1
	note __, 1
	note D_, 2
	note __, 4
	note D_, 4
	note __, 4
	note D_, 1
	note __, 1
	note D_, 2
	octave 1
	note A_, 1
	note __, 1
	octave 2
	note D_, 1
	note __, 1
	note D_, 4
	note __, 4
	note D_, 1
	note __, 1
	note D_, 2
	note __, 4
	note D_, 4
	note __, 4
	note D_, 1
	note __, 1
	note D_, 2
	octave 1
	note A_, 1
	note __, 1
	octave 2
	note D_, 1
	note __, 1
	note D_, 4
	note __, 4
	note D_, 1
	note __, 1
	note D_, 2
	note __, 4
	note D_, 4
	note __, 4
	note D_, 1
	note __, 1
	note D_, 2
	octave 1
	note B_, 1
	note __, 1
	octave 2
	note D_, 1
	note __, 1
	note D_, 4
	note __, 4
	note D_, 1
	note __, 1
	note D_, 2
	note __, 4
	note C_, 4
	note __, 4
	note C_, 1
	note __, 1
	note C_, 2
	octave 1
	note G_, 1
	note __, 1
	octave 2
	note C_, 1
	note __, 1
	note C_, 4
	note __, 4
	note C_, 1
	note __, 1
	note C_, 4
	note C#, 2
	note D_, 4
	note __, 4
	note D_, 1
	note __, 1
	note D_, 2
	octave 1
	note A_, 1
	note __, 1
	octave 2
	note D_, 1
	note __, 1
	note D_, 4
	note __, 4
	note D_, 1
	note __, 1
	note D_, 2
	note __, 4
	note D_, 4
	note __, 4
	note D_, 1
	note __, 1
	note D_, 2
	octave 1
	note A_, 1
	note __, 1
	octave 2
	note D_, 1
	note __, 1
	note D_, 4
	note __, 4
	note D_, 1
	note __, 1
	note D_, 2
	note __, 4
	note D_, 4
	note __, 4
	note D_, 1
	note __, 1
	note D_, 2
	octave 1
	note B_, 1
	note __, 1
	octave 2
	note D_, 1
	note __, 1
	note D_, 4
	note __, 4
	note D_, 1
	note __, 1
	note D_, 2
	note __, 4
	note C_, 4
	note __, 4
	note C_, 1
	note __, 1
	note C_, 2
	octave 1
	note A#, 1
	note __, 1
	octave 2
	note C_, 1
	note __, 3
	note C_, 2
	note __, 2
	note C_, 2
	octave 1
	note A_, 1
	note __, 1
	octave 2
	note A_, 2
	octave 1
	note A_, 1
	note __, 1
	octave 2
	note G_, 2
Music_Route216DPPt_Ch3_loop:
	notetype $8, $12
	note D_, 2
	note __, 4
	note D_, 1
	note __, 4
	notetype $4, $12
	note A_, 1
	note __, 1
	note D_, 3
	note __, 3
	note D_, 6
	note __, 4
	note D_, 2
	octave 1
	note A_, 6
	octave 2
	note D_, 4
	note __, 8
	note D_, 2
	note __, 8
	note A_, 1
	note __, 1
	note D_, 3
	note __, 3
	note D_, 6
	note __, 4
	note D_, 2
	note C_, 6
	note D_, 4
	note __, 8
	note D_, 2
	note __, 8
	note A_, 1
	note __, 1
	note D_, 3
	note __, 3
	note D_, 6
	note __, 4
	note D_, 2
	octave 1
	note B_, 6
	octave 2
	note C_, 4
	note __, 8
	note C_, 2
	note __, 8
	note G_, 1
	note __, 1
	note C_, 3
	note __, 3
	note C_, 6
	note __, 4
	note C_, 2
	note G_, 6
	note D_, 4
	note __, 8
	note D_, 2
	note __, 8
	note A_, 1
	note __, 1
	note D_, 3
	note __, 3
	note D_, 6
	note __, 4
	note D_, 2
	octave 1
	note A_, 6
	octave 2
	note D_, 4
	note __, 8
	note D_, 2
	note __, 8
	note A_, 1
	note __, 1
	note D_, 3
	note __, 3
	note D_, 6
	note __, 4
	note D_, 2
	note C_, 6
	note D_, 4
	note __, 8
	note D_, 2
	note __, 8
	note A_, 1
	note __, 1
	note D_, 3
	note __, 3
	note D_, 6
	note __, 4
	note D_, 2
	octave 1
	note B_, 6
	octave 2
	note C_, 4
	note __, 8
	note C_, 2
	note __, 8
	note G_, 1
	note __, 1
	note C_, 3
	note __, 3
	note C_, 6
	note __, 4
	note C_, 2
	note G_, 6
	note D_, 4
	note __, 8
	note D_, 2
	note __, 8
	note A_, 1
	note __, 1
	note D_, 3
	note __, 3
	note D_, 6
	note __, 4
	note D_, 2
	note C#, 6
	note D_, 4
	note __, 8
	note D_, 2
	note __, 8
	note A_, 1
	note __, 1
	note D_, 3
	note __, 3
	note D_, 6
	note __, 4
	note D_, 2
	note C_, 6
	note D_, 4
	note __, 8
	note D_, 2
	note __, 8
	note G_, 1
	note __, 1
	note D_, 3
	note __, 3
	note D_, 6
	note __, 4
	note D_, 2
	octave 1
	note B_, 6
	octave 2
	note C_, 4
	note __, 8
	note C_, 2
	note __, 8
	note G_, 1
	note __, 1
	note C_, 3
	note __, 3
	note C_, 6
	note C_, 2
	note C#, 8
	note D_, 2
	note D_, 6
	note __, 6
	octave 1
	note A_, 2
	note __, 8
	octave 2
	note A_, 1
	note __, 1
	note D_, 4
	note __, 2
	octave 1
	note A_, 4
	note __, 2
	octave 2
	note D_, 4
	notetype $3, $12
	note A_, 1
	notetype $5, $12
	note __, 1
	notetype $8, $12
	note F#, 2
	note E_, 1
	note D_, 3
	note __, 3
	octave 1
	note A_, 1
	note __, 4
	notetype $4, $12
	octave 2
	note A_, 1
	note __, 1
	note D_, 3
	note __, 3
	note D_, 6
	note __, 4
	note D_, 2
	note C_, 6
	note D_, 6
	note __, 6
	octave 1
	note B_, 2
	note __, 8
	octave 2
	note A_, 1
	note __, 1
	note D_, 3
	note __, 3
	note D_, 6
	note __, 4
	note D_, 2
	octave 1
	note B_, 6
	octave 2
	note C_, 4
	note __, 6
	note C_, 2
	octave 1
	note G_, 4
	note __, 6
	octave 2
	note G_, 1
	note __, 1
	note C_, 3
	note __, 3
	note C_, 5
	note __, 1
	octave 1
	note A_, 4
	note __, 6
	octave 2
	note C#, 2
	notetype $F, $12
	note G_, 1
	notetype $9, $12
	note __, 1
	notetype $7, $12
	note G_, 1
	notetype $D, $12
	note __, 5
	notetype $F, $12
	note F_, 1
	notetype $9, $12
	note __, 1
	notetype $7, $12
	note F_, 1
	notetype $D, $12
	note __, 5
	notetype $F, $12
	note F#, 1
	notetype $9, $12
	note __, 1
	notetype $7, $12
	note F#, 1
	notetype $D, $12
	note __, 5
	notetype $F, $12
	note D#, 1
	notetype $9, $12
	note __, 1
	notetype $7, $12
	note D#, 1
	notetype $B, $12
	note __, 3
	notetype $7, $12
	note F#, 1
	note __, 2
	notetype $3, $12
	note D#, 1
	notetype $8, $12
	note __, 1
	notetype $5, $12
	note E_, 3
	notetype $9, $12
	note __, 1
	notetype $7, $12
	note E_, 1
	notetype $B, $12
	note __, 3
	notetype $C, $12
	note E_, 2
	notetype $3, $12
	octave 1
	note A#, 1
	notetype $5, $12
	note __, 1
	note A#, 3
	notetype $9, $12
	note __, 1
	notetype $7, $12
	note A#, 1
	notetype $D, $12
	note __, 5
	notetype $F, $12
	note A_, 1
	notetype $9, $12
	note __, 1
	notetype $7, $12
	note A_, 1
	notetype $B, $12
	note __, 3
	note A_, 1
	notetype $D, $12
	note __, 1
	notetype $3, $12
	note A_, 1
	notetype $5, $12
	note __, 1
	notetype $B, $12
	note A_, 1
	notetype $5, $12
	note __, 1
	notetype $3, $12
	octave 2
	note A_, 1
	notetype $5, $12
	note __, 1
	notetype $B, $12
	octave 1
	note A_, 1
	note __, 3
	note A_, 2
	notetype $7, $12
	note __, 1
	notetype $F, $12
	octave 2
	note G_, 1
	notetype $9, $12
	note __, 1
	notetype $7, $12
	note G_, 1
	notetype $D, $12
	note __, 5
	notetype $F, $12
	note F_, 1
	notetype $9, $12
	note __, 1
	notetype $3, $12
	octave 3
	note C#, 1
	notetype $D, $12
	note __, 1
	notetype $3, $12
	octave 2
	note C#, 1
	notetype $5, $12
	note __, 1
	notetype $7, $12
	note C#, 1
	notetype $9, $12
	note __, 1
	notetype $3, $12
	note C#, 1
	notetype $5, $12
	note __, 1
	notetype $C, $12
	note C#, 2
	notetype $F, $12
	note F#, 1
	notetype $9, $12
	note __, 1
	notetype $7, $12
	note F#, 1
	notetype $D, $12
	note __, 5
	notetype $F, $12
	note D#, 1
	notetype $9, $12
	note __, 1
	notetype $7, $12
	octave 1
	note B_, 1
	notetype $9, $12
	note __, 1
	notetype $3, $12
	note B_, 1
	notetype $5, $12
	note __, 1
	notetype $7, $12
	note B_, 1
	notetype $9, $12
	note __, 1
	notetype $3, $12
	note B_, 1
	notetype $5, $12
	note __, 1
	notetype $C, $12
	note B_, 2
	notetype $F, $12
	note G_, 1
	notetype $9, $12
	note __, 1
	notetype $7, $12
	note G_, 1
	notetype $B, $12
	note __, 3
	notetype $C, $12
	note G_, 2
	notetype $3, $12
	note A_, 1
	notetype $5, $12
	note __, 1
	note A_, 3
	notetype $9, $12
	note __, 1
	notetype $7, $12
	note A_, 1
	note __, 2
	notetype $F, $12
	note A#, 1
	notetype $9, $12
	note __, 1
	notetype $8, $12
	note A_, 2
	octave 2
	note C#, 1
	notetype $2, $12
	note __, 1
	notetype $F, $12
	note D_, 1
	notetype $9, $12
	note __, 1
	notetype $7, $12
	note D_, 1
	notetype $B, $12
	note __, 3
	note D_, 1
	notetype $D, $12
	note __, 1
	notetype $3, $12
	note D_, 1
	notetype $5, $12
	note __, 1
	notetype $B, $12
	octave 1
	note G_, 1
	notetype $D, $12
	note __, 1
	note G_, 1
	notetype $B, $12
	note __, 1
	note A_, 1
	notetype $D, $12
	note __, 1
	notetype $C, $12
	note A_, 2
	octave 2
	loopchannel 0, Music_Route216DPPt_Ch3_loop

Music_Route216DPPt_Ch4:
	togglenoise 0
	notetype $C
	note F#, 8
	note F#, 2
	note F#, 6
	note F#, 8
	note F#, 2
	note F#, 6
	note F#, 8
	note F#, 2
	note F#, 6
	note F#, 8
	note F#, 2
	note F#, 6
	note F#, 8
	note F#, 2
	note F#, 6
	note F#, 8
	note F#, 2
	note F#, 6
	note F#, 8
	note F#, 2
	note F#, 6
	note F#, 8
	note F#, 2
	note F#, 6
	note F#, 8
	note F#, 2
	note F#, 6
	note F#, 8
	note F#, 2
	note F#, 6
	note F#, 8
	note F#, 2
	note F#, 6
	note F#, 8
	note F#, 2
	note F#, 6
	note F#, 8
	note F#, 2
	note F#, 6
	note F#, 8
	note F#, 2
	note F#, 6
	note F#, 8
	note F#, 2
	note F#, 6
	note F#, 8
	note F#, 2
	note F#, 6
	note G_, 2
	note F#, 2
	note G_, 2
	note F#, 2
	note G_, 2
	note A_, 2
	notetype $8
	note A_, 2
	note A_, 4
Music_Route216DPPt_Ch4_loop:
	note D_, 6
	note A_, 6
	note D_, 2
	note D_, 1
	note D_, 3
	note A_, 6
	note D_, 6
	note A_, 6
	note D_, 2
	note D_, 1
	note D_, 3
	note A_, 6
	note D_, 6
	note A_, 6
	note D_, 2
	note D_, 1
	note D_, 3
	note A_, 6
	note D_, 6
	note A_, 6
	note D_, 2
	note D_, 1
	note D_, 3
	note A_, 3
	note A_, 3
	note D_, 6
	note A_, 6
	note D_, 2
	note D_, 1
	note D_, 3
	note A_, 6
	note D_, 6
	note A_, 6
	note D_, 2
	note D_, 1
	note D_, 3
	note A_, 6
	note D_, 6
	note A_, 6
	note D_, 2
	note D_, 1
	note D_, 3
	note A_, 6
	note D_, 6
	note A_, 6
	note D_, 2
	note D_, 1
	note D_, 3
	note A_, 3
	note A_, 3
	note F_, 3
	note G_, 3
	note F_, 2
	note F_, 1
	note F_, 3
	note F_, 3
	note G_, 2
	note G_, 1
	note B_, 6
	note F_, 3
	note G_, 3
	note F_, 2
	note F_, 1
	note F_, 3
	note F_, 3
	note G_, 2
	note G_, 1
	note B_, 6
	note F_, 3
	note G_, 3
	note F_, 2
	note F_, 1
	note F_, 3
	note F_, 3
	note G_, 2
	note G_, 1
	note B_, 6
	note F_, 3
	note G_, 3
	note F_, 2
	note F_, 1
	note F_, 3
	note F_, 3
	note G_, 2
	note G_, 1
	note B_, 3
	note B_, 3
	note F_, 3
	note G_, 3
	note F_, 2
	note F_, 1
	note F_, 3
	note F_, 3
	note G_, 2
	note G_, 1
	note B_, 6
	note F_, 3
	note G_, 3
	note F_, 2
	note F_, 1
	note F_, 3
	note F_, 3
	note G_, 2
	note G_, 1
	note B_, 6
	note F_, 3
	note G_, 3
	note F_, 2
	note F_, 1
	note F_, 3
	note F_, 3
	note G_, 2
	note G_, 1
	note B_, 6
	note F_, 3
	note G_, 3
	note F_, 2
	note F_, 1
	note F_, 3
	note F_, 3
	note G_, 2
	note G_, 1
	note B_, 3
	note B_, 3
	note G_, 3
	note G_, 3
	note D_, 2
	note A_, 1
	note A_, 3
	note D_, 3
	note D_, 3
	note A_, 3
	note G#, 3
	note G_, 3
	note G_, 3
	note D_, 2
	note A_, 1
	note A_, 3
	note D_, 3
	note D_, 3
	note A_, 3
	note G#, 3
	note G_, 3
	note G_, 3
	note D_, 2
	note A_, 1
	note A_, 3
	note D_, 3
	note D_, 3
	note A_, 3
	note G#, 3
	note G_, 3
	note G_, 3
	note D_, 2
	note A_, 1
	note A_, 3
	note D_, 3
	note D_, 3
	note A_, 3
	note G#, 2
	note G#, 1
	note G_, 3
	note G_, 3
	note D_, 2
	note A_, 1
	note A_, 3
	note D_, 3
	note D_, 3
	note A_, 3
	note G#, 3
	note G_, 3
	note G_, 3
	note D_, 2
	note A_, 1
	note A_, 3
	note D_, 3
	note D_, 3
	note A_, 3
	note G#, 3
	note G_, 3
	note G_, 3
	note D_, 2
	note A_, 1
	note A_, 3
	note D_, 3
	note D_, 3
	note A_, 3
	note G#, 3
	note G_, 3
	note G_, 3
	note D_, 2
	note A_, 1
	note A_, 3
	note D_, 3
	note D_, 3
	note A_, 3
	note G#, 2
	note G#, 1
	loopchannel 0, Music_Route216DPPt_Ch4_loop
