; Pokémon D/P/Pt - Route 210
; Demixed by FroggestSpirit
; https://github.com/froggestspirit/CrystalComplete/blob/master/audio/music/DPPt/route210.asm

Music_Route210DPPt:
	dbw $C0, Music_Route210DPPt_Ch1
	dbw $01, Music_Route210DPPt_Ch2
	dbw $02, Music_Route210DPPt_Ch3
	dbw $03, Music_Route210DPPt_Ch4

Music_Route210DPPt_Ch1:
	tempo $98
	volume 7, 7
	note_type 12, 11, 3
	dutycycle 3
	tone $0001
	octave 5
	note __, 2
Music_Route210DPPt_Ch1_loop:
	note __, 4
	intensity $B4
	octave 3
	note E_, 4
	note G#, 4
	octave 4
	note C_, 4
	intensity $A8
	note D#, 16
	intensity $B3
	dutycycle 2
	octave 3
	note F_, 3
	note C#, 3
	note F_, 6
	note F_, 1
	note F_, 3
	note F#, 3
	note C#, 3
	note F#, 6
	note F#, 1
	note F#, 3
	note F_, 3
	note C#, 3
	note F_, 6
	note F_, 1
	note F_, 3
	dutycycle 0
	octave 4
	note F_, 4
	note C#, 4
	note D#, 4
	note G#, 4
	note_type 8, 11, 8
	dutycycle 2
	note E_, 1
	note_type 10, 11, 7
	note F_, 16
	note_type 12, 11, 4
	note D#, 1
	note C#, 1
	note D#, 2
	note C#, 1
	intensity $B7
	note C_, 11
	intensity $B4
	note C#, 1
	note D#, 1
	note C#, 1
	note C_, 2
	intensity $B7
	octave 3
	note G#, 11
	note_type 6, 9, 1
	octave 4
	note G#, 1
	octave 5
	note C_, 1
	note F#, 1
	note G#, 1
	octave 6
	note D#, 1
	octave 5
	note D#, 1
	octave 6
	note C#, 1
	octave 5
	note C#, 1
	octave 6
	note C_, 1
	octave 5
	note C_, 1
	octave 6
	note D#, 1
	octave 5
	note D#, 1
	octave 6
	note C#, 1
	octave 5
	note C#, 1
	octave 6
	note C_, 1
	octave 5
	note C_, 1
	note A#, 1
	octave 4
	note A#, 1
	octave 6
	note C_, 1
	octave 5
	note C_, 1
	note G#, 1
	octave 4
	note G#, 1
	octave 5
	note F#, 1
	octave 4
	note F#, 1
	octave 5
	note F_, 1
	octave 4
	note F_, 1
	octave 5
	note G#, 1
	octave 4
	note G#, 1
	octave 5
	note F#, 1
	octave 4
	note F#, 1
	octave 5
	note D#, 1
	octave 4
	note D#, 1
	octave 5
	note F_, 1
	octave 4
	note F_, 1
	octave 5
	note C#, 1
	octave 4
	note C#, 1
	intensity $B4
	note C#, 2
	note C_, 4
	note_type 12, 11, 7
	note C#, 9
	intensity $B4
	note C_, 2
	note C#, 2
	octave 3
	note A#, 2
	octave 4
	note C#, 1
	intensity $B7
	octave 3
	note A#, 7
	intensity $B4
	note G#, 2
	note F#, 2
	note A#, 2
	note G#, 1
	note A#, 2
	intensity $B7
	note G#, 5
	intensity $B1
	octave 2
	note G#, 1
	octave 3
	note D#, 1
	note C#, 1
	note D#, 1
	octave 2
	note G#, 1
	octave 3
	note F_, 1
	note C#, 1
	note F_, 1
	note A#, 1
	note G#, 2
	note A#, 1
	intensity $B4
	octave 4
	note D#, 8
	octave 3
	note G#, 1
	octave 4
	note C_, 1
	note C#, 1
	note D#, 1
	intensity $B7
	note F_, 14
	intensity $B4
	note D#, 1
	note C#, 1
	note D#, 2
	note C#, 1
	intensity $B7
	octave 3
	note A#, 11
	intensity $B4
	octave 4
	note C#, 1
	note D#, 1
	note C#, 1
	note C_, 2
	intensity $B7
	octave 3
	note G#, 11
	note_type 6, 11, 1
	note G#, 1
	octave 4
	note C_, 1
	note F#, 1
	note G#, 1
	octave 5
	note D#, 2
	note C#, 2
	note C_, 2
	note D#, 2
	note C#, 2
	note C_, 2
	octave 4
	note A#, 2
	octave 5
	note C_, 2
	octave 4
	note G#, 2
	note F#, 2
	note F_, 2
	note G#, 2
	note F#, 2
	note D#, 2
	note F_, 2
	note G#, 6
	intensity $B4
	octave 3
	note A#, 4
	octave 1
	note F#, 2
	octave 3
	note A#, 6
	octave 1
	note E_, 2
	octave 4
	note E_, 4
	octave 3
	note A#, 6
	octave 4
	note E_, 8
	octave 3
	note G#, 4
	octave 1
	note F_, 2
	octave 3
	note G#, 8
	octave 4
	note F_, 4
	octave 3
	note G#, 6
	note B_, 8
	note F#, 4
	octave 1
	note D#, 2
	octave 3
	note F#, 6
	octave 2
	note G#, 2
	octave 3
	note G#, 6
	note F#, 4
	note D#, 4
	note F_, 6
	note F#, 6
	note G_, 12
	note G#, 8
	intensity $B1
	dutycycle 0
	note F#, 2
	octave 4
	note F_, 2
	octave 3
	note A#, 2
	octave 4
	note C#, 2
	note F_, 2
	octave 3
	note A#, 2
	octave 4
	note C#, 2
	octave 3
	note F#, 2
	note E_, 2
	octave 4
	note G#, 1
	note E_, 1
	octave 3
	note A#, 2
	octave 4
	note D#, 2
	note G#, 2
	note E_, 2
	octave 3
	note A#, 2
	octave 4
	note D#, 2
	octave 3
	note F_, 2
	octave 4
	note G#, 2
	note C_, 2
	note D#, 2
	note G#, 2
	note C_, 2
	note D#, 2
	octave 3
	note F_, 2
	note D_, 2
	octave 4
	note G#, 1
	note D#, 1
	note D_, 2
	note F#, 2
	note G#, 2
	octave 3
	note G#, 2
	octave 4
	note D_, 2
	octave 3
	note D_, 2
	note D#, 2
	octave 4
	note C#, 2
	octave 3
	note F#, 2
	note A#, 2
	octave 4
	note C#, 1
	octave 3
	note A#, 1
	note F#, 2
	note A#, 2
	note D#, 2
	note F_, 2
	octave 4
	note D#, 2
	octave 3
	note G#, 2
	octave 4
	note C_, 2
	note D#, 1
	note C_, 1
	octave 3
	note G#, 2
	octave 4
	note C_, 2
	octave 3
	note F_, 2
	note F#, 2
	octave 4
	note E_, 2
	octave 3
	note A_, 2
	octave 4
	note C#, 2
	note E_, 2
	note F#, 2
	note G#, 2
	note A_, 2
	dutycycle 1
	octave 3
	note C#, 1
	note D#, 1
	note F_, 1
	note F#, 1
	note G#, 1
	note A#, 1
	octave 4
	note C_, 1
	note C#, 1
	note D#, 1
	note F_, 1
	note F#, 1
	note G#, 1
	note A#, 1
	octave 5
	note C_, 1
	note C#, 1
	note D#, 1
	note_type 12, 11, 3
	octave 3
	note C#, 2
	note C#, 6
	octave 2
	note B_, 2
	note B_, 6
	note A#, 2
	note A#, 2
	note F#, 4
	note A_, 2
	note A_, 2
	note B_, 2
	note B_, 2
	octave 3
	note C#, 2
	note_type 8, 11, 3
	octave 2
	note F_, 1
	note F_, 1
	note F_, 1
	octave 3
	note C#, 6
	octave 2
	note B_, 3
	note B_, 9
	note A#, 3
	note A#, 3
	note F#, 6
	note A_, 3
	note A_, 3
	note B_, 3
	note B_, 3
	note_type 6, 11, 3
	dutycycle 2
	octave 4
	note C#, 2
	note C_, 2
	octave 3
	note A#, 2
	octave 4
	note C_, 2
	note C#, 12
	octave 3
	note F_, 4
	note A_, 4
	octave 4
	note C#, 4
	note C#, 4
	note C_, 1
	note C#, 1
	note C_, 2
	octave 3
	note A#, 4
	octave 4
	note C#, 4
	note F_, 4
	note D#, 4
	note F_, 4
	note G#, 4
	note_type 12, 11, 2
	dutycycle 3
	octave 3
	note C#, 2
	note C#, 4
	note C#, 2
	note D#, 1
	note D#, 1
	note D#, 2
	note D#, 2
	note D#, 2
	note E_, 2
	note E_, 4
	note E_, 2
	note F#, 1
	note F#, 1
	note F#, 2
	note F#, 2
	note F#, 2
	note F#, 1
	note F#, 1
	note F#, 4
	note F#, 1
	note F#, 1
	note F#, 2
	note F#, 2
	note F#, 1
	note F#, 3
	note F_, 1
	note F_, 1
	note F_, 4
	note F_, 1
	note F_, 1
	intensity $B5
	note F_, 6
	note __, 2
	jumpchannel Music_Route210DPPt_Ch1_loop

Music_Route210DPPt_Ch2:
	note_type 12, 12, 7
	dutycycle 1
	tone $0002
	vibrato $08, $24
	octave 4
	note __, 2
Music_Route210DPPt_Ch2_loop:
	note_type 12, 12, 1
	note __, 16
	note_type 6, 12, 1
	octave 3
	note A#, 1
	octave 4
	note C_, 1
	octave 3
	note A#, 1
	octave 4
	note C_, 1
	octave 3
	note A#, 1
	octave 4
	note C_, 1
	octave 3
	note A#, 1
	octave 4
	note C_, 1
	octave 3
	note A#, 1
	octave 4
	note C_, 1
	octave 3
	note A#, 1
	octave 4
	note C_, 1
	octave 3
	note A#, 1
	octave 4
	note C_, 1
	octave 3
	note A#, 1
	octave 4
	note C_, 1
	octave 3
	note A#, 1
	octave 4
	note C_, 1
	octave 3
	note A#, 1
	octave 4
	note C_, 1
	octave 3
	note A#, 1
	note G#, 1
	note F#, 1
	note D#, 1
	note G#, 1
	note A#, 1
	octave 4
	note C_, 1
	note C#, 1
	note D#, 1
	note F_, 1
	note F#, 1
	note G_, 1
	note_type 12, 12, 8
	note G#, 12
	intensity $C5
	note F#, 2
	note F_, 2
	note F#, 2
	note F_, 1
	intensity $C8
	note D#, 7
	intensity $C5
	note F_, 1
	note D#, 2
	note C#, 2
	note D#, 1
	note F_, 1
	octave 3
	note G#, 2
	intensity $C7
	octave 4
	note F_, 16
	note __, 9
	note_type 8, 12, 1
	note F#, 1
	note F_, 1
	note D#, 1
	note C#, 1
	note D#, 1
	note F_, 1
	note G_, 1
	note_type 10, 12, 8
	note G#, 16
	note_type 12, 12, 5
	note F#, 1
	note F_, 1
	note F#, 2
	note F_, 1
	intensity $C8
	note D#, 11
	intensity $C5
	note F_, 1
	note F#, 1
	note F_, 1
	note D#, 2
	intensity $C7
	note C#, 16
	note __, 1
	note_type 8, 12, 1
	dutycycle 0
	octave 3
	note F#, 1
	note F_, 1
	note D#, 1
	note C_, 1
	note C#, 1
	note D#, 1
	octave 4
	note C_, 1
	octave 3
	note A#, 1
	note G#, 1
	note F#, 1
	note G#, 1
	note A#, 1
	octave 4
	note D#, 1
	note C#, 1
	note C_, 1
	octave 3
	note A#, 1
	octave 4
	note D#, 1
	note F#, 1
	note_type 12, 12, 5
	dutycycle 1
	note G#, 1
	note A#, 2
	intensity $C8
	note G#, 9
	intensity $C5
	note F#, 2
	note F_, 2
	note F#, 2
	note F_, 1
	intensity $C8
	note D#, 7
	intensity $C5
	note F_, 1
	note D#, 2
	note C#, 2
	octave 3
	note G#, 1
	octave 4
	note F_, 1
	note D#, 2
	note F_, 3
	intensity $C7
	note F_, 10
	intensity $C2
	dutycycle 0
	note F_, 4
	note C#, 4
	note D#, 4
	octave 3
	note G#, 2
	intensity $C5
	dutycycle 1
	octave 4
	note F_, 1
	note F#, 1
	intensity $C8
	note G#, 14
	intensity $C5
	note F#, 1
	note F_, 1
	note F#, 2
	note F_, 1
	intensity $C8
	note D#, 11
	intensity $C5
	note F_, 1
	note F#, 1
	note F_, 1
	note D#, 2
	intensity $C7
	note C#, 16
	note __, 11
	intensity $C5
	dutycycle 0
	octave 3
	note F#, 1
	note G#, 1
	note A#, 6
	note F#, 2
	note E_, 1
	octave 4
	note C#, 3
	note C_, 2
	octave 3
	note A#, 2
	note G#, 1
	note F#, 1
	note F_, 1
	note F#, 1
	note G#, 2
	note F_, 2
	octave 4
	note D#, 2
	note F_, 1
	note D_, 3
	octave 3
	note F_, 2
	note F#, 6
	note D#, 2
	note C_, 1
	note A#, 3
	note G#, 2
	note F#, 2
	note F_, 3
	note F#, 3
	note G_, 6
	note G#, 2
	dutycycle 2
	note F#, 1
	note G#, 1
	note A#, 6
	octave 4
	note C_, 2
	note C#, 1
	note D#, 3
	note C_, 2
	octave 3
	note A#, 2
	octave 4
	note C_, 6
	octave 3
	note G#, 2
	note_type 6, 12, 5
	octave 4
	note E_, 1
	note F_, 3
	note D_, 2
	note G#, 6
	octave 3
	note G#, 4
	note F#, 12
	note F_, 2
	note F#, 2
	note G#, 12
	note F#, 2
	note G#, 2
	note A_, 12
	octave 4
	note C#, 4
	octave 3
	note B_, 2
	octave 4
	note C#, 4
	octave 3
	note B_, 6
	note A_, 4
	intensity $C8
	vibrato $04, $35
	octave 4
	note G#, 2
	note F_, 2
	note C#, 2
	note F_, 2
	note G#, 6
	note E_, 2
	note C#, 2
	note E_, 2
	note G#, 4
	note F#, 2
	note G#, 2
	note F#, 2
	note E_, 2
	note C#, 4
	octave 3
	note A#, 2
	octave 4
	note C#, 2
	note D#, 2
	note E_, 2
	note F_, 2
	note F#, 2
	note G_, 2
	note G#, 2
	note A_, 2
	note A#, 2
	note B_, 2
	octave 5
	note C#, 2
	note D#, 4
	note C#, 4
	note_type 8, 12, 8
	octave 4
	note C#, 1
	note F_, 1
	note G#, 1
	octave 5
	note C#, 6
	note_type 12, 12, 8
	octave 4
	note C#, 1
	note E_, 1
	octave 5
	note C#, 6
	octave 4
	note C#, 1
	note E_, 1
	octave 5
	note C#, 2
	note C#, 1
	octave 4
	note E_, 3
	note_type 6, 12, 8
	octave 5
	note C_, 1
	note C#, 7
	note D#, 8
	dutycycle 1
	vibrato $08, $24
	octave 4
	note F_, 2
	note D#, 2
	note C#, 2
	note D#, 2
	note F_, 12
	octave 3
	note A_, 4
	octave 4
	note C#, 4
	note D#, 4
	note F_, 4
	note D#, 1
	note F_, 1
	note D#, 2
	note C#, 4
	note F_, 4
	note A#, 4
	note A_, 4
	note A#, 4
	octave 5
	note C_, 4
	intensity $C7
	note C#, 2
	note C_, 2
	octave 4
	note A#, 2
	octave 5
	note C_, 2
	note C#, 12
	note C_, 4
	octave 4
	note A#, 4
	octave 5
	note C_, 4
	note C#, 2
	octave 4
	note B_, 2
	note A_, 2
	note B_, 2
	octave 5
	note C#, 12
	note D#, 4
	note E_, 4
	note F#, 4
	note_type 12, 12, 8
	note C#, 16
	note_type 8, 12, 8
	note C#, 8
	intensity $C7
	note C#, 16
	jumpchannel Music_Route210DPPt_Ch2_loop

Music_Route210DPPt_Ch3:
	note_type 6, 1, 2
	octave 1
	note G#, 1
	note __, 1
	note G#, 1
	note __, 1
Music_Route210DPPt_Ch3_loop:
	note_type 12, 1, 2
	note G#, 16
	note __, 2
	note G#, 2
	note __, 2
	note G#, 2
	note __, 2
	note G#, 2
	octave 2
	note C_, 2
	note_type 6, 1, 2
	note G#, 1
	note __, 1
	note G#, 1
	note __, 1
	note C#, 4
	octave 3
	note C#, 1
	note __, 1
	octave 1
	note G#, 4
	octave 2
	note G#, 2
	note C#, 4
	note __, 8
	note C_, 2
	note C#, 1
	note __, 1
	note G_, 2
	note G#, 1
	note __, 1
	note C#, 4
	octave 3
	note C#, 1
	note __, 1
	octave 1
	note G#, 4
	octave 2
	note A#, 2
	note C#, 4
	octave 1
	note A#, 2
	octave 2
	note A#, 1
	note __, 3
	note A#, 1
	note __, 5
	note G_, 2
	note G#, 1
	note __, 1
	note C#, 4
	octave 3
	note C#, 1
	note __, 1
	octave 1
	note G#, 4
	octave 2
	note G#, 2
	note C#, 4
	octave 3
	note C#, 1
	note __, 1
	octave 2
	note G#, 2
	note F_, 1
	note F#, 1
	note D#, 1
	octave 1
	note G#, 1
	octave 2
	note C#, 1
	note __, 1
	note C#, 1
	note __, 1
	note G_, 2
	note G#, 1
	note __, 1
	note C#, 4
	octave 3
	note C#, 1
	note __, 1
	octave 1
	note G#, 4
	octave 2
	note A#, 2
	note C#, 4
	octave 1
	note A#, 2
	octave 2
	note A#, 2
	note __, 2
	note A#, 2
	note F#, 2
	octave 1
	note A#, 2
	octave 2
	note G_, 2
	note G#, 2
	note C#, 4
	octave 3
	note C#, 1
	note __, 1
	octave 1
	note G#, 4
	octave 2
	note G#, 2
	note C#, 6
	note __, 6
	note C_, 2
	note C#, 2
	note G_, 2
	note G#, 2
	note C#, 4
	octave 3
	note C#, 1
	note __, 1
	octave 1
	note G#, 4
	octave 2
	note A#, 2
	note C#, 4
	note A_, 2
	note A#, 2
	note F_, 2
	note F#, 2
	note D_, 2
	note D#, 2
	note G_, 2
	note G#, 2
	note C#, 4
	octave 3
	note C#, 1
	note __, 1
	octave 1
	note G#, 4
	octave 2
	note G#, 2
	note C#, 4
	note __, 8
	note C_, 2
	note C#, 1
	note __, 1
	note G_, 2
	note G#, 1
	note __, 1
	note G#, 4
	octave 3
	note G#, 1
	note __, 1
	octave 2
	note D#, 4
	octave 3
	note D#, 1
	note __, 1
	octave 2
	note G#, 4
	note D#, 2
	octave 3
	note C_, 4
	octave 2
	note D#, 2
	note B_, 2
	octave 3
	note C_, 2
	octave 2
	note G_, 2
	note G#, 2
	note C#, 4
	octave 3
	note C#, 1
	note __, 1
	octave 1
	note G#, 4
	octave 2
	note G#, 2
	note C#, 6
	;this awesome demix was done by froggestspirit
	note __, 6
	note C_, 2
	note C#, 1
	note __, 1
	note G_, 2
	note G#, 1
	note __, 1
	note C#, 4
	octave 3
	note C#, 1
	note __, 1
	octave 1
	note G#, 4
	octave 2
	note A#, 2
	note C#, 6
	note __, 10
	note G_, 2
	note G#, 1
	note __, 1
	note C#, 4
	octave 3
	note C#, 1
	note __, 1
	octave 1
	note G#, 4
	octave 2
	note G#, 2
	note C#, 4
	octave 1
	note G#, 2
	octave 2
	note G#, 1
	note __, 3
	note G#, 1
	note __, 1
	note C_, 2
	note C#, 1
	note __, 1
	note G_, 2
	note G#, 1
	note __, 1
	note C#, 4
	octave 3
	note C#, 1
	note __, 1
	octave 1
	note G#, 4
	octave 2
	note A#, 2
	note C#, 4
	note A#, 2
	note C#, 4
	note A_, 2
	note A#, 2
	note __, 2
	note G_, 2
	note G#, 1
	note __, 1
	note C#, 4
	octave 3
	note C#, 1
	note __, 1
	octave 1
	note G#, 4
	octave 2
	note G#, 2
	note C#, 6
	note __, 6
	note C_, 2
	note C#, 1
	note __, 1
	note G_, 2
	note G#, 1
	note __, 1
	note C#, 4
	octave 3
	note C#, 1
	note __, 1
	octave 1
	note G#, 4
	octave 2
	note G#, 2
	note C#, 6
	octave 1
	note A#, 2
	note __, 2
	note A#, 2
	note __, 2
	note A#, 2
	octave 2
	note G_, 2
	note G#, 1
	note __, 1
	note C#, 4
	octave 3
	note C#, 1
	note __, 1
	octave 1
	note G#, 4
	octave 2
	note G#, 2
	note C#, 4
	octave 3
	note C#, 1
	note __, 1
	octave 2
	note G#, 2
	note F_, 1
	note F#, 1
	note D#, 1
	octave 1
	note G#, 1
	octave 2
	note C#, 1
	note __, 1
	note C#, 1
	note __, 1
	note G#, 1
	note __, 1
	note G#, 1
	note __, 1
	note G#, 4
	octave 3
	note G#, 1
	note __, 1
	octave 2
	note D#, 4
	octave 3
	note D#, 1
	note __, 1
	octave 2
	note G#, 4
	octave 3
	note C#, 2
	octave 2
	note D#, 2
	note __, 2
	note A#, 2
	note D_, 2
	note D#, 2
	intensity $16
	note G_, 2
	note G#, 2
	note F#, 6
	note C#, 2
	note __, 2
	note A#, 2
	note E_, 6
	octave 3
	note C#, 2
	note __, 2
	octave 2
	note E_, 2
	note D#, 2
	note E_, 1
	note __, 3
	note E_, 2
	note F_, 6
	note C_, 2
	note __, 2
	note G#, 2
	note D_, 7
	note __, 1
	note D_, 1
	note __, 3
	note C#, 2
	note D_, 1
	note __, 1
	note G_, 2
	note G#, 1
	note __, 1
	note D#, 6
	octave 1
	note A#, 2
	note __, 2
	octave 2
	note F#, 2
	octave 1
	note G#, 8
	note __, 2
	note G#, 2
	octave 2
	note G#, 4
	note D#, 4
	note C#, 6
	note D#, 6
	note E_, 6
	note G_, 2
	note C#, 4
	note G_, 2
	note G#, 2
	note E_, 2
	note F_, 2
	note F#, 6
	note C#, 2
	note __, 2
	note A#, 2
	note C_, 7
	note __, 1
	note G_, 2
	note G#, 2
	octave 1
	note B_, 2
	octave 2
	note C_, 1
	note __, 1
	octave 1
	note A#, 4
	octave 2
	note F_, 6
	note C_, 2
	note __, 2
	note G#, 2
	octave 1
	note A#, 2
	octave 2
	note F#, 2
	octave 1
	note A#, 2
	note __, 2
	octave 2
	note A#, 2
	octave 1
	note A#, 4
	note __, 2
	note A_, 2
	note A#, 2
	octave 2
	note D#, 2
	octave 1
	note A#, 4
	octave 3
	note C#, 2
	note __, 4
	octave 2
	note D#, 2
	note __, 2
	note F_, 2
	note C_, 2
	note G#, 2
	note C_, 6
	note E_, 2
	note F_, 2
	note F#, 2
	note C#, 2
	note G#, 2
	note A_, 2
	note __, 4
	note F#, 4
	octave 1
	note B_, 2
	note A_, 2
	note __, 2
	note A_, 4
	octave 2
	note A_, 1
	note __, 1
	octave 1
	note B_, 4
	octave 2
	note C#, 6
	note __, 2
	octave 1
	note G#, 6
	note __, 2
	note B_, 6
	note __, 2
	note G#, 6
	note __, 2
	note A#, 6
	note __, 2
	note F#, 6
	note __, 2
	note A_, 2
	octave 2
	note A_, 2
	note __, 2
	note A_, 2
	octave 1
	note B_, 2
	octave 2
	note F#, 2
	note A_, 2
	note B_, 2
	note C#, 3
	note __, 1
	note_type 4, 1, 6
	note C#, 1
	note __, 1
	note C#, 1
	note __, 1
	note C#, 1
	note __, 1
	octave 1
	note G#, 3
	octave 2
	note G#, 3
	note C#, 6
	octave 1
	note B_, 6
	octave 2
	note B_, 3
	octave 1
	note G#, 6
	octave 2
	note G#, 3
	note E_, 6
	note_type 9, 1, 6
	octave 1
	note A#, 2
	note_type 6, 1, 6
	note __, 1
	note A#, 2
	octave 2
	note A#, 2
	octave 1
	note F#, 2
	octave 2
	note F#, 2
	note __, 2
	octave 1
	note A_, 4
	octave 2
	note A_, 2
	octave 1
	note A_, 4
	note A#, 2
	octave 2
	note C#, 2
	note F_, 2
	note A#, 2
	intensity $12
	note A#, 16
	note A_, 16
	note G#, 16
	note G_, 1
	note __, 1
	note G_, 2
	note F_, 4
	note D#, 4
	note F_, 4
	octave 1
	note A#, 6
	octave 2
	note A#, 1
	note __, 1
	octave 1
	note A#, 2
	octave 2
	note F#, 2
	note C#, 4
	note G#, 2
	note C_, 2
	note __, 2
	note C_, 1
	note __, 1
	note C_, 2
	note G#, 2
	note C_, 2
	octave 1
	note B_, 2
	note A_, 4
	octave 2
	note A_, 2
	note __, 2
	octave 1
	note A_, 4
	octave 2
	note A_, 2
	note __, 2
	octave 1
	note B_, 4
	octave 2
	note B_, 2
	note __, 2
	octave 1
	note B_, 4
	octave 2
	note B_, 2
	note __, 2
	note C#, 4
	octave 3
	note C#, 2
	note __, 2
	octave 2
	note C#, 4
	octave 3
	note C#, 2
	note __, 2
	octave 2
	note C#, 4
	octave 3
	note C#, 2
	note __, 2
	octave 2
	note C#, 2
	note E_, 2
	note B_, 2
	octave 3
	note C#, 2
	octave 2
	note C#, 4
	octave 3
	note C#, 2
	note __, 2
	octave 2
	note C#, 4
	octave 3
	note C#, 2
	note __, 2
	octave 2
	note C#, 2
	octave 3
	note C#, 2
	note __, 2
	note C#, 2
	octave 2
	note C#, 4
	octave 1
	note G#, 1
	note __, 1
	note G#, 1
	note __, 1
	jumpchannel Music_Route210DPPt_Ch3_loop

Music_Route210DPPt_Ch4:
	togglenoise 0
	note_type 12
	note __, 2
Music_Route210DPPt_Ch4_loop:
	note_type 12
	note __, 14
	note __, 14
	note D_, 1
	note D_, 1
	note D_, 1
	note D_, 1
	note C#, 3
	note C#, 3
	note C#, 2
	note G_, 1
	note A#, 4
	note C#, 3
	note C#, 3
	note C#, 3
	note C#, 2
	note G_, 1
	note A#, 4
	note C#, 3
	note C#, 3
	note C#, 3
	note C#, 2
	note G_, 1
	note A#, 4
	note C#, 3
	note C#, 3
	note C#, 3
	note C#, 2
	note G_, 1
	note A#, 4
	note C#, 3
	note C#, 3
	note C#, 3
	note C#, 2
	note G_, 1
	note A#, 4
	note C#, 3
	note C#, 3
	note C#, 3
	note C#, 2
	note G_, 1
	note A#, 4
	note C#, 3
	note C#, 3
	note C#, 3
	note C#, 2
	note G_, 1
	note A#, 4
	note C#, 3
	note C#, 3
	note C#, 3
	note C#, 2
	note G_, 1
	note A#, 2
	note C#, 1
	note C#, 2
	note A#, 2
	note C#, 3
	note C#, 3
	note C#, 2
	note G_, 1
	note A#, 4
	note C#, 3
	note C#, 3
	note C#, 3
	note C#, 2
	note G_, 1
	note A#, 4
	note C#, 3
	note C#, 3
	note C#, 3
	note C#, 2
	note G_, 1
	note A#, 4
	note C#, 3
	note C#, 3
	note C#, 1
	note A#, 2
	note C#, 2
	note G_, 1
	note A#, 3
	note A#, 2
	note C#, 2
	note C#, 3
	note C#, 3
	note C#, 2
	note G_, 1
	note A#, 4
	note C#, 3
	note C#, 3
	note C#, 3
	note A#, 2
	note C#, 1
	note A#, 2
	note C#, 3
	note A#, 2
	note C#, 3
	note C#, 3
	note C#, 2
	note G_, 1
	note A#, 4
	note C#, 3
	note A#, 3
	note C#, 3
	note C#, 2
	note G_, 1
	note A#, 2
	note C#, 3
	note A#, 2
	note C_, 1
	note C_, 2
	note C_, 1
	note C_, 2
	note C_, 1
	note C_, 1
	note_type 6
	note D#, 1
	note D#, 1
	note D#, 1
	note D#, 1
	note C_, 4
	note C_, 2
	note C_, 4
	note C_, 2
	note C_, 2
	note C_, 4
	note C_, 2
	note C_, 4
	note C_, 2
	note C_, 2
	note D#, 1
	note D#, 1
	note D#, 1
	note D#, 1
	note C_, 4
	note C_, 2
	note C_, 2
	note D#, 1
	note D#, 1
	note D#, 1
	note D#, 1
	note C_, 2
	note C_, 4
	note C_, 2
	note C_, 4
	note C_, 2
	note C_, 2
	note D#, 1
	note D#, 1
	note D#, 1
	note D#, 1
	note C_, 4
	note C_, 2
	note C_, 2
	note D#, 1
	note D#, 1
	note D#, 1
	note D#, 1
	note C_, 4
	note C_, 2
	note C_, 6
	note C_, 2
	note C_, 2
	note C_, 2
	note C_, 2
	note D#, 1
	note D#, 1
	note D#, 1
	note D#, 1
	note C_, 2
	note C_, 2
	note D#, 1
	note D#, 1
	note D#, 1
	note D#, 1
	note C_, 2
	note C_, 4
	note C_, 2
	note C_, 4
	note C_, 2
	note C_, 2
	note D#, 1
	note D#, 1
	note D#, 1
	note D#, 1
	note C_, 4
	note C_, 2
	note C_, 6
	note C_, 2
	note C_, 4
	note C_, 2
	note C_, 4
	note C_, 2
	note C_, 2
	note D#, 1
	note D#, 1
	note D#, 1
	note D#, 1
	note C_, 4
	note C_, 2
	note C_, 2
	note D#, 1
	note D#, 1
	note D#, 1
	note D#, 1
	note C_, 2
	note C_, 4
	note C_, 2
	note C_, 4
	note C_, 2
	note C_, 2
	note D#, 1
	note D#, 1
	note D#, 1
	note D#, 1
	note C_, 4
	note C_, 2
	note C_, 2
	note D#, 1
	note D#, 1
	note D#, 1
	note D#, 1
	note C_, 4
	note C_, 2
	note C_, 6
	note C_, 2
	note C_, 2
	note C_, 2
	note C_, 2
	note D#, 1
	note D#, 1
	note D#, 1
	note D#, 1
	note C_, 2
	note C_, 2
	note D#, 1
	note D#, 1
	note D#, 1
	note D#, 1
	note C_, 4
	note C_, 8
	note D#, 1
	note D#, 1
	note D#, 1
	note D#, 1
	note C_, 4
	note C_, 8
	note D#, 1
	note D#, 1
	note D#, 1
	note D#, 1
	note C_, 4
	note C_, 4
	note D#, 1
	note D#, 1
	note D#, 1
	note D#, 1
	note D#, 1
	note D#, 1
	note D#, 1
	note D#, 1
	note C_, 2
	note C_, 2
	note C_, 4
	note C_, 4
	note D#, 1
	note D#, 1
	note D#, 1
	note D#, 1
	note C_, 4
	note_type 8
	note C_, 1
	note C_, 1
	note C_, 1
	note_type 6
	note D#, 1
	note D#, 1
	note D#, 2
	note D#, 1
	note D#, 1
	note D#, 1
	note D#, 1
	note C_, 4
	note C_, 8
	note D#, 1
	note D#, 1
	note D#, 1
	note D#, 1
	note C_, 4
	note C_, 4
	note D#, 1
	note D#, 1
	note D#, 1
	note D#, 1
	note D#, 1
	note D#, 1
	note D#, 1
	note D#, 1
	note C_, 2
	note C_, 2
	note C_, 4
	note C_, 4
	note D#, 1
	note D#, 1
	note D#, 1
	note D#, 1
	note C_, 4
	note C_, 8
	note D#, 1
	note D#, 1
	note D#, 1
	note D#, 1
	note C_, 4
	note C_, 4
	note C_, 2
	note D#, 1
	note D#, 1
	note D#, 1
	note D#, 1
	note D#, 1
	note D#, 1
	note C_, 4
	note C_, 4
	note D#, 1
	note D#, 1
	note D#, 1
	note D#, 1
	note D#, 1
	note D#, 1
	note D#, 1
	note D#, 1
	note C_, 2
	note C_, 2
	note C_, 4
	note C_, 4
	note D#, 1
	note D#, 1
	note D#, 1
	note D#, 1
	note C_, 2
	note C_, 2
	note C_, 8
	note D#, 1
	note D#, 1
	note D#, 1
	note D#, 1
	note C_, 4
	note C_, 4
	note C_, 2
	note D#, 1
	note D#, 1
	note D#, 1
	note D#, 1
	note D#, 1
	note D#, 1
	note C_, 4
	note C_, 8
	note D#, 1
	note D#, 1
	note D#, 1
	note D#, 1
	note C_, 4
	note C_, 8
	note D#, 1
	note D#, 1
	note D#, 1
	note D#, 1
	note C_, 4
	note C_, 4
	note D#, 1
	note D#, 1
	note D#, 1
	note D#, 1
	note D#, 1
	note D#, 1
	note D#, 1
	note D#, 1
	note C_, 2
	note C_, 2
	note C_, 4
	note C_, 4
	note C_, 2
	note C_, 2
	note C_, 4
	note C_, 4
	note D#, 1
	note D#, 1
	note D#, 1
	note D#, 1
	note D#, 1
	note D#, 1
	note D#, 1
	note D#, 1
	note C_, 2
	note C_, 2
	note C_, 4
	note C_, 4
	note C_, 2
	note C_, 2
	jumpchannel Music_Route210DPPt_Ch4_loop
