; Pokémon D/P/Pt - Route 203
; Demixed by FroggestSpirit
; https://github.com/froggestspirit/CrystalComplete/blob/master/audio/music/DPPt/route203.asm

Music_Route203DPPt:
	dbw $C0, Music_Route203DPPt_Ch1
	dbw $01, Music_Route203DPPt_Ch2
	dbw $02, Music_Route203DPPt_Ch3
	dbw $03, Music_Route203DPPt_Ch4

Music_Route203DPPt_Ch1:
	tempo $97
	;transpose $19
	volume 7, 7
	note_type 4, 9, 1
	dutycycle 1
	tone $0002
	octave 3
	note A#, 1
	note A_, 1
	note G_, 1
	note F_, 1
	note E_, 1
	note D_, 1
	note C_, 1
	octave 2
	note A#, 2
	note G_, 1
	note F_, 1
	note E_, 1
	note F_, 1
	note G_, 1
	note A_, 1
	note A#, 1
	octave 3
	note C_, 1
	note D_, 1
	note E_, 1
	note F_, 1
	note G_, 1
	note A_, 1
	note A#, 1
	octave 4
	note C_, 1
	note_type 12, 9, 0
	note D#, 16
	intensity $97
	note D#, 8
	note_type 8, 9, 7
	note __, 4
	note D#, 1
	note __, 5
	note_type 12, 9, 0
	note D_, 16
	intensity $97
	note D_, 8
	note_type 4, 9, 7
	note __, 4
	intensity $91
	octave 3
	note A#, 1
	note A_, 1
	note G_, 1
	note F_, 1
	note E_, 1
	note D_, 1
	note C_, 1
	octave 2
	note A#, 1
	note A_, 1
	note G_, 1
	note F_, 1
	note E_, 1
	note F_, 1
	note G_, 1
	note A_, 1
	note A#, 1
	octave 3
	note C_, 1
	note D_, 1
	note E_, 1
	note F_, 1
	note G_, 1
	note A_, 1
	note A#, 1
	octave 4
	note C_, 1
	note_type 12, 9, 0
	note D#, 16
	intensity $97
	note D#, 8
	note_type 8, 9, 7
	note __, 4
	note D#, 1
	note __, 5
	intensity $90
	note D_, 14
	note_type 12, 9, 0
	octave 3
	note A#, 8
Music_Route203DPPt_Ch1_loop:
	note_type 8, 11, 1
	note A_, 2
	note G_, 4
	note_type 12, 11, 7
	note A_, 12
	note_type 8, 11, 7
	dutycycle 0
	note F#, 4
	note E_, 4
	note D_, 4
	note C#, 2
	octave 2
	note B_, 10
	octave 3
	note F#, 8
	note E_, 2
	note D_, 2
	note C#, 6
	octave 2
	note A#, 2
	note_type 10, 11, 7
	note B_, 2
	note_type 12, 11, 7
	octave 3
	note C#, 1
	intensity $B2
	note E_, 8
	note_type 8, 11, 7
	note C#, 4
	note E_, 4
	note C#, 4
	note C#, 2
	octave 2
	note B_, 2
	note __, 2
	note B_, 2
	note __, 6
	note A_, 2
	note __, 2
	note_type 14, 11, 7
	note B_, 2
	note_type 4, 11, 1
	dutycycle 2
	octave 3
	note D_, 1
	note E_, 1
	note F#, 1
	note G_, 1
	note A_, 1
	note B_, 8
	note B_, 2
	note B_, 2
	note B_, 4
	note A_, 2
	note A_, 2
	note B_, 4
	octave 4
	note D_, 4
	octave 3
	note B_, 4
	note B_, 4
	note A#, 1
	note B_, 3
	note __, 4
	octave 4
	note C_, 4
	note C#, 4
	note C#, 4
	note C#, 2
	note C#, 2
	note C#, 4
	octave 3
	note B_, 2
	note B_, 2
	octave 4
	note C#, 4
	note __, 4
	note C#, 4
	note C#, 4
	note C_, 1
	note C#, 7
	note D_, 4
	note D#, 4
	note D#, 4
	note D#, 2
	note D#, 2
	note D#, 4
	note C#, 2
	note C#, 2
	note D#, 4
	note F#, 4
	note D#, 4
	note D#, 4
	note D_, 1
	note D#, 5
	note D#, 6
	note D#, 4
	note D#, 4
	note D#, 2
	note D#, 2
	note D#, 4
	note C#, 2
	note C#, 2
	note D#, 4
	note F#, 4
	note D#, 4
	octave 3
	note B_, 4
	octave 4
	note D#, 4
	note F#, 4
	note B_, 4
	note_type 12, 11, 2
	dutycycle 1
	octave 2
	note B_, 8
	note_type 8, 11, 2
	octave 3
	note C#, 4
	note D_, 1
	note C#, 1
	octave 2
	note B_, 4
	note A#, 2
	note A_, 6
	note A_, 4
	note A#, 2
	note B_, 6
	note A_, 2
	note G_, 2
	note F#, 2
	octave 3
	note D_, 12
	note E_, 4
	note F#, 1
	note E_, 1
	note C#, 4
	note C_, 2
	octave 2
	note A_, 6
	note A_, 4
	octave 3
	note C#, 2
	octave 2
	note B_, 4
	note F#, 2
	note A_, 4
	note D#, 2
	note E_, 4
	octave 1
	note B_, 2
	octave 2
	note E_, 4
	octave 1
	note B_, 2
	octave 2
	note F#, 6
	note F#, 2
	note E_, 2
	note C#, 2
	note G_, 4
	note D_, 2
	note G_, 4
	note D_, 2
	note A#, 6
	note A#, 2
	note G_, 2
	note D_, 2
	intensity $B7
	note E_, 16
	note __, 16
	note __, 16
	dutycycle 2
	octave 3
	note F_, 4
	octave 2
	note F_, 2
	octave 3
	note F_, 4
	octave 2
	note F_, 2
	note E_, 4
	note E_, 2
	octave 3
	note E_, 4
	octave 2
	note E_, 2
	note D#, 4
	note D#, 2
	octave 3
	note C_, 4
	octave 2
	note D#, 2
	note D_, 2
	octave 3
	note D_, 4
	note C_, 4
	octave 2
	note A_, 2
	octave 1
	note A#, 2
	octave 3
	note D_, 2
	octave 1
	note A#, 2
	octave 3
	note D_, 4
	octave 1
	note A#, 2
	octave 3
	note C_, 4
	octave 2
	note C_, 2
	note G_, 4
	note C_, 2
	note C#, 2
	octave 3
	note F_, 2
	octave 2
	note C#, 2
	octave 3
	note F_, 4
	octave 2
	note C#, 2
	note D#, 2
	octave 3
	note G_, 2
	octave 2
	note D#, 2
	octave 3
	note G_, 4
	octave 2
	note D#, 2
	octave 3
	note G#, 4
	octave 2
	note G#, 2
	octave 3
	note G#, 4
	octave 2
	note G#, 2
	note G_, 4
	note G_, 2
	octave 3
	note G_, 4
	octave 2
	note G_, 2
	note F#, 4
	note F#, 2
	octave 3
	note D#, 4
	octave 2
	note F#, 2
	note F_, 2
	octave 3
	note F_, 4
	note D#, 4
	note C_, 2
	octave 2
	note C#, 2
	octave 3
	note F_, 2
	octave 2
	note C#, 2
	octave 3
	note F_, 4
	octave 2
	note C#, 2
	octave 3
	note D#, 4
	octave 2
	note D#, 2
	note A#, 4
	note D#, 2
	note C#, 2
	octave 3
	note F_, 2
	octave 2
	note C#, 2
	octave 3
	note F_, 4
	octave 2
	note C#, 2
	octave 3
	note D#, 4
	octave 2
	note D#, 2
	note A#, 4
	note D#, 2
	note E_, 2
	octave 3
	note E_, 2
	octave 2
	note E_, 2
	octave 3
	note E_, 4
	octave 2
	note E_, 2
	note F#, 2
	octave 3
	note F#, 2
	octave 2
	note F#, 2
	octave 3
	note F#, 4
	octave 2
	note F#, 2
	note_type 12, 9, 0
	dutycycle 1
	octave 4
	note D#, 16
	intensity $97
	note D#, 8
	note_type 8, 9, 7
	note __, 4
	note D#, 1
	note __, 5
	note_type 12, 9, 0
	note D_, 16
	intensity $97
	note D_, 8
	note_type 4, 9, 7
	note __, 4
	intensity $91
	octave 3
	note A#, 1
	note A_, 1
	note G_, 1
	note F_, 1
	note E_, 1
	note D_, 1
	note C_, 1
	octave 2
	note A#, 1
	note A_, 1
	note G_, 1
	note F_, 1
	note E_, 1
	note F_, 1
	note G_, 1
	note A_, 1
	note A#, 1
	octave 3
	note C_, 1
	note D_, 1
	note E_, 1
	note F_, 1
	note G_, 1
	intensity $B4
	note A_, 3
	octave 4
	note F_, 12
	note D#, 12
	octave 3
	note A#, 8
	octave 4
	note C_, 4
	octave 3
	note A#, 8
	octave 4
	note C_, 16
	note __, 16
	note __, 16
	note __, 16
	octave 3
	note D_, 4
	note D#, 4
	note F_, 4
	note A#, 8
	note G#, 4
	note F_, 8
	note D#, 4
	note D_, 4
	octave 2
	note A#, 8
	octave 3
	note C_, 8
	note D_, 4
	intensity $91
	note A#, 1
	note A_, 1
	note G_, 1
	note F_, 1
	note E_, 1
	note D_, 1
	note C_, 1
	octave 2
	note A#, 1
	note A_, 1
	note G_, 1
	note F_, 1
	note E_, 1
	note F_, 1
	note G_, 1
	note A_, 1
	note A#, 1
	octave 3
	note C_, 1
	note D_, 1
	note E_, 1
	note F_, 1
	note G_, 1
	intensity $B4
	note A_, 15
	octave 2
	note A#, 8
	note F_, 4
	note A#, 4
	note G#, 4
	note F_, 4
	note A#, 4
	note G#, 4
	note F_, 4
	note A#, 8
	note F_, 4
	note A#, 8
	octave 3
	note C_, 16
	octave 2
	note A#, 8
	octave 3
	note D_, 8
	note A#, 8
	note G#, 8
	note F_, 8
	note G#, 8
	note F_, 8
	note D#, 4
	note D_, 4
	octave 2
	note A#, 8
	octave 3
	note C_, 8
	note D_, 4
	intensity $91
	note A#, 1
	note A_, 1
	note G_, 1
	note F_, 1
	note E_, 1
	note D_, 1
	note C_, 1
	octave 2
	note A#, 1
	note A_, 1
	note G_, 1
	note F_, 1
	note E_, 1
	note F_, 1
	note G_, 1
	note A_, 1
	note A#, 1
	octave 3
	note C_, 1
	note D_, 1
	note E_, 1
	note F_, 1
	note G_, 1
	note A_, 3
	note_type 12, 9, 0
	octave 4
	note D#, 16
	intensity $97
	note D#, 8
	note_type 8, 9, 7
	note __, 4
	note D#, 1
	note __, 5
	intensity $90
	note D_, 14
	octave 3
	note A#, 12
	jumpchannel Music_Route203DPPt_Ch1_loop

Music_Route203DPPt_Ch2:
	note_type 4, 10, 1
	;transpose $19
	dutycycle 1
	tone $0001
	vibrato $00, $12
	octave 4
	note D#, 1
	note D_, 1
	note C_, 1
	octave 3
	note A#, 1
	note A_, 1
	note G_, 1
	note F_, 1
	note D#, 1
	note D_, 1
	note C_, 1
	octave 2
	note A#, 1
	note A_, 1
	note A#, 1
	octave 3
	note C_, 1
	note D_, 1
	note D#, 1
	note F_, 1
	note G_, 1
	note A_, 1
	note A#, 1
	octave 4
	note C_, 1
	note D_, 1
	note D#, 1
	note F_, 1
	note_type 12, 10, 0
	note G_, 16
	intensity $A7
	note G_, 8
	note_type 8, 10, 7
	note __, 4
	note G_, 1
	note __, 5
	note_type 12, 10, 0
	note F_, 16
	intensity $A7
	note F_, 8
	note_type 4, 10, 7
	note __, 4
	intensity $A1
	note D#, 1
	note D_, 1
	note C_, 1
	octave 3
	note A#, 1
	note A_, 1
	note G_, 1
	note F_, 1
	note D#, 1
	note D_, 1
	note C_, 1
	octave 2
	note A#, 1
	note A_, 1
	note A#, 1
	octave 3
	note C_, 1
	note D_, 1
	note D#, 1
	note F_, 1
	note G_, 1
	note A_, 1
	note A#, 1
	octave 4
	note C_, 1
	note D_, 1
	note D#, 1
	note F_, 1
	note_type 12, 10, 0
	note G_, 16
	intensity $A7
	note G_, 8
	note_type 8, 10, 7
	note __, 4
	note G_, 1
	note __, 5
	intensity $A0
	note F_, 14
	note D_, 12
Music_Route203DPPt_Ch2_loop:
	intensity $C1
	note E_, 2
	note D_, 2
	note __, 2
	intensity $C7
	note E_, 6
	octave 3
	note F#, 2
	note G_, 2
	note A_, 2
	note A_, 2
	note G_, 2
	note_type 14, 12, 7
	note F#, 1
	note_type 2, 12, 7
	note G#, 1
	note A_, 16
	note G_, 16
	note F#, 16
	note E_, 8
	note_type 13, 12, 7
	note D_, 6
	note_type 2, 12, 7
	note G#, 1
	note_type 8, 12, 7
	note A_, 8
	note G_, 2
	note F#, 2
	note E_, 6
	note C#, 2
	note D_, 2
	note E_, 2
	note_type 11, 12, 7
	note F#, 4
	note_type 13, 12, 7
	note __, 4
	note_type 8, 12, 7
	note E_, 4
	note F#, 4
	note E_, 4
	note E_, 2
	note D_, 2
	note __, 2
	note D_, 2
	note __, 6
	note D_, 2
	note __, 2
	note E_, 6
	note A_, 4
	note G_, 4
	note F#, 2
	note E_, 2
	note D_, 2
	note C#, 4
	octave 2
	note B_, 2
	note __, 2
	octave 3
	note C_, 2
	note A_, 4
	note G_, 2
	note F#, 2
	note G_, 2
	note E_, 2
	note __, 8
	note D#, 2
	note E_, 2
	note F#, 2
	note E_, 2
	note_type 10, 12, 7
	note D#, 16
	note_type 8, 12, 2
	octave 2
	note B_, 2
	note __, 2
	note B_, 4
	octave 1
	note B_, 2
	note __, 2
	octave 2
	note A_, 2
	note __, 2
	note A_, 2
	note D#, 2
	note F#, 2
	note B_, 2
	octave 3
	note D_, 6
	dutycycle 2
	vibrato $00, $12
	note D_, 2
	note G_, 2
	note B_, 2
	note A_, 4
	note B_, 1
	note A_, 1
	note G_, 4
	note G#, 2
	note A_, 2
	note E_, 2
	note __, 2
	note E_, 2
	note __, 2
	note G_, 2
	note F#, 1
	note G_, 1
	intensity $C7
	note F#, 16
	intensity $C2
	note D_, 2
	note G_, 2
	note B_, 2
	octave 4
	note C#, 4
	note D_, 1
	note C#, 1
	octave 3
	note B_, 6
	intensity $C4
	note A_, 8
	intensity $C2
	note G#, 2
	note A_, 2
	note B_, 4
	note F#, 2
	note A_, 2
	note __, 4
	note G_, 2
	octave 2
	note B_, 2
	note __, 2
	note B_, 2
	note __, 2
	note_type 4, 12, 2
	octave 3
	note F#, 1
	note G_, 3
	intensity $C4
	note C#, 16
	intensity $C2
	octave 2
	note B_, 4
	octave 3
	note C#, 4
	note_type 12, 12, 7
	note D_, 8
	note_type 10, 12, 7
	note F_, 8
	note_type 8, 12, 1
	note G_, 1
	note F_, 1
	note E_, 2
	note G_, 2
	note_type 10, 12, 7
	note A_, 16
	note_type 8, 12, 7
	dutycycle 1
	octave 2
	note C_, 2
	note G_, 2
	note E_, 2
	octave 3
	note C_, 2
	octave 2
	note G_, 2
	octave 3
	note G_, 2
	octave 4
	note C_, 6
	octave 3
	note A#, 6
	vibrato $00, $34
	note A_, 2
	note A#, 2
	octave 4
	note C_, 1
	note __, 1
	note_type 4, 12, 0
	octave 3
	note B_, 1
	octave 4
	note C_, 16
	note C_, 16
	note C_, 15
	octave 3
	note A_, 4
	octave 4
	note C_, 4
	note C#, 4
	note C#, 1
	note D_, 7
	note C_, 4
	note __, 4
	octave 3
	note A_, 4
	note G_, 4
	note F_, 16
	note G_, 4
	note A_, 4
	note A#, 8
	note G_, 4
	note E_, 8
	note G_, 4
	note __, 4
	note G#, 4
	note __, 4
	note F_, 8
	note G#, 4
	note G_, 4
	note G#, 4
	note A#, 4
	octave 4
	note D_, 1
	note D#, 7
	note C#, 4
	dutycycle 0
	note C_, 4
	note C#, 4
	note D#, 2
	note __, 2
	note_type 11, 12, 0
	note D#, 16
	note_type 8, 12, 0
	note D#, 2
	note C_, 2
	note_type 4, 12, 0
	note D_, 1
	note D#, 7
	note F_, 4
	note __, 4
	note D#, 4
	note __, 4
	note C_, 4
	octave 3
	note A#, 4
	note G#, 16
	note A#, 4
	octave 4
	note C_, 4
	octave 3
	note A#, 8
	note G#, 4
	note G_, 8
	note A#, 4
	note G#, 16
	note A#, 4
	note B_, 4
	octave 4
	note C_, 4
	note __, 4
	note C#, 4
	note D#, 4
	note F_, 4
	note G_, 4
	note_type 12, 12, 0
	dutycycle 1
	vibrato $00, $12
	note G#, 8
	note A#, 8
	intensity $A0
	octave 5
	note C_, 16
	intensity $A7
	note C_, 8
	note_type 8, 10, 7
	note __, 4
	note C_, 1
	note __, 5
	note_type 12, 10, 0
	note D_, 16
	intensity $A7
	note D_, 8
	note_type 4, 10, 7
	note __, 4
	intensity $A1
	octave 4
	note D#, 1
	note D_, 1
	note C_, 1
	octave 3
	note A#, 1
	note A_, 1
	note G_, 1
	note F_, 1
	note D#, 1
	note D_, 1
	note C_, 1
	octave 2
	note A#, 1
	note A_, 1
	note A#, 1
	octave 3
	note C_, 1
	note D_, 1
	note D#, 1
	note F_, 1
	note G_, 1
	note A_, 1
	note A#, 1
	octave 4
	note C_, 1
	note D_, 1
	note D#, 1
	note F_, 1
	note_type 12, 12, 0
	octave 5
	note C_, 16
	intensity $C7
	note C_, 8
	note_type 8, 12, 7
	note __, 4
	note C_, 1
	note __, 5
	note_type 12, 12, 0
	note D_, 16
	intensity $C7
	note D_, 8
	note_type 4, 12, 7
	note __, 4
	intensity $A1
	octave 4
	note D#, 1
	note D_, 1
	note C_, 1
	octave 3
	note A#, 1
	note A_, 1
	note G_, 1
	note F_, 1
	note D#, 1
	note D_, 1
	note C_, 1
	octave 2
	note A#, 1
	note A_, 1
	note A#, 1
	octave 3
	note C_, 1
	note D_, 1
	note D#, 1
	note F_, 1
	note G_, 1
	note A_, 1
	note A#, 1
	octave 4
	note C_, 1
	note D_, 1
	note D#, 1
	note F_, 1
	note_type 12, 12, 0
	octave 5
	note C_, 16
	intensity $C7
	note C_, 8
	note_type 8, 12, 7
	note __, 4
	note C_, 1
	note __, 5
	note_type 12, 12, 0
	note D_, 16
	intensity $C7
	note D_, 8
	note_type 4, 12, 7
	note __, 4
	intensity $A1
	octave 4
	note D#, 1
	note D_, 1
	note C_, 1
	octave 3
	note A#, 1
	note A_, 1
	note G_, 1
	note F_, 1
	note D#, 1
	note D_, 1
	note C_, 1
	octave 2
	note A#, 1
	note A_, 1
	note A#, 1
	octave 3
	note C_, 1
	note D_, 1
	note D#, 1
	note F_, 1
	note G_, 1
	note A_, 1
	note A#, 1
	octave 4
	note C_, 1
	note D_, 1
	note D#, 1
	note F_, 1
	note_type 12, 10, 0
	octave 5
	note C_, 16
	intensity $A7
	note C_, 8
	note_type 8, 10, 7
	note __, 4
	note C_, 1
	note __, 5
	intensity $A0
	octave 4
	note A#, 14
	note G_, 12
	jumpchannel Music_Route203DPPt_Ch2_loop

Music_Route203DPPt_Ch3:
	;transpose $19
	note_type 8, 1, 2
	octave 1
	note __, 12
	note A#, 2
	note __, 4
	octave 2
	note A#, 4
	note __, 2
	octave 1
	note A#, 1
	note __, 1
	octave 2
	note A#, 1
	note __, 1
	octave 1
	note A#, 1
	note __, 1
	octave 2
	note A#, 4
	note __, 2
	octave 1
	note A#, 2
	note __, 4
	octave 2
	note A#, 4
	note __, 2
	octave 1
	note A#, 2
	note __, 4
	octave 2
	note A#, 4
	note __, 2
	octave 1
	note A#, 2
	note __, 4
	octave 2
	note A#, 4
	note __, 2
	octave 1
	note A#, 1
	note __, 1
	octave 2
	note A#, 1
	note __, 1
	octave 1
	note A#, 1
	note __, 1
	octave 2
	note A#, 4
	note __, 2
	octave 1
	note A#, 2
	note __, 4
	octave 2
	note A#, 4
	note __, 2
Music_Route203DPPt_Ch3_loop:
	octave 1
	note A#, 2
	note __, 4
	octave 2
	note A#, 4
	note_type 12, 1, 2
	note __, 1
	note_type 4, 1, 5
	octave 4
	note F#, 1
	intensity $12
	octave 1
	note A#, 1
	intensity $15
	octave 4
	note A#, 4
	note __, 1
	note_type 2, 1, 5
	note A#, 1
	note __, 3
	note A#, 1
	note __, 3
	note A#, 1
	note __, 3
	intensity $12
	octave 2
	note A#, 2
	intensity $15
	octave 4
	note A#, 8
	note __, 6
	note A#, 1
	note __, 7
	intensity $12
	octave 1
	note A#, 8
	intensity $15
	octave 4
	note A#, 1
	note __, 7
	note A#, 8
	intensity $12
	octave 2
	note A#, 8
	intensity $15
	octave 4
	note A_, 8
	note A#, 6
	note F#, 2
	intensity $12
	octave 1
	note A#, 2
	intensity $15
	octave 4
	note A#, 8
	note __, 2
	note A#, 1
	note __, 3
	note A#, 1
	note __, 3
	note A#, 1
	note __, 3
	intensity $12
	octave 2
	note A#, 2
	intensity $15
	octave 4
	note A#, 8
	note __, 6
	note A#, 1
	note __, 7
	intensity $12
	octave 1
	note A#, 8
	intensity $15
	octave 4
	note A#, 1
	note __, 7
	note A#, 5
	note __, 3
	intensity $12
	octave 2
	note A#, 8
	intensity $15
	octave 5
	note C_, 8
	octave 4
	note A#, 6
	note C#, 2
	intensity $12
	octave 1
	note A#, 2
	intensity $15
	octave 4
	note F_, 8
	note __, 2
	note F_, 1
	note __, 3
	note F_, 1
	note __, 3
	note F_, 1
	note __, 3
	intensity $12
	octave 2
	note A#, 2
	intensity $15
	octave 4
	note F_, 8
	note __, 6
	note F_, 1
	note __, 7
	intensity $12
	octave 1
	note A#, 8
	intensity $15
	octave 4
	note F_, 1
	note __, 7
	note F_, 5
	note __, 3
	intensity $12
	octave 2
	note A#, 8
	intensity $15
	octave 4
	note G_, 8
	note F_, 2
	note __, 6
	intensity $12
	octave 1
	note A_, 8
	octave 2
	note D_, 8
	note __, 8
	note_type 12, 1, 2
	note E_, 4
	octave 1
	note A_, 6
	note __, 2
	octave 2
	note G_, 12
	note __, 4
	note G_, 8
	note A#, 4
	octave 3
	note C#, 4
	octave 2
	note F#, 8
	octave 3
	note C#, 8
	note_type 8, 1, 2
	octave 2
	note B_, 2
	note F#, 2
	note __, 2
	note B_, 2
	note __, 2
	octave 1
	note B_, 2
	octave 2
	note B_, 6
	note A_, 6
	octave 1
	note G_, 2
	note __, 6
	octave 2
	note D_, 2
	note __, 2
	note D_, 2
	note G_, 2
	note __, 2
	note G_, 4
	note G#, 2
	note A_, 2
	note G#, 2
	note A_, 2
	note __, 2
	note E_, 2
	note __, 2
	note C#, 4
	note __, 2
	note A_, 4
	note A#, 2
	note B_, 2
	octave 1
	note B_, 4
	note_type 12, 1, 2
	note B_, 12
	note_type 8, 1, 2
	octave 2
	note B_, 2
	note __, 2
	note B_, 4
	octave 1
	note B_, 2
	note __, 2
	octave 2
	note A_, 2
	note __, 2
	note A_, 2
	note D#, 2
	note F#, 2
	note B_, 2
	octave 3
	note D_, 4
	octave 2
	note D_, 2
	note G_, 2
	note __, 2
	note D_, 2
	note G_, 4
	octave 3
	note C#, 2
	note __, 4
	octave 2
	note E_, 2
	note A_, 2
	note __, 8
	note E_, 2
	note F#, 2
	note __, 2
	note B_, 2
	note __, 4
	note F#, 2
	note E_, 2
	note __, 2
	note E_, 2
	note __, 6
	note E_, 2
	note G_, 2
	note B_, 2
	note __, 2
	note A_, 2
	note E_, 2
	note D_, 2
	note __, 2
	note D_, 2
	note __, 6
	note D#, 2
	note __, 2
	note B_, 2
	note __, 6
	intensity $15
	note E_, 2
	note __, 4
	note E_, 2
	note __, 4
	note F#, 2
	note __, 4
	note F#, 2
	note __, 4
	note G_, 2
	note __, 4
	note G_, 2
	note __, 4
	note G_, 2
	note __, 4
	note G_, 2
	note __, 4
	note A_, 2
	note __, 4
	note A_, 2
	note __, 4
	note A_, 2
	note __, 4
	note A_, 2
	note __, 4
	intensity $25
	octave 3
	note E_, 8
	note D#, 2
	note E_, 2
	note G_, 6
	note C_, 6
	octave 2
	note F_, 6
	note __, 2
	note A_, 2
	note F_, 2
	note E_, 2
	note __, 8
	note E_, 2
	note D#, 2
	note __, 8
	note D#, 2
	note D_, 2
	note __, 2
	note C_, 2
	note D_, 2
	note __, 2
	note A#, 2
	note F_, 4
	note A#, 2
	note __, 4
	note D_, 2
	note C_, 4
	note G_, 2
	note __, 4
	octave 3
	note C_, 2
	note __, 4
	octave 2
	note G#, 2
	note __, 2
	note F_, 2
	note G#, 2
	note D#, 4
	note A#, 2
	note __, 4
	note G_, 2
	note D#, 6
	note __, 2
	octave 3
	note C_, 2
	octave 2
	note G#, 2
	note G_, 2
	note D#, 2
	note __, 4
	octave 3
	note C_, 2
	octave 2
	note G_, 2
	note F#, 2
	note __, 2
	note F#, 2
	note __, 4
	note C_, 2
	note F_, 2
	note __, 2
	note F_, 2
	note F_, 2
	note __, 2
	note G#, 2
	note G#, 2
	note C#, 4
	note __, 4
	note C#, 2
	note D#, 2
	note __, 4
	note G_, 4
	note D#, 2
	note G#, 2
	note __, 2
	note F_, 2
	note C#, 4
	note __, 2
	note D#, 2
	note A#, 2
	note G_, 2
	note __, 4
	note D#, 2
	note E_, 2
	note __, 4
	note E_, 2
	note __, 4
	note F#, 2
	note __, 4
	note D#, 4
	note G_, 2
	intensity $12
	note G#, 2
	note __, 4
	octave 3
	note G#, 4
	note __, 2
	octave 2
	note G#, 1
	note __, 1
	octave 3
	note G#, 1
	note __, 1
	octave 2
	note G#, 1
	note __, 1
	octave 3
	note G#, 4
	note __, 2
	octave 2
	note G#, 2
	note __, 4
	octave 3
	note G#, 4
	note __, 2
	octave 2
	note G#, 2
	note __, 4
	octave 3
	note G#, 4
	note __, 2
	octave 1
	note A#, 2
	note __, 4
	octave 2
	note A#, 4
	note __, 2
	octave 1
	note A#, 1
	note __, 1
	octave 2
	note A#, 1
	note __, 1
	octave 1
	note A#, 1
	note __, 1
	octave 2
	note A#, 4
	note __, 2
	octave 1
	note A#, 2
	note __, 4
	octave 2
	note A#, 4
	note __, 2
	octave 1
	note A#, 2
	note __, 4
	octave 2
	note A#, 4
	note __, 2
	octave 1
	note A#, 2
	note __, 4
	octave 2
	note A#, 4
	note __, 2
	octave 1
	note A#, 1
	note __, 1
	octave 2
	note A#, 1
	note __, 1
	octave 1
	note A#, 1
	note __, 1
	octave 2
	note A#, 4
	note __, 2
	octave 1
	note A#, 2
	note __, 4
	octave 2
	note A#, 4
	note __, 2
	octave 1
	note A#, 2
	note __, 4
	octave 2
	note A#, 4
	note __, 2
	octave 1
	note A#, 2
	note __, 4
	octave 2
	note A#, 4
	note __, 2
	octave 1
	note A#, 1
	note __, 1
	octave 2
	note A#, 1
	note __, 1
	octave 1
	note A#, 1
	note __, 1
	octave 2
	note A#, 4
	note __, 2
	octave 1
	note A#, 2
	note __, 4
	octave 2
	note A#, 4
	note __, 2
	octave 1
	note A#, 2
	note __, 4
	octave 2
	note A#, 4
	note __, 2
	octave 1
	note A#, 2
	note __, 4
	octave 2
	note A#, 4
	note __, 2
	octave 1
	note A#, 1
	note __, 1
	octave 2
	note A#, 1
	note __, 1
	octave 1
	note A#, 1
	note __, 1
	octave 2
	note A#, 4
	note __, 2
	octave 1
	note A#, 2
	note __, 4
	octave 2
	note A#, 4
	note __, 2
	octave 1
	note A#, 2
	note __, 4
	octave 2
	note A#, 4
	note __, 2
	octave 1
	note A#, 2
	note __, 4
	octave 2
	note A#, 4
	note __, 2
	octave 1
	note A#, 1
	note __, 1
	octave 2
	note A#, 1
	note __, 1
	octave 1
	note A#, 1
	note __, 1
	octave 2
	note A#, 4
	note __, 2
	octave 1
	note A#, 2
	note __, 4
	octave 2
	note A#, 4
	note __, 2
	jumpchannel Music_Route203DPPt_Ch3_loop

Music_Route203DPPt_Ch4:
	togglenoise 3
	note_type 12
	note __, 8
	note C#, 4
	note_type 8
	note G_, 2
	note B_, 2
	note C#, 2
	note C#, 2
	note C#, 4
	note G_, 2
	note B_, 2
	note C#, 2
	note C#, 6
	note G_, 2
	note B_, 2
	note C#, 2
	note C#, 2
	note C#, 4
	note G_, 2
	note B_, 2
	note C#, 2
	note C#, 6
	note G_, 2
	note B_, 2
	note C#, 2
	note C#, 2
	note C#, 4
	note G_, 2
	note B_, 2
	note C#, 2
	note C#, 6
	note G_, 2
	note B_, 2
	note C#, 2
	note C#, 2
	note C#, 4
	note G_, 2
	note B_, 2
	note C#, 2
	note C#, 6
	note G_, 2
	note B_, 2
	note C#, 2
	note C#, 2
	note C#, 4
	note G_, 2
	note B_, 2
	note C#, 2
	note C#, 6
	note G_, 2
	note B_, 2
	note C#, 2
	note C#, 2
	note C#, 4
	note G_, 2
	note B_, 2
	note C#, 2
	note C#, 6
	note G_, 2
	note B_, 2
	note C#, 2
	note C#, 2
	note C#, 4
	note G_, 2
	note B_, 2
	note C#, 2
Music_Route203DPPt_Ch4_loop:
	note C#, 2
	note C#, 4
	note B_, 12
	note G_, 6
	note D#, 6
	note G_, 12
	note G_, 4
	note D#, 2
	note D#, 6
	note G_, 6
	note D#, 6
	note G_, 4
	note D#, 2
	note D#, 6
	note G_, 4
	note D#, 2
	note D#, 6
	note G_, 6
	note D#, 6
	note G_, 4
	note D#, 6
	note D#, 2
	note G_, 6
	note D#, 4
	note D#, 2
	note G_, 6
	note D#, 2
	note D#, 4
	note G_, 4
	note D#, 2
	note D#, 4
	note D#, 2
	note G_, 6
	note D#, 2
	note D#, 4
	note G_, 4
	note D#, 2
	note D#, 2
	note D#, 4
	note G_, 6
	note D#, 2
	note D#, 4
	note G_, 4
	note D#, 2
	note D#, 4
	note D#, 2
	note G_, 6
	note D#, 2
	note D#, 4
	note G_, 6
	note C#, 4
	note C#, 2
	note C#, 4
	note C#, 2
	note C#, 4
	note C#, 2
	note C#, 1
	note C#, 1
	note C#, 1
	note C#, 1
	note C#, 1
	note C#, 1
	note C#, 2
	note C#, 2
	note C#, 6
	note C#, 2
	note C#, 4
	note C#, 8
	note C#, 4
	note C#, 2
	note C#, 4
	note C#, 2
	note C#, 4
	note C#, 2
	note C#, 1
	note C#, 1
	note C#, 1
	note C#, 1
	note C#, 1
	note C#, 1
	note C#, 2
	note C#, 2
	note C#, 6
	note C#, 2
	note C#, 4
	note C#, 8
	note C#, 4
	note C#, 2
	note C#, 4
	note C#, 2
	note C#, 4
	note C#, 2
	note C#, 1
	note C#, 1
	note C#, 1
	note C#, 1
	note C#, 1
	note C#, 1
	note C#, 2
	note C#, 2
	note C#, 6
	note C#, 2
	note C#, 4
	note C#, 8
	note C#, 4
	note C#, 2
	note C#, 4
	note C#, 2
	note C#, 4
	note C#, 2
	note C#, 1
	note C#, 1
	note C#, 1
	note C#, 1
	note C#, 1
	note C#, 1
	note C#, 2
	note C#, 2
	note C#, 6
	note C#, 2
	note C#, 4
	note C#, 2
	note B_, 6
	note C#, 6
	note G_, 2
	note E_, 2
	note C#, 2
	note C#, 2
	note C#, 4
	note G_, 2
	note E_, 2
	note C#, 2
	note C#, 6
	note G_, 2
	note E_, 2
	note C#, 2
	note C#, 2
	note C#, 4
	note G_, 2
	note E_, 2
	note C#, 2
	note C#, 6
	note G_, 2
	note E_, 2
	note C#, 2
	note C#, 2
	note C#, 4
	note G_, 2
	note E_, 2
	note C#, 2
	note C#, 6
	note G_, 2
	note E_, 2
	note C#, 2
	note C#, 2
	note C#, 4
	note G_, 2
	note E_, 2
	note C#, 2
	note C#, 6
	note G_, 2
	note E_, 2
	note C#, 2
	note C#, 2
	note C#, 4
	note G_, 2
	note E_, 2
	note C#, 2
	note C#, 6
	note G_, 2
	note E_, 2
	note C#, 2
	note C#, 2
	note C#, 4
	note G_, 2
	note E_, 2
	note C#, 2
	note C#, 6
	note G_, 2
	note E_, 2
	note C#, 2
	note C#, 2
	note C#, 4
	note G_, 2
	note E_, 2
	note C#, 2
	note C#, 6
	note G_, 2
	note E_, 2
	note C#, 2
	note C#, 2
	note C#, 4
	note G_, 2
	note E_, 2
	note C#, 2
	note C#, 2
	note C#, 4
	note B_, 6
	note C#, 6
	note B_, 6
	note C#, 6
	note G_, 2
	note B_, 2
	note C#, 2
	note C#, 2
	note C#, 4
	note G_, 2
	note B_, 2
	note C#, 2
	note C#, 6
	note G_, 2
	note B_, 2
	note C#, 2
	note C#, 2
	note C#, 4
	note G_, 2
	note B_, 2
	note C#, 2
	note C#, 6
	note G_, 2
	note B_, 2
	note C#, 2
	note C#, 2
	note C#, 4
	note G_, 2
	note B_, 2
	note C#, 2
	note C#, 6
	note G_, 2
	note B_, 2
	note C#, 2
	note C#, 2
	note C#, 4
	note G_, 2
	note B_, 2
	note C#, 2
	note C#, 6
	note G_, 2
	note B_, 2
	note C#, 2
	note C#, 2
	note C#, 4
	note G_, 2
	note B_, 2
	note C#, 2
	note C#, 6
	note G_, 2
	note B_, 2
	note C#, 2
	note C#, 2
	note C#, 4
	note G_, 2
	note B_, 2
	note C#, 2
	note C#, 6
	note G_, 2
	note B_, 2
	note C#, 2
	note C#, 2
	note C#, 4
	note G_, 2
	note B_, 2
	note C#, 2
	note C#, 6
	note G_, 2
	note B_, 2
	note C#, 2
	note C#, 2
	note C#, 4
	note G_, 2
	note B_, 2
	note C#, 2
	note C#, 6
	note G_, 2
	note B_, 2
	note C#, 2
	note C#, 2
	note C#, 4
	note G_, 2
	note B_, 2
	note C#, 2
	note C#, 6
	note G_, 2
	note B_, 2
	note C#, 2
	note C#, 2
	note C#, 4
	note G_, 2
	note B_, 2
	note C#, 2
	note C#, 6
	note G_, 2
	note B_, 2
	note C#, 2
	note C#, 2
	note C#, 4
	note G_, 2
	note B_, 2
	note C#, 2
	note C#, 6
	note G_, 2
	note B_, 2
	note C#, 2
	note C#, 2
	note C#, 4
	note G_, 2
	note B_, 2
	note C#, 2
	note C#, 6
	note G_, 2
	note B_, 2
	note C#, 2
	note C#, 2
	note C#, 4
	note G_, 2
	note B_, 2
	note C#, 2
	note C#, 6
	note G_, 2
	note B_, 2
	note C#, 2
	note C#, 2
	note C#, 4
	note G_, 2
	note B_, 2
	note C#, 2
	note C#, 6
	note G_, 2
	note B_, 2
	note C#, 2
	note C#, 2
	note C#, 4
	note G_, 2
	note B_, 2
	note C#, 2
	jumpchannel Music_Route203DPPt_Ch4_loop
