; Pokémon D/P/Pt - Route 205
; Demixed by FroggestSpirit
; https://github.com/froggestspirit/CrystalComplete/blob/master/audio/music/DPPt/route205.asm

Music_Route205DPPt:
	dbw $C0, Music_Route205DPPt_Ch1
	dbw $01, Music_Route205DPPt_Ch2
	dbw $02, Music_Route205DPPt_Ch3
	dbw $03, Music_Route205DPPt_Ch4

Music_Route205DPPt_Ch1:
Music_Route205DPPt_Ch1_loop:
	tempo $C0
	volume 7, 7
	note_type 12, 11, 2
	duty_cycle 1
	tone $0001
	octave 3
	note G_, 2
	note G_, 3
	note D_, 3
	note F_, 2
	note F_, 3
	note C_, 3
	octave 4
	note C_, 2
	note C_, 3
	octave 3
	note F_, 3
	note G_, 2
	note G_, 3
	octave 2
	note B_, 3
	note_type 8, 11, 2
	octave 3
	note G_, 1
	octave 4
	note D_, 1
	note D_, 1
	octave 3
	note B_, 1
	octave 4
	note D_, 1
	note G_, 1
	octave 5
	note G_, 3
	note_type 12, 11, 2
	note D_, 1
	note G_, 1
	note_type 8, 11, 2
	octave 3
	note F_, 1
	octave 4
	note C_, 1
	note C_, 1
	octave 3
	note A_, 1
	octave 4
	note C_, 1
	note F_, 1
	octave 5
	note F_, 3
	note_type 12, 11, 2
	note C_, 1
	note F_, 1
	octave 3
	note D_, 1
	note G_, 1
	note A_, 1
	note G_, 1
	note A_, 1
	note D_, 1
	note G_, 1
	note A_, 1
	octave 4
	note C_, 1
	note G_, 1
	note A_, 1
	octave 5
	note C_, 1
	note D_, 1
	octave 6
	note D_, 3
	volume_envelope 11, 1
	duty_cycle 2
	octave 2
	note G_, 2
	octave 3
	note D_, 2
	note G_, 1
	octave 4
	note C_, 1
	octave 3
	note B_, 2
	octave 2
	note G_, 2
	octave 3
	note D_, 2
	note B_, 1
	note G_, 1
	note D_, 2
	octave 2
	note G_, 2
	octave 3
	note E_, 2
	octave 4
	note C_, 1
	octave 3
	note E_, 1
	note A_, 2
	octave 2
	note G_, 2
	octave 3
	note E_, 2
	note A_, 1
	note E_, 1
	octave 4
	note C_, 2
	octave 2
	note G_, 2
	note A_, 2
	octave 3
	note F#, 1
	octave 2
	note A_, 1
	octave 3
	note C_, 2
	octave 2
	note G_, 2
	octave 3
	note E_, 2
	octave 4
	note C_, 1
	octave 3
	note C_, 1
	note E_, 2
	octave 2
	note G_, 2
	octave 3
	note D_, 2
	octave 2
	note A_, 1
	octave 3
	note D_, 1
	note F#, 2
	octave 2
	note G_, 2
	octave 3
	note D_, 2
	note B_, 1
	note D_, 1
	note F_, 2
	volume_envelope 11, 4
	duty_cycle 1
	octave 4
	note G_, 4
	octave 5
	note C_, 4
	octave 4
	note B_, 1
	octave 5
	note C_, 1
	octave 4
	note B_, 1
	note G_, 3
	octave 5
	note D_, 2
	note E_, 2
	octave 4
	note G_, 2
	octave 5
	note C_, 1
	octave 4
	note B_, 1
	octave 5
	note C_, 2
	octave 4
	note B_, 3
	note G_, 3
	note D_, 2
	note E_, 3
	note B_, 2
	note G_, 2
	note A_, 1
	note G_, 3
	octave 5
	note D_, 2
	octave 4
	note G_, 2
	note F_, 1
	note E_, 4
	note G_, 4
	note D_, 1
	note G_, 1
	note A_, 2
	octave 5
	note D_, 4
	octave 3
	note A_, 3
	note A_, 3
	note A_, 2
	note A#, 6
	note A#, 1
	octave 4
	note C_, 1
	octave 3
	note A_, 2
	octave 4
	note C_, 2
	note F_, 2
	octave 3
	note A_, 2
	octave 4
	note C_, 2
	octave 3
	note A#, 4
	note G_, 1
	note A_, 1
	note F#, 2
	note A_, 2
	note F#, 2
	note D_, 2
	note G_, 1
	note G_, 1
	note A#, 1
	note A#, 1
	octave 4
	note C_, 1
	note C_, 1
	note F_, 1
	note F_, 1
	octave 2
	note F_, 4
	octave 4
	note C_, 4
	note D_, 4
	octave 3
	note D_, 4
	octave 4
	note D_, 3
	octave 3
	note G_, 2
	note A_, 2
	note G_, 1
	octave 4
	note E_, 2
	note D_, 2
	note C_, 2
	note D_, 2
	octave 3
	note B_, 3
	note D_, 3
	note F#, 1
	note G_, 1
	note A_, 2
	note G_, 2
	note F#, 2
	note G_, 2
	note E_, 2
	octave 2
	note B_, 2
	octave 3
	note E_, 4
	note G_, 2
	note E_, 2
	note G_, 4
	note B_, 1
	note B_, 1
	octave 4
	note D_, 1
	note D_, 1
	octave 3
	note G_, 1
	note G_, 1
	note B_, 1
	note B_, 1
	octave 4
	note E_, 1
	note E_, 1
	octave 3
	note B_, 1
	note B_, 1
	octave 4
	note D_, 1
	note D_, 3
	jumpchannel Music_Route205DPPt_Ch1_loop

Music_Route205DPPt_Ch2:
Music_Route205DPPt_Ch2_loop:
	note_type 12, 12, 2
	duty_cycle 1
	tone $0002
	octave 4
	note G_, 2
	note G_, 3
	octave 3
	note G_, 1
	octave 4
	note D_, 1
	note G_, 1
	note F_, 2
	note F_, 3
	octave 3
	note F_, 1
	octave 4
	note C_, 1
	note F_, 1
	octave 5
	note C_, 1
	octave 4
	note B_, 1
	note G_, 1
	note F_, 1
	note C_, 1
	note F_, 1
	note G_, 1
	octave 5
	note C_, 1
	octave 4
	note B_, 1
	note G_, 1
	note D_, 1
	note C_, 1
	octave 3
	note B_, 1
	octave 4
	note C_, 1
	octave 3
	note G_, 1
	note D_, 1
	note D_, 1
	note G_, 1
	octave 4
	note G_, 1
	octave 3
	note G_, 1
	octave 4
	note D_, 1
	octave 3
	note G_, 1
	octave 4
	note G_, 1
	octave 5
	note D_, 1
	octave 3
	note C_, 1
	note F_, 1
	octave 4
	note F_, 1
	octave 3
	note F_, 1
	octave 4
	note C_, 1
	octave 3
	note F_, 1
	octave 4
	note F_, 1
	octave 5
	note C_, 1
	volume_envelope 12, 7
	octave 4
	note D_, 6
	note_type 8, 12, 3
	note D_, 1
	note D_, 1
	note D_, 1
	note D_, 6
	volume_envelope 12, 7
	note D_, 6
	volume_envelope 12, 2
	note D_, 3
	note G_, 3
	note_type 12, 12, 2
	note F#, 1
	note G_, 1
	note F#, 2
	note D_, 2
	octave 3
	note B_, 2
	octave 4
	note E_, 1
	note D_, 1
	octave 3
	note G_, 2
	note A_, 1
	note B_, 1
	octave 4
	note C_, 2
	octave 3
	note F#, 1
	note G_, 1
	note A_, 2
	octave 4
	note A_, 1
	note B_, 1
	octave 5
	note C_, 2
	octave 4
	note F#, 1
	note G_, 1
	note A_, 2
	note E_, 2
	note A_, 2
	note G#, 1
	note A_, 1
	note G#, 2
	note E_, 2
	note C_, 2
	note G_, 1
	note F#, 1
	octave 3
	note A_, 2
	note B_, 1
	octave 4
	note C_, 1
	note D_, 2
	octave 3
	note F#, 1
	note G_, 1
	note A_, 2
	octave 4
	note B_, 1
	octave 5
	note C_, 1
	note D_, 2
	octave 4
	note F#, 1
	note G_, 1
	note A_, 4
	volume_envelope 12, 5
	duty_cycle 2
	octave 3
	note G_, 1
	note E_, 1
	note G_, 2
	octave 4
	note E_, 2
	note D_, 2
	note E_, 1
	volume_envelope 12, 2
	octave 3
	note G_, 2
	volume_envelope 12, 5
	note G_, 5
	note G_, 1
	note E_, 1
	note G_, 2
	octave 4
	note G_, 2
	note F#, 1
	note G_, 1
	note F#, 1
	note D_, 2
	octave 3
	note G_, 2
	note D_, 1
	note E_, 3
	note B_, 2
	note G_, 2
	note A_, 1
	note G_, 3
	note D_, 2
	note G_, 2
	note F_, 1
	note E_, 2
	note G_, 2
	note A_, 2
	octave 4
	note D_, 2
	note G_, 1
	note G_, 1
	note A_, 1
	note A_, 1
	octave 5
	note D_, 2
	duty_cycle 0
	octave 4
	note D_, 1
	note D#, 1
	note F_, 3
	note F_, 3
	note G_, 2
	note F_, 6
	note D_, 1
	note D#, 1
	note F_, 2
	note A#, 2
	note A_, 2
	note F_, 2
	note G_, 2
	note F_, 4
	octave 3
	note A#, 1
	octave 4
	note C_, 1
	note D_, 2
	note D#, 2
	note D_, 2
	octave 3
	note A_, 2
	note A#, 1
	note A#, 1
	octave 4
	note D_, 1
	note D_, 1
	note G_, 1
	note G_, 1
	note A_, 1
	note A_, 1
	note F_, 6
	note E_, 1
	note F_, 1
	note F#, 6
	note F_, 1
	note F#, 1
	note G_, 3
	note D_, 2
	note E_, 2
	note D_, 1
	note G_, 2
	note F#, 2
	note E_, 2
	note F#, 2
	note D_, 3
	octave 3
	note G_, 3
	note A_, 1
	note B_, 1
	octave 4
	note C_, 2
	octave 3
	note B_, 2
	note A#, 2
	note B_, 2
	volume_envelope 12, 1
	note G_, 2
	note E_, 2
	note G_, 2
	octave 4
	note E_, 2
	note D_, 2
	note E_, 2
	note G_, 2
	note A_, 2
	note B_, 1
	note B_, 1
	octave 5
	note C_, 1
	note C_, 1
	note C#, 1
	note C#, 1
	note D_, 1
	note D_, 1
	octave 4
	note G_, 1
	note G_, 3
	note A_, 1
	note A_, 3
	jumpchannel Music_Route205DPPt_Ch2_loop

Music_Route205DPPt_Ch3:
Music_Route205DPPt_Ch3_loop:
	note_type 12, 1, 3
	octave 2
	note G_, 1
	note __, 1
	note G_, 1
	note __, 2
	note G_, 1
	note B_, 1
	octave 3
	note D_, 1
	octave 2
	note G_, 1
	note __, 1
	note G_, 1
	note __, 2
	note A_, 1
	octave 3
	note C_, 1
	note F_, 1
	octave 2
	note G_, 1
	note __, 1
	note G_, 1
	note __, 2
	octave 3
	note C_, 1
	note F_, 1
	note A_, 1
	octave 2
	note G_, 1
	note __, 1
	note G_, 1
	note __, 2
	octave 3
	note D_, 1
	note G_, 1
	note B_, 1
	octave 2
	note G_, 1
	note __, 1
	note G_, 1
	note __, 1
	octave 3
	note D_, 1
	octave 2
	note G_, 1
	octave 3
	note D_, 1
	note G_, 1
	octave 2
	note G_, 1
	note __, 1
	note G_, 1
	note __, 1
	octave 3
	note C_, 1
	octave 2
	note F_, 1
	octave 3
	note C_, 1
	note F_, 1
	octave 2
	note D_, 1
	note __, 1
	note D_, 1
	note __, 3
	note D_, 1
	note D_, 1
	note D_, 1
	note __, 1
	note D_, 1
	note __, 3
	note D_, 1
	note __, 1
	note G_, 1
	note __, 1
	note G_, 1
	note __, 3
	note G_, 1
	note G_, 1
	note G_, 1
	note __, 1
	note G_, 1
	note __, 3
	note G_, 1
	note G_, 1
	note G_, 1
	note __, 1
	note G_, 1
	note __, 2
	note G_, 1
	note A_, 1
	octave 3
	note C_, 1
	octave 2
	note G_, 1
	note __, 1
	note G_, 1
	note __, 3
	note G_, 1
	note G_, 1
	note G_, 1
	note __, 1
	note G_, 1
	note __, 3
	note G_, 1
	note G_, 1
	note G_, 1
	note __, 1
	note G_, 1
	note __, 3
	note G_, 1
	note G_, 1
	note G_, 1
	note __, 1
	note G_, 1
	note __, 2
	note G_, 1
	note A_, 1
	octave 3
	note C_, 1
	octave 2
	note G_, 1
	note __, 1
	note G_, 1
	note __, 3
	note F_, 1
	note F_, 1
	note C_, 1
	note __, 2
	note C_, 1
	note __, 2
	note G_, 1
	note __, 1
	octave 1
	note B_, 1
	note __, 2
	note B_, 1
	note __, 1
	octave 2
	note G_, 1
	note __, 2
	note C_, 1
	note __, 2
	note C_, 1
	note __, 2
	note E_, 1
	note __, 1
	octave 1
	note B_, 1
	note __, 2
	octave 2
	note E_, 1
	note __, 1
	note E_, 1
	note __, 1
	note D_, 1
	note C_, 1
	note __, 2
	note G_, 1
	octave 1
	note B_, 1
	note __, 2
	octave 2
	note F#, 1
	note E_, 1
	note __, 2
	note E_, 1
	note D_, 1
	note __, 2
	note G_, 1
	octave 3
	note C_, 1
	note C_, 1
	octave 2
	note G_, 1
	octave 3
	note C_, 1
	note C#, 1
	note C#, 1
	octave 2
	note A_, 1
	octave 3
	note C#, 1
	note D_, 1
	note D_, 1
	octave 2
	note A_, 1
	note G_, 1
	note D_, 1
	note __, 3
	note F_, 1
	note __, 1
	note F_, 1
	note F_, 1
	note F_, 1
	note F_, 1
	note G_, 1
	note A_, 1
	note A#, 1
	note __, 1
	note A#, 1
	note F_, 1
	note A#, 1
	note A#, 1
	note A_, 1
	note G_, 1
	note F_, 1
	note __, 1
	note F_, 1
	note F_, 1
	note F_, 1
	note F_, 1
	octave 3
	note C_, 1
	octave 2
	note A_, 1
	note A#, 1
	note __, 1
	note A#, 1
	note F_, 1
	octave 3
	note C_, 1
	octave 2
	note A#, 1
	note A_, 1
	note G_, 1
	note A_, 1
	note __, 1
	note D_, 1
	note __, 1
	note A_, 1
	note __, 1
	octave 3
	note C_, 1
	note __, 1
	octave 2
	note A#, 1
	note __, 1
	note D_, 1
	note __, 1
	note G_, 1
	note __, 1
	octave 3
	note C_, 1
	note __, 1
	octave 2
	note F_, 1
	note F_, 1
	note __, 1
	octave 3
	note C_, 1
	note C_, 1
	note __, 1
	note F_, 1
	note __, 1
	note D_, 1
	note D_, 1
	note __, 1
	octave 2
	note D_, 1
	note D_, 1
	note __, 1
	note D_, 1
	note D_, 1
	note_type 9, 1, 3
	note G_, 2
	note __, 14
	note G_, 2
	note_type 13, 0, 0
	note __, 6
	note_type 9, 1, 3
	note G_, 2
	note_type 13, 0, 0
	note __, 6
	note_type 9, 1, 3
	note B_, 2
	note_type 15, 0, 0
	note __, 2
	note_type 12, 1, 3
	note E_, 1
	note __, 1
	note E_, 1
	note __, 3
	note E_, 1
	note E_, 1
	octave 1
	note B_, 1
	note __, 1
	note B_, 1
	note __, 3
	note B_, 1
	octave 2
	note C_, 1
	note D_, 1
	note __, 3
	note E_, 1
	note __, 3
	note C_, 1
	note C_, 1
	note __, 2
	note D_, 1
	note D_, 1
	note __, 1
	note_type 13, 1, 3
	note D_, 1
	jumpchannel Music_Route205DPPt_Ch3_loop

Music_Route205DPPt_Ch4:
	toggle_noise 3
Music_Route205DPPt_Ch4_loop:
	note_type 12
	note C#, 2
	note C#, 2
	note C#, 2
	note C#, 2
	note C#, 2
	note C#, 2
	note C#, 2
	note C#, 2
	note C#, 2
	note C#, 1
	note C#, 1
	note C#, 2
	note C#, 1
	note C#, 1
	note C#, 2
	note C#, 1
	note C#, 1
	note C#, 2
	note C#, 1
	note C#, 1
	note C#, 2
	note C#, 1
	note C#, 1
	note C#, 2
	note C#, 2
	note C#, 2
	note C#, 1
	note C#, 1
	note C#, 2
	note C#, 2
	note F#, 2
	note F#, 2
	note C#, 2
	note F#, 2
	note C#, 4
	note C#, 4
	note C#, 2
	note C#, 2
	note C#, 2
	note_type 8
	note C#, 1
	note C#, 1
	note C#, 1
	note C#, 3
	note C#, 3
	note C#, 3
	note C#, 1
	note C#, 1
	note C#, 1
	note C#, 3
	note C#, 1
	note C#, 1
	note C#, 1
	note C#, 3
	note C#, 1
	note C#, 1
	note C#, 1
	note C#, 3
	note C#, 3
	note C#, 3
	note C#, 1
	note C#, 1
	note C#, 1
	note C#, 3
	note C#, 3
	note C#, 3
	note C#, 1
	note C#, 1
	note C#, 1
	note C#, 3
	note C#, 3
	note C#, 3
	note C#, 1
	note C#, 1
	note C#, 1
	note C#, 3
	note C#, 1
	note C#, 1
	note C#, 1
	note C#, 3
	note C#, 1
	note C#, 1
	note C#, 1
	note C#, 3
	note C#, 3
	note C#, 3
	note C#, 1
	note C#, 1
	note C#, 1
	note F#, 12
	note B_, 9
	note_type 12
	note F#, 1
	note G_, 1
	note F#, 8
	note B_, 6
	note F#, 1
	note G_, 1
	note F#, 3
	note G_, 1
	note G_, 1
	note F#, 3
	note F#, 3
	note G_, 1
	note G_, 1
	note F#, 2
	note G_, 1
	note F#, 2
	note G_, 2
	note F#, 2
	note G_, 2
	note G_, 1
	note G_, 1
	note F#, 1
	note G_, 1
	note B_, 2
	note C#, 1
	note C#, 1
	note F#, 2
	note C#, 1
	note C#, 1
	note C#, 2
	note C#, 2
	note F#, 2
	note C#, 1
	note C#, 1
	note C#, 2
	note C#, 2
	note F#, 2
	note C#, 1
	note C#, 1
	note F#, 2
	note C#, 2
	note F#, 2
	note C#, 2
	note F#, 2
	note C#, 1
	note C#, 1
	note F#, 2
	note C#, 2
	note F#, 1
	note C#, 2
	note C#, 1
	note C#, 2
	note C#, 2
	note F#, 1
	note C#, 2
	note C#, 1
	note C#, 2
	note C#, 2
	note C#, 1
	note C#, 2
	note C#, 1
	note C#, 2
	note_type 8
	note C#, 1
	note C#, 1
	note C#, 1
	note C#, 3
	note C#, 1
	note C#, 1
	note C#, 1
	note C#, 3
	note_type 12
	note C#, 1
	note C#, 1
	note C#, 2
	note_type 8
	note C#, 1
	note C#, 1
	note C#, 1
	note C#, 3
	note C#, 3
	note C#, 1
	note C#, 1
	note_type 10
	note C#, 2
	note_type 12
	note C#, 1
	note F#, 2
	note C#, 1
	note C#, 1
	note F#, 2
	note_type 8
	note C#, 1
	note C#, 1
	note C#, 1
	note C#, 3
	note C#, 3
	note F#, 3
	note C#, 3
	note F#, 3
	note F#, 3
	note C#, 3
	note C#, 1
	note C#, 1
	note C#, 1
	note F#, 3
	note F#, 3
	note C#, 3
	note C#, 1
	note C#, 1
	note C#, 1
	note_type 12
	note F#, 1
	note F#, 1
	note C#, 2
	note F#, 1
	note F#, 1
	note C#, 2
	note C#, 1
	note C#, 3
	note C#, 1
	note C#, 3
	jumpchannel Music_Route205DPPt_Ch4_loop
