; Pokémon D/P/Pt - Stark Mountain
; Demixed by FroggestSpirit
; https://github.com/froggestspirit/pokecrystal/blob/master/Demixes.zip

Music_StarkMountainDPPt:
	channel_count 4
	channel 1, Music_StarkMountainDPPt_Ch1
	channel 2, Music_StarkMountainDPPt_Ch2
	channel 3, Music_StarkMountainDPPt_Ch3
	channel 4, Music_StarkMountainDPPt_Ch4

Music_StarkMountainDPPt_Ch1:
	volume 7, 7
	stereopanning $77
	tempo $A0
	tone $0002
	vibrato $10, $36
Music_StarkMountainDPPt_Ch1_loop:
	octave 2
	note_type 12, 10, 1
	note __, 9
	note D_, 1
	note D#, 1
	note D_, 1
	note F_, 1
	note D_, 1
	note D#, 1
	note D_, 5
	octave 1
	note G#, 1
	note G_, 1
	octave 2
	note C#, 1
	note D_, 2
	octave 1
	note G_, 1
	note G#, 1
	note G_, 1
	note A#, 1
	note G_, 1
	octave 2
	note C#, 1
	note D_, 3
	note C#, 1
	note D_, 2
	note C#, 1
	note D_, 2
	note D_, 1
	octave 1
	note D_, 2
	note D_, 1
	octave 2
	note D_, 1
	note D_, 1
	octave 1
	note F#, 6
	note G#, 1
	note G_, 1
	octave 2
	note D_, 1
	note C#, 1
	octave 1
	note D_, 3
	note D_, 1
	octave 2
	note F_, 1
	note E_, 3
	note D_, 1
	note C#, 1
	octave 1
	note D_, 1
	octave 2
	note D_, 1
	note C#, 1
	octave 1
	note A#, 1
	note G_, 1
	note D_, 14
	octave 2
	note D_, 1
	note F_, 1
	note D_, 1
	note G_, 1
	note G#, 1
	note C#, 1
	note D_, 10
	note F#, 1
	note G_, 1
	note F#, 1
	octave 3
	note C#, 1
	note D_, 1
	octave 2
	note A#, 1
	note G_, 1
	note_type 6, 10, 1
	note F_, 1
	note D_, 1
	note C#, 1
	note C_, 1
	octave 1
	note A#, 2
	note G_, 10
	octave 2
	note G_, 2
	note G_, 2
	note G#, 2
	note_type 12, 10, 1
	note G_, 9
	note D_, 2
	note A_, 1
	note A#, 2
	note A_, 1
	note A#, 2
	note A_, 1
	note A#, 1
	note A_, 1
	note A#, 1
	note_type 6, 10, 1
	note A_, 1
	note A#, 1
	note A_, 1
	note A#, 1
	note F_, 2
	note F#, 2
	note G_, 8
	note G_, 2
	note G_, 2
	note A#, 2
	note G_, 2
	octave 3
	note E_, 2
	octave 2
	note G_, 2
	note A#, 2
	note G_, 2
	octave 3
	note D_, 4
	octave 2
	note G_, 2
	note A#, 2
	octave 3
	note D_, 2
	note E_, 4
	note D_, 2
	note C#, 3
	octave 2
	note A#, 2
	note A_, 2
	note G#, 2
	note G_, 2
	note F_, 2
	note E_, 1
	note D#, 1
	note C#, 1
	note C_, 1
	octave 1
	note B_, 1
	note A#, 1
	note A_, 1
	note G#, 1
	note G_, 1
	note F#, 1
	note E_, 1
	note_type 12, 10, 1
	note D_, 16
	octave 3
	note D_, 1
	note D#, 2
	note D_, 1
	note D#, 2
	note D_, 1
	note D#, 1
	note D_, 1
	note D#, 1
	note_type 6, 10, 1
	note D_, 1
	note D#, 1
	note D_, 1
	note D#, 1
	note D_, 1
	note D#, 1
	note D_, 1
	note D#, 1
	note D_, 1
	note D#, 1
	note D_, 1
	note D#, 1
	note D_, 1
	note D#, 1
	note D_, 1
	note D#, 1
	dutycycle 2
	octave 4
	note_type 8, 10, 1
	note F#, 1
	note G_, 1
	note F#, 1
	note G_, 1
	note F#, 1
	note G_, 1
	note F#, 1
	note G_, 1
	note F#, 1
	note G_, 1
	note F#, 1
	note G_, 1
	note F#, 1
	note G_, 1
	note F#, 1
	note G_, 1
	note F#, 1
	note G_, 1
	note F#, 1
	note G_, 1
	note F#, 1
	note G_, 1
	note F#, 1
	note G_, 1
	note F#, 1
	note G_, 1
	note F#, 1
	note G_, 1
	note F#, 1
	note G_, 1
	note F#, 1
	note G_, 1
	note F#, 1
	note_type 7, 10, 1
	note G_, 1
	note __, 16
	note __, 16
	note __, 16
	note __, 16
	note __, 16
	note __, 16
	note __, 16
	note __, 15
	note_type 1, 10, 1
	note __, 4
	note_type 7, 10, 1
	dutycycle 3
	octave 1
	note_type 12, 10, 1
	note D_, 1
	note __, 2
	note D_, 1
	note __, 1
	note_type 6, 10, 1
	note D_, 1
	note __, 1
	note D_, 4
	note D#, 2
	note D_, 2
	note __, 2
	note D_, 4
	note __, 6
	note D_, 2
	note __, 4
	note D_, 2
	note __, 2
	note D_, 1
	note __, 1
	note D_, 2
	note_type 12, 10, 1
	note __, 9
	note D_, 1
	note __, 2
	note D_, 1
	note __, 1
	note_type 6, 10, 1
	note D_, 1
	note __, 1
	note D_, 2
	note __, 2
	note D#, 2
	note D_, 2
	note __, 2
	note D_, 4
	note __, 6
	note D_, 2
	note __, 4
	note D_, 2
	note __, 2
	note C#, 2
	note D_, 1
	note __, 1
	note D_, 1
	note __, 1
	note D_, 1
	note __, 1
	octave 2
	note A_, 1
	octave 3
	note D_, 1
	note F#, 1
	note A_, 1
	octave 4
	note C_, 1
	note D_, 1
	note F#, 1
	note G#, 1
	note_type 12, 10, 8
	note A_, 16
	intensity $68
	note A_, 16
	intensity $38
	note A_, 16
	note __, 16
	note __, 16
	note __, 16
	note __, 4
	dutycycle 0
	intensity $A1
	octave 1
	note G_, 1
	note F#, 1
	octave 2
	note C_, 1
	note C#, 2
	octave 1
	note F#, 1
	note G_, 1
	note F#, 1
	note A_, 1
	note F#, 1
	octave 2
	note C_, 1
	note C#, 3
	note C_, 1
	note C#, 2
	note C_, 1
	note C#, 2
	octave 1
	note F#, 1
	note F_, 1
	octave 2
	note C_, 1
	note C#, 2
	note C#, 2
	note C_, 5
	octave 1
	note G_, 1
	note F#, 1
	octave 2
	note C#, 1
	note C_, 1
	octave 1
	note C#, 3
	note C#, 16
	note __, 5
	jumpchannel Music_StarkMountainDPPt_Ch1_loop

Music_StarkMountainDPPt_Ch2:
Music_StarkMountainDPPt_Ch2_loop:
	note_type 12, 11, 5
	dutycycle 1
	octave 1
	note __, 16
	note G_, 2
	note __, 1
	octave 2
	note_type 6, 11, 5
	note G_, 1
	note __, 1
	octave 1
	note G_, 2
	octave 2
	note G_, 1
	note __, 1
	note D_, 4
	note C#, 2
	octave 1
	note G_, 1
	note __, 3
	note G_, 2
	note A#, 2
	note __, 2
	octave 2
	note F_, 4
	note E_, 2
	note __, 4
	octave 1
	note A#, 2
	note G_, 2
	note __, 2
	note F_, 4
	octave 2
	note D_, 2
	octave 1
	note D_, 2
	note __, 2
	note D_, 2
	note D_, 2
	note D_, 2
	note F#, 4
	note G_, 4
	note __, 2
	octave 2
	note G_, 1
	note __, 1
	octave 1
	note G_, 2
	octave 2
	note G_, 1
	note __, 1
	note D_, 4
	note C#, 2
	octave 1
	note G_, 1
	note __, 3
	note G_, 2
	note A#, 2
	octave 2
	note D_, 2
	note F_, 4
	note E_, 2
	note __, 4
	octave 1
	note A#, 2
	note G_, 2
	note __, 2
	note F_, 4
	note E_, 1
	note __, 1
	note E_, 1
	note __, 1
	note A#, 4
	note G_, 1
	note __, 1
	note G_, 1
	note __, 1
	octave 2
	note D_, 4
	note C#, 2
	octave 1
	note C#, 1
	note __, 3
	note C#, 2
	note_type 15, 11, 5
	note __, 8
	octave 2
	note_type 12, 11, 5
	note C#, 1
	note_type 6, 11, 5
	note D_, 1
	note __, 1
	note D_, 2
	octave 1
	note D_, 1
	note __, 3
	note D_, 2
	note __, 2
	note D_, 1
	note __, 3
	note D_, 2
	note D_, 1
	note D_, 1
	note D_, 2
	note F_, 4
	note D_, 1
	note __, 1
	note D_, 1
	note __, 1
	note F#, 4
	note G_, 2
	note __, 4
	octave 2
	note G_, 2
	note D_, 2
	note __, 2
	note F_, 2
	note __, 2
	octave 1
	note A#, 2
	octave 2
	note C#, 1
	note __, 3
	note C#, 2
	octave 1
	note G_, 2
	note __, 2
	octave 2
	note F_, 4
	note E_, 2
	octave 1
	note A#, 2
	note __, 2
	note A#, 2
	note G_, 2
	note F#, 2
	note F_, 4
	note E_, 1
	note G_, 1
	note A_, 2
	note A#, 4
	note G_, 2
	note __, 2
	octave 2
	note C#, 4
	note C#, 2
	octave 1
	note G_, 2
	note __, 2
	note G_, 2
	note G_, 2
	note A#, 2
	octave 2
	note G_, 4
	note E_, 2
	octave 1
	note G_, 2
	note __, 2
	note E_, 2
	octave 2
	note E_, 2
	octave 1
	note G_, 2
	note __, 2
	note G_, 2
	octave 2
	note C#, 2
	octave 1
	note G_, 4
	note A_, 2
	note F#, 2
	note C#, 6
	note F#, 1
	note __, 1
	note F#, 2
	octave 2
	note C#, 4
	octave 1
	note F#, 1
	note __, 1
	note F#, 2
	octave 2
	note D#, 4
	note D_, 2
	octave 1
	note D_, 2
	note_type 12, 11, 5
	note __, 14
	octave 2
	note D_, 1
	octave 1
	note D_, 1
	note __, 1
	note D_, 1
	note E_, 2
	note B_, 2
	note __, 8
	note D_, 1
	octave 2
	note D_, 1
	octave 1
	note D_, 2
	octave 2
	note C_, 1
	octave 1
	note C_, 3
	note __, 8
	note D_, 1
	octave 2
	note D_, 1
	note __, 2
	octave 1
	note D_, 1
	note __, 2
	octave 2
	note C_, 1
	octave 1
	note D_, 1
	note __, 2
	note A_, 1
	note D_, 1
	note __, 1
	note F_, 1
	note F#, 1
	note __, 3
	dutycycle 2
	note G_, 1
	note __, 2
	note G_, 1
	note __, 1
	note_type 6, 11, 5
	note G_, 1
	note __, 1
	note G_, 2
	note __, 2
	note G#, 2
	note G_, 2
	note __, 2
	note G_, 4
	note __, 6
	note G_, 2
	note __, 4
	note G_, 2
	note __, 2
	note G_, 1
	note __, 1
	note G_, 2
	note_type 12, 11, 5
	note __, 9
	note G_, 1
	note __, 2
	note G_, 1
	note __, 1
	note_type 6, 11, 5
	note G_, 1
	note __, 1
	note G_, 2
	note __, 2
	note G#, 2
	note G_, 2
	note __, 2
	note G_, 4
	note __, 6
	note G_, 2
	note __, 4
	note G_, 2
	note __, 2
	note G_, 1
	note __, 1
	note G_, 2
	note G#, 2
	note G_, 2
	note __, 14
	note G_, 2
	note __, 4
	note G_, 2
	note __, 2
	note G_, 1
	note __, 1
	note G_, 2
	note __, 2
	note G#, 2
	note G_, 2
	note __, 2
	note G_, 4
	note __, 6
	note G_, 2
	note __, 4
	note G_, 2
	note __, 2
	note G_, 1
	note __, 1
	note G_, 2
	note_type 12, 11, 5
	note __, 9
	note G_, 1
	note __, 2
	note G_, 1
	note __, 1
	note_type 6, 11, 5
	note G_, 1
	note __, 1
	note G_, 2
	note __, 2
	note G#, 2
	note G_, 2
	note __, 2
	note G_, 4
	note __, 6
	note G_, 2
	note __, 4
	note G_, 2
	note __, 2
	note G_, 1
	note __, 1
	note G_, 2
	note __, 16
	note __, 16
	note __, 16
	note __, 16
	note __, 16
	note __, 16
	note __, 16
	note __, 16
	note __, 16
	note __, 16
	note __, 16
	note __, 16
	note __, 12
	dutycycle 1
	note F#, 4
	note __, 2
	octave 2
	note F#, 1
	note __, 1
	octave 1
	note F#, 2
	octave 2
	note F#, 1
	note __, 1
	note C#, 4
	note C_, 2
	octave 1
	note F#, 1
	note __, 3
	note F#, 2
	note A_, 2
	note __, 2
	octave 2
	note E_, 4
	note D#, 2
	note __, 4
	octave 1
	note A_, 2
	note F#, 2
	note __, 2
	note E_, 4
	note D#, 2
	note __, 2
	note A_, 4
	note F#, 2
	note __, 2
	octave 2
	note C_, 4
	octave 1
	note F#, 4
	note __, 2
	octave 2
	note F#, 1
	note __, 1
	octave 1
	note F#, 2
	octave 2
	note F#, 1
	note __, 1
	note C#, 4
	note C_, 2
	octave 1
	note F#, 1
	note __, 3
	note F#, 2
	note A_, 2
	octave 2
	note C#, 2
	note E_, 4
	note D#, 2
	note __, 4
	octave 1
	note A_, 2
	note F#, 2
	note __, 2
	note E_, 4
	note D#, 2
	note __, 2
	note A_, 4
	note F#, 2
	note __, 2
	octave 2
	note C_, 4
	jumpchannel Music_StarkMountainDPPt_Ch2_loop

Music_StarkMountainDPPt_Ch3:
	tone $0001
	intensity $19
	vibrato $08, $45
Music_StarkMountainDPPt_Ch3_loop:
	note_type 12, 1, -1
	octave 4
	note __, 9
	note_type 6, 1, -1
	note C_, 1
	note __, 1
	note C#, 1
	note __, 1
	note C_, 1
	note __, 1
	note D#, 1
	note __, 1
	note C_, 1
	note __, 1
	note C#, 1
	note __, 1
	note C_, 1
	note __, 1
	intensity $14
	octave 3
	note G_, 2
	note __, 4
	octave 4
	note G_, 2
	note __, 4
	note D_, 2
	note __, 4
	note C#, 2
	note __, 2
	octave 3
	note G_, 2
	note A#, 2
	note __, 2
	octave 4
	note F_, 4
	note E_, 2
	note __, 4
	octave 3
	note A#, 2
	note G_, 2
	note __, 2
	note F_, 4
	octave 4
	note D_, 2
	octave 3
	note D_, 3
	note __, 1
	note D_, 2
	note D_, 1
	note __, 1
	note D_, 1
	note __, 1
	note F#, 4
	note G_, 2
	note F#, 2
	note G_, 2
	octave 4
	note G_, 2
	note D_, 2
	note C#, 2
	octave 3
	note A_, 2
	octave 4
	note F_, 2
	note __, 2
	note C#, 2
	note __, 2
	octave 3
	note G_, 2
	note A#, 2
	note __, 2
	octave 4
	note D_, 4
	note E_, 2
	note C#, 2
	note __, 2
	octave 3
	note A#, 2
	note G_, 2
	note E_, 2
	note C#, 2
	octave 2
	note A#, 2
	octave 3
	note E_, 1
	note __, 1
	note E_, 1
	note __, 1
	note A#, 4
	note G_, 1
	note __, 1
	note G_, 1
	note __, 1
	octave 4
	note D_, 4
	note C#, 8
	note_type 15, 1, 4
	note __, 8
	note_type 6, 1, 4
	note D#, 1
	note __, 1
	note E_, 1
	note __, 1
	note D_, 8
	note_type 15, 1, 4
	note __, 8
	octave 3
	note_type 4, 1, 4
	note G_, 1
	note __, 1
	note G_, 1
	note __, 1
	note G_, 1
	note __, 1
	note G_, 12
	note __, 15
	octave 4
	note_type 6, 1, -1
	note C_, 1
	note __, 1
	note C#, 1
	note __, 1
	note C_, 1
	note __, 1
	note D#, 1
	note __, 1
	note C_, 1
	note __, 1
	note C#, 1
	note __, 1
	note C_, 1
	note __, 1
	intensity $14
	octave 3
	note G_, 2
	note C#, 2
	note __, 2
	note C#, 2
	octave 2
	note A#, 2
	note A_, 2
	note G#, 4
	note G_, 1
	note A#, 1
	octave 3
	note C_, 2
	note C#, 4
	octave 2
	note A#, 2
	note __, 2
	octave 3
	note E_, 4
	note G_, 8
	note __, 16
	note __, 16
	note __, 10
	intensity $19
	octave 4
	note C_, 1
	note __, 1
	note C#, 1
	note __, 1
	note C_, 1
	note __, 1
	note D#, 1
	note __, 1
	note C_, 1
	note __, 1
	note C#, 1
	note __, 1
	note C_, 1
	note __, 1
	intensity $14
	octave 3
	note D_, 2
	octave 2
	note D_, 2
	note_type 14, 1, 4
	note __, 12
	octave 3
	note_type 12, 1, 4
	note D_, 1
	octave 2
	note D_, 1
	note __, 1
	note D_, 1
	note E_, 2
	note B_, 2
	note __, 8
	note D_, 1
	octave 3
	note D_, 1
	octave 2
	note D_, 2
	octave 3
	note C_, 1
	octave 2
	note C_, 3
	note __, 8
	note D_, 1
	octave 3
	note D_, 1
	note __, 2
	octave 2
	note D_, 1
	note __, 2
	octave 3
	note C_, 1
	octave 2
	note D_, 1
	note __, 2
	note A_, 1
	note D_, 1
	note __, 1
	note F_, 1
	note F#, 1
	note __, 16
	note __, 16
	note __, 3
	intensity $16
	octave 1
	note A#, 1
	note __, 2
	note A#, 1
	note __, 1
	note_type 6, 1, 6
	note A#, 1
	note __, 1
	note A#, 2
	note __, 2
	note B_, 2
	note A#, 2
	note __, 2
	note A#, 4
	note __, 6
	note A#, 2
	note __, 4
	note A#, 2
	note __, 2
	note A#, 1
	note __, 1
	note A#, 2
	note B_, 2
	note A#, 2
	note __, 14
	note A#, 2
	note __, 4
	note A#, 2
	note __, 2
	note A#, 1
	note __, 1
	note A#, 2
	note __, 2
	note B_, 2
	note A#, 2
	note __, 2
	note A#, 4
	note __, 6
	note A#, 2
	note __, 4
	note A#, 2
	note __, 2
	note A#, 1
	note __, 1
	note A#, 2
	note_type 12, 1, -1
	note __, 9
	octave 4
	note A#, 1
	note __, 2
	note A#, 1
	note __, 1
	note_type 6, 1, -1
	note A#, 1
	note __, 1
	note A#, 2
	note __, 2
	octave 5
	note C_, 2
	octave 4
	note A#, 2
	note __, 2
	note A#, 4
	note __, 6
	note A#, 2
	note __, 4
	note A#, 2
	note __, 2
	note A_, 2
	note A#, 1
	note __, 1
	note A#, 1
	note __, 1
	note A#, 2
	note D_, 1
	note F#, 1
	note A_, 1
	octave 5
	note C_, 1
	note D_, 1
	note F#, 1
	note A_, 1
	octave 6
	note C_, 1
	note_type 12, 1, -1
	note D_, 16
	intensity $29
	note D_, 16
	intensity $39
	note D_, 16
	note __, 16
	intensity $15
	octave 3
	note G_, 1
	note __, 2
	octave 4
	note G_, 1
	note __, 2
	note D_, 1
	note __, 2
	note C#, 1
	note __, 1
	octave 3
	note G_, 1
	note A#, 1
	note __, 1
	octave 4
	note F_, 1
	note __, 1
	note E_, 1
	note __, 2
	octave 3
	note A#, 1
	note G_, 1
	note __, 1
	note F_, 1
	note __, 1
	octave 4
	note D_, 1
	octave 3
	note D_, 1
	note __, 1
	note_type 9, 1, 5
	note D_, 1
	note_type 3, 1, 5
	note __, 1
	note D_, 3
	note __, 1
	note D_, 3
	note __, 1
	note F#, 4
	note __, 4
	intensity $14
	octave 2
	note F#, 8
	note __, 4
	octave 3
	note F#, 2
	note __, 2
	octave 2
	note F#, 4
	octave 3
	note F#, 4
	note C#, 8
	note C_, 4
	octave 2
	note F#, 2
	note __, 6
	note F#, 4
	note A_, 4
	note __, 4
	octave 3
	note E_, 8
	note D#, 4
	note __, 8
	octave 2
	note A_, 4
	note F#, 4
	note __, 4
	note E_, 8
	note D#, 4
	note __, 4
	note A_, 8
	note F#, 4
	note __, 4
	octave 3
	note C_, 8
	octave 2
	note F#, 8
	note __, 4
	octave 3
	note F#, 2
	note __, 2
	octave 2
	note F#, 4
	octave 3
	note F#, 2
	note __, 2
	note C#, 8
	note C_, 4
	octave 2
	note F#, 2
	note __, 6
	note F#, 4
	note A_, 4
	octave 3
	note C#, 4
	note E_, 8
	note D#, 4
	note __, 8
	octave 2
	note A_, 4
	note F#, 4
	note __, 4
	note E_, 8
	note D#, 4
	note __, 4
	note A_, 8
	note F#, 4
	note __, 4
	octave 3
	note C_, 8
	jumpchannel Music_StarkMountainDPPt_Ch3_loop

Music_StarkMountainDPPt_Ch4:
	togglenoise 3
	note_type 12
Music_StarkMountainDPPt_Ch4_loop:
	note D#, 8
	note D#, 8
	note D#, 2
	note G_, 1
	note D#, 1
	note D#, 2
	note D#, 2
	note D#, 2
	note G_, 2
	note D#, 2
	note D#, 1
	note D#, 1
	note D#, 2
	note G_, 1
	note D#, 1
	note D#, 2
	note D#, 6
	note G#, 1
	note G_, 1
	note G#, 2
	note D#, 2
	note G_, 1
	note D#, 1
	note D#, 2
	note D#, 2
	note D#, 2
	note G_, 2
	note D#, 2
	note D#, 1
	note D#, 1
	note D#, 2
	note G_, 1
	note D#, 1
	note D#, 2
	note D#, 2
	note D#, 2
	note G_, 1
	note D#, 1
	note D#, 2
	note D#, 2
	note D#, 3
	note D#, 1
	note D#, 4
	note D#, 4
	note D#, 2
	note D#, 1
	note D#, 1
	note D#, 3
	note D#, 2
	note D#, 2
	note D#, 1
	note D#, 3
	note D#, 1
	note D#, 2
	note D#, 2
	note D#, 2
	note G_, 1
	note D#, 1
	note D#, 2
	note D#, 2
	note D#, 2
	note G_, 2
	note D#, 2
	note D#, 1
	note D#, 1
	note D#, 2
	note G_, 1
	note D#, 1
	note D#, 2
	note D#, 2
	note D#, 2
	note G_, 2
	note D#, 2
	note D#, 2
	note D#, 2
	note G_, 1
	note D#, 1
	note D#, 2
	note D#, 2
	note D#, 2
	note G_, 2
	note D#, 2
	note D#, 1
	note D#, 1
	note D#, 2
	note G_, 1
	note D#, 2
	note D#, 1
	note G_, 1
	note D#, 1
	note D#, 2
	note G_, 1
	note D#, 1
	note D#, 2
	note D#, 2
	note D#, 1
	note D#, 7
	note D#, 1
	note D#, 7
	note D#, 1
	note D#, 2
	note D#, 1
	note D#, 2
	note D#, 2
	note D#, 8
	note D#, 1
	note D#, 7
	note G#, 1
	note G_, 7
	note D#, 3
	note G#, 3
	note G_, 4
	note D#, 1
	note G_, 5
	note D#, 2
	note G_, 1
	note D#, 1
	note D#, 2
	note D#, 2
	note D#, 2
	note G_, 2
	note D#, 2
	note D#, 1
	note D#, 1
	note D#, 2
	note G_, 1
	note D#, 1
	note D#, 2
	note D#, 2
	note D#, 2
	note G_, 2
	note D#, 2
	note D#, 2
	note D#, 2
	note G_, 1
	note D#, 1
	note D#, 2
	note D#, 2
	note D#, 2
	note G_, 2
	note D#, 2
	note D#, 1
	note D#, 1
	note D#, 2
	note G_, 1
	note D#, 1
	note D#, 2
	note D#, 2
	note D#, 2
	note G_, 1
	note D#, 1
	note D#, 2
	note D#, 2
	note D#, 2
	note G_, 1
	note D#, 1
	note D#, 2
	note D#, 2
	note D#, 2
	note G_, 2
	note D#, 2
	note D#, 1
	note D#, 1
	note D#, 2
	note G_, 1
	note D#, 1
	note D#, 2
	note D#, 2
	note D#, 2
	note G_, 2
	note D#, 2
	note D#, 2
	note D#, 2
	note G_, 1
	note D#, 1
	note D#, 2
	note D#, 2
	note D#, 2
	note G_, 2
	note D#, 2
	note D#, 1
	note D#, 1
	note D#, 2
	note G_, 1
	note D#, 1
	note D#, 2
	note D#, 2
	note D#, 2
	note G_, 1
	note D#, 1
	note D#, 2
	note D#, 2
	note B_, 6
	note G#, 1
	note G#, 5
	note G#, 1
	note G#, 3
	note G#, 1
	note G#, 5
	note G#, 1
	note G#, 5
	note G#, 1
	note G#, 3
	note D#, 1
	note D#, 5
	note D#, 1
	note D#, 5
	note D#, 1
	note D#, 3
	note G#, 1
	note G#, 5
	note G#, 1
	note G#, 9
	note G#, 1
	note G#, 5
	note G#, 1
	note G#, 1
	note G#, 1
	note G#, 5
	note G#, 1
	note G#, 1
	note G#, 1
	note G#, 5
	note G#, 1
	note G#, 1
	note G#, 1
	note G#, 5
	note G#, 1
	note G#, 1
	note D#, 2
	note G_, 1
	note D#, 1
	note D#, 2
	note D#, 2
	note D#, 2
	note G_, 2
	note D#, 2
	note D#, 1
	note D#, 1
	note D#, 2
	note G_, 1
	note D#, 1
	note D#, 2
	note D#, 2
	note D#, 2
	note G_, 2
	note D#, 2
	note D#, 2
	note D#, 2
	note G_, 1
	note D#, 1
	note D#, 2
	note D#, 2
	note D#, 2
	note G_, 2
	note D#, 2
	note D#, 1
	note D#, 1
	note D#, 2
	note G_, 1
	note D#, 1
	note D#, 2
	note D#, 2
	note D#, 2
	note G_, 1
	note D#, 1
	note D#, 2
	note D#, 2
	jumpchannel Music_StarkMountainDPPt_Ch4_loop
