; Pokémon D/P/Pt - Sunyshore City
; Demixed by FroggestSpirit
; https://github.com/froggestspirit/pokecrystal/blob/master/Demixes.zip

Music_SunyshoreCityDPPt:
	channel_count 4
	channel 1, Music_SunyshoreCityDPPt_Ch1
	channel 2, Music_SunyshoreCityDPPt_Ch2
	channel 3, Music_SunyshoreCityDPPt_Ch3
	channel 4, Music_SunyshoreCityDPPt_Ch4

Music_SunyshoreCityDPPt_Ch1:
	volume 7, 7
	stereopanning $77
	tempo $90
	tone $0002
	volume_envelope 10, 1
	note_type 12, 10, 1
	note __, 2
	octave 4
	note F#, 2
	volume_envelope 6, 1
	note F#, 2
	note F#, 2
	note E_, 2
	note E_, 2
	note E_, 2
	note E_, 2
	note E_, 2
	note D#, 2
	volume_envelope 10, 1
	note D#, 2
	volume_envelope 6, 1
	note D#, 2
	note E_, 2
	volume_envelope 10, 1
	note E_, 2
	volume_envelope 6, 1
	note E_, 2
	volume_envelope 10, 1
	note E_, 2
	volume_envelope 6, 1
	note E_, 2
	volume_envelope 10, 1
	note F#, 2
	volume_envelope 6, 1
	note F#, 2
	note F#, 2
	note E_, 2
	note E_, 2
	note E_, 2
	note E_, 2
	note E_, 2
	note D#, 2
	note D#, 2
	note D#, 2
	note E_, 2
	note E_, 2
	note E_, 2
	note D#, 4
	duty_cycle 2
	volume_envelope 8, 7
	octave 2
	note A_, 6
	note G#, 4
	note F#, 2
	note E_, 2
	note F#, 2
	note B_, 4
	octave 3
	note E_, 4
	note B_, 6
	note A_, 1
	note G#, 1
Music_SunyshoreCityDPPt_Ch1_loop:
	note_type 6, 8, 7
	note G#, 1
	note A_, 3
	note F#, 8
	note G#, 2
	note F#, 2
	note E_, 4
	note D_, 8
	note E_, 4
	note D#, 1
	note E_, 11
	note F#, 2
	note E_, 2
	note D_, 4
	note C#, 8
	octave 2
	note B_, 4
	note G#, 8
	note E_, 8
	octave 3
	note E_, 8
	note C#, 8
	octave 2
	note F#, 12
	note F#, 2
	note G#, 2
	note A_, 8
	note A#, 8
	note A_, 8
	note A_, 8
	note G#, 4
	note A_, 2
	note G#, 2
	note F#, 8
	note E_, 8
	note G#, 4
	note B_, 4
	note C_, 4
	note E_, 12
	duty_cycle 1
	volume_envelope 10, 1
	note E_, 2
	note C#, 2
	note G#, 2
	note A_, 6
	note A_, 4
	note A_, 2
	note A_, 2
	note G#, 2
	note F#, 2
	note E_, 2
	note F#, 2
	note G#, 2
	note B_, 6
	duty_cycle 0
	volume_envelope 8, 1
	octave 4
	note E_, 2
	note D#, 2
	octave 5
	note E_, 2
	octave 4
	note E_, 6
	note E_, 2
	note D#, 2
	octave 5
	note E_, 2
	octave 4
	note E_, 2
	note E_, 2
	octave 5
	note E_, 2
	octave 4
	note E_, 2
	octave 5
	note E_, 2
	duty_cycle 1
	volume_envelope 10, 1
	octave 2
	note F#, 2
	note C#, 2
	note G#, 2
	note A_, 6
	note A_, 4
	note A_, 2
	note A_, 2
	note G#, 2
	note F#, 2
	note E_, 2
	note F#, 2
	note A_, 2
	octave 3
	note C#, 6
	duty_cycle 0
	volume_envelope 8, 1
	octave 4
	note E_, 2
	note D#, 2
	octave 5
	note E_, 2
	octave 4
	note E_, 6
	note E_, 2
	note D#, 2
	octave 5
	note E_, 2
	octave 4
	note E_, 2
	note E_, 2
	octave 5
	note E_, 2
	octave 4
	note E_, 2
	octave 5
	note E_, 2
	duty_cycle 1
	volume_envelope 10, 1
	octave 2
	note C#, 4
	note A#, 2
	note B_, 2
	note G#, 2
	note E_, 2
	note C#, 4
	note C#, 2
	note C#, 2
	note A#, 2
	note B_, 2
	note G#, 2
	note E_, 2
	octave 3
	note C#, 2
	octave 2
	note G#, 6
	duty_cycle 0
	volume_envelope 8, 1
	octave 4
	note F#, 2
	note F_, 2
	octave 5
	note F#, 2
	octave 4
	note F#, 6
	note F#, 2
	note F_, 2
	octave 5
	note F#, 2
	octave 4
	note F#, 2
	note F#, 2
	octave 5
	note F#, 2
	octave 4
	note F#, 2
	octave 5
	note F#, 2
	duty_cycle 1
	volume_envelope 10, 1
	octave 2
	note D_, 4
	octave 3
	note C#, 2
	note D_, 2
	octave 2
	note A#, 2
	note B_, 2
	note E_, 2
	note F#, 2
	note D_, 2
	note D_, 2
	octave 3
	note C#, 2
	note D_, 2
	octave 2
	note E_, 2
	note E_, 2
	note F#, 2
	note E_, 6
	duty_cycle 0
	volume_envelope 8, 1
	octave 4
	note E_, 2
	note D#, 2
	octave 5
	note E_, 2
	octave 4
	note E_, 6
	note E_, 2
	note D#, 2
	octave 5
	note E_, 2
	octave 4
	note E_, 2
	note E_, 2
	octave 5
	note E_, 2
	octave 4
	note E_, 2
	octave 5
	note E_, 2
	duty_cycle 1
	volume_envelope 10, 3
	octave 3
	note C#, 2
	note __, 2
	note C#, 2
	note __, 2
	note F#, 14
	octave 4
	note D_, 10
	note E_, 12
	note C#, 4
	octave 3
	note G#, 16
	octave 2
	note B_, 2
	note __, 4
	note B_, 2
	octave 3
	note E_, 14
	octave 4
	note C#, 10
	note E_, 16
	volume_envelope 10, 2
	octave 3
	note_type 15, 10, 2
	note A#, 8
	note_type 12, 10, 2
	note A_, 3
	note A_, 3
	note A_, 6
	note A_, 4
	note B_, 3
	note B_, 3
	note B_, 6
	note B_, 4
	octave 4
	note C#, 3
	note C#, 2
	note C#, 1
	octave 3
	note B_, 2
	note A_, 2
	note B_, 1
	octave 4
	note C#, 3
	duty_cycle 2
	volume_envelope 9, 1
	octave 5
	note D_, 1
	octave 4
	note A_, 1
	note F#, 1
	note A_, 1
	octave 5
	note D_, 1
	octave 4
	note A_, 1
	octave 5
	note D_, 1
	note F#, 1
	note E_, 1
	octave 4
	note B_, 1
	note G#, 1
	octave 5
	note D_, 1
	octave 3
	note_type 6, 9, 1
	note D_, 1
	note G#, 1
	octave 4
	note C_, 1
	note E_, 1
	note G#, 1
	octave 5
	note C_, 1
	note E_, 1
	note G#, 1
	duty_cycle 1
	volume_envelope 10, 1
	note C#, 2
	note __, 2
	volume_envelope 6, 1
	note C#, 2
	note __, 2
	note C#, 2
	note __, 2
	octave 4
	note B_, 2
	note __, 2
	note B_, 2
	note __, 2
	note B_, 2
	note __, 2
	note B_, 2
	note __, 2
	note B_, 2
	note __, 2
	octave 5
	note C#, 2
	note __, 2
	volume_envelope 10, 1
	note C#, 2
	note __, 2
	volume_envelope 6, 1
	note C#, 2
	note __, 2
	octave 4
	note B_, 2
	note __, 2
	volume_envelope 10, 1
	note B_, 2
	note __, 2
	volume_envelope 6, 1
	note B_, 2
	note __, 2
	volume_envelope 10, 1
	note B_, 2
	note __, 2
	volume_envelope 6, 1
	octave 5
	note C#, 2
	note __, 2
	volume_envelope 10, 1
	octave 4
	note B_, 2
	note __, 2
	volume_envelope 6, 1
	note B_, 2
	note __, 2
	note B_, 2
	note __, 2
	note A_, 2
	note __, 2
	note A_, 2
	note __, 2
	note A_, 2
	note __, 2
	note A_, 2
	note __, 2
	note B_, 2
	note __, 2
	volume_envelope 10, 1
	note B_, 2
	note __, 2
	volume_envelope 6, 1
	note B_, 2
	note __, 2
	note B_, 2
	note __, 2
	note A_, 2
	note __, 2
	note A_, 2
	note __, 2
	note A_, 2
	note __, 2
	note B_, 2
	note __, 2
	octave 5
	note C#, 2
	note __, 2
	volume_envelope 10, 1
	note E_, 2
	note __, 2
	volume_envelope 6, 1
	note E_, 2
	note __, 2
	note E_, 2
	note __, 2
	note D_, 2
	note __, 2
	note D_, 2
	note __, 2
	note D_, 2
	note __, 2
	octave 4
	note A_, 2
	note __, 2
	note A_, 2
	note __, 2
	note B_, 2
	note __, 2
	volume_envelope 10, 1
	note B_, 2
	note __, 2
	volume_envelope 6, 1
	note B_, 2
	note __, 2
	octave 5
	note C#, 2
	note __, 2
	volume_envelope 10, 1
	note C#, 2
	note __, 2
	volume_envelope 6, 1
	note C#, 2
	note __, 2
	volume_envelope 10, 1
	note D_, 2
	note __, 2
	volume_envelope 6, 1
	note D_, 2
	note __, 2
	volume_envelope 10, 1
	note E_, 2
	note __, 2
	volume_envelope 6, 1
	note E_, 2
	note __, 2
	note E_, 2
	note __, 2
	note D_, 2
	note __, 2
	note D_, 2
	note __, 2
	note D_, 2
	note __, 2
	octave 4
	note A_, 2
	note __, 2
	note A_, 2
	note __, 2
	note A#, 2
	note __, 2
	volume_envelope 10, 1
	note A#, 2
	note __, 2
	volume_envelope 6, 1
	note A#, 2
	note __, 2
	note B_, 2
	note __, 2
	volume_envelope 10, 1
	note B_, 2
	note __, 2
	volume_envelope 6, 1
	note B_, 2
	note __, 2
	volume_envelope 10, 1
	octave 5
	note C#, 2
	note __, 2
	volume_envelope 6, 1
	note D_, 2
	note __, 2
	volume_envelope 10, 1
	note C#, 2
	note __, 2
	volume_envelope 6, 1
	note C#, 2
	note __, 2
	volume_envelope 9, 7
	octave 3
	note_type 12, 9, 7
	note A_, 12
	octave 4
	note F#, 6
	note E_, 4
	note D_, 4
	note E_, 2
	note C#, 6
	octave 3
	note B_, 6
	note A_, 4
	octave 4
	note F#, 6
	note G_, 4
	note F#, 2
	note E_, 2
	note C#, 2
	octave 3
	note A_, 16
	octave 4
	note A_, 6
	note F#, 4
	note C#, 4
	note F#, 2
	note D_, 4
	note C_, 4
	octave 3
	note B_, 4
	note A_, 4
	octave 4
	note E_, 4
	note D_, 4
	note C#, 4
	octave 3
	note B_, 4
	note B_, 6
	note A_, 16
	note __, 10
	duty_cycle 2
	volume_envelope 8, 7
	octave 2
	note A_, 6
	note G#, 4
	note F#, 2
	note E_, 2
	note F#, 2
	note B_, 4
	octave 3
	note E_, 4
	note B_, 6
	note A_, 1
	note G#, 1
	jumpchannel Music_SunyshoreCityDPPt_Ch1_loop

Music_SunyshoreCityDPPt_Ch2:
	tone $0001
	volume_envelope 12, 1
	note_type 12, 12, 1
	note __, 2
	duty_cycle 1
	octave 5
	note G#, 2
	volume_envelope 7, 1
	note G#, 2
	note G#, 2
	note G#, 2
	note G#, 2
	note G#, 2
	note G#, 2
	note G#, 2
	note G#, 2
	volume_envelope 12, 1
	note G#, 2
	volume_envelope 7, 1
	note G#, 2
	note G#, 2
	volume_envelope 12, 1
	note G#, 2
	volume_envelope 7, 1
	note G#, 2
	volume_envelope 12, 1
	note G#, 2
	volume_envelope 7, 1
	note G#, 2
	volume_envelope 12, 1
	note G#, 2
	volume_envelope 7, 1
	note G#, 2
	note G#, 2
	note G#, 2
	note G#, 2
	note G#, 2
	note G#, 2
	note G#, 2
	note G#, 2
	volume_envelope 12, 1
	note G#, 2
	volume_envelope 7, 1
	note G#, 2
	note G#, 2
	volume_envelope 12, 1
	note G#, 2
	volume_envelope 7, 1
	note G#, 2
	volume_envelope 12, 1
	note F#, 4
	volume_envelope 12, 6
	vibrato $08, $23
	octave 4
	note_type 6, 12, 6
	note C_, 1
	note C#, 11
	note D_, 8
	note E_, 8
	octave 3
	note_type 12, 12, 6
	note B_, 16
	note A_, 1
	note B_, 1
Music_SunyshoreCityDPPt_Ch2_loop:
	octave 4
	note C#, 6
	note D_, 4
	note C_, 1
	note C#, 5
	octave 3
	note_type 6, 12, 6
	note A#, 1
	note B_, 7
	note E_, 4
	octave 4
	note E_, 8
	note F_, 1
	note F#, 7
	note E_, 4
	octave 3
	note B_, 8
	note E_, 4
	note F#, 8
	note G#, 8
	note B_, 4
	note B_, 4
	note A_, 4
	note G#, 4
	note A_, 2
	note G#, 2
	note __, 4
	note F#, 12
	note F#, 8
	note G#, 8
	note A_, 4
	octave 4
	note C#, 8
	octave 3
	note B_, 8
	note A_, 4
	note G_, 2
	note G#, 2
	note E_, 8
	note B_, 1
	octave 4
	note C_, 11
	duty_cycle 2
	note C_, 1
	note C#, 7
	octave 3
	note E_, 4
	octave 4
	note D_, 2
	octave 3
	note E_, 4
	note E_, 2
	octave 4
	note E_, 8
	octave 3
	note_type 12, 12, 6
	note B_, 16
	note A_, 1
	note B_, 1
	octave 4
	note C#, 6
	note D_, 4
	note_type 6, 12, 6
	note C_, 1
	note C#, 11
	octave 3
	note A#, 1
	note B_, 7
	note E_, 4
	octave 4
	note E_, 8
	note F_, 1
	note F#, 7
	note G#, 2
	note F#, 2
	note E_, 8
	octave 3
	note E_, 4
	note F#, 8
	octave 4
	note E_, 8
	note D_, 4
	note C#, 4
	octave 3
	note B_, 4
	note A_, 2
	note __, 2
	note A_, 8
	note G#, 8
	note A_, 4
	note F#, 8
	note D_, 8
	note A_, 4
	octave 4
	note F#, 8
	note E_, 8
	note D_, 4
	note C#, 4
	octave 3
	note B_, 8
	octave 4
	note D_, 8
	duty_cycle 1
	note E_, 2
	note F_, 2
	note F#, 8
	octave 3
	note A_, 8
	note A_, 6
	octave 4
	note F#, 6
	note G#, 8
	note A_, 4
	note F#, 4
	note G#, 4
	note E_, 4
	note F#, 4
	note C#, 2
	note D_, 6
	note E_, 8
	octave 3
	note G#, 8
	note G#, 6
	octave 4
	note F#, 6
	note E_, 8
	note D_, 4
	note C#, 4
	octave 3
	note B_, 4
	octave 4
	note C#, 4
	octave 3
	note A#, 4
	note B_, 2
	octave 4
	note C#, 6
	duty_cycle 0
	volume_envelope 11, 8
	note D_, 4
	note C#, 4
	octave 3
	note B_, 4
	octave 4
	note D_, 12
	note C#, 4
	note D_, 4
	note E_, 4
	note D_, 4
	note C#, 4
	note E_, 12
	note D_, 2
	note E_, 6
	note F#, 4
	note E_, 4
	note D_, 2
	note F#, 6
	note B_, 4
	note A_, 4
	octave 5
	note D_, 2
	note C#, 6
	volume_envelope 12, 8
	octave 4
	note B_, 16
	octave 5
	note C_, 16
	volume_envelope 12, 2
	note C#, 4
	note __, 4
	duty_cycle 1
	volume_envelope 12, 7
	vibrato $00, $00
	octave 3
	note E_, 8
	note A_, 8
	octave 4
	note C#, 8
	note D_, 12
	note C#, 8
	octave 3
	note B_, 8
	octave 4
	note C#, 4
	octave 3
	note_type 12, 12, 7
	note A_, 16
	note_type 15, 12, 7
	note __, 16
	note_type 12, 12, 7
	note F#, 4
	note A_, 4
	octave 4
	note D_, 4
	note E_, 6
	note D_, 4
	octave 3
	note A_, 4
	octave 4
	note D_, 2
	octave 3
	note A_, 10
	note F_, 2
	note G_, 2
	note A_, 2
	note A#, 6
	note B_, 4
	note G#, 2
	note A_, 2
	note B_, 2
	octave 4
	note C#, 4
	duty_cycle 2
	volume_envelope 10, 7
	octave 3
	note E_, 4
	note A_, 4
	octave 4
	note C#, 4
	note D_, 6
	note C#, 4
	octave 3
	note B_, 4
	octave 4
	note C#, 2
	octave 3
	note A_, 16
	volume_envelope 12, 7
	note_type 15, 12, 7
	note __, 16
	note_type 12, 12, 7
	note F#, 4
	note A_, 4
	octave 4
	note D_, 4
	note E_, 6
	note D_, 4
	octave 3
	note A_, 4
	octave 4
	note D_, 2
	octave 3
	note_type 6, 12, 7
	note G#, 1
	note A_, 16
	note __, 3
	note F_, 4
	note G_, 4
	note A_, 4
	note B_, 16
	note __, 4
	note G_, 4
	note A_, 4
	note B_, 4
	octave 4
	note D_, 12
	note_type 12, 12, 7
	note C#, 16
	note __, 10
	duty_cycle 1
	vibrato $08, $23
	note_type 6, 12, 7
	note C_, 1
	note C#, 11
	note D_, 8
	note E_, 8
	octave 3
	note_type 12, 12, 7
	note B_, 16
	note A_, 1
	note B_, 1
	jumpchannel Music_SunyshoreCityDPPt_Ch2_loop

Music_SunyshoreCityDPPt_Ch3:
	volume_envelope 2, 5
	duty_cycle 1
	octave 2
	note_type 6, 2, 5
	note B_, 1
	note __, 1
	note B_, 1
	note __, 1
	octave 3
	note E_, 4
	note_type 12, 2, 5
	note __, 16
	note E_, 2
	note __, 2
	octave 2
	note B_, 2
	octave 3
	note E_, 2
	note __, 2
	note E_, 2
	note __, 2
	note E_, 2
	note __, 16
	note E_, 2
	note __, 2
	octave 2
	note B_, 2
	octave 3
	note E_, 2
	note __, 2
	octave 2
	note B_, 2
	volume_envelope 1, 0
	duty_cycle 0
	note F#, 1
	note G#, 1
	octave 1
	note A_, 2
	note __, 1
	octave 2
	note A_, 1
	note __, 1
	note A_, 1
	note E_, 1
	note C#, 1
	octave 1
	note A_, 1
	octave 2
	note E_, 1
	note __, 1
	octave 3
	note C#, 2
	note __, 1
	octave 2
	note A_, 1
	note F#, 1
	note E_, 2
	note __, 1
	octave 3
	note E_, 1
	note __, 1
	note E_, 1
	octave 2
	note B_, 1
	note G#, 1
	octave 3
	note E_, 1
	octave 2
	note B_, 1
	note __, 1
	note G#, 1
	note E_, 1
	note __, 1
	note D#, 1
	note __, 1
Music_SunyshoreCityDPPt_Ch3_loop:
	note D_, 1
	note __, 1
	note D_, 3
	note __, 1
	octave 3
	note C#, 1
	note D_, 1
	octave 2
	note D_, 1
	note A_, 1
	note __, 1
	octave 3
	note D_, 1
	note __, 1
	octave 2
	note A_, 1
	octave 3
	note C#, 1
	note __, 1
	octave 2
	note D_, 1
	note __, 1
	note D_, 3
	note __, 1
	octave 1
	note B_, 1
	octave 2
	note C#, 1
	note D_, 1
	octave 3
	note D_, 1
	octave 2
	note D_, 1
	octave 3
	note D_, 1
	octave 2
	note B_, 1
	note __, 1
	note G#, 1
	note D_, 1
	note C#, 2
	note __, 1
	note C#, 2
	note __, 1
	octave 1
	note B_, 1
	octave 2
	note C_, 1
	octave 3
	note C#, 1
	octave 2
	note C_, 1
	note __, 1
	octave 3
	note C#, 1
	octave 2
	note C#, 1
	octave 3
	note C#, 1
	octave 2
	note G#, 1
	note __, 1
	note F#, 1
	note __, 1
	note F#, 1
	note __, 1
	note G#, 1
	note __, 1
	note G#, 1
	note __, 1
	note A_, 1
	note __, 1
	note A_, 1
	note __, 1
	note A#, 1
	note __, 1
	note A#, 1
	note __, 1
	note B_, 1
	note __, 1
	octave 1
	note B_, 1
	note __, 1
	note B_, 1
	note __, 1
	note A_, 1
	note A#, 1
	note B_, 2
	note __, 1
	note B_, 1
	octave 2
	note B_, 1
	note __, 1
	note F#, 1
	note __, 1
	note E_, 1
	note __, 1
	note E_, 3
	note __, 1
	note D_, 1
	note E_, 1
	note E_, 1
	note __, 1
	note B_, 1
	octave 3
	note C_, 1
	octave 2
	note G_, 1
	note G#, 1
	note E_, 1
	note __, 1
	octave 1
	note A_, 2
	note __, 1
	octave 2
	note A_, 1
	note __, 1
	note A_, 1
	note E_, 1
	note C#, 1
	octave 1
	note A_, 1
	octave 2
	note E_, 1
	note __, 1
	octave 3
	note C#, 2
	note __, 1
	octave 2
	note A_, 1
	note F#, 1
	note E_, 2
	note __, 1
	octave 3
	note E_, 1
	note __, 1
	note E_, 1
	octave 2
	note B_, 1
	note G#, 1
	octave 3
	note E_, 1
	octave 2
	note B_, 1
	note __, 1
	note G#, 1
	note E_, 1
	note __, 1
	note D#, 1
	note __, 1
	note D_, 1
	note __, 1
	note D_, 3
	note __, 1
	octave 3
	note C#, 1
	note D_, 1
	octave 2
	note D_, 1
	note A_, 1
	note __, 1
	octave 3
	note D_, 1
	note __, 1
	octave 2
	note A_, 1
	octave 3
	note C#, 1
	note __, 1
	octave 2
	note D_, 1
	note __, 1
	note D_, 3
	note __, 1
	octave 1
	note B_, 1
	octave 2
	note C#, 1
	note D_, 1
	octave 3
	note D_, 1
	octave 2
	note D_, 1
	octave 3
	note D_, 1
	octave 2
	note B_, 1
	note __, 1
	note G#, 1
	note D_, 1
	note C#, 2
	note __, 1
	note C#, 2
	note __, 1
	octave 1
	note B_, 1
	octave 2
	note C_, 1
	octave 3
	note C#, 1
	octave 2
	note C_, 1
	note __, 1
	octave 3
	note C#, 1
	octave 2
	note C#, 1
	octave 3
	note C#, 1
	octave 2
	note G#, 1
	note __, 1
	note F#, 1
	note __, 1
	note F#, 1
	note __, 1
	note G#, 1
	note __, 1
	note G#, 1
	note __, 1
	note A_, 1
	note __, 1
	note A_, 1
	note __, 1
	note A#, 1
	note __, 1
	note A#, 1
	note __, 1
	note B_, 1
	note __, 1
	octave 1
	note B_, 1
	note __, 1
	note B_, 1
	note __, 1
	note A_, 1
	note A#, 1
	note B_, 2
	note __, 1
	note B_, 1
	octave 2
	note A#, 1
	note B_, 1
	note F#, 1
	note __, 1
	note E_, 1
	note __, 1
	note E_, 3
	note __, 1
	note D_, 1
	note D#, 1
	note E_, 1
	note __, 1
	octave 3
	note C#, 1
	note D_, 1
	octave 2
	note A_, 1
	note B_, 1
	note D#, 1
	note E_, 1
	note D_, 1
	note __, 1
	note D_, 1
	note __, 1
	note F#, 6
	note __, 1
	note A_, 4
	note __, 1
	note D_, 5
	note __, 1
	octave 3
	note D#, 1
	note E_, 1
	octave 2
	note E_, 2
	note __, 1
	note E_, 2
	note __, 1
	note D#, 1
	note E_, 1
	note C#, 2
	note __, 1
	note C#, 1
	note G#, 6
	note __, 1
	note B_, 4
	note __, 1
	note F#, 5
	note __, 1
	octave 3
	note F_, 1
	note F#, 1
	octave 2
	note F#, 2
	note __, 1
	note F#, 2
	note __, 1
	note F_, 1
	note F#, 1
	octave 1
	note B_, 2
	note __, 1
	note B_, 1
	octave 2
	note A#, 1
	note B_, 1
	note __, 1
	octave 1
	note B_, 1
	note __, 1
	octave 2
	note A#, 1
	note B_, 1
	octave 1
	note B_, 1
	octave 2
	note B_, 1
	note __, 1
	note A#, 1
	note __, 1
	note C#, 2
	note __, 1
	note C#, 1
	octave 3
	note C_, 1
	note C#, 1
	note __, 1
	octave 2
	note C#, 1
	note __, 1
	octave 3
	note C_, 1
	note C#, 1
	octave 2
	note C#, 1
	octave 3
	note C#, 1
	note __, 1
	note C_, 1
	note C#, 1
	octave 2
	note D_, 2
	note __, 1
	note D_, 1
	octave 3
	note C#, 1
	note D_, 1
	note __, 1
	octave 2
	note D_, 1
	note __, 1
	octave 3
	note C#, 1
	note D_, 1
	octave 2
	note D_, 1
	octave 3
	note D_, 1
	note __, 1
	note D_, 1
	note __, 1
	note E_, 1
	note E_, 1
	octave 2
	note E_, 1
	note __, 1
	note E_, 1
	note __, 1
	octave 3
	note E_, 1
	note E_, 1
	octave 2
	note E_, 1
	note __, 1
	note E_, 1
	note __, 1
	octave 3
	note D_, 1
	note E_, 1
	octave 2
	note A_, 1
	note E_, 1
	volume_envelope 1, 2
	duty_cycle 2
	note A_, 2
	note __, 16
	note A_, 2
	note __, 2
	note E_, 2
	note A_, 2
	note __, 2
	note A_, 2
	note __, 2
	note G_, 2
	note __, 14
	note G_, 2
	note __, 4
	note G_, 2
	note __, 2
	note G_, 2
	note __, 4
	note F#, 2
	note __, 16
	note F#, 2
	note __, 2
	note D_, 2
	note F#, 2
	note __, 2
	note F#, 2
	note __, 2
	note F_, 2
	note __, 16
	note E_, 2
	note __, 2
	octave 1
	note B_, 2
	octave 2
	note E_, 2
	note __, 2
	note B_, 2
	note __, 2
	note A_, 2
	note __, 16
	note A_, 2
	note __, 2
	note E_, 2
	note A_, 2
	note __, 2
	note A_, 2
	note __, 2
	note G_, 2
	note __, 14
	note G_, 2
	note __, 4
	note G_, 2
	note __, 2
	note G_, 2
	note __, 4
	note F#, 2
	note __, 16
	note F#, 2
	note __, 2
	note D_, 2
	note F#, 2
	note __, 2
	note F#, 2
	note __, 2
	note F_, 2
	note __, 14
	note G_, 2
	note __, 12
	octave 3
	note E_, 1
	note E_, 1
	octave 2
	note A_, 2
	note __, 16
	note A_, 2
	note __, 2
	note E_, 2
	note A_, 2
	note __, 2
	octave 3
	note E_, 2
	note __, 2
	volume_envelope 1, 0
	duty_cycle 0
	octave 1
	note A_, 2
	note __, 1
	octave 2
	note A_, 1
	note __, 1
	note A_, 1
	note E_, 1
	note C#, 1
	octave 1
	note A_, 1
	octave 2
	note E_, 1
	note __, 1
	octave 3
	note C#, 2
	note __, 1
	octave 2
	note A_, 1
	note F#, 1
	note E_, 2
	note __, 1
	octave 3
	note E_, 1
	note __, 1
	note E_, 1
	octave 2
	note B_, 1
	note G#, 1
	octave 3
	note E_, 1
	octave 2
	note B_, 1
	note __, 1
	note G#, 1
	note E_, 1
	note __, 1
	note D#, 2
	jumpchannel Music_SunyshoreCityDPPt_Ch3_loop

Music_SunyshoreCityDPPt_Ch4:
	toggle_noise 3
	note_type 12
	note D#, 1
	note D#, 1
	note D#, 4
	note G_, 4
	note G_, 4
	note G_, 4
	note G_, 2
	note D#, 2
	note G_, 2
	note D#, 2
	note D#, 4
	note D#, 4
	note D#, 4
	note G_, 4
	note G_, 4
	note G_, 4
	note G_, 2
	note D#, 2
	note G_, 2
	note D#, 2
	note D#, 4
	note D#, 4
	note C_, 2
	note G_, 2
	note C_, 1
	note G_, 2
	note C_, 2
	note C_, 1
	note G_, 2
	note C_, 2
	note G_, 2
	note G_, 2
	note G_, 2
	note C_, 1
	note G_, 2
	note C_, 2
	note C_, 1
	note G_, 2
	note C_, 2
	note G_, 2
Music_SunyshoreCityDPPt_Ch4_loop:
	note G_, 2
	note G_, 2
	note C_, 1
	note G_, 2
	note C_, 2
	note C_, 1
	note G_, 2
	note C_, 2
	note G_, 2
	note G_, 2
	note G_, 2
	note C_, 1
	note G_, 2
	note C_, 2
	note C_, 1
	note G_, 2
	note C_, 2
	note G_, 2
	note G_, 2
	note G_, 2
	note C_, 1
	note G_, 2
	note C_, 2
	note C_, 1
	note G_, 2
	note C_, 2
	note G_, 2
	note G_, 2
	note G_, 2
	note C_, 1
	note G_, 2
	note C_, 2
	note C_, 1
	note G_, 2
	note C_, 2
	note G_, 2
	note G_, 2
	note G_, 2
	note C_, 1
	note G_, 2
	note C_, 2
	note C_, 1
	note G_, 2
	note C_, 2
	note G_, 2
	note G_, 2
	note G_, 2
	note C_, 1
	note G_, 2
	note C_, 2
	note C_, 1
	note G_, 2
	note C_, 2
	note G_, 2
	note E_, 2
	note E_, 2
	note C_, 1
	note E_, 3
	note E_, 2
	note C_, 2
	note E_, 2
	note E_, 2
	note E_, 2
	note E_, 2
	note C_, 1
	note E_, 5
	note E_, 2
	note C_, 2
	note E_, 2
	note E_, 2
	note E_, 2
	note C_, 1
	note E_, 3
	note E_, 2
	note C_, 2
	note E_, 2
	note E_, 2
	note E_, 2
	note E_, 2
	note C_, 1
	note E_, 5
	note E_, 2
	note C_, 2
	note E_, 2
	note E_, 2
	note E_, 2
	note C_, 1
	note E_, 3
	note E_, 2
	note C_, 2
	note E_, 2
	note E_, 2
	note E_, 2
	note E_, 2
	note C_, 1
	note E_, 5
	note E_, 2
	note C_, 2
	note E_, 2
	note E_, 2
	note E_, 2
	note C_, 1
	note E_, 3
	note E_, 2
	note C_, 2
	note E_, 2
	note E_, 2
	note E_, 2
	note E_, 2
	note C_, 1
	note E_, 5
	note E_, 2
	note C_, 2
	note E_, 2
	note C_, 2
	note C_, 2
	note B_, 4
	note G_, 4
	note G_, 4
	note G_, 4
	note G_, 4
	note G_, 4
	note G_, 4
	note C_, 3
	note C_, 1
	note B_, 4
	note G_, 4
	note G_, 4
	note G_, 4
	note G_, 4
	note G_, 4
	note G_, 4
	note G_, 2
	note G_, 2
	note G_, 2
	note G_, 2
	note G_, 2
	note G_, 2
	note G_, 2
	note G_, 2
	note G_, 2
	note G_, 2
	note G_, 2
	note G_, 2
	note G_, 2
	note G_, 2
	note G_, 2
	note G_, 2
	note G_, 2
	note G_, 2
	note G_, 2
	note G_, 2
	note G_, 2
	note G_, 2
	note G_, 2
	note G_, 2
	note B_, 2
	note G_, 1
	note __, 1
	note G_, 1
	note __, 1
	note B_, 2
	note G_, 1
	note __, 3
	note B_, 2
	note G_, 1
	note __, 1
	note B_, 2
	note G_, 1
	note __, 1
	note G_, 1
	note __, 1
	note G_, 1
	note __, 1
	note G_, 1
	note __, 1
	note G_, 1
	note __, 1
	note G_, 1
	note __, 1
	note G_, 1
	note __, 1
	note B_, 2
	note D#, 2
	note G_, 1
	note __, 1
	note G_, 1
	note __, 1
	note D#, 2
	note G_, 1
	note __, 1
	note D#, 2
	note G_, 1
	note __, 1
	note D#, 2
	note G_, 1
	note __, 1
	note G_, 1
	note __, 1
	note G_, 1
	note __, 1
	note G_, 1
	note __, 1
	note G_, 1
	note __, 1
	note G_, 1
	note __, 1
	note D#, 1
	note D#, 1
	note D#, 2
	note G_, 1
	note __, 1
	note G_, 1
	note __, 1
	note D#, 2
	note G_, 1
	note __, 1
	note D#, 2
	note G_, 1
	note __, 1
	note D#, 1
	note D#, 1
	note D#, 2
	note G_, 1
	note __, 1
	note G_, 1
	note __, 1
	note G_, 1
	note __, 1
	note G_, 1
	note __, 1
	note G_, 1
	note __, 1
	note G_, 1
	note __, 1
	note G_, 1
	note __, 1
	note B_, 2
	note D#, 2
	note G_, 1
	note __, 1
	note G_, 1
	note __, 1
	note D#, 2
	note G_, 1
	note __, 1
	note D#, 2
	note D#, 1
	note D#, 1
	note D#, 2
	note G_, 1
	note __, 1
	note G_, 1
	note __, 1
	note G_, 1
	note __, 1
	note G_, 1
	note __, 1
	note G_, 1
	note __, 1
	note G_, 1
	note __, 1
	note G_, 1
	note __, 1
	note B_, 2
	note D#, 2
	note G_, 1
	note __, 1
	note B_, 2
	note D#, 2
	note B_, 2
	note D#, 2
	note B_, 2
	note D#, 6
	note D#, 2
	note C_, 6
	note D#, 4
	note D#, 4
	note D#, 2
	note C_, 6
	note D#, 2
	note D#, 6
	note D#, 2
	note C_, 6
	note D#, 1
	note D#, 1
	note D#, 2
	note D#, 4
	note D#, 2
	note_type 6
	note C_, 1
	note C_, 3
	note C_, 8
	note D#, 4
	note D#, 12
	note D#, 2
	note D#, 2
	note C_, 12
	note D#, 8
	note D#, 8
	note D#, 4
	note C_, 8
	note D#, 4
	note C_, 4
	note D#, 12
	note D#, 4
	note C_, 12
	note D#, 2
	note D#, 2
	note D#, 4
	note C_, 8
	note D#, 4
	note C_, 1
	note C_, 3
	note C_, 8
	note D#, 4
	note D#, 8
	note D#, 8
	note C_, 4
	note D#, 8
	note C_, 8
	note D#, 12
	note D#, 16
	note C_, 4
	note G_, 4
	note C_, 2
	note G_, 4
	note C_, 4
	note C_, 2
	note G_, 4
	note C_, 4
	note G_, 4
	note G_, 4
	note G_, 4
	note C_, 2
	note G_, 4
	note C_, 4
	note C_, 2
	note G_, 4
	note C_, 4
	note G_, 4
	note_type 12
	jumpchannel Music_SunyshoreCityDPPt_Ch4_loop

