; Pokémon D/P/Pt - Route 205
; Demixed by FroggestSpirit
; https://github.com/froggestspirit/CrystalComplete/blob/master/audio/music/DPPt/sinnohtrainer.asm

Music_TrainerBattleDPPt:
	channel_count 4
	channel 1, Music_TrainerBattleDPPt_Ch1
	channel 2, Music_TrainerBattleDPPt_Ch2
	channel 3, Music_TrainerBattleDPPt_Ch3
	channel 4, Music_TrainerBattleDPPt_Ch4

Music_TrainerBattleDPPt_Ch1:
	volume 7, 7
	stereo_panning TRUE, TRUE
	tempo 105
	duty_cycle 3
	pitch_offset 2
	volume_envelope 11, 2
	vibrato 18, 1, 5
	octave 4
	note_type 12, 11, 2
	note E_, 2
	note D#, 1
	note D_, 1
	note D#, 2
	note D_, 1
	note C#, 1
	note D_, 2
	note C#, 1
	note C_, 1
	note C#, 2
	note C_, 1
	octave 3
	note B_, 1
	octave 4
	note C_, 2
	octave 3
	note B_, 1
	note A#, 1
	note B_, 2
	note A#, 1
	note A_, 1
	note A#, 2
	note A_, 1
	note G#, 1
	note A_, 2
	note G#, 1
	note G_, 1
	note C_, 6
	note C_, 6
	note C_, 4
	note C_, 8
	note C_, 2
	volume_envelope 11, 7
	note C#, 6
	volume_envelope 11, 2
	note C_, 6
	note C_, 6
	note C_, 4
	note C_, 8
	note C_, 2
	volume_envelope 11, 7
	note C#, 6
	volume_envelope 11, 2
	note G_, 6
	note G_, 6
	note G_, 4
	note G_, 8
	note G_, 2
	volume_envelope 11, 7
	note G#, 6
	volume_envelope 11, 2
	note G_, 6
	note G_, 6
	note G_, 4
	note G_, 8
	note G_, 2
	volume_envelope 11, 7
	note G#, 6
Music_TrainerBattleDPPt_Ch1_loop:
	volume_envelope 11, 4
	octave 2
	note G_, 6
	octave 3
	note C_, 6
	note G_, 4
	note G_, 4
	note F_, 4
	note E_, 4
	note C_, 2
	note D_, 2
	volume_envelope 11, 1
	note C_, 3
	note D_, 1
	volume_envelope 11, 7
	note E_, 8
	volume_envelope 11, 1
	note D_, 3
	note E_, 1
	volume_envelope 11, 4
	note F_, 4
	note G#, 4
	note G_, 4
	note F_, 4
	octave 2
	note G_, 6
	octave 3
	note C_, 6
	note G_, 4
	note G_, 4
	note F_, 4
	note E_, 4
	note C_, 2
	note D_, 2
	volume_envelope 11, 1
	note C_, 3
	note D_, 1
	volume_envelope 11, 7
	note E_, 8
	volume_envelope 11, 1
	note G_, 3
	note A_, 1
	volume_envelope 11, 4
	note A#, 8
	note A_, 4
	note A#, 4
	volume_envelope 11, 1
	octave 2
	note G_, 3
	note E_, 1
	volume_envelope 11, 4
	note E_, 4
	volume_envelope 11, 1
	octave 3
	note C_, 3
	octave 2
	note G_, 1
	volume_envelope 11, 4
	note G_, 4
	volume_envelope 11, 1
	octave 3
	note E_, 3
	note C_, 1
	volume_envelope 11, 7
	note C_, 12
	volume_envelope 11, 1
	octave 2
	note A#, 3
	note F_, 1
	volume_envelope 11, 4
	note F_, 4
	volume_envelope 11, 1
	octave 3
	note D_, 3
	octave 2
	note A#, 1
	volume_envelope 11, 4
	note A#, 4
	volume_envelope 11, 1
	octave 3
	note F_, 3
	note D_, 1
	volume_envelope 11, 7
	note D_, 12
	note G_, 8
	volume_envelope 11, 1
	note E_, 3
	note F_, 1
	volume_envelope 11, 4
	note E_, 4
	octave 4
	note C_, 8
	octave 3
	note A_, 2
	note G_, 2
	note F_, 2
	note G_, 2
	note A_, 2
	note B_, 2
	octave 4
	note C_, 2
	note D_, 2
	note C_, 2
	octave 3
	note B_, 2
	note A_, 2
	note G_, 2
	note F_, 2
	note E_, 2
	note D_, 2
	note E_, 2
	note F_, 2
	note G_, 2
	note A_, 2
	note B_, 2
	volume_envelope 11, 1
	octave 2
	note A#, 2
	note A#, 2
	note A#, 8
	note A#, 3
	octave 3
	note C#, 1
	volume_envelope 11, 4
	note D_, 4
	duty_cycle 0
	volume_envelope 11, 1
	note F_, 1
	note A_, 1
	note A#, 1
	octave 4
	note C_, 1
	note D_, 1
	note C_, 1
	octave 3
	note A#, 1
	note A_, 1
	note A#, 1
	note A_, 1
	note G_, 1
	note F_, 1
	duty_cycle 3
	note C_, 2
	note C_, 2
	note C_, 8
	note C_, 3
	note D_, 1
	volume_envelope 11, 4
	note E_, 4
	duty_cycle 0
	volume_envelope 11, 1
	note G_, 1
	note B_, 1
	octave 4
	note C_, 1
	note D_, 1
	note E_, 1
	note D_, 1
	note C_, 1
	octave 3
	note B_, 1
	octave 4
	note C_, 1
	octave 3
	note B_, 1
	note A_, 1
	note G_, 1
	duty_cycle 3
	note C#, 2
	note C#, 2
	note C#, 8
	note C#, 3
	note D#, 1
	volume_envelope 11, 4
	note F_, 4
	duty_cycle 0
	volume_envelope 11, 1
	note G#, 1
	octave 4
	note C_, 1
	note C#, 1
	note D#, 1
	note F_, 1
	note D#, 1
	note C#, 1
	note C_, 1
	note C#, 1
	note C_, 1
	octave 3
	note A#, 1
	note G#, 1
	duty_cycle 3
	note D#, 2
	note D#, 2
	note D#, 8
	note D#, 3
	note F_, 1
	volume_envelope 11, 4
	note G_, 4
	duty_cycle 0
	volume_envelope 11, 1
	note A#, 1
	octave 4
	note D_, 1
	note D#, 1
	note F_, 1
	note G_, 1
	note F_, 1
	note D#, 1
	note D_, 1
	note D#, 1
	note D_, 1
	note C_, 1
	octave 3
	note A#, 1
	duty_cycle 3
	volume_envelope 11, 4
	octave 4
	note C_, 16
	rest 8
	octave 3
	note_type 8, 11, 4
	note A#, 4
	octave 4
	note C_, 4
	octave 3
	note A#, 4
	note_type 12, 11, 4
	note A_, 16
	note F_, 16
	volume_envelope 11, 7
	note C_, 16
	octave 2
	note G_, 2
	note C_, 2
	note C_, 2
	note G_, 2
	note C_, 2
	note C_, 2
	note G_, 2
	note C_, 2
	octave 3
	note C#, 16
	octave 2
	note G#, 2
	note C#, 2
	note C#, 2
	note G#, 2
	note C#, 2
	note C#, 2
	note G#, 2
	note C#, 2
	note A#, 16
	note F_, 2
	octave 1
	note A#, 2
	note A#, 2
	octave 2
	note F_, 2
	octave 1
	note A#, 2
	note A#, 2
	octave 2
	note F_, 2
	octave 1
	note A#, 2
	octave 3
	note C#, 16
	octave 2
	note G#, 2
	note C#, 2
	note C#, 2
	note G#, 2
	note C#, 2
	note C#, 2
	note G#, 2
	note C#, 2
	octave 3
	note C_, 16
	octave 2
	note G_, 2
	note C_, 2
	note C_, 2
	note G_, 2
	note C_, 2
	note C_, 2
	note G_, 2
	note C_, 2
	octave 3
	note C#, 16
	octave 2
	note G#, 2
	note C#, 2
	note C#, 2
	note G#, 2
	note C#, 2
	note C#, 2
	note G#, 2
	note C#, 2
	octave 3
	note D#, 16
	octave 2
	note A#, 2
	note D#, 2
	note D#, 2
	note A#, 2
	note D#, 2
	note D#, 2
	note A#, 2
	note D#, 2
	octave 3
	note F#, 16
	note C#, 2
	octave 2
	note F#, 2
	note F#, 2
	octave 3
	note C#, 2
	octave 2
	note F#, 2
	note F#, 2
	octave 3
	note C#, 2
	octave 2
	note F#, 2
	octave 3
	note F_, 6
	note F#, 4
	note F_, 2
	note D#, 2
	note F#, 2
	note F_, 6
	note F#, 4
	note F_, 2
	note D#, 2
	note F#, 2
	note F_, 6
	note F#, 4
	note F_, 2
	note D#, 2
	note F#, 2
	note F_, 6
	note F#, 4
	note F_, 2
	note D#, 2
	note F#, 2
	note F_, 6
	note F#, 4
	note F_, 2
	note D#, 2
	note F#, 2
	note F_, 6
	note F#, 4
	note F_, 2
	note D#, 2
	note F#, 2
	note F_, 6
	note F#, 4
	note F_, 2
	note D#, 2
	note F#, 2
	note F_, 6
	note F#, 4
	note F_, 2
	note D#, 2
	note F#, 2
	note F_, 6
	note F#, 4
	note F_, 2
	note D#, 2
	note F#, 2
	note F_, 6
	note F#, 4
	note F_, 2
	note D#, 2
	note F#, 2
	note F_, 6
	note F#, 4
	note F_, 2
	note D#, 2
	note F#, 2
	note F_, 2
	note F#, 2
	note G#, 2
	note A#, 2
	octave 4
	note C_, 2
	octave 3
	note F_, 2
	note F#, 2
	note D#, 2
	volume_envelope 11, 1
	octave 2
	note C_, 2
	note F_, 2
	note G#, 2
	note G_, 2
	note C_, 2
	note G_, 2
	note C#, 2
	note F_, 2
	note C_, 2
	note F_, 2
	note G#, 2
	note G_, 2
	note C_, 2
	note G_, 2
	note C#, 2
	note F_, 2
	note C_, 2
	note F_, 2
	note G#, 2
	note G_, 2
	note C_, 2
	note G_, 2
	note C#, 2
	note F_, 2
	note C_, 2
	note F_, 2
	note G#, 2
	note G_, 2
	note C_, 2
	note G_, 2
	note C#, 2
	note F_, 2
	volume_envelope 11, 2
	octave 3
	note C_, 2
	note F_, 2
	note G#, 2
	note G_, 2
	note C_, 2
	note G_, 2
	note C#, 2
	note F_, 2
	note C_, 2
	note F_, 2
	note G#, 2
	note G_, 2
	note C_, 2
	note G_, 2
	note C#, 2
	note F_, 2
	note C_, 2
	note F_, 2
	note G#, 2
	note G_, 2
	note C_, 2
	note G_, 2
	note C#, 2
	note F_, 2
	note C_, 2
	note F_, 2
	note G#, 2
	note G_, 2
	note C_, 2
	note G_, 2
	note C#, 2
	note F_, 2
	sound_jump Music_TrainerBattleDPPt_Ch1_loop

Music_TrainerBattleDPPt_Ch2:
	duty_cycle 3
	pitch_offset 1
	volume_envelope 12, 2
	vibrato 8, 3, 6
	octave 5
	note_type 12, 12, 2
	note C_, 2
	octave 4
	note B_, 1
	octave 5
	note C_, 1
	note C#, 4
	note C#, 2
	note C_, 1
	note C#, 1
	note D_, 4
	note D#, 2
	note D_, 1
	note D#, 1
	note E_, 4
	note E_, 2
	note D#, 1
	note E_, 1
	note F_, 4
	octave 4
	note C_, 6
	note C_, 6
	note C_, 4
	note C_, 4
	octave 3
	note G_, 4
	octave 4
	note C_, 2
	note C#, 2
	octave 3
	note A#, 2
	octave 4
	note C#, 2
	note C_, 6
	note C_, 6
	note C_, 4
	note C_, 4
	octave 3
	note G_, 4
	octave 4
	note C_, 2
	note C#, 2
	note D#, 2
	note E_, 2
	note G_, 6
	note G_, 6
	note G_, 4
	note G_, 4
	note C_, 4
	note G_, 2
	note G#, 2
	note F_, 2
	note G#, 2
	note G_, 6
	note G_, 6
	note G_, 4
	note G_, 4
	note C_, 4
	note G_, 2
	note G#, 2
	note A#, 2
	note B_, 2
Music_TrainerBattleDPPt_Ch2_loop:
	volume_envelope 12, 7
	octave 3
	note C_, 6
	note G_, 6
	octave 4
	note C_, 4
	octave 3
	note A#, 4
	note G#, 4
	note G_, 4
	note F_, 4
	volume_envelope 12, 1
	note E_, 3
	note F_, 1
	volume_envelope 12, 7
	note G_, 8
	octave 4
	note D_, 4
	octave 3
	note A#, 16
	note C_, 6
	note G_, 6
	octave 4
	note C_, 4
	octave 3
	note A#, 4
	note G#, 4
	note G_, 4
	note F_, 4
	volume_envelope 12, 1
	note E_, 3
	note F_, 1
	volume_envelope 12, 7
	note G_, 8
	volume_envelope 12, 1
	octave 4
	note C_, 3
	note D_, 1
	volume_envelope 12, 7
	note E_, 8
	note D_, 8
	volume_envelope 12, 1
	octave 3
	note E_, 3
	note C_, 1
	volume_envelope 12, 4
	note C_, 4
	volume_envelope 12, 1
	note G_, 3
	note E_, 1
	volume_envelope 12, 4
	note E_, 4
	volume_envelope 12, 1
	octave 4
	note C_, 3
	octave 3
	note G_, 1
	volume_envelope 12, 4
	note G_, 12
	volume_envelope 12, 1
	note F_, 3
	note D_, 1
	volume_envelope 12, 4
	note D_, 4
	volume_envelope 12, 1
	note A#, 3
	note F_, 1
	volume_envelope 12, 4
	note F_, 4
	volume_envelope 12, 1
	octave 4
	note D_, 3
	octave 3
	note A#, 1
	volume_envelope 12, 7
	note A#, 8
	note B_, 4
	octave 4
	note C_, 12
	octave 3
	note G_, 4
	octave 4
	note E_, 12
	note C_, 4
	note G_, 12
	note F_, 3
	note D#, 1
	note E_, 16
	duty_cycle 2
	note G_, 8
	note F_, 2
	note E_, 2
	note D_, 2
	note C_, 2
	note D_, 16
	note E_, 8
	note G_, 2
	note F_, 2
	note E_, 2
	note D_, 2
	note E_, 16
	note_type 8, 12, 7
	note F_, 4
	note E_, 4
	note F_, 4
	note G#, 3
	note G_, 3
	note F_, 3
	note D#, 3
	note G#, 3
	note G_, 3
	note F_, 3
	note D#, 3
	note F_, 3
	note G_, 3
	note G#, 3
	note A#, 3
	note G_, 3
	note G#, 3
	note A#, 3
	octave 5
	note C_, 3
	octave 4
	note A#, 3
	note G#, 3
	note G_, 3
	note F_, 3
	note G_, 6
	note F_, 3
	note G_, 3
	note A#, 3
	note G#, 3
	note G_, 3
	note A#, 3
	volume_envelope 12, 0
	note_type 12, 12, 0
	note A_, 16
	note A#, 16
	octave 5
	note C_, 12
	octave 4
	note A#, 4
	note A_, 16
	duty_cycle 3
	volume_envelope 12, 8
	octave 3
	note G_, 16
	note C_, 2
	octave 2
	note G_, 2
	note G_, 2
	octave 3
	note C_, 2
	octave 2
	note G_, 2
	note G_, 2
	octave 3
	note C_, 2
	octave 2
	note G_, 2
	octave 3
	note G#, 16
	note C#, 2
	octave 2
	note G#, 2
	note G#, 2
	octave 3
	note C#, 2
	octave 2
	note G#, 2
	note G#, 2
	octave 3
	note C#, 2
	octave 2
	note G#, 2
	octave 3
	note F_, 16
	octave 2
	note A#, 2
	note F_, 2
	note F_, 2
	note A#, 2
	note F_, 2
	note F_, 2
	note A#, 2
	note F_, 2
	octave 3
	note G#, 16
	note C#, 2
	octave 2
	note G#, 2
	note G#, 2
	octave 3
	note C#, 2
	octave 2
	note G#, 2
	note G#, 2
	octave 3
	note C#, 2
	octave 2
	note G#, 2
	octave 3
	note G_, 16
	note C_, 2
	octave 2
	note G_, 2
	note G_, 2
	octave 3
	note C_, 2
	octave 2
	note G_, 2
	note G_, 2
	octave 3
	note C_, 2
	octave 2
	note G_, 2
	octave 3
	note G#, 16
	note C#, 2
	octave 2
	note G#, 2
	note G#, 2
	octave 3
	note C#, 2
	octave 2
	note G#, 2
	note G#, 2
	octave 3
	note C#, 2
	octave 2
	note G#, 2
	octave 3
	note A#, 16
	note D#, 2
	octave 2
	note A#, 2
	note A#, 2
	octave 3
	note D#, 2
	octave 2
	note A#, 2
	note A#, 2
	octave 3
	note D#, 2
	octave 2
	note A#, 2
	octave 4
	note C#, 16
	octave 3
	note F#, 2
	note C#, 2
	note C#, 2
	note F#, 2
	note C#, 2
	note C#, 2
	note F#, 2
	note C#, 2
	volume_envelope 12, 4
	octave 4
	note C_, 6
	note C#, 4
	note C_, 2
	octave 3
	note A#, 2
	octave 4
	note C#, 2
	note C_, 6
	note C#, 4
	note C_, 2
	octave 3
	note A#, 2
	octave 4
	note C#, 2
	note C_, 6
	note C#, 4
	note C_, 2
	octave 3
	note A#, 2
	octave 4
	note C#, 2
	note C_, 6
	note C#, 4
	note C_, 2
	octave 3
	note A#, 2
	octave 4
	note C#, 2
	note C_, 6
	note C#, 4
	note C_, 2
	octave 3
	note A#, 2
	octave 4
	note C#, 2
	note C_, 6
	note C#, 4
	note C_, 2
	octave 3
	note A#, 2
	octave 4
	note C#, 2
	note C_, 6
	note C#, 4
	note C_, 2
	octave 3
	note A#, 2
	octave 4
	note C#, 2
	note C_, 6
	note C#, 4
	note C_, 2
	octave 3
	note A#, 2
	octave 4
	note C#, 2
	note C_, 6
	note C#, 4
	note C_, 2
	octave 3
	note A#, 2
	octave 4
	note C#, 2
	note C_, 6
	note C#, 4
	note C_, 2
	octave 3
	note A#, 2
	octave 4
	note C#, 2
	note C_, 6
	note C#, 4
	note C_, 2
	octave 3
	note A#, 2
	octave 4
	note C#, 2
	note C_, 2
	note C#, 2
	note D#, 2
	note F_, 2
	note F#, 2
	note C_, 2
	note C#, 2
	octave 3
	note A#, 2
	volume_envelope 12, 2
	octave 4
	note C_, 2
	note F_, 2
	note G#, 2
	note G_, 2
	note C_, 2
	note G_, 2
	note C#, 2
	note F_, 2
	note C_, 2
	note F_, 2
	note G#, 2
	note G_, 2
	note C_, 2
	note G_, 2
	note C#, 2
	note F_, 2
	note C_, 2
	note F_, 2
	note G#, 2
	note G_, 2
	note C_, 2
	note G_, 2
	note C#, 2
	note F_, 2
	note C_, 2
	note F_, 2
	note G#, 2
	note G_, 2
	note C_, 2
	note G_, 2
	note C#, 2
	note F_, 2
	duty_cycle 0
	note C_, 2
	note F_, 2
	note G#, 2
	note G_, 2
	note C_, 2
	note G_, 2
	note C#, 2
	note F_, 2
	note C_, 2
	note F_, 2
	note G#, 2
	note G_, 2
	note C_, 2
	note G_, 2
	note C#, 2
	note F_, 2
	note C_, 2
	note F_, 2
	note G#, 2
	note G_, 2
	note C_, 2
	note G_, 2
	note C#, 2
	note F_, 2
	note C_, 2
	note F_, 2
	note G#, 2
	note G_, 2
	note C_, 2
	note G_, 2
	note C#, 2
	note F_, 2
	duty_cycle 3
	sound_jump Music_TrainerBattleDPPt_Ch2_loop

Music_TrainerBattleDPPt_Ch3:
	volume_envelope 1, 9
	volume_envelope 1, 6
	note_type 12, 1, 6
	rest 16
	octave 3
	note A#, 1
	note A_, 1
	note G#, 1
	note G_, 1
	note G#, 1
	note G_, 1
	note F#, 1
	note F_, 1
	note F#, 1
	note F_, 1
	note E_, 1
	note D#, 1
	note E_, 1
	note D#, 1
	note D_, 1
	note C#, 1
	volume_envelope 1, 9
	note C_, 2
	octave 2
	note G_, 2
	octave 3
	note C_, 2
	note F_, 2
	note F#, 2
	note C_, 2
	note F_, 2
	note D#, 2
	note C_, 2
	octave 2
	note G_, 2
	octave 3
	note D#, 2
	note F_, 2
	octave 2
	note A#, 2
	octave 3
	note C#, 2
	octave 2
	note A#, 2
	octave 3
	note C#, 2
	note C_, 2
	octave 2
	note G_, 2
	octave 3
	note C_, 2
	note F_, 2
	note F#, 2
	note C_, 2
	note F_, 2
	note D#, 2
	note C_, 2
	octave 2
	note G_, 2
	octave 3
	note D#, 2
	note F_, 2
	octave 2
	note A#, 2
	octave 3
	note C#, 2
	note D#, 2
	note C#, 2
	note C_, 2
	octave 2
	note G_, 2
	octave 3
	note C_, 2
	note F_, 2
	note F#, 2
	note C_, 2
	note F_, 2
	note D#, 2
	note C_, 2
	octave 2
	note G_, 2
	octave 3
	note D#, 2
	note F_, 2
	octave 2
	note A#, 2
	octave 3
	note C#, 2
	octave 2
	note A#, 2
	octave 3
	note C#, 2
	note C_, 2
	octave 2
	note G_, 2
	octave 3
	note C_, 2
	note F_, 2
	note F#, 2
	note C_, 2
	note F_, 2
	note D#, 2
	note C_, 2
	note F_, 2
	note F#, 2
	note G_, 2
	note A#, 2
	note F_, 2
	note C#, 2
	octave 2
	note A#, 2
Music_TrainerBattleDPPt_Ch3_loop:
	octave 3
	note C_, 2
	note G_, 2
	note C_, 2
	note G_, 2
	note C_, 2
	note G_, 2
	note G_, 2
	note C_, 2
	note F_, 2
	note A#, 2
	note F_, 2
	note A#, 2
	note F_, 2
	note A#, 2
	note A#, 2
	note F_, 2
	note C_, 2
	note G_, 2
	note C_, 2
	note G_, 2
	note C_, 2
	note G_, 2
	note C_, 2
	note G_, 2
	note D_, 2
	note F_, 2
	note D_, 2
	note F_, 2
	note D_, 2
	note F_, 2
	note D_, 2
	note F_, 2
	note C_, 2
	note G_, 2
	note C_, 2
	note G_, 2
	note C_, 2
	note G_, 2
	note F_, 2
	note G_, 2
	note F_, 2
	note A#, 2
	note F_, 2
	note A#, 2
	note F_, 2
	note A#, 2
	note F_, 2
	note A#, 2
	note C_, 2
	note G_, 2
	note C_, 2
	note G_, 2
	note C_, 2
	note G_, 2
	note C_, 2
	note G_, 2
	note C_, 2
	octave 4
	note C_, 2
	octave 3
	note C_, 2
	octave 4
	note C_, 2
	octave 3
	note C_, 2
	octave 4
	note C_, 2
	octave 3
	note C_, 2
	octave 4
	note C_, 2
	octave 3
	note C_, 2
	note G_, 2
	note C_, 2
	note G_, 2
	note C_, 2
	note G_, 2
	note C_, 2
	note G_, 2
	note C_, 2
	note G_, 2
	note C_, 2
	note G_, 2
	note C_, 2
	note G_, 2
	note C_, 2
	note G_, 2
	octave 2
	note A#, 2
	octave 3
	note F_, 2
	octave 2
	note A#, 2
	octave 3
	note F_, 2
	octave 2
	note A#, 2
	octave 3
	note F_, 2
	octave 2
	note A#, 2
	octave 3
	note F_, 2
	octave 2
	note A#, 2
	octave 3
	note F_, 2
	octave 2
	note A#, 2
	octave 3
	note F_, 2
	octave 2
	note A#, 2
	octave 3
	note F_, 2
	octave 2
	note A#, 2
	octave 3
	note F_, 2
	note C_, 2
	note G_, 2
	note C_, 2
	note G_, 2
	note C_, 2
	note G_, 2
	note C_, 2
	note G_, 2
	note C_, 2
	note G_, 2
	note C_, 2
	note G_, 2
	note C_, 2
	note G_, 2
	note C_, 2
	note G_, 2
	note C_, 2
	note G_, 2
	note C_, 2
	note G_, 2
	note C_, 2
	note G_, 2
	note C_, 2
	note G_, 2
	note C_, 2
	note G_, 2
	note F_, 2
	note E_, 2
	note F_, 2
	note E_, 2
	note F_, 2
	note G_, 2
	octave 2
	note A#, 2
	octave 3
	note F_, 2
	octave 2
	note A#, 2
	octave 3
	note F_, 2
	octave 2
	note A#, 2
	octave 3
	note F_, 2
	octave 2
	note A#, 2
	octave 3
	note F_, 2
	octave 2
	note A#, 2
	octave 3
	note F_, 2
	octave 2
	note A#, 2
	octave 3
	note F_, 2
	octave 2
	note A#, 2
	octave 3
	note F_, 2
	octave 2
	note A#, 2
	octave 3
	note F_, 2
	note C_, 2
	note G_, 2
	note C_, 2
	note G_, 2
	note C_, 2
	note G_, 2
	note C_, 2
	note G_, 2
	note C_, 2
	note G_, 2
	note C_, 2
	note G_, 2
	note C_, 2
	note G_, 2
	note C_, 2
	note G_, 2
	note C#, 2
	note G#, 2
	note C#, 2
	note G#, 2
	note C#, 2
	note G#, 2
	note C#, 2
	note G#, 2
	note C#, 2
	note G#, 2
	note C#, 2
	note G#, 2
	note C#, 2
	note G#, 2
	note C#, 2
	note G#, 2
	note D#, 2
	note A#, 2
	note D#, 2
	note A#, 2
	note D#, 2
	note A#, 2
	note D#, 2
	note A#, 2
	note D#, 2
	note A#, 2
	note D#, 2
	note A#, 2
	note D#, 2
	note A#, 2
	note D#, 2
	note A#, 2
	note A_, 4
	note F_, 4
	note A_, 4
	note F_, 4
	note A_, 4
	note F_, 4
	note A_, 4
	note F_, 4
	note C_, 2
	note F_, 2
	note A_, 2
	note F_, 2
	note A_, 2
	octave 4
	note C_, 2
	note E_, 2
	note F_, 2
	note F_, 2
	octave 3
	note A_, 2
	octave 4
	note C_, 2
	octave 3
	note F_, 2
	note A_, 2
	note C_, 2
	note F_, 2
	note C_, 2
	note C_, 2
	note G_, 2
	note C_, 2
	note G_, 2
	note C_, 2
	note G_, 2
	note C_, 2
	note G_, 2
	note C_, 2
	note G_, 2
	note C_, 2
	note G_, 2
	note C_, 2
	note G_, 2
	note C_, 2
	note G_, 2
	note C#, 2
	note G#, 2
	note C#, 2
	note G#, 2
	note C#, 2
	note G#, 2
	note C#, 2
	note G#, 2
	note C#, 2
	note G#, 2
	note C#, 2
	note G#, 2
	note C#, 2
	note G#, 2
	note C#, 2
	note G#, 2
	octave 2
	note A#, 2
	octave 3
	note F_, 2
	octave 2
	note A#, 2
	octave 3
	note F_, 2
	octave 2
	note A#, 2
	octave 3
	note F_, 2
	octave 2
	note A#, 2
	octave 3
	note F_, 2
	octave 2
	note A#, 2
	octave 3
	note F_, 2
	octave 2
	note A#, 2
	octave 3
	note F_, 2
	octave 2
	note A#, 2
	octave 3
	note F_, 2
	octave 2
	note A#, 2
	octave 3
	note F_, 2
	note C#, 2
	note G#, 2
	note C#, 2
	note G#, 2
	note C#, 2
	note G#, 2
	note C#, 2
	note G#, 2
	note C#, 2
	note G#, 2
	note C#, 2
	note G#, 2
	note C#, 2
	note G#, 2
	note C#, 2
	note G#, 2
	note C_, 2
	note G_, 2
	note C_, 2
	note G_, 2
	note C_, 2
	note G_, 2
	note C_, 2
	note G_, 2
	note C_, 2
	note G_, 2
	note C_, 2
	note G_, 2
	note C_, 2
	note G_, 2
	note C_, 2
	note G_, 2
	note C#, 2
	note G#, 2
	note C#, 2
	note G#, 2
	note C#, 2
	note G#, 2
	note C#, 2
	note G#, 2
	note C#, 2
	note G#, 2
	note C#, 2
	note G#, 2
	note C#, 2
	note G#, 2
	note C#, 2
	note G#, 2
	note D#, 2
	note A#, 2
	note D#, 2
	note A#, 2
	note D#, 2
	note A#, 2
	note D#, 2
	note A#, 2
	note D#, 2
	note A#, 2
	note D#, 2
	note A#, 2
	note D#, 2
	note A#, 2
	note D#, 2
	note A#, 2
	note F#, 2
	octave 4
	note C#, 2
	octave 3
	note F#, 2
	octave 4
	note C#, 2
	octave 3
	note F#, 2
	octave 4
	note C#, 2
	octave 3
	note F#, 2
	octave 4
	note C#, 2
	octave 3
	note F#, 2
	octave 4
	note C#, 2
	octave 3
	note F#, 2
	octave 4
	note C#, 2
	octave 3
	note F#, 2
	octave 4
	note C#, 2
	octave 3
	note F#, 2
	octave 4
	note C#, 2
	octave 3
	note F_, 2
	octave 4
	note C_, 2
	note C_, 2
	octave 3
	note F_, 2
	octave 4
	note C_, 2
	note C_, 2
	octave 3
	note F_, 2
	octave 4
	note C_, 2
	octave 3
	note F#, 2
	octave 4
	note C#, 2
	note C#, 2
	octave 3
	note F#, 2
	octave 4
	note C#, 2
	note C#, 2
	octave 3
	note F#, 2
	octave 4
	note C#, 2
	octave 3
	note G#, 2
	octave 4
	note D#, 2
	note D#, 2
	octave 3
	note G#, 2
	octave 4
	note D#, 2
	note D#, 2
	octave 3
	note G#, 2
	octave 4
	note D#, 2
	octave 3
	note A#, 2
	octave 4
	note F_, 2
	note F_, 2
	octave 3
	note A#, 2
	octave 4
	note F_, 2
	note F_, 2
	octave 3
	note A#, 2
	octave 4
	note F_, 2
	octave 3
	note F_, 2
	octave 4
	note C_, 2
	note C_, 2
	octave 3
	note F_, 2
	octave 4
	note C_, 2
	note C_, 2
	octave 3
	note F_, 2
	octave 4
	note C_, 2
	octave 3
	note F#, 2
	octave 4
	note C#, 2
	note C#, 2
	octave 3
	note F#, 2
	octave 4
	note C#, 2
	note C#, 2
	octave 3
	note F#, 2
	octave 4
	note C#, 2
	octave 3
	note G#, 2
	octave 4
	note D#, 2
	note D#, 2
	octave 3
	note G#, 2
	octave 4
	note D#, 2
	note D#, 2
	octave 3
	note G#, 2
	octave 4
	note D#, 2
	octave 3
	note A#, 2
	octave 4
	note F_, 2
	note F_, 2
	octave 3
	note A#, 2
	octave 4
	note F#, 2
	note F_, 2
	note D#, 2
	note F#, 2
	octave 3
	note C_, 2
	octave 2
	note G_, 2
	octave 3
	note C_, 2
	note F_, 2
	note F#, 2
	note C_, 2
	note F_, 2
	note D#, 2
	note C_, 2
	octave 2
	note G_, 2
	octave 3
	note D#, 2
	note F_, 2
	octave 2
	note A#, 2
	octave 3
	note C#, 2
	octave 2
	note A#, 2
	octave 3
	note C#, 2
	note C_, 2
	octave 2
	note G_, 2
	octave 3
	note C_, 2
	note F_, 2
	note F#, 2
	note C_, 2
	note F_, 2
	note D#, 2
	note C_, 2
	note F_, 2
	note F#, 2
	note G_, 2
	note A#, 2
	note F_, 2
	note C#, 2
	octave 2
	note A#, 2
	octave 3
	note C_, 2
	octave 2
	note G_, 2
	octave 3
	note C_, 2
	note F_, 2
	note F#, 2
	note C_, 2
	note F_, 2
	note D#, 2
	note C_, 2
	octave 2
	note G_, 2
	octave 3
	note D#, 2
	note F_, 2
	octave 2
	note A#, 2
	octave 3
	note C#, 2
	octave 2
	note A#, 2
	octave 3
	note C#, 2
	note C_, 2
	octave 2
	note G_, 2
	octave 3
	note C_, 2
	note F_, 2
	note F#, 2
	note C_, 2
	note F_, 2
	note D#, 2
	note C_, 2
	note F_, 2
	note F#, 2
	note G_, 2
	note A#, 2
	note F_, 2
	note C#, 2
	octave 2
	note A#, 2
	octave 3
	note C_, 2
	octave 2
	note G_, 2
	octave 3
	note C_, 2
	note F_, 2
	note F#, 2
	note C_, 2
	note F_, 2
	note D#, 2
	note C_, 2
	octave 2
	note G_, 2
	octave 3
	note D#, 2
	note F_, 2
	octave 2
	note A#, 2
	octave 3
	note C#, 2
	octave 2
	note A#, 2
	octave 3
	note C#, 2
	note C_, 2
	octave 2
	note G_, 2
	octave 3
	note C_, 2
	note F_, 2
	note F#, 2
	note C_, 2
	note F_, 2
	note D#, 2
	note C_, 2
	note F_, 2
	note F#, 2
	note G_, 2
	note A#, 2
	note F_, 2
	note C#, 2
	octave 2
	note A#, 2
	sound_jump Music_TrainerBattleDPPt_Ch3_loop

Music_TrainerBattleDPPt_Ch4:
	toggle_noise 3
	drum_speed 12
	rest 16
	drum_note 4, 4
	drum_note 4, 4
	drum_note 4, 2
	drum_note 1, 1
	drum_note 1, 1
	drum_note 1, 1
	drum_note 1, 1
	drum_note 1, 1
	drum_note 1, 1
	drum_note 4, 4
	drum_note 4, 4
	drum_note 4, 4
	drum_note 4, 4
	drum_note 4, 4
	drum_note 4, 4
	drum_note 4, 4
	drum_note 12, 4
	drum_note 4, 4
	drum_note 4, 4
	drum_note 4, 4
	drum_note 4, 4
	drum_note 4, 4
	drum_note 4, 4
	drum_note 4, 4
	drum_note 12, 2
	drum_note 12, 2
	drum_note 4, 4
	drum_note 4, 4
	drum_note 4, 4
	drum_note 4, 4
	drum_note 4, 4
	drum_note 4, 4
	drum_note 4, 4
	drum_note 12, 4
	drum_note 4, 4
	drum_note 4, 4
	drum_note 4, 2
	drum_note 1, 2
	drum_note 12, 4
	drum_note 1, 2
	drum_note 8, 2
	drum_note 4, 2
	drum_note 1, 2
	drum_note 4, 2
	drum_note 1, 2
	drum_note 1, 2
	drum_note 1, 2
Music_TrainerBattleDPPt_Ch4_loop:
	drum_note 4, 2
	drum_note 8, 2
	drum_note 1, 2
	drum_note 8, 2
	drum_note 4, 2
	drum_note 8, 2
	drum_note 1, 2
	drum_note 8, 2
	drum_note 4, 2
	drum_note 8, 2
	drum_note 1, 2
	drum_note 8, 2
	drum_note 4, 2
	drum_note 8, 2
	drum_note 1, 2
	drum_note 8, 2
	drum_note 4, 2
	drum_note 8, 2
	drum_note 1, 2
	drum_note 8, 2
	drum_note 4, 2
	drum_note 8, 2
	drum_note 1, 2
	drum_note 8, 2
	drum_note 4, 2
	drum_note 8, 2
	drum_note 1, 2
	drum_note 8, 2
	drum_note 4, 2
	drum_note 8, 2
	drum_note 1, 2
	drum_note 1, 2
	drum_note 4, 2
	drum_note 8, 2
	drum_note 1, 2
	drum_note 8, 2
	drum_note 4, 2
	drum_note 8, 2
	drum_note 1, 2
	drum_note 8, 2
	drum_note 4, 2
	drum_note 8, 2
	drum_note 1, 2
	drum_note 8, 2
	drum_note 4, 2
	drum_note 8, 2
	drum_note 1, 2
	drum_note 8, 2
	drum_note 4, 2
	drum_note 8, 2
	drum_note 1, 2
	drum_note 8, 2
	drum_note 4, 2
	drum_note 8, 2
	drum_note 1, 2
	drum_note 8, 2
	drum_note 4, 2
	drum_note 8, 2
	drum_note 1, 2
	drum_note 8, 2
	drum_note 4, 2
	drum_note 1, 2
	drum_note 1, 2
	drum_note 1, 2
	drum_note 4, 2
	drum_note 8, 2
	drum_note 1, 2
	drum_note 8, 2
	drum_note 4, 2
	drum_note 8, 2
	drum_note 1, 2
	drum_note 8, 2
	drum_note 4, 2
	drum_note 8, 2
	drum_note 1, 2
	drum_note 8, 2
	drum_note 4, 2
	drum_note 8, 2
	drum_note 1, 2
	drum_note 8, 2
	drum_note 4, 2
	drum_note 8, 2
	drum_note 1, 2
	drum_note 8, 2
	drum_note 4, 2
	drum_note 8, 2
	drum_note 1, 2
	drum_note 8, 2
	drum_note 4, 2
	drum_note 8, 2
	drum_note 1, 2
	drum_note 8, 2
	drum_note 4, 2
	drum_note 8, 2
	drum_note 1, 4
	drum_note 4, 2
	drum_note 8, 2
	drum_note 1, 2
	drum_note 8, 2
	drum_note 4, 2
	drum_note 8, 2
	drum_note 1, 2
	drum_note 8, 2
	drum_note 4, 2
	drum_note 8, 2
	drum_note 1, 2
	drum_note 8, 2
	drum_note 4, 2
	drum_note 8, 2
	drum_note 1, 2
	drum_note 8, 2
	drum_note 4, 2
	drum_note 8, 2
	drum_note 1, 2
	drum_note 8, 2
	drum_note 4, 2
	drum_note 8, 2
	drum_note 1, 2
	drum_note 8, 2
	drum_note 4, 2
	drum_note 8, 2
	drum_note 1, 2
	drum_note 8, 2
	drum_note 4, 2
	drum_note 1, 2
	drum_note 1, 2
	drum_note 1, 2
	drum_note 1, 2
	drum_note 4, 2
	drum_note 1, 2
	drum_note 8, 2
	drum_note 4, 2
	drum_note 8, 2
	drum_note 1, 2
	drum_note 8, 2
	drum_note 4, 2
	drum_note 8, 2
	drum_note 1, 2
	drum_note 8, 2
	drum_note 4, 2
	drum_note 8, 2
	drum_note 1, 2
	drum_note 8, 2
	drum_note 4, 2
	drum_note 4, 2
	drum_note 1, 2
	drum_note 8, 2
	drum_note 4, 2
	drum_note 8, 2
	drum_note 1, 2
	drum_note 8, 2
	drum_note 4, 2
	drum_note 8, 2
	drum_note 1, 2
	drum_note 8, 2
	drum_note 4, 2
	drum_note 8, 2
	drum_note 1, 2
	drum_note 1, 2
	drum_note 4, 2
	drum_note 8, 2
	drum_note 1, 2
	drum_note 8, 2
	drum_note 4, 2
	drum_note 8, 2
	drum_note 1, 2
	drum_note 8, 2
	drum_note 4, 2
	drum_note 8, 2
	drum_note 1, 2
	drum_note 8, 2
	drum_note 4, 2
	drum_note 8, 2
	drum_note 1, 2
	drum_note 8, 2
	drum_note 4, 2
	drum_note 8, 2
	drum_note 1, 2
	drum_note 8, 2
	drum_note 4, 2
	drum_note 8, 2
	drum_note 1, 2
	drum_note 8, 2
	drum_note 4, 2
	drum_note 8, 2
	drum_note 1, 2
	drum_note 8, 2
	drum_note 4, 2
	drum_note 8, 2
	drum_note 1, 2
	drum_note 8, 2
	drum_note 4, 8
	drum_note 4, 8
	drum_note 4, 4
	drum_note 4, 4
	drum_note 4, 4
	drum_note 1, 2
	drum_note 1, 2
	drum_note 4, 2
	drum_note 8, 2
	drum_note 1, 2
	drum_note 8, 2
	drum_note 4, 2
	drum_note 8, 2
	drum_note 1, 2
	drum_note 8, 2
	drum_note 4, 2
	drum_note 8, 2
	drum_note 1, 2
	drum_note 8, 2
	drum_note 4, 2
	drum_note 8, 2
	drum_note 1, 2
	drum_note 8, 2
	drum_note 4, 4
	rest 16
	rest 16
	rest 16
	rest 16
	rest 16
	rest 16
	rest 12
	drum_note 4, 4
	drum_note 4, 4
	drum_note 4, 2
	drum_note 4, 2
	drum_note 1, 2
	drum_note 4, 2
	drum_note 4, 2
	drum_note 8, 2
	drum_note 1, 2
	drum_note 8, 2
	drum_note 4, 2
	drum_note 8, 2
	drum_note 1, 2
	drum_note 8, 2
	drum_note 4, 2
	drum_note 8, 2
	drum_note 1, 2
	drum_note 8, 2
	drum_note 4, 2
	drum_note 8, 2
	drum_note 1, 2
	drum_note 8, 2
	drum_note 4, 2
	drum_note 8, 2
	drum_note 1, 2
	drum_note 8, 2
	drum_note 4, 2
	drum_note 8, 2
	drum_note 1, 2
	drum_note 8, 2
	drum_note 4, 2
	drum_note 8, 2
	drum_note 1, 2
	drum_note 8, 2
	drum_note 4, 2
	drum_note 8, 2
	drum_note 1, 2
	drum_note 8, 2
	drum_note 4, 2
	drum_note 8, 2
	drum_note 1, 2
	drum_note 8, 2
	drum_note 4, 2
	drum_note 8, 2
	drum_note 1, 2
	drum_note 8, 2
	drum_note 4, 2
	drum_note 8, 2
	drum_note 1, 2
	drum_note 8, 2
	drum_note 4, 2
	drum_note 8, 2
	drum_note 1, 2
	drum_note 8, 2
	drum_note 4, 2
	drum_note 8, 2
	drum_note 1, 2
	drum_note 8, 2
	drum_note 4, 2
	drum_note 8, 2
	drum_note 1, 2
	drum_note 8, 2
	drum_note 4, 2
	drum_note 8, 2
	drum_note 1, 2
	drum_note 8, 2
	drum_note 4, 2
	drum_note 8, 2
	drum_note 1, 2
	drum_note 8, 2
	drum_note 4, 2
	drum_note 8, 2
	drum_note 8, 2
	drum_note 1, 2
	drum_note 4, 2
	drum_note 4, 2
	drum_note 1, 2
	drum_note 8, 2
	drum_note 4, 2
	drum_note 8, 2
	drum_note 8, 2
	drum_note 1, 2
	drum_note 4, 2
	drum_note 4, 2
	drum_note 1, 2
	drum_note 8, 2
	drum_note 4, 2
	drum_note 4, 2
	drum_note 8, 2
	drum_note 1, 2
	drum_note 4, 2
	drum_note 4, 2
	drum_note 1, 2
	drum_note 1, 2
	drum_note 4, 2
	drum_note 8, 2
	drum_note 1, 2
	drum_note 1, 2
	drum_note 4, 2
	drum_note 1, 2
	drum_note 1, 2
	drum_note 1, 2
	drum_note 4, 2
	drum_note 8, 2
	drum_note 1, 2
	drum_note 8, 2
	drum_note 4, 2
	drum_note 8, 2
	drum_note 1, 2
	drum_note 8, 2
	drum_note 4, 2
	drum_note 8, 2
	drum_note 1, 2
	drum_note 8, 2
	drum_note 4, 2
	drum_note 8, 2
	drum_note 1, 2
	drum_note 8, 2
	drum_note 4, 2
	drum_note 8, 2
	drum_note 1, 2
	drum_note 8, 2
	drum_note 4, 2
	drum_note 8, 2
	drum_note 1, 2
	drum_note 8, 2
	drum_note 4, 2
	drum_note 8, 2
	drum_note 1, 2
	drum_note 8, 2
	drum_note 4, 2
	drum_note 1, 2
	drum_note 4, 2
	drum_note 1, 2
	drum_note 4, 2
	drum_note 8, 2
	drum_note 1, 2
	drum_note 8, 2
	drum_note 4, 2
	drum_note 8, 2
	drum_note 1, 2
	drum_note 8, 2
	drum_note 4, 2
	drum_note 8, 2
	drum_note 1, 2
	drum_note 8, 2
	drum_note 4, 2
	drum_note 8, 2
	drum_note 1, 2
	drum_note 8, 2
	drum_note 4, 2
	drum_note 8, 2
	drum_note 1, 2
	drum_note 8, 2
	drum_note 4, 2
	drum_note 8, 2
	drum_note 1, 2
	drum_note 8, 2
	drum_note 4, 2
	drum_note 8, 2
	drum_note 1, 2
	drum_note 8, 2
	drum_note 4, 2
	drum_note 8, 2
	drum_note 1, 2
	drum_note 8, 2
	drum_note 4, 2
	drum_note 8, 2
	drum_note 1, 2
	drum_note 8, 2
	drum_note 4, 2
	drum_note 8, 2
	drum_note 1, 2
	drum_note 8, 2
	drum_note 4, 2
	drum_note 8, 2
	drum_note 1, 2
	drum_note 8, 2
	drum_note 4, 2
	drum_note 8, 2
	drum_note 1, 2
	drum_note 8, 2
	drum_note 4, 2
	drum_note 8, 2
	drum_note 1, 2
	drum_note 8, 2
	drum_note 4, 2
	drum_note 8, 2
	drum_note 1, 2
	drum_note 8, 2
	drum_note 4, 2
	drum_note 8, 2
	drum_note 1, 2
	drum_note 8, 2
	drum_note 4, 2
	drum_note 8, 2
	drum_note 1, 2
	drum_note 8, 2
	drum_note 4, 2
	drum_note 8, 2
	drum_note 1, 2
	drum_note 8, 2
	drum_note 4, 2
	drum_note 8, 2
	drum_note 1, 2
	drum_note 8, 2
	drum_note 4, 2
	drum_note 8, 2
	drum_note 1, 2
	drum_note 8, 2
	drum_note 4, 2
	drum_note 8, 2
	drum_note 1, 2
	drum_note 8, 2
	drum_note 4, 2
	drum_note 8, 2
	drum_note 1, 2
	drum_note 8, 2
	drum_note 4, 2
	drum_note 8, 2
	drum_note 1, 2
	drum_note 8, 2
	drum_note 4, 2
	drum_note 1, 2
	drum_note 1, 2
	drum_note 4, 2
	drum_note 1, 2
	drum_note 1, 2
	drum_note 1, 2
	drum_note 1, 2
	sound_jump Music_TrainerBattleDPPt_Ch4_loop
