; Pokémon Go - Battle! Gym Leader
; Demixed by ShockSlayer
; https://soundcloud.com/user-927422935-571023782/pokemon-go-gym-battle-8-bit/s-nRFXX

Music_GymLeaderBattleGo:
	channel_count 3
	channel 1, Music_GymLeaderBattleGo_Ch1
	channel 2, Music_GymLeaderBattleGo_Ch2
	channel 3, Music_GymLeaderBattleGo_Ch3

Music_GymLeaderBattleGo_Ch1:
	tempo 180
	volume 7, 7
	stereo_panning TRUE, TRUE
	duty_cycle 3
	note_type 12, 10, 2
	sound_call Music_GymLeaderBattleGo_Ch1_ditty1
	octave 1
	note D#, 1
	sound_call Music_GymLeaderBattleGo_Ch1_ditty1
	octave 1
	note C#, 1
Music_GymLeaderBattleGo_Ch1_loop:
Music_GymLeaderBattleGo_Ch1_loop_1:
	note C_, 1
	note G_, 1
	sound_loop 24, Music_GymLeaderBattleGo_Ch1_loop_1
	sound_call Music_GymLeaderBattleGo_Ch1_ditty2
	note A#, 1
	note F_, 1
	note C_, 1
	note A#, 1
	note C_, 1
	note A#, 1
	note C_, 1
	note A#, 1
	note C_, 1
	note F_, 1
Music_GymLeaderBattleGo_Ch1_loop_2:
	note C_, 1
	note G_, 1
	sound_loop 8, Music_GymLeaderBattleGo_Ch1_loop_2
	note C_, 1
	note F_, 1
	sound_call Music_GymLeaderBattleGo_Ch1_ditty2
	sound_call Music_GymLeaderBattleGo_Ch1_ditty2
	note C_, 1
	note F_, 1
Music_GymLeaderBattleGo_Ch1_loop_5:
	note C#, 1
	note G#, 1
	sound_loop 7, Music_GymLeaderBattleGo_Ch1_loop_5
	note C#, 1
	octave 2
	note C#, 1
	octave 1
Music_GymLeaderBattleGo_Ch1_loop_3:
	note C_, 1
	note G_, 1
	sound_loop 7, Music_GymLeaderBattleGo_Ch1_loop_3
	note C_, 1
	octave 2
	note C_, 1
	octave 1
Music_GymLeaderBattleGo_Ch1_loop_6:
	note C#, 1
	note G#, 1
	sound_loop 7, Music_GymLeaderBattleGo_Ch1_loop_6
	note C#, 1
	octave 2
	note C#, 1
	note C_, 1
	octave 1
	sound_call Music_GymLeaderBattleGo_Ch1_ditty3
	note E_, 1
	sound_call Music_GymLeaderBattleGo_Ch1_ditty3
	octave 2
	note C_, 1
	octave 1
	note G_, 1
	octave 2
	note C_, 1
	octave 1
	note G_, 1
	note E_, 1
	note C_, 1
Music_GymLeaderBattleGo_Ch1_loop_7:
	note C#, 1
	note G#, 1
	sound_loop 16, Music_GymLeaderBattleGo_Ch1_loop_7
Music_GymLeaderBattleGo_Ch1_loop_9:
	note D#, 1
	note A#, 1
	sound_loop 16, Music_GymLeaderBattleGo_Ch1_loop_9
Music_GymLeaderBattleGo_Ch1_loop_8:
	note C#, 1
	note G#, 1
	sound_loop 16, Music_GymLeaderBattleGo_Ch1_loop_8
Music_GymLeaderBattleGo_Ch1_loop_10:
	note D#, 1
	note A#, 1
	sound_loop 16, Music_GymLeaderBattleGo_Ch1_loop_10
Music_GymLeaderBattleGo_Ch1_loop_11:
	note C#, 1
	note F_, 1
	sound_loop 16, Music_GymLeaderBattleGo_Ch1_loop_11
Music_GymLeaderBattleGo_Ch1_loop_4:
	note C_, 1
	note G_, 1
	sound_loop 12, Music_GymLeaderBattleGo_Ch1_loop_4
	note E_, 1
	note G_, 1
	octave 2
	note C_, 1
	note E_, 1
	rest 1
	note E_, 1
	note C_, 1
	octave 1
	note G_, 1
	note G_, 1
	note G_, 1
	note E_, 1
	note G_, 1
	note C_, 1
	octave 2
	note C_, 1
	octave 1
	note G_, 1
	sound_call Music_GymLeaderBattleGo_Ch1_ditty6
	note G_, 1
	note C_, 1
	octave 2
	note C_, 1
	octave 1
	note G_, 1
Music_GymLeaderBattleGo_Ch1_loop_12:
	note F_, 1
	note A#, 1
	note A#, 1
	note F_, 1
	note A#, 1
	note D_, 1
	octave 2
	note D_, 1
	octave 1
	note A#, 1
	sound_loop 2, Music_GymLeaderBattleGo_Ch1_loop_12
	octave 2
	note D_, 1
	octave 1
	note G_, 1
	note G_, 1
	note E_, 1
	note F_, 1
	note C_, 1
	octave 2
	note C_, 1
	octave 1
	note F_, 1
	sound_call Music_GymLeaderBattleGo_Ch1_ditty6
	note F_, 1
	sound_call Music_GymLeaderBattleGo_Ch1_ditty7
	sound_call Music_GymLeaderBattleGo_Ch1_ditty4
	note F_, 1
	sound_call Music_GymLeaderBattleGo_Ch1_ditty4
	note C_, 1
	note C#, 1
	note F#, 1
	note F#, 1
	note D#, 1
	note F#, 1
	note C_, 1
	octave 2
	note C_, 1
	octave 1
	note F_, 1
	sound_call Music_GymLeaderBattleGo_Ch1_ditty4
	note C_, 1
	note C#, 1
	octave 2
	note C_, 1
	sound_call Music_GymLeaderBattleGo_Ch1_ditty5
	note C_, 1
	octave 2
	sound_call Music_GymLeaderBattleGo_Ch1_ditty5
	note G_, 1
	note G_, 1
	note E_, 1
	note G_, 1
	note C_, 1
	octave 2
	note C_, 1
	octave 1
	note F_, 1
	sound_call Music_GymLeaderBattleGo_Ch1_ditty6
	note G_, 1
	sound_call Music_GymLeaderBattleGo_Ch1_ditty7
	sound_call Music_GymLeaderBattleGo_Ch1_ditty6
	note F_, 1
	note C_, 1
	octave 2
	note C_, 1
	octave 1
	note F_, 1
	sound_call Music_GymLeaderBattleGo_Ch1_ditty6
	note F_, 1
	sound_call Music_GymLeaderBattleGo_Ch1_ditty7
	note C#, 1
	note G_, 1
	note G_, 1
	note E_, 1
	note G_, 1
	note C_, 1
	octave 2
	note C_, 1
	octave 1
	note F_, 1
	sound_call Music_GymLeaderBattleGo_Ch1_ditty6
	note G_, 1
	note C_, 1
	note C_, 1
	note C_, 1
	sound_call Music_GymLeaderBattleGo_Ch1_ditty6
	note G_, 1
	note C_, 1
	octave 2
	note C_, 1
	octave 1
	note F_, 1
	sound_call Music_GymLeaderBattleGo_Ch1_ditty6
	note G_, 1
	sound_call Music_GymLeaderBattleGo_Ch1_ditty7
	note C#, 1
	sound_jump Music_GymLeaderBattleGo_Ch1_loop

Music_GymLeaderBattleGo_Ch1_ditty1:
	octave 2
	note G_, 1
	octave 1
	note G_, 1
	note D#, 1
	octave 2
	note G_, 1
	octave 1
	note C_, 1
	octave 2
	note C_, 1
	note G_, 1
	octave 1
	note D#, 1
	note G_, 1
	octave 2
	note G_, 1
	octave 1
	note D#, 1
	note F_, 1
	octave 2
	note G_, 1
	note C_, 1
	note G#, 1
	sound_ret

Music_GymLeaderBattleGo_Ch1_ditty2:
	note C_, 1
	note F_, 1
	note A#, 1
	note F_, 1
	note A#, 1
	note F_, 1
	sound_ret

Music_GymLeaderBattleGo_Ch1_ditty3:
	note G_, 1
Music_GymLeaderBattleGo_Ch1_ditty8:
	note C_, 1
	note E_, 1
	note G_, 1
	sound_ret

Music_GymLeaderBattleGo_Ch1_ditty4:
	note D#, 1
	note F#, 1
	note F#, 1
	note D#, 1
	note F#, 1
	note C_, 1
	octave 2
	note C_, 1
	octave 1
	sound_ret

Music_GymLeaderBattleGo_Ch1_ditty5:
	note C_, 1
	octave 1
	note A#, 1
	note F#, 2
	note F_, 1
	note D#, 1
	note C#, 1
	note C_, 1
	octave 2
	note C_, 1
	octave 1
	note A#, 1
	note F#, 2
	note F_, 1
	note D#, 1
	note C#, 1
	octave 2
	note C#, 1
	note C#, 1
	octave 1
	note B_, 1
	note G_, 2
	note F#, 1
	note E_, 1
	note D_, 1
	note C#, 1
	octave 2
	note C#, 1
	octave 1
	note B_, 1
Music_GymLeaderBattleGo_Ch1_ditty9:
	note G_, 2
	note F#, 1
	note E_, 1
	note D_, 1
	sound_ret

Music_GymLeaderBattleGo_Ch1_ditty6:
	note E_, 1
	note G_, 1
	note G_, 1
	note E_, 1
	sound_ret

Music_GymLeaderBattleGo_Ch1_ditty7:
	note C_, 1
	octave 2
	note C_, 1
	octave 1
	note C_, 1
	sound_ret

Music_GymLeaderBattleGo_Ch2:
	duty_cycle 3
	vibrato 7, 9, 5
	octave 3
	note_type 12, 10, 5
Music_GymLeaderBattleGo_Ch2_loop_1:
	note F#, 2
	rest 1
	note F_, 2
	rest 1
	note D#, 2
	sound_loop 4, Music_GymLeaderBattleGo_Ch2_loop_1
Music_GymLeaderBattleGo_Ch2_loop:
	duty_cycle 0
	volume_envelope 12, 5
	vibrato 0, 3, 3
Music_GymLeaderBattleGo_Ch2_loop_2:
	note C_, 3
	note G_, 3
	octave 4
	note C_, 3
	octave 3
	note G_, 3
	note F_, 2
	note E_, 2
	sound_loop 2, Music_GymLeaderBattleGo_Ch2_loop_2
	duty_cycle 1
	volume_envelope 10, 8
	vibrato 9, 3, 3
	octave 4
	note C_, 3
	octave 3
	note G_, 3
	octave 4
	note G_, 3
	note F_, 2
	note E_, 1
	note D_, 2
	note C_, 2
	octave 3
	note A#, 12
	note D_, 2
	note A#, 2
	octave 4
	note C_, 3
	octave 3
	note G_, 3
	octave 4
	note G_, 3
	note F_, 2
	note E_, 1
	note D_, 2
	note E_, 1
	note F_, 1
	note A#, 3
	note F_, 3
	note A#, 3
	note F_, 3
	note A#, 2
	octave 5
	note C_, 2
	volume_envelope 12, 8
	octave 3
	note G#, 8
	note F_, 4
	note G#, 2
	octave 4
	note C_, 2
	octave 3
	note G_, 1
	note F_, 1
	note E_, 2
	note E_, 2
	note G_, 2
	note E_, 2
	note G_, 2
	octave 4
	note C_, 2
	note E_, 2
	note F_, 8
	note C#, 4
	note F_, 2
	note G#, 2
	note G_, 1
	note F_, 1
	note E_, 6
	duty_cycle 0
	volume_envelope 12, 1
	octave 3
	sound_call Music_GymLeaderBattleGo_Ch1_ditty8
	octave 4
	sound_call Music_GymLeaderBattleGo_Ch1_ditty8
	octave 5
	note C_, 1
	duty_cycle 3
	volume_envelope 12, 8
	vibrato 15, 5, 3
	octave 4
	note D#, 1
	note C#, 8
	sound_call Music_GymLeaderBattleGo_Ch2_ditty1
	volume_envelope 12, 8
	vibrato 15, 5, 3
	octave 4
	note D#, 1
	note C#, 8
	sound_call Music_GymLeaderBattleGo_Ch2_ditty1
	volume_envelope 12, 8
	octave 4
	note C_, 1
	duty_cycle 1
	octave 3
	sound_call Music_GymLeaderBattleGo_Ch2_ditty3
	octave 4
	sound_call Music_GymLeaderBattleGo_Ch2_ditty2
	note_type 15, 12, 8
	rest 1
	note_type 12, 12, 8
	note D_, 2
	sound_call Music_GymLeaderBattleGo_Ch2_ditty2
	note_type 15, 12, 8
	rest 1
	note_type 9, 12, 8
	note A#, 1
	note_type 15, 12, 8
	rest 1
	note_type 12, 12, 8
	note F_, 2
	note_type 9, 12, 8
	note F_, 1
	note_type 15, 12, 8
	rest 1
	note_type 9, 12, 8
	note A#, 1
	note_type 15, 12, 8
	rest 1
	octave 5
	note_type 9, 12, 8
	note D_, 1
	note_type 15, 12, 8
	rest 1
	octave 4
	note_type 12, 12, 8
	sound_call Music_GymLeaderBattleGo_Ch2_ditty3
	octave 5
	sound_call Music_GymLeaderBattleGo_Ch2_ditty2
	note_type 3, 12, 8
	rest 1
	duty_cycle_pattern 1, 1, 2, 2
	octave 4
	note B_, 4
	octave 5
	note C_, 4
	octave 4
	note G_, 4
	octave 5
	note C_, 4
	note G_, 4
	rest 16
	octave 4
	note E_, 4
	note G_, 4
	octave 5
	note C_, 4
	note G_, 4
	rest 16
	note C_, 4
	octave 4
	note G_, 4
	octave 5
	note C_, 4
	note G_, 4
	octave 4
	note A#, 4
	rest 12
	note G_, 4
	note G_, 4
	octave 5
	note C_, 4
	note G_, 4
	rest 8
	octave 4
	note G_, 4
	rest 4
	duty_cycle 1
	octave 3
	note E_, 4
	note D_, 4
	sound_call Music_GymLeaderBattleGo_Ch2_ditty4
	octave 4
	note D_, 12
	note C_, 8
	octave 3
	note A#, 8
	octave 4
	note C_, 4
	rest 8
	duty_cycle_pattern 1, 1, 2, 2
	octave 3
Music_GymLeaderBattleGo_Ch2_loop_3:
	note D_, 4
	rest 8
	sound_loop 3, Music_GymLeaderBattleGo_Ch2_loop_3
	note D_, 4
	rest 12
	duty_cycle 1
	sound_call Music_GymLeaderBattleGo_Ch2_ditty4
	note G_, 12
	octave 4
	note C_, 8
	octave 3
	note_type 12, 12, 8
	note A#, 8
	octave 4
	note C#, 8
	octave 3
	note A#, 8
	octave 4
	note F#, 8
	duty_cycle_pattern 1, 1, 0, 0
	note C_, 1
	note C_, 1
	octave 3
	note A#, 1
	duty_cycle_pattern 1, 1, 2, 2
	sound_call Music_GymLeaderBattleGo_Ch2_ditty5
	note C_, 1
	duty_cycle_pattern 1, 1, 0, 0
	octave 4
	note C_, 1
	octave 3
	note A#, 1
	duty_cycle_pattern 1, 1, 2, 2
	sound_call Music_GymLeaderBattleGo_Ch2_ditty5
	duty_cycle_pattern 1, 1, 0, 0
	octave 4
	note C#, 1
	note C#, 1
	octave 3
	note B_, 1
	duty_cycle_pattern 1, 1, 2, 2
	sound_call Music_GymLeaderBattleGo_Ch2_ditty6
	duty_cycle_pattern 1, 1, 0, 0
	octave 4
	note C#, 1
	octave 3
	note B_, 1
	duty_cycle_pattern 1, 1, 2, 2
	sound_call Music_GymLeaderBattleGo_Ch1_ditty9
	duty_cycle_pattern 1, 1, 0, 0
	octave 4
	note C_, 1
	note C_, 1
	octave 3
	note A#, 1
	duty_cycle_pattern 1, 1, 2, 2
	sound_call Music_GymLeaderBattleGo_Ch2_ditty5
	note C_, 1
	duty_cycle_pattern 1, 1, 0, 0
	octave 4
	note C_, 1
	octave 3
	note A#, 1
	duty_cycle_pattern 1, 1, 2, 2
	sound_call Music_GymLeaderBattleGo_Ch2_ditty5
	duty_cycle_pattern 1, 1, 0, 0
	octave 4
	note C#, 1
	note C#, 1
	octave 3
	note B_, 1
	duty_cycle_pattern 1, 1, 2, 2
	sound_call Music_GymLeaderBattleGo_Ch2_ditty6
	duty_cycle_pattern 1, 1, 0, 0
	octave 4
	note C#, 1
	octave 3
	note B_, 1
	duty_cycle_pattern 1, 1, 2, 2
	sound_call Music_GymLeaderBattleGo_Ch1_ditty9
	duty_cycle 1
	note C_, 8
	note C#, 8
	octave 2
	note B_, 8
	octave 3
	note C_, 8
	note C_, 8
	note C#, 4
	note E_, 4
	note F_, 4
	note C#, 4
	note G#, 4
	note F_, 4
	sound_jump Music_GymLeaderBattleGo_Ch2_loop

Music_GymLeaderBattleGo_Ch2_ditty1:
	volume_envelope 12, 7
	vibrato 0, 0, 0
	octave 3
	note G#, 12
	rest 11
	volume_envelope 12, 8
	vibrato 15, 5, 3
	octave 4
	note C#, 1
	note D#, 8
	volume_envelope 12, 7
	vibrato 0, 0, 0
	octave 3
	note A#, 12
	rest 11
	sound_ret

Music_GymLeaderBattleGo_Ch2_ditty2:
	note_type 9, 12, 8
	note D_, 1
	note_type 15, 12, 8
	rest 1
	note_type 9, 12, 8
	note F_, 1
	sound_ret

Music_GymLeaderBattleGo_Ch2_ditty3:
	note A#, 2
	note_type 9, 12, 8
	note A#, 1
	note_type 15, 12, 8
	rest 1
	sound_ret

Music_GymLeaderBattleGo_Ch2_ditty4:
	octave 4
	note C_, 12
	octave 3
	note G_, 12
	note E_, 12
	sound_ret

Music_GymLeaderBattleGo_Ch2_ditty5:
	note F#, 2
	note F_, 1
	note D#, 1
	note C#, 1
	sound_ret

Music_GymLeaderBattleGo_Ch2_ditty6:
	note G_, 2
	note F#, 1
	note E_, 1
	note D_, 1
	note C#, 1
	sound_ret

Music_GymLeaderBattleGo_Ch3:
	octave 4
	note_type 12, 1, 4
Music_GymLeaderBattleGo_Ch3_loop_1:
	note C_, 1
	rest 2
	note C_, 1
	rest 2
	note C_, 1
	rest 2
	note C_, 1
	rest 2
	note C_, 1
	rest 1
	note C#, 1
	rest 1
	sound_loop 2, Music_GymLeaderBattleGo_Ch3_loop_1
Music_GymLeaderBattleGo_Ch3_loop:
	volume_envelope 1, 6
	vibrato 5, 3, 3
	octave 3
Music_GymLeaderBattleGo_Ch3_loop_2:
	note G_, 3
	octave 4
	note D_, 3
	note G_, 3
	note D_, 3
	note C_, 2
	octave 3
	note B_, 2
	sound_loop 2, Music_GymLeaderBattleGo_Ch3_loop_2
	octave 4
	note G_, 3
	note D_, 3
	octave 5
	note D_, 3
	note C_, 2
	octave 4
	note B_, 1
	note A_, 2
	note G_, 2
	note F_, 3
	note F_, 3
	note F_, 3
	note F_, 3
	octave 3
	note A_, 2
	octave 4
	note F_, 2
	note G_, 3
	note D_, 3
	octave 5
	note D_, 3
	note C_, 2
	octave 4
	note B_, 1
	note A_, 2
	note B_, 1
	octave 5
	note C_, 1
	note F_, 3
	note C_, 3
	note F_, 3
	note C_, 3
	note F_, 2
	note G_, 2
	volume_envelope 1, 4
	octave 4
	note F_, 8
	note C#, 4
	note F_, 2
	note G#, 2
	note E_, 1
	note D_, 1
	note C_, 2
	note C_, 2
	note E_, 2
	note C_, 2
	note E_, 2
	note G_, 2
	octave 5
	note C_, 2
	octave 4
	note G#, 8
	note F_, 4
	note G#, 2
	octave 5
	note C_, 2
	note E_, 1
	note D_, 1
	note C_, 6
	vibrato 1, 3, 3
	octave 3
	sound_call Music_GymLeaderBattleGo_Ch1_ditty8
	octave 4
	sound_call Music_GymLeaderBattleGo_Ch1_ditty8
	octave 5
	note C_, 1
	octave 4
	note D#, 1
	volume_envelope 1, 6
	vibrato 3, 3, 3
Music_GymLeaderBattleGo_Ch3_loop_3:
	sound_call Music_GymLeaderBattleGo_Ch3_ditty1
	sound_loop 4, Music_GymLeaderBattleGo_Ch3_loop_3
Music_GymLeaderBattleGo_Ch3_loop_4:
	sound_call Music_GymLeaderBattleGo_Ch3_ditty2
	sound_loop 4, Music_GymLeaderBattleGo_Ch3_loop_4
Music_GymLeaderBattleGo_Ch3_loop_5:
	sound_call Music_GymLeaderBattleGo_Ch3_ditty1
	sound_loop 4, Music_GymLeaderBattleGo_Ch3_loop_5
Music_GymLeaderBattleGo_Ch3_loop_6:
	sound_call Music_GymLeaderBattleGo_Ch3_ditty2
	sound_loop 4, Music_GymLeaderBattleGo_Ch3_loop_6
	vibrato 5, 3, 3
	note F_, 8
	note A#, 8
	octave 5
	note D_, 8
	note F_, 7
	note F_, 1
	note E_, 1
	rest 15
	note E_, 1
	rest 7
	note E_, 1
	rest 9
	octave 4
	note G_, 3
	note E_, 3
	note C_, 3
	note A#, 3
	note G_, 2
	note F_, 1
	note F_, 1
	rest 16
	note G_, 3
	note E_, 3
	note C_, 3
	note E_, 3
	note G_, 2
	note F#, 8
	note A#, 8
	note F#, 8
	octave 5
	note C#, 8
	octave 4
	note G_, 1
	sound_call Music_GymLeaderBattleGo_Ch3_ditty3
	note G_, 1
	octave 4
	sound_call Music_GymLeaderBattleGo_Ch3_ditty3
	octave 4
	note G#, 1
	sound_call Music_GymLeaderBattleGo_Ch3_ditty4
	note G#, 1
	octave 4
	sound_call Music_GymLeaderBattleGo_Ch3_ditty4
	octave 4
	note G_, 1
	sound_call Music_GymLeaderBattleGo_Ch3_ditty3
	note G_, 1
	octave 4
	sound_call Music_GymLeaderBattleGo_Ch3_ditty3
	octave 4
	note G#, 1
	sound_call Music_GymLeaderBattleGo_Ch3_ditty4
	note G#, 1
	octave 4
	sound_call Music_GymLeaderBattleGo_Ch3_ditty4
	note G_, 4
	note G_, 4
	note A#, 4
	note G#, 4
	note G_, 4
	note G#, 4
	note G_, 8
	note G_, 4
	note G_, 4
	note A#, 8
	note A#, 8
	note A#, 8
	sound_jump Music_GymLeaderBattleGo_Ch3_loop

Music_GymLeaderBattleGo_Ch3_ditty1:
	note G#, 1
	rest 1
	note F_, 1
	note A#, 2
	rest 1
	note G#, 1
	rest 1
	sound_ret

Music_GymLeaderBattleGo_Ch3_ditty2:
	note G_, 1
	rest 1
	note D#, 1
	note G#, 2
	rest 1
	note G_, 1
	rest 1
	sound_ret

Music_GymLeaderBattleGo_Ch3_ditty3:
	note G_, 1
	note F_, 1
	note C#, 2
	note C_, 1
	octave 3
	note A#, 1
	note G#, 1
	sound_ret

Music_GymLeaderBattleGo_Ch3_ditty4:
	note G#, 1
	note F#, 1
	note D_, 2
	note C#, 1
	octave 3
	note B_, 1
	note A_, 1
	sound_ret
