; Pokémon Stadium - Battle! Mewtwo
; Demixed by ShockSlayer
; https://soundcloud.com/user-927422935-571023782/battle-with-mewtwo-8-bit

Music_MewtwoBattleStadium:
	channel_count 4
	channel 1, Music_MewtwoBattleStadium_Ch1
	channel 2, Music_MewtwoBattleStadium_Ch2
	channel 3, Music_MewtwoBattleStadium_Ch3
	channel 4, Music_MewtwoBattleStadium_Ch4

Music_MewtwoBattleStadium_Ch1:
	tempo $78
	volume 7, 7
	stereo_panning TRUE, TRUE
	note_type 12, 0, 0
	note __, 16
	duty_cycle_pattern 1, 1, 1, 1
	vibrato $05, $21
	octave 4
	note_type 10, 15, 2
	note D#, 1
	note_type 11, 15, 2
	note __, 2
	octave 3
	note_type 10, 15, 2
	note A#, 1
	note_type 6, 15, 2
	note __, 1
	note_type 10, 15, 2
	note A#, 1
	note_type 6, 15, 2
	note __, 1
	note_type 10, 15, 2
	note F_, 1
	note_type 6, 15, 2
	note __, 1
	note_type 10, 15, 2
	note C_, 1
	note_type 6, 15, 2
	note __, 1
	octave 2
	note_type 10, 15, 2
	note A#, 1
	note_type 6, 15, 2
	note __, 1
	octave 3
	note_type 10, 15, 2
	note D_, 1
	note_type 6, 15, 2
	note __, 1
	octave 4
	note_type 10, 15, 2
	note C_, 1
	note_type 6, 15, 2
	note __, 1
	octave 3
	note_type 10, 15, 2
	note A#, 1
	note_type 6, 15, 2
	note __, 1
	octave 4
	note_type 10, 15, 2
	note D#, 1
	note_type 6, 15, 2
	note __, 1
	note_type 10, 15, 2
	note A#, 1
	note_type 6, 15, 2
	note __, 1
	note B_, 2
	note_type 1, 15, 2
	note B_, 5
	note_type 6, 15, 2
	note __, 13
	note_type 1, 15, 2
	note __, 1
	note_type 6, 15, 2
	volume_envelope 15, 1
	octave 3
	note E_, 2
	octave 4
	note E_, 2
	volume_envelope 9, 8
	vibrato $03, $24
	octave 5
	note E_, 16
	note E_, 16
	note E_, 10
	note __, 2
	volume_envelope 15, 1
	vibrato $05, $21
	octave 4
	note B_, 3
	note __, 1
	volume_envelope 9, 8
	vibrato $03, $24
	octave 3
	note B_, 16
	vibrato $05, $21
	octave 4
	note_type 8, 15, 1
	note E_, 1
	note __, 2
	octave 3
	note B_, 1
	note __, 2
	vibrato $03, $24
	volume_envelope 9, 8
	note A#, 16
	note A#, 9
	note_type 1, 9, 8
	note __, 4
	note_type 8, 9, 8
	note_type 12, 9, 8
	note __, 1
	vibrato $05, $21
	octave 4
	note_type 9, 15, 1
	note E_, 2
	note_type 13, 15, 1
	note __, 6
	note_type 8, 15, 1
	note E_, 1
	note_type 4, 15, 1
	note __, 1
	octave 5
	note E_, 2
	note __, 1
	octave 4
	note E_, 2
	note __, 16
	octave 3
	note B_, 2
	note __, 1
	octave 4
	note B_, 2
	note __, 1
	octave 3
	note A#, 2
	note __, 16
	note B_, 3
	octave 4
	note E_, 3
	note B_, 3
	note_type 6, 8, 1
	sound_call Music_MewtwoBattleStadium_Ch1_ditty1
	sound_call Music_MewtwoBattleStadium_Ch1_ditty1
	note C_, 1
	sound_call Music_MewtwoBattleStadium_Ch1_ditty1
	sound_call Music_MewtwoBattleStadium_Ch1_ditty1
	octave 5
	note B_, 1
	note B_, 1
	octave 6
	note C_, 1
Music_MewtwoBattleStadium_Ch1_loop_1:
	sound_call Music_MewtwoBattleStadium_Ch1_ditty1
	sound_loop 31, Music_MewtwoBattleStadium_Ch1_loop_1
Music_MewtwoBattleStadium_Ch1_loop:
	duty_cycle_pattern 1, 1, 1, 1
	vibrato $00, $13
	octave 3
	note_type 15, 12, 7
	note B_, 16
	note_type 12, 12, 7
	note A_, 4
	octave 4
	note_type 8, 12, 7
	note D_, 4
	note C_, 4
	octave 3
	note B_, 4
	octave 4
	note D_, 12
	note G_, 4
	note F_, 4
	note E_, 4
	note_type 12, 12, 7
	note D_, 1
	note E_, 1
	octave 3
	note A_, 14
	note __, 8
	note_type 8, 12, 7
	note A#, 4
	note A_, 4
	note A#, 4
	octave 4
	note D_, 9
	note C_, 9
	octave 3
	note A#, 6
	note A_, 15
	note A_, 3
	note_type 12, 12, 7
	note G_, 1
	note_type 9, 12, 7
	note A_, 2
	note_type 6, 12, 7
	note __, 1
	note_type 12, 12, 7
	note E_, 16
	note __, 9
	note_type 8, 12, 7
	note E_, 4
	note F_, 4
	note G_, 4
	note A_, 4
	note B_, 4
	octave 4
	note C_, 4
	octave 3
	note B_, 4
	note A_, 4
	note G_, 4
	note A_, 15
	note A_, 3
	octave 4
	note C_, 3
	note G_, 9
	note_type 12, 12, 7
	note F_, 1
	note E_, 1
	note D_, 1
	note C_, 1
	note E_, 1
	note D_, 1
	note C_, 1
	octave 3
	note A#, 1
	octave 4
	note D_, 1
	note C_, 1
	octave 3
	note A#, 1
	note G_, 1
	note A_, 15
	note __, 1
	duty_cycle_pattern 0, 0, 0, 0
	vibrato $00, $00
	note A_, 7
	note __, 1
	octave 4
	note F#, 7
	note __, 1
	note C#, 15
	note __, 1
	note D#, 8
	note A#, 4
	duty_cycle_pattern 1, 1, 2, 2
	vibrato $00, $13
	note G#, 1
	note F_, 1
	octave 3
	note G_, 1
	note C_, 1
	note __, 16
	note __, 16
	note __, 16
	note __, 16
	duty_cycle_pattern 1, 1, 1, 1
	volume_envelope 13, 2
	octave 4
	note G_, 2
	note __, 4
	note D_, 2
	note __, 12
	note G_, 2
	note __, 2
	note D_, 2
	note __, 2
	note G_, 2
	note __, 2
	note G#, 2
	note __, 16
	note __, 14
	note G_, 2
	note __, 4
	note D_, 2
	note __, 12
	note G_, 2
	note __, 2
	note D_, 2
	note __, 2
	note G_, 2
	note __, 2
	note F_, 2
	note __, 16
	note __, 14
	note D#, 2
	note __, 14
	note A#, 2
	note __, 6
	note D#, 2
	note __, 6
	note F_, 2
	note __, 16
	note __, 14
	note D#, 2
	note __, 14
	octave 5
	note C_, 2
	note __, 6
	note D_, 2
	note __, 6
	note C_, 2
	note __, 15
	duty_cycle_pattern 2, 2, 2, 2
	volume_envelope 15, 1
	octave 3
	note C_, 1
	note D_, 1
	note D#, 1
	note F_, 1
	note G_, 1
	note A_, 1
	note A#, 1
	octave 4
	note C_, 1
	note D_, 1
	note F_, 1
	note D#, 1
	note D_, 1
	note C_, 1
	octave 3
	note A#, 1
	octave 4
	note D_, 1
	note __, 1
	note D_, 1
	note C_, 1
	note F_, 1
	note D#, 1
	note D_, 1
	note C_, 1
	note D#, 1
	note D_, 1
	note C_, 1
	octave 3
	note A#, 1
	note A_, 1
	octave 4
	note C_, 1
	octave 3
	note G_, 1
	note A_, 1
	note G_, 1
	note D#, 1
	note F_, 1
	note G_, 1
	note A_, 1
	note A#, 1
	octave 4
	note C_, 1
	note D_, 1
	note D#, 1
	note F_, 1
	note D#, 1
	note D_, 1
	note C_, 1
	note D#, 1
	note_type 9, 15, 1
	note D#, 2
	note_type 6, 15, 1
	note __, 1
	note D#, 2
	note D_, 2
	note D#, 2
	note C_, 2
	note A_, 2
	note __, 2
	note A_, 2
	note __, 2
	note A_, 2
	note __, 2
	note A_, 2
	note C_, 2
	note D_, 2
	note D_, 2
	note C_, 2
	note G_, 2
	note A_, 2
	note A#, 2
	note G_, 2
	note D#, 2
	note A#, 2
	octave 5
	note D_, 2
	note C_, 2
	octave 4
	note A#, 2
	note A_, 2
	note G_, 2
	note F_, 2
	note D#, 2
	note C_, 2
	note D_, 2
	note D#, 2
	octave 3
	note A_, 2
	note A#, 2
	note G_, 2
	note F_, 2
	note D#, 2
	note G_, 2
	note F_, 2
	note D#, 2
	note D_, 2
	note F_, 2
	note D#, 2
	note C_, 2
	note F_, 2
	note __, 2
	note C_, 2
	note D_, 2
	note D#, 2
	note F_, 2
	note G_, 2
	note A_, 2
	note A#, 2
	note A_, 2
	note G_, 2
	note F_, 2
	note D#, 2
	note C_, 2
	note D#, 2
	note D_, 2
	note C_, 2
	note C_, 2
	note D#, 2
	note C_, 2
	note D#, 2
	note C_, 2
	note D_, 2
	octave 2
	note A_, 2
	octave 3
	note D_, 2
	octave 2
	note A_, 2
	octave 3
	note D_, 2
	octave 2
	note A_, 2
	octave 3
	note D_, 2
	octave 2
	note A_, 2
	octave 3
	note D_, 2
	octave 2
	note A_, 2
	octave 3
	note D_, 2
	note F_, 2
	note D_, 2
	note F_, 2
	note D_, 2
	note F_, 2
	note A#, 2
	note D#, 2
	octave 2
	note A#, 4
	note __, 2
	octave 3
	note G_, 2
	note A#, 2
	note A_, 2
	note G_, 2
	note F_, 2
	note F_, 2
	note D_, 2
	octave 2
	note A#, 2
	note A#, 2
	octave 3
	note D#, 2
	octave 2
	note A#, 2
	octave 3
	note D_, 2
	octave 2
	note A_, 2
	octave 3
	note D_, 2
	note A_, 2
	note __, 2
	note G_, 2
	note A_, 2
	note A_, 2
	note D_, 2
	note F_, 2
	note A_, 2
	note F_, 2
	note A_, 2
	note G_, 2
	note F_, 2
	note D_, 2
	note D#, 2
	note F_, 2
	note G_, 2
	note A_, 2
	note A#, 2
	octave 4
	note C_, 2
	note D_, 2
	note D#, 4
	note D_, 2
	note C_, 2
	note D#, 2
	note D_, 2
	note C_, 2
	octave 3
	note A#, 2
	octave 4
	note D#, 2
	note_type 8, 15, 1
	note D_, 1
	note D#, 1
	note D_, 1
	note D#, 1
	note D_, 1
	note D#, 1
	note_type 12, 15, 1
	note D_, 1
	note C_, 1
	octave 3
	note A#, 1
	note A_, 1
	octave 4
	note D_, 1
	octave 3
	note A_, 1
	note F_, 1
	note D#, 1
	note D_, 1
	note C_, 1
	note D#, 1
	note D_, 1
	note D#, 1
	note G_, 1
	octave 2
	note A#, 1
	octave 3
	note G_, 1
	note D#, 1
	note G_, 1
	octave 2
	note A#, 1
	octave 3
	note G_, 1
	note A#, 1
	note A_, 1
	note G_, 1
	note F_, 1
	note G_, 1
	note F_, 1
	note D#, 1
	note G_, 1
	note D_, 1
	note C_, 1
	note D_, 2
	note C_, 1
	octave 2
	note A_, 1
	octave 3
	note D_, 1
	note C_, 1
	note D_, 1
	octave 2
	note A_, 1
	octave 3
	note D_, 1
	octave 2
	note A_, 1
	octave 3
	note F_, 1
	note G_, 1
	note A_, 1
	note A#, 1
	octave 4
	note C_, 1
	octave 3
	note A#, 1
	note A_, 1
	note A#, 1
	octave 4
	note D#, 1
	note D_, 1
	note C_, 1
	octave 3
	note A#, 1
	note A#, 1
	note A_, 1
	note G_, 1
	note A#, 1
	note G_, 1
	note G_, 1
	note F_, 1
	note D#, 1
	note G_, 1
	note A_, 1
	note A#, 1
	note A_, 1
	note F_, 1
	note G_, 1
	note F_, 1
	note D#, 1
	note G_, 1
	note A_, 1
	octave 4
	note D#, 1
	note F_, 1
	note D#, 1
	note D_, 1
	note C_, 1
	note D#, 1
	octave 3
	note D#, 1
	note A#, 1
	note G_, 1
	note A#, 1
	octave 4
	note D#, 1
	note D_, 1
	note C_, 1
	note D#, 1
	note D#, 1
	note D_, 1
	note C_, 1
	octave 3
	note A#, 1
	duty_cycle_pattern 1, 1, 1, 1
	note_type 8, 15, 1
	note A#, 1
	octave 4
	note C_, 1
	note D_, 1
	note D#, 1
	note F_, 1
	note G_, 1
	volume_envelope 9, 8
	note A_, 16
	note A_, 16
	note A_, 16
	note A_, 16
	note A_, 16
	note A_, 10
	volume_envelope 15, 1
	note G_, 1
	note F_, 1
	note D#, 1
	note D_, 1
	note C_, 1
	octave 3
	note A#, 1
	volume_envelope 9, 8
	note A_, 16
	note A_, 16
	note A_, 16
	note A_, 16
	note A_, 16
	note A_, 16
	note_type 12, 9, 8
	note __, 12
	octave 4
	note_type 14, 11, 7
	note D_, 3
	note_type 15, 11, 7
	note __, 10
	octave 3
	note_type 14, 11, 7
	note B_, 3
	note_type 15, 11, 7
	note __, 10
	octave 4
	note_type 14, 11, 7
	note D_, 3
	note __, 9
	note_type 12, 11, 7
	note C_, 2
	octave 3
	note B_, 2
	octave 4
	note C_, 2
	volume_envelope 12, 7
	note D_, 15
	note __, 13
	octave 3
	note_type 14, 11, 7
	note B_, 3
	note_type 6, 11, 7
	note __, 1
	note B_, 11
	note __, 1
	octave 4
	note E_, 11
	note __, 1
	octave 3
	note B_, 7
	note __, 1
	octave 4
	note D_, 11
	note __, 1
	octave 3
	note B_, 11
	note __, 16
	note __, 16
	note __, 16
	note __, 9
	duty_cycle_pattern 1, 1, 2, 2
	volume_envelope 15, 1
	vibrato $00, $00
Music_MewtwoBattleStadium_Ch1_loop_2:
	octave 4
	note D_, 2
	note C_, 2
	octave 3
	note B_, 2
	note A_, 2
	sound_loop 2, Music_MewtwoBattleStadium_Ch1_loop_2
	note __, 16
	duty_cycle_pattern 1, 1, 1, 1
	volume_envelope 12, 7
	note A_, 14
	note_type 12, 12, 7
	note __, 9
	duty_cycle_pattern 1, 1, 2, 2
	volume_envelope 15, 1
	octave 4
	note D_, 1
	note C_, 1
	octave 3
	note B_, 1
	octave 4
	note C_, 1
	note D_, 1
	note C_, 1
	octave 3
	note B_, 1
	octave 4
	note D_, 1
	note __, 8
	duty_cycle_pattern 1, 1, 1, 1
	volume_envelope 12, 7
	note C_, 7
	note __, 9
	duty_cycle_pattern 1, 1, 2, 2
	volume_envelope 15, 1
	note D_, 1
	note C_, 1
	octave 3
	note B_, 1
	note A_, 1
	octave 4
	note D_, 1
	note C_, 1
	octave 3
	note B_, 1
	note A_, 1
	note __, 8
	duty_cycle_pattern 1, 1, 1, 1
	volume_envelope 12, 7
	note A_, 7
	note __, 1
	duty_cycle_pattern 1, 1, 2, 2
	volume_envelope 15, 1
	octave 4
	note D_, 1
	note D_, 2
	note D_, 1
	note __, 8
	volume_envelope 12, 7
	vibrato $00, $13
	octave 3
	note E_, 1
	note F#, 1
	note G_, 1
	note A_, 1
	sound_jump Music_MewtwoBattleStadium_Ch1_loop

Music_MewtwoBattleStadium_Ch1_ditty1:
	octave 5
	note B_, 1
	octave 6
	note C_, 1
	endchannel

Music_MewtwoBattleStadium_Ch2:
	duty_cycle_pattern 1, 1, 1, 1
	octave 3
	note_type 6, 12, 1
	note B_, 1
	note A#, 1
	note A_, 1
	note G#, 1
	octave 4
	note C_, 1
	octave 3
	note B_, 1
	note A#, 1
	note A_, 1
	octave 4
	note C#, 1
	note C_, 1
	octave 3
	note B_, 1
	note A_, 1
	octave 4
	note D_, 1
	note C#, 1
	note C_, 1
	octave 3
	note B_, 1
	octave 4
	note D#, 1
	note D_, 1
	note C#, 1
	note C_, 1
	note E_, 1
	note D#, 1
	note D_, 1
	note C#, 1
Music_MewtwoBattleStadium_Ch2_loop_1:
	note F_, 1
	note E_, 1
	note D#, 1
	note D_, 1
	note F#, 1
	note F_, 1
	note E_, 1
	note D#, 1
	sound_loop 5, Music_MewtwoBattleStadium_Ch2_loop_1
	volume_envelope 6, 8
	octave 3
	note E_, 16
	note E_, 16
	note E_, 16
	note E_, 16
	note E_, 16
	note E_, 16
	note E_, 16
	note E_, 16
	note E_, 16
	note E_, 16
	note E_, 16
	note E_, 8
	volume_envelope 12, 5
	sound_call Music_MewtwoBattleStadium_Ch2_ditty1
	note E_, 8
	octave 2
	note D_, 1
	note E_, 1
	note F#, 1
	note G_, 1
	note A_, 1
	note B_, 1
	octave 3
	note C_, 1
	note D_, 1
	note E_, 8
	octave 4
	note D_, 1
	note E_, 1
	note F#, 1
	note G_, 1
	note A_, 1
	note B_, 1
	octave 5
	note C_, 1
	note D_, 1
	note E_, 8
	octave 3
	sound_call Music_MewtwoBattleStadium_Ch2_ditty1
	note E_, 15
	note __, 1
Music_MewtwoBattleStadium_Ch2_loop:
	duty_cycle_pattern 2, 2, 2, 2
	vibrato $02, $24
	octave 3
	note_type 15, 12, 5
	note B_, 16
	note_type 12, 12, 5
	note A_, 4
	octave 4
	note_type 8, 12, 5
	note D_, 4
	note C_, 4
	octave 3
	note B_, 4
	octave 4
	note D_, 12
	note G_, 4
	note F_, 4
	note E_, 4
	note_type 12, 12, 5
	note D_, 1
	note E_, 1
	octave 3
	note A_, 14
	note __, 8
	note_type 8, 12, 5
	note A#, 4
	note A_, 4
	note A#, 4
	octave 4
	note D_, 9
	note C_, 9
	octave 3
	note A#, 6
	note A_, 15
	note A_, 3
	note_type 12, 12, 5
	note G_, 1
	note A_, 1
	note G_, 1
	note E_, 16
	note __, 9
	note_type 8, 12, 5
	note E_, 4
	note F_, 4
	note G_, 4
	note A_, 4
	note B_, 4
	octave 4
	note C_, 4
	octave 3
	note B_, 4
	note A_, 4
	note G_, 4
	note A_, 15
	note A_, 3
	octave 4
	note C_, 3
	note G_, 9
	note_type 12, 12, 5
	note F_, 1
	note E_, 1
	note D_, 1
	note C_, 1
	note E_, 1
	note D_, 1
	note C_, 1
	octave 3
	note A#, 1
	octave 4
	note D_, 1
	note C_, 1
	octave 3
	note A#, 1
	note G_, 1
	note E_, 8
	note __, 8
	duty_cycle_pattern 0, 0, 0, 0
	vibrato $00, $00
	note B_, 15
	note __, 1
	note E_, 8
	note G#, 8
	note G#, 8
	note A#, 4
	duty_cycle_pattern 1, 1, 0, 0
	vibrato $02, $24
	octave 4
	note D#, 1
	octave 3
	note A#, 1
	note D#, 1
	octave 2
	note A#, 1
	note_type 9, 12, 5
	note A_, 2
	note __, 16
	note __, 16
	note __, 16
	note __, 16
	note __, 16
	note __, 3
	note_type 1, 12, 5
	note __, 3
	note_type 9, 12, 5
	duty_cycle_pattern 1, 1, 1, 1
	octave 3
	note_type 12, 13, 2
	note G_, 1
	note __, 5
	note D_, 1
	note __, 13
	note G_, 1
	note __, 3
	note D_, 1
	note __, 3
	note G_, 1
	note __, 3
	note G#, 1
	note __, 16
	note __, 15
	note G_, 1
	note __, 5
	note D_, 1
	note __, 13
	note G_, 1
	note __, 3
	note D_, 1
	note __, 3
	note G_, 1
	note __, 3
	note F_, 1
	note __, 16
	note __, 15
	note D#, 1
	note __, 15
	note A#, 1
	note __, 7
	note D#, 1
	note __, 7
	note F_, 1
	note __, 16
	note __, 15
	note D#, 1
	note __, 15
	octave 4
	note C_, 1
	note __, 7
	note D_, 1
	note __, 7
	note C_, 1
	note __, 16
	note __, 15
	volume_envelope 15, 3
	octave 3
	sound_call Music_MewtwoBattleStadium_Ch2_ditty2
	octave 3
	note A#, 2
	note A_, 2
	octave 4
	note C_, 2
	octave 3
	note A#, 2
	note A_, 2
	note G_, 2
	note A#, 2
	sound_call Music_MewtwoBattleStadium_Ch2_ditty2
	note D#, 2
	note D_, 2
	note C_, 2
	note D_, 2
	note C_, 2
	octave 3
	note A#, 2
	note G_, 2
	sound_call Music_MewtwoBattleStadium_Ch2_ditty2
	octave 3
	note A#, 2
	note A_, 2
	note G_, 2
	note A#, 2
	note A_, 2
	note G_, 2
	note D#, 2
	note D_, 2
	note D#, 2
	note F_, 2
	note G_, 2
	note A_, 2
	note G_, 2
	note G_, 2
	note D_, 2
	note D#, 1
	note G_, 3
	note G_, 6
	note D#, 2
	note C_, 2
	note D#, 2
	vibrato $00, $33
	note_type 6, 15, 7
	sound_call Music_MewtwoBattleStadium_Ch2_ditty3
	note G_, 11
	note __, 1
	note F_, 4
	note D#, 11
	note __, 5
	octave 3
	sound_call Music_MewtwoBattleStadium_Ch2_ditty3
	note A#, 11
	note __, 1
	note A_, 4
	note G_, 11
	note __, 5
	octave 3
	sound_call Music_MewtwoBattleStadium_Ch2_ditty3
	note G_, 11
	note __, 1
	note F_, 4
	note D#, 11
	note __, 5
	octave 3
	sound_call Music_MewtwoBattleStadium_Ch2_ditty3
	octave 5
	note D#, 11
	note __, 1
	note D_, 4
	note C_, 7
	note __, 1
	octave 4
	note A#, 7
	note __, 1
	octave 3
	note_type 15, 12, 8
	note D_, 16
	note_type 14, 12, 8
	note C_, 3
	note_type 6, 12, 8
	note __, 1
	note_type 8, 12, 8
	note F_, 4
	note D#, 4
	note C_, 4
	note_type 11, 12, 8
	note D_, 6
	note_type 6, 12, 8
	note E_, 1
	note F_, 1
	note_type 13, 12, 8
	note A_, 12
	note_type 6, 12, 8
	note __, 1
	note G_, 8
	octave 4
	note_type 8, 12, 8
	note C_, 4
	octave 3
	note A#, 4
	note G_, 4
	octave 4
	note_type 15, 12, 8
	note D_, 16
	note_type 14, 12, 8
	note C_, 3
	note_type 6, 12, 8
	note __, 1
	note_type 8, 12, 8
	note F_, 4
	note D#, 4
	note C_, 4
	note_type 11, 12, 8
	note D_, 6
	note_type 6, 12, 8
	note E_, 1
	note F_, 1
	note_type 13, 12, 8
	note A_, 12
	note_type 6, 12, 8
	note __, 1
	note A_, 7
	note __, 1
	note_type 8, 12, 8
	note G_, 4
	note F_, 4
	note E_, 4
	vibrato $05, $13
	note_type 12, 12, 8
	note F_, 12
	note E_, 2
	note F_, 2
	note G_, 6
	note D_, 6
	note G_, 4
	note F_, 6
	note E_, 6
	note C_, 4
	octave 3
	note B_, 6
	note_type 11, 12, 8
	note G_, 6
	note_type 9, 12, 8
	note __, 6
	octave 4
	note F_, 16
	note_type 12, 12, 8
	note E_, 2
	note F_, 2
	note G_, 6
	note B_, 6
	octave 5
	note D_, 3
	note __, 1
	note D_, 6
	octave 4
	note B_, 6
	note A_, 4
	note_type 11, 12, 8
	note G#, 6
	note_type 6, 12, 8
	note __, 1
	note G#, 2
	note A_, 2
	note B_, 16
	octave 5
	note_type 12, 12, 8
	sound_call Music_MewtwoBattleStadium_Ch2_ditty4
	octave 4
	note A_, 6
	octave 5
	note D_, 4
	sound_call Music_MewtwoBattleStadium_Ch2_ditty4
	note E_, 6
	note D_, 4
	sound_call Music_MewtwoBattleStadium_Ch2_ditty4
	octave 4
	note A_, 6
	octave 5
	note D_, 4
	note C_, 12
	octave 4
	note B_, 2
	note A_, 2
	octave 5
	note_type 11, 12, 8
	note E_, 6
	note_type 6, 12, 8
	note __, 1
	duty_cycle_pattern 1, 1, 2, 2
	volume_envelope 12, 5
	note D_, 2
	note C_, 2
	note D_, 2
	octave 4
	note B_, 2
	note G_, 2
	note E_, 2
	note B_, 2
	note G_, 2
	note E_, 2
	octave 3
	note B_, 2
	sound_jump Music_MewtwoBattleStadium_Ch2_loop

Music_MewtwoBattleStadium_Ch2_ditty1:
	note D_, 1
	note E_, 1
	note F#, 1
	note G_, 1
	note A_, 1
	note B_, 1
	octave 4
	note C_, 1
	note D_, 1
	endchannel

Music_MewtwoBattleStadium_Ch2_ditty2:
	note A_, 2
	note D_, 2
	note A_, 6
	note G_, 2
	octave 4
	note C_, 6
	endchannel

Music_MewtwoBattleStadium_Ch2_ditty3:
	note D_, 7
	note __, 1
	note A_, 7
	note __, 1
	octave 4
	note D_, 7
	note __, 1
	note A_, 7
	note __, 1
	endchannel

Music_MewtwoBattleStadium_Ch2_ditty4:
	note C_, 12
	octave 4
	note B_, 2
	octave 5
	note C_, 2
	note D_, 6
	endchannel

Music_MewtwoBattleStadium_Ch3:
	note_type 12, 0, 0
	note __, 16
	duty_cycle 7
	volume_envelope 1, 7
	octave 2
	note F_, 15
	note __, 1
Music_MewtwoBattleStadium_Ch3_loop_1:
	note E_, 1
	note __, 1
	note D_, 1
	note __, 1
	sound_loop 32, Music_MewtwoBattleStadium_Ch3_loop_1
Music_MewtwoBattleStadium_Ch3_loop:
	octave 1
	sound_call Music_MewtwoBattleStadium_Ch3_ditty1
	octave 1
	note B_, 1
	note A_, 2
	note E_, 1
	sound_call Music_MewtwoBattleStadium_Ch3_ditty1
	note A_, 1
	note G_, 1
	note F_, 1
	note E_, 1
	sound_call Music_MewtwoBattleStadium_Ch3_ditty2
	octave 1
	note F_, 1
	note F_, 1
	note F_, 1
	octave 2
	note C_, 1
	note C_, 3
	sound_call Music_MewtwoBattleStadium_Ch3_ditty2
	octave 1
	note F_, 1
	note F_, 1
	octave 2
	note C_, 1
	note F_, 1
	note E_, 1
	note D_, 1
	note C_, 1
	octave 1
	sound_call Music_MewtwoBattleStadium_Ch3_ditty3
	note C_, 2
	octave 1
	note G_, 1
	sound_call Music_MewtwoBattleStadium_Ch3_ditty3
	note C_, 1
	octave 1
	note A#, 1
	note G_, 1
	sound_call Music_MewtwoBattleStadium_Ch3_ditty1
	octave 1
	note A_, 1
	note E_, 2
	note G_, 1
	sound_call Music_MewtwoBattleStadium_Ch3_ditty1
	octave 1
	note A_, 1
	note E_, 2
	note G_, 1
	sound_call Music_MewtwoBattleStadium_Ch3_ditty2
	note F_, 1
	note F_, 1
	note F_, 1
	octave 2
	note C_, 1
	note C_, 3
	octave 1
	sound_call Music_MewtwoBattleStadium_Ch3_ditty2
	octave 2
	note C_, 1
	octave 1
	note A_, 1
	octave 2
	note C_, 1
	note F_, 1
	note E_, 1
	note D_, 1
	note C_, 1
	octave 1
	sound_call Music_MewtwoBattleStadium_Ch3_ditty4
	octave 2
	note F_, 1
	octave 1
	note A#, 2
	note A_, 1
	sound_call Music_MewtwoBattleStadium_Ch3_ditty4
	octave 2
	note D_, 1
	note C_, 1
	octave 1
	note A#, 1
	note G_, 1
	sound_call Music_MewtwoBattleStadium_Ch3_ditty1
	sound_call Music_MewtwoBattleStadium_Ch3_ditty5
	sound_call Music_MewtwoBattleStadium_Ch3_ditty1
	sound_call Music_MewtwoBattleStadium_Ch3_ditty5
	sound_call Music_MewtwoBattleStadium_Ch3_ditty1
	sound_call Music_MewtwoBattleStadium_Ch3_ditty5
	note A_, 3
	note A_, 3
	note A_, 2
	note A#, 1
	note A#, 1
	note A#, 2
	note A#, 1
	note A#, 2
	note A#, 1
Music_MewtwoBattleStadium_Ch3_loop_2:
	sound_call Music_MewtwoBattleStadium_Ch3_ditty6
	sound_loop 10, Music_MewtwoBattleStadium_Ch3_loop_2
	note E_, 2
	note A_, 2
	note A_, 2
	note G_, 2
Music_MewtwoBattleStadium_Ch3_loop_3:
	sound_call Music_MewtwoBattleStadium_Ch3_ditty6
	sound_loop 4, Music_MewtwoBattleStadium_Ch3_loop_3
	note E_, 2
	note A_, 2
Music_MewtwoBattleStadium_Ch3_loop_5:
	note A#, 2
	note G#, 2
	note F_, 2
	sound_loop 5, Music_MewtwoBattleStadium_Ch3_loop_5
	note A#, 2
	note A_, 2
	note G_, 2
Music_MewtwoBattleStadium_Ch3_loop_4:
	sound_call Music_MewtwoBattleStadium_Ch3_ditty6
	sound_loop 4, Music_MewtwoBattleStadium_Ch3_loop_4
	note E_, 2
	note A_, 2
	note F_, 2
	octave 2
	note C_, 2
Music_MewtwoBattleStadium_Ch3_loop_6:
	sound_call Music_MewtwoBattleStadium_Ch3_ditty7
	sound_loop 4, Music_MewtwoBattleStadium_Ch3_loop_6
	sound_call Music_MewtwoBattleStadium_Ch3_ditty9
Music_MewtwoBattleStadium_Ch3_loop_9:
	sound_call Music_MewtwoBattleStadium_Ch3_ditty8
	sound_loop 4, Music_MewtwoBattleStadium_Ch3_loop_9
	sound_call Music_MewtwoBattleStadium_Ch3_ditty10
Music_MewtwoBattleStadium_Ch3_loop_7:
	sound_call Music_MewtwoBattleStadium_Ch3_ditty7
	sound_loop 4, Music_MewtwoBattleStadium_Ch3_loop_7
	sound_call Music_MewtwoBattleStadium_Ch3_ditty9
Music_MewtwoBattleStadium_Ch3_loop_10:
	sound_call Music_MewtwoBattleStadium_Ch3_ditty8
	sound_loop 4, Music_MewtwoBattleStadium_Ch3_loop_10
	sound_call Music_MewtwoBattleStadium_Ch3_ditty10
Music_MewtwoBattleStadium_Ch3_loop_8:
	sound_call Music_MewtwoBattleStadium_Ch3_ditty7
	sound_loop 3, Music_MewtwoBattleStadium_Ch3_loop_8
	octave 1
	note A#, 2
	note F_, 2
	note A_, 2
	note A#, 2
	octave 2
	note C_, 2
Music_MewtwoBattleStadium_Ch3_loop_11:
	sound_call Music_MewtwoBattleStadium_Ch3_ditty11
	sound_call Music_MewtwoBattleStadium_Ch3_ditty12
	sound_loop 7, Music_MewtwoBattleStadium_Ch3_loop_11
	sound_call Music_MewtwoBattleStadium_Ch3_ditty11
	note C_, 1
	note C_, 1
	octave 1
	note G_, 1
	octave 2
	note C_, 1
	note C_, 1
	octave 1
	note A#, 1
	octave 2
	note C_, 1
	note __, 2
	sound_call Music_MewtwoBattleStadium_Ch3_ditty14
	sound_call Music_MewtwoBattleStadium_Ch3_ditty13
	sound_call Music_MewtwoBattleStadium_Ch3_ditty15
	sound_call Music_MewtwoBattleStadium_Ch3_ditty13
	note A_, 1
	note __, 2
	sound_call Music_MewtwoBattleStadium_Ch3_ditty14
	sound_call Music_MewtwoBattleStadium_Ch3_ditty13
	sound_call Music_MewtwoBattleStadium_Ch3_ditty15
	sound_call Music_MewtwoBattleStadium_Ch3_ditty13
	note A_, 1
	octave 2
	sound_call Music_MewtwoBattleStadium_Ch3_ditty16
	sound_call Music_MewtwoBattleStadium_Ch3_ditty17
	note D_, 3
	sound_call Music_MewtwoBattleStadium_Ch3_ditty16
	sound_call Music_MewtwoBattleStadium_Ch3_ditty17
	octave 1
	note G_, 1
	note B_, 1
	octave 2
	note D_, 1
	sound_call Music_MewtwoBattleStadium_Ch3_ditty16
	sound_call Music_MewtwoBattleStadium_Ch3_ditty17
	octave 1
	note G_, 1
	note B_, 1
	octave 2
	note D_, 1
	octave 1
	note B_, 3
	note B_, 3
	note B_, 3
	note B_, 1
	note A_, 1
	note B_, 1
	octave 2
	note E_, 3
	note __, 1
	octave 1
	note E_, 3
	note E_, 3
	note E_, 3
	note E_, 1
	note G#, 1
	note A_, 1
	note B_, 1
	note E_, 1
	note G#, 1
	note B_, 1
	sound_call Music_MewtwoBattleStadium_Ch3_ditty18
	sound_call Music_MewtwoBattleStadium_Ch3_ditty16
	octave 1
	note G_, 2
	note G_, 2
	sound_call Music_MewtwoBattleStadium_Ch3_ditty18
	sound_call Music_MewtwoBattleStadium_Ch3_ditty16
	sound_call Music_MewtwoBattleStadium_Ch3_ditty19
	sound_call Music_MewtwoBattleStadium_Ch3_ditty18
	sound_call Music_MewtwoBattleStadium_Ch3_ditty16
	sound_call Music_MewtwoBattleStadium_Ch3_ditty19
	sound_call Music_MewtwoBattleStadium_Ch3_ditty18
	note D_, 3
	note D_, 3
	note D_, 3
	note E_, 1
	note D_, 1
	note C_, 1
	note D_, 1
	note C_, 1
	octave 1
	note B_, 1
	note A_, 1
	sound_jump Music_MewtwoBattleStadium_Ch3_loop

Music_MewtwoBattleStadium_Ch3_ditty1:
	note A_, 3
	note A_, 3
	note A_, 1
	note A_, 1
	note __, 1
	note A_, 1
	octave 2
	note E_, 2
	endchannel

Music_MewtwoBattleStadium_Ch3_ditty2:
	note F_, 3
	note F_, 3
	note F_, 1
	note F_, 1
	note __, 1
	endchannel

Music_MewtwoBattleStadium_Ch3_ditty3:
	note A#, 3
	note A#, 3
	note A#, 1
	note A#, 1
	note __, 1
	note A#, 1
	note A_, 1
	note A#, 1
	octave 2
	note D_, 1
	endchannel

Music_MewtwoBattleStadium_Ch3_ditty4:
	note A#, 3
	note A#, 3
	note A#, 1
	note A#, 1
	note __, 1
	note A#, 1
	note A#, 1
	note A#, 1
	endchannel

Music_MewtwoBattleStadium_Ch3_ditty5:
	octave 1
	note A_, 1
	note G_, 2
	note E_, 1
	endchannel

Music_MewtwoBattleStadium_Ch3_ditty6:
	note E_, 2
	note A_, 2
	note G_, 2
	endchannel

Music_MewtwoBattleStadium_Ch3_ditty7:
	octave 1
	note A#, 2
	note F_, 2
	octave 2
	note C_, 2
	endchannel

Music_MewtwoBattleStadium_Ch3_ditty8:
	octave 1
	note A#, 2
	octave 2
	note D#, 2
	note C_, 2
	endchannel

Music_MewtwoBattleStadium_Ch3_ditty9:
	octave 1
	note A#, 2
	note F_, 2
	octave 2
	note D#, 2
	note C_, 2
	endchannel

Music_MewtwoBattleStadium_Ch3_ditty10:
	octave 1
	note A#, 2
	note G_, 2
	note F_, 2
	octave 2
	note C_, 2
	endchannel

Music_MewtwoBattleStadium_Ch3_ditty11:
	note D_, 3
	note D_, 2
	note D_, 3
	note __, 1
	note D_, 3
	note D_, 1
	octave 1
	note A_, 1
	octave 2
	note C_, 1
	note D_, 1
	note D#, 3
	note D#, 2
	note D#, 3
	note __, 1
	endchannel

Music_MewtwoBattleStadium_Ch3_ditty12:
	note D#, 3
	note D#, 1
	octave 1
	note A#, 1
	octave 2
	note D_, 1
	note D#, 1
	endchannel

Music_MewtwoBattleStadium_Ch3_ditty13:
	note G_, 1
	note F_, 1
	note E_, 1
	note F_, 1
	note E_, 1
	note D_, 1
	note C_, 1
	note D_, 1
	note C_, 1
	octave 1
	note A#, 1
	endchannel

Music_MewtwoBattleStadium_Ch3_ditty14:
	octave 3
	note D_, 2
	note D_, 2
	note C_, 1
	octave 2
	note A#, 1
	octave 3
	note C_, 1
	octave 2
	note A#, 1
	note A_, 1
	note G_, 1
	note A_, 1
	note G_, 1
	note F_, 1
	note E_, 1
	note F_, 1
	note E_, 1
	note F_, 1
	note G_, 1
	note A_, 2
	note A_, 2
	note A_, 1
	note G_, 1
	note F_, 1
	note E_, 1
	note F_, 1
	note E_, 1
	note D_, 1
	note C_, 1
	note A_, 2
	note A_, 2
	note A_, 1
	note A_, 1
	endchannel

Music_MewtwoBattleStadium_Ch3_ditty15:
	octave 2
	note A_, 1
	note A_, 3
	note A_, 1
	endchannel

Music_MewtwoBattleStadium_Ch3_ditty16:
	note D_, 3
	note D_, 3
	note D_, 3
	note D_, 1
	note C_, 1
	note D_, 1
	endchannel

Music_MewtwoBattleStadium_Ch3_ditty17:
	octave 1
	note A_, 1
	note A_, 3
	note G_, 3
	note G_, 3
	note G_, 3
	note G_, 1
	note F#, 1
	note G_, 1
	octave 2
	note D_, 1
	endchannel

Music_MewtwoBattleStadium_Ch3_ditty18:
	note A_, 3
	note A_, 3
	note A_, 3
	note A_, 1
	note G_, 1
	note A_, 1
	octave 2
	note E_, 3
	note __, 1
	endchannel

Music_MewtwoBattleStadium_Ch3_ditty19:
	octave 1
	note G_, 1
	note G_, 3
	endchannel

Music_MewtwoBattleStadium_Ch4:
	note_type 12
	note __, 16
	toggle_noise 1
	note F#, 15
	note __, 1
	note F#, 2
Music_MewtwoBattleStadium_Ch4_loop1:
	sound_call Music_MewtwoBattleStadium_Ch4_ditty1
	sound_loop 16, Music_MewtwoBattleStadium_Ch4_loop1
	sound_call Music_MewtwoBattleStadium_Ch4_ditty6
Music_MewtwoBattleStadium_Ch4_loop2:
	sound_call Music_MewtwoBattleStadium_Ch4_ditty1
	sound_call Music_MewtwoBattleStadium_Ch4_ditty2
	sound_loop 3, Music_MewtwoBattleStadium_Ch4_loop2
	sound_call Music_MewtwoBattleStadium_Ch4_ditty23
	note D#, 1
	note D#, 1
	note D#, 1
	note D#, 1
	note D#, 2
	note D#, 1
	note D#, 1
Music_MewtwoBattleStadium_Ch4_loop:
	sound_call Music_MewtwoBattleStadium_Ch4_ditty3
	sound_loop 4, Music_MewtwoBattleStadium_Ch4_loop
	note F#, 1
	note E_, 1
Music_MewtwoBattleStadium_Ch4_loop3:
	sound_call Music_MewtwoBattleStadium_Ch4_ditty4
	sound_loop 14, Music_MewtwoBattleStadium_Ch4_loop3
	sound_call Music_MewtwoBattleStadium_Ch4_ditty5
Music_MewtwoBattleStadium_Ch4_loop4:
	sound_call Music_MewtwoBattleStadium_Ch4_ditty4
	sound_loop 15, Music_MewtwoBattleStadium_Ch4_loop4
	sound_call Music_MewtwoBattleStadium_Ch4_ditty5
Music_MewtwoBattleStadium_Ch4_loop5:
	sound_call Music_MewtwoBattleStadium_Ch4_ditty4
	sound_loop 15, Music_MewtwoBattleStadium_Ch4_loop5
	sound_call Music_MewtwoBattleStadium_Ch4_ditty5
Music_MewtwoBattleStadium_Ch4_loop6:
	sound_call Music_MewtwoBattleStadium_Ch4_ditty4
	sound_loop 15, Music_MewtwoBattleStadium_Ch4_loop6
	sound_call Music_MewtwoBattleStadium_Ch4_ditty5
Music_MewtwoBattleStadium_Ch4_loop7:
	sound_call Music_MewtwoBattleStadium_Ch4_ditty4
	sound_loop 12, Music_MewtwoBattleStadium_Ch4_loop7
	note F#, 2
	sound_call Music_MewtwoBattleStadium_Ch4_ditty14
	sound_call Music_MewtwoBattleStadium_Ch4_ditty7
	sound_call Music_MewtwoBattleStadium_Ch4_ditty11
	sound_call Music_MewtwoBattleStadium_Ch4_ditty7
	sound_call Music_MewtwoBattleStadium_Ch4_ditty23
Music_MewtwoBattleStadium_Ch4_loop8:
	sound_call Music_MewtwoBattleStadium_Ch4_ditty7
	sound_call Music_MewtwoBattleStadium_Ch4_ditty16
	sound_call Music_MewtwoBattleStadium_Ch4_ditty7
	sound_call Music_MewtwoBattleStadium_Ch4_ditty12
	sound_call Music_MewtwoBattleStadium_Ch4_ditty7
	sound_call Music_MewtwoBattleStadium_Ch4_ditty8
	sound_call Music_MewtwoBattleStadium_Ch4_ditty7
	sound_call Music_MewtwoBattleStadium_Ch4_ditty10
	sound_call Music_MewtwoBattleStadium_Ch4_ditty7
	sound_call Music_MewtwoBattleStadium_Ch4_ditty11
	sound_call Music_MewtwoBattleStadium_Ch4_ditty7
	sound_call Music_MewtwoBattleStadium_Ch4_ditty15
	sound_call Music_MewtwoBattleStadium_Ch4_ditty7
	sound_call Music_MewtwoBattleStadium_Ch4_ditty10
	sound_call Music_MewtwoBattleStadium_Ch4_ditty7
	sound_call Music_MewtwoBattleStadium_Ch4_ditty8
	sound_call Music_MewtwoBattleStadium_Ch4_ditty7
	sound_call Music_MewtwoBattleStadium_Ch4_ditty10
	sound_call Music_MewtwoBattleStadium_Ch4_ditty7
	sound_call Music_MewtwoBattleStadium_Ch4_ditty11
	sound_call Music_MewtwoBattleStadium_Ch4_ditty7
	sound_call Music_MewtwoBattleStadium_Ch4_ditty15
	sound_loop 4, Music_MewtwoBattleStadium_Ch4_loop8
	note D#, 1
	sound_call Music_MewtwoBattleStadium_Ch4_ditty19
	note F#, 1
	sound_call Music_MewtwoBattleStadium_Ch4_ditty7
	note D#, 2
	note A_, 2
	note __, 1
	sound_call Music_MewtwoBattleStadium_Ch4_ditty7
	sound_call Music_MewtwoBattleStadium_Ch4_ditty17
	sound_call Music_MewtwoBattleStadium_Ch4_ditty7
	sound_call Music_MewtwoBattleStadium_Ch4_ditty23
	sound_call Music_MewtwoBattleStadium_Ch4_ditty24
	sound_call Music_MewtwoBattleStadium_Ch4_ditty7
	sound_call Music_MewtwoBattleStadium_Ch4_ditty23
	sound_call Music_MewtwoBattleStadium_Ch4_ditty7
	note E_, 1
	sound_call Music_MewtwoBattleStadium_Ch4_ditty19
	sound_call Music_MewtwoBattleStadium_Ch4_ditty25
	sound_call Music_MewtwoBattleStadium_Ch4_ditty21
	sound_call Music_MewtwoBattleStadium_Ch4_ditty20
	sound_call Music_MewtwoBattleStadium_Ch4_ditty1
	sound_call Music_MewtwoBattleStadium_Ch4_ditty22
	sound_call Music_MewtwoBattleStadium_Ch4_ditty18
	note D#, 2
	note A_, 2
	note __, 2
	sound_call Music_MewtwoBattleStadium_Ch4_ditty7
	sound_call Music_MewtwoBattleStadium_Ch4_ditty17
	sound_call Music_MewtwoBattleStadium_Ch4_ditty7
	sound_call Music_MewtwoBattleStadium_Ch4_ditty23
	sound_call Music_MewtwoBattleStadium_Ch4_ditty24
	sound_call Music_MewtwoBattleStadium_Ch4_ditty7
	sound_call Music_MewtwoBattleStadium_Ch4_ditty23
	sound_call Music_MewtwoBattleStadium_Ch4_ditty7
	note E_, 1
	sound_call Music_MewtwoBattleStadium_Ch4_ditty19
	sound_call Music_MewtwoBattleStadium_Ch4_ditty25
	sound_call Music_MewtwoBattleStadium_Ch4_ditty21
	sound_call Music_MewtwoBattleStadium_Ch4_ditty20
	sound_call Music_MewtwoBattleStadium_Ch4_ditty1
	sound_call Music_MewtwoBattleStadium_Ch4_ditty22
	sound_call Music_MewtwoBattleStadium_Ch4_ditty18
	note A_, 1
	note E_, 1
	sound_call Music_MewtwoBattleStadium_Ch4_ditty15
Music_MewtwoBattleStadium_Ch4_loop9:
	sound_call Music_MewtwoBattleStadium_Ch4_ditty7
	sound_call Music_MewtwoBattleStadium_Ch4_ditty9
	sound_call Music_MewtwoBattleStadium_Ch4_ditty7
	sound_call Music_MewtwoBattleStadium_Ch4_ditty13
	sound_call Music_MewtwoBattleStadium_Ch4_ditty7
	sound_call Music_MewtwoBattleStadium_Ch4_ditty9
	sound_call Music_MewtwoBattleStadium_Ch4_ditty7
	sound_call Music_MewtwoBattleStadium_Ch4_ditty13
	sound_call Music_MewtwoBattleStadium_Ch4_ditty7
	sound_call Music_MewtwoBattleStadium_Ch4_ditty9
	sound_call Music_MewtwoBattleStadium_Ch4_ditty7
	sound_call Music_MewtwoBattleStadium_Ch4_ditty13
	sound_call Music_MewtwoBattleStadium_Ch4_ditty7
	sound_call Music_MewtwoBattleStadium_Ch4_ditty9
	sound_call Music_MewtwoBattleStadium_Ch4_ditty7
	sound_call Music_MewtwoBattleStadium_Ch4_ditty16
	sound_call Music_MewtwoBattleStadium_Ch4_ditty7
	sound_call Music_MewtwoBattleStadium_Ch4_ditty14
	sound_loop 3, Music_MewtwoBattleStadium_Ch4_loop9
Music_MewtwoBattleStadium_Ch4_loop10:
	sound_call Music_MewtwoBattleStadium_Ch4_ditty7
	sound_call Music_MewtwoBattleStadium_Ch4_ditty9
	sound_call Music_MewtwoBattleStadium_Ch4_ditty7
	sound_call Music_MewtwoBattleStadium_Ch4_ditty13
	sound_loop 3, Music_MewtwoBattleStadium_Ch4_loop10
	sound_call Music_MewtwoBattleStadium_Ch4_ditty7
	sound_call Music_MewtwoBattleStadium_Ch4_ditty16
	sound_call Music_MewtwoBattleStadium_Ch4_ditty23
	sound_call Music_MewtwoBattleStadium_Ch4_ditty7
	sound_call Music_MewtwoBattleStadium_Ch4_ditty1
	sound_call Music_MewtwoBattleStadium_Ch4_ditty23
	sound_jump Music_MewtwoBattleStadium_Ch4_loop

Music_MewtwoBattleStadium_Ch4_ditty1:
	note E_, 1
	note E_, 1
	note E_, 2
	endchannel

Music_MewtwoBattleStadium_Ch4_ditty2:
	note E_, 1
	note E_, 1
	note D#, 2
	note E_, 1
	note D#, 1
	note E_, 2
Music_MewtwoBattleStadium_Ch4_ditty6:
	note E_, 1
	note E_, 1
	note D#, 2
	endchannel

Music_MewtwoBattleStadium_Ch4_ditty3:
	note F#, 3
	note __, 1
	note E_, 1
	note E_, 3
	note __, 1
	noisesampleset 0
	note A#, 3
	noisesampleset 1
	note E_, 1
	note E_, 1
	note F#, 1
	note E_, 1
	note __, 1
	note E_, 3
	note E_, 1
	note E_, 1
	noisesampleset 0
	note A#, 3
	note A#, 3
	noisesampleset 1
	note E_, 1
	note E_, 1
	note F#, 1
	note E_, 1
	note E_, 1
	note E_, 3
	note E_, 1
	note E_, 3
	note __, 1
	noisesampleset 0
	note A#, 3
	noisesampleset 1
	note E_, 1
	note E_, 1
	note F#, 1
	note E_, 1
	note __, 1
	note E_, 3
	note E_, 1
	note E_, 1
	noisesampleset 0
	note A#, 3
	note A#, 3
	note A#, 2
	note A#, 1
	note A#, 1
	noisesampleset 1
	endchannel

Music_MewtwoBattleStadium_Ch4_ditty4:
	note F#, 2
	note E_, 1
	note E_, 1
	endchannel

Music_MewtwoBattleStadium_Ch4_ditty5:
	note E_, 1
	note E_, 1
	note E_, 1
	note E_, 1
	endchannel

Music_MewtwoBattleStadium_Ch4_ditty7:
	noisesampleset 0
	note A#, 1
	noisesampleset 1
	endchannel

Music_MewtwoBattleStadium_Ch4_ditty8:
	note E_, 1
	note F#, 2
	note D#, 1
	note F#, 1
	note D#, 1
	note E_, 1
	endchannel

Music_MewtwoBattleStadium_Ch4_ditty9:
	note E_, 1
	note F#, 1
	note E_, 1
	note E_, 1
	note E_, 1
	note F#, 1
	note D#, 1
	endchannel

Music_MewtwoBattleStadium_Ch4_ditty10:
	note E_, 1
	note F#, 2
	note D#, 1
	note F#, 1
	note E_, 1
	note D#, 1
	endchannel

Music_MewtwoBattleStadium_Ch4_ditty11:
	note E_, 1
	note F#, 2
	note E_, 1
	endchannel

Music_MewtwoBattleStadium_Ch4_ditty12:
	note A_, 1
	note F#, 1
	note E_, 1
	note D#, 1
	endchannel

Music_MewtwoBattleStadium_Ch4_ditty13:
	note E_, 1
	note F#, 1
	note E_, 1
Music_MewtwoBattleStadium_Ch4_ditty14:
	note D#, 1
	note E_, 1
Music_MewtwoBattleStadium_Ch4_ditty15:
	note F#, 1
	note D#, 1
	endchannel

Music_MewtwoBattleStadium_Ch4_ditty16:
	note E_, 1
	note F#, 1
	endchannel

Music_MewtwoBattleStadium_Ch4_ditty17:
	note E_, 1
	note E_, 3
	note __, 1
	note E_, 1
	note E_, 1
	endchannel

Music_MewtwoBattleStadium_Ch4_ditty18:
	noisesampleset 0
	note A#, 2
	note A#, 1
	note A#, 1
	note A#, 1
	note A#, 1
	noisesampleset 1
	endchannel

Music_MewtwoBattleStadium_Ch4_ditty19:
	noisesampleset 0
	note A#, 1
	note A#, 1
	noisesampleset 1
	endchannel

Music_MewtwoBattleStadium_Ch4_ditty20:
	noisesampleset 0
	note A#, 3
	note A#, 2
	note A#, 1
	note A#, 1
	note A#, 2
	noisesampleset 1
	endchannel

Music_MewtwoBattleStadium_Ch4_ditty21:
	note A_, 1
	note E_, 1
	note E_, 2
	endchannel

Music_MewtwoBattleStadium_Ch4_ditty22:
	note A_, 2
Music_MewtwoBattleStadium_Ch4_ditty23:
	note E_, 1
	note E_, 1
	endchannel

Music_MewtwoBattleStadium_Ch4_ditty24:
	noisesampleset 0
	note A#, 3
	note __, 2
	noisesampleset 1
	note A_, 2
	note __, 1
	endchannel

Music_MewtwoBattleStadium_Ch4_ditty25:
	note D#, 2
	noisesampleset 0
	note A#, 3
	noisesampleset 1
	endchannel
