; Pokémon B2/W2 - Marine Tube
; Demixed by Mmmmmm
; https://pastebin.com/nGD7xAga
; https://hax.iimarckus.org/topic/6777/

Music_MarineTubeB2W2:
	channel_count 4
	channel 1, Music_MarineTubeB2W2_Ch1
	channel 2, Music_MarineTubeB2W2_Ch2
	channel 3, Music_MarineTubeB2W2_Ch3
	channel 4, Music_MarineTubeB2W2_Ch4

Music_MarineTubeB2W2_Ch1:
	tempo 132
	sound_duty 3, 3, 3, 3
	vibrato $12, $15
	tone $0001
	note_type 12, 6, 1
	octave 6
	note A#, 1
	octave 7
	note C_, 1
	octave 6
	note F_, 1
	note G_, 1
	note D_, 1
	note D#, 1
	octave 5
	note A#, 1
	octave 6
	note C_, 1
	octave 5
	note F_, 1
	note G_, 1
	note D_, 1
	note D#, 1
	octave 4
	note A#, 1
	octave 5
	note C_, 1
	octave 4
	note F_, 1
	note G_, 1
	note D_, 1
	note D#, 1
	octave 3
	note A#, 1
	octave 4
	note C_, 1
	octave 3
	note F_, 1
	note G_, 1
	note D_, 1
	note D#, 1
	octave 2
	note A#, 1
	octave 3
	note C_, 1
	octave 2
	note F_, 1
	note G_, 1
	note D_, 1
	note D#, 1
	octave 1
	note A#, 1
	octave 2
	note C_, 1
	note D_, 1
	note F#, 1
	note A#, 1
	note A_, 1
	octave 3
	note D_, 1
	note C#, 1
	note F#, 1
	note F_, 1
	note A#, 1
	note A_, 1
	octave 4
	note D_, 1
	note C#, 1
	note F#, 1
	note F_, 1
	note A#, 1
	note A_, 1
	octave 5
	note D_, 1
	note C#, 1
	note F#, 1
	note F_, 1
	note A#, 1
	note A_, 1
	octave 6
	note D_, 1
	note C#, 1
	note F#, 1
	note F_, 1
	note A#, 1
	note A_, 1
	octave 7
	note D_, 1
	note C#, 1
	note F#, 1
	note F_, 1
	note G_, 1
	note G#, 1
	note D#, 1
	note F_, 1
	octave 6
	note A#, 1
	octave 7
	note C_, 1
	octave 6
	note G_, 1
	note G#, 1
	note D#, 1
	note F_, 1
	octave 5
	note A#, 1
	octave 6
	note C_, 1
	octave 5
	note G_, 1
	note G#, 1
	note D#, 1
	note F_, 1
	octave 4
	note A#, 1
	octave 5
	note C_, 1
	octave 4
	note G_, 1
	note G#, 1
	note D#, 1
	note F_, 1
	octave 3
	note A#, 1
	octave 4
	note C_, 1
	octave 3
	note G_, 1
	note G#, 1
	note D#, 1
	note F_, 1
	octave 2
	note A#, 1
	octave 3
	note C_, 1
	octave 2
	note G_, 1
	note G#, 1
	note G#, 1
	note G_, 1
	octave 3
	note C_, 1
	octave 2
	note A#, 1
	octave 3
	note D#, 1
	note D_, 1
	note G#, 1
	note G_, 1
	octave 4
	note C_, 1
	octave 3
	note A#, 1
	octave 4
	note D#, 1
	note D_, 1
	note G#, 1
	note G_, 1
	octave 5
	note C_, 1
	octave 4
	note A#, 1
	octave 5
	note D#, 1
	note D_, 1
	note G#, 1
	note G_, 1
	octave 6
	note C_, 1
	octave 5
	note A#, 1
	octave 6
	note D#, 1
	note D_, 1
	note G#, 1
	note G_, 1
	octave 7
	note C_, 1
	octave 6
	note A#, 1
	octave 7
	note D#, 1
	note D_, 1
	note G_, 1
	note F#, 1
	intensity $50
	sound_duty 2, 2, 0, 0
	octave 3
	note G_, 8
	note F_, 8
	note D#, 8
	note D_, 8
	note C#, 8
	note C_, 8
	note E_, 8
	note G_, 8
	note G#, 8
	note G_, 8
	note F_, 8
	note D#, 8
	octave 2
	note B_, 8
	note A#, 8
	octave 3
	note F#, 8
	note F_, 8
	sound_duty 2, 2, 2, 2
	intensity $60
	note D_, 8
	note C_, 8
	note A#, 8
	note G#, 8
	note E_, 8
	note F_, 8
	note F#, 8
	note G_, 8
	note_type 8, 8, 7
	note A#, 4
	octave 3
	intensity $82
	note G#, 4
	note G_, 2
	note G#, 2
	note_type 12, 8, 7
	note G#, 10
	octave 4
	note D#, 4
	octave 3
	note A#, 4
	note G#, 4
	note G#, 1
	note A_, 1
	note_type 8, 8, 7
	note A#, 4
	octave 3
	intensity $82
	note G#, 4
	note G_, 2
	note G#, 2
	note_type 12, 8, 7
	note G#, 4
	note D#, 6
	note F_, 8
	note F_, 6
	sound_duty 1, 1, 1, 1
	intensity $84
	octave 1
	note G_, 2
	octave 2
	note D_, 2
	note F_, 2
	note A#, 2
	note F_, 2
	note D_, 2
	note F_, 2
	note A#, 2
	note F_, 2
	note D_, 2
	note F_, 2
	note A#, 2
	note B_, 2
	octave 3
	note C_, 2
	note D_, 2
	note D#, 2
	octave 2
	note C_, 2
	note E_, 2
	note G_, 2
	note A#, 2
	octave 3
	note C_, 2
	note E_, 2
	note G_, 2
	octave 4
	note C_, 2
	note_type 8, 8, 2
	note G_, 2
	note E_, 2
	note C_, 2
	octave 3
	note G_, 2
	note E_, 2
	note C_, 2
	octave 4
	note E_, 2
	note C_, 2
	octave 3
	note G_, 2
	note_type 12, 8, 2
	note E_, 1
	note C_, 1
	octave 2
	note G_, 1
	note E_, 1
	octave 3
	note_type 8, 8, 4
	note D#, 4
	note C_, 4
	octave 2
	note B_, 2
	octave 3
	note C_, 2
	note C_, 6
	note D#, 6
	note_type 12, 8, 1
	octave 2
	note G#, 1
	octave 3
	note C_, 1
	note D#, 1
	note G#, 1
	octave 4
	note C_, 1
	note D#, 1
	note G_, 1
	note G#, 1
	octave 5
	note C_, 1
	octave 4
	note G#, 1
	note D#, 1
	note C_, 1
	octave 3
	note G#, 1
	note D#, 1
	note D_, 1
	note D#, 1
	note_type 8, 8, 4
	note D#, 4
	octave 2
	note B_, 4
	note A#, 2
	note B_, 2
	note B_, 6
	note F#, 6
	note F_, 6
	note D#, 6
	note D_, 9
	note F_, 3
	note_type 12, 8, 1
	note D#, 1
	octave 3
	note C_, 1
	octave 2
	note G#, 1
	octave 3
	note G#, 1
	octave 2
	note D#, 1
	octave 4
	note D#, 1
	octave 2
	note G#, 1
	octave 5
	note C_, 1
	octave 2
	note D#, 1
	octave 5
	note C_, 1
	octave 2
	note G#, 1
	octave 4
	note D#, 1
	octave 2
	note D#, 1
	octave 3
	note G#, 1
	note D#, 1
	note C_, 1
	octave 2
	note D#, 1
	note B_, 1
	note G#, 1
	octave 3
	note G#, 1
	octave 2
	note D#, 1
	octave 4
	note D#, 1
	octave 2
	note G#, 1
	octave 4
	note B_, 1
	octave 2
	note D#, 1
	octave 4
	note B_, 1
	octave 2
	note G#, 1
	octave 4
	note D#, 1
	octave 2
	note D#, 1
	octave 3
	note G#, 1
	note D#, 1
	octave 2
	note B_, 1
	octave 1
	note A#, 1
	octave 2
	note G_, 1
	note D#, 1
	octave 3
	note D#, 1
	octave 1
	note A#, 1
	octave 3
	note A#, 1
	octave 2
	note D#, 1
	octave 4
	note G_, 1
	octave 1
	note A#, 1
	octave 4
	note G_, 1
	octave 2
	note D#, 1
	octave 3
	note A#, 1
	octave 1
	note A#, 1
	octave 3
	note D#, 1
	octave 2
	note A#, 1
	note G_, 1
	note D#, 1
	note G_, 1
	note A#, 1
	octave 3
	note D#, 1
	note G_, 1
	note A#, 1
	octave 4
	note D_, 1
	note G_, 1
	note A#, 1
	note G_, 1
	note D_, 1
	octave 3
	note A#, 1
	note G_, 1
	note D#, 1
	octave 2
	note A#, 1
	note G_, 1
	note A#, 16
	note __, 16
	note __, 16
	note __, 16
	jumpchannel Music_MarineTubeB2W2_Ch1

Music_MarineTubeB2W2_Ch2:
	vibrato $8, $26
	tone $0001
	note_type 12, 10, 0
	sound_duty 2, 2, 2, 2
	octave 5
	note F_, 8
	intensity $a7
	note F_, 6
	note E_, 1
	note D#, 1
	note D_, 2
	note F_, 4
	octave 4
	note A#, 6
	note A_, 2
	note A#, 2
	octave 5
	intensity $a0
	note D_, 8
	intensity $a7
	note D_, 6
	note D#, 2
	note D_, 2
	note C_, 2
	octave 4
	note B_, 2
	octave 5
	note C_, 4
	note D_, 4
	note D#, 2
	intensity $a0
	note G_, 8
	intensity $a7
	note G_, 6
	note F#, 1
	note F_, 1
	note D#, 2
	note G_, 4
	note C_, 6
	octave 4
	note B_, 2
	octave 5
	note C_, 2
	intensity $a0
	note D_, 8
	intensity $a7
	note D_, 6
	note D#, 2
	note F_, 4
	note D#, 2
	note D_, 4
	note C_, 6
	intensity $a0
	note G_, 16
	intensity $a7
	note G_, 12
	note A#, 2
	note G#, 2
	intensity $a0
	note G_, 4
	intensity $a7
	note G_, 8
	note F_, 4
	note E_, 2
	note G_, 4
	note C#, 6
	note C_, 4
	intensity $a0
	note G#, 16
	note_type 8, 10, 7
	note G#, 16
	octave 6
	note C_, 4
	octave 5
	note A#, 4
	note_type 12, 10, 0
	note G#, 4
	intensity $a7
	note G#, 12
	intensity $a0
	note A#, 4
	intensity $a7
	note A#, 12
	sound_duty 0, 0, 0, 0
	note C_, 4
	octave 4
	intensity $a0
	note A#, 12
	intensity $a7
	note A#, 12
	note D_, 2
	note D#, 2
	intensity $a0
	note A#, 16
	intensity $a7
	note A#, 16
	note_type 8, 10, 7
	note A#, 4
	note G#, 4
	note G_, 2
	note G#, 2
	note_type 12, 10, 0
	note G#, 12
	intensity $a7
	note G#, 8
	note G_, 2
	note G#, 2
	note_type 8, 10, 7
	note A#, 4
	note G#, 4
	note G_, 2
	note G#, 2
	note_type 12, 10, 7
	note G#, 6
	note G_, 1
	note G#, 1
	intensity $a0
	note F_, 4
	intensity $a7
	note F_, 12
	sound_duty 2, 2, 0, 0
	octave 5
	note C_, 6
	note D_, 2
	octave 4
	intensity $a0
	note A#, 10
	intensity $a7
	note A#, 10
	note D_, 2
	note D#, 2
	intensity $a0
	note A#, 16
	intensity $a7
	note A#, 16
	note_type 8, 10, 7
	note A#, 4
	note G#, 4
	intensity $a2
	note G_, 2
	note G#, 2
	note_type 12, 10, 0
	note G#, 12
	intensity $a7
	note G#, 10
	note G_, 1
	note G#, 1
	intensity $a0
	note F_, 16
	intensity $a7
	note F_, 16
	vibrato $8, $48
	intensity $b0
	note D#, 8
	intensity $b7
	note D#, 8
	intensity $b0
	note F_, 8
	intensity $b7
	note F_, 8
	intensity $c0
	note G_, 16
	intensity $c7
	note G_, 16
	note __, 16
	note __, 12
	sound_duty 0, 0, 0, 0
	intensity $20
	octave 1
	note A#, 2
	octave 2
	note A#, 2
	note __, 2
	octave 1
	note A#, 2
	octave 2
	note A#, 2
	note __, 2
	intensity $30
	octave 1
	note A#, 2
	octave 2
	note A#, 2
	note __, 2
	octave 1
	note A#, 2
	octave 2
	note A#, 2
	note __, 2
	intensity $40
	octave 1
	note A#, 2
	octave 2
	note A#, 2
	note __, 2
	octave 1
	note A#, 2
	octave 2
	note A#, 2
	note __, 2
	jumpchannel Music_MarineTubeB2W2_Ch2

Music_MarineTubeB2W2_Ch3:
	note_type 12, 1, 2
	vibrato $12, $15
	octave 3
	note G_, 2
	intensity $32
	note G_, 2
	intensity $12
	octave 2
	note A#, 10
	octave 3
	note G_, 2
	octave 2
	note A#, 2
	octave 3
	note G_, 4
	octave 2
	note A#, 2
	intensity $32
	note A#, 2
	intensity $12
	note A#, 2
	intensity $32
	note A#, 2
	intensity $12
	note A#, 2
	octave 3
	note F#, 2
	intensity $32
	note F#, 2
	intensity $12
	octave 2
	note A_, 10
	octave 3
	note F#, 2
	octave 2
	note A_, 2
	octave 3
	note F#, 4
	octave 2
	note A_, 4
	octave 3
	note D#, 2
	note D_, 2
	note D#, 2
	note G#, 2
	intensity $32
	note G#, 2
	intensity $12
	note C_, 10
	note G#, 2
	note C_, 2
	note G#, 4
	note C_, 4
	note C_, 2
	octave 2
	note B_, 2
	octave 3
	note C_, 2
	note G#, 2
	intensity $32
	note G#, 2
	intensity $12
	octave 2
	note A#, 10
	octave 3
	note G#, 4
	note A#, 2
	note A#, 2
	note G#, 4
	note F_, 4
	octave 2
	note A#, 2
	octave 3
	note G_, 2
	intensity $32
	note G_, 2
	intensity $12
	note D_, 10
	note G_, 2
	octave 2
	note A#, 2
	note A_, 2
	note A#, 2
	octave 3
	note C_, 2
	note D_, 2
	note D#, 2
	note F_, 2
	note F#, 2
	note G_, 2
	intensity $32
	note G_, 2
	intensity $12
	note C#, 10
	note G_, 2
	note C#, 2
	note G_, 4
	note C#, 2
	intensity $32
	note C#, 2
	intensity $12
	note C#, 2
	note G_, 4
	note G#, 2
	intensity $32
	note G#, 2
	intensity $12
	note C_, 10
	note G#, 2
	note C_, 2
	octave 2
	note B_, 2
	octave 3
	note C_, 2
	note D_, 2
	note_type 8, 1, 2
	note D#, 2
	note F_, 2
	note G_, 2
	note G#, 2
	note A#, 2
	octave 4
	note C_, 2
	note_type 12, 1, 2
	note D#, 2
	intensity $32
	note D#, 2
	intensity $12
	octave 3
	note B_, 4
	note G#, 2
	intensity $32
	note G#, 2
	intensity $12
	note F_, 4
	note D_, 2
	note F#, 6
	note D_, 1
	octave 4
	note C_, 1
	note D_, 1
	note D#, 1
	note F_, 1
	note G_, 1
	note G#, 1
	note A#, 1
	note F_, 8
	note D#, 8
	note D_, 8
	note C_, 8
	octave 3
	note A#, 8
	octave 4
	note A#, 8
	note G#, 8
	note G_, 8
	note C_, 8
	note D#, 8
	note __, 2
	octave 5
	note D#, 4
	octave 4
	note G#, 4
	note D#, 4
	octave 3
	note A#, 2
	note B_, 8
	note D#, 8
	note __, 2
	octave 4
	note C_, 6
	note __, 2
	note D_, 6
	note F_, 8
	note D#, 8
	note G_, 8
	note G#, 8
	note A#, 16
	note __, 2
	octave 5
	note E_, 4
	octave 4
	note A#, 2
	note G#, 4
	note G_, 4
	note D#, 8
	note G#, 8
	note_type 8, 1, 2
	note A#, 4
	note G#, 2
	note __, 2
	note G#, 2
	note G_, 2
	note_type 12, 1, 2
	note G#, 8
	note D#, 8
	octave 3
	note B_, 8
	note_type 8, 1, 2
	note A#, 4
	note G#, 2
	note __, 2
	note G_, 2
	note G#, 2
	note_type 12, 1, 2
	note F_, 8
	note G#, 16
	note B_, 16
	note A#, 16
	intensity $22
	note A#, 16
	intensity $12
	octave 1
	note A#, 1
	note __, 1
	note A#, 2
	note __, 8
	note A#, 1
	note __, 1
	note A#, 2
	note __, 4
	octave 2
	note A#, 4
	octave 1
	note A#, 1
	note __, 1
	note A#, 2
	note __, 4
	note A#, 1
	note __, 1
	note A#, 1
	note __, 1
	note A#, 2
	note __, 2
	octave 2
	note A#, 4
	octave 1
	note A#, 1
	note __, 1
	note A#, 2
	note __, 4
	octave 2
	note A#, 4
	octave 1
	note A#, 1
	note __, 1
	note A#, 2
	note __, 4
	jumpchannel Music_MarineTubeB2W2_Ch3

Music_MarineTubeB2W2_Ch4:
	togglenoise $3
	note_type 12
Music_MarineTubeB2W2_Ch4_loop_main:
Music_MarineTubeB2W2_Ch4_loop_1:
	note D_, 2
	note G_, 2
	note D#, 2
	note G_, 2
	note C_, 2
	note G_, 2
	note G_, 2
	note D#, 2
	note D_, 2
	note D#, 2
	note D#, 2
	note G_, 2
	note C_, 2
	note G_, 2
	note D#, 2
	note D_, 2
	loopchannel 8, Music_MarineTubeB2W2_Ch4_loop_1
	callchannel Music_MarineTubeB2W2_Ch4_branch_1
	note D#, 2
	note D_, 2
	note B_, 4
	note G_, 2
	note C_, 2
	note D#, 2
	note D_, 1
	note D_, 1
	note_type 8
	note C_, 4
	note C_, 4
	note D#, 2
	note D#, 2
	note_type 12
	note D#, 2
	note D_, 2
	note C_, 2
	note G_, 2
	note D#, 2
	note D_, 2
	note G_, 2
	note C_, 2
	note D#, 2
	note D_, 2
	note G_, 2
	note C_, 2
	note D#, 2
	note D_, 2
	note D_, 4
	note C_, 2
	note D#, 2
	note D_, 2
	note D_, 2
	note D#, 2
	note D_, 2
	note G_, 2
	note D_, 2
	note G_, 2
	note D_, 2
	note G_, 2
	note D_, 1
	note C_, 1
	callchannel Music_MarineTubeB2W2_Ch4_branch_1
	note D#, 2
	note D_, 2
	note D_, 2
	note D_, 2
	note D#, 2
	note D_, 2
	note D_, 2
	note D_, 2
	note D#, 2
	note D_, 2
	note D_, 2
	note D#, 1
	note G_, 1
	note D#, 2
	note G_, 2
	note D_, 2
	note D_, 2
	note D#, 2
	note C_, 2
	note C_, 2
	note G_, 2
	note C_, 2
	note G_, 2
	note D_, 2
	note D_, 2
Music_MarineTubeB2W2_Ch4_loop_2:
	note D#, 2
	note D_, 2
	note B_, 2
	note G_, 2
	note C_, 2
	note G_, 2
	note D_, 2
	note D_, 2
	loopchannel 6, Music_MarineTubeB2W2_Ch4_loop_2
Music_MarineTubeB2W2_Ch4_loop_3:
	note D#, 2
	note D#, 2
	note D_, 2
	note G_, 2
	note B_, 4
	note D#, 2
	note D#, 2
	note D_, 2
	note G_, 2
	note B_, 4
	note D#, 2
	note D#, 2
	note D_, 2
	note G_, 2
	loopchannel 2, Music_MarineTubeB2W2_Ch4_loop_3
	jumpchannel Music_MarineTubeB2W2_Ch4_loop_main

Music_MarineTubeB2W2_Ch4_branch_1:
	note D_, 2
	note G_, 2
	note D#, 2
	note G_, 2
	note C_, 2
	note D#, 2
	note G_, 2
	note D#, 2
	note G_, 2
	note C_, 2
	note D#, 2
	note C_, 2
	note D#, 2
	note G_, 2
	note D_, 2
	note D_, 2
	note D_, 2
	note G_, 2
	note D#, 2
	note G_, 2
	note C_, 2
	note D#, 2
	note G_, 2
	note D#, 2
	endchannel
