; Pokémon White 2 - White Treehollow
; Demixed by Mmmmmm
; https://pastebin.com/dN9gyXXX
; https://hax.iimarckus.org/topic/6777/4/

Music_WhiteTreehollowWhite2:
	channel_count 4
	channel 1, Music_WhiteTreehollowWhite2_Ch1
	channel 2, Music_WhiteTreehollowWhite2_Ch2
	channel 3, Music_WhiteTreehollowWhite2_Ch3
	channel 4, Music_WhiteTreehollowWhite2_Ch4

Music_WhiteTreehollowWhite2_Ch1:
	tempo 176
	volume 7, 7
	duty_cycle 3
	pitch_offset 2
	vibrato 8, 1, 5
	note_type 12, 6, 2
	octave 4
	note A#, 1
	note D#, 1
	note F_, 1
	note D#, 1
	octave 3
	note A#, 1
	octave 4
	note A#, 1
	note D#, 1
	note G#, 1
Music_WhiteTreehollowWhite2_Ch1_loop:
	octave 4
	duty_cycle 3
	volume_envelope 6, 2
	note G_, 1
	octave 3
	note A#, 1
	octave 4
	note C_, 1
	note D#, 1
	note A#, 1
	note D#, 1
	note C_, 1
	note G_, 1
	note D#, 1
	note A#, 1
	octave 3
	note A#, 1
	octave 4
	note D#, 1
	note G#, 1
	note G_, 1
	note D#, 1
	note F_, 1
	note A#, 1
	octave 3
	note A#, 1
	octave 4
	note F_, 1
	note D#, 1
	note F_, 1
	note A#, 1
	octave 3
	note A#, 1
	octave 4
	note D#, 1
	note A#, 1
	note D#, 1
	note F_, 1
	note D#, 1
	octave 3
	note A#, 1
	octave 4
	note A#, 1
	note D#, 1
	note G#, 1
	note G_, 1
	octave 3
	note A#, 1
	octave 4
	note C_, 1
	note D#, 1
	note A#, 1
	note D#, 1
	note C_, 1
	note G_, 1
	note D#, 1
	note A#, 1
	octave 3
	note A#, 1
	octave 4
	note D#, 1
	note G#, 1
	note G_, 1
	note D#, 1
	note F_, 1
	note A#, 1
	octave 3
	note A#, 1
	octave 4
	note F_, 1
	note D#, 1
	note F_, 1
	note A#, 1
	octave 3
	note A#, 1
	octave 4
	note D#, 1
	note A#, 1
	note D_, 1
	note F_, 1
	note D_, 1
	octave 3
	note A#, 1
	octave 4
	note A#, 1
	note D_, 1
	note G#, 1
	note G_, 1
	octave 3
	note A#, 1
	octave 4
	note C_, 1
	note D#, 1
	note A#, 1
	note D#, 1
	note C_, 1
	note G_, 1
	note D#, 1
	note A#, 1
	octave 3
	note A#, 1
	octave 4
	note D#, 1
	note G#, 1
	note G_, 1
	note D#, 1
	note F_, 1
	note A#, 1
	octave 3
	note A#, 1
	octave 4
	note F_, 1
	note D#, 1
	note F_, 1
	note A#, 1
	octave 3
	note A#, 1
	octave 4
	note D#, 1
	note G_, 1
	note D_, 1
	note F_, 1
	note D_, 1
	octave 3
	note A#, 1
	octave 4
	note A#, 1
	note D_, 1
	note G#, 1
	note G_, 1
	octave 3
	note A#, 1
	octave 4
	note C_, 1
	note D#, 1
	note A#, 1
	note D#, 1
	note C_, 1
	note G_, 1
	note D#, 1
	note A#, 1
	octave 3
	note A#, 1
	octave 4
	note D#, 1
	note G#, 1
	note G_, 1
	note D#, 1
	note F_, 1
	note A#, 1
	octave 3
	note A#, 1
	octave 4
	note F_, 1
	note D#, 1
	note F_, 1
	note A#, 1
	octave 3
	note A#, 1
	octave 4
	note D#, 1
	octave 3
	note A#, 1
	octave 4
	note F_, 1
	note D#, 1
	note A#, 1
	note D#, 1
	note F_, 1
	octave 3
	note A#, 1
	octave 4
	note D#, 1
	note G_, 1
	note F_, 1
	note A#, 1
	octave 3
	note A#, 1
	octave 4
	note F_, 1
	note D#, 1
	octave 3
	note A#, 1
	octave 4
	note F_, 1
	octave 3
	note A#, 1
	octave 4
	note F_, 1
	note D_, 1
	note A#, 1
	note D_, 1
	note F_, 1
	octave 3
	note A#, 1
	octave 4
	note D_, 1
	note G_, 1
	note F_, 1
	note A#, 1
	octave 3
	note A#, 1
	octave 4
	note F_, 1
	note D_, 1
	octave 3
	note A#, 1
	octave 4
	note F_, 1
	duty_cycle 1
	volume_envelope 8, 4
	octave 2
	note C_, 1
	octave 3
	note G_, 2
	octave 2
	note C_, 1
	octave 3
	note G_, 2
	octave 1
	note A#, 1
	octave 3
	note G_, 1
	rest 5
	note G_, 3
	note F_, 1
	note F_, 1
	octave 1
	note F_, 1
	note A#, 2
	octave 3
	note D_, 1
	octave 1
	note A#, 1
	octave 2
	note C_, 1
	octave 3
	note G_, 2
	octave 2
	note C_, 1
	octave 3
	note G_, 5
	octave 1
	note C_, 1
	octave 3
	note A#, 2
	octave 1
	note C_, 1
	octave 3
	note A#, 2
	octave 1
	note A#, 1
	octave 4
	note C_, 6
	note C_, 3
	octave 3
	note A#, 1
	note A#, 1
	octave 1
	note F_, 1
	note A#, 2
	octave 3
	note A#, 1
	octave 1
	note A#, 1
	octave 2
	note D#, 1
	octave 3
	note A#, 2
	octave 2
	note D#, 1
	octave 3
	note A#, 2
	note A#, 1
	rest 3
	note_type 3, 4, 2
	octave 7
	note D#, 2
	note D_, 2
	note C#, 2
	note C_, 2
	octave 6
	note B_, 2
	note A#, 2
	note A_, 2
	note G#, 2
	note G_, 2
	note F#, 2
	note F_, 2
	note E_, 2
	sound_call Music_WhiteTreehollowWhite2_Ch1_branch_1
	rest 8
	octave 6
	note G_, 2
	note F#, 2
	note F_, 2
	note E_, 2
	note D#, 2
	note D_, 2
	note C#, 2
	note C_, 2
	octave 5
	note B_, 2
	note A#, 2
	note A_, 2
	note G#, 2
	sound_call Music_WhiteTreehollowWhite2_Ch1_branch_1
	rest 8
	octave 6
	note A#, 2
	note A_, 2
	note G#, 2
	note G_, 2
	note F#, 2
	note F_, 2
	note E_, 2
	note D#, 2
	note D_, 2
	note C#, 2
	note C_, 2
	octave 5
	note B_, 2
	sound_call Music_WhiteTreehollowWhite2_Ch1_branch_1
	rest 8
	octave 7
	note D#, 2
	note D_, 2
	note C#, 2
	note C_, 2
	octave 6
	note B_, 2
	note A#, 2
	note A_, 2
	note G#, 2
	note G_, 2
	note F#, 2
	note F_, 2
	note E_, 2
	sound_call Music_WhiteTreehollowWhite2_Ch1_branch_1
	rest 4
	note_type 12, 6, 2
	duty_cycle 3
	note A#, 1
	octave 3
	note A#, 1
	octave 4
	note D_, 1
	note G#, 1
	note D#, 1
	note F_, 1
	octave 3
	note A#, 1
	octave 4
	note D#, 1
	note G#, 1
	note A#, 1
	octave 3
	note A#, 1
	octave 4
	note D#, 1
	note G_, 1
	note G#, 1
	note D#, 1
	octave 3
	note A#, 1
	octave 4
	note A#, 1
	octave 3
	note A#, 1
	octave 4
	note D_, 1
	note G#, 1
	note D#, 1
	note F_, 1
	octave 3
	note A#, 1
	octave 4
	note D#, 1
	octave 3
	note A#, 1
	octave 4
	note F_, 1
	note D#, 1
	note A#, 1
	note G#, 1
	note G_, 1
	octave 3
	note A#, 1
	octave 4
	note D#, 1
	volume_envelope 8, 4
	octave 3
	note D#, 3
	note D#, 6
	note D#, 3
	note D#, 1
	note D#, 1
	rest 2
	note F_, 4
	note F_, 2
	note F#, 1
	note G_, 1
	rest 1
	note G_, 3
	note G_, 1
	note G_, 1
	rest 1
	note D#, 4
	note G_, 6
	note G#, 3
	note G#, 1
	note G#, 1
	rest 1
	note F_, 4
	octave 4
	note D#, 7
	note D#, 3
	note D_, 3
	duty_cycle 2
	octave 5
	volume_envelope 10, 5
	note D#, 8
	sound_jump Music_WhiteTreehollowWhite2_Ch1_loop

Music_WhiteTreehollowWhite2_Ch1_branch_1:
	volume_envelope 6, 2
	octave 4
	note A#, 8
	octave 3
	note A#, 4
	octave 4
	note A#, 8
	octave 3
	note A#, 4
	octave 4
	note A#, 8
	volume_envelope 4, 2
	sound_ret

Music_WhiteTreehollowWhite2_Ch2:
	duty_cycle 2
	vibrato 18, 2, 5
	pitch_offset 1
	note_type 12, 10, 2
	octave 2
	note G#, 3
	note G#, 7
	octave 1
	note G#, 2
	octave 2
	note G#, 1
	note G#, 2
	octave 1
	note G#, 1
	octave 2
	note D#, 3
	note D#, 7
	octave 1
	note D#, 2
	octave 2
	note D#, 1
	note D#, 2
	octave 1
	note D#, 1
	octave 2
	note G#, 3
	note G#, 7
	octave 1
	note G#, 2
	octave 2
	note G#, 1
	note G#, 2
	note A#, 1
	octave 3
	note C_, 3
	note C_, 7
	octave 2
	note C_, 2
	octave 3
	note C_, 1
	note C_, 2
	octave 2
	note C_, 1
	note G_, 3
	note G_, 5
	note G#, 3
	note G#, 5
	note A#, 3
	note A#, 5
	octave 3
	note C_, 3
	note C_, 5
	octave 2
	note G_, 3
	note G_, 6
	note G#, 3
	note G#, 4
	octave 1
	note G#, 3
	note G#, 10
	octave 2
	note G#, 1
	octave 1
	note G_, 1
	note G#, 1
	note A#, 3
	note A#, 13
	note A#, 3
	note A#, 10
	note G_, 1
	note G#, 1
	note A#, 1
	duty_cycle 0
	rest 1
	octave 4
	note G_, 1
	note G#, 1
	note A_, 1
	note A#, 1
	note D#, 2
	note_type 3, 10, 2
	octave 5
	note D_, 1
	note D#, 7
	note_type 12, 10, 2
	octave 4
	note D#, 1
	note_type 3, 10, 2
	note F#, 2
	note F_, 2
	note_type 12, 10, 2
	note D#, 1
	note C_, 1
	octave 3
	note A#, 1
	octave 4
	note G#, 1
	note G_, 2
	note G#, 1
	note A#, 1
	octave 3
	note A#, 2
	octave 4
	note F_, 1
	note D#, 1
	note_type 3, 10, 2
	note G_, 1
	note G#, 3
	note_type 12, 10, 2
	note G_, 1
	note F#, 1
	note F_, 1
	note D#, 1
	note_type 3, 10, 2
	octave 3
	note B_, 1
	octave 4
	note C_, 3
	note_type 12, 10, 2
	note D#, 1
	note F_, 1
	octave 3
	note A#, 1
	octave 4
	note F#, 1
	note F_, 1
	note D#, 1
	octave 5
	note D#, 2
	octave 4
	note_type 3, 10, 2
	note G_, 2
	note G#, 2
	note_type 12, 10, 2
	note G_, 1
	note F#, 1
	octave 5
	note D#, 1
	note D#, 2
	note_type 3, 10, 2
	note F_, 1
	note F#, 3
	note_type 12, 10, 2
	note F_, 1
	octave 4
	note A#, 1
	octave 5
	note D#, 3
	octave 4
	note G#, 1
	note G_, 1
	note C_, 1
	note_type 3, 10, 2
	note F_, 1
	note F#, 11
	note_type 12, 10, 2
	note F#, 1
	note F_, 1
	octave 3
	note A#, 1
	octave 4
	note_type 3, 10, 2
	note D_, 1
	note D#, 3
	note_type 12, 10, 2
	note D#, 5
	duty_cycle 2
	sound_call Music_WhiteTreehollowWhite2_Ch2_branch_1
	octave 2
	note A#, 1
	sound_call Music_WhiteTreehollowWhite2_Ch2_branch_1
	octave 2
	note G_, 1
	volume_envelope 9, 2
	octave 2
	note G#, 3
	note G#, 6
	octave 1
	note G#, 2
	note G#, 1
	octave 2
	note G#, 1
	note G#, 2
	octave 1
	note G#, 1
	octave 2
	note D#, 3
	note D#, 6
	octave 1
	note A#, 2
	note A#, 1
	octave 2
	note D#, 1
	note D#, 2
	octave 1
	note A#, 1
	volume_envelope 8, 0
	octave 1
	note G_, 8
	note G#, 8
	note A#, 8
	octave 2
	note C_, 8
	duty_cycle 0
	volume_envelope 10, 3
	rest 1
	octave 2
	note A#, 1
	octave 3
	note D#, 1
	note G#, 1
	note G_, 1
	note G#, 1
	note A#, 1
	octave 4
	note D#, 3
	note F_, 1
	note D#, 2
	note G#, 1
	note G_, 1
	note G#, 1
	note A#, 1
	volume_envelope 10, 0
	note A#, 5
	volume_envelope 10, 7
	note A#, 6
	duty_cycle 2
	octave 4
	volume_envelope 10, 2
	note D#, 1
	note G_, 1
	note G#, 1
	note A#, 1
	sound_jump Music_WhiteTreehollowWhite2_Ch2

Music_WhiteTreehollowWhite2_Ch2_branch_1:
	volume_envelope 8, 0
	octave 2
	note G#, 4
	volume_envelope 8, 7
	note G#, 6
	octave 1
	volume_envelope 8, 2
	note G#, 1
	octave 2
	note G#, 1
	note G_, 1
	note G#, 1
	note A#, 1
	octave 3
	volume_envelope 8, 0
	note C_, 5
	volume_envelope 8, 7
	note C_, 6
	octave 2
	volume_envelope 8, 2
	note C_, 1
	octave 3
	note C_, 2
	octave 2
	note C_, 1
	octave 3
	note C_, 1
	sound_ret

Music_WhiteTreehollowWhite2_Ch3:
	note_type 12, 1, 0
	vibrato 18, 2, 5
	octave 5
	rest 4
	note G#, 4
	note G_, 2
	note D#, 1
	octave 4
	note A#, 2
	octave 5
	note C_, 1
	octave 4
	note A#, 14
	volume_envelope 2, 0
	note A#, 4
	volume_envelope 3, 0
	note A#, 4
	volume_envelope 1, 0
	octave 5
	note A#, 4
	note G#, 2
	note G_, 1
	note D#, 2
	note F_, 1
	octave 4
	note A#, 14
	volume_envelope 2, 0
	note A#, 4
	volume_envelope 3, 0
	note A#, 2
	volume_envelope 1, 0
	note A#, 2
	octave 5
	note F_, 2
	note D#, 1
	note A#, 7
	octave 6
	note C_, 1
	octave 5
	note A#, 3
	note G#, 2
	note G_, 2
	note G#, 1
	note A#, 1
	rest 1
	note D#, 4
	note D#, 1
	note F_, 1
	note G_, 7
	note G#, 1
	note G_, 6
	note D#, 1
	note F_, 1
	note G_, 12
	volume_envelope 2, 0
	note G_, 3
	volume_envelope 1, 0
	note G#, 1
	note G_, 12
	volume_envelope 2, 0
	note G_, 3
	volume_envelope 1, 0
	note G#, 1
	note F_, 13
	volume_envelope 2, 0
	note F_, 4
	volume_envelope 2, 5
	octave 3
	note C_, 6
	octave 2
	note A#, 1
	note G#, 1
	rest 5
	note G#, 1
	rest 1
	note G#, 1
	note A#, 4
	note A#, 2
	octave 3
	note D_, 1
	note C_, 1
	rest 2
	note C_, 1
	rest 2
	note G_, 1
	note A#, 1
	octave 4
	note C_, 5
	rest 2
	octave 3
	note A#, 1
	note G#, 1
	rest 1
	note G#, 1
	rest 3
	octave 2
	note G#, 1
	rest 1
	note G#, 1
	note A#, 3
	rest 2
	note A#, 1
	octave 3
	note C_, 1
	note D_, 1
	note D#, 1
	rest 2
	note D#, 1
	rest 1
	note F_, 1
	note D#, 1
	note A#, 1
	volume_envelope 1, 0
	rest 1
	note G#, 1
	note A#, 1
	octave 4
	note D#, 1
	note G_, 1
	note G#, 1
	note A#, 1
	octave 5
	note D#, 5
	note F_, 1
	note G_, 1
	note D#, 6
	octave 4
	note A#, 1
	octave 5
	note C_, 1
	octave 4
	note D#, 7
	note_type 3, 1, 0
	note D_, 1
	note C#, 1
	note C_, 1
	octave 3
	note B_, 1
	note A#, 1
	note A_, 1
	rest 10
	note_type 12, 1, 0
	note A#, 1
	octave 4
	note D#, 1
	note G_, 1
	note G#, 1
	note A#, 1
	octave 5
	note D#, 1
	note G_, 4
	note G_, 1
	note G#, 1
	note A#, 1
	note D#, 3
	note D#, 1
	note D_, 1
	note D#, 1
	note F_, 1
	note G_, 1
	octave 6
	note C_, 1
	note D#, 7
	volume_envelope 2, 0
	note D#, 2
	volume_envelope 1, 4
	octave 3
	rest 1
	note G#, 1
	note A#, 1
	octave 4
	note D#, 1
	note G_, 1
	note G#, 1
	note A#, 1
	octave 5
	note D#, 5
	note D_, 1
	note D#, 1
	note F_, 1
	note A#, 3
	note G#, 1
	note G_, 2
	note F_, 1
	note D#, 6
	volume_envelope 2, 4
	note D#, 4
	volume_envelope 1, 2
	rest 1
	octave 3
	note A#, 1
	octave 4
	note D#, 1
	note G#, 1
	note G_, 1
	note G#, 1
	note A#, 1
	octave 5
	note D#, 3
	note F_, 1
	note D#, 2
	octave 4
	note D#, 1
	note G_, 1
	note G#, 1
	note A#, 1
	note G_, 1
	note G#, 1
	note A#, 2
	octave 5
	note C_, 1
	octave 4
	note D#, 10
	volume_envelope 2, 5
	octave 2
	note G_, 1
	rest 2
	note G_, 1
	rest 2
	octave 1
	note G_, 1
	octave 2
	note G_, 1
	octave 1
	note G#, 1
	octave 2
	note G#, 1
	rest 1
	note G#, 1
	rest 1
	note G#, 1
	note D#, 1
	note G#, 1
	note A#, 1
	note A#, 1
	rest 1
	note A#, 1
	rest 5
	octave 1
	note A#, 1
	rest 1
	note A#, 1
	octave 2
	note A#, 1
	note A#, 3
	sound_jump Music_WhiteTreehollowWhite2_Ch3

Music_WhiteTreehollowWhite2_Ch4:
	toggle_noise 3
	drum_speed 12
Music_WhiteTreehollowWhite2_Ch4_loop_main:
Music_WhiteTreehollowWhite2_Ch4_loop_1:
	drum_note 4, 4
	drum_note 1, 3
	drum_note 4, 3
	drum_note 4, 2
	drum_note 1, 4
	sound_loop 10, Music_WhiteTreehollowWhite2_Ch4_loop_1
Music_WhiteTreehollowWhite2_Ch4_loop_2:
	drum_note 2, 1
	drum_note 2, 1
	drum_note 2, 1
	drum_note 2, 1
	drum_note 1, 1
	drum_note 2, 1
	drum_note 2, 1
	drum_note 2, 1
	sound_loop 8, Music_WhiteTreehollowWhite2_Ch4_loop_2
	rest 16
	rest 16
	rest 16
	rest 16
Music_WhiteTreehollowWhite2_Ch4_loop_3:
	drum_note 4, 4
	drum_note 1, 3
	drum_note 4, 2
	drum_note 4, 2
	drum_note 4, 1
	drum_note 1, 1
	drum_note 1, 3
	sound_loop 6, Music_WhiteTreehollowWhite2_Ch4_loop_3
	sound_jump Music_WhiteTreehollowWhite2_Ch4_loop_main
