; Pokémon OR/AS - Encounter! Wally
; Demixed by Mmmmmm
; https://pastebin.com/b5C5P7NX
; https://hax.iimarckus.org/topic/6777/5/

Music_WallyEncounterORAS:
	channel_count 2
	channel 1, Music_WallyEncounterORAS_Ch1
	channel 2, Music_WallyEncounterORAS_Ch2

Music_WallyEncounterORAS_Ch1:
	tempo 208
	volume 7, 7
	duty_cycle 0
	vibrato 8, 1, 5
	note_type 12, 6, 7
	rest 4
Music_WallyEncounterORAS_Ch1_loop:
	octave 2
	note D#, 2
	note A#, 2
	octave 3
	note D#, 2
	note G_, 6
	octave 2
	note D_, 6
	note G_, 6
	octave 3
	note C_, 2
	note G_, 2
	note A#, 2
	octave 2
	note A#, 2
	octave 3
	note F_, 2
	note G#, 2
	octave 2
	note G#, 2
	octave 3
	note D#, 2
	note G#, 2
	octave 4
	note C_, 2
	octave 3
	note D#, 4
	octave 2
	note G_, 2
	octave 3
	note D#, 2
	note G_, 2
	note D#, 6
	note C_, 2
	note G_, 2
	note A#, 2
	octave 4
	note E_, 6
	octave 2
	note F_, 2
	octave 3
	note C_, 2
	note F_, 2
	note D#, 6
	note D#, 6
	note D_, 6
	octave 2
	note G_, 2
	octave 3
	note D#, 2
	note G_, 2
	note A#, 2
	note D#, 2
	note G_, 2
	octave 2
	note G#, 2
	octave 3
	note F_, 2
	note A#, 2
	octave 4
	note D#, 2
	note C_, 2
	octave 3
	note G#, 2
	octave 2
	note A#, 2
	octave 3
	note F_, 2
	note A#, 2
	octave 2
	note B_, 2
	octave 3
	note F_, 2
	note B_, 2
	note C_, 6
	note C#, 6
	octave 2
	note G#, 2
	octave 3
	note G#, 2
	octave 4
	note C_, 2
	octave 2
	note G_, 2
	octave 3
	note G_, 2
	note A#, 2
	octave 2
	note F_, 2
	octave 3
	note F_, 2
	octave 4
	note D#, 2
	octave 2
	note A#, 2
	octave 3
	note F_, 2
	octave 4
	note D_, 2
	octave 2
	note G#, 2
	octave 3
	note F_, 2
	note G#, 2
	note B_, 2
	note A#, 2
	note G#, 2
	note D#, 6
	note D#, 6
	sound_jump Music_WallyEncounterORAS_Ch1_loop

Music_WallyEncounterORAS_Ch2:
	duty_cycle 2
	vibrato 18, 4, 4
	note_type 6, 9, 7
	octave 2
	note A#, 4
	octave 3
	note G_, 1
	note G#, 3
	note G_, 16
	octave 2
	note A#, 4
	octave 3
	note G_, 1
	note G#, 3
	note G_, 16
	rest 4
	note F_, 4
	note D#, 12
	note D#, 4
	note F_, 4
	note F#, 1
	note G_, 3
	note C_, 16
	rest 4
	note D_, 4
	note D#, 12
	octave 2
	note A#, 8
	octave 3
	note G#, 1
	note A_, 1
	note A#, 2
	note A#, 12
	note A#, 4
	note G#, 4
	note G_, 4
	note G#, 12
	note C_, 8
	note G#, 4
	note G_, 12
	note F_, 4
	note G_, 4
	note G#, 4
	note A#, 12
	note D#, 12
	octave 4
	note C_, 1
	note D_, 11
	note C_, 12
	octave 3
	note A#, 16
	note F_, 4
	note G#, 4
	note G_, 16
	rest 4
	note F_, 4
	note D#, 4
	note F_, 4
	note G_, 4
	note D#, 8
	octave 2
	note A#, 4
	octave 3
	note D#, 12
	note D_, 4
	note D#, 4
	note F_, 4
	note F_, 12
	note F_, 4
	note F#, 1
	note G_, 3
	note F_, 4
	note D#, 16
	sound_jump Music_WallyEncounterORAS_Ch2
