; Pokémon HG/SS - Encounter! Lyra
; Demixed by Mmmmmm
; https://pastebin.com/fL7d2CrB
; https://hax.iimarckus.org/topic/6777/3/

Music_LyraEncounterHGSS:
	channel_count 4
	channel 1, Music_LyraEncounterHGSS_Ch1
	channel 2, Music_LyraEncounterHGSS_Ch2
	channel 3, Music_LyraEncounterHGSS_Ch3
	channel 4, Music_LyraEncounterHGSS_Ch4

Music_LyraEncounterHGSS_Ch1:
	tempo 184
	duty_cycle 1
	note_type 12, 8, 5
	octave 2
	note A#, 1
	note A#, 2
	octave 3
	note G#, 2
	octave 4
	note C_, 2
	note D#, 9
Music_LyraEncounterHGSS_Ch1_loop:
	octave 3
	note D#, 6
	note G_, 1
	octave 4
	note D#, 1
	octave 3
	note D_, 2
	note D_, 4
	note D_, 2
	note C_, 6
	note G_, 1
	note A#, 1
	octave 2
	note G_, 1
	octave 3
	note F_, 2
	octave 2
	rest 1
	octave 3
	note F_, 4
	octave 2
	note_type 3, 8, 5
	note G#, 1
	octave 3
	note D#, 15
	note_type 12, 8, 5
	octave 2
	note G#, 2
	octave 3
	note D#, 1
	octave 4
	note C_, 1
	octave 2
	note G_, 1
	octave 3
	note D#, 3
	note D#, 2
	octave 2
	note G_, 2
	note F_, 6
	octave 3
	note D#, 1
	octave 2
	note F_, 1
	note A#, 1
	octave 3
	note F_, 2
	octave 2
	note A#, 1
	note A#, 4
	volume_envelope 11, 4
	rest 2
	octave 4
	note G_, 1
	rest 1
	note G_, 1
	note G#, 1
	rest 1
	note A#, 3
	octave 5
	note D#, 1
	rest 1
	note D_, 1
	rest 1
	octave 4
	note A#, 1
	rest 1
	note G_, 3
	rest 1
	note G_, 1
	note G#, 1
	rest 1
	note G_, 5
	note F_, 2
	note G_, 2
	note G#, 4
	note A#, 1
	octave 5
	note C_, 1
	rest 1
	octave 4
	note A#, 5
	note G_, 4
	note G#, 2
	note G_, 1
	rest 1
	note G#, 1
	note A#, 1
	rest 1
	note_type 6, 11, 4
	note G_, 8
	note G#, 1
	note G_, 1
	note F_, 8
	note_type 12, 8, 6
	note D#, 5
	note C_, 1
	note D_, 1
	note D#, 1
	rest 1
	note D_, 1
	rest 2
	octave 3
	note A#, 4
	octave 4
	note C_, 5
	octave 3
	note G#, 1
	note A#, 1
	octave 4
	note C_, 1
	rest 1
	octave 3
	note A#, 1
	rest 2
	note G_, 2
	note A#, 2
	volume_envelope 8, 4
	note A_, 1
	note F_, 1
	note A_, 1
	octave 4
	note C_, 1
	octave 3
	note F_, 1
	note A_, 1
	octave 4
	note C_, 1
	octave 3
	note A_, 1
	octave 4
	note C_, 1
	note F_, 1
	octave 3
	note A_, 1
	octave 4
	note C_, 1
	note F_, 1
	octave 3
	note A_, 1
	octave 4
	note C_, 1
	note F_, 1
	note D#, 1
	octave 3
	note G#, 1
	octave 4
	note C_, 1
	note D#, 1
	octave 3
	note G#, 1
	octave 4
	note C_, 1
	note D#, 1
	octave 3
	note G#, 1
	octave 4
	note D_, 2
	note D_, 1
	note D#, 2
	note F_, 3
	sound_jump Music_LyraEncounterHGSS_Ch1_loop

Music_LyraEncounterHGSS_Ch2:
	duty_cycle 2
	note_type 12, 11, 4
	octave 4
	note C_, 1
	note D#, 1
	rest 1
	note G#, 1
	rest 1
	octave 5
	note C_, 1
	rest 1
	volume_envelope 11, 7
	note D#, 9
Music_LyraEncounterHGSS_Ch2_loop:
	rest 4
	octave 4
	volume_envelope 11, 4
	note G_, 1
	note G#, 1
	rest 1
	volume_envelope 11, 6
	note A#, 5
	volume_envelope 11, 4
	note A#, 2
	octave 5
	note C_, 2
	octave 4
	note D#, 4
	note D#, 1
	note F_, 1
	rest 1
	volume_envelope 11, 7
	note G_, 9
	rest 2
	volume_envelope 11, 4
	note C_, 2
	note C_, 1
	note D_, 2
	note D#, 3
	octave 3
	note A#, 2
	octave 4
	note D#, 2
	note A#, 2
	note G#, 2
	note G_, 2
	note G#, 1
	note A#, 2
	note G_, 4
	note_type 6, 11, 3
	note G#, 1
	note G_, 1
	note_type 12, 11, 7
	note F_, 4
	volume_envelope 7, 0
	duty_cycle 0
	octave 2
	note A#, 8
	octave 3
	note D#, 4
	note F_, 4
	note G_, 6
	note_type 8, 8, 0
	note F_, 1
	note G_, 1
	note F_, 1
	note_type 12, 8, 0
	note E_, 8
	note F_, 5
	octave 2
	note G#, 1
	octave 3
	note C_, 1
	note F_, 1
	note G_, 8
	octave 2
	note B_, 8
	octave 3
	note D#, 4
	note F_, 4
	volume_envelope 11, 4
	octave 4
	duty_cycle 2
	note D#, 4
	note D#, 1
	note G_, 2
	note D_, 4
	note D_, 1
	note G_, 4
	note C_, 4
	note C_, 1
	note D#, 2
	octave 3
	note A#, 4
	note A#, 1
	octave 4
	note D#, 2
	note A#, 2
	note A_, 6
	note C_, 2
	note F_, 2
	note C_, 2
	note G_, 1
	note A_, 2
	volume_envelope 11, 7
	note A#, 9
	rest 8
	sound_jump Music_LyraEncounterHGSS_Ch2_loop

Music_LyraEncounterHGSS_Ch3:
	note_type 12, 1, 5
	volume_envelope 1, 0
	octave 2
	note A#, 1
	note A#, 1
	rest 1
	note A#, 1
	rest 1
	note A#, 1
	rest 1
	note A#, 3
	rest 1
	note A#, 3
	rest 1
	note A#, 1
Music_LyraEncounterHGSS_Ch3_loop:
	octave 3
	note D#, 2
	rest 1
	note D#, 1
	octave 2
	note A#, 2
	rest 1
	note A#, 1
	octave 3
	note D_, 2
	rest 1
	note D_, 1
	octave 2
	note A#, 2
	rest 1
	note A#, 1
	octave 3
	note C_, 2
	rest 1
	note C_, 1
	note D#, 2
	rest 1
	note D#, 1
	octave 2
	note G_, 2
	rest 1
	note G_, 1
	note G_, 2
	note A#, 2
	note G#, 2
	rest 1
	note G#, 1
	octave 3
	note D#, 2
	rest 1
	note D#, 1
	octave 2
	note G_, 2
	rest 1
	note G_, 1
	octave 3
	note D#, 2
	rest 1
	note D#, 1
	note F_, 2
	rest 1
	note F_, 1
	note C_, 2
	rest 1
	note C_, 1
	octave 2
	note A#, 2
	rest 1
	note A#, 1
	octave 3
	note D_, 2
	note F_, 2
	note D#, 2
	rest 1
	note D#, 1
	octave 2
	note A#, 2
	rest 1
	note A#, 1
	octave 3
	note D_, 2
	rest 1
	note D_, 1
	octave 2
	note A#, 2
	rest 1
	note A#, 1
	octave 3
	note C#, 2
	rest 1
	note C#, 1
	octave 2
	note G#, 2
	rest 1
	note G#, 1
	octave 3
	note C_, 2
	rest 1
	note C_, 1
	note E_, 2
	note G_, 2
	note F_, 2
	rest 1
	note F_, 1
	note C_, 2
	rest 1
	note C_, 1
	note G_, 2
	rest 1
	note G_, 1
	note D#, 2
	rest 1
	note D#, 1
	note G#, 2
	rest 1
	note G#, 1
	note D#, 2
	rest 1
	note D#, 1
	note C#, 2
	rest 1
	note C#, 1
	octave 2
	note A#, 2
	octave 3
	note F_, 2
	note C_, 2
	rest 1
	note C_, 1
	note G_, 2
	rest 1
	note G_, 1
	octave 2
	note G_, 2
	rest 1
	note G_, 1
	note A#, 2
	octave 3
	note D_, 2
	octave 2
	note G#, 2
	rest 1
	note G#, 1
	octave 3
	note D#, 2
	rest 1
	note D#, 1
	octave 2
	note G_, 2
	rest 1
	note G_, 1
	note A#, 2
	octave 3
	note D#, 2
	octave 2
	note F_, 2
	rest 1
	note F_, 1
	octave 3
	note C_, 2
	rest 1
	note C_, 1
	octave 2
	note A_, 2
	rest 1
	note A_, 1
	octave 3
	note F_, 2
	rest 1
	note F_, 1
	octave 2
	note A#, 2
	rest 1
	note A#, 1
	octave 3
	note F_, 2
	rest 1
	note F_, 1
	octave 2
	note A#, 1
	rest 1
	note A#, 1
	octave 3
	note C_, 2
	note D_, 3
	sound_jump Music_LyraEncounterHGSS_Ch3_loop

Music_LyraEncounterHGSS_Ch4:
	toggle_noise 3
	drum_speed 6
	drum_note 3, 2
	drum_note 3, 4
	drum_note 3, 4
	drum_note 3, 4
	drum_note 3, 6
	drum_note 4, 1
	drum_note 4, 1
	drum_note 4, 1
	drum_note 4, 1
	drum_note 1, 2
	drum_note 1, 2
	drum_note 4, 4
Music_LyraEncounterHGSS_Ch4_loop:
	drum_note 4, 4
	drum_note 4, 2
	drum_note 4, 2
	drum_note 1, 4
	drum_note 4, 2
	drum_note 4, 2
	sound_jump Music_LyraEncounterHGSS_Ch4_loop
