; Pokémon HG/SS - Route 47
; Demixed by Pum
; https://hax.iimarck.us/topic/6443/

Music_Route47HGSS:
	musicheader 3, 1, Music_Route47HGSS_Ch1
	musicheader 1, 2, Music_Route47HGSS_Ch2
	musicheader 1, 3, Music_Route47HGSS_Ch3

Music_Route47HGSS_Ch1:
	dutycycle 2
	notetype $C, $58
	note __, 3
	octave 6
	note C_, 1
	octave 5
	note G_, 1
	note F_, 1
	note G_, 1
	note F_, 1
	note C_, 1
	note F_, 1
	note C_, 1
	octave 4
	note A#, 1
	octave 5
	note C_, 1
	octave 4
	note A#, 1
	note A_, 2
	octave 3
Music_Route47HGSS_Loop1:
	notetype $C, $48
	note C_, 16
	note C_, 8
	note E_, 8
	note F_, 16
	note F_, 8
	note C_, 8
	note F_, 16
	octave 2
	note A_, 8
	octave 3
	note C_, 8
	octave 2
	note G#, 16
	note A#, 16
	octave 1
	note F_, 16
	note F_, 16
	note A#, 16
	octave 2
	note C_, 16
	note D_, 16
	octave 1
	note A_, 16
	note A#, 8
	note G_, 8
	octave 2
	note C_, 8
	octave 1
	note A#, 8
	note A_, 16
	octave 2
	note D_, 16
	octave 1
	note G_, 16
	note A#, 16
	note F_, 16
	note F_, 16
	note __, 16
	note __, 16
	notetype $C, $87
	note F_, 16
	note __, 16
	note C_, 16
	note __, 16
	note F_, 16
	note __, 16
	note A_, 16
	note __, 16
	note D_, 16
	note __, 16
	note C_, 16
	note __, 16
	note A_, 16
	note __, 16
	note F_, 16
	note __, 16
	note F_, 16
	note __, 16
	note __, 16
	note __, 16
	note __, 16
	note __, 16
	note __, 16
	note __, 16
	notetype $C, $38
	octave 4
	note C_, 7
	note __, 1
	note C_, 1
	note __, 3
	note D_, 7
	note __, 1
	note D_, 1
	note __, 3
	note F_, 7
	note __, 1
	note F_, 1
	note __, 3
	note A_, 7
	note __, 1
	note A_, 1
	note __, 3
	octave 5
	note C_, 5
	note __, 1
	note C_, 1
	note __, 1
	octave 4
	note F_, 5
	note __, 1
	note F_, 1
	note __, 1
	notetype $C, $37
	octave 5
	note C_, 16
	octave 4
	note D#, 16
	note B_, 16
	note C_, 16
	notetype $C, $38
	loopchannel 0, Music_Route47HGSS_Loop1

Music_Route47HGSS_Ch2:
	tempo $80
	volume $77
	dutycycle 2
	notetype $C, $94
	stereopanning $F0
	note __, 4
	octave 6
	note C_, 1
	octave 5
	note G_, 1
	note F_, 1
	note G_, 1
	note F_, 1
	note C_, 1
	note F_, 1
	note C_, 1
	octave 4
	note A#, 1
	octave 5
	note C_, 1
	octave 4
	note A#, 1
	note A_, 1
	tempo $5D
Music_Route47HGSS_Loop2:
	notetype $C, $61
	stereopanning $FF
	note __, 16
	octave 3
	note C_, 1
	note F_, 1
	note G_, 1
	note A_, 1
	octave 4
	note C_, 1
	note F_, 1
	octave 3
	note A_, 1
	octave 4
	note C_, 1
	note F_, 1
	note G_, 1
	note A_, 1
	octave 5
	note C_, 3
	note __, 2
	octave 3
	note A#, 1
	octave 4
	note C_, 1
	note D_, 1
	note F_, 1
	note A_, 1
	octave 5
	note C_, 1
	octave 3
	note A#, 1
	note A_, 1
	note F_, 1
	note D_, 1
	note C_, 1
	octave 2
	note A_, 3
	note __, 2
	octave 3
	note C_, 1
	note D_, 1
	note F_, 1
	note G_, 1
	note A_, 1
	octave 4
	note C_, 1
	octave 3
	note A_, 1
	octave 4
	note C_, 1
	note D_, 1
	note F_, 1
	note A_, 1
	octave 5
	note C_, 3
	note __, 2
	octave 3
	note A_, 1
	octave 4
	note D_, 1
	note E_, 1
	note F_, 1
	note A_, 1
	octave 5
	note C_, 1
	octave 4
	note A_, 1
	note F_, 1
	note D_, 1
	octave 3
	note A_, 1
	note G_, 1
	note F_, 3
	note __, 2
	octave 2
	note A_, 1
	octave 3
	note D_, 1
	note E_, 1
	note F_, 1
	note A_, 1
	octave 4
	note D_, 1
	octave 3
	note A_, 1
	octave 4
	note D_, 1
	note E_, 1
	note F_, 1
	note A_, 1
	octave 5
	note C_, 3
	note __, 7
	octave 3
	note G#, 1
	octave 4
	note C_, 1
	octave 3
	note G#, 1
	note A#, 1
	octave 4
	note C_, 1
	note F_, 1
	note G#, 1
	octave 5
	note C_, 3
	note __, 6
	octave 3
	note A#, 1
	octave 4
	note C_, 1
	octave 3
	note A#, 1
	octave 4
	note C_, 1
	note F_, 1
	note A_, 1
	note A#, 1
	octave 5
	note C_, 3
	note __, 9
	notetype $C, $77
	octave 3
	note C_, 8
	note F_, 8
	note A_, 8
	octave 4
	note F_, 16
	note C_, 4
	octave 3
	note A#, 4
	note A_, 4
	note A#, 4
	octave 4
	note C_, 8
	octave 3
	note F_, 16
	note E_, 4
	note F_, 4
	note G_, 8
	note D#, 8
	note F_, 4
	note E_, 4
	note F_, 4
	note G_, 4
	octave 4
	note C_, 16
	note F_, 8
	note C_, 8
	octave 3
	note A#, 4
	note A_, 4
	note G_, 4
	note F_, 4
	note G_, 16
	note F_, 10
	octave 5
	note C_, 2
	octave 4
	note A#, 2
	note A_, 2
	note __, 8
	octave 5
	note C_, 2
	octave 4
	note G_, 2
	note F_, 2
	note C_, 2
	note __, 8
	note A_, 2
	note F_, 2
	octave 3
	note A#, 2
	note A_, 2
	notetype $C, $97
	octave 4
	note __, 8
	note C_, 8
	note F_, 12
	note G_, 8
	note F_, 8
	note E_, 4
	octave 5
	note C_, 8
	octave 4
	note A#, 8
	note A_, 8
	note G_, 8
	note F_, 12
	note G_, 8
	note F_, 8
	note E_, 4
	note A_, 8
	note G_, 8
	note F_, 8
	note E_, 8
	note D_, 12
	note F_, 8
	note E_, 8
	note F_, 4
	note C_, 12
	note F_, 8
	note E_, 8
	note F_, 4
	note A_, 8
	note A#, 8
	octave 5
	note C_, 8
	octave 4
	note C_, 8
	note F_, 8
	note E_, 8
	note A_, 8
	note G_, 8
	notetype $C, $77
	note F_, 12
	note G_, 8
	note F_, 8
	note C_, 4
	octave 5
	note C_, 8
	octave 4
	note A_, 8
	octave 5
	note D_, 8
	note E_, 8
	note F_, 16
	note F_, 4
	octave 4
	note G_, 8
	note F_, 4
	octave 5
	note C_, 8
	octave 4
	note A#, 8
	note F_, 8
	note C#, 8
	note C_, 12
	note F_, 12
	note A#, 12
	octave 5
	note C_, 12
	note F_, 16
	note D_, 8
	note C_, 8
	octave 4
	note F_, 8
	note G_, 8
	octave 5
	note C#, 8
	octave 4
	note A#, 8
	note D_, 8
	note E_, 8
	loopchannel 0, Music_Route47HGSS_Loop2

Music_Route47HGSS_Ch3:
	notetype $C, $11
	note __, 16
Music_Route47HGSS_Loop3:
	intensity $13
	octave 3
	note F_, 2
	note A_, 2
	note A#, 2
	note A_, 2
	octave 4
	note C_, 2
	note F_, 12
	note __, 4
	note E_, 2
	note F_, 2
	note G_, 2
	note F_, 12
	note __, 6
	note F_, 2
	note A#, 2
	note A_, 2
	note A#, 2
	note A_, 2
	note G_, 2
	note F_, 2
	note E_, 2
	note F_, 2
	note G_, 2
	note F_, 2
	note C_, 8
	note F_, 2
	note E_, 2
	note D_, 2
	note E_, 2
	note F_, 4
	note C_, 4
	octave 3
	note A#, 2
	octave 4
	note C_, 2
	note F_, 6
	note E_, 2
	note F_, 2
	note G_, 2
	note F_, 8
	note G_, 8
	note A_, 2
	note G_, 2
	note F_, 2
	note E_, 2
	note F_, 2
	note C_, 2
	octave 3
	note A#, 2
	note A_, 2
	note __, 16
	note __, 16
	note __, 16
	note __, 16
	note __, 16
	note __, 16
	note __, 16
	note __, 16
	note __, 16
	note __, 16
	note __, 16
	note __, 16
	note __, 16
	note __, 16
	intensity $21
	note __, 2
	note F_, 1
	note A_, 1
	octave 4
	note C_, 1
	note F_, 1
	note C_, 1
	note F_, 1
	note A_, 1
	note F_, 1
	octave 5
	note C_, 1
	octave 4
	note A#, 1
	note A_, 1
	note A#, 1
	octave 5
	note C_, 1
	note F_, 1
	octave 4
	note A_, 1
	octave 5
	note A#, 1
	note A_, 1
	note G_, 1
	note F_, 1
	note C_, 1
	note F_, 1
	note C_, 1
	octave 4
	note A#, 1
	note A_, 1
	octave 5
	note F_, 1
	note C_, 1
	octave 4
	note A#, 1
	note A_, 1
	note A#, 1
	note A_, 1
	note F_, 1
	note C_, 1
	note A#, 1
	note A_, 1
	note F_, 1
	note C_, 1
	note F_, 1
	note C_, 1
	octave 3
	note A#, 1
	note A_, 1
	octave 4
	note F_, 1
	note C_, 1
	octave 3
	note A#, 1
	note A_, 1
	octave 4
	note C_, 1
	octave 3
	note A#, 1
	note A_, 1
	note F_, 1
	octave 5
	note A_, 1
	note E_, 1
	note C_, 1
	octave 4
	note A_, 1
	octave 5
	note E_, 1
	note C_, 1
	octave 4
	note A_, 1
	note F_, 1
	octave 5
	note E_, 1
	note C_, 1
	octave 4
	note A#, 1
	note A_, 1
	note A#, 1
	note A_, 1
	note F_, 1
	note C_, 1
	note F_, 1
	note C_, 1
	octave 3
	note A#, 1
	note A_, 1
	octave 4
	note C_, 1
	octave 3
	note A_, 1
	note G_, 1
	note F_, 1
	note A_, 1
	note F_, 1
	note D_, 1
	note C_, 1
	note F_, 1
	note C_, 1
	octave 2
	note A#, 1
	note A_, 1
	octave 5
	note A_, 1
	note F_, 1
	note D_, 1
	note C_, 1
	note D_, 1
	note C_, 1
	octave 4
	note A_, 1
	note F_, 1
	octave 5
	note D_, 1
	note C_, 1
	octave 4
	note A_, 1
	note F_, 1
	note A#, 1
	note A_, 1
	note F_, 1
	note C_, 1
	note A#, 1
	note A_, 1
	note F_, 1
	note C_, 1
	note A_, 1
	note F_, 1
	note C_, 1
	octave 3
	note A#, 1
	octave 4
	note F_, 1
	note C_, 1
	octave 3
	note A_, 1
	note F_, 1
	octave 4
	note C_, 1
	octave 3
	note A#, 1
	note A_, 1
	note F_, 1
	octave 5
	note A_, 1
	note G_, 1
	note F_, 1
	note D_, 1
	note F_, 1
	note C_, 1
	octave 4
	note A#, 1
	note A_, 1
	octave 5
	note A_, 1
	note F_, 1
	note D_, 1
	octave 4
	note A_, 1
	note A#, 1
	note A_, 1
	note F_, 1
	note C_, 1
	note A_, 1
	note F_, 1
	note D_, 1
	note C_, 1
	note D_, 1
	note C_, 1
	octave 3
	note A_, 1
	note F_, 1
	note __, 8
	octave 5
	note A#, 1
	note A_, 1
	note F_, 1
	note D_, 1
	note F_, 1
	note D_, 1
	octave 4
	note A#, 1
	note G_, 1
	octave 5
	note F_, 1
	note D_, 1
	octave 4
	note A#, 1
	note G_, 1
	note A#, 1
	note A_, 1
	note F_, 1
	note C_, 1
	note A#, 1
	note A_, 1
	note F_, 1
	note C_, 1
	note G_, 1
	note F_, 1
	note C_, 1
	octave 3
	note A_, 1
	octave 4
	note C_, 1
	octave 3
	note A#, 1
	note A_, 1
	note F_, 1
	note A#, 1
	note A_, 1
	note F_, 1
	note C_, 1
	octave 5
	note G#, 1
	note G_, 1
	note F_, 1
	note C_, 1
	note F_, 1
	note C_, 1
	octave 4
	note A_, 1
	note G_, 1
	octave 5
	note F_, 1
	note C_, 1
	octave 4
	note A_, 1
	note G_, 1
	octave 5
	note C_, 1
	octave 4
	note A_, 1
	note G_, 1
	note D_, 1
	note F_, 1
	note C_, 1
	octave 3
	note A_, 1
	note F_, 1
	octave 4
	note F_, 1
	note C_, 1
	octave 3
	note A_, 1
	note F_, 1
	note A_, 1
	note F_, 1
	note D_, 1
	octave 2
	note A_, 1
	octave 3
	note A_, 1
	note F_, 1
	note D_, 1
	octave 2
	note A_, 1
	octave 3
	note A#, 1
	octave 4
	note C_, 1
	note D_, 1
	note F_, 1
	note D_, 1
	note F_, 1
	note D_, 1
	note F_, 1
	note D_, 1
	note F_, 1
	note E_, 1
	note F_, 1
	note G_, 1
	octave 5
	note C_, 1
	octave 4
	note G_, 1
	octave 5
	note C_, 1
	octave 4
	note A_, 1
	note A#, 1
	octave 5
	note C_, 1
	note F_, 1
	note D_, 1
	note F_, 1
	note D_, 1
	note F_, 1
	note E_, 1
	note F_, 1
	note G_, 1
	octave 6
	note C_, 1
	octave 5
	note G_, 1
	octave 6
	note C_, 1
	octave 5
	note G_, 1
	octave 6
	note C_, 1
	octave 4
	note A#, 1
	octave 5
	note C_, 1
	note D_, 1
	note F_, 1
	note D_, 1
	note F_, 1
	note D_, 1
	note F_, 1
	note F#, 1
	note G_, 1
	note A_, 1
	octave 6
	note C_, 1
	octave 5
	note A_, 1
	octave 6
	note C_, 1
	octave 5
	note A_, 1
	octave 6
	note C_, 1
	note C#, 1
	note D_, 1
	note F_, 1
	note A_, 1
	note F_, 1
	note A_, 1
	note F_, 1
	note A_, 1
	note F_, 1
	note G_, 1
	note A_, 1
	octave 7
	note C_, 1
	octave 6
	note A_, 1
	octave 7
	note C_, 1
	octave 6
	note A_, 1
	octave 7
	note C_, 1
	octave 5
	note __, 2
	note F_, 2
	note G_, 2
	note A_, 2
	octave 6
	note C_, 2
	note F_, 2
	note A_, 2
	octave 7
	note C_, 2
	octave 6
	note F_, 2
	octave 5
	note A_, 2
	octave 6
	note C_, 2
	note F_, 2
	note G_, 2
	note A_, 2
	octave 7
	note C_, 2
	note F_, 2
	octave 5
	note __, 2
	note C_, 2
	note F_, 2
	note A_, 2
	octave 6
	note D_, 2
	note A_, 2
	octave 7
	note C_, 2
	note F_, 2
	octave 5
	note __, 2
	note G_, 2
	note A_, 2
	octave 6
	note C_, 2
	note D_, 2
	note F_, 2
	octave 7
	note D_, 2
	note F_, 2
	octave 5
	note G_, 2
	octave 4
	note B_, 2
	octave 5
	note F_, 2
	note G_, 2
	note B_, 2
	octave 6
	note C_, 2
	note D_, 2
	note F_, 2
	note G_, 2
	note C_, 2
	note G_, 2
	note A_, 2
	octave 7
	note C_, 2
	note D_, 2
	note F_, 2
	note __, 2
	octave 4
	note A#, 2
	octave 5
	note C_, 2
	note F_, 2
	note A#, 2
	octave 6
	note C_, 2
	note F_, 2
	note A#, 2
	note __, 2
	note F_, 2
	note C_, 2
	note D_, 2
	note F_, 2
	note A_, 2
	octave 7
	note C_, 2
	note F_, 2
	octave 5
	note __, 2
	note F_, 2
	note G_, 2
	note F_, 2
	note A_, 2
	octave 6
	note C_, 2
	note F_, 2
	note C_, 2
	note F_, 2
	note G_, 2
	note A_, 2
	note G_, 2
	note A_, 2
	octave 7
	note C_, 2
	note F_, 2
	note G_, 2
	note A_, 2
	octave 8
	note C_, 2
	note __, 6
	octave 5
	note F_, 2
	note A_, 2
	octave 6
	note C_, 2
	note __, 2
	note C_, 2
	note F_, 2
	note A_, 2
	note __, 2
	note A_, 2
	octave 7
	note C_, 2
	note F_, 2
	note __, 16
	note __, 16
	note __, 16
	note __, 16
	notetype $C, $51
	loopchannel 0, Music_Route47HGSS_Loop3
