; Pokémon HG/SS - Safari Zone Gate
; Demixed by Mmmmmm
; https://pastebin.com/KtZQwniZ
; https://hax.iimarckus.org/topic/6777/4/

Music_SafariZoneGateHGSS:
	channel_count 4
	channel 1, Music_SafariZoneGateHGSS_Ch1
	channel 2, Music_SafariZoneGateHGSS_Ch2
	channel 3, Music_SafariZoneGateHGSS_Ch3
	channel 4, Music_SafariZoneGateHGSS_Ch4

Music_SafariZoneGateHGSS_Ch1:
	tempo 164
	volume 7, 7
	duty_cycle 0
	pitch_offset 2
	vibrato $8, $15
	note_type 12, 8, 6
	octave 3
	note C#, 4
	note D_, 1
	volume_envelope 8, 2
	note C#, 2
	volume_envelope 8, 6
	note C#, 2
	octave 2
	note B_, 1
	volume_envelope 8, 2
	note A_, 4
	note G#, 1
	note A_, 1
	note A_, 1
	note F#, 1
	note F#, 2
	note F#, 2
	note E_, 1
	note F#, 1
	note E_, 1
	note F#, 1
	note G#, 2
	note E_, 1
	note G#, 2
	octave 3
	volume_envelope 8, 6
	note C#, 7
	note D_, 1
	note C#, 3
	volume_envelope 8, 2
	note F#, 2
	note E_, 1
	note F#, 1
	note E_, 2
	note F#, 2
	note F#, 1
	note F#, 3
	octave 2
	note G#, 2
	note A_, 1
	note G#, 2
	note G#, 1
	note A_, 1
	note B_, 1
	octave 4
	note D_, 1
	volume_envelope 8, 6
	note C#, 7
	octave 3
	note B_, 1
	note A_, 3
	volume_envelope 8, 2
	note E_, 2
	note A_, 1
	volume_envelope 8, 6
	note A_, 2
	octave 4
	note C#, 3
	volume_envelope 8, 2
	octave 3
	note A_, 2
	note F#, 1
	note F#, 1
	volume_envelope 8, 6
	note A_, 2
	note F#, 2
	volume_envelope 8, 2
	note E_, 2
	note D_, 2
	note D_, 1
	note C#, 3
	duty_cycle 2
	note C#, 2
	note C#, 2
	octave 2
	note A_, 2
	octave 3
	note A_, 1
	note A_, 2
	octave 4
	volume_envelope 8, 4
	note C#, 7
	octave 3
	volume_envelope 8, 2
	note F#, 2
	note F#, 2
	octave 2
	note A_, 2
	octave 3
	note G#, 1
	note G#, 2
	volume_envelope 8, 4
	note B_, 2
	duty_cycle 0
	note B_, 1
	note B_, 2
	octave 4
	note C#, 3
	volume_envelope 8, 2
	note C#, 3
	octave 3
	volume_envelope 8, 6
	note E_, 4
	note E_, 2
	note A_, 2
	note E_, 2
	note F#, 3
	octave 2
	volume_envelope 8, 2
	note A_, 3
	octave 3
	volume_envelope 8, 6
	note F#, 4
	note E_, 2
	note D_, 2
	note E_, 2

	duty_cycle 2
	volume_envelope 7, 5
	octave 2
	note A_, 1
	note __, 5
	octave 1
	note A_, 1
	note __, 7
	octave 2
	note C#, 2
	note D_, 1
	note __, 5
	note E_, 1
	note __, 7
	note G#, 2
	note A_, 2
	octave 1
	note A_, 1
	note __, 3
	octave 2
	note A_, 1
	note __, 3
	octave 1
	note A_, 1
	note __, 2
	octave 2
	note C#, 3
	note D_, 1
	note __, 1
	note D_, 1
	note __, 3
	note D_, 1
	note __, 3
	note E_, 3
	octave 1
	note E_, 3
	octave 2
	note A_, 2
	octave 1
	note A_, 2
	note __, 12
	octave 2
	note D_, 2
	octave 1
	note D_, 2
	note __, 7
	note_type 3, 7, 5
	note A#, 2
	note B_, 2
	note_type 12, 7, 5
	octave 2
	note A_, 1
	note E_, 1
	note F#, 1
	note E_, 1
	note D_, 8
	note C#, 8
	note D_, 8
	note E_, 8
	volume_envelope 11, 2
	octave 4
	note A_, 16
	note __, 16
	note __, 16
	note __, 16
	sound_jump Music_SafariZoneGateHGSS_Ch1
	endchannel

Music_SafariZoneGateHGSS_Ch2:
	duty_cycle 3
	vibrato $12, $25
	pitch_offset 1
	note_type 12, 9, 6
	octave 3
	note E_, 4
	note F#, 1
	volume_envelope 9, 2
	note E_, 2
	volume_envelope 9, 6
	note E_, 2
	note D_, 1
	volume_envelope 9, 2
	note C#, 4
	octave 2
	note B_, 1
	octave 3
	note C#, 1
	note C#, 1
	note D_, 1
	note D_, 2
	note D_, 2
	note C#, 1
	note D_, 1
	note C#, 1
	note D_, 1
	note E_, 2
	note F#, 1
	note E_, 2
	volume_envelope 9, 6
	note E_, 7
	note F#, 1
	note A_, 3
	octave 4
	volume_envelope 9, 2
	note D_, 2
	note C#, 1
	note D_, 1
	note C#, 2
	octave 3
	note A_, 2
	note B_, 1
	note A_, 3
	note E_, 2
	note F#, 1
	note E_, 2
	note E_, 1
	note F#, 1
	note A_, 1
	octave 4
	note F#, 1
	volume_envelope 9, 6
	note E_, 7
	note D_, 1
	note C#, 3
	volume_envelope 9, 2
	note D_, 2
	note E_, 1
	volume_envelope 9, 6
	note F#, 2
	note E_, 3
	volume_envelope 9, 2
	note F#, 2
	octave 3
	note A_, 1
	note B_, 1
	octave 4
	volume_envelope 9, 6
	note C#, 2
	note D_, 2
	volume_envelope 9, 2
	note C#, 2
	octave 3
	note A_, 2
	note B_, 1
	note A_, 3
	duty_cycle 2
	note A_, 2
	note A_, 2
	note E_, 2
	duty_cycle 0
	octave 4
	note E_, 1
	note E_, 2
	volume_envelope 9, 4
	note E_, 7
	duty_cycle 2
	volume_envelope 9, 2
	octave 3
	note A_, 2
	note A_, 2
	note E_, 2
	duty_cycle 0
	octave 4
	note E_, 1
	note E_, 2
	volume_envelope 9, 4
	note E_, 2
	duty_cycle 3
	note F#, 1
	note E_, 2
	note F#, 3
	volume_envelope 9, 2
	note E_, 3
	octave 3
	volume_envelope 9, 6
	note A_, 4
	octave 4
	note D_, 2
	note C#, 2
	octave 3
	note B_, 2
	note A_, 3
	volume_envelope 9, 2
	note E_, 3
	octave 4
	volume_envelope 9, 6
	note D_, 4
	note C#, 2
	octave 3
	note B_, 2
	octave 4
	note C#, 2
	octave 3
	duty_cycle 2
	volume_envelope 11, 2
	note A_, 3
	note G#, 3
	note A_, 4
	note E_, 2
	note A_, 2
	note B_, 2
	octave 4
	note C#, 3
	note D_, 3
	octave 3
	note F#, 4
	note A_, 2
	note G#, 1
	note A_, 1
	note B_, 2
	octave 4
	note C#, 2
	note D_, 2
	note E_, 2
	note F#, 1
	volume_envelope 11, 5
	note E_, 9
	volume_envelope 11, 2
	note C#, 1
	note C#, 1
	note D_, 2
	note E_, 2
	note F#, 1
	volume_envelope 11, 5
	note E_, 9
	volume_envelope 11, 2
	note E_, 2
	note C#, 2
	note A_, 3
	note G#, 2
	note A_, 1
	note B_, 2
	note A_, 4
	note A_, 1
	note A_, 1
	note E_, 2
	note A_, 3
	note G#, 2
	note A_, 1
	note B_, 2
	note A_, 1
	note G#, 1
	note F#, 1
	note G#, 1
	note A_, 2
	note A_, 2
	octave 5
	note D_, 1
	note C#, 1
	octave 4
	note B_, 1
	note A_, 3
	note A_, 2
	note C#, 1
	note D_, 1
	note E_, 1
	volume_envelope 11, 4
	note F#, 3
	note A_, 2
	octave 5
	note D_, 2
	octave 4
	volume_envelope 11, 2
	note F#, 1
	note A_, 2
	note A_, 1
	note G#, 2
	note F#, 2
	note G#, 2
	duty_cycle 1
	volume_envelope 8, 6
	octave 4
	note C#, 4
	callchannel Music_SafariZoneGateHGSS_Ch2_branch_1
	note C#, 3
	volume_envelope 8, 6
	note C#, 2
	callchannel Music_SafariZoneGateHGSS_Ch2_branch_1
	note __, 1
	sound_jump Music_SafariZoneGateHGSS_Ch2
	endchannel

Music_SafariZoneGateHGSS_Ch2_branch_1:
	volume_envelope 8, 2
	note D_, 1
	note C#, 2
	volume_envelope 8, 4
	note C#, 2
	octave 3
	volume_envelope 8, 2
	note B_, 1
	note A_, 3
	note A_, 1
	octave 4
	note C#, 1
	note G#, 1
	note A_, 3
	note F#, 3
	note D_, 2
	octave 3
	note B_, 1
	note B_, 1
	octave 4
	note E_, 2
	note D_, 1
	note E_, 2
	endchannel

Music_SafariZoneGateHGSS_Ch3:
	note_type 12, 2, 5
	vibrato $12, $15
	note __, 16
	note __, 12
Music_SafariZoneGateHGSS_Ch3_loop:
	octave 2
	note E_, 1
	octave 1
	note B_, 1
	octave 2
	note E_, 1
	note G#, 1
	note A_, 3
	note __, 5
	note C#, 1
	note __, 3
	note C#, 1
	note __, 2
	note D_, 1
	note __, 2
	note D_, 1
	note __, 1
	note D_, 1
	note __, 1
	note F#, 1
	note __, 1
	note E_, 2
	note __, 2
	note E_, 1
	note __, 2
	note A_, 5
	note __, 4
	note C#, 1
	note __, 3
	note C#, 1
	note __, 2
	note D_, 2
	note __, 1
	note D_, 1
	note __, 1
	note D_, 1
	note __, 1
	note F#, 1
	note __, 1
	note E_, 1
	note __, 3
	note E_, 1
	note __, 2
	note E_, 1
	note A_, 2
	note __, 1
	note A_, 1
	note __, 3
	note D_, 1
	note E_, 2
	octave 1
	note A_, 2
	note __, 2
	note B_, 1
	octave 2
	note C#, 1
	note D_, 2
	note __, 1
	note D_, 1
	note __, 2
	note F#, 1
	note __, 1
	note E_, 2
	note __, 1
	note E_, 1
	note __, 2
	note F#, 1
	note G#, 1
	note A_, 2
	note __, 1
	note A_, 1
	note __, 2
	note C#, 1
	note D_, 1
	note E_, 2
	octave 1
	note A_, 1
	note __, 2
	note A_, 1
	note __, 2
	octave 2
	note D_, 2
	note C#, 1
	note D_, 1
	note __, 2
	note D_, 1
	note D_, 1
	note E_, 2
	note F#, 1
	note E_, 1
	note __, 1
	note E_, 1
	note F#, 1
	note G#, 1
	note __, 5
	note_type 3, 1, 4
	octave 3
	note A_, 1
	octave 4
	note D_, 1
	note E_, 1
	note A_, 1
	note_type 12, 1, 4
	octave 5
	note D_, 4
	note C#, 1
	note __, 10
	note_type 3, 1, 4
	octave 4
	note E_, 1
	note A_, 1
	note B_, 1
	octave 5
	note D_, 1
	note_type 12, 1, 4
	note F#, 4
	note E_, 4
	note D_, 2
	note C#, 4
	volume_envelope 2, 4
	note C#, 2
	volume_envelope 3, 4
	note C#, 2

	note_type 6, 1, 2
	octave 5
	note C#, 1
	note __, 1
	note C#, 1
	note __, 1
	note D_, 2
	note __, 2
	note E_, 2
	note __, 2
	note A_, 2
	note E_, 6
	note F#, 2
	note __, 2
	note A_, 2
	note __, 2
	note C#, 2
	note D_, 2
	note E_, 2
	note F#, 2
	note A_, 4
	note G#, 2
	note A_, 2
	note B_, 4
	note A_, 2
	note __, 2
	note E_, 2
	note __, 16
	note A_, 1
	note B_, 1
	octave 6
	note C#, 2
	octave 5
	note B_, 2
	note A_, 2
	note B_, 2
	octave 6
	note C#, 1
	note __, 1
	note C#, 1
	note __, 1
	octave 5
	note A_, 2
	note __, 14
	octave 6
	note C#, 2
	note D_, 2
	note C#, 2
	octave 5
	note B_, 2
	note A_, 2
	note B_, 2
	octave 6
	note C#, 2
	note __, 2
	note C#, 2
	note __, 2
	note F#, 2
	note E_, 2
	note D_, 2
	note C#, 2
	note __, 4
	note C#, 4
	octave 5
	note E_, 2
	note F#, 2
	note G#, 2
	note A_, 6
	note F#, 2
	note __, 2
	note A_, 4
	note D_, 2
	note F#, 2
	note __, 2
	note F#, 2
	note E_, 2
	note __, 2
	note D_, 2
	note __, 2
	octave 4
	note B_, 2
	note __, 2

	octave 5
	note E_, 8
	callchannel Music_SafariZoneGateHGSS_Ch3_branch_1
	note A_, 2
	note __, 4
	note E_, 2
	note __, 2
	callchannel Music_SafariZoneGateHGSS_Ch3_branch_1
	note A_, 10
	note_type 12, 2, 2
	note A_, 4
	volume_envelope 3, 2
	note A_, 4
	volume_envelope 2, 5
	note __, 16
	sound_jump Music_SafariZoneGateHGSS_Ch3_loop
	endchannel

Music_SafariZoneGateHGSS_Ch3_branch_1:
	note F#, 2
	note E_, 2
	note __, 2
	note E_, 2
	note __, 2
	note D_, 2
	note C#, 2
	note __, 4
	note E_, 2
	note A_, 2
	note B_, 2
	octave 6
	note C#, 2
	note __, 4
	note D_, 2
	note __, 4
	octave 5
	note F#, 2
	note __, 2
	note A_, 1
	note __, 1
	note A_, 2
	note G#, 2
	note __, 2
	note F#, 2
	note G#, 2
	note __, 2
	endchannel

Music_SafariZoneGateHGSS_Ch4:
	toggle_noise 3
	note_type 12
	note __, 16
Music_SafariZoneGateHGSS_Ch4_loop_main:
	note __, 12
	note C_, 1
	note C_, 2
	note C_, 1
	note B_, 3
	note C#, 1
Music_SafariZoneGateHGSS_Ch4_loop_1:
	note D_, 1
	note G_, 1
	note G_, 1
	note C#, 1
	sound_loop 15, Music_SafariZoneGateHGSS_Ch4_loop_1
Music_SafariZoneGateHGSS_Ch4_loop_2:
	callchannel Music_SafariZoneGateHGSS_Ch4_branch_1
	sound_loop 16, Music_SafariZoneGateHGSS_Ch4_loop_2
Music_SafariZoneGateHGSS_Ch4_loop_3:
	note C_, 1
	note G_, 1
	note G_, 1
	note D_, 1
	note D#, 1
	note G_, 1
	note G_, 1
	note D_, 1
	note D#, 1
	note G_, 1
	note G_, 1
	note D_, 1
	note D#, 1
	note G_, 1
	note G_, 1
	note D_, 1
	sound_loop 2, Music_SafariZoneGateHGSS_Ch4_loop_3
Music_SafariZoneGateHGSS_Ch4_loop_4:
	callchannel Music_SafariZoneGateHGSS_Ch4_branch_1
	sound_loop 4, Music_SafariZoneGateHGSS_Ch4_loop_4
	note B_, 3
	note F#, 1
Music_SafariZoneGateHGSS_Ch4_loop_5:
	note C#, 1
	note G_, 1
	note G_, 1
	note F#, 1
	sound_loop 15, Music_SafariZoneGateHGSS_Ch4_loop_5
	note B_, 16
	sound_jump Music_SafariZoneGateHGSS_Ch4_loop_main
	endchannel

Music_SafariZoneGateHGSS_Ch4_branch_1:
	note D_, 1
	note G_, 1
	note G_, 1
	note C#, 1
	note C_, 1
	note G_, 1
	note G_, 1
	note C#, 1
	endchannel
