; Pokémon HG/SS - Summoning Dance
; Demixed by Mmmmmm
; https://pastebin.com/ANhCKGUS
; https://hax.iimarckus.org/topic/6777/3/

Music_SummoningDanceHGSS:
	channel_count 3
	channel 1, Music_SummoningDanceHGSS_Ch1
	channel 2, Music_SummoningDanceHGSS_Ch2
	channel 3, Music_SummoningDanceHGSS_Ch3

Music_SummoningDanceHGSS_Ch1:
	tempo 220
	duty_cycle 0
	note_type 12, 8, 5
	octave 3
	rest 4
	note E_, 2
	note A_, 2
	note B_, 4
	octave 4
	note C_, 4
	note D_, 4
	octave 3
	note B_, 2
	note B_, 2
	note G_, 4
	note G_, 2
	note A_, 2
	note F_, 4
	note F_, 2
	note A_, 2
	note A#, 2
	note A_, 2
	note E_, 4
	note D_, 4
	note D_, 2
	note D_, 2
	note E_, 4
	note E_, 2
	note G_, 4
	note A_, 4
	note A_, 4
	note A_, 2
	note A#, 2
	note G_, 2
	note E_, 4
	note A#, 4
	note A_, 8
	note A#, 4
	note G_, 2
	note A#, 2
	note A_, 8
	note A#, 4
	note G_, 2
	note G_, 2
	note A_, 8
	sound_jump Music_SummoningDanceHGSS_Ch1

Music_SummoningDanceHGSS_Ch2:
	duty_cycle 0
	vibrato 16, 2, 4
	note_type 12, 10, 5
	octave 3
	rest 4
	note B_, 2
	octave 4
	note D_, 2
	note E_, 4
	note B_, 4
	note A_, 2
	note G_, 2
	note E_, 2
	note D_, 2
	note E_, 8
	octave 3
	note A#, 4
	note A#, 2
	octave 4
	note D_, 2
	note E_, 2
	note D_, 2
	octave 3
	note A#, 2
	note G_, 2
	note A_, 4
	note G_, 2
	note_type 8, 10, 5
	note A#, 1
	octave 4
	note D_, 1
	octave 3
	note A#, 1
	note_type 12, 10, 5
	note A_, 2
	octave 4
	note_type 8, 10, 5
	note G_, 1
	note A_, 1
	note G_, 1
	note_type 12, 10, 5
	note E_, 2
	note C_, 4
	note D_, 2
	note E_, 2
	note F_, 2
	note D_, 2
	note F_, 2
	note E_, 2
	note D_, 2
	octave 3
	note A#, 2
	octave 4
	note D_, 2
	note F_, 2
	note D_, 2
	note E_, 8
	note F_, 2
	note E_, 2
	note D_, 3
	note D_, 1
	note E_, 8
	note F_, 2
	note E_, 2
	note F_, 2
	note_type 8, 10, 5
	note F_, 1
	note A_, 1
	note F_, 1
	note_type 12, 10, 5
	note E_, 8
	sound_jump Music_SummoningDanceHGSS_Ch2

Music_SummoningDanceHGSS_Ch3:
	note_type 12, 1, 4
	octave 2
	note E_, 4
	note G_, 2
	note B_, 2
	octave 3
	note C_, 4
	octave 2
	note A_, 4
	note B_, 4
	octave 3
	note D_, 2
	note F#, 2
	octave 2
	note E_, 4
	note E_, 4
	note G_, 4
	note F_, 4
	note E_, 4
	note G_, 2
	note E_, 2
	note A_, 4
	note A#, 4
	note A_, 8
	octave 3
	note D_, 4
	note C_, 4
	octave 2
	note B_, 4
	note G_, 2
	note A#, 2
	note E_, 4
	note G_, 4
	note A_, 4
	octave 3
	note D_, 2
	note E_, 2
	note F_, 4
	octave 2
	note E_, 4
	note A_, 4
	octave 3
	note D_, 2
	note E_, 2
	note F_, 4
	octave 2
	note G_, 4
	note A_, 8
	sound_jump Music_SummoningDanceHGSS_Ch3
