; Pokémon R/S/E - Bicycle
; Demixed by Mmmmmm
; https://pastebin.com/prMfJEB0
; https://soundcloud.com/mmmmmmmmmmmmmmmmm-1/hoenn-bicycle-gbc-8-bit

Music_BicycleRSE:
	channel_count 4
	channel 1, Music_BicycleRSE_Ch1
	channel 2, Music_BicycleRSE_Ch2
	channel 3, Music_BicycleRSE_Ch3
	channel 4, Music_BicycleRSE_Ch4

Music_BicycleRSE_Ch1:
	tempo 70
	duty_cycle 3
	vibrato $12, $15
	tone $0001
	note_type 12, 8, 2
	octave 2
	note C#, 2
	octave 1
	note B_, 2
	octave 2
	note C#, 2
	note D_, 2
	note E_, 2
	note F#, 2
	note G_, 2
	note A_, 2
	note B_, 2
	note A_, 2
	note B_, 2
	octave 3
	note C#, 2
	note D_, 2
	note E_, 2
	note F#, 2
	note A_, 2
	note F#, 12
	volume_envelope 8, 7
	note F#, 8
	volume_envelope 8, 2
	octave 5
	note F#, 2
	note G_, 2
	note A_, 4
	note F#, 2
	note G_, 2
	note A_, 4
	volume_envelope 8, 7
	octave 3
	note A_, 8
	note G_, 8
	note F#, 8
	note A_, 4
	note G_, 4
	note E_, 2
	note B_, 2
	octave 4
	note G_, 12
	octave 3
	note D#, 2
	note B_, 2
	octave 4
	note F#, 12
	octave 3
	note D_, 2
	note G_, 2
	octave 4
	note D_, 4
	octave 3
	note B_, 2
	note G_, 2
	volume_envelope 8, 1
	note A_, 4
	note G_, 4
	note F#, 4
	note A_, 4
	volume_envelope 8, 2
	note E_, 4
	volume_envelope 8, 7
	octave 4
	note C#, 8
	octave 3
	note A_, 4
	volume_envelope 8, 2
	note E_, 4
	octave 4
	note B_, 2
	note A_, 2
	note B_, 2
	octave 5
	note C#, 1
	note D_, 1
	note E_, 2
	note F#, 1
	note G_, 1
	note A_, 4
	volume_envelope 8, 7
	octave 3
	note A_, 8
	note G_, 8
	note E_, 8
	note G_, 4
	note F#, 4
	note A_, 2
	octave 4
	note D_, 2
	note F#, 12
	octave 3
	note A_, 2
	octave 4
	note D_, 2
	note E_, 12
	octave 3
	note F#, 2
	note A_, 2
	octave 4
	note D_, 4
	octave 3
	note A_, 2
	note F#, 2
	note F#, 12
	note F_, 2
	note E_, 2

	volume_envelope 8, 2
	note D_, 8
	note E_, 8
	volume_envelope 8, 7
	note F#, 12
	note E_, 2
	note D_, 2
	note F#, 12
	note D_, 3
	note G#, 1
	note A_, 12
	note F#, 4
	volume_envelope 8, 0
	note G_, 8
	volume_envelope 8, 7
	note G_, 16
	note F#, 4
	note E_, 4
	note B_, 16
	octave 2
	note B_, 15
	note A#, 1
	volume_envelope 8, 2
	note A_, 8
	note B_, 8
	volume_envelope 8, 7
	octave 3
	note D_, 12
	note C#, 2
	octave 2
	note B_, 2
	octave 3
	note C#, 12
	octave 2
	note B_, 4
	note A_, 12
	octave 3
	note F_, 4
	volume_envelope 8, 0
	note F#, 16
	note F#, 16
	volume_envelope 8, 7
	note F#, 16
	note __, 16
	volume_envelope 8, 5
	octave 4
	note D_, 4
	note D_, 1
	note __, 3
	note D_, 1
	note __, 3
	note D_, 4
	note D_, 1
	note __, 3
	note D_, 1
	note __, 3
	octave 3
	note B_, 4
	octave 4
	note D_, 1
	note __, 3
	note E_, 4
	note E_, 1
	note __, 3
	note E_, 1
	note __, 3
	note E_, 4
	note E_, 1
	note __, 3
	note E_, 1
	note __, 3
	note C#, 4
	note E_, 1
	note __, 3
	note F#, 4
	note F#, 1
	note __, 3
	note F_, 1
	note __, 3
	note F_, 4
	note E_, 1
	note __, 3
	note E_, 1
	note __, 3
	note C#, 4
	note E_, 1
	note __, 3
	note F#, 4
	note E_, 1
	note __, 3
	note F#, 1
	note __, 3
	note F#, 4
	note F#, 1
	note __, 3
	note F#, 1
	note __, 3
	note D_, 4
	note F#, 1
	note __, 3
	volume_envelope 8, 2
	octave 3
	note G_, 4
	note D_, 2
	note G_, 2
	volume_envelope 8, 7
	note B_, 8
	volume_envelope 8, 2
	note B_, 4
	note G_, 2
	note B_, 2
	volume_envelope 8, 7
	octave 4
	note F#, 8
	note E_, 4
	note D_, 1
	note C#, 1
	octave 3
	note B_, 1
	note A_, 1
	volume_envelope 8, 2
	octave 4
	note E_, 4
	note C#, 2
	note E_, 2
	volume_envelope 8, 7
	note A_, 12
	note G_, 4
	volume_envelope 8, 2
	note F#, 4
	note C#, 2
	note E_, 2
	note F#, 4
	note C#, 2
	note E_, 2
	volume_envelope 8, 0
	note F#, 3
	note G#, 1
	note A_, 4
	volume_envelope 8, 2
	note G_, 4
	note F#, 4
	note D#, 4
	volume_envelope 8, 7
	octave 3
	note B_, 2
	octave 4
	note D#, 2
	note B_, 4
	note A_, 4
	note G_, 4
	note F#, 4
	note D#, 1
	note F#, 1
	note A_, 1
	note B_, 1
	octave 5
	note D#, 1
	note F#, 1
	note A_, 1
	note B_, 1
	volume_envelope 8, 1
	octave 4
	note G_, 2
	note G_, 2
	note G_, 2
	note G_, 2
	note G_, 4
	note G_, 8
	note G_, 6
	note G_, 4
	note G_, 2
	note G#, 2
	note G#, 2
	note G#, 2
	note G#, 2
	note G#, 4
	note G#, 8
	note G#, 4
	note E_, 2
	note F#, 2
	note E_, 2
	octave 3
	note B_, 2
	volume_envelope 8, 0
	octave 4
	note D_, 16
	volume_envelope 8, 7
	note D_, 16
	jumpchannel Music_BicycleRSE_Ch1

Music_BicycleRSE_Ch2:
	duty_cycle 2
	vibrato $12, $15
	tone $0001
	note_type 12, 10, 4
	octave 2
	note A_, 2
	note G_, 2
	note A_, 2
	note B_, 2
	octave 3
	note C#, 2
	note D_, 2
	note E_, 2
	note F#, 2
	note G_, 2
	note F#, 2
	note G_, 2
	note A_, 2
	note B_, 2
	octave 4
	note C#, 2
	note D_, 2
	note E_, 2
	volume_envelope 10, 2
	note F#, 8
	note G_, 8
	volume_envelope 10, 0
	note A_, 4
	volume_envelope 10, 7
	note A_, 16
	volume_envelope 10, 2
	note F#, 4
	note G_, 4
	note A_, 4
	volume_envelope 10, 7
	octave 5
	note D_, 2
	octave 4
	note B_, 1
	note A#, 1
	volume_envelope 10, 2
	note A_, 4
	note G_, 4
	note F#, 4
	volume_envelope 10, 0
	note E_, 16
	volume_envelope 10, 7
	note E_, 16
	note __, 16
	note __, 4

	volume_envelope 10, 0
	note F#, 2
	note G_, 1
	note G#, 1
	note A_, 4
	note G_, 2
	note F#, 2
	volume_envelope 10, 2
	note E_, 8
	note F#, 8
	volume_envelope 10, 0
	note G_, 4
	volume_envelope 10, 7
	note G_, 16
	volume_envelope 10, 2
	note E_, 4
	note F#, 4
	note G_, 4
	volume_envelope 10, 0
	octave 5
	note C#, 3
	note C_, 1
	octave 4
	note B_, 4
	volume_envelope 10, 2
	octave 5
	note C#, 4
	note E_, 4
	octave 4

	volume_envelope 10, 0
	note A_, 16
	volume_envelope 10, 7
	note A_, 16
	note __, 16
	note __, 16
	duty_cycle 1
	volume_envelope 5, 4
	callchannel Music_BicycleRSE_Ch2_branch_1
	callchannel Music_BicycleRSE_Ch2_branch_2
	callchannel Music_BicycleRSE_Ch2_branch_1
	callchannel Music_BicycleRSE_Ch2_branch_2
	octave 4
	note E_, 2
	octave 3
	note B_, 2
	note G_, 2
	note B_, 2
	octave 4
	note E_, 2
	octave 3
	note B_, 2
	note G_, 2
	note B_, 2
	octave 4
	note D#, 2
	octave 3
	note B_, 2
	note G_, 2
	note B_, 2
	octave 4
	note D#, 2
	octave 3
	note B_, 2
	note G_, 2
	note B_, 2
	octave 4
	note D_, 2
	octave 3
	note B_, 2
	note G_, 2
	note B_, 2
	octave 4
	note D_, 2
	octave 3
	note B_, 2
	note G_, 2
	note B_, 2
	octave 4
	note C#, 2
	octave 3
	note B_, 2
	note G_, 2
	note B_, 2
	octave 4
	note C#, 2
	octave 3
	note B_, 2
	octave 4
	note C#, 2
	note E_, 2
	octave 3
	note G_, 2
	note B_, 2
	note G_, 2
	note B_, 2
	octave 4
	note E_, 2
	octave 3
	note B_, 2
	note G_, 2
	note B_, 2
	note G_, 2
	note B_, 2
	note G_, 2
	note B_, 2
	octave 4
	note G_, 2
	note D_, 2
	octave 3
	note B_, 2
	octave 4
	note D_, 2
	note C#, 2
	octave 3
	note A_, 2
	note G_, 2
	note A_, 2
	octave 4
	note C#, 2
	octave 3
	note A_, 2
	note G_, 2
	note A_, 2
	octave 4
	note C#, 2
	octave 3
	note A_, 2
	note G_, 2
	note A_, 2
	note G_, 2
	note A_, 2
	note G_, 2
	note A_, 2
	callchannel Music_BicycleRSE_Ch2_branch_1
	octave 4
	note C#, 2
	octave 3
	note A_, 2
	note F#, 2
	note A_, 2
	octave 4
	note C#, 2
	octave 3
	note A_, 2
	note F#, 2
	note A_, 2
	octave 4
	note C_, 2
	octave 3
	note A_, 2
	note F#, 2
	note D_, 2
	note C_, 2
	note D_, 2
	note F#, 2
	note A_, 2
	octave 4
	note C_, 2
	note D_, 2
	note F#, 2
	note A_, 2

	volume_envelope 10, 4
	note G_, 4
	note A_, 4
	volume_envelope 10, 5
	note B_, 8
	octave 5
	note C#, 8
	note D_, 8
	volume_envelope 10, -7
	note A_, 4
	volume_envelope 12, 0
	note A_, 4
	volume_envelope 12, 7
	note A_, 16
	note G_, 2
	note A_, 1
	note G_, 1
	note F#, 2
	note G_, 1
	note F#, 1
	note E_, 2
	note F#, 1
	note E_, 1
	note D_, 2
	note E_, 1
	note D_, 1
	volume_envelope 10, 2
	note C#, 4
	octave 4
	note A_, 2
	note B_, 2
	octave 5
	note C#, 4
	octave 4
	note A_, 2
	note B_, 2
	octave 5
	note C#, 4
	note C#, 2
	note D_, 2
	volume_envelope 10, 7
	note E_, 8
	note_type 8, 10, 7
	note E_, 4
	note F#, 4
	note E_, 4
	note_type 12, 10, 7
	note D_, 16
	octave 3
	note G_, 2
	note F#, 2
	note G_, 2
	note A_, 2
	note B_, 8
	octave 4
	note C#, 8
	note D_, 8
	volume_envelope 10, -7
	note B_, 4
	volume_envelope 12, 0
	note B_, 4
	volume_envelope 12, 7
	note B_, 16
	volume_envelope 10, 2
	octave 5
	note C#, 4
	volume_envelope 10, 0
	octave 4
	note B_, 2
	octave 5
	note C#, 1
	octave 4
	note B_, 1
	note A_, 4
	volume_envelope 10, 2
	note G_, 4
	note A_, 4
	note F#, 2
	note G_, 2
	note A_, 4
	note F#, 2
	note G_, 2
	volume_envelope 10, 0
	note A_, 3
	note B_, 1
	octave 5
	note C_, 4
	volume_envelope 10, 2
	octave 4
	note B_, 4
	note A_, 4
	volume_envelope 10, 0
	note A_, 4
	note G_, 2
	note A_, 1
	note G_, 1
	volume_envelope 10, 2
	note F#, 4
	note E_, 4
	note D#, 4
	note E_, 4
	volume_envelope 10, 7
	note F#, 2
	note D#, 2
	octave 3
	note B_, 4
	volume_envelope 10, 3
	octave 4
	note D_, 2
	note C#, 2
	note D_, 2
	note E_, 2
	note A_, 4
	note D_, 2
	note C#, 2
	note D_, 2
	note E_, 2
	note A_, 4
	note A_, 2
	note G_, 2
	note F#, 2
	note E_, 2
	note D_, 2
	note C#, 2
	note D_, 2
	note E_, 2
	note B_, 4
	note D_, 2
	note C#, 2
	note D_, 2
	note E_, 2
	note B_, 4
	octave 5
	note C#, 2
	octave 4
	note B_, 2
	note A_, 2
	note G#, 2
	volume_envelope 10, -7
	note A_, 4
	volume_envelope 12, 0
	note A_, 4
	volume_envelope 12, 7
	note A_, 16
	volume_envelope 10, 0
	note G_, 4
	volume_envelope 10, 1
	note A_, 4
	jumpchannel Music_BicycleRSE_Ch2

Music_BicycleRSE_Ch2_branch_1:
	octave 4
	note D_, 2
	octave 3
	note A_, 2
	note F#, 2
	note A_, 2
	octave 4
	note D_, 2
	octave 3
	note A_, 2
	note F#, 2
	note A_, 2
	endchannel

Music_BicycleRSE_Ch2_branch_2:
	octave 4
	note D_, 2
	octave 3
	note A_, 2
	note F#, 2
	note A_, 2
	note F#, 2
	note A_, 2
	note F#, 2
	note A_, 2
	endchannel

Music_BicycleRSE_Ch3:
	note_type 12, 1, 3
	note __, 16
	octave 5
	note G_, 2
	note F#, 2
	note G_, 2
	note A_, 2
	note B_, 2
	octave 6
	note C#, 2
	note D_, 2
	note E_, 2
Music_BicycleRSE_Ch3_loop_main:
	octave 3
	note D_, 4
	octave 4
	note A_, 1
	note __, 3
	octave 2
	note A_, 4
	octave 4
	note A_, 1
	note __, 3
	octave 3
	note D_, 4
	octave 4
	note B_, 1
	note __, 3
	octave 2
	note A_, 4
	octave 4
	note B_, 1
	note __, 3
	octave 3
	note D_, 4
	octave 5
	note C#, 1
	note __, 3
	octave 2
	note A_, 4
	octave 5
	note C#, 1
	note __, 3
	note F#, 2
	note E_, 1
	note D#, 1
	note D_, 4
	octave 4
	note B_, 4
	note A_, 4
	octave 3
	note E_, 4
	octave 5
	note E_, 1
	note __, 3
	octave 2
	note B_, 4
	octave 5
	note E_, 1
	note __, 3
	octave 3
	note E_, 4
	octave 5
	note D#, 1
	note __, 3
	octave 2
	note B_, 4
	octave 5
	note D#, 1
	note __, 3
	octave 3
	note E_, 4
	octave 5
	note D_, 1
	note __, 3
	octave 2
	note B_, 4
	octave 5
	note D_, 1
	note __, 3
	note C#, 2
	note C#, 2
	octave 4
	note B_, 1
	note __, 3
	octave 5
	note C#, 1
	note __, 3
	note E_, 1
	note __, 3
	octave 3
	note A_, 4
	octave 5
	note C#, 1
	note __, 3
	octave 3
	note E_, 4
	octave 5
	note C#, 1
	note __, 3
	octave 3
	note A_, 4
	octave 5
	note D_, 1
	note __, 3
	octave 3
	note E_, 4
	octave 5
	note D_, 1
	note __, 3
	octave 3
	note A_, 4
	octave 5
	note D#, 1
	note __, 3
	octave 3
	note E_, 4
	octave 5
	note D#, 1
	note __, 3
	note E_, 3
	note D#, 1
	note D_, 4
	note E_, 2
	note __, 2
	note G_, 2
	note __, 2
	octave 3
	note D_, 4
	octave 4
	note A_, 1
	note __, 3
	octave 2
	note A_, 4
	octave 4
	note A_, 1
	note __, 3
	octave 3
	note D_, 4
	octave 4
	note A_, 1
	note __, 3
	octave 2
	note A_, 4
	octave 4
	note A_, 1
	note __, 3
	octave 3
	note D_, 4
	octave 4
	note A_, 1
	note __, 3
	octave 2
	note A_, 4
	octave 4
	note A_, 1
	note __, 3
	octave 5
	note C#, 2
	octave 4
	note B_, 2
	octave 5
	note C#, 2
	note E_, 2
	note F#, 2
	note G_, 2
	note G#, 2
	note A_, 2
	note F#, 2
	note __, 6
	note G_, 2
	note __, 5
	note A#, 1
	note A_, 16
	note __, 4
	note F#, 2
	note __, 2
	note G_, 2
	note __, 2
	note A_, 3
	octave 6
	note D#, 1
	note D_, 4
	octave 5
	note A_, 2
	note __, 2
	note G_, 2
	note __, 2
	note F#, 3
	note F_, 1
	note E_, 16
	note E_, 16
	volume_envelope 2, 3
	note E_, 16
	volume_envelope 3, 3
	note E_, 16
	volume_envelope 1, 3
	note E_, 2
	note __, 6
	note F#, 2
	note __, 6
	note G_, 16
	note __, 4
	note E_, 2
	note __, 2
	note F#, 2
	note __, 2
	note G_, 2
	octave 6
	note D#, 1
	note D_, 1
	note C#, 3
	note C_, 1
	octave 5
	note B_, 4
	octave 6
	note C#, 2
	note __, 2
	note E_, 2
	note __, 2
	note F#, 16
	note F#, 16
	volume_envelope 2, 3
	note F#, 16
	note __, 8
	volume_envelope 1, 3
	octave 4
	note A_, 1
	octave 5
	note C_, 1
	note F#, 1
	note A_, 1
	octave 6
	note C_, 1
	note F#, 1
	note A_, 1
	octave 7
	note C_, 1
	octave 2
	note G_, 5
	note __, 7
	note G_, 2
	note __, 2
	note D_, 2
	note __, 2
	note G_, 6
	note __, 2
	note G_, 2
	note __, 2
	note G_, 3
	note __, 9
	note G_, 2
	note __, 2
	note D_, 2
	note __, 2
	note G_, 8
	note E_, 2
	note __, 2
	note F#, 3
	note __, 9
	note F#, 2
	note __, 2
	note C#, 2
	note __, 2
	note F#, 6
	note __, 2
	note A_, 2
	note __, 2
	note B_, 3
	note __, 9
	note B_, 2
	note __, 2
	note F#, 2
	note __, 2
	note B_, 8
	note A#, 2
	note __, 2
	note G_, 3
	note __, 9
	note G_, 2
	note __, 2
	note D_, 2
	note __, 2
	note G_, 6
	note __, 2
	note G_, 2
	note __, 2
	note G_, 3
	note __, 9
	note G_, 2
	note __, 2
	note D_, 2
	note __, 2
	note G_, 8
	note E_, 2
	note __, 2
	note F#, 3
	note __, 9
	note F#, 2
	note __, 2
	note C#, 2
	note __, 2
	note F#, 6
	note __, 2
	note A#, 2
	note __, 2
	note B_, 3
	note __, 9
	note B_, 2
	note __, 2
	note F#, 2
	note __, 2
	note B_, 8
	note A#, 2
	note __, 2
	note G_, 2
	note __, 2
	note G_, 2
	note __, 2
	note G_, 2
	note __, 2
	note G_, 2
	note __, 2
	note G_, 2
	note __, 2
	note G_, 2
	note __, 2
	note G_, 2
	note __, 2
	note G_, 2
	note __, 2
	note G#, 2
	note __, 2
	note G#, 2
	note __, 2
	note G#, 2
	note __, 2
	note G#, 2
	note __, 2
	note G#, 2
	note __, 2
	note G#, 2
	note __, 2
	note G#, 2
	note __, 2
	note G#, 2
	note __, 2
Music_BicycleRSE_Ch3_loop_1:
	octave 2
	note A_, 4
	octave 4
	note A_, 1
	note __, 3
	loopchannel 8, Music_BicycleRSE_Ch3_loop_1
	jumpchannel Music_BicycleRSE_Ch3_loop_main

Music_BicycleRSE_Ch4:
	toggle_noise 3
	note_type 12
	note __, 16
	note __, 16
Music_BicycleRSE_Ch4_loop_main:
Music_BicycleRSE_Ch4_loop_1:
	note __, 4
	note G#, 4
	loopchannel 14, Music_BicycleRSE_Ch4_loop_1
	note G#, 2
	note G#, 2
	note G#, 4
	note G#, 4
	note G#, 4
Music_BicycleRSE_Ch4_loop_2:
	note __, 4
	note G#, 4
	loopchannel 14, Music_BicycleRSE_Ch4_loop_2
	note G#, 2
	note G#, 2
	note G#, 4
	note G#, 4
	note G#, 4
	note B_, 16
Music_BicycleRSE_Ch4_loop_3:
	note __, 16
	loopchannel 31, Music_BicycleRSE_Ch4_loop_3
Music_BicycleRSE_Ch4_loop_4:
	note __, 4
	note G#, 4
	loopchannel 8, Music_BicycleRSE_Ch4_loop_4
	note B_, 16
	note __, 16
	note __, 16
	note __, 16
	jumpchannel Music_BicycleRSE_Ch4_loop_main
