; Pokémon R/S/E - Battle! Frontier Brain
; Demixed by FroggestSpirit
; https://github.com/froggestspirit/CrystalComplete/blob/master/audio/music/RSE/frontierbrain.asm

Music_FrontierBrainBattleRSE:
	dbw $80, Music_FrontierBrainBattleRSE_Ch1
	dbw $01, Music_FrontierBrainBattleRSE_Ch2
	dbw $02, Music_FrontierBrainBattleRSE_Ch3

Music_FrontierBrainBattleRSE_Ch1:
	tempo $60
	volume 7, 7
	note_type 12, 12, 2
	duty_cycle 1
	tone $0002
	vibrato $06, $34
	note __, 4
	note_type 8, 12, 2
	octave 3
	note B_, 2
	octave 4
	note F_, 2
	note B_, 2
	octave 3
	note A#, 2
	octave 4
	note E_, 2
	note A#, 2
	octave 3
	note A_, 2
	octave 4
	note D#, 2
	note A_, 2
	octave 3
	note G#, 2
	octave 4
	note D_, 2
	note G#, 2
	octave 3
	note G_, 2
	octave 4
	note C#, 2
	note G_, 2
	octave 3
	note F#, 2
	octave 4
	note C_, 2
	note F#, 2
	octave 3
	note F_, 2
	note B_, 2
	octave 4
	note F_, 2
Music_FrontierBrainBattleRSE_Ch1_loop:
	note_type 12, 12, 2
	note E_, 1
	note F_, 1
	note E_, 1
	note D_, 1
	note A_, 2
	octave 3
	note A_, 2
	octave 4
	note A_, 2
	octave 3
	note A_, 2
	octave 4
	note A_, 2
	octave 3
	note A_, 2
	octave 4
	note A_, 2
	octave 3
	note A_, 16
	note __, 16
	note __, 2
	note_type 8, 12, 1
	octave 4
	note A_, 2
	note A_, 1
	note A_, 1
	note A_, 2
	note A_, 2
	note A_, 2
	note A_, 2
	note A_, 2
	note A_, 2
	note A_, 2
	note_type 12, 12, 1
	note E_, 1
	note F_, 1
	note E_, 1
	note D_, 1
	intensity $C2
	note A_, 2
	octave 3
	note A_, 2
	octave 4
	note A_, 2
	octave 3
	note A_, 2
	octave 4
	note A_, 2
	octave 3
	note A_, 2
	octave 4
	note A_, 2
	octave 3
	note A_, 16
	note __, 16
	note __, 2
	note_type 8, 12, 1
	octave 4
	note G#, 2
	note G#, 1
	note G#, 1
	note G#, 2
	note G#, 2
	note G#, 2
	note G#, 2
	note G#, 2
	note G#, 2
	note G#, 2
	note_type 12, 12, 1
	note G#, 1
	note A_, 1
	note G#, 1
	note F#, 1
	intensity $C2
	note B_, 2
	octave 3
	note B_, 2
	octave 4
	note B_, 2
	octave 3
	note B_, 2
	octave 4
	note B_, 2
	octave 3
	note B_, 2
	octave 4
	note B_, 2
	octave 3
	note B_, 16
	note __, 16
	note __, 2
	note_type 8, 12, 2
	duty_cycle 2
	note B_, 1
	octave 4
	note D#, 1
	note F#, 1
	note A_, 1
	note B_, 1
	octave 5
	note C#, 1
	note D#, 1
	note F#, 1
	note A_, 1
	note B_, 1
	octave 6
	note C#, 1
	note D#, 1
	note F#, 1
	note D#, 1
	note C#, 1
	octave 5
	note B_, 1
	note A_, 1
	note F#, 1
	note D#, 1
	note C#, 1
	octave 4
	note B_, 1
	note A_, 1
	note F#, 1
	note D#, 4
	intensity $C4
	duty_cycle 1
	note E_, 9
	note E_, 9
	note E_, 6
	note E_, 9
	note E_, 6
	note_type 12, 12, 4
	octave 3
	note B_, 1
	octave 4
	note C#, 1
	octave 3
	note B_, 1
	note A_, 1
	octave 4
	note E_, 6
	note E_, 6
	note E_, 6
	note E_, 6
	note E_, 4
	octave 3
	note B_, 1
	octave 4
	note C#, 1
	octave 3
	note B_, 1
	note G#, 3
	octave 4
	note E_, 4
	octave 3
	note B_, 2
	octave 4
	note E_, 2
	octave 3
	note B_, 2
	note G#, 2
	octave 4
	note E_, 4
	note G#, 2
	note E_, 2
	note B_, 2
	note G#, 2
	octave 5
	note E_, 2
	octave 4
	note B_, 2
	octave 5
	note G#, 2
	intensity $C2
	duty_cycle 2
	octave 4
	note E_, 1
	note G_, 1
	note B_, 1
	octave 5
	note E_, 1
	note F#, 1
	note E_, 1
	octave 4
	note B_, 1
	note G_, 1
	note B_, 1
	note G_, 1
	note B_, 1
	octave 5
	note E_, 1
	note F#, 1
	note E_, 1
	octave 4
	note B_, 1
	note G_, 1
	note B_, 1
	note G_, 1
	note B_, 1
	octave 5
	note E_, 1
	note F#, 1
	note G_, 1
	note F#, 1
	note E_, 1
	octave 4
	note B_, 1
	octave 5
	note E_, 1
	octave 4
	note B_, 1
	note G_, 1
	note E_, 1
	octave 3
	note B_, 1
	octave 4
	note E_, 1
	note G_, 1
	note E_, 1
	note G#, 1
	note B_, 1
	octave 5
	note E_, 1
	note F#, 1
	note E_, 1
	octave 4
	note B_, 1
	note G#, 1
	note E_, 1
	note G#, 1
	note B_, 1
	octave 5
	note E_, 1
	note F#, 1
	note E_, 1
	octave 4
	note B_, 1
	note G_, 1
	note E_, 1
	note G#, 1
	note B_, 1
	octave 5
	note E_, 1
	note G#, 1
	note B_, 1
	note G#, 1
	note E_, 1
	octave 4
	note B_, 1
	note G#, 1
	note E_, 1
	octave 5
	note E_, 1
	octave 4
	note B_, 1
	octave 5
	note E_, 1
	note F#, 1
	note G#, 1
	octave 6
	note C_, 1
	octave 5
	note A_, 1
	note G_, 1
	note E_, 1
	note C_, 1
	octave 4
	note A_, 1
	note G_, 1
	note E_, 1
	note C_, 1
	octave 3
	note G_, 1
	octave 4
	note C_, 1
	note E_, 1
	note G_, 1
	octave 5
	note C_, 1
	octave 4
	note G_, 1
	note E_, 1
	octave 3
	note B_, 1
	octave 4
	note D#, 1
	note F#, 1
	note A_, 1
	note B_, 1
	octave 5
	note D#, 1
	octave 4
	note B_, 1
	note F#, 1
	note D#, 1
	note F#, 1
	note B_, 1
	octave 5
	note D#, 1
	note F#, 1
	note D#, 1
	octave 4
	note B_, 1
	note F#, 1
	note C#, 1
	note E_, 1
	note G_, 1
	note G#, 1
	octave 5
	note C#, 1
	note D#, 1
	note E_, 1
	note D#, 1
	note C#, 1
	octave 4
	note G#, 1
	note F#, 1
	note E_, 1
	note C#, 1
	octave 3
	note G#, 1
	note F#, 1
	note E_, 15
	intensity $C4
	duty_cycle 1
	octave 2
	note A_, 1
	octave 3
	note C_, 1
	note C#, 6
	note C#, 6
	note C#, 6
	note C#, 6
	octave 2
	note B_, 4
	octave 3
	note D_, 4
	note C#, 6
	note C#, 6
	note C#, 6
	note C#, 6
	note D_, 4
	octave 2
	note B_, 4
	octave 3
	note C#, 6
	note C#, 6
	note C#, 6
	note C#, 6
	octave 2
	note B_, 4
	octave 3
	note D_, 4
	octave 2
	note B_, 6
	note B_, 6
	note B_, 6
	note F#, 6
	note B_, 4
	octave 3
	note D#, 4
	octave 2
	note B_, 6
	note B_, 6
	note B_, 4
	note B_, 6
	note B_, 6
	octave 3
	note C_, 4
	note C#, 6
	note C#, 6
	note C#, 6
	note C#, 6
	note D_, 4
	octave 2
	note B_, 4
	intensity $C2
	duty_cycle 0
	octave 4
	note G#, 2
	note G#, 4
	note G#, 4
	note G#, 4
	note G#, 4
	note G#, 4
	note G#, 2
	intensity $B7
	note A_, 4
	note G#, 4
	note G_, 2
	note C#, 2
	octave 3
	note G_, 2
	octave 4
	note D_, 2
	note C#, 2
	octave 3
	note G_, 2
	note E_, 2
	octave 4
	note G_, 2
	note F#, 2
	note C#, 2
	octave 3
	note F#, 2
	octave 4
	note C#, 2
	octave 3
	note B_, 2
	note F_, 2
	octave 2
	note B_, 2
	octave 3
	note F#, 2
	note_type 8, 11, 7
	octave 4
	note G_, 2
	octave 3
	note B_, 2
	note G_, 2
	octave 4
	note F#, 2
	octave 3
	note A#, 2
	note F#, 2
	octave 4
	note F_, 2
	octave 3
	note A_, 2
	note F_, 2
	octave 4
	note E_, 2
	octave 3
	note G#, 2
	note E_, 2
	note_type 12, 11, 7
	octave 4
	note G_, 1
	note F#, 1
	note F_, 1
	note E_, 1
	note D#, 1
	note D_, 1
	note C#, 1
	note C_, 1
	octave 3
	note B_, 1
	note A#, 1
	note A_, 1
	note G#, 1
	note G_, 1
	note F#, 1
	note E_, 1
	note D_, 3
	duty_cycle 1
	octave 4
	note C_, 6
	note C_, 6
	note C_, 4
	note C_, 6
	note C_, 4
	octave 3
	note G_, 1
	note A_, 1
	note G_, 1
	note F_, 1
	octave 4
	note C_, 6
	note C_, 6
	note C_, 6
	note C_, 6
	note C_, 4
	octave 3
	note G_, 1
	note A_, 1
	note G_, 1
	note E_, 3
	octave 4
	note C_, 4
	octave 3
	note G_, 2
	octave 4
	note C_, 2
	octave 3
	note G_, 2
	note E_, 2
	octave 4
	note C_, 4
	note E_, 2
	note C_, 2
	note G_, 2
	note E_, 2
	octave 5
	note C_, 2
	octave 4
	note G_, 2
	octave 5
	note E_, 2
	intensity $C2
	duty_cycle 2
	octave 4
	note C_, 1
	note D#, 1
	note G_, 1
	octave 5
	note C_, 1
	note D_, 1
	note C_, 1
	octave 4
	note G_, 1
	note D#, 1
	note G_, 1
	note D#, 1
	note G_, 1
	octave 5
	note C_, 1
	note D_, 1
	note C_, 1
	octave 4
	note G_, 1
	note D#, 1
	note G_, 1
	note D#, 1
	note G_, 1
	octave 5
	note C_, 1
	note D_, 1
	note D#, 1
	note D_, 1
	note C_, 1
	octave 4
	note G_, 1
	octave 5
	note C_, 1
	octave 4
	note G_, 1
	note D#, 1
	note C_, 1
	octave 3
	note G_, 1
	octave 4
	note C_, 1
	note D#, 1
	note C_, 1
	note E_, 1
	note G_, 1
	octave 5
	note C_, 1
	note D_, 1
	note C_, 1
	octave 4
	note G_, 1
	note E_, 1
	note C_, 1
	note E_, 1
	note G_, 1
	octave 5
	note C_, 1
	note D_, 1
	note C_, 1
	octave 4
	note G_, 1
	note D#, 1
	note C_, 1
	note E_, 1
	note G_, 1
	octave 5
	note C_, 1
	note E_, 1
	note G_, 1
	note E_, 1
	note C_, 1
	octave 4
	note G_, 1
	note E_, 1
	note C_, 1
	octave 5
	note C_, 1
	octave 4
	note G_, 1
	octave 5
	note C_, 1
	note D_, 1
	note E_, 1
	note G#, 1
	note F_, 1
	note D#, 1
	note C_, 1
	octave 4
	note G#, 1
	note F_, 1
	note D#, 1
	note C_, 1
	octave 3
	note G#, 1
	note D#, 1
	note G#, 1
	octave 4
	note C_, 1
	note D#, 1
	note G#, 1
	note D#, 1
	note C_, 1
	octave 3
	note G_, 1
	note B_, 1
	octave 4
	note D_, 1
	note F_, 1
	note G_, 1
	note B_, 1
	note G_, 1
	note D_, 1
	octave 3
	note B_, 1
	octave 4
	note D_, 1
	note G_, 1
	note B_, 1
	octave 5
	note D_, 1
	octave 4
	note B_, 1
	note G_, 1
	note D_, 16
	note __, 9
	note_type 8, 12, 7
	duty_cycle 1
	octave 3
	note A_, 2
	note_type 10, 0, 0
	note __, 2
	note_type 8, 12, 7
	note F_, 1
	note_type 4, 0, 0
	note __, 1
	note_type 12, 12, 7
	octave 4
	note C_, 12
	note D_, 4
	note F_, 1
	note G_, 1
	note F_, 1
	note D_, 1
	octave 3
	note B_, 8
	note G_, 1
	note A_, 1
	note G_, 1
	note F#, 1
	note G_, 10
	note_type 8, 12, 7
	note G_, 1
	note_type 4, 0, 0
	note __, 1
	intensity $C7
	note G_, 2
	note __, 1
	note_type 12, 12, 7
	note G_, 16
	note_type 8, 12, 7
	note B_, 2
	note_type 10, 0, 0
	note __, 2
	note_type 8, 12, 7
	note G_, 1
	note_type 4, 0, 0
	note __, 1
	note_type 12, 12, 7
	octave 4
	note D_, 12
	note D#, 8
	note E_, 12
	duty_cycle 2
	note C#, 1
	note_type 4, 0, 0
	note __, 1
	intensity $C7
	note C#, 3
	note __, 1
	note C#, 3
	note __, 1
	note C#, 16
	octave 3
	note B_, 3
	note __, 1
	note B_, 3
	note __, 1
	note_type 12, 12, 7
	note B_, 8
	note_type 8, 12, 7
	duty_cycle 1
	note F_, 2
	note_type 10, 0, 0
	note __, 2
	note_type 8, 12, 7
	note C_, 1
	note_type 4, 0, 0
	note __, 1
	intensity $C7
	note A_, 12
	octave 4
	note C_, 4
	note __, 5
	octave 3
	note A_, 2
	note __, 1
	octave 4
	note F_, 16
	note __, 16
	note __, 16
	note __, 6
	note C_, 6
	octave 3
	note F#, 4
	note __, 5
	note C_, 2
	note __, 1
	note A_, 12
	octave 4
	note C_, 4
	note __, 5
	octave 3
	note A_, 2
	note __, 1
	note_type 12, 12, 7
	octave 4
	note F#, 12
	octave 5
	note C_, 8
	note_type 8, 12, 2
	octave 3
	note B_, 2
	octave 4
	note F_, 2
	note B_, 2
	octave 3
	note A#, 2
	octave 4
	note E_, 2
	note A#, 2
	octave 3
	note A_, 2
	octave 4
	note D#, 2
	note A_, 2
	octave 3
	note G#, 2
	octave 4
	note D_, 2
	note G#, 2
	octave 3
	note G_, 2
	octave 4
	note C#, 2
	note G_, 2
	octave 3
	note F#, 2
	octave 4
	note C_, 2
	note F#, 2
	octave 3
	note F_, 2
	note B_, 2
	octave 4
	note F_, 2
	jumpchannel Music_FrontierBrainBattleRSE_Ch1_loop

Music_FrontierBrainBattleRSE_Ch2:
	note_type 8, 13, 4
	duty_cycle 3
	tone $0001
	vibrato $0A, $25
	octave 3
	note B_, 2
	octave 4
	note F_, 2
	note B_, 2
	octave 5
	note D_, 6
	note C#, 6
	note C_, 6
	octave 4
	note B_, 6
	note A#, 6
	note A_, 6
	note G#, 6
Music_FrontierBrainBattleRSE_Ch2_loop:
	note_type 12, 13, 4
	octave 2
	note __, 8
	note A_, 2
	note G#, 4
	note B_, 2
	octave 3
	note C_, 6
	note D_, 2
	note D#, 4
	octave 2
	note B_, 2
	octave 3
	note C_, 2
	octave 2
	note A_, 1
	octave 3
	note C_, 1
	octave 2
	note A#, 2
	octave 3
	note D#, 6
	note D_, 4
	note C_, 4
	octave 2
	note B_, 2
	note A_, 2
	note G#, 2
	note B_, 2
	note E_, 2
	note F_, 2
	note E_, 2
	note D#, 1
	note F_, 1
	note E_, 2
	note E_, 2
	note F_, 2
	note A_, 2
	note G#, 4
	note B_, 2
	octave 3
	note C_, 6
	note D#, 2
	note F_, 4
	note D_, 2
	note D#, 2
	note C_, 1
	note D_, 1
	note C#, 2
	note G_, 6
	note F_, 4
	note D#, 4
	octave 2
	note B_, 2
	note A_, 2
	note G#, 2
	note B_, 2
	note E_, 2
	note F_, 2
	note E_, 2
	note D#, 2
	note E_, 6
	intensity $D7
	octave 3
	note E_, 4
	note __, 4
	note F_, 4
	note __, 4
	note F#, 4
	note __, 4
	note G_, 4
	note __, 2
	note E_, 2
	note __, 2
	note F_, 2
	note __, 2
	note F#, 2
	note __, 2
	note G_, 2
	note __, 2
	note G#, 2
	note __, 2
	note A_, 2
	note __, 2
	note A#, 2
	note __, 2
	note B_, 2
	note __, 2
	octave 4
	note E_, 6
	note F#, 2
	note __, 2
	note G#, 2
	note __, 2
	note A_, 2
	note G#, 6
	note A_, 2
	note __, 2
	note B_, 4
	intensity $B0
	note G#, 16
	intensity $C7
	note E_, 16
	note __, 2
	note E_, 6
	note F#, 2
	note __, 2
	note G#, 4
	note A_, 2
	note G#, 4
	note A_, 2
	note __, 2
	note B_, 6
	intensity $D2
	note E_, 6
	note E_, 6
	note E_, 6
	intensity $D5
	octave 3
	note B_, 6
	intensity $D2
	octave 4
	note E_, 4
	octave 3
	note B_, 4
	octave 4
	note E_, 6
	note E_, 6
	note E_, 6
	intensity $D5
	octave 3
	note B_, 6
	intensity $D2
	octave 4
	note E_, 4
	note F#, 4
	note E_, 6
	note E_, 6
	note D#, 2
	note C#, 4
	intensity $D5
	note D#, 6
	note E_, 2
	note __, 2
	note F#, 4
	note G#, 16
	note __, 14
	intensity $D2
	octave 3
	note C#, 1
	note G_, 1
	note G#, 6
	note G#, 6
	note G#, 6
	note G#, 6
	note F#, 4
	note A_, 4
	note G#, 6
	note G#, 6
	note G#, 6
	note G#, 6
	note A_, 4
	note F#, 2
	intensity $D7
	duty_cycle 0
	octave 4
	note E_, 1
	note F#, 1
	note G#, 2
	intensity $C1
	note C#, 4
	intensity $C7
	octave 5
	note C#, 6
	note E_, 6
	octave 4
	note E_, 1
	note F#, 1
	note G#, 4
	note F#, 4
	note E_, 4
	note D#, 2
	note E_, 2
	note D#, 2
	note C#, 2
	note D#, 16
	note __, 6
	note D#, 1
	note E_, 1
	note F#, 2
	intensity $C1
	octave 3
	note B_, 4
	intensity $C7
	octave 4
	note B_, 6
	octave 5
	note D#, 6
	octave 4
	note D#, 1
	note E_, 1
	note F#, 4
	note B_, 4
	note A_, 4
	note G#, 2
	note A_, 2
	note G#, 2
	note F#, 2
	note G#, 16
	note __, 6
	intensity $C2
	duty_cycle 1
	note G#, 1
	note B_, 1
	octave 5
	note C#, 2
	note C#, 4
	note C#, 4
	note C#, 4
	note C#, 4
	note C#, 4
	note C#, 2
	intensity $C7
	note E_, 4
	note D#, 4
	note D_, 8
	note C#, 8
	note C_, 8
	octave 4
	note B_, 8
	octave 5
	note D_, 4
	note C#, 4
	note C_, 4
	octave 4
	note B_, 4
	octave 5
	note D_, 1
	note C#, 1
	note C_, 1
	octave 4
	note B_, 1
	note A#, 1
	note A_, 1
	note G#, 1
	note G_, 1
	note F#, 1
	note F_, 1
	note E_, 1
	note D#, 1
	note D_, 1
	note C#, 1
	octave 3
	note B_, 1
	note G_, 1
	note __, 2
	intensity $D7
	duty_cycle 3
	octave 4
	note C_, 6
	note D_, 2
	note __, 2
	note E_, 2
	note __, 2
	note F_, 2
	note E_, 6
	note F_, 2
	note __, 2
	note G_, 4
	note E_, 16
	note C_, 16
	note __, 2
	note C_, 6
	note D_, 2
	note __, 2
	note E_, 4
	note F_, 2
	note E_, 4
	note F_, 2
	note __, 2
	note G_, 6
	intensity $D2
	octave 5
	note C_, 6
	note C_, 6
	note C_, 6
	intensity $D5
	octave 4
	note G_, 6
	intensity $D2
	octave 5
	note C_, 4
	octave 4
	note G_, 4
	octave 5
	note C_, 6
	note C_, 6
	note C_, 6
	intensity $D5
	octave 4
	note G_, 6
	intensity $D2
	octave 5
	note C_, 4
	note D_, 4
	note C_, 6
	note C_, 6
	octave 4
	note B_, 2
	note A_, 4
	intensity $D5
	note B_, 6
	octave 5
	note C_, 4
	note D_, 16
	note __, 1
	intensity $D1
	octave 4
	note A_, 1
	note B_, 1
	octave 5
	note C_, 1
	note E_, 3
	octave 4
	note A_, 1
	intensity $D7
	note A_, 12
	octave 5
	note E_, 4
	note D_, 4
	note C_, 4
	note D_, 4
	octave 4
	note B_, 1
	octave 5
	note C_, 1
	octave 4
	note B_, 1
	note A_, 1
	note B_, 16
	note __, 9
	intensity $D1
	note G_, 1
	note A_, 1
	note B_, 1
	octave 5
	note D_, 3
	octave 4
	note G_, 1
	intensity $D7
	note G_, 12
	note B_, 4
	note G_, 4
	octave 5
	note G_, 4
	note F_, 4
	note E_, 1
	note F_, 1
	note E_, 1
	note D_, 1
	note E_, 8
	note_type 8, 13, 7
	duty_cycle 2
	octave 4
	note A_, 1
	note __, 1
	note A_, 1
	note __, 1
	note A_, 1
	note __, 1
	note A_, 8
	note G_, 1
	note __, 1
	note G_, 1
	note __, 1
	note G_, 6
	intensity $D1
	duty_cycle 3
	note A_, 2
	note B_, 2
	octave 5
	note C_, 2
	note_type 12, 13, 1
	note E_, 3
	octave 4
	note A_, 1
	intensity $D7
	note A_, 12
	octave 3
	note F_, 2
	note C_, 4
	note F_, 4
	note A_, 2
	note_type 8, 13, 1
	octave 4
	note A_, 2
	note B_, 2
	octave 5
	note C_, 2
	note_type 12, 13, 1
	note E_, 3
	octave 4
	note A_, 1
	intensity $D7
	note A_, 12
	octave 3
	note F#, 2
	note C_, 4
	note F#, 4
	note A_, 4
	octave 4
	note C_, 2
	octave 5
	note D_, 16
	note __, 12
	jumpchannel Music_FrontierBrainBattleRSE_Ch2_loop

Music_FrontierBrainBattleRSE_Ch3:
	note_type 12, 1, -1
	vibrato $00, $20
	note __, 4
	note_type 8, 1, -1
	octave 2
	note F#, 2
	octave 3
	note C_, 2
	note F#, 2
	octave 2
	note F_, 2
	note B_, 2
	octave 3
	note F_, 2
	octave 2
	note E_, 2
	note A#, 2
	octave 3
	note E_, 2
	octave 2
	note D#, 2
	note A_, 2
	octave 3
	note D#, 2
	octave 2
	note D_, 2
	note G#, 2
	octave 3
	note D_, 2
	octave 2
	note C#, 2
	note G_, 2
	octave 3
	note C#, 2
	octave 2
	note C_, 2
	note F#, 2
	octave 3
	note C_, 2
Music_FrontierBrainBattleRSE_Ch3_loop:
	note_type 12, 1, -1
	octave 2
	note B_, 1
	octave 3
	note C_, 1
	octave 2
	note B_, 1
	note A#, 1
	note A_, 1
	note __, 1
	note A_, 1
	note __, 1
	note A_, 1
	note __, 1
	note A_, 1
	note __, 1
	note A_, 1
	note __, 1
	note A_, 1
	note __, 1
	note A_, 1
	note __, 1
	note A_, 1
	note __, 1
	note A_, 1
	note __, 1
	note A_, 1
	note __, 1
	note A_, 1
	note __, 1
	note A_, 1
	note __, 1
	note A_, 1
	note __, 1
	note B_, 2
	octave 3
	note D#, 1
	note D_, 1
	note C_, 2
	octave 2
	note A_, 1
	note __, 1
	note A_, 1
	note __, 1
	note A_, 1
	note __, 1
	note A_, 1
	note __, 1
	note A_, 1
	note __, 1
	note A_, 1
	note __, 1
	note A_, 1
	note __, 1
	note A_, 1
	note __, 3
	note A_, 1
	note __, 1
	note A_, 1
	note __, 1
	note A_, 1
	note __, 1
	octave 3
	note C_, 1
	note __, 1
	note D_, 2
	note D#, 1
	note D_, 1
	octave 2
	note A#, 3
	note __, 1
	note A_, 1
	note __, 1
	note A_, 1
	note __, 1
	note A_, 1
	note __, 1
	note A_, 1
	note __, 1
	note A_, 1
	note __, 1
	note A_, 1
	note __, 1
	note A_, 1
	note __, 1
	note A_, 1
	note __, 1
	note A_, 1
	note __, 1
	note A_, 1
	note __, 1
	note A_, 1
	note __, 1
	note A_, 1
	note __, 1
	note B_, 2
	octave 3
	note D#, 1
	note D_, 1
	note C_, 2
	octave 2
	note A_, 1
	note __, 1
	note A_, 1
	note __, 1
	note A_, 1
	note __, 1
	note A_, 1
	note __, 1
	note A_, 1
	note __, 1
	note A_, 1
	note __, 1
	note A_, 1
	note __, 1
	note A_, 1
	note __, 3
	note A_, 1
	note __, 1
	note A_, 1
	note __, 1
	note A_, 1
	note __, 1
	octave 3
	note C_, 1
	note __, 1
	note D_, 2
	note D#, 1
	note D_, 1
	octave 2
	note A#, 2
	note_type 8, 1, -1
	note E_, 2
	note __, 1
	note E_, 2
	note __, 1
	octave 3
	note E_, 6
	octave 2
	note E_, 2
	note __, 1
	note E_, 2
	note __, 1
	octave 3
	note F_, 6
	octave 2
	note E_, 2
	note __, 1
	note E_, 2
	note __, 1
	octave 3
	note F#, 6
	octave 2
	note E_, 2
	note __, 1
	note E_, 2
	note __, 1
	octave 3
	note G_, 6
	octave 2
	note E_, 3
	octave 3
	note E_, 3
	octave 2
	note E_, 3
	octave 3
	note F_, 3
	octave 2
	note E_, 3
	octave 3
	note F#, 3
	octave 2
	note E_, 3
	octave 3
	note G_, 3
	octave 2
	note E_, 3
	octave 3
	note G#, 3
	octave 2
	note E_, 3
	octave 3
	note A_, 3
	octave 2
	note E_, 3
	octave 3
	note A#, 3
	octave 2
	note E_, 3
	octave 3
	note B_, 3
	octave 2
	note E_, 3
	octave 3
	note E_, 3
	octave 2
	note E_, 3
	octave 3
	note E_, 3
	octave 2
	note E_, 3
	octave 3
	note E_, 3
	octave 2
	note E_, 3
	note_type 12, 1, -1
	octave 3
	note E_, 1
	note D#, 1
	note E_, 2
	octave 2
	note E_, 1
	note __, 1
	note E_, 2
	octave 3
	note E_, 2
	octave 2
	note B_, 2
	note E_, 2
	octave 3
	note E_, 1
	octave 2
	note B_, 1
	note G#, 1
	note F#, 1
	note E_, 2
	octave 3
	note E_, 2
	octave 2
	note E_, 2
	octave 3
	note E_, 2
	octave 2
	note E_, 2
	octave 3
	note E_, 2
	octave 2
	note E_, 2
	octave 3
	note E_, 1
	note D#, 1
	note E_, 2
	octave 2
	note E_, 1
	note __, 1
	note E_, 2
	octave 3
	note E_, 2
	octave 2
	note B_, 2
	note E_, 2
	octave 3
	note E_, 1
	octave 2
	note B_, 1
	note G#, 1
	note F#, 1
	note E_, 2
	octave 3
	note E_, 2
	octave 2
	note E_, 2
	octave 3
	note E_, 2
	octave 2
	note E_, 2
	octave 3
	note E_, 2
	octave 2
	note E_, 2
	octave 3
	note E_, 1
	note D#, 1
	note E_, 2
	octave 2
	note E_, 1
	note __, 1
	note E_, 2
	octave 3
	note E_, 2
	octave 2
	note B_, 2
	note E_, 2
	octave 3
	note E_, 1
	octave 2
	note B_, 1
	note G#, 1
	note F#, 1
	note D_, 2
	octave 3
	note D_, 2
	octave 2
	note D_, 2
	octave 3
	note D_, 2
	octave 2
	note D_, 2
	octave 3
	note D_, 2
	octave 2
	note D_, 2
	octave 3
	note D_, 1
	note C#, 1
	note D_, 2
	octave 2
	note D_, 2
	note D_, 2
	octave 3
	note D_, 2
	octave 2
	note A_, 2
	note D_, 2
	octave 3
	note D_, 1
	octave 2
	note A_, 1
	note F#, 1
	note E_, 1
	note C#, 2
	octave 3
	note C#, 2
	octave 2
	note C#, 2
	octave 3
	note C#, 2
	octave 2
	note C#, 2
	octave 3
	note C#, 2
	octave 2
	note C#, 2
	octave 3
	note C#, 1
	note C_, 1
	note C#, 2
	octave 2
	note C#, 2
	note C#, 2
	octave 3
	note C#, 2
	octave 2
	note G#, 2
	note C#, 2
	octave 3
	note C#, 1
	octave 2
	note G#, 1
	note F_, 1
	note D#, 1
	note C_, 2
	octave 3
	note C_, 2
	octave 2
	note C_, 2
	octave 3
	note C_, 2
	octave 2
	note C_, 2
	octave 3
	note C_, 2
	octave 2
	note C_, 2
	octave 3
	note C_, 1
	octave 2
	note B_, 1
	note B_, 2
	octave 1
	note B_, 2
	note B_, 2
	octave 2
	note B_, 2
	note F#, 2
	octave 1
	note B_, 2
	octave 2
	note B_, 1
	note F#, 1
	note D#, 1
	note C#, 1
	note C#, 2
	note G#, 2
	note C#, 2
	note G#, 2
	note C#, 2
	note G_, 2
	octave 3
	note C#, 2
	octave 2
	note G_, 2
	note C#, 2
	note G_, 2
	octave 3
	note C#, 2
	octave 2
	note G_, 2
	note E_, 2
	note F#, 2
	note E_, 1
	note D_, 1
	octave 1
	note B_, 2
	octave 2
	note C#, 2
	note G#, 2
	note C#, 2
	note G#, 2
	note C#, 2
	note G_, 2
	octave 3
	note C#, 2
	octave 2
	note G_, 2
	note C#, 2
	note G_, 2
	octave 3
	note C#, 2
	octave 2
	note G_, 2
	note E_, 2
	note F#, 2
	note E_, 1
	note D_, 1
	octave 1
	note B_, 2
	octave 2
	note C#, 2
	note G#, 2
	note C#, 2
	note G#, 2
	note C#, 2
	note G_, 2
	octave 3
	note C#, 2
	octave 2
	note G_, 2
	note C#, 2
	note G_, 2
	octave 3
	note C#, 2
	octave 2
	note G_, 2
	note E_, 2
	note F#, 2
	note E_, 1
	note D_, 1
	octave 1
	note B_, 2
	octave 2
	note C#, 2
	note G_, 2
	octave 3
	note C#, 2
	octave 2
	note G_, 2
	note E_, 2
	note F#, 2
	note D_, 2
	octave 1
	note B_, 2
	octave 2
	note C#, 2
	note G#, 2
	note C#, 2
	note G#, 2
	note C#, 2
	note G_, 2
	octave 3
	note D_, 2
	octave 2
	note G_, 2
	octave 1
	note B_, 2
	octave 2
	note F#, 2
	note B_, 2
	note F_, 2
	note D#, 2
	note E_, 2
	note D#, 1
	note C#, 1
	octave 1
	note A#, 2
	note B_, 2
	octave 2
	note F#, 2
	octave 1
	note B_, 2
	octave 2
	note F#, 2
	octave 1
	note B_, 2
	octave 2
	note F_, 2
	note B_, 2
	note F_, 2
	octave 1
	note B_, 2
	octave 2
	note F#, 2
	note B_, 2
	note F#, 2
	note D_, 2
	note E_, 2
	note D#, 1
	note C#, 1
	octave 1
	note A#, 2
	note B_, 2
	octave 2
	note F#, 2
	octave 1
	note B_, 2
	octave 2
	note F#, 2
	octave 1
	note B_, 2
	octave 2
	note F_, 2
	note B_, 2
	note F_, 2
	note C#, 2
	note G#, 2
	octave 3
	note C#, 2
	octave 2
	note G#, 2
	note C#, 2
	note D_, 2
	octave 1
	note B_, 2
	octave 2
	note D_, 2
	note C#, 2
	note G#, 2
	note C#, 2
	note G#, 2
	note C#, 2
	note D_, 2
	octave 1
	note B_, 2
	octave 2
	note D_, 2
	note C#, 2
	note C#, 2
	note __, 2
	note C#, 2
	note __, 2
	note C#, 2
	note __, 2
	note C#, 2
	note __, 2
	note C#, 2
	note __, 2
	note C#, 2
	note C#, 2
	note __, 2
	note C#, 2
	note __, 2
	note G#, 2
	octave 3
	note C#, 2
	octave 2
	note G_, 2
	octave 3
	note C_, 2
	octave 2
	note F#, 2
	note B_, 2
	note F_, 2
	note A#, 2
	note E_, 2
	note A_, 2
	note D#, 2
	note G#, 2
	note D_, 2
	note G_, 2
	note C#, 2
	note F#, 2
	note G#, 2
	octave 3
	note C#, 2
	octave 2
	note G_, 2
	octave 3
	note C_, 2
	octave 2
	note F#, 2
	note B_, 2
	note F_, 2
	note A#, 2
	note E_, 2
	note A_, 2
	note D#, 2
	note G#, 2
	note D_, 2
	note G_, 2
	note C#, 2
	note F#, 2
	note C_, 2
	octave 3
	note C_, 2
	octave 2
	note C_, 2
	octave 3
	note C_, 2
	octave 2
	note C_, 2
	octave 3
	note C_, 2
	octave 2
	note C_, 2
	octave 3
	note C_, 1
	octave 2
	note B_, 1
	octave 3
	note C_, 2
	octave 2
	note C_, 1
	note __, 1
	note C_, 2
	octave 3
	note C_, 2
	octave 2
	note G_, 2
	note C_, 2
	octave 3
	note C_, 1
	octave 2
	note G_, 1
	note E_, 1
	note D_, 1
	note C_, 2
	octave 3
	note C_, 2
	octave 2
	note C_, 2
	octave 3
	note C_, 2
	octave 2
	note C_, 2
	octave 3
	note C_, 2
	octave 2
	note C_, 2
	octave 3
	note C_, 1
	octave 2
	note B_, 1
	octave 3
	note C_, 2
	octave 2
	note C_, 1
	note __, 1
	note C_, 2
	octave 3
	note C_, 2
	octave 2
	note G_, 2
	note C_, 2
	octave 3
	note C_, 1
	octave 2
	note G_, 1
	note E_, 1
	note D_, 1
	note C_, 2
	octave 3
	note C_, 2
	octave 2
	note C_, 2
	octave 3
	note C_, 2
	octave 2
	note C_, 2
	octave 3
	note C_, 2
	octave 2
	note C_, 2
	octave 3
	note C_, 1
	octave 2
	note B_, 1
	octave 3
	note C_, 2
	octave 2
	note C_, 1
	note __, 1
	note C_, 2
	octave 3
	note C_, 2
	octave 2
	note G_, 2
	note C_, 2
	octave 3
	note C_, 1
	octave 2
	note G_, 1
	note E_, 1
	note D_, 1
	octave 1
	note A#, 2
	octave 2
	note A#, 2
	octave 1
	note A#, 2
	octave 2
	note A#, 2
	octave 1
	note A#, 2
	octave 2
	note A#, 2
	octave 1
	note A#, 2
	octave 2
	note A#, 1
	note A_, 1
	note A#, 2
	octave 1
	note A#, 2
	note A#, 2
	octave 2
	note A#, 2
	note F_, 2
	octave 1
	note A#, 2
	octave 2
	note A#, 1
	note F_, 1
	note D_, 1
	note C_, 1
	octave 1
	note A_, 2
	octave 2
	note A_, 2
	octave 1
	note A_, 2
	octave 2
	note A_, 2
	octave 1
	note A_, 2
	octave 2
	note A_, 2
	octave 1
	note A_, 2
	octave 2
	note A_, 1
	note G#, 1
	note A_, 2
	octave 1
	note A_, 2
	note A_, 2
	octave 2
	note A_, 2
	note E_, 2
	octave 1
	note A_, 2
	octave 2
	note A_, 1
	note E_, 1
	note C#, 1
	octave 1
	note B_, 1
	note G#, 2
	octave 2
	note G#, 2
	octave 1
	note G#, 2
	octave 2
	note G#, 2
	octave 1
	note G#, 2
	octave 2
	note G#, 2
	octave 1
	note G#, 2
	octave 2
	note G#, 1
	note G_, 1
	note G_, 2
	octave 1
	note G_, 2
	note G_, 2
	octave 2
	note G_, 2
	note D_, 2
	octave 1
	note G_, 2
	octave 2
	note G_, 1
	note D_, 1
	octave 1
	note B_, 1
	note A_, 1
	octave 2
	note G_, 2
	note __, 2
	note D_, 2
	note __, 2
	octave 1
	note B_, 2
	note __, 2
	octave 2
	note D_, 2
	note __, 2
	note F_, 2
	octave 3
	note C_, 2
	note F_, 2
	note C_, 2
	octave 2
	note F_, 2
	octave 3
	note C_, 2
	note F_, 1
	note G_, 1
	note F_, 1
	note C_, 1
	note F_, 2
	octave 2
	note F_, 2
	note __, 2
	octave 3
	note C_, 2
	note __, 2
	note F_, 2
	note __, 2
	note A_, 2
	octave 2
	note F_, 2
	note B_, 2
	octave 3
	note G_, 2
	note D_, 2
	octave 2
	note B_, 2
	note A_, 2
	note B_, 1
	octave 3
	note D_, 1
	octave 2
	note B_, 1
	note A_, 1
	note G_, 2
	note D_, 2
	note __, 2
	note G_, 2
	note __, 2
	note B_, 2
	note __, 2
	octave 3
	note D_, 2
	octave 2
	note E_, 2
	note B_, 2
	octave 3
	note E_, 2
	octave 2
	note B_, 2
	note E_, 2
	note B_, 2
	octave 3
	note E_, 1
	note F_, 1
	note E_, 1
	octave 2
	note B_, 1
	note E_, 2
	octave 1
	note B_, 2
	note __, 2
	octave 2
	note E_, 2
	note __, 2
	note G#, 2
	note __, 2
	note B_, 2
	note A_, 2
	octave 3
	note C#, 2
	note A_, 2
	note E_, 2
	octave 2
	note A_, 2
	octave 3
	note E_, 2
	octave 4
	note C#, 1
	note D_, 1
	note C#, 1
	octave 3
	note A_, 1
	octave 2
	note A_, 2
	note E_, 2
	note __, 2
	note A_, 2
	note __, 2
	octave 3
	note C#, 2
	note __, 2
	note E_, 2
	octave 2
	note F_, 2
	octave 3
	note C_, 2
	note F_, 2
	note C_, 2
	octave 2
	note F_, 2
	octave 3
	note C_, 2
	note F_, 1
	note G_, 1
	note F_, 1
	note C_, 1
	note F_, 2
	octave 2
	note F_, 2
	note __, 2
	octave 3
	note C_, 2
	note __, 2
	note F_, 2
	note __, 2
	note A_, 2
	octave 2
	note F#, 2
	octave 3
	note E_, 2
	note F#, 2
	note C_, 2
	octave 2
	note F#, 2
	octave 3
	note C_, 2
	note F#, 1
	note G_, 1
	note F#, 1
	note C_, 1
	note F#, 2
	octave 2
	note A_, 2
	note __, 2
	octave 3
	note C_, 2
	note __, 2
	note E_, 2
	note __, 2
	note A_, 2
	note_type 8, 1, -1
	octave 2
	note F#, 2
	octave 3
	note C_, 2
	note F#, 2
	octave 2
	note F_, 2
	note B_, 2
	octave 3
	note F_, 2
	octave 2
	note E_, 2
	note A#, 2
	octave 3
	note E_, 2
	octave 2
	note D#, 2
	note A_, 2
	octave 3
	note D#, 2
	octave 2
	note D_, 2
	note G#, 2
	octave 3
	note D_, 2
	octave 2
	note C#, 2
	note G_, 2
	octave 3
	note C#, 2
	octave 2
	note C_, 2
	note F#, 2
	octave 3
	note C_, 2
	jumpchannel Music_FrontierBrainBattleRSE_Ch3_loop
