; Pokémon R/S/E - Meteor Falls
; Demixed by Mmmmmm
; https://pastebin.com/k2wCKcMC
; https://hax.iimarckus.org/topic/6777/

Music_MeteorFallsRSE:
	channel_count 3
	channel 1, Music_MeteorFallsRSE_Ch1
	channel 2, Music_MeteorFallsRSE_Ch2
	channel 3, Music_MeteorFallsRSE_Ch3

Music_MeteorFallsRSE_Ch1:
	tempo 190
	volume 7, 7
	vibrato $6, $23
	note_type 8, 9, 2
	note __, 6
Music_MeteorFallsRSE_Ch1_loop_main:
	intensity $92
	duty_cycle 2
	octave 4
	note D#, 2
	note G_, 2
	note G#, 2
	note G_, 2
	note D#, 2
	octave 3
	note A#, 2
	note D#, 2
	note G_, 2
	note G#, 2
	note G_, 2
	octave 4
	note G_, 2
	octave 5
	note D#, 2
	intensity $62
	octave 7
	note D#, 1
	note D_, 1
	octave 6
	note A#, 1
	note G_, 1
	note D#, 1
	note D_, 1
	octave 5
	note A#, 1
	note G_, 1
	note D#, 1
	note D_, 1
	octave 4
	note A#, 1
	note G_, 1
	note D#, 1
	note G_, 1
	note A#, 1
	octave 5
	note D_, 1
	note D#, 1
	note G_, 1
	note A#, 1
	octave 6
	note D_, 1
	note D#, 1
	note G_, 1
	note A#, 1
	octave 7
	note D_, 1
	intensity $92
	octave 4
	note C#, 2
	note D#, 2
	note E_, 2
	note D#, 2
	note C#, 2
	octave 3
	note A_, 2
	note C#, 2
	note D#, 2
	note E_, 2
	note D#, 2
	octave 4
	note C#, 2
	octave 5
	note C#, 2
	intensity $62
	octave 7
	note D#, 1
	note C#, 1
	octave 6
	note A_, 1
	note G_, 1
	note D#, 1
	note C#, 1
	octave 5
	note A_, 1
	note G_, 1
	note D#, 1
	note C#, 1
	octave 4
	note A_, 1
	note G_, 1
	note D#, 1
	note G_, 1
	note A_, 1
	octave 5
	note C#, 1
	note D#, 1
	note G_, 1
	note A_, 1
	octave 6
	note C#, 1
	note D#, 1
	note G_, 1
	note A_, 1
	octave 7
	note C#, 1
	intensity $92
	duty_cycle 0
	octave 3
	note G#, 2
	note D#, 2
	octave 2
	note G#, 2
	octave 3
	note G#, 2
	note D#, 2
	octave 2
	note G#, 2
	octave 3
	note G#, 2
	note D#, 2
	octave 2
	note G#, 2
	octave 3
	note G#, 2
	note D#, 2
	octave 2
	note G#, 2
	intensity $62
	duty_cycle 2
	octave 7
	note D#, 1
	note C_, 1
	octave 6
	note G#, 1
	note F#, 1
	note D#, 1
	note C_, 1
	octave 5
	note G#, 1
	note F#, 1
	note D#, 1
	note C_, 1
	octave 4
	note G#, 1
	note F#, 1
	note D#, 1
	note F#, 1
	note G#, 1
	octave 5
	note C_, 1
	note D#, 1
	note F#, 1
	note G#, 1
	octave 6
	note C_, 1
	note D#, 1
	note F#, 1
	note G#, 1
	octave 7
	note C_, 1
	intensity $92
	octave 3
	note A#, 2
	octave 4
	note E_, 2
	note F_, 2
	note E_, 2
	octave 3
	note A#, 2
	note E_, 2
	octave 2
	note A#, 2
	octave 3
	note E_, 2
	note F_, 2
	note E_, 2
	note A#, 2
	octave 4
	note A#, 2
	octave 3
	note A#, 2
	octave 4
	note E_, 2
	note F_, 2
	note E_, 2
	octave 3
	note A#, 2
	note E_, 2
	note C#, 2
	note E_, 2
	note F_, 2
	note E_, 2
	octave 4
	note E_, 2
	octave 5
	note C#, 2
	octave 3
	note A#, 2
	octave 4
	note E_, 2
	note F_, 2
	note E_, 2
	octave 3
	note A#, 2
	note E_, 2
	octave 2
	note A#, 2
	octave 3
	note E_, 2
	note F_, 2
	note E_, 2
	note A#, 2
	octave 4
	note A#, 2
	octave 5
	note C#, 2
	octave 4
	note A#, 2
	note G_, 2
	octave 5
	note C#, 2
	octave 4
	note A#, 2
	note G_, 2
	octave 5
	note C#, 2
	octave 4
	note A#, 2
	note G_, 2
	octave 5
	note C#, 2
	octave 4
	note A#, 2
	note G_, 2
	duty_cycle 3
	intensity $d2
	octave 4
	note D#, 8
	note D#, 2
	note D#, 2
	note D#, 8
	note D#, 2
	note D#, 2
	note D#, 9
	duty_cycle 2
	intensity $62
	octave 5
	note D#, 2
	note D_, 2
	octave 4
	note G_, 2
	note D#, 2
	note C_, 2
	note D_, 2
	note D#, 2
	note D_, 1
	duty_cycle 3
	intensity $d2
	note D#, 8
	note D#, 2
	note D#, 2
	note D#, 8
	note D#, 2
	note D#, 2
	note D#, 9
	duty_cycle 2
	intensity $62
	octave 5
	note D#, 2
	note D_, 2
	note C_, 2
	octave 4
	note G#, 2
	note F_, 2
	note G_, 2
	note G#, 2
	note G_, 1
	duty_cycle 3
	intensity $d2
	note D_, 8
	note D_, 2
	note D_, 2
	note D_, 8
	note D_, 2
	note D_, 2
	note C#, 8
	note C#, 2
	note C#, 2
	note C#, 8
	note C#, 2
	note C#, 2
	note C_, 8
	note C_, 2
	note C_, 2
	note C_, 6
	octave 3
	intensity $80
	note F#, 1
	note A_, 1
	octave 4
	note C_, 1
	note D#, 1
	note F#, 1
	note A_, 1
	note A#, 16
	intensity $87
	note A#, 8
	jumpchannel Music_MeteorFallsRSE_Ch1_loop_main

Music_MeteorFallsRSE_Ch2:
	vibrato $6, $23
	note_type 8, 11, 2
	duty_cycle 3
	octave 3
	note A#, 1
	octave 4
	note D_, 1
	note F_, 1
	note G#, 1
	note A#, 1
	octave 5
	note C_, 1
	intensity $b0
	note D_, 16
	note D_, 16
	note D_, 4
	intensity $b7
	note D_, 12
	intensity $b0
	note C#, 16
	note C#, 16
	note C#, 4
	intensity $b7
	note C#, 12
	intensity $b2
	octave 4
	note G#, 6
	note G#, 6
	note G#, 8
	note G#, 2
	note G#, 2
	note G#, 6
	note G#, 6
	note G#, 12
	intensity $b0
	note A#, 16
	note A#, 16
	note A#, 16
	note A#, 16
	intensity $b7
	note A#, 8
	intensity $92
	octave 3
	note E_, 2
	note C#, 2
	octave 2
	note A#, 2
	octave 3
	note E_, 2
	note C#, 2
	octave 2
	note A#, 2
	octave 3
	note E_, 2
	note C#, 2
	octave 2
	note A#, 2
	octave 3
	note E_, 2
	note C#, 2
	octave 2
	note A#, 2
	duty_cycle 2
	intensity $92
	octave 5
	note C_, 2
	octave 4
	note A#, 2
	note G_, 2
	note D#, 2
	note D_, 2
	octave 3
	note G_, 2
	note D#, 2
	note C_, 2
	note D_, 2
	note D#, 2
	octave 4
	note D#, 2
	octave 5
	note G_, 2
	octave 6
	note C_, 2
	octave 5
	note A#, 2
	note G_, 2
	note D#, 2
	note D_, 2
	octave 4
	note G_, 2
	note D#, 2
	note C_, 2
	note D_, 2
	note D#, 2
	note D_, 2
	note C_, 2
	octave 5
	note D#, 2
	note C_, 2
	octave 4
	note G#, 2
	note F_, 2
	note D#, 2
	note C_, 2
	octave 3
	note G#, 2
	note F_, 2
	note G_, 2
	note G#, 2
	octave 4
	note G#, 2
	octave 5
	note F_, 2
	note G#, 2
	note G_, 2
	note F_, 2
	note D#, 2
	note D_, 2
	note C_, 2
	octave 4
	note G#, 2
	note F_, 2
	note G_, 2
	note G#, 2
	note G_, 2
	note F_, 2
	note D_, 2
	note D#, 2
	note F_, 2
	octave 5
	note D_, 2
	octave 4
	note B_, 2
	octave 5
	note C_, 2
	note D_, 2
	note D#, 2
	note D_, 2
	octave 4
	note B_, 2
	note G#, 2
	note F_, 2
	note C#, 2
	note D_, 2
	note E_, 2
	octave 5
	note C#, 2
	octave 4
	note A#, 2
	note B_, 2
	octave 5
	note C#, 2
	note D_, 2
	note C#, 2
	octave 4
	note A#, 2
	note G_, 2
	note E_, 2
	note F#, 2
	note D#, 2
	note A_, 2
	note D#, 2
	note F#, 2
	note A_, 2
	intensity $82
	note F#, 2
	intensity $72
	note D#, 2
	intensity $62
	note A_, 2
	intensity $b2
	duty_cycle 3
	octave 4
	note __, 2
	note C_, 2
	note C_, 2
	intensity $b0
	note D#, 6
	intensity $b7
	note D#, 6
	note D_, 6
	jumpchannel Music_MeteorFallsRSE_Ch2

Music_MeteorFallsRSE_Ch3:
	vibrato $16, $15
	note_type 12, 1, 4
	note __, 4
Music_MeteorFallsRSE_Ch3_loop_main:
	note_type 12, 1, 4
	octave 2
	note D#, 14
	note A#, 2
	note D#, 8
	note_type 8, 1, 4
	note G_, 4
	note F_, 4
	note G_, 4
	note_type 12, 1, 4
	note A_, 14
	octave 3
	note C#, 2
	octave 2
	note A_, 7
	note __, 1
	note_type 8, 1, 4
	note A_, 4
	note G_, 4
	note A_, 4
	note G#, 2
	note __, 4
	note G#, 2
	note __, 4
	note G#, 2
	note __, 6
	note G#, 1
	note __, 1
	note G#, 1
	note __, 1
	note G#, 2
	note __, 4
	note G#, 2
	note __, 4
	note G#, 2
	note __, 4
	octave 3
	note C_, 6
	note C#, 16
	note C#, 12
	intensity $24
	note C#, 8
	intensity $14
	note C#, 4
	octave 2
	note B_, 4
	note G#, 4
	note G_, 16
	intensity $24
	note G_, 8
	intensity $14
	note G_, 2
	note __, 4
	note G_, 2
	note __, 4
	note G_, 2
	note __, 4
	note G_, 2
	note __, 4
	octave 3
	note C_, 2
	note __, 6
	note C_, 1
	note __, 1
	note C_, 1
	note __, 1
	note C_, 2
	note __, 6
	note C_, 1
	note __, 1
	note C_, 1
	note __, 1
	note C_, 2
	note __, 16
	note __, 6
	octave 2
	note F_, 2
	note __, 6
	note F_, 1
	note __, 1
	note F_, 1
	note __, 1
	note F_, 2
	note __, 6
	note F_, 1
	note __, 1
	note F_, 1
	note __, 1
	note F_, 2
	note __, 16
	note __, 6
	note B_, 2
	note __, 6
	note B_, 1
	note __, 1
	note B_, 1
	note __, 1
	note B_, 2
	note __, 6
	note B_, 1
	note __, 1
	note B_, 1
	note __, 1
	note A#, 2
	note __, 6
	note A#, 1
	note __, 1
	note A#, 1
	note __, 1
	note A#, 2
	note __, 6
	note A#, 1
	note __, 1
	note A#, 1
	note __, 1
	note A_, 2
	note __, 6
	note A_, 1
	note __, 1
	note A_, 1
	note __, 1
	note A_, 2
	note __, 6
	note A_, 1
	note __, 1
	note A_, 1
	note __, 1
	note A#, 11
	note __, 1
	note A#, 4
	note G#, 4
	note F_, 4
	jumpchannel Music_MeteorFallsRSE_Ch3_loop_main
