; Pokémon R/S/E - Surfing
; Demixed by Monstarules
; https://pastebin.com/xdjW2gd4
; https://soundcloud.com/monstarules/pokemon-rse-surf-theme-gbc-conversion

Music_SurfRSE:
	channel_count 3
	channel 1, Music_SurfRSE_Ch1
	channel 2, Music_SurfRSE_Ch2
	channel 3, Music_SurfRSE_Ch3

Music_SurfRSE_Ch1:
	tempo 117
	volume 7, 7
	stereo_panning TRUE, TRUE
	note_type 12, 0, 0
	rest 12
Music_SurfRSE_Ch1_loop:
	volume_envelope 9, 1
	octave 4
	note C#, 2
	octave 3
	note F_, 2
	note G#, 2
	octave 4
	note C#, 2
	note F_, 2
	note G#, 2
	octave 3
	note B_, 2
	note F_, 2
	note G#, 2
	note B_, 2
	octave 4
	note F_, 2
	note G#, 2
	octave 3
	note A#, 2
	note C#, 2
	note F#, 2
	note A#, 2
	octave 4
	note C#, 2
	note F#, 2
	duty_cycle 1
	note G#, 2
	note C#, 2
	note F_, 2
	note G#, 2
	octave 5
	note C#, 2
	note F_, 2
	duty_cycle 0
	octave 4
	note C#, 2
	octave 3
	note F_, 2
	note G#, 2
	octave 4
	note C#, 2
	note F_, 2
	note G#, 2
	octave 3
	note B_, 2
	note F_, 2
	note G#, 2
	note B_, 2
	octave 4
	note F_, 2
	note G#, 2
	octave 3
	note A#, 2
	octave 4
	note F#, 2
	octave 5
	note C#, 2
	octave 3
	note A#, 2
	octave 4
	note C_, 2
	note C#, 2
	duty_cycle 1
	volume_envelope 11, 4
	octave 3
	note F#, 4
	note G#, 4
	note A_, 4
	duty_cycle 0
	note G#, 4
	note F_, 4
	note C#, 4
	volume_envelope 11, 7
	note G#, 8
	volume_envelope 11, 4
	note F_, 4
	note G#, 4
	note F_, 4
	octave 2
	note B_, 4
	volume_envelope 11, 7
	octave 3
	note G#, 8
	volume_envelope 11, 4
	note F_, 4
	note F#, 4
	note C#, 4
	octave 2
	note A#, 4
	volume_envelope 11, 7
	octave 3
	note F#, 8
	volume_envelope 11, 4
	note G#, 4
	note A_, 4
	note F#, 4
	note C#, 4
	rest 2
	note C#, 2
	note F#, 2
	octave 4
	note C#, 2
	note D#, 4
	volume_envelope 9, 1
	note F_, 2
	octave 3
	note F_, 2
	note G#, 2
	octave 4
	note C#, 2
	note F#, 2
	note G#, 2
	octave 5
	note C#, 2
	octave 4
	note G#, 2
	note F_, 2
	note C#, 2
	octave 3
	note G#, 2
	note F_, 2
	note G#, 2
	note F_, 2
	note G#, 2
	note B_, 2
	octave 4
	note F_, 2
	note G#, 2
	note B_, 2
	note G#, 2
	note F_, 2
	octave 3
	note B_, 2
	note G#, 2
	note F_, 2
	octave 2
	note A#, 2
	octave 3
	note C#, 2
	note F#, 2
	octave 4
	note C#, 2
	note F#, 2
	note A#, 2
	octave 5
	note C#, 2
	octave 4
	note A#, 2
	note F#, 2
	note C#, 2
	octave 3
	note A#, 2
	note F#, 2
	duty_cycle 1
	volume_envelope 12, 4
	octave 4
	note F#, 4
	note F_, 4
	note D#, 4
	volume_envelope 12, 7
	note C#, 12
	volume_envelope 9, 2
	note C#, 2
	rest 2
	note G#, 2
	rest 2
	note G#, 2
	rest 2
	note C#, 2
	rest 2
	note G#, 2
	rest 2
	note G#, 2
	rest 2
	note C#, 2
	rest 2
	note G#, 2
	rest 2
	note G#, 2
	rest 2
	note C#, 2
	rest 2
	note G#, 2
	note G_, 2
	note G#, 2
	rest 2
	note D#, 2
	rest 2
	note G#, 2
	rest 2
	note G#, 2
	rest 2
	note F#, 2
	rest 2
	note A#, 2
	rest 2
	note A#, 2
	rest 2
	note F#, 2
	rest 2
	note A#, 2
	rest 2
	note A#, 2
	rest 2
	note F#, 2
	note G#, 2
	note A#, 2
	note G#, 2
	note A#, 2
	rest 2
	duty_cycle 0
	octave 3
	note A#, 2
	rest 2
	note D#, 2
	rest 2
	note F#, 2
	rest 2
	note G#, 2
	rest 2
	note C_, 2
	rest 2
	note D#, 2
	rest 2
	note F#, 2
	rest 2
	octave 2
	note A#, 2
	rest 2
	octave 3
	note D#, 2
	rest 2
	note F_, 2
	rest 2
	octave 2
	note G#, 2
	rest 2
	octave 3
	note C#, 2
	rest 2
	volume_envelope 12, 7
	note A#, 12
	note G#, 12
	note F#, 12
	duty_cycle 1
	volume_envelope 12, 4
	note G#, 4
	note A#, 4
	octave 4
	note C_, 4
	duty_cycle 0
	volume_envelope 9, 1
	octave 3
	note G#, 2
	octave 4
	note C#, 2
	note F_, 2
	note G#, 2
	octave 5
	note C#, 2
	octave 4
	note G#, 2
	octave 3
	note G#, 2
	octave 4
	note C#, 2
	note F_, 2
	note G#, 2
	octave 5
	note C#, 2
	note G#, 2
	octave 3
	note A_, 2
	octave 4
	note C#, 2
	note F_, 2
	note A_, 2
	octave 5
	note C#, 2
	octave 4
	note A_, 2
	octave 3
	note A_, 2
	octave 4
	note C#, 2
	note F_, 2
	note A_, 2
	octave 5
	note C#, 2
	note F_, 2
	octave 3
	note A#, 2
	octave 4
	note C#, 2
	note F_, 2
	note A#, 2
	octave 5
	note C#, 2
	octave 4
	note A#, 2
	octave 3
	note A#, 2
	octave 4
	note C#, 2
	note F_, 2
	note A#, 2
	octave 5
	note C#, 2
	note A#, 2
	octave 4
	note C_, 2
	note D#, 2
	note G#, 2
	note A#, 2
	octave 5
	note C_, 2
	octave 4
	note A#, 2
	note C_, 2
	note D#, 2
	note G#, 2
	note A#, 2
	octave 5
	note C_, 2
	note G#, 2
	octave 3
	note G#, 2
	octave 4
	note C#, 2
	note F_, 2
	note G#, 2
	octave 5
	note C#, 2
	octave 4
	note G#, 2
	octave 3
	note G#, 2
	octave 4
	note C#, 2
	note F_, 2
	note G#, 2
	octave 5
	note C#, 2
	note G#, 2
	octave 3
	note A_, 2
	octave 4
	note C#, 2
	note F_, 2
	note A_, 2
	octave 5
	note C#, 2
	octave 4
	note A_, 2
	octave 3
	note A_, 2
	octave 4
	note C#, 2
	note F_, 2
	note A_, 2
	octave 5
	note C#, 2
	note F_, 2
	octave 3
	note A#, 2
	octave 4
	note C#, 2
	note F_, 2
	note A#, 2
	octave 5
	note C#, 2
	octave 4
	note A#, 2
	octave 3
	note A#, 2
	octave 4
	note C#, 2
	note F_, 2
	note A#, 2
	octave 5
	note C#, 2
	note A#, 2
	octave 4
	note C_, 2
	note D#, 2
	note G#, 2
	note A#, 2
	octave 5
	note C_, 2
	octave 4
	note A#, 2
	note C_, 2
	note D#, 2
	note G#, 2
	note A#, 2
	octave 5
	note C_, 2
	note G#, 2
	volume_envelope 12, 7
	octave 2
	note F#, 8
	note F#, 4
	note F#, 12
	note C#, 8
	note C#, 4
	note C#, 12
	note F#, 12
	note F#, 4
	note G#, 4
	note A_, 4
	note G#, 12
	note C#, 12
	sound_jump Music_SurfRSE_Ch1_loop

Music_SurfRSE_Ch2:
Music_SurfRSE_Ch2_loop:
	vibrato 0, 1, 6
	octave 4
	note_type 12, 12, 2
	note C#, 2
	note C_, 2
	note C#, 2
	octave 3
	note G#, 2
	octave 4
	note C#, 2
	note D#, 2
	volume_envelope 12, 4
	note F_, 6
	note F#, 2
	volume_envelope 12, 2
	note F_, 2
	rest 2
	volume_envelope 12, 4
	note F_, 6
	note F#, 2
	volume_envelope 12, 2
	note F_, 2
	rest 2
	volume_envelope 12, 4
	note F_, 6
	note F#, 2
	volume_envelope 12, 2
	note F_, 2
	rest 2
	note G#, 2
	note F#, 2
	note F_, 2
	octave 3
	note G#, 2
	octave 4
	note C#, 2
	note D#, 2
	volume_envelope 12, 4
	note F_, 6
	note F#, 2
	volume_envelope 12, 2
	note F_, 2
	rest 2
	volume_envelope 12, 4
	note F_, 6
	note F#, 2
	volume_envelope 12, 2
	note F_, 2
	rest 2
	volume_envelope 12, 4
	note F#, 6
	volume_envelope 12, 2
	octave 3
	note A#, 2
	octave 4
	note C_, 2
	note C#, 2
	duty_cycle 1
	volume_envelope 12, 4
	note D#, 2
	duty_cycle 0
	octave 3
	note D#, 2
	octave 4
	note F_, 2
	duty_cycle 1
	octave 3
	note F_, 2
	octave 4
	note F#, 2
	duty_cycle 0
	octave 3
	note F#, 2
	duty_cycle 1
	volume_envelope 9, 4
	vibrato 0, 0, 0
	note G#, 4
	volume_envelope 9, 2
	octave 4
	note C#, 2
	rest 2
	note C#, 2
	rest 2
	note C#, 2
	note C#, 2
	note G#, 2
	note G#, 2
	octave 5
	note C#, 2
	note C#, 2
	volume_envelope 9, 4
	octave 3
	note G#, 4
	volume_envelope 9, 2
	octave 4
	note C#, 2
	rest 2
	note C#, 2
	rest 2
	octave 3
	note B_, 2
	note B_, 2
	octave 4
	note G#, 2
	note G#, 2
	note B_, 2
	note B_, 2
	volume_envelope 9, 4
	octave 3
	note F#, 4
	volume_envelope 9, 2
	octave 4
	note D#, 2
	rest 2
	note D#, 2
	rest 2
	octave 3
	note A#, 2
	note A#, 2
	octave 4
	note F#, 2
	note F#, 2
	note A#, 2
	note A#, 2
	duty_cycle 0
	volume_envelope 9, 4
	octave 3
	note C#, 4
	octave 2
	note B_, 4
	note F#, 4
	note A#, 4
	octave 3
	note D#, 4
	note F#, 4
	duty_cycle 1
	volume_envelope 12, 4
	octave 4
	note G#, 6
	volume_envelope 12, 2
	note G#, 2
	note F#, 2
	rest 2
	volume_envelope 12, 4
	note F_, 6
	note C#, 2
	note F_, 2
	note F#, 2
	note G#, 6
	volume_envelope 12, 2
	note G#, 2
	note A#, 2
	rest 2
	volume_envelope 12, 4
	note G#, 6
	volume_envelope 12, 2
	note F#, 2
	note F_, 2
	note G#, 2
	volume_envelope 12, 4
	note F#, 6
	volume_envelope 12, 2
	note F_, 2
	note D#, 2
	note F_, 2
	volume_envelope 12, 4
	note F#, 6
	volume_envelope 12, 2
	note F_, 2
	note F#, 2
	note G#, 2
	volume_envelope 12, 4
	note A_, 4
	note G#, 4
	note F#, 4
	volume_envelope 12, 7
	note F_, 12
	volume_envelope 12, 4
	octave 3
	note C_, 6
	volume_envelope 12, 2
	octave 2
	note G#, 2
	note A#, 2
	octave 3
	note C_, 2
	volume_envelope 12, 4
	note D#, 6
	volume_envelope 12, 2
	note C_, 2
	note C#, 2
	note D#, 2
	volume_envelope 12, 0
	note F_, 12
	volume_envelope 12, 7
	note F_, 12
	volume_envelope 12, 4
	note F_, 6
	volume_envelope 12, 2
	note D_, 2
	note D#, 2
	note F_, 2
	volume_envelope 12, 4
	note G#, 6
	volume_envelope 12, 2
	note F_, 2
	note F#, 2
	note G#, 2
	volume_envelope 12, 0
	note A#, 12
	volume_envelope 12, 7
	note A#, 12
	note F#, 12
	note F_, 12
	note D#, 12
	note C#, 12
	octave 4
	note C#, 12
	note C_, 12
	octave 3
	note A#, 12
	volume_envelope 12, 4
	octave 4
	note C_, 4
	note C#, 4
	note D#, 4
	note F_, 6
	note F#, 2
	volume_envelope 12, 2
	note F_, 2
	rest 2
	volume_envelope 12, 4
	note F_, 6
	note F#, 2
	volume_envelope 12, 2
	note F_, 2
	rest 2
	volume_envelope 12, 4
	note F_, 6
	note F#, 2
	volume_envelope 12, 2
	note F_, 2
	note D#, 2
	volume_envelope 12, 4
	note C#, 4
	note F_, 4
	note G#, 4
	duty_cycle 0
	volume_envelope 12, 5
	octave 3
	note A#, 6
	note A_, 2
	volume_envelope 12, 2
	note A#, 2
	octave 4
	note C_, 2
	volume_envelope 12, 4
	note C#, 4
	note D#, 4
	note C#, 4
	volume_envelope 12, 5
	note C_, 6
	volume_envelope 12, 2
	octave 3
	note A#, 2
	volume_envelope 12, 3
	octave 4
	note C_, 4
	volume_envelope 12, 7
	octave 3
	note G#, 12
	duty_cycle 1
	volume_envelope 12, 4
	octave 4
	note F_, 6
	note F#, 2
	volume_envelope 12, 2
	note F_, 2
	rest 2
	volume_envelope 12, 4
	note F_, 6
	note F#, 2
	volume_envelope 12, 2
	note F_, 2
	rest 2
	volume_envelope 12, 4
	note F_, 6
	note F#, 2
	volume_envelope 12, 2
	note F_, 2
	note D#, 2
	volume_envelope 12, 4
	note C#, 4
	note F_, 4
	note G#, 4
	duty_cycle 0
	octave 3
	note A#, 6
	note A_, 2
	note A#, 2
	octave 4
	note C_, 2
	note C#, 4
	note D#, 4
	note F_, 4
	note D#, 6
	note F_, 2
	note D#, 2
	octave 3
	note A#, 2
	volume_envelope 12, 7
	octave 4
	note C_, 12
	volume_envelope 12, 2
	octave 3
	note G#, 2
	note A#, 2
	octave 4
	note C#, 2
	note F#, 2
	note C#, 2
	octave 5
	note C#, 2
	octave 3
	note G#, 2
	octave 4
	note F_, 2
	note C#, 2
	note F#, 2
	note C#, 2
	note F#, 2
	note G#, 2
	note F_, 2
	octave 5
	note C#, 2
	octave 4
	note C#, 2
	octave 5
	note C#, 2
	octave 4
	note G#, 2
	note G#, 2
	octave 5
	note C#, 2
	octave 4
	note F#, 2
	note F_, 2
	note C#, 2
	octave 3
	note G#, 2
	volume_envelope 12, 7
	octave 4
	note A_, 12
	note D#, 4
	note F_, 4
	note F#, 4
	note G#, 12
	sound_jump Music_SurfRSE_Ch2_loop

Music_SurfRSE_Ch3:
	note_type 12, 0, 0
	rest 12
Music_SurfRSE_Ch3_loop:
	volume_envelope 1, 4
	octave 3
	note C#, 7
	rest 1
	note C#, 2
	rest 2
	octave 2
	note B_, 12
	note A#, 7
	rest 1
	note A#, 2
	rest 2
	note A_, 12
	octave 3
	note C#, 7
	rest 1
	note C#, 2
	rest 2
	octave 2
	note B_, 12
	note A#, 7
	rest 1
	note A#, 2
	rest 2
	note A_, 12
	vibrato 8, 2, 4
	octave 5
	note G#, 5
	rest 1
	note G#, 2
	note F#, 2
	rest 2
	note F_, 6
	note C#, 2
	note F_, 2
	note F#, 2
	note G#, 5
	rest 1
	note G#, 2
	note A#, 2
	rest 2
	note G#, 6
	note F#, 2
	note F_, 2
	note G#, 2
	note F#, 6
	note F_, 2
	note D#, 2
	note F_, 2
	note F#, 6
	note A#, 2
	octave 6
	note C_, 2
	octave 5
	note A#, 2
	octave 6
	note C#, 4
	note C_, 4
	octave 5
	note A#, 4
	octave 6
	note C#, 4
	volume_envelope 1, 0
	note D#, 4
	note C#, 4
	volume_envelope 1, 4
	octave 3
	note C#, 7
	rest 1
	note C#, 2
	rest 2
	octave 2
	note B_, 12
	note A#, 7
	rest 1
	note A#, 2
	rest 2
	note A_, 7
	rest 1
	note A_, 2
	rest 2
	note F#, 7
	rest 1
	note F#, 2
	rest 2
	note G#, 4
	octave 3
	note C_, 4
	note D#, 4
	note A_, 4
	note G#, 4
	note F#, 4
	note C#, 6
	octave 4
	note C#, 2
	note C_, 2
	octave 3
	note A#, 2
	octave 2
	note G#, 12
	octave 3
	note D#, 12
	octave 5
	note C#, 6
	octave 4
	note G#, 2
	note A#, 2
	octave 5
	note C_, 2
	note C#, 4
	note G#, 2
	rest 2
	note F_, 2
	rest 2
	octave 3
	note C#, 12
	octave 2
	note G#, 12
	octave 5
	note D#, 6
	octave 4
	note A#, 2
	octave 5
	note C_, 2
	note C#, 2
	note D#, 4
	note A#, 2
	rest 2
	note F#, 2
	rest 2
	octave 4
	note A#, 5
	rest 1
	note A#, 2
	octave 5
	note C_, 2
	octave 4
	note A#, 2
	note G#, 5
	rest 1
	note F_, 2
	note D#, 2
	note F_, 2
	note F#, 5
	rest 1
	note F_, 2
	note D#, 2
	note F#, 2
	note F_, 2
	rest 2
	note F#, 2
	rest 2
	note G#, 4
	octave 5
	note A#, 5
	rest 1
	note A#, 2
	octave 6
	note C_, 2
	octave 5
	note A#, 2
	note G#, 5
	rest 1
	note F_, 2
	note F#, 2
	note G#, 2
	note A#, 4
	octave 6
	note C_, 4
	note C#, 4
	note C_, 6
	volume_envelope 2, 0
	note C_, 4
	volume_envelope 3, 0
	note C_, 2
	volume_envelope 1, 4
	octave 3
	note C#, 7
	rest 1
	note C#, 2
	rest 2
	note C#, 11
	rest 1
	note C#, 7
	rest 1
	note C#, 2
	rest 2
	note C#, 12
	octave 2
	note A#, 7
	rest 1
	note A#, 2
	rest 2
	note A#, 12
	note G#, 7
	rest 1
	note G#, 2
	rest 2
	note G#, 12
	octave 3
	note C#, 7
	rest 1
	note C#, 2
	rest 2
	note C#, 11
	rest 1
	note C#, 7
	rest 1
	note C#, 2
	rest 2
	note C#, 12
	octave 2
	note A#, 7
	rest 1
	note A#, 2
	rest 2
	note A#, 12
	note G#, 7
	rest 1
	note G#, 2
	rest 2
	note G#, 12
	volume_envelope 1, 0
	octave 6
	note C#, 12
	note C#, 6
	note D#, 2
	note C#, 2
	note D#, 2
	note C#, 12
	note C#, 6
	note D#, 2
	note C#, 2
	note D#, 2
	note C#, 4
	note C_, 4
	note C#, 4
	note D#, 4
	note F_, 4
	note F#, 4
	note F_, 12
	note C#, 12
	sound_jump Music_SurfRSE_Ch3_loop
