; Pokémon B/W - Celestial Tower
; Demixed by Mmmmmm
; https://pastebin.com/GbzJ6dUH
; https://hax.iimarckus.org/topic/6777/9/

Music_CelestialTowerBW_NoIntro:
	channel_count 4
	channel 1, Music_CelestialTowerBW_NoIntro_Ch1
	channel 2, Music_CelestialTowerBW_NoIntro_Ch2
	channel 3, Music_CelestialTowerBW_NoIntro_Ch3
	channel 4, Music_CelestialTowerBW_NoIntro_Ch4

Music_CelestialTowerBW_NoIntro_Ch1:
	tempo 232
	duty_cycle 2
	vibrato $12, $15
	tone $0001
	note_type 6, 8, 5
Music_CelestialTowerBW_NoIntro_Ch1_loop_1:
	octave 4
	note A#, 2
	note D_, 2
	note D#, 2
	note A#, 4
	note D_, 2
	note D#, 2
	note A#, 4
	note D_, 2
	note D#, 2
	note A#, 4
	note D_, 2
	note D#, 2
	note A#, 2
	note A#, 2
	note D_, 2
	note D#, 2
	note A#, 4
	note D_, 2
	note D#, 2
	note A#, 4
	note D_, 2
	note D#, 2
	note A#, 4
	note D_, 2
	note D#, 2
	note A#, 2
	note G#, 2
	note C_, 2
	note C#, 2
	note G#, 4
	note C_, 2
	note C#, 2
	note G#, 4
	note C_, 2
	note C#, 2
	note G#, 4
	note C_, 2
	note C#, 2
	note G#, 2
	note F#, 2
	octave 3
	note A#, 2
	note B_, 2
	octave 4
	note F#, 4
	octave 3
	note A#, 2
	note B_, 2
	octave 4
	note F#, 4
	octave 3
	note A#, 2
	note B_, 2
	octave 4
	note F#, 4
	octave 3
	note A#, 2
	note B_, 2
	octave 4
	note F#, 2
	loopchannel 2, Music_CelestialTowerBW_NoIntro_Ch1_loop_1
	note F_, 2
	octave 3
	note A#, 2
	note B_, 2
	octave 4
	note F_, 4
	octave 3
	note A#, 2
	note B_, 2
	octave 4
	note F_, 4
	octave 3
	note A#, 2
	note B_, 2
	octave 4
	note F_, 4
	octave 3
	note A#, 2
	note B_, 2
	octave 4
	note F_, 2
	note E_, 1
	note E_, 1
	octave 3
	note A#, 2
	note B_, 2
	octave 4
	note E_, 4
	octave 3
	note A#, 2
	note B_, 2
	octave 4
	note E_, 4
	octave 3
	note A#, 2
	note B_, 2
	octave 4
	note E_, 4
	octave 3
	note A#, 2
	note B_, 2
	octave 4
	note E_, 2
	note D#, 2
	octave 3
	note A_, 2
	note A#, 2
	octave 4
	note D#, 4
	octave 3
	note A_, 2
	note A#, 2
	octave 4
	note D#, 4
	octave 3
	note A_, 2
	note A#, 2
	octave 4
	note D#, 4
	octave 3
	note A_, 2
	note A#, 2
	octave 4
	note D#, 2
	note D_, 2
	octave 3
	note G#, 2
	note A_, 2
	octave 4
	note D_, 4
	octave 3
	note G#, 2
	note A_, 2
	octave 4
	note D_, 4
	octave 3
	note G#, 2
	note A_, 2
	octave 4
	note D_, 4
	octave 3
	note G#, 2
	note A_, 2
	octave 4
	note D_, 2
	octave 3
	note_type 3, 9, 2
	note B_, 12
	note B_, 8
	note B_, 8
	note B_, 8
	note G_, 12
	note G_, 8
	note G_, 8
	note B_, 12
	note B_, 8
	note B_, 8
	note B_, 8
	note B_, 12
	note B_, 8
	note B_, 8
	note G_, 12
	note G_, 8
	note G_, 8
	note G_, 8
	note C_, 12
	note C_, 8
	note G_, 8
	octave 2
	note B_, 12
	note B_, 8
	note B_, 8
	note B_, 8
	octave 3
	note E_, 12
	note E_, 8
	note E_, 8
	note A#, 1
	octave 4
	note C_, 1
	note_type 6, 7, 0
	note F_, 16
	intensity $77
	note F_, 15
	jumpchannel Music_CelestialTowerBW_NoIntro_Ch1

Music_CelestialTowerBW_NoIntro_Ch2:
	duty_cycle 3
	vibrato $12, $15
	tone $0001
	note_type 6, 6, 7
Music_CelestialTowerBW_NoIntro_Ch2_loop_1:
	octave 2
	note G_, 2
	octave 3
	note D_, 2
	note D#, 2
	note A#, 10
	octave 2
	note G_, 2
	octave 3
	note D_, 2
	note D#, 2
	note A#, 10
	octave 2
	note G#, 2
	octave 3
	note D_, 2
	note D#, 2
	note A#, 10
	octave 2
	note G#, 2
	octave 3
	note D_, 2
	note D#, 2
	note A#, 10
	octave 2
	note F_, 2
	octave 3
	note C_, 2
	note C#, 2
	note G#, 10
	octave 2
	note F_, 2
	octave 3
	note C_, 2
	note C#, 2
	note G#, 10
	octave 2
	note D#, 2
	note A#, 2
	note B_, 2
	octave 3
	note F#, 10
	octave 2
	note D#, 2
	note A#, 2
	note B_, 2
	octave 3
	note F#, 10
	loopchannel 2, Music_CelestialTowerBW_NoIntro_Ch2_loop_1
	octave 2
	note D_, 2
	note A_, 2
	note A#, 2
	octave 3
	note F_, 10
	octave 2
	note D_, 2
	note A_, 2
	note A#, 2
	octave 3
	note F_, 10
	octave 2
	note C#, 2
	note G#, 2
	note A_, 2
	octave 3
	note E_, 10
	octave 2
	note C#, 2
	note G#, 2
	note A_, 2
	octave 3
	note E_, 10
	octave 2
	note C_, 2
	note G#, 2
	note A_, 2
	octave 3
	note D#, 10
	octave 2
	note C_, 2
	note G#, 2
	note A_, 2
	octave 3
	note D#, 10
	octave 1
	note B_, 2
	octave 2
	note G#, 2
	note A_, 2
	octave 3
	note D_, 10
	octave 1
	note B_, 2
	octave 2
	note G#, 2
	note A_, 2
	octave 3
	note D_, 10
	note_type 3, 9, 2
	duty_cycle 2
	octave 4
	note D_, 1
	note A#, 11
	note D_, 1
	note A#, 7
	note D_, 1
	note A#, 7
	note D_, 1
	note A#, 7
	note D#, 1
	octave 5
	note C#, 11
	octave 4
	note D#, 1
	octave 5
	note C#, 7
	octave 4
	note D#, 1
	octave 5
	note C#, 7
	octave 4
	note C#, 1
	note G#, 11
	note C#, 1
	note G#, 7
	note C#, 1
	note G#, 7
	note C#, 1
	note G#, 7
	note D#, 1
	note B_, 11
	note D#, 1
	note B_, 7
	note D#, 1
	note B_, 7
	note D#, 1
	note A#, 11
	note D#, 1
	note A#, 7
	note D_, 1
	note A#, 7
	note C#, 1
	note A#, 7
	note F_, 1
	octave 5
	note C_, 11
	octave 4
	note E_, 1
	octave 5
	note C_, 7
	octave 4
	note D#, 1
	octave 5
	note C_, 7
	octave 4
	note C#, 1
	note G#, 11
	note C#, 1
	note G#, 7
	note C#, 1
	note G#, 7
	note C#, 1
	note G#, 7
	octave 3
	note B_, 1
	octave 4
	note F#, 11
	octave 3
	note B_, 1
	octave 4
	note F#, 7
	octave 3
	note B_, 1
	octave 4
	note F#, 7
	octave 3
	duty_cycle 3
	note_type 12, 6, 0
	note A#, 8
	intensity $67
	note A#, 8
	jumpchannel Music_CelestialTowerBW_NoIntro_Ch2

Music_CelestialTowerBW_NoIntro_Ch3:
	vibrato $0, $0
	note_type 12, 2, 0
	octave 3
	note G_, 16
	note G#, 16
	note F_, 16
	note D#, 16
	vibrato $3, $24
	note_type 6, 1, 6
	octave 5
	note D_, 16
	note C_, 8
	note F_, 6
	note E_, 1
	note D#, 1
	note D_, 16
	note C_, 16
	octave 4
	note G#, 16
	note A#, 8
	octave 5
	note C_, 8
	octave 4
	note F#, 16
	note F#, 8
	intensity $26
	note F#, 8
	intensity $16
	note F_, 16
	intensity $26
	note F_, 10
	intensity $16
	note A#, 2
	octave 5
	note C#, 2
	note F_, 2
	note E_, 16
	note C#, 16
	note D#, 16
	octave 4
	note A#, 8
	octave 5
	note F_, 6
	note E_, 1
	note D#, 1
	note D_, 16
	note D_, 8
	intensity $26
	note D_, 4
	intensity $36
	note D_, 4
	intensity $10
	octave 1
	note D#, 2
	intensity $20
	octave 2
	note B_, 2
	octave 3
	note C#, 2
	note D#, 4
	note __, 6
	octave 1
	intensity $10
	note G_, 2
	octave 2
	intensity $20
	note B_, 2
	octave 3
	note C#, 2
	note D#, 4
	note __, 6
	octave 1
	intensity $10
	note D#, 2
	octave 2
	intensity $20
	note B_, 2
	octave 3
	note C#, 2
	note D#, 4
	note __, 6
	octave 1
	intensity $10
	note E_, 2
	octave 2
	intensity $20
	note B_, 2
	octave 3
	note D#, 2
	note F_, 4
	note __, 6
	octave 1
	intensity $10
	note G_, 2
	octave 2
	intensity $20
	note B_, 2
	octave 3
	note C#, 2
	note D#, 4
	note __, 6
	octave 1
	intensity $10
	note C_, 2
	octave 2
	intensity $20
	note B_, 2
	octave 3
	note C#, 2
	note D#, 4
	note __, 6
	octave 1
	intensity $10
	note D#, 2
	octave 2
	intensity $20
	note B_, 2
	octave 3
	note C#, 2
	note D#, 4
	note __, 6
	octave 1
	intensity $10
	note E_, 2
	octave 2
	intensity $20
	note B_, 2
	octave 3
	note D#, 2
	note F_, 4
	note __, 6
	intensity $10
	octave 2
	note D_, 16
	intensity $20
	note D_, 8
	intensity $30
	note D_, 8
	jumpchannel Music_CelestialTowerBW_NoIntro_Ch3

Music_CelestialTowerBW_NoIntro_Ch4:
	togglenoise $4
	note_type 12
	note __, 16
	note __, 16
	note __, 16
	note __, 16
	note_type 6
	callchannel Music_CelestialTowerBW_NoIntro_Ch4_branch_1
	callchannel Music_CelestialTowerBW_NoIntro_Ch4_branch_1
	callchannel Music_CelestialTowerBW_NoIntro_Ch4_branch_2
	callchannel Music_CelestialTowerBW_NoIntro_Ch4_branch_2
	callchannel Music_CelestialTowerBW_NoIntro_Ch4_branch_1
	callchannel Music_CelestialTowerBW_NoIntro_Ch4_branch_1
	callchannel Music_CelestialTowerBW_NoIntro_Ch4_branch_2
	callchannel Music_CelestialTowerBW_NoIntro_Ch4_branch_1
Music_CelestialTowerBW_NoIntro_Ch4_loop_1:
	note C#, 1
	note G#, 1
	note C#, 1
	note G#, 1
	note C#, 1
	note G#, 1
	note C#, 1
	note G#, 1
	note G#, 2
	note G#, 6
	note __, 16
	loopchannel 4, Music_CelestialTowerBW_NoIntro_Ch4_loop_1
	note __, 16
	jumpchannel Music_CelestialTowerBW_NoIntro_Ch4

Music_CelestialTowerBW_NoIntro_Ch4_branch_1:
	note C#, 1
	note G#, 1
	note C#, 1
	note G#, 1
	note C#, 1
	note G#, 1
	note C#, 1
	note G#, 1
	note G#, 1
	note F#, 1
	note G#, 1
	note F#, 1
	note D#, 2
	note D#, 2
	note __, 16
	endchannel

Music_CelestialTowerBW_NoIntro_Ch4_branch_2:
	note C#, 1
	note G#, 1
	note C#, 1
	note G#, 1
	note C#, 1
	note G#, 1
	note C#, 1
	note G#, 1
	note G#, 1
	note F#, 1
	note G#, 1
	note F#, 1
	note D#, 2
	note D#, 2
	note __, 12
	note D#, 1
	note D#, 1
	note D#, 1
	note D#, 1
	endchannel
