; Pokémon B/W - Battle! Elite Four
; Demixed by Mmmmmm
; https://pastebin.com/SQ00sPwE
; https://hax.iimarckus.org/topic/6777/9/

Music_EliteFourBattleBW:
	channel_count 4
	channel 1, Music_EliteFourBattleBW_Ch1
	channel 2, Music_EliteFourBattleBW_Ch2
	channel 3, Music_EliteFourBattleBW_Ch3
	channel 4, Music_EliteFourBattleBW_Ch4

Music_EliteFourBattleBW_Ch1:
	duty_cycle 2
	vibrato 18, 1, 5
	pitch_offset 1
	tempo 200
	note_type 12, 11, 2
	octave 4
	rest 16
	rest 14
	note F#, 2
	octave 5
	note C#, 2
	octave 3
	volume_envelope 6, 3
	pitch_sweep 6, -4
Music_EliteFourBattleBW_Ch1_loop_1:
	note C#, 2
	sound_loop 31, Music_EliteFourBattleBW_Ch1_loop_1
Music_EliteFourBattleBW_Ch1_loop_main:
	note_type 6, 10, 0
	pitch_sweep 6, 7
	octave 3
	note D#, 2
	pitch_sweep 0, 0
	note F#, 4
	octave 4
	note C#, 6
	octave 3
	note A#, 4
	octave 4
	note C_, 6
	pitch_sweep 6, 7
	note D#, 2
	pitch_sweep 0, 0
	note F#, 4
	volume_envelope 10, 4
	note F#, 4
	volume_envelope 10, 0
	octave 3
	note F#, 6
	pitch_sweep 6, 7
	note A#, 2
	octave 4
	pitch_sweep 0, 0
	note C#, 4
	octave 3
	note A#, 4
	note A_, 6
	pitch_sweep 6, -7
	note A_, 2
	pitch_sweep 0, 0
	note F#, 4
	volume_envelope 10, 4
	note F#, 4

	volume_envelope 10, 0
	pitch_sweep 6, 7
	octave 4
	note E_, 1
	pitch_sweep 0, 0
	note F#, 5
	octave 5
	note C#, 6
	octave 4
	note A#, 4
	octave 5
	note C_, 6
	pitch_sweep 6, 7
	note D#, 1
	pitch_sweep 0, 0
	note F#, 5
	volume_envelope 10, 4
	note F#, 4
	volume_envelope 10, 0
	octave 4
	note F#, 6
	pitch_sweep 6, 7
	note B_, 1
	octave 5
	pitch_sweep 0, 0
	note C#, 5
	octave 4
	note A#, 4
	note A_, 6
	pitch_sweep 6, -7
	note A_, 2
	pitch_sweep 0, 0
	note F#, 4
	volume_envelope 10, 4
	note F#, 4
	duty_cycle 0
	volume_envelope 11, 2
	note F#, 2
	note F#, 4
	volume_envelope 11, 5
	note G_, 4
	note A_, 2
	note G#, 2
	note G_, 2
	volume_envelope 11, 2
	note F#, 2
	note F#, 4
	volume_envelope 11, 5
	note G_, 4
	note B_, 2
	note A_, 2
	note G_, 2
	volume_envelope 11, 2
	note F#, 2
	note F#, 4
	volume_envelope 11, 5
	note G_, 4
	note A_, 2
	note G#, 2
	note G_, 2
	volume_envelope 11, 2
	note F#, 2
	note F#, 4
	volume_envelope 11, 5
	note G_, 4
	note B_, 2
	note A_, 2
	note G_, 2
	duty_cycle 2
	volume_envelope 10, 0
	pitch_sweep 6, 7
	octave 2
	note D#, 2
	pitch_sweep 0, 0
	note F#, 4
	octave 3
	note C#, 6
	octave 2
	note A#, 4
	octave 3
	note C_, 6
	pitch_sweep 6, 7
	note D#, 2
	pitch_sweep 0, 0
	note F#, 4
	volume_envelope 10, 4
	note F#, 4
	volume_envelope 10, 0
	octave 2
	note F#, 6
	pitch_sweep 6, 7
	note A#, 2
	octave 3
	pitch_sweep 0, 0
	note C#, 4
	octave 2
	note A#, 4
	note A_, 6
	pitch_sweep 6, -7
	note A_, 2
	pitch_sweep 0, 0
	note F#, 4
	volume_envelope 10, 4
	note F#, 4
	volume_envelope 10, 0
	pitch_sweep 6, 7
	octave 3
	note D#, 2
	pitch_sweep 0, 0
	note F#, 4
	octave 4
	note C#, 6
	octave 3
	note A#, 4
	octave 4
	note C_, 6
	pitch_sweep 6, 7
	note D#, 2
	pitch_sweep 0, 0
	note F#, 4
	volume_envelope 10, 4
	note F#, 4
	volume_envelope 10, 0
	octave 3
	note F#, 6
	pitch_sweep 6, 7
	note A#, 2
	octave 4
	pitch_sweep 0, 0
	note C#, 4
	octave 3
	note A#, 4
	volume_envelope 10, 7
	note A_, 6
	volume_envelope 10, 0
	note A_, 6
	volume_envelope 10, 4
	note A_, 4
	duty_cycle 3
	octave 4
	note_type 12, 12, 1
	note F#, 1
	note F#, 2
	volume_envelope 12, 0
	note E_, 5
	volume_envelope 12, 7
	note E_, 8
	volume_envelope 12, 1
	note F#, 1
	note F#, 2
	volume_envelope 12, 0
	note G_, 5
	volume_envelope 12, 7
	note G_, 8
	octave 3
	duty_cycle 0
	volume_envelope 11, 2
	note F#, 2
	volume_envelope 11, 5
	note G_, 2
	note A_, 2
	note G_, 2
	volume_envelope 11, 2
	note F#, 2
	volume_envelope 11, 5
	note G_, 2
	note A_, 2
	note G_, 2
	volume_envelope 11, 2
	note B_, 2
	volume_envelope 11, 5
	octave 4
	note C_, 2
	note D_, 2
	note C_, 2
	octave 3
	volume_envelope 11, 2
	note B_, 2
	volume_envelope 11, 5
	octave 4
	note C_, 2
	note D_, 2
	note C_, 2
	octave 3
	volume_envelope 11, 2
	note B_, 2
	volume_envelope 11, 5
	octave 4
	note C_, 2
	note D_, 2
	note C_, 2
	octave 3
	volume_envelope 11, 2
	note B_, 2
	volume_envelope 11, 5
	octave 4
	note C_, 2
	note D_, 2
	note E_, 2
	rest 16
	rest 16
	octave 2
	volume_envelope 10, 0
	note F#, 3
	octave 3
	note C#, 3
	note F#, 2
	note G_, 2
	volume_envelope 10, 7
	note G_, 4
	volume_envelope 10, 2
	note F#, 2
	octave 2
	volume_envelope 10, 7
	note E_, 2
	volume_envelope 10, 2
	note G_, 2
	volume_envelope 10, 7
	note B_, 2
	octave 3
	volume_envelope 10, 2
	note D_, 2
	volume_envelope 10, 0
	note C#, 2
	volume_envelope 10, 7
	note C#, 5
	octave 4
	note C#, 1
	octave 3
	volume_envelope 10, 0
	note B_, 8
	volume_envelope 10, 7
	note B_, 7
	octave 4
	note C_, 1
	volume_envelope 10, 0
	note C#, 8
	volume_envelope 10, 7
	note C#, 8
	volume_envelope 10, 0
	octave 3
	note F#, 3
	octave 4
	note C#, 3
	octave 3
	note F#, 2
	note D_, 2
	volume_envelope 10, 7
	note D_, 4
	volume_envelope 10, 2
	note F#, 2
	volume_envelope 10, 7
	note E_, 2
	volume_envelope 10, 2
	note G_, 2
	volume_envelope 10, 7
	note B_, 2
	octave 4
	volume_envelope 10, 2
	note D_, 2
	volume_envelope 10, 0
	note C#, 2
	volume_envelope 10, 7
	note C#, 5
	note F#, 1
	volume_envelope 10, 0
	note E_, 8
	volume_envelope 10, 7
	note E_, 7
	note C#, 1
	volume_envelope 10, 0
	note F#, 8
	volume_envelope 10, 7
	note F#, 8
	duty_cycle 2
	note_type 6, 10, 1
	octave 4
	note F_, 1
	note D#, 1
	note C#, 1
	octave 3
	note B_, 1
	note A#, 1
	note G#, 1
	note F#, 1
	note F_, 1
	note D#, 1
	note C#, 1
	octave 2
	note B_, 1
	octave 3
	note C#, 1
	note D#, 1
	note F_, 1
	note F#, 1
	note G#, 1
	octave 4
	note C#, 1
	octave 3
	note B_, 1
	note A#, 1
	note G#, 1
	note F#, 1
	note F_, 1
	note D#, 1
	note C#, 1
	octave 2
	note B_, 1
	note A#, 1
	note B_, 1
	octave 3
	note C#, 1
	note D#, 1
	note F#, 1
	note A#, 1
	note G#, 1
	octave 2
	note A#, 2
	octave 3
	note C#, 2
	note D#, 2
	note F_, 2
	note A#, 2
	note G#, 2
	note F#, 2
	note G#, 2
	note F#, 2
	note C#, 2
	note F#, 1
	note G#, 1
	note A#, 2
	octave 4
	note C#, 2
	octave 3
	volume_envelope 10, 4
	note A#, 6
	volume_envelope 10, 1
	octave 4
	note F_, 1
	note D#, 1
	note C#, 2
	note C#, 1
	octave 3
	note B_, 1
	note G#, 2
	note A#, 2
	note C_, 1
	note C#, 1
	note D#, 1
	note F_, 1
	note F#, 1
	note G#, 1
	octave 4
	note C#, 1
	octave 3
	note B_, 1
	note G#, 2
	note A#, 1
	note G#, 1
	note F#, 1
	note F_, 2
	octave 2
	note A#, 1
	note B_, 1
	octave 3
	note C#, 1
	note D#, 1
	note F_, 1
	note F#, 1
	note G#, 1
	octave 2
	note A#, 2
	octave 3
	note C#, 2
	note D#, 2
	note F_, 2
	note A#, 2
	note G#, 4
	note F_, 2
	volume_envelope 10, 4
	note F#, 2
	note F_, 2
	note F#, 2
	volume_envelope 10, 6
	note F_, 10
	sound_jump Music_EliteFourBattleBW_Ch1_loop_main

Music_EliteFourBattleBW_Ch2:
	duty_cycle 3
	vibrato 18, 1, 5
	pitch_offset 1
	note_type 12, 11, 2
	rest 16
	rest 14
	octave 2
	note F#, 2
	octave 3
	note C#, 16
	rest 16
	rest 16
	rest 16
Music_EliteFourBattleBW_Ch2_loop_main:
	volume_envelope 8, 0
	octave 3
	note C#, 3
	note F#, 3
	note D#, 2
	note F_, 3
	octave 4
	note C_, 3
	volume_envelope 8, 4
	note C_, 2
	volume_envelope 8, 0
	octave 3
	note C#, 3
	note F#, 3
	note D#, 2
	note D_, 3
	note C_, 3
	volume_envelope 8, 4
	note C_, 2
	volume_envelope 8, 0
	octave 4
	note C#, 3
	note F#, 3
	note D#, 2
	note F_, 3
	octave 5
	note C_, 3
	volume_envelope 8, 4
	note C_, 2
	volume_envelope 8, 0
	octave 4
	note C#, 3
	note F#, 3
	note D#, 2
	note D_, 3
	note C_, 3
	volume_envelope 8, 4
	note C_, 2
	volume_envelope 11, 2
	octave 2
	note C#, 1
	octave 3
	note C_, 2
	volume_envelope 11, 5
	note D_, 2
	note E_, 1
	note D#, 1
	note D_, 1
	volume_envelope 11, 2
	note C#, 1
	note C_, 2
	volume_envelope 11, 5
	note D_, 2
	note F#, 1
	note E_, 1
	note D_, 1
	volume_envelope 11, 2
	note C#, 1
	note C#, 2
	volume_envelope 11, 5
	note D_, 2
	note E_, 1
	note D#, 1
	note D_, 1
	volume_envelope 11, 2
	note C#, 1
	note C#, 2
	volume_envelope 11, 5
	note D_, 2
	note F#, 1
	note E_, 1
	note D_, 1
	volume_envelope 8, 0
	octave 3
	note C#, 3
	note F#, 3
	note D#, 2
	note F_, 3
	octave 4
	note C_, 3
	volume_envelope 8, 4
	note C_, 2
	volume_envelope 8, 0
	octave 3
	note C#, 3
	note F#, 3
	note D#, 2
	note D_, 3
	note C_, 3
	volume_envelope 8, 4
	note C_, 2
	volume_envelope 8, 0
	octave 3
	note C#, 3
	note F#, 3
	note D#, 2
	note F_, 3
	octave 4
	note C_, 3
	volume_envelope 8, 4
	note C_, 2
	volume_envelope 8, 0
	octave 3
	note C#, 3
	note F#, 3
	note D#, 2
	volume_envelope 8, 7
	note D_, 3
	note D_, 5
	note_type 6, 12, 1
	octave 4
	note C#, 2
	note C#, 4
	volume_envelope 12, 0
	octave 3
	note B_, 10
	sound_call Music_EliteFourBattleBW_Ch2_branch_1
	volume_envelope 12, 1
	octave 4
	note C#, 2
	note C#, 4
	volume_envelope 12, 0
	note D_, 10
	sound_call Music_EliteFourBattleBW_Ch2_branch_1
	octave 3
	note_type 6, 10, 2
	note C#, 4
	volume_envelope 10, 5
	note D_, 4
	note E_, 4
	note D_, 4
	note F#, 2
	note E_, 2
	note D_, 2
	note E_, 2
	note F#, 2
	note G_, 2
	note F#, 2
	note E_, 2
	volume_envelope 10, 2
	note F#, 4
	volume_envelope 10, 5
	note G_, 4
	note A_, 4
	note G_, 4
	note B_, 2
	note A_, 2
	note G_, 2
	note A_, 2
	note B_, 2
	octave 4
	note C_, 2
	octave 3
	note B_, 2
	note A_, 2
	volume_envelope 10, 2
	note F#, 4
	volume_envelope 10, 5
	note G_, 4
	note A_, 4
	note G_, 4
	note B_, 2
	note A_, 2
	note G_, 2
	note A_, 2
	note B_, 2
	octave 4
	note C_, 2
	note D_, 2
	note E_, 2
	volume_envelope 7, 1
	duty_cycle 2
Music_EliteFourBattleBW_Ch2_loop_1:
	octave 4
	note C#, 1
	octave 3
	note F#, 1
	octave 4
	note C#, 1
	note F#, 1
	octave 5
	note E_, 1
	note C#, 1
	octave 4
	note B_, 1
	octave 5
	note C#, 1
	note F#, 1
	note G_, 1
	note F#, 1
	note C_, 1
	note C#, 1
	note D_, 1
	note C#, 1
	octave 4
	note G_, 1
	sound_loop 3, Music_EliteFourBattleBW_Ch2_loop_1
	octave 5
	note G_, 1
	note A_, 1
	note G_, 1
	note D_, 1
	octave 4
	note B_, 1
	octave 5
	note D_, 1
	octave 4
	note B_, 1
	note G_, 1
	note C#, 1
	note G_, 1
	note F#, 1
	octave 5
	note D_, 1
	octave 4
	note B_, 1
	octave 5
	note G_, 1
	note B_, 1
	octave 6
	note G_, 1
	duty_cycle 3
	octave 3
	note_type 12, 10, 0
	note F#, 3
	octave 4
	note C#, 3
	note F#, 2
	note G_, 2
	volume_envelope 10, 7
	note G_, 4
	volume_envelope 10, 2
	note F#, 2
	volume_envelope 10, 7
	note E_, 2
	volume_envelope 10, 2
	note D_, 2
	volume_envelope 10, 7
	note C#, 2
	octave 3
	volume_envelope 10, 2
	note B_, 2
	volume_envelope 10, 0
	note A#, 2
	volume_envelope 10, 7
	note A#, 5
	octave 4
	note F#, 1
	volume_envelope 10, 0
	note E_, 8
	volume_envelope 10, 7
	note E_, 7
	note F_, 1
	volume_envelope 10, 0
	note F#, 8
	volume_envelope 10, 7
	note F#, 8
	volume_envelope 10, 0
	note F#, 3
	octave 5
	note C#, 3
	note F#, 2
	note G_, 2
	volume_envelope 10, 7
	note G_, 4
	volume_envelope 10, 2
	note F#, 2
	volume_envelope 10, 7
	note E_, 2
	volume_envelope 10, 2
	note D_, 2
	volume_envelope 10, 7
	note C#, 2
	octave 4
	volume_envelope 10, 2
	note B_, 2
	volume_envelope 10, 0
	note A#, 2
	volume_envelope 10, 7
	note A#, 5
	octave 5
	note F#, 1
	volume_envelope 10, 0
	note G#, 8
	volume_envelope 10, 7
	note G#, 7
	note G#, 1
	volume_envelope 10, 0
	note A#, 8
	volume_envelope 10, 7
	note A#, 8
	octave 4
	volume_envelope 12, 2
	note B_, 3
	volume_envelope 12, 7
	note A#, 3
	note G#, 2
	volume_envelope 12, 2
	note A#, 3
	volume_envelope 12, 7
	note G#, 3
	note F#, 2
	volume_envelope 12, 2
	note G#, 3
	volume_envelope 12, 7
	note F#, 3
	note F_, 2
	volume_envelope 12, 2
	note F#, 1
	note C#, 2
	note G#, 2
	volume_envelope 12, 7
	note A#, 3
	note B_, 3
	octave 5
	note C#, 3
	octave 4
	note B_, 2
	note A#, 3
	note B_, 3
	note A#, 2
	note G#, 3
	note F#, 3
	note F_, 2
	note F#, 3
	note F_, 5
	sound_jump Music_EliteFourBattleBW_Ch2_loop_main

Music_EliteFourBattleBW_Ch2_branch_1:
	volume_envelope 9, 1
	octave 3
	note G_, 1
	note B_, 1
	octave 4
	note D_, 1
	octave 3
	note B_, 1
	octave 4
	note D_, 1
	note G_, 1
	note D_, 1
	note G_, 1
	note B_, 1
	note G_, 1
	note B_, 1
	octave 5
	note D_, 1
	octave 4
	note B_, 1
	octave 5
	note D_, 1
	note G_, 1
	note B_, 1
	sound_ret

Music_EliteFourBattleBW_Ch3:
	note_type 6, 1, 9
Music_EliteFourBattleBW_Ch3_loop_1:
	sound_call Music_EliteFourBattleBW_Ch3_branch_1
	sound_loop 12, Music_EliteFourBattleBW_Ch3_loop_1
Music_EliteFourBattleBW_Ch3_loop_main:
Music_EliteFourBattleBW_Ch3_loop_2:
	sound_call Music_EliteFourBattleBW_Ch3_branch_1
	sound_loop 8, Music_EliteFourBattleBW_Ch3_loop_2
	octave 2
	note F#, 2
	note C_, 2
	rest 2
	note G_, 4
	note A_, 2
	note G#, 2
	note G_, 2
	note F#, 2
	note C_, 2
	rest 2
	note G_, 4
	note B_, 2
	note A_, 2
	note G_, 2
	note F#, 1
	rest 1
	note F#, 2
	rest 2
	note G_, 4
	note A_, 2
	note G#, 2
	note G_, 2
	note F#, 1
	rest 1
	note F#, 2
	rest 2
	note G_, 4
	note B_, 2
	note A_, 2
	note G_, 2
Music_EliteFourBattleBW_Ch3_loop_3:
	sound_call Music_EliteFourBattleBW_Ch3_branch_1
	sound_loop 8, Music_EliteFourBattleBW_Ch3_loop_3
	octave 2
	note F#, 1
	rest 1
	note F#, 2
	rest 2
	note G_, 4
	note A_, 2
	note G#, 2
	note G_, 2
	note F#, 1
	rest 1
	note F#, 2
	rest 2
	note G_, 4
	note B_, 2
	note A_, 2
	note G_, 2
	note F#, 1
	rest 1
	note F#, 2
	rest 2
	note G_, 4
	note A_, 2
	note G#, 2
	note G_, 2
	note F#, 1
	rest 1
	note F#, 2
	rest 2
	note G_, 4
	note B_, 2
	note A_, 2
	note G_, 2
Music_EliteFourBattleBW_Ch3_loop_4:
	sound_call Music_EliteFourBattleBW_Ch3_branch_1
	sound_loop 2, Music_EliteFourBattleBW_Ch3_loop_4
Music_EliteFourBattleBW_Ch3_loop_5:
	octave 1
	note B_, 2
	octave 2
	note F#, 2
	octave 1
	note B_, 2
	octave 2
	note G_, 2
	octave 1
	note B_, 2
	octave 2
	note G#, 2
	octave 1
	note B_, 2
	octave 2
	note A_, 2
	sound_loop 3, Music_EliteFourBattleBW_Ch3_loop_5
	octave 1
	note B_, 2
	octave 2
	note F#, 2
	octave 1
	note B_, 2
	octave 2
	note G_, 2
	octave 1
	note B_, 2
	octave 3
	note F#, 2
	note C#, 2
	octave 2
	note G_, 2
Music_EliteFourBattleBW_Ch3_loop_6:
	sound_call Music_EliteFourBattleBW_Ch3_branch_1
	sound_loop 4, Music_EliteFourBattleBW_Ch3_loop_6
	sound_call Music_EliteFourBattleBW_Ch3_branch_2
	octave 1
	note F#, 2
	octave 2
	note C#, 2
	octave 1
	note F#, 2
	octave 2
	note D_, 2
	octave 1
	note F#, 2
	octave 2
	note D_, 2
	note C#, 2
	octave 1
	note B_, 2
	sound_call Music_EliteFourBattleBW_Ch3_branch_2
	octave 1
	note F#, 2
	octave 2
	note C#, 2
	octave 1
	note F#, 2
	octave 2
	note D_, 2
	octave 1
	note F#, 2
	octave 2
	note D#, 2
	octave 1
	note F#, 2
	octave 2
	note E_, 2
	sound_call Music_EliteFourBattleBW_Ch3_branch_3
	note F#, 2
	octave 2
	note C#, 2
	octave 1
	note F#, 2
	octave 2
	note C#, 2
	note F#, 2
	octave 3
	note C#, 2
	rest 2
	octave 2
	note C#, 2
	sound_call Music_EliteFourBattleBW_Ch3_branch_3
	note F#, 2
	octave 2
	note C#, 2
	rest 2
	octave 1
	note A#, 6
	note G_, 4
	sound_jump Music_EliteFourBattleBW_Ch3_loop_main

Music_EliteFourBattleBW_Ch3_branch_1:
	octave 1
	note F#, 2
	octave 2
	note C#, 2
	octave 1
	note F#, 2
	octave 2
	note D_, 2
	octave 1
	note F#, 2
	octave 2
	note D#, 2
	octave 1
	note F#, 2
	octave 2
	note E_, 2
	sound_ret

Music_EliteFourBattleBW_Ch3_branch_2:
	octave 1
	note F#, 2
	octave 2
	note C#, 2
	octave 1
	note F#, 2
	octave 2
	note C#, 2
	octave 1
	note F#, 2
	octave 2
	note C#, 2
	octave 1
	note F#, 2
	octave 2
	note C#, 2
	octave 1
	note F#, 2
	octave 2
	note D_, 2
	octave 1
	note F#, 2
	octave 2
	note D_, 2
	octave 1
	note F#, 2
	octave 2
	note D_, 2
	octave 1
	note F#, 2
	octave 2
	note D_, 2
	octave 1
	note E_, 2
	note B_, 2
	note E_, 2
	note B_, 2
	note E_, 2
	note B_, 2
	note E_, 2
	note B_, 2
	note F#, 2
	octave 2
	note C#, 2
	octave 1
	note F#, 2
	octave 2
	note C#, 2
	octave 1
	note F#, 2
	octave 2
	note C#, 2
	octave 1
	note F#, 2
	note F_, 2
	note E_, 2
	note B_, 2
	note E_, 2
	octave 2
	note C_, 2
	octave 1
	note E_, 2
	octave 2
	note C#, 2
	octave 1
	note E_, 2
	octave 2
	note D_, 2
	note E_, 2
	note B_, 2
	note E_, 2
	octave 2
	note C_, 2
	octave 1
	note E_, 2
	octave 2
	note C#, 2
	octave 1
	note E_, 2
	octave 2
	note D_, 2
	octave 1
	note F#, 2
	octave 2
	note C#, 2
	octave 1
	note F#, 2
	octave 2
	note D_, 2
	octave 1
	note F#, 2
	octave 2
	note D#, 2
	octave 1
	note F#, 2
	octave 2
	note E_, 2
	sound_ret

Music_EliteFourBattleBW_Ch3_branch_3:
	octave 1
	note E_, 2
	note B_, 2
	note E_, 2
	note B_, 2
	octave 2
	note E_, 2
	octave 1
	note B_, 2
	octave 2
	note G#, 2
	octave 1
	note B_, 2
	note F#, 2
	octave 2
	note C#, 2
	octave 1
	note F#, 2
	octave 2
	note C#, 2
	note F#, 2
	note C#, 2
	octave 3
	note C#, 2
	octave 2
	note C#, 2
	octave 1
	note C#, 2
	note G#, 2
	note C#, 2
	note G#, 2
	octave 2
	note C#, 2
	octave 1
	note G#, 2
	octave 2
	note G#, 2
	octave 1
	note G#, 2
	sound_ret

Music_EliteFourBattleBW_Ch4:
	toggle_noise 3
	drum_speed 6
	rest 16
	rest 16
	rest 16
	rest 16
Music_EliteFourBattleBW_Ch4_loop_1:
	drum_note 4, 2
	drum_note 3, 2
	sound_loop 8, Music_EliteFourBattleBW_Ch4_loop_1
Music_EliteFourBattleBW_Ch4_loop_2:
	drum_note 2, 1
	drum_note 2, 1
	drum_note 2, 2
	sound_loop 8, Music_EliteFourBattleBW_Ch4_loop_2
Music_EliteFourBattleBW_Ch4_loop_3:
	sound_call Music_EliteFourBattleBW_Ch4_branch_1
	sound_loop 2, Music_EliteFourBattleBW_Ch4_loop_3
Music_EliteFourBattleBW_Ch4_loop_main:
Music_EliteFourBattleBW_Ch4_loop_4:
	sound_call Music_EliteFourBattleBW_Ch4_branch_1
	sound_loop 4, Music_EliteFourBattleBW_Ch4_loop_4
	drum_note 1, 2
	drum_note 1, 2
	drum_note 9, 1
	drum_note 9, 1
	drum_note 4, 2
	drum_note 1, 2
	drum_note 4, 2
	drum_note 1, 2
	drum_note 4, 2
	drum_note 1, 2
	drum_note 1, 2
	drum_note 9, 1
	drum_note 9, 1
	drum_note 4, 2
	drum_note 1, 2
	drum_note 4, 2
	drum_note 1, 2
	drum_note 4, 2
	drum_note 1, 2
	drum_note 1, 2
	drum_note 9, 1
	drum_note 9, 1
	drum_note 4, 2
	drum_note 1, 2
	drum_note 4, 2
	drum_note 1, 2
	drum_note 4, 2
	drum_note 1, 2
	drum_note 1, 2
	drum_note 9, 1
	drum_note 9, 1
	drum_note 4, 2
	drum_note 1, 2
	drum_note 4, 2
	drum_note 1, 1
	drum_note 1, 1
	drum_note 1, 1
	drum_note 1, 1
Music_EliteFourBattleBW_Ch4_loop_5:
	sound_call Music_EliteFourBattleBW_Ch4_branch_1
	sound_loop 12, Music_EliteFourBattleBW_Ch4_loop_5
	drum_note 11, 2
	drum_note 11, 1
	drum_note 11, 1
	drum_note 11, 2
	drum_note 11, 1
	drum_note 11, 1
	drum_note 11, 1
	drum_note 11, 2
	drum_note 11, 1
	drum_note 11, 1
	drum_note 11, 2
	drum_note 11, 1
	drum_note 11, 1
	drum_note 11, 1
	drum_note 12, 6
	drum_note 1, 2
	drum_note 3, 1
	drum_note 3, 1
	drum_note 1, 2
	drum_note 1, 2
Music_EliteFourBattleBW_Ch4_loop_6:
	sound_call Music_EliteFourBattleBW_Ch4_branch_1
	sound_loop 6, Music_EliteFourBattleBW_Ch4_loop_6
Music_EliteFourBattleBW_Ch4_loop_7:
	drum_note 4, 4
	sound_loop 16, Music_EliteFourBattleBW_Ch4_loop_7
Music_EliteFourBattleBW_Ch4_loop_8:
	drum_note 4, 2
	drum_note 3, 2
	sound_loop 15, Music_EliteFourBattleBW_Ch4_loop_8
	drum_note 1, 1
	drum_note 1, 1
	drum_note 1, 1
	drum_note 1, 1
	sound_jump Music_EliteFourBattleBW_Ch4_loop_main

Music_EliteFourBattleBW_Ch4_branch_1:
	drum_note 1, 2
	drum_note 3, 1
	drum_note 3, 1
	drum_note 1, 2
	drum_note 3, 1
	drum_note 3, 1
	drum_note 1, 1
	drum_note 3, 2
	drum_note 3, 1
	drum_note 1, 1
	drum_note 3, 2
	drum_note 3, 1
	drum_note 1, 1
	drum_note 3, 1
	drum_note 3, 2
	drum_note 1, 1
	drum_note 3, 2
	drum_note 3, 1
	drum_note 1, 2
	drum_note 3, 1
	drum_note 3, 1
	drum_note 1, 2
	drum_note 1, 2
	sound_ret
