; Pokémon B/W - Final Pokémon
; Demixed by Mmmmmm
; https://pastebin.com/nxxf3cRT
; https://hax.iimarckus.org/topic/6777/6/

Music_FinalPokemonBW:
	channel_count 4
	channel 1, Music_FinalPokemonBW_Ch1
	channel 2, Music_FinalPokemonBW_Ch2
	channel 3, Music_FinalPokemonBW_Ch3
	channel 4, Music_FinalPokemonBW_Ch4

Music_FinalPokemonBW_Ch1:
	tempo 240
	volume 7, 7
	vibrato $12, $15
	duty_cycle 0
	octave 1
	note_type 6, 9, 1
	note D_, 1
	note D_, 5
	volume_envelope 9, 0
	octave 2
	note F#, 8
	octave 3
	note F_, 8
	octave 4
	note D#, 8
	octave 5
	note C#, 4
	volume_envelope 9, 1
	octave 3
	note C_, 1
	note D_, 1
	note C_, 1
	note D_, 1
	note G_, 1
	note D_, 1
	note C_, 1
	note D_, 1
	note C_, 1
	note D_, 1
	note C_, 1
	note D_, 1
	note G_, 1
	note A_, 1
	note B_, 1
	octave 4
	note C_, 1
	note D_, 1
	note C_, 1
	octave 3
	note B_, 1
	note A_, 1
	note G_, 1
	note F#, 1
	note E_, 1
	note D_, 1
	note C_, 1
	octave 2
	note B_, 1
	note A_, 1
	note G_, 1
	note A_, 1
	note B_, 1
	octave 3
	note C_, 1
	note D_, 1
	note C_, 1
	note D_, 1
	note C_, 1
	note D_, 1
	note G_, 1
	note D_, 1
	note C_, 1
	note D_, 1
	note C_, 1
	note D_, 1
	note C_, 1
	note D_, 1
	note G_, 1
	note A_, 1
	note B_, 1
	octave 4
	note C_, 1
	note D_, 1
	note C_, 1
	octave 3
	note B_, 1
	note A_, 1
	note G_, 1
	note F#, 1
	note E_, 1
	note D_, 1
	note_type 8, 10, 2
	note F#, 1
	octave 4
	note C_, 1
	note F_, 1
	note F#, 1
	note C_, 1
	octave 3
	note A_, 1
Music_FinalPokemonBW_Ch1_loop:
	octave 3
	note_type 6, 10, 3
	note D_, 6
	note D_, 6
	note D_, 6
	note C_, 6
	note C_, 4
	note C_, 4
	volume_envelope 10, 7
	note A_, 6
	note G_, 1
	note F_, 1
	note E_, 4
	note G_, 1
	note A_, 1
	note E_, 1
	note F#, 1
	note D#, 6
	volume_envelope 10, 2
	note D#, 1
	note D#, 1
	note D#, 2
	note D#, 2
	note_type 8, 10, 2
	note D#, 1
	note D#, 1
	note D#, 1
	note_type 6, 10, 3
	octave 3
	note B_, 2
	octave 2
	volume_envelope 7, 1
	note G_, 1
	note G_, 1
	volume_envelope 10, 3
	note F_, 2
	octave 3
	note B_, 6
	note B_, 6
	note A_, 2
	octave 2
	volume_envelope 7, 1
	note D_, 1
	note D_, 3
	volume_envelope 10, 3
	note A_, 4
	note A_, 4
	volume_envelope 10, 7
	note D#, 4
	note G_, 4
	octave 4
	note C_, 4
	octave 3
	note G_, 4
	octave 4
	note C_, 6
	volume_envelope 10, 2
	note C_, 1
	note C_, 1
	octave 3
	note C_, 1
	note E_, 1
	octave 2
	note G_, 1
	octave 3
	note C_, 1
	octave 2
	note B_, 1
	octave 3
	note C_, 1
	note G_, 1
	note A_, 1
	octave 4
	note G_, 1
	note G_, 1
	note G_, 4
	note G_, 1
	note G_, 1
	note G_, 4
	note F_, 1
	note F_, 1
	note F_, 4
	note F_, 1
	note F_, 1
	note F_, 4
	note F_, 1
	note F_, 1
	note F_, 2
	note F_, 1
	note F_, 1
	note E_, 2
	volume_envelope 10, 7
	octave 5
	note D_, 6
	volume_envelope 10, 2
	note C_, 1
	octave 4
	note B_, 1
	volume_envelope 10, 7
	octave 5
	note C_, 4
	volume_envelope 10, 2
	octave 4
	note G_, 1
	octave 5
	note C_, 1
	octave 4
	note E_, 1
	note F#, 1
	volume_envelope 10, 7
	note A#, 6
	volume_envelope 10, 2
	note A_, 1
	note A#, 1
	octave 5
	volume_envelope 10, 7
	note C_, 4
	octave 4
	volume_envelope 10, 2
	note F_, 1
	note A#, 1
	note G_, 1
	octave 5
	note C_, 1
	octave 3
	volume_envelope 10, 3
	note B_, 6
	note B_, 6
	note B_, 6
	note A_, 6
	note A_, 4
	note A_, 4
	note A#, 6
	note A#, 6
	note A#, 4
	volume_envelope 10, 7
	note A#, 8
	octave 4
	note C_, 8
	volume_envelope 10, 2
	callchannel Music_FinalPokemonBW_Ch1_branch_1
	note B_, 4
	callchannel Music_FinalPokemonBW_Ch1_branch_2
	octave 2
	note E_, 2
	octave 3
	note E_, 1
	note G_, 1
	octave 2
	note D#, 2
	octave 3
	note E_, 1
	note F#, 1
	octave 2
	note E_, 2
	octave 3
	note E_, 1
	note F#, 1
	octave 2
	note F#, 2
	octave 3
	note B_, 1
	octave 4
	note C_, 1
	callchannel Music_FinalPokemonBW_Ch1_branch_1
	note B_, 2
	note F#, 2
	callchannel Music_FinalPokemonBW_Ch1_branch_2
	volume_envelope 10, 7
	note G#, 4
	note E_, 4
	note B_, 4
	octave 4
	note E_, 4
	volume_envelope 10, 2
	note C_, 1
	note C_, 1
	octave 3
	note B_, 1
	octave 4
	note C_, 1
	note C_, 1
	note C_, 1
	octave 3
	note B_, 1
	octave 4
	note C_, 1
	note C_, 1
	note C_, 1
	octave 3
	note B_, 1
	octave 4
	note C_, 1
	octave 3
	note B_, 1
	octave 4
	note C_, 1
	note C_, 1
	note C_, 1
	note C#, 1
	note C#, 1
	note C_, 1
	note C#, 1
	note C#, 1
	note C#, 1
	note C_, 1
	note C#, 1
	note C#, 1
	note C#, 1
	note C_, 1
	note C#, 1
	note C_, 1
	note C#, 1
	note C#, 1
	note C#, 1
	note D_, 1
	note D_, 1
	note C#, 1
	note D_, 1
	note D_, 1
	note D_, 1
	note C#, 1
	note D_, 1
	note D_, 1
	note D_, 1
	note C#, 1
	note D_, 1
	note C#, 1
	note D_, 1
	note D_, 1
	note D_, 1
	note __, 4
	octave 2
	note G_, 2
	octave 3
	note C_, 2
	note F_, 2
	note F#, 2
	octave 4
	note D#, 2
	octave 5
	note C#, 2
	sound_jump Music_FinalPokemonBW_Ch1_loop

Music_FinalPokemonBW_Ch1_branch_1:
	octave 3
	note E_, 1
	note D_, 1
	note C_, 1
	note D_, 1
	note E_, 2
	note G_, 2
	note E_, 1
	note D_, 1
	note C_, 1
	note D_, 1
	note E_, 2
	note G_, 2
	note A_, 1
	note G_, 1
	note F#, 1
	note G_, 1
	note A_, 2
	note B_, 2
	note A_, 1
	note G_, 1
	note F#, 1
	note G_, 1
	endchannel

Music_FinalPokemonBW_Ch1_branch_2:
	note F#, 1
	note E_, 1
	note D_, 1
	note E_, 1
	note F#, 2
	note A_, 2
	note F#, 1
	note E_, 1
	note D_, 1
	note E_, 1
	note F#, 2
	note A_, 2
	endchannel

Music_FinalPokemonBW_Ch2:
	duty_cycle 0
	vibrato $12, $15
	note_type 6, 9, 1
	octave 1
	note D_, 1
	note D_, 1
	volume_envelope 9, 0
	note D_, 4
	octave 2
	note D_, 4
	octave 3
	note C_, 8
	note A#, 8
	octave 4
	note G#, 8
	volume_envelope 11, 2
	callchannel Music_FinalPokemonBW_Ch2_branch_1
	octave 4
	note B_, 1
	note B_, 1
	note B_, 4
	note B_, 1
	note B_, 1
	note B_, 1
	note B_, 1
	note B_, 1
	note B_, 1
	note B_, 1
	note B_, 1
	note B_, 2
	callchannel Music_FinalPokemonBW_Ch2_branch_1
	octave 4
	note B_, 1
	note A#, 1
	note B_, 6
	note_type 8, 11, 2
	note F_, 1
	note F_, 1
	note F_, 1
	note F_, 1
	note F_, 1
	note F#, 1
Music_FinalPokemonBW_Ch2_loop:
	callchannel Music_FinalPokemonBW_Ch2_branch_2
	note F_, 6
	note E_, 1
	note D#, 1
	volume_envelope 13, 0
	note D_, 6
	volume_envelope 13, 7
	note D_, 10
	volume_envelope 10, 7
	duty_cycle 0
	octave 3
	note G_, 6
	volume_envelope 10, 2
	note G_, 1
	note G_, 1
	note A_, 2
	note A_, 2
	note_type 8, 10, 2
	note G_, 1
	note G_, 1
	note G_, 1
	callchannel Music_FinalPokemonBW_Ch2_branch_2
	note_type 8, 13, 2
	note C_, 2
	octave 3
	note A_, 2
	octave 4
	note C_, 2
	note_type 6, 13, 0
	note D_, 6
	volume_envelope 13, 7
	note D_, 10
	note D_, 6
	volume_envelope 13, 2
	note D_, 1
	note D_, 1
	volume_envelope 13, 7
	note D_, 6
	volume_envelope 13, 2
	note D_, 1
	note D_, 1
	callchannel Music_FinalPokemonBW_Ch2_branch_2
	note __, 2
	note F_, 4
	note E_, 1
	note D#, 1
	volume_envelope 13, 0
	note D_, 6
	volume_envelope 13, 7
	note D_, 10
	volume_envelope 10, 7
	duty_cycle 0
	octave 3
	note G_, 6
	volume_envelope 10, 2
	note G_, 1
	note G_, 1
	note A_, 2
	note A_, 2
	note_type 8, 10, 2
	octave 4
	note D#, 1
	note D#, 1
	note D#, 1
	callchannel Music_FinalPokemonBW_Ch2_branch_2
	note_type 8, 13, 2
	note F_, 2
	note E_, 2
	note F_, 2
	note_type 6, 13, 0
	note G_, 6
	volume_envelope 13, 3
	note A#, 2
	volume_envelope 13, 0
	note G_, 6
	volume_envelope 13, 7
	note G_, 10
	volume_envelope 13, 0
	note A_, 2
	volume_envelope 13, 7
	note A_, 6
	volume_envelope 13, 1
	note E_, 3
	note F#, 1
	volume_envelope 13, 7
	note G_, 4
	volume_envelope 13, 1
	note G_, 1
	note F#, 1
	note E_, 1
	note F#, 1
	volume_envelope 13, 3
	note G_, 2
	note B_, 2
	volume_envelope 13, 1
	note A_, 3
	note F#, 1
	volume_envelope 13, 7
	note D_, 8
	volume_envelope 13, 1
	octave 3
	note B_, 1
	octave 4
	note C_, 1
	octave 3
	note A#, 1
	note B_, 1
	octave 4
	note D_, 3
	note E_, 1
	volume_envelope 13, 7
	note F#, 8
	volume_envelope 13, 1
	note D_, 1
	note F#, 1
	volume_envelope 13, 3
	note A_, 2
	volume_envelope 13, 1
	note G_, 3
	note A_, 1
	volume_envelope 13, 0
	note B_, 4
	volume_envelope 13, 7
	note B_, 8
	volume_envelope 13, 1
	note G_, 3
	note E_, 1
	volume_envelope 13, 7
	note G_, 6
	volume_envelope 13, 4
	note E_, 2
	note G_, 2
	note B_, 2
	volume_envelope 13, 1
	note A_, 3
	note B_, 1
	volume_envelope 13, 7
	note A_, 8
	volume_envelope 13, 1
	note D_, 1
	note C_, 1
	octave 3
	note B_, 1
	octave 4
	note C_, 1
	note D_, 3
	note E_, 1
	volume_envelope 13, 7
	note F#, 6
	note D_, 2
	note A_, 4
	volume_envelope 13, 1
	note G#, 3
	note A_, 1
	volume_envelope 13, 0
	note B_, 4
	volume_envelope 13, 7
	note B_, 8
	octave 5
	volume_envelope 13, 1
	note C_, 3
	octave 4
	note B_, 1
	volume_envelope 13, 0
	note A_, 2
	volume_envelope 13, 0
	note A_, 6
	volume_envelope 13, 1
	note F#, 1
	note G_, 1
	note A_, 1
	note B_, 1
	octave 5
	note C_, 3
	octave 4
	note B_, 1
	volume_envelope 13, 0
	note A_, 2
	volume_envelope 13, 7
	note A_, 8
	note G_, 1
	volume_envelope 13, 0
	note A_, 8
	volume_envelope 13, 7
	note A_, 9
	duty_cycle 0
	note D_, 6
	volume_envelope 13, 1
	note D_, 1
	note D_, 1
	volume_envelope 13, 7
	note D_, 8
	sound_jump Music_FinalPokemonBW_Ch2_loop

Music_FinalPokemonBW_Ch2_branch_1:
	octave 5
	note C_, 1
	note C_, 1
	note C_, 4
	note C_, 1
	note C_, 1
	note C_, 1
	note C_, 1
	note C_, 1
	note C_, 1
	note C_, 1
	note C_, 1
	note C_, 2
	endchannel

Music_FinalPokemonBW_Ch2_branch_2:
	note_type 6, 13, 7
	octave 3
	duty_cycle 3
	note G_, 6
	volume_envelope 13, 3
	note B_, 2
	volume_envelope 13, 0
	octave 4
	note D_, 6
	volume_envelope 13, 7
	note D_, 10
	endchannel

Music_FinalPokemonBW_Ch3:
	vibrato $12, $25
	note_type 3, 1, 6
	octave 2
	note D_, 1
	note __, 1
	note D_, 1
	note __, 1
	note_type 12, 1, 6
	note D_, 16
	note_type 3, 1, 6
	callchannel Music_FinalPokemonBW_Ch3_branch_1
	note G_, 3
	note __, 5
	note D_, 2
	note __, 2
	note G_, 3
	note __, 5
	note D_, 2
	note __, 2
	note G_, 7
	note __, 1
	callchannel Music_FinalPokemonBW_Ch3_branch_1
	note G_, 3
	note __, 5
	note G_, 2
	note __, 2
	note D_, 16
	note D_, 4
Music_FinalPokemonBW_Ch3_loop:
	callchannel Music_FinalPokemonBW_Ch3_branch_2
	note A_, 4 ;
	note __, 4
	note D_, 4
	octave 3
	note D_, 4
	note __, 8
	octave 2
	note D_, 8
	note D#, 4
	note __, 4
	note C_, 4
	note G_, 2
	note D#, 1
	note __, 1
	note D#, 2
	note __, 2
	note D#, 2
	note __, 2
	note_type 4, 1, 6
	note F_, 1
	note __, 1
	note F_, 1
	note __, 1
	note F#, 2
	note_type 3, 1, 6
	callchannel Music_FinalPokemonBW_Ch3_branch_2
	note D#, 4
	note __, 4
	note C_, 4
	note D#, 4
	note G_, 8
	note D#, 4
	note __, 4
	note F_, 4
	note __, 4
	note C_, 4
	note E_, 2
	note F_, 1
	note __, 1
	note F_, 4
	note __, 4
	note A_, 8
	callchannel Music_FinalPokemonBW_Ch3_branch_2
	note A_, 16
	note A_, 12
	note D_, 2
	note __, 2
	note D#, 12
	note D_, 2
	note D#, 2
	note F_, 11
	note __, 1
	note F_, 1
	note __, 1
	note A_, 1
	note __, 1
	note G_, 4
	note __, 8
	note G_, 4
	note __, 8
	note G_, 4
	note __, 4
	note F_, 4
	note C_, 4
	note __, 4
	note F_, 4
	note __, 8
	octave 3
	note C_, 2
	note __, 2
	octave 2
	note F_, 4
	note G_, 4
	note __, 8
	note G_, 4
	note __, 8
	note G_, 4
	note __, 4
	note D#, 4
	note __, 8
	note D#, 4
	note F_, 16
	callchannel Music_FinalPokemonBW_Ch3_branch_3
	octave 3
	note E_, 8
	note D#, 8
	note D_, 8
	note C#, 8
	callchannel Music_FinalPokemonBW_Ch3_branch_3
	note E_, 4
	note __, 4
	note B_, 4
	octave 3
	note E_, 4
	note __, 4
	octave 2
	note B_, 4
	octave 3
	note E_, 4
	octave 2
	note B_, 4
	octave 3
	note C_, 4
	note __, 4
	octave 2
	note G_, 4
	octave 3
	note C_, 4
	note __, 4
	octave 2
	note G_, 4
	octave 3
	note C_, 4
	octave 2
	note G_, 4
	note A_, 4
	note __, 4
	note E_, 4
	octave 3
	note E_, 4
	note __, 4
	note C#, 4
	note A_, 4
	note E_, 4
	note D_, 4
	note __, 4
	octave 2
	note A_, 4
	octave 3
	note D_, 4
	note __, 4
	octave 2
	note A_, 4
	note __, 4
	note D_, 1
	note __, 1
	note D_, 1
	note __, 1
	note D_, 16
	note D_, 16
	sound_jump Music_FinalPokemonBW_Ch3_loop

Music_FinalPokemonBW_Ch3_branch_1:
	note G_, 3
	note __, 5
	note D_, 1
	note __, 1
	note D_, 1
	note __, 1
	note G_, 3
	note __, 5
	note D_, 2
	note __, 2
	note G_, 3
	note __, 1
	note D_, 2
	note __, 2
	endchannel

Music_FinalPokemonBW_Ch3_branch_2:
	note G_, 4
	note __, 4
	note D_, 4
	note G_, 4
	note __, 8
	note D_, 4
	note __, 4
	note F_, 4
	note C_, 4
	note __, 4
	note F_, 3
	note __, 1
	note F_, 4
	note __, 4
	note C_, 4
	note F_, 4
	endchannel

Music_FinalPokemonBW_Ch3_branch_3:
	octave 3
	note C_, 4
	note __, 4
	octave 2
	note G_, 4
	octave 3
	note C_, 4
	note __, 4
	octave 2
	note G_, 4
	octave 3
	note C_, 4
	octave 2
	note G_, 4
	octave 3
	note D_, 4
	note __, 4
	octave 2
	note A_, 4
	octave 3
	note D_, 4
	note __, 4
	octave 2
	note A_, 4
	octave 3
	note D_, 4
	octave 2
	note A_, 4
	note B_, 4
	note __, 4
	note F#, 4
	note B_, 4
	note __, 4
	note F#, 4
	note B_, 4
	note F#, 4
	endchannel

Music_FinalPokemonBW_Ch4:
	toggle_noise 3
	note_type 6
	note C_, 1
	note C_, 1
	note B_, 16
	note __, 12
	note_type 3
	note D_, 1
	note D_, 1
	note D_, 1
	note D_, 1
	note D_, 1
	note D_, 1
	note D_, 1
	note D_, 1
	callchannel Music_FinalPokemonBW_Ch4_branch_1
	callchannel Music_FinalPokemonBW_Ch4_branch_1
	callchannel Music_FinalPokemonBW_Ch4_branch_1
	note D_, 2
	note D_, 2
	note D_, 4
	note B_, 4
	note B_, 4
	note_type 4
	note D_, 1
	note D_, 1
	note D_, 1
	note D_, 1
	note D_, 1
	note D_, 1
	note D_, 1
	note D_, 1
	note D_, 1
	note D_, 1
	note D_, 1
	note D_, 1
	note_type 3
Music_FinalPokemonBW_Ch4_loop:
	callchannel Music_FinalPokemonBW_Ch4_branch_2
	callchannel Music_FinalPokemonBW_Ch4_branch_2
	callchannel Music_FinalPokemonBW_Ch4_branch_2
	callchannel Music_FinalPokemonBW_Ch4_branch_3
	callchannel Music_FinalPokemonBW_Ch4_branch_2
	callchannel Music_FinalPokemonBW_Ch4_branch_4
	callchannel Music_FinalPokemonBW_Ch4_branch_2
	callchannel Music_FinalPokemonBW_Ch4_branch_5
	callchannel Music_FinalPokemonBW_Ch4_branch_2
	callchannel Music_FinalPokemonBW_Ch4_branch_2
	callchannel Music_FinalPokemonBW_Ch4_branch_2
	callchannel Music_FinalPokemonBW_Ch4_branch_3
	callchannel Music_FinalPokemonBW_Ch4_branch_2
	callchannel Music_FinalPokemonBW_Ch4_branch_4
	callchannel Music_FinalPokemonBW_Ch4_branch_2
	note D_, 4
	note D_, 2
	note D_, 2
	note D_, 4
	note D_, 2
	note D_, 2
	note D_, 2
	note D_, 2
	note D_, 4
	note D_, 1
	note D_, 1
	note D_, 1
	note D_, 1
	note D_, 1
	note D_, 1
	note D_, 1
	note D_, 1
	note B_, 10
	note D_, 2
	note D_, 2
	note C_, 6
	note D_, 4
	note D_, 2
	note D_, 2
	note D_, 4
	callchannel Music_FinalPokemonBW_Ch4_branch_2
	callchannel Music_FinalPokemonBW_Ch4_branch_1
	callchannel Music_FinalPokemonBW_Ch4_branch_2
	callchannel Music_FinalPokemonBW_Ch4_branch_4
	note D_, 2
	note D_, 2
	note D_, 4
	note D_, 4
	note D_, 2
	note D_, 2
	note D_, 2
	note D_, 2
	note D_, 4
	note D_, 2
	note D_, 2
	note D_, 2
	note D_, 2
	callchannel Music_FinalPokemonBW_Ch4_branch_2
	callchannel Music_FinalPokemonBW_Ch4_branch_2
	callchannel Music_FinalPokemonBW_Ch4_branch_4
	callchannel Music_FinalPokemonBW_Ch4_branch_2
	callchannel Music_FinalPokemonBW_Ch4_branch_2
	note B_, 16
	note B_, 8
	note D_, 1
	note D_, 1
	note D_, 1
	note D_, 1
	note D_, 1
	note D_, 1
	note D_, 1
	note D_, 1
	sound_jump Music_FinalPokemonBW_Ch4_loop

Music_FinalPokemonBW_Ch4_branch_1:
	note D_, 2
	note D_, 2
	note D_, 8
	note D_, 2
	note D_, 2
	note D_, 2
	note D_, 2
	note D_, 2
	note D_, 2
	note D_, 2
	note D_, 2
	note D_, 4
	endchannel

Music_FinalPokemonBW_Ch4_branch_2:
	note D_, 4
	note D_, 2
	note D_, 2
	note D_, 4
	note D_, 2
	note D_, 2
	note D_, 2
	note D_, 2
	note D_, 4
	note D_, 2
	note D_, 2
	note D_, 2
	note D_, 2
	endchannel

Music_FinalPokemonBW_Ch4_branch_3:
	note D_, 4
	note D_, 2
	note D_, 2
	note D_, 4
	note D_, 2
	note D_, 2
	note D_, 2
	note D_, 2
	note D_, 4
	note_type 4
	note D_, 2
	note D_, 2
	note D_, 2
	note_type 3
	endchannel

Music_FinalPokemonBW_Ch4_branch_4:
	note D_, 2
	note D_, 2
	note D_, 2
	note D_, 1
	note D_, 1
	note D_, 1
	note D_, 3
	note D_, 2
	note D_, 2
	note D_, 2
	note D_, 2
	note D_, 4
	note D_, 2
	note D_, 2
	note D_, 2
	note D_, 2
	endchannel

Music_FinalPokemonBW_Ch4_branch_5:
	note D_, 4
	note D_, 2
	note D_, 2
	note D_, 4
	note D_, 2
	note D_, 2
	note D_, 1
	note D_, 1
	note D_, 1
	note D_, 1
	note D_, 4
	note D_, 2
	note D_, 2
	note D_, 2
	note D_, 2
	endchannel
