; Pokémon D/P/Pt - Battle! Gym Leader
; Demixed by Pum
; https://hax.iimarckus.org/topic/6443/

Music_GymLeaderBattleBW:
	channel_count 4
	channel 1, GymLeaderBattleBW_Channel1
	channel 2, GymLeaderBattleBW_Channel2
	channel 3, GymLeaderBattleBW_Channel3
	channel 4, GymLeaderBattleBW_Channel4

GymLeaderBattleBW_Channel1:
	tempo $35
	volume 5, 5
	duty_cycle 1
	note_type 12, 8, 7
	octave 4
	note C_, 1
	note __, 3
	note C_, 1
	note __, 3
	note C_, 1
	note __, 3
	note C#, 8
	note D#, 4
	note C#, 2
	note __, 6
	note C_, 1
	note __, 3
	note C_, 1
	note __, 3
	note C_, 1
	note __, 3
	note C#, 8
	note D#, 4
	note F_, 2
	note __, 6
	note C_, 1
	note __, 3
	note C_, 1
	note __, 3
	note C_, 1
	note __, 3
	note C#, 8
	note D#, 4
	note F_, 8
	note C_, 1
	note __, 3
	note C_, 1
	note __, 3
	note C_, 1
	note __, 3
	note C#, 8
	octave 3
	note A#, 8
	octave 4
	note C#, 4
	note_type 12, 8, 8
	note C_, 16
	note_type 12, 8, 7
	note C_, 16
	octave 2
	note C_, 2
	note __, 2
	note C_, 4
	note __, 16
	note __, 8
	note C_, 2
	note __, 2
	note C_, 4
	note __, 16
	note __, 8
	note C_, 2
	note __, 2
	note C_, 4
	note __, 16
	note __, 8
	duty_cycle 2
	octave 1
	note A#, 4
	octave 3
	note E_, 2
	note F_, 2
	octave 1
	note A#, 4
	octave 3
	note F#, 4
	octave 1
	note A#, 4
	octave 3
	note F_, 4
	octave 1
	note A#, 4
	octave 3
	note D#, 4
	octave 1
	note A#, 4
	octave 3
	note F_, 4
	octave 1
	note A#, 4
	octave 3
	note F#, 4
	octave 1
	note A#, 4
	octave 3
	note F_, 4
	octave 1
	note A#, 4
	octave 3
	note A#, 4
	octave 1
	note A#, 4
	octave 3
	note F_, 4
	octave 1
	note A#, 4
	octave 3
	note F#, 4
	octave 1
	note A#, 4
	octave 3
	note F_, 4
	octave 1
	note A#, 4
	octave 3
	note D#, 4
	octave 4
	note_type 12, 10, 7
	note D_, 2
	note D#, 2
	note D_, 2
	note C_, 2
	note D_, 2
	note __, 2
	note F_, 2
	note __, 2
	note A#, 2
	note __, 2
	note F_, 2
	note __, 2
	note A#, 2
	note __, 2
	octave 5
	note D_, 2
	note __, 2
GymLeaderBattleBWChannel1_Loop:
	stereopanning $F0
	duty_cycle 1
	note C_, 12
	octave 4
	note G_, 12
	octave 5
	note C_, 4
	note D_, 3
	note D#, 1
	note E_, 8
	note F_, 4
	note E_, 4
	note D_, 8
	note E_, 4
	note D_, 4
	octave 4
	note A#, 12
	note F_, 12
	note A#, 4
	octave 5
	note C_, 4
	note D_, 8
	note D#, 4
	note D_, 4
	octave 4
	note A#, 8
	octave 5
	note D_, 8
	note C#, 12
	octave 4
	note A_, 12
	octave 5
	note C#, 8
	note_type 12, 10, 8
	note E_, 16
	note_type 12, 10, 7
	note E_, 16
	stereopanning $FF
	note_type 12, 8, 7
	octave 4
	note D_, 12
	octave 3
	note A#, 12
	octave 4
	note D_, 8
	octave 5
	note A#, 4
	octave 6
	note C_, 2
	note __, 2
	octave 5
	note A#, 1
	octave 6
	note C_, 2
	octave 5
	note A#, 1
	note F_, 4
	note D_, 1
	note F_, 2
	note D_, 1
	octave 4
	note A#, 4
	note __, 4
	octave 5
	note D#, 1
	note D_, 3
	octave 4
	stereopanning $0F
	note_type 12, 10, 7
	note C_, 4
	octave 3
	note B_, 4
	octave 4
	note C_, 4
	octave 3
	note G_, 12
	octave 4
	note C_, 4
	note D_, 4
	note E_, 8
	note F_, 4
	note E_, 4
	note D_, 8
	note E_, 8
	octave 3
	note A#, 4
	note A_, 4
	note A#, 4
	note F_, 12
	note A#, 4
	octave 4
	note C_, 4
	note D_, 8
	note D#, 4
	note D_, 4
	octave 3
	note A#, 8
	octave 4
	note D_, 8
	note C#, 12
	octave 3
	note A_, 12
	octave 4
	note C#, 8
	note_type 12, 10, 8
	note E_, 16
	note_type 12, 10, 7
	note E_, 16
	stereopanning $FF
	note_type 12, 8, 7
	note A_, 12
	note E_, 12
	note A_, 8
	octave 5
	note C#, 16
	note __, 4
	octave 4
	note G_, 2
	note __, 2
	note A_, 2
	note __, 6
	note A#, 4
	octave 5
	note C_, 16
	octave 4
	note A#, 4
	note A_, 4
	note G_, 4
	note A#, 4
	note A_, 4
	note G_, 4
	note F_, 4
	note A#, 4
	note A_, 4
	note G_, 4
	note F_, 4
	note E_, 2
	note F_, 2
	note E_, 2
	note D_, 2
	note_type 12, 8, 8
	note E_, 16
	note_type 12, 8, 7
	note E_, 8
	stereopanning $F0
	note_type 12, 10, 7
	note C#, 2
	note D_, 2
	note C#, 2
	octave 3
	note B_, 2
	octave 4
	note C#, 12
	note G_, 2
	note __, 2
	note A_, 2
	note __, 2
	note F_, 2
	note __, 2
	note A#, 4
	octave 5
	note C_, 16
	octave 4
	note A#, 4
	note A_, 4
	note G_, 4
	octave 5
	note C_, 4
	octave 4
	note A#, 4
	note A_, 4
	note G_, 4
	octave 5
	note D_, 4
	note C_, 4
	octave 4
	note A#, 4
	octave 5
	note D_, 4
	note C_, 2
	note D_, 2
	note C_, 2
	octave 4
	note A#, 2
	octave 5
	note_type 12, 10, 8
	note C_, 16
	note_type 12, 10, 7
	note C_, 8
	octave 4
	note C_, 2
	note D_, 2
	note C_, 2
	octave 3
	note A#, 2
	octave 4
	note_type 12, 10, 8
	note C_, 16
	note_type 12, 10, 7
	note C_, 8
	note E_, 2
	note F_, 2
	note E_, 2
	note D_, 2
	note_type 12, 10, 8
	note E_, 16
	note_type 12, 10, 7
	note E_, 8
	stereopanning $FF
	note_type 12, 8, 7
	note __, 16
	note __, 16
	octave 2
	note C_, 3
	note __, 1
	note G_, 3
	note __, 1
	octave 3
	note C_, 3
	note __, 1
	octave 2
	note G_, 3
	note __, 1
	octave 4
	note C_, 6
	note __, 2
	octave 3
	note G_, 6
	note __, 2
	octave 2
	note C_, 3
	note __, 1
	note G_, 3
	note __, 1
	octave 3
	note C_, 3
	note __, 1
	octave 2
	note G_, 3
	note __, 1
	octave 4
	note C_, 6
	note __, 2
	octave 3
	note F_, 6
	note __, 2
	octave 2
	note C_, 3
	note __, 1
	note G_, 3
	note __, 1
	octave 3
	note C_, 3
	note __, 1
	octave 2
	note G_, 3
	note __, 1
	octave 4
	note C_, 6
	note __, 2
	octave 3
	note A#, 6
	note __, 2
	note A_, 6
	note __, 2
	note G_, 6
	note __, 2
	note F_, 4
	note E_, 12
	stereopanning $F0
	note A#, 12
	octave 4
	note F_, 12
	note A#, 8
	note G#, 2
	note __, 2
	note G_, 12
	note F_, 2
	note __, 2
	note D#, 12
	note D_, 2
	note D#, 2
	note D_, 2
	note C_, 2
	note_type 12, 8, 8
	note D_, 16
	note_type 12, 8, 7
	note D_, 8
	octave 3
	note D_, 2
	note D#, 2
	note D_, 2
	note C_, 2
	note D_, 2
	note __, 2
	note F_, 2
	note __, 2
	note A#, 2
	note __, 2
	note F_, 2
	note __, 2
	note A#, 2
	note __, 2
	octave 4
	note D_, 2
	note __, 2
	stereopanning $FF
	octave 3
	note C_, 2
	note __, 2
	note C_, 2
	note __, 2
	note C_, 2
	note __, 2
	note C#, 8
	note C_, 2
	note __, 2
	note C_, 2
	note __, 2
	note C_, 2
	note __, 2
	note E_, 2
	note __, 2
	note C_, 2
	note __, 2
	note C_, 2
	note __, 2
	note E_, 8
	note C_, 2
	note __, 2
	note C#, 2
	note __, 2
	note C_, 2
	note __, 2
	note C_, 2
	note __, 2
	note C_, 2
	note __, 2
	note C_, 2
	note __, 2
	note C#, 8
	note C_, 2
	note __, 2
	note C_, 2
	note __, 2
	note C_, 2
	note __, 2
	note E_, 2
	note __, 2
	note C_, 2
	note __, 2
	note C_, 2
	note __, 2
	note E_, 8
	note C_, 2
	note __, 2
	note C#, 2
	note __, 2
	note C_, 2
	note __, 2
	octave 2
	note A#, 2
	note __, 2
	note A#, 2
	note __, 2
	note A#, 2
	note __, 2
	note B_, 8
	note A#, 2
	note __, 2
	note A#, 2
	note __, 2
	note A#, 2
	note __, 2
	octave 3
	note D_, 2
	note __, 2
	octave 2
	note A#, 2
	note __, 2
	note A#, 2
	note __, 2
	octave 3
	note D_, 8
	octave 2
	note A#, 2
	note __, 2
	note B_, 2
	note __, 2
	note A#, 2
	note __, 2
	octave 3
	note C_, 2
	note __, 2
	note C_, 2
	note __, 2
	note C_, 2
	note __, 2
	note C#, 8
	note C_, 2
	note __, 2
	note C_, 2
	note __, 2
	note C_, 2
	note __, 2
	note E_, 2
	note __, 2
	note C_, 2
	note __, 2
	note C_, 2
	note __, 2
	note E_, 8
	note C_, 2
	note __, 2
	note C#, 2
	note __, 2
	note C_, 2
	note __, 2
	octave 2
	note A#, 2
	note __, 2
	note A#, 2
	note __, 2
	note A#, 2
	note __, 2
	octave 3
	note D_, 8
	octave 2
	note A#, 2
	note __, 2
	note A#, 2
	note __, 2
	note A#, 2
	note __, 2
	octave 3
	note D_, 2
	note __, 2
	octave 2
	note A#, 2
	note __, 2
	note A#, 2
	note __, 2
	octave 3
	note D_, 8
	octave 2
	note A#, 2
	note __, 2
	octave 3
	note C_, 2
	note __, 2
	octave 2
	note A#, 2
	note __, 2
	octave 3
	note C_, 2
	note __, 2
	note C_, 2
	note __, 2
	note C_, 2
	note __, 2
	note E_, 8
	note C_, 2
	note __, 2
	note C_, 2
	note __, 2
	note C_, 2
	note __, 2
	note E_, 2
	note __, 2
	note E_, 2
	note __, 2
	note F#, 2
	note __, 2
	note G_, 8
	note F#, 2
	note __, 2
	note G_, 2
	note __, 2
	octave 4
	note C_, 2
	note __, 2
	note_type 12, 8, 8
	note F_, 16
	note_type 12, 8, 7
	note F_, 7
	note __, 1
	note F_, 2
	note __, 6
	note G_, 2
	note __, 2
	note F_, 2
	note __, 2
	note F_, 2
	note __, 2
	octave 2
	note F_, 16
	note __, 4
	octave 4
	note_type 12, 8, 8
	note E_, 16
	note_type 12, 8, 7
	note E_, 7
	note __, 1
	note E_, 2
	note __, 6
	note G_, 2
	note __, 2
	note E_, 2
	note __, 2
	note E_, 2
	note __, 2
	octave 2
	note E_, 16
	note __, 4
	note G_, 8
	note __, 4
	note G_, 8
	note __, 4
	note G_, 8
	note __, 4
	note G_, 8
	note __, 4
	note C_, 7
	note __, 1
	note C_, 8
	note G_, 8
	note __, 4
	note G_, 8
	note __, 4
	note F_, 8
	note __, 4
	note G_, 8
	note __, 4
	note C_, 8
	octave 1
	note G_, 8
	octave 5
	jumpchannel GymLeaderBattleBWChannel1_Loop
	endchannel

GymLeaderBattleBW_Channel2:
	duty_cycle 1
	note_type 12, 9, 7
	octave 2
	note C_, 8
	note __, 4
	octave 1
	note G_, 8
	note __, 8
	octave 2
	note G_, 1
	note __, 1
	note G_, 1
	note __, 1
	note C_, 8
	note __, 4
	octave 1
	note G_, 8
	note __, 12
	octave 2
	note C_, 8
	note __, 4
	octave 1
	note C#, 8
	note __, 12
	octave 4
	note E_, 2
	note __, 2
	note G_, 16
	note __, 4
	note F#, 1
	note F_, 1
	note E_, 1
	note D#, 1
	octave 3
	note A#, 2
	note B_, 2
	octave 4
	note C_, 12
	note G_, 12
	octave 5
	note C_, 8
	octave 4
	note A#, 4
	note A_, 12
	note G_, 4
	note F_, 12
	note E_, 2
	note F_, 2
	note E_, 2
	note D_, 2
	note_type 12, 9, 8
	note E_, 16
	note_type 12, 9, 7
	note E_, 8
	octave 5
	duty_cycle 0
	note E_, 2
	note F_, 2
	note E_, 2
	note D_, 2
	note_type 12, 9, 8
	note E_, 16
	note_type 12, 9, 7
	note E_, 8
	duty_cycle 1
	octave 3
	note A#, 12
	octave 4
	note F_, 12
	note A#, 8
	note G#, 4
	note G_, 12
	note F_, 4
	note D#, 12
	note D_, 2
	note D#, 2
	note D_, 2
	note C_, 2
	note_type 12, 9, 8
	note D_, 16
	note_type 12, 9, 7
	note D_, 8
	note __, 16
	note __, 16
GymLeaderBattleBWChannel2_Loop:
	stereopanning $FF
	octave 3
	note C_, 12
	octave 2
	note G_, 12
	octave 3
	note C_, 4
	note D_, 3
	note D#, 1
	note E_, 8
	note F_, 4
	note E_, 4
	note D_, 8
	note E_, 4
	note D_, 4
	octave 2
	note A#, 12
	note F_, 12
	note A#, 4
	octave 3
	note C_, 4
	note D_, 8
	note D#, 4
	note D_, 4
	octave 2
	note A#, 8
	octave 3
	note D_, 8
	note C#, 12
	octave 2
	note A_, 12
	octave 3
	note C#, 8
	note_type 12, 9, 8
	note E_, 16
	note_type 12, 9, 7
	note E_, 16
	stereopanning $0F
	note_type 12, 10, 7
	octave 4
	note D_, 12
	octave 3
	note A#, 12
	octave 4
	note D_, 8
	note F_, 4
	note G_, 2
	note __, 2
	note F_, 1
	note G_, 2
	note F_, 1
	note D_, 4
	octave 3
	note A#, 1
	octave 4
	note C_, 2
	octave 3
	note A#, 1
	note F_, 4
	note __, 4
	note B_, 1
	note A#, 3
	stereopanning $FF
	note_type 12, 9, 7
	note C_, 4
	octave 2
	note B_, 4
	octave 3
	note C_, 4
	octave 2
	note G_, 12
	octave 3
	note C_, 4
	note D_, 4
	note E_, 8
	note F_, 4
	note E_, 4
	note D_, 8
	note E_, 8
	octave 2
	note A#, 4
	note A_, 4
	note A#, 4
	note F_, 12
	note A#, 4
	octave 3
	note C_, 4
	note D_, 8
	note D#, 4
	note D_, 4
	octave 2
	note A#, 8
	octave 3
	note D_, 8
	note C#, 12
	octave 2
	note A_, 12
	octave 3
	note C#, 8
	note_type 12, 9, 8
	note E_, 16
	note_type 12, 9, 7
	note E_, 16
	stereopanning $F0
	note_type 12, 10, 7
	note A_, 12
	note E_, 12
	note A_, 8
	octave 4
	note C#, 16
	note __, 4
	octave 3
	note G_, 2
	note __, 2
	note A_, 2
	note __, 6
	note A#, 4
	octave 4
	note C_, 16
	octave 3
	note A#, 4
	octave 4
	note C_, 4
	note D_, 4
	octave 3
	note A#, 4
	octave 4
	note C_, 4
	note D_, 4
	octave 3
	note A#, 4
	octave 4
	note C_, 4
	note D_, 4
	note C_, 4
	note D_, 4
	octave 3
	note A_, 2
	note A#, 2
	note A_, 2
	note G_, 2
	note_type 12, 10, 8
	note A_, 16
	note_type 12, 10, 7
	note A_, 6
	stereopanning $FF
	note_type 12, 9, 7
	note __, 2
	note A_, 2
	note A#, 2
	note A_, 2
	note G_, 2
	note E_, 2
	note __, 2
	note D_, 2
	note __, 2
	note C#, 2
	note __, 2
	octave 2
	note B_, 2
	note __, 2
	octave 3
	note C#, 2
	note __, 2
	octave 2
	note A_, 4
	octave 4
	note F_, 16
	note __, 4
	octave 3
	note A#, 4
	octave 4
	note C_, 4
	note D_, 4
	octave 3
	note A#, 4
	octave 4
	note C_, 4
	note D_, 4
	note E_, 4
	note F_, 4
	note E_, 4
	note D_, 4
	note F_, 4
	note E_, 2
	note F_, 2
	note E_, 2
	note D_, 2
	note_type 12, 9, 8
	note E_, 16
	note_type 12, 9, 7
	note E_, 8
	octave 3
	note C_, 2
	note D_, 2
	note C_, 2
	octave 2
	note A#, 2
	octave 3
	note_type 12, 9, 8
	note C_, 16
	note_type 12, 9, 7
	note C_, 8
	note E_, 2
	note F_, 2
	note E_, 2
	note D_, 2
	note_type 12, 9, 8
	note E_, 16
	note_type 12, 9, 7
	note E_, 8
	stereopanning $FF
	note_type 12, 9, 8
	note G_, 16
	note_type 12, 9, 7
	note G_, 12
	note __, 4
	octave 4
	note C_, 12
	note G_, 12
	octave 5
	note C_, 8
	octave 4
	note A#, 4
	note A_, 12
	note G_, 4
	note F_, 12
	note E_, 2
	note F_, 2
	note E_, 2
	note D_, 2
	note_type 12, 9, 8
	note E_, 16
	note_type 12, 9, 7
	note E_, 8
	duty_cycle 2
	note C_, 2
	note C#, 2
	note C_, 2
	octave 3
	note A#, 2
	octave 4
	note_type 12, 9, 8
	note C_, 16
	note_type 12, 9, 7
	note C_, 8
	duty_cycle 1
	octave 3
	stereopanning $0F
	note A#, 12
	octave 4
	note F_, 12
	note A#, 8
	note G#, 2
	note __, 2
	note G_, 12
	note F_, 2
	note __, 2
	note D#, 12
	note D_, 2
	note D#, 2
	note D_, 2
	note C_, 2
	note_type 12, 9, 8
	note D_, 16
	note_type 12, 9, 7
	note D_, 7
	note __, 1
	note D_, 2
	note D#, 2
	note D_, 2
	note C_, 2
	note D_, 2
	note __, 2
	note F_, 2
	note __, 2
	note A#, 2
	note __, 2
	note F_, 4
	note A#, 4
	octave 5
	note D_, 4
	note_type 12, 9, 8
	stereopanning $FF
	note C_, 16
	note_type 12, 9, 7
	note C_, 16
	octave 4
	note_type 12, 9, 8
	note A#, 16
	note_type 12, 9, 7
	note A#, 16
	note_type 12, 9, 8
	note A_, 16
	note_type 12, 9, 7
	note A_, 16
	note_type 12, 9, 8
	note G_, 16
	note_type 12, 9, 7
	note G_, 16
	note_type 12, 9, 8
	note F_, 16
	note_type 12, 9, 7
	note F_, 16
	note D_, 16
	note A_, 8
	note F_, 8
	note_type 12, 9, 8
	note E_, 16
	note_type 12, 9, 7
	note E_, 16
	note_type 12, 9, 8
	note G_, 16
	note_type 12, 9, 7
	note G_, 16
	note_type 12, 9, 8
	note F_, 16
	note_type 12, 9, 7
	note F_, 16
	note D_, 16
	note A_, 4
	note F_, 12
	note_type 12, 9, 8
	note G_, 16
	note_type 12, 9, 7
	note G_, 16
	note B_, 2
	note __, 2
	octave 5
	note_type 12, 9, 8
	note C_, 16
	note_type 12, 9, 7
	note C_, 12
	octave 4
	note_type 12, 9, 8
	note C#, 16
	note_type 12, 9, 7
	note C#, 7
	note __, 1
	note C#, 2
	note __, 6
	note D#, 2
	note __, 2
	note C#, 2
	note __, 6
	octave 3
	note F_, 16
	note __, 4
	octave 4
	note_type 12, 9, 8
	note C_, 16
	note_type 12, 9, 7
	note C_, 7
	note __, 1
	note C_, 2
	note __, 6
	note D_, 2
	note __, 2
	note C_, 2
	note __, 6
	octave 3
	note E_, 16
	note __, 4
	note __, 16
	note __, 16
	note __, 16
	note __, 16
	note __, 16
	note __, 16
	note __, 16
	note __, 16
	jumpchannel GymLeaderBattleBWChannel2_Loop
	endchannel

GymLeaderBattleBW_Channel3:
	note_type 12, 1, 5
	octave 3
	volume_envelope 1, 2
	note C_, 6
	note __, 6
	octave 2
	note C_, 7
	note __, 1
	note A_, 4
	note A#, 2
	note __, 2
	note D#, 1
	note __, 1
	note D#, 1
	note __, 1
	octave 3
	note C_, 6
	note __, 6
	octave 2
	note C_, 7
	note __, 1
	octave 3
	note A#, 4
	note F_, 2
	note __, 2
	octave 2
	note A#, 1
	note __, 1
	note A#, 1
	note __, 1
	octave 3
	note C_, 6
	note __, 6
	octave 2
	note C_, 8
	octave 4
	note C#, 4
	octave 3
	note G_, 2
	note __, 2
	note C#, 1
	note __, 1
	note C#, 1
	note __, 1
	note C_, 12
	octave 2
	note C_, 3
	note __, 1
	note C_, 1
	note __, 1
	note A#, 1
	note __, 1
	octave 3
	note C_, 1
	note __, 1
	octave 2
	note G_, 1
	note __, 1
	note C_, 1
	note __, 1
	note A#, 1
	note __, 1
	octave 3
	note C_, 1
	note __, 1
	octave 2
	note G_, 1
	note __, 1
	note C_, 4
	octave 3
	note C_, 4
	octave 2
	note C_, 4
	octave 3
	note C#, 4
	octave 2
	note C_, 4
	octave 3
	note C_, 4
	octave 2
	note C_, 4
	note A#, 4
	note C_, 4
	octave 3
	note C_, 4
	octave 2
	note C_, 4
	octave 3
	note C#, 4
	octave 2
	note C_, 4
	octave 3
	note C_, 4
	octave 2
	note C_, 4
	octave 3
	note E_, 4
	octave 2
	note C_, 4
	octave 3
	note C_, 4
	octave 2
	note C_, 4
	octave 3
	note C#, 4
	octave 2
	note C_, 4
	octave 3
	note C_, 4
	octave 2
	note C_, 4
	note A#, 4
	note C_, 4
	octave 3
	note C_, 4
	octave 2
	note C_, 4
	octave 3
	note C#, 4
	octave 2
	note C_, 4
	octave 3
	note C_, 4
	octave 2
	note C_, 4
	octave 3
	note E_, 4
	octave 2
	note A#, 4
	octave 3
	note F_, 4
	octave 2
	note A#, 4
	octave 3
	note F#, 4
	octave 2
	note A#, 4
	octave 3
	note F_, 4
	octave 2
	note A#, 4
	octave 3
	note D#, 4
	octave 2
	note A#, 4
	octave 3
	note F_, 4
	octave 2
	note A#, 4
	octave 3
	note F#, 4
	octave 2
	note A#, 4
	octave 3
	note F_, 4
	octave 2
	note A#, 4
	octave 3
	note A#, 4
	octave 2
	note A#, 4
	octave 3
	note F_, 4
	octave 2
	note A#, 4
	octave 3
	note F#, 4
	octave 2
	note A#, 4
	octave 3
	note F_, 4
	octave 2
	note A#, 4
	octave 3
	note D#, 4
	octave 2
	note A#, 4
	octave 3
	note F_, 4
	octave 2
	note A#, 4
	octave 3
	note F#, 4
	octave 2
	note A#, 4
	octave 3
	note F_, 4
	octave 2
	note A#, 4
	octave 3
	note A#, 4
GymLeaderBattleBWChannel3_Loop:
	octave 2
	note C_, 4
	octave 3
	note C_, 4
	octave 2
	note C_, 4
	octave 3
	note C_, 4
	octave 2
	note C_, 4
	octave 3
	note C_, 4
	octave 2
	note G_, 4
	octave 3
	note C_, 4
	octave 2
	note C_, 4
	note G_, 4
	octave 3
	note C_, 4
	octave 2
	note G_, 4
	octave 3
	note C_, 4
	octave 2
	note G_, 4
	note F#, 4
	note G_, 4
	octave 1
	note A#, 4
	octave 2
	note A#, 4
	octave 1
	note A#, 4
	octave 2
	note A#, 4
	octave 1
	note A#, 4
	octave 2
	note A#, 4
	note F_, 4
	note A#, 4
	octave 1
	note A#, 4
	octave 2
	note F_, 4
	note A#, 4
	note F_, 4
	note A#, 4
	note F_, 4
	note E_, 4
	note F_, 4
	octave 1
	note A_, 4
	octave 2
	note A_, 4
	octave 1
	note A_, 4
	octave 2
	note A_, 4
	octave 1
	note A_, 4
	octave 2
	note A_, 4
	note E_, 4
	note A_, 4
	octave 1
	note A_, 4
	octave 2
	note A_, 4
	octave 1
	note A_, 4
	octave 2
	note A_, 4
	octave 1
	note A_, 4
	octave 2
	note A_, 4
	note G_, 4
	note A_, 4
	octave 1
	note A#, 4
	octave 2
	note A#, 4
	octave 1
	note A#, 4
	octave 2
	note A#, 4
	note F_, 4
	note A#, 4
	octave 1
	note A#, 4
	octave 2
	note A#, 4
	octave 1
	note A#, 4
	octave 2
	note A#, 4
	octave 1
	note A#, 4
	octave 2
	note A#, 4
	octave 1
	note A#, 4
	octave 2
	note A#, 4
	note A_, 4
	note A#, 4
	note C_, 4
	octave 3
	note D_, 4
	octave 2
	note C_, 4
	octave 3
	note C_, 4
	octave 2
	note G_, 4
	octave 3
	note G_, 2
	octave 4
	note C_, 2
	octave 2
	note C_, 4
	octave 3
	note C_, 4
	octave 2
	note C_, 4
	octave 3
	note G_, 4
	octave 2
	note C_, 4
	octave 3
	note F_, 4
	octave 2
	note C_, 4
	octave 3
	note E_, 4
	note D#, 4
	note E_, 4
	octave 1
	note A#, 4
	octave 2
	note A#, 4
	octave 1
	note A#, 4
	octave 2
	note A#, 4
	note F_, 4
	octave 3
	note F_, 2
	note A#, 2
	octave 1
	note A#, 4
	octave 2
	note A#, 4
	octave 1
	note A#, 4
	octave 3
	note F_, 4
	octave 1
	note A#, 4
	octave 3
	note D#, 4
	octave 1
	note A#, 4
	octave 3
	note F_, 4
	note D_, 4
	note A_, 4
	octave 1
	note A_, 4
	octave 2
	note A_, 4
	octave 1
	note A_, 4
	octave 2
	note A_, 4
	note E_, 4
	octave 3
	note E_, 2
	note A_, 2
	octave 1
	note A_, 4
	octave 2
	note A_, 4
	octave 1
	note A_, 4
	octave 3
	note E_, 4
	octave 1
	note A_, 4
	octave 3
	note D_, 4
	octave 1
	note A_, 4
	octave 3
	note C#, 4
	octave 2
	note G#, 4
	note B_, 4
	octave 1
	note A_, 4
	octave 2
	note A_, 4
	note G#, 4
	note A_, 4
	octave 1
	note A_, 4
	octave 2
	note A_, 4
	octave 1
	note A_, 4
	octave 2
	note A_, 4
	octave 1
	note A_, 4
	octave 2
	note A_, 4
	octave 3
	note C#, 4
	octave 2
	note A_, 4
	octave 3
	note E_, 4
	note C#, 4
	note E_, 4
	note G_, 4
	octave 1
	note A#, 4
	octave 2
	note A#, 1
	note __, 1
	note A#, 2
	octave 1
	note A#, 4
	octave 2
	note A#, 4
	octave 1
	note A#, 4
	octave 2
	note A#, 1
	note __, 1
	note A#, 2
	octave 1
	note A#, 4
	octave 2
	note A#, 4
	octave 1
	note A#, 4
	octave 2
	note A#, 1
	note __, 1
	note A#, 2
	octave 1
	note A#, 4
	octave 2
	note A#, 4
	octave 1
	note A#, 4
	octave 2
	note A#, 1
	note __, 1
	note A#, 2
	octave 1
	note A#, 4
	octave 2
	note A#, 4
	octave 1
	note A_, 4
	octave 2
	note A_, 1
	note __, 1
	note A_, 2
	note E_, 4
	octave 3
	note E_, 4
	octave 1
	note A_, 4
	octave 3
	note C#, 1
	note __, 1
	note C#, 2
	note A_, 4
	note E_, 4
	octave 1
	note A_, 4
	octave 2
	note A_, 1
	note __, 1
	note A_, 2
	octave 3
	note E_, 4
	note D_, 1
	note __, 1
	note D_, 2
	note C#, 4
	octave 2
	note B_, 4
	note A_, 4
	note E_, 4
	octave 1
	note A#, 4
	octave 2
	note A#, 1
	note __, 1
	note A#, 2
	octave 1
	note A#, 4
	octave 2
	note A#, 4
	octave 1
	note A#, 4
	octave 2
	note A#, 1
	note __, 1
	note A#, 2
	octave 1
	note A#, 4
	octave 2
	note A#, 4
	octave 1
	note A#, 4
	octave 2
	note A#, 1
	note __, 1
	note A#, 2
	octave 1
	note A#, 4
	octave 2
	note A#, 4
	octave 1
	note A#, 4
	octave 2
	note A#, 1
	note __, 1
	note A#, 2
	octave 1
	note A#, 4
	note B_, 4
	octave 2
	note C_, 4
	octave 3
	note C_, 1
	note __, 1
	note C_, 2
	octave 2
	note G_, 4
	octave 3
	note E_, 4
	note C_, 4
	octave 2
	note G_, 1
	note __, 1
	note G_, 2
	octave 3
	note E_, 4
	note C_, 4
	octave 2
	note C_, 4
	octave 3
	note C_, 1
	note __, 1
	note C_, 2
	octave 2
	note G_, 4
	note E_, 4
	note C_, 4
	octave 1
	note B_, 4
	octave 2
	note C_, 4
	octave 3
	note D_, 4
	note E_, 4
	note C_, 1
	note __, 1
	note C_, 2
	octave 2
	note B_, 4
	note G_, 1
	note __, 1
	note G_, 2
	note E_, 4
	note D#, 4
	note E_, 4
	note G_, 4
	note C_, 4
	octave 3
	note C_, 4
	octave 2
	note C_, 4
	octave 3
	note C_, 4
	octave 2
	note C_, 4
	octave 3
	note C_, 4
	octave 2
	note C_, 4
	octave 3
	note C_, 4
	octave 2
	note C_, 4
	octave 3
	note C_, 4
	octave 2
	note C_, 4
	octave 3
	note C_, 4
	octave 2
	note C_, 4
	octave 3
	note C_, 4
	octave 2
	note C_, 4
	octave 3
	note C_, 4
	octave 2
	note C_, 4
	octave 3
	note C_, 4
	octave 2
	note C_, 4
	octave 3
	note C_, 4
	octave 2
	note C_, 4
	octave 3
	note C_, 4
	octave 2
	note C_, 4
	octave 3
	note C_, 4
	octave 2
	note C_, 4
	octave 3
	note C_, 4
	octave 2
	note C_, 4
	octave 3
	note C_, 4
	octave 2
	note C_, 4
	octave 3
	note C_, 4
	octave 2
	note C_, 4
	octave 3
	note C_, 4
	octave 2
	note C_, 4
	octave 3
	note C_, 4
	octave 2
	note C_, 4
	octave 3
	note C_, 4
	octave 2
	note C_, 4
	octave 3
	note C_, 4
	octave 2
	note C_, 4
	octave 3
	note C_, 4
	octave 1
	note A#, 4
	octave 2
	note A#, 4
	octave 1
	note A#, 4
	octave 2
	note A#, 4
	octave 1
	note A#, 4
	octave 2
	note A#, 4
	octave 1
	note A#, 4
	octave 2
	note A#, 4
	octave 1
	note A#, 2
	note __, 2
	note A#, 2
	note __, 2
	octave 2
	note G#, 8
	octave 1
	note A#, 2
	note __, 2
	note A#, 2
	note __, 2
	octave 2
	note A#, 8
	octave 1
	note A#, 4
	octave 3
	note D_, 4
	octave 1
	note A#, 4
	octave 3
	note C_, 4
	octave 1
	note A#, 4
	octave 2
	note A#, 4
	octave 1
	note A#, 4
	octave 2
	note G#, 4
	octave 1
	note A#, 4
	octave 2
	note G_, 4
	octave 1
	note A#, 4
	octave 2
	note F_, 4
	octave 1
	note A#, 4
	octave 2
	note G#, 4
	octave 1
	note A#, 4
	octave 2
	note A#, 4
	note C_, 4
	octave 3
	note C_, 4
	octave 2
	note C_, 4
	octave 3
	note C_, 4
	octave 2
	note C_, 4
	octave 3
	note C_, 4
	octave 2
	note C_, 4
	octave 3
	note C_, 4
	octave 2
	note C_, 4
	octave 3
	note C_, 4
	octave 2
	note C_, 4
	octave 3
	note C_, 4
	octave 2
	note C_, 4
	octave 3
	note C_, 4
	octave 2
	note C_, 4
	octave 3
	note C_, 4
	octave 2
	note C_, 4
	octave 3
	note C_, 4
	octave 2
	note C_, 4
	octave 3
	note C_, 4
	octave 2
	note C_, 4
	octave 3
	note C_, 4
	octave 2
	note C_, 4
	octave 3
	note C_, 4
	octave 2
	note C_, 4
	octave 3
	note C_, 4
	octave 2
	note C_, 4
	octave 3
	note C_, 4
	octave 2
	note C_, 4
	octave 3
	note C_, 4
	octave 2
	note C_, 4
	octave 3
	note C_, 4
	octave 1
	note A#, 4
	octave 2
	note A#, 4
	octave 1
	note A#, 4
	octave 2
	note G#, 4
	octave 1
	note A#, 4
	octave 2
	note G_, 4
	octave 1
	note A#, 4
	octave 2
	note F_, 4
	octave 1
	note A#, 4
	octave 2
	note A#, 4
	octave 1
	note A#, 4
	octave 2
	note F_, 4
	octave 1
	note A#, 4
	octave 2
	note D_, 4
	octave 1
	note A#, 4
	octave 2
	note A#, 4
	note C_, 4
	octave 3
	note C_, 4
	octave 2
	note B_, 4
	octave 3
	note C_, 4
	octave 2
	note C_, 4
	octave 3
	note C_, 4
	octave 2
	note C_, 4
	octave 3
	note C_, 3
	note __, 1
	note C_, 3
	note __, 1
	note C_, 4
	octave 2
	note B_, 4
	octave 3
	note C_, 4
	note E_, 4
	note C_, 4
	octave 2
	note B_, 4
	octave 3
	note C_, 4
	octave 1
	note A#, 4
	octave 2
	note A#, 4
	octave 1
	note A#, 4
	octave 2
	note A#, 4
	octave 1
	note A#, 4
	octave 2
	note A#, 4
	octave 1
	note A#, 4
	octave 2
	note A#, 4
	octave 1
	note A#, 4
	octave 2
	note A#, 4
	octave 1
	note A#, 4
	octave 2
	note A#, 4
	octave 1
	note A#, 4
	octave 2
	note A#, 4
	octave 1
	note A#, 4
	octave 2
	note A#, 4
	note C_, 4
	octave 3
	note C_, 4
	octave 2
	note C_, 4
	octave 3
	note C_, 4
	octave 2
	note C_, 4
	octave 3
	note C_, 4
	octave 2
	note C_, 4
	octave 3
	note C_, 4
	octave 2
	note C_, 4
	note B_, 4
	octave 3
	note G_, 4
	note E_, 8
	note C_, 4
	note E_, 4
	note C_, 4
	octave 2
	note C#, 4
	octave 3
	note C#, 4
	octave 2
	note C#, 4
	octave 3
	note C#, 4
	octave 2
	note C#, 4
	octave 3
	note C#, 4
	octave 2
	note C#, 4
	octave 3
	note C#, 4
	note D#, 4
	note C#, 4
	octave 2
	note C#, 4
	note F_, 4
	octave 1
	note F_, 4
	octave 2
	note F_, 4
	octave 1
	note F_, 4
	octave 2
	note F_, 4
	note C_, 4
	octave 3
	note C_, 4
	octave 2
	note C_, 4
	octave 3
	note C_, 4
	octave 2
	note C_, 4
	octave 3
	note C_, 4
	octave 2
	note C_, 4
	octave 3
	note C_, 4
	note D_, 4
	note C_, 4
	octave 2
	note C_, 4
	note E_, 4
	octave 1
	note E_, 4
	octave 2
	note E_, 4
	note G_, 4
	octave 3
	note C_, 4
	octave 2
	note C_, 4
	octave 3
	note C_, 4
	octave 2
	note C_, 4
	octave 3
	note C_, 4
	octave 2
	note C_, 4
	octave 3
	note C_, 4
	octave 2
	note C_, 4
	octave 3
	note C_, 4
	octave 2
	note C_, 4
	octave 3
	note C_, 4
	octave 2
	note C_, 4
	octave 3
	note C_, 4
	octave 2
	note C_, 4
	octave 3
	note C_, 4
	octave 2
	note C_, 4
	octave 3
	note C_, 4
	octave 2
	note C_, 4
	octave 3
	note C_, 4
	octave 2
	note C_, 4
	octave 3
	note C_, 4
	octave 2
	note C_, 4
	octave 3
	note C_, 4
	octave 2
	note C_, 4
	octave 3
	note C_, 4
	octave 2
	note C_, 4
	octave 3
	note C_, 4
	octave 2
	note C_, 4
	octave 3
	note C_, 4
	octave 2
	note C_, 4
	octave 3
	note C_, 4
	octave 2
	note C_, 4
	octave 3
	note C_, 4
	jumpchannel GymLeaderBattleBWChannel3_Loop
	endchannel

GymLeaderBattleBW_Channel4:
	note_type 12
	togglenoise 5
	note C_, 4
	note C_, 4
	note C_, 4
	note C_, 8
	note C#, 1
	note C#, 3
	note D_, 4
	note C_, 2
	note C_, 2
	note C_, 4
	note C_, 4
	note C_, 4
	note C_, 8
	note C#, 1
	note C#, 3
	note C#, 4
	note C_, 2
	note C_, 2
	note C_, 4
	note E_, 2
	note E_, 2
	note D#, 2
	note D#, 2
	note D_, 2
	note D_, 2
	note C#, 2
	note C_, 2
	note C_, 1
	note C_, 3
	note D#, 2
	note D_, 2
	note C#, 2
	note C_, 2
	note C_, 4
	note C#, 1
	note C#, 3
	note C_, 4
	note C_, 2
	note C_, 2
	note C_, 2
	note C_, 2
	note C_, 2
	note C_, 2
	note C_, 2
	note C_, 2
	note C_, 2
	note C_, 2
	note C_, 8
	note C_, 8
	note C_, 8
	note C_, 8
	note C_, 4
	note C_, 4
	note C_, 8
	note C_, 8
	note C_, 8
	note C_, 4
	note C_, 4
	note C_, 8
	note C_, 8
	note C_, 8
	note C_, 4
	note C_, 4
	note C_, 8
	note C_, 8
	note C_, 8
	note D_, 2
	note D_, 2
	note C#, 1
	note C#, 3
	note C_, 4
	note D_, 4
	note D#, 4
	note D_, 4
	note C_, 4
	note C#, 4
	note C#, 1
	note C#, 3
	note D#, 4
	note D_, 4
	note C#, 4
	note C_, 4
	note C_, 2
	note C_, 2
	note C_, 8
	note C_, 4
	note C_, 8
	note C_, 8
	note C_, 8
	note C_, 4
	note C_, 4
	note C_, 2
	note C_, 6
	note C_, 2
	note C_, 2
	note C_, 4
	note C_, 1
	note C_, 1
	note C_, 2
	note C#, 4
	note C_, 2
	note C_, 2
GymLeaderBattleBWChannel4_Loop:
	note C_, 8
	note C#, 8
	note C_, 4
	note C_, 4
	note C#, 8
	note C_, 8
	note C#, 8
	note C_, 4
	note C_, 4
	note C#, 8
	note C_, 8
	note C#, 8
	note C_, 4
	note C_, 4
	note C#, 8
	note C_, 8
	note C#, 8
	note C_, 4
	note C_, 4
	note C#, 8
	note C_, 8
	note C#, 8
	note C_, 4
	note C_, 4
	note C#, 8
	note C_, 4
	note C#, 1
	note C#, 11
	note C_, 4
	note C_, 4
	note C#, 8
	note C_, 12
	note G#, 4
	note C_, 4
	note C_, 4
	note C#, 8
	note C_, 8
	note C#, 8
	note C_, 4
	note C_, 4
	note C#, 4
	note C#, 2
	note C#, 2
	note C_, 8
	note C#, 8
	note C_, 4
	note C_, 4
	note C#, 8
	note C_, 8
	note C#, 8
	note C_, 4
	note C_, 4
	note C#, 8
	note D_, 8
	note C#, 8
	note C_, 4
	note C_, 4
	note C#, 8
	note C_, 8
	note C#, 8
	note C_, 4
	note C_, 4
	note C#, 8
	note C_, 8
	note C#, 8
	note C_, 4
	note C_, 4
	note C#, 8
	note C_, 8
	note C#, 8
	note C_, 4
	note C_, 4
	note C#, 8
	note C_, 8
	note C#, 8
	note C_, 4
	note C_, 4
	note C#, 8
	note C_, 4
	note C#, 4
	note C#, 2
	note C#, 2
	note C#, 1
	note C#, 1
	note C#, 2
	note C#, 8
	note C#, 4
	note C#, 2
	note C#, 2
	note C_, 8
	note C#, 8
	note C_, 8
	note C#, 8
	note C_, 8
	note C#, 8
	note C_, 8
	note C#, 8
	note C_, 8
	note C#, 8
	note C_, 8
	note C#, 8
	note C_, 8
	note C#, 8
	note C_, 8
	note C#, 8
	note C_, 8
	note C#, 8
	note C_, 8
	note C#, 8
	note C_, 8
	note C#, 8
	note C_, 8
	note C#, 8
	note C_, 8
	note C#, 8
	note C_, 8
	note C#, 8
	note C_, 8
	note C#, 8
	note C_, 8
	note C#, 8
	note C_, 8
	note C#, 8
	note C_, 8
	note C#, 8
	note C_, 8
	note C#, 8
	note C_, 8
	note C#, 8
	note C_, 8
	note C#, 8
	note C_, 8
	note C#, 8
	note C_, 8
	note C#, 8
	note C_, 8
	note C#, 8
	note C_, 8
	note C#, 8
	note C_, 8
	note C#, 8
	note C_, 8
	note C#, 8
	note C_, 8
	note C#, 8
	note C_, 8
	note C#, 8
	note C_, 8
	note C#, 8
	note D_, 4
	note C#, 4
	note C_, 8
	note C_, 4
	note C_, 4
	note C#, 8
	note C_, 8
	note C#, 8
	note C_, 8
	note C#, 8
	note C_, 8
	note C#, 8
	note C_, 8
	note C#, 8
	note C_, 8
	note C_, 8
	note C_, 8
	note C_, 8
	note C_, 8
	note C_, 8
	note C_, 4
	note C_, 4
	note C#, 8
	note C_, 8
	note C#, 8
	note C_, 4
	note C_, 4
	note C#, 8
	note C_, 8
	note C#, 8
	note C_, 4
	note C_, 4
	note C#, 8
	note C_, 8
	note C#, 8
	note C_, 4
	note C_, 4
	note C#, 8
	note C_, 8
	note C#, 8
	note C_, 4
	note C_, 4
	note C#, 8
	note C_, 8
	note C#, 8
	note C_, 4
	note C_, 4
	note C#, 8
	note C_, 8
	note C#, 8
	note C_, 4
	note C_, 4
	note C#, 8
	note C_, 8
	note C#, 8
	note C_, 4
	note C_, 4
	note C#, 8
	note C_, 8
	note C#, 8
	note C_, 4
	note C#, 4
	note C_, 4
	note C#, 4
	note C_, 8
	note C#, 8
	note C_, 4
	note C_, 4
	note C#, 8
	note C_, 4
	note C#, 4
	note C#, 4
	note C_, 4
	note C#, 4
	note C_, 4
	note C_, 4
	note C_, 4
	note C#, 8
	note C_, 8
	note C#, 4
	note C#, 4
	note C_, 4
	note C_, 4
	note D#, 4
	note D_, 4
	note C#, 4
	note C_, 8
	note C#, 4
	note D_, 8
	note C_, 8
	note C#, 8
	note C_, 4
	note C_, 4
	note C#, 4
	note C#, 4
	note E_, 2
	note D#, 2
	note D_, 2
	note C#, 2
	note C_, 2
	note C_, 2
	note C#, 4
	note C_, 4
	note C#, 4
	note C_, 1
	note C_, 3
	note C#, 4
	note C_, 8
	note C#, 8
	note C_, 4
	note C_, 4
	note C#, 8
	note C_, 8
	note C#, 8
	note C_, 4
	note C_, 4
	note C#, 8
	note C_, 8
	note C#, 8
	note C_, 4
	note C_, 4
	note C#, 8
	note C_, 8
	note C#, 8
	note C_, 4
	note C_, 4
	note C#, 8
	jumpchannel GymLeaderBattleBWChannel4_Loop
	endchannel
