; Pokémon B/W - Battle! Trainer
; Demixed by FroggestSpirit
; https://pastebin.com/7Hz9jRHq

Music_TrainerBattleBW:
	channel_count 4
	channel 1, Music_TrainerBattleBW_Ch1
	channel 2, Music_TrainerBattleBW_Ch2
	channel 3, Music_TrainerBattleBW_Ch3
	channel 4, Music_TrainerBattleBW_Ch4

Music_TrainerBattleBW_Ch1:
	volume 7, 7
	stereopanning $77
	tempo $6C
	duty_cycle 3
	tone $0002
	vibrato $12, $15
	octave 5
	note_type 12, 11, 2
	note E_, 1
	octave 4
	note B_, 1
	octave 5
	note E_, 1
	note B_, 1
	note E_, 1
	octave 4
	note B_, 1
	octave 5
	note E_, 1
	note B_, 1
	note E_, 1
	octave 4
	note B_, 1
	octave 5
	note E_, 1
	note B_, 1
	note E_, 1
	octave 4
	note B_, 1
	octave 5
	note E_, 1
	note B_, 1
	note E_, 1
	octave 4
	note B_, 1
	octave 5
	note E_, 1
	note B_, 1
	note E_, 1
	octave 4
	note B_, 1
	octave 5
	note E_, 1
	note B_, 1
	note E_, 1
	octave 4
	note B_, 1
	octave 5
	note E_, 1
	note B_, 1
	note E_, 1
	octave 4
	note B_, 1
	octave 5
	note E_, 1
	note B_, 1
	volume_envelope 11, 7
	octave 4
	note B_, 14
	note G#, 1
	note G_, 1
	octave 3
	note B_, 16
	note B_, 1
	note __, 1
	note B_, 1
	note __, 1
	octave 4
	note D_, 4
	octave 3
	note B_, 1
	note __, 1
	note B_, 1
	note __, 1
	octave 4
	note E_, 4
	octave 3
	note B_, 1
	note __, 1
	note B_, 1
	note __, 1
	octave 4
	note F_, 4
	octave 3
	note B_, 1
	note __, 1
	note B_, 1
	note __, 1
	octave 4
	note E_, 4
	octave 5
	note C_, 14
	octave 4
	note A_, 1
	note G#, 1
	note C_, 16
	note C_, 1
	note __, 1
	note C_, 1
	note __, 1
	note D#, 4
	note C_, 1
	note __, 1
	note C_, 1
	note __, 1
	note F_, 4
	note C_, 1
	note __, 1
	note C_, 1
	note __, 1
	note F#, 4
	note C_, 1
	note __, 1
	note C_, 1
	note __, 1
	note F_, 4
Music_TrainerBattleBW_Ch1_loop:
	octave 3
	note F_, 16
	note F_, 1
	note __, 1
	note C_, 6
	note F_, 4
	octave 4
	note C_, 4
	note C_, 1
	note __, 1
	note C#, 14
	note F_, 1
	note __, 1
	note F#, 14
	octave 3
	note F_, 16
	note F_, 1
	note __, 1
	note C_, 6
	note F_, 4
	octave 4
	note C_, 4
	note C_, 1
	note __, 1
	octave 3
	note A#, 14
	octave 4
	note D_, 1
	note __, 1
	note D#, 10
	octave 3
	note C#, 1
	note D#, 1
	note F_, 1
	note G_, 1
	octave 4
	note C#, 6
	note C_, 2
	octave 3
	note G#, 6
	note G_, 2
	note F_, 6
	note G_, 2
	note G#, 6
	note A#, 2
	octave 4
	note C_, 14
	duty_cycle 2
	note C#, 1
	note __, 1
	octave 3
	note A#, 1
	note __, 1
	octave 4
	note D#, 1
	note __, 3
	note D#, 1
	note __, 1
	note D#, 1
	note D_, 1
	note D#, 1
	note __, 3
	note D#, 1
	note __, 1
	duty_cycle 3
	note F_, 6
	note D#, 2
	note C#, 6
	note C_, 2
	octave 3
	note A#, 6
	note G#, 2
	note F_, 6
	note G#, 2
	note G_, 2
	note G_, 4
	note A#, 2
	octave 4
	note D#, 16
	note __, 8
	octave 3
	note D#, 6
	note E_, 10
	note C#, 8
	octave 2
	note A#, 2
	octave 3
	note C#, 2
	note A#, 1
	note G#, 1
	note E_, 2
	note D#, 6
	octave 2
	note A#, 10
	note G_, 8
	note D#, 2
	octave 3
	note A#, 2
	note G_, 1
	note G#, 1
	note E_, 2
	note D#, 2
	duty_cycle 0
	note A#, 1
	note __, 1
	note A#, 1
	note __, 3
	note B_, 1
	note __, 1
	note B_, 1
	note __, 3
	octave 4
	note C#, 1
	note __, 1
	note C#, 1
	note __, 3
	note D#, 1
	note __, 1
	note D#, 1
	note __, 3
	duty_cycle 2
	octave 3
	note D#, 1
	note __, 1
	note C#, 1
	note __, 1
	note D#, 1
	note __, 1
	octave 2
	note A#, 1
	note __, 1
	duty_cycle 0
	octave 3
	note A#, 1
	note __, 1
	note A#, 1
	note __, 3
	note B_, 1
	note __, 1
	note B_, 1
	note __, 3
	octave 4
	note C#, 1
	note __, 1
	note C#, 1
	note __, 3
	note D#, 1
	note __, 1
	note D#, 1
	note __, 1
	duty_cycle 2
	octave 3
	note D#, 2
	note B_, 2
	octave 4
	note A#, 1
	note G#, 1
	note F_, 2
	note E_, 16
	note __, 10
	octave 3
	note E_, 1
	note __, 1
	note C#, 1
	note __, 1
	note E_, 1
	note __, 1
	note D#, 1
	note __, 1
	duty_cycle 0
	note A#, 1
	note __, 1
	note A#, 1
	note __, 3
	octave 4
	note C_, 1
	note __, 1
	octave 3
	note B_, 1
	note __, 3
	octave 4
	note C#, 1
	note __, 1
	note C#, 1
	note __, 3
	note D#, 1
	note __, 1
	note D#, 1
	note __, 16
	note __, 1
	duty_cycle 3
	note D#, 2
	note F_, 2
	note G#, 2
	note F_, 2
	note G_, 16
	note G#, 8
	octave 3
	note B_, 4
	octave 4
	note C_, 4
	note C#, 12
	note E_, 4
	note G_, 8
	note D#, 4
	note F_, 4
	note G_, 8
	note G_, 2
	note F_, 2
	note D#, 2
	note F_, 2
	note G_, 8
	note D#, 2
	note F_, 2
	note A#, 2
	note G#, 2
	note G_, 16
	octave 3
	note F_, 2
	note D#, 2
	note F_, 2
	note G#, 6
	note F_, 4
	note F_, 8
	note C#, 2
	note F_, 2
	octave 4
	note C#, 2
	octave 3
	note G#, 2
	note G#, 6
	note G_, 10
	note A#, 2
	note A_, 2
	note A#, 2
	octave 4
	note D#, 10
	octave 3
	note F_, 6
	note G#, 6
	note F_, 4
	note F_, 8
	note C#, 2
	note F_, 2
	octave 4
	note C#, 2
	octave 3
	note G#, 2
	note A#, 6
	note D#, 6
	note A#, 4
	note A#, 2
	note A_, 2
	note A#, 6
	octave 4
	note D#, 6
	octave 3
	note A_, 6
	note F_, 6
	note A_, 4
	octave 4
	note A_, 6
	duty_cycle 2
	octave 5
	note C_, 1
	note __, 1
	octave 4
	note A_, 1
	note __, 1
	note F_, 1
	note __, 1
	note C_, 1
	note __, 1
	octave 3
	note A_, 1
	note __, 1
	duty_cycle 3
	note B_, 6
	note G_, 6
	note B_, 10
	duty_cycle 2
	octave 5
	note D_, 1
	note __, 1
	octave 4
	note B_, 1
	note __, 1
	note G_, 1
	note __, 1
	note D_, 1
	note __, 1
	octave 3
	note B_, 1
	note __, 1
	duty_cycle 3
	octave 4
	note C#, 6
	octave 3
	note A_, 6
	octave 4
	note C#, 4
	note E_, 16
	octave 2
	note A_, 1
	note __, 1
	note A_, 1
	note __, 3
	note A_, 2
	note __, 4
	note A_, 1
	note __, 3
	note A_, 16
	octave 3
	note G_, 2
	note __, 4
	note A#, 6
	octave 4
	note C_, 4
	note C#, 16
	octave 3
	note C#, 1
	note __, 1
	note C#, 1
	note __, 1
	note D_, 4
	note C#, 1
	note __, 1
	note C#, 1
	note __, 1
	note E_, 4
	note C#, 1
	note __, 1
	note C#, 1
	note __, 1
	note F#, 4
	note C#, 1
	note __, 1
	note C#, 1
	note __, 1
	note G_, 4
	note D#, 1
	note __, 1
	note D#, 1
	note __, 1
	note E_, 4
	note D#, 1
	note __, 1
	note D#, 1
	note __, 1
	note F#, 4
	note D#, 1
	note __, 1
	note D#, 1
	note __, 1
	note G#, 4
	note D#, 1
	note __, 1
	note D#, 1
	note __, 1
	note G#, 2
	note A_, 2
	note G#, 16
	note G#, 16
	note A_, 16
	octave 4
	note C#, 6
	note D#, 6
	note E_, 4
	note D#, 16
	octave 3
	note B_, 16
	octave 4
	note D#, 2
	note F_, 14
	volume_envelope 12, 1
	octave 5
	note C#, 1
	volume_envelope 12, 1
	note_type 10, 12, 1
	note __, 2
	note_type 12, 12, 1
	note C#, 1
	note_type 10, 12, 1
	note __, 2
	note_type 12, 12, 1
	note C#, 1
	note_type 4, 12, 1
	note __, 1
	note C#, 3
	note __, 1
	octave 4
	note G#, 3
	note __, 5
	note G#, 3
	note __, 1
	note G#, 3
	note __, 1
	note G#, 3
	note __, 1
	note G#, 3
	note __, 1
	note G#, 3
	note __, 16
	note __, 16
	note __, 16
	note __, 16
	note __, 16
	note __, 16
	note __, 16
	note __, 16
	note __, 16
	note __, 16
	note __, 16
	note __, 13
	note_type 12, 11, 7
	jumpchannel Music_TrainerBattleBW_Ch1_loop

Music_TrainerBattleBW_Ch2:
	duty_cycle 3
	tone $0001
	vibrato $08, $36
	octave 4
	note_type 12, 12, 2
	note G#, 1
	note G_, 1
	note F#, 1
	note G_, 1
	note F#, 1
	note F_, 1
	note F#, 1
	note F_, 1
	note E_, 1
	note F_, 1
	note E_, 1
	note D#, 1
	note E_, 1
	note D#, 1
	note D_, 1
	note D#, 1
	note D_, 1
	note C#, 1
	note D_, 1
	note C#, 1
	note C_, 1
	note C#, 1
	note C_, 1
	octave 3
	note B_, 1
	octave 4
	note C_, 1
	octave 3
	note B_, 1
	note A#, 1
	note B_, 1
	note A#, 1
	note B_, 1
	note A#, 1
	note A_, 1
	volume_envelope 12, 7
	octave 5
	note E_, 16
	octave 4
	note E_, 16
	note E_, 1
	note __, 1
	note E_, 1
	note __, 1
	note G_, 4
	note E_, 1
	note __, 1
	note E_, 1
	note __, 1
	note A_, 4
	note E_, 1
	note __, 1
	note E_, 1
	note __, 1
	note A#, 4
	note E_, 1
	note __, 1
	note E_, 1
	note __, 1
	note B_, 4
	octave 5
	note F_, 16
	octave 4
	note F_, 16
	note F_, 1
	note __, 1
	note F_, 1
	note __, 1
	note G#, 4
	note F_, 1
	note __, 1
	note F_, 1
	note __, 1
	note A#, 4
	note F_, 1
	note __, 1
	note F_, 1
	note __, 1
	note B_, 4
	note F_, 1
	note __, 1
	note F_, 1
	note __, 1
	octave 5
	note C_, 4
Music_TrainerBattleBW_Ch2_loop:
	octave 4
	note F_, 16
	note F_, 1
	note __, 1
	note C_, 6
	note F_, 4
	octave 5
	note C_, 4
	note C_, 1
	note __, 1
	note C#, 16
	note __, 12
	octave 4
	note C_, 1
	note D#, 1
	note F_, 16
	note F_, 1
	note __, 1
	note C_, 6
	note F_, 4
	octave 5
	note C_, 4
	note C_, 1
	note __, 1
	octave 4
	note A#, 16
	note __, 10
	note C#, 1
	note D#, 1
	note F_, 1
	note G_, 1
	note G#, 16
	note F_, 8
	octave 5
	note C_, 4
	octave 4
	note G#, 4
	note G_, 6
	note A#, 16
	note __, 10
	note G#, 16
	note F_, 8
	octave 5
	note C_, 4
	octave 4
	note G#, 4
	note A#, 6
	octave 5
	note D#, 16
	note __, 10
	octave 4
	note D#, 6
	note E_, 10
	note C#, 8
	octave 3
	note A#, 2
	octave 4
	note C#, 2
	note A#, 1
	note G#, 1
	note E_, 2
	note D#, 6
	octave 3
	note A#, 10
	note G_, 8
	octave 4
	note D#, 2
	note A#, 2
	note G_, 1
	note G#, 1
	note E_, 2
	note D#, 1
	note __, 1
	duty_cycle 0
	note D#, 1
	note __, 1
	note D#, 1
	note __, 3
	note E_, 1
	note __, 1
	note E_, 1
	note __, 3
	note F#, 1
	note __, 1
	note F#, 1
	note __, 3
	note G_, 1
	note __, 1
	note G_, 1
	note __, 11
	note D#, 1
	note __, 1
	note D#, 1
	note __, 3
	note E_, 1
	note __, 1
	note E_, 1
	note __, 3
	note F#, 1
	note __, 1
	note F#, 1
	note __, 3
	note G_, 1
	note __, 1
	note G_, 1
	note __, 11
	note E_, 1
	note __, 1
	note E_, 1
	note __, 3
	note F_, 1
	note __, 1
	note F_, 1
	note __, 3
	note G_, 1
	note __, 1
	note G_, 1
	note __, 3
	note G#, 1
	note __, 1
	note G#, 1
	note __, 1
	note G#, 1
	note __, 9
	note D#, 1
	note __, 1
	note D_, 1
	note __, 3
	note F_, 1
	note __, 1
	note E_, 1
	note __, 3
	note F#, 1
	note __, 1
	note F_, 1
	note __, 3
	note F#, 1
	note __, 1
	note G_, 1
	note __, 1
	duty_cycle 3
	octave 2
	note D#, 2
	note A#, 2
	octave 3
	note G_, 2
	note F_, 2
	note D#, 16
	note __, 8
	octave 2
	note G_, 2
	note A#, 2
	octave 3
	note G_, 2
	note D#, 2
	note E_, 14
	note D#, 1
	note D_, 1
	note C#, 12
	note E_, 4
	note D#, 16
	note __, 8
	octave 2
	note A#, 2
	octave 3
	note D#, 2
	note G#, 2
	note F_, 2
	note G_, 14
	note G#, 2
	note A#, 16
	octave 4
	note C#, 16
	note C#, 1
	note __, 1
	octave 3
	note G#, 6
	octave 4
	note C#, 4
	note G#, 4
	note G#, 1
	note __, 1
	note G_, 14
	note F_, 1
	note __, 1
	note G_, 14
	note C#, 16
	note C#, 1
	note __, 1
	octave 3
	note G#, 6
	octave 4
	note C#, 4
	note G#, 4
	note G#, 1
	note __, 1
	note A#, 14
	note A#, 1
	note __, 1
	note G_, 14
	note D#, 1
	note __, 1
	note F_, 14
	note F_, 1
	note __, 1
	note C_, 14
	note F_, 1
	note __, 1
	note G_, 14
	note D_, 8
	note G_, 8
	note D_, 1
	note __, 1
	note E_, 14
	note G_, 1
	note __, 1
	note A_, 14
	octave 3
	note C#, 1
	note __, 1
	note C#, 1
	note __, 3
	note C#, 2
	note __, 4
	note C#, 1
	note __, 3
	note C#, 16
	octave 4
	note G_, 2
	note __, 4
	note A#, 6
	octave 5
	note C_, 4
	note C#, 16
	octave 4
	note C#, 1
	note __, 1
	note C#, 1
	note __, 1
	note D_, 4
	note C#, 1
	note __, 1
	note C#, 1
	note __, 1
	note E_, 4
	note C#, 1
	note __, 1
	note C#, 1
	note __, 1
	note F#, 4
	note C#, 1
	note __, 1
	note C#, 1
	note __, 1
	note G_, 4
	note D#, 1
	note __, 1
	note D#, 1
	note __, 1
	note E_, 4
	note D#, 1
	note __, 1
	note D#, 1
	note __, 1
	note F#, 4
	note D#, 1
	note __, 1
	note D#, 1
	note __, 1
	note G#, 4
	note D#, 1
	note __, 1
	note D#, 1
	note __, 1
	note G#, 2
	note A_, 2
	note G#, 16
	octave 2
	note G#, 16
	octave 4
	note A_, 16
	octave 5
	note C#, 6
	octave 4
	note B_, 6
	note A_, 4
	note B_, 16
	octave 2
	note B_, 16
	octave 4
	note B_, 2
	octave 5
	note C#, 12
	volume_envelope 13, 1
	note F_, 1
	note D#, 1
	note G#, 1
	note_type 10, 13, 1
	note __, 2
	note_type 12, 13, 1
	note G#, 1
	note_type 10, 13, 1
	note __, 2
	note_type 12, 13, 1
	note G#, 1
	note_type 4, 13, 1
	note __, 1
	note G#, 3
	note __, 1
	note C#, 3
	note __, 5
	note C#, 3
	note __, 1
	note C#, 3
	note __, 1
	note C#, 3
	note __, 1
	note C#, 3
	note_type 2, 13, 1
	note __, 1
	note __, 1
	note C#, 6
	note __, 16
	note __, 16
	note __, 16
	note __, 16
	note __, 16
	note __, 16
	note __, 16
	note __, 16
	note __, 16
	note __, 16
	note __, 16
	note __, 16
	note __, 16
	note __, 16
	note __, 16
	note __, 16
	note __, 16
	note __, 16
	note __, 16
	note __, 16
	note __, 16
	note __, 16
	note __, 16
	note __, 10
	note_type 12, 12, 7
	jumpchannel Music_TrainerBattleBW_Ch2_loop

Music_TrainerBattleBW_Ch3:
	octave 1
	note_type 12, 1, -1
	note B_, 2
	octave 2
	note E_, 2
	octave 1
	note B_, 2
	octave 2
	note E_, 2
	octave 1
	note B_, 2
	octave 2
	note E_, 2
	octave 1
	note B_, 2
	octave 2
	note E_, 2
	octave 1
	note B_, 2
	octave 2
	note E_, 2
	octave 1
	note B_, 2
	octave 2
	note E_, 2
	note B_, 2
	note C#, 2
	note D_, 2
	note D#, 2
	note E_, 2
	note B_, 2
	octave 3
	note E_, 2
	octave 2
	note B_, 2
	octave 3
	note F_, 2
	note F_, 2
	octave 2
	note E_, 2
	note A_, 2
	octave 3
	note G_, 2
	octave 2
	note E_, 2
	octave 3
	note G#, 2
	note D_, 2
	octave 2
	note E_, 1
	note G#, 1
	note B_, 2
	octave 3
	note E_, 2
	note F_, 2
	octave 2
	note E_, 2
	note B_, 2
	octave 3
	note E_, 2
	octave 2
	note B_, 2
	octave 3
	note F_, 2
	note F_, 2
	octave 2
	note E_, 2
	note A#, 2
	octave 3
	note G_, 2
	octave 2
	note E_, 2
	octave 3
	note G#, 2
	note D_, 2
	octave 2
	note E_, 2
	note B_, 2
	octave 3
	note E_, 2
	note F_, 1
	note G_, 1
	octave 2
	note F_, 2
	octave 3
	note C_, 2
	note F_, 2
	note C_, 2
	note F#, 2
	note F#, 2
	octave 2
	note F_, 2
	note A#, 2
	octave 3
	note G#, 2
	octave 2
	note F_, 2
	octave 3
	note A_, 2
	note D#, 2
	octave 2
	note F_, 1
	note B_, 1
	octave 3
	note C_, 2
	note F_, 2
	note F#, 2
	octave 2
	note F_, 2
	octave 3
	note C_, 2
	note F_, 2
	note C_, 2
	note F#, 2
	note F#, 2
	octave 2
	note F_, 2
	note A#, 2
	octave 3
	note G#, 2
	octave 2
	note F_, 2
	octave 3
	note A_, 2
	note D#, 2
	octave 2
	note F_, 2
	octave 3
	note D_, 2
	note D#, 2
	note E_, 2
Music_TrainerBattleBW_Ch3_loop:
	octave 2
	note F_, 2
	note __, 2
	octave 3
	note F_, 2
	note __, 2
	octave 2
	note F_, 2
	note F_, 2
	octave 3
	note F_, 2
	note __, 2
	octave 2
	note F_, 2
	octave 3
	note A_, 2
	octave 2
	note F_, 2
	octave 3
	note F_, 2
	octave 2
	note F_, 2
	octave 3
	note E_, 2
	octave 2
	note F_, 2
	octave 3
	note F_, 2
	octave 2
	note F#, 2
	octave 3
	note F#, 2
	note A#, 2
	octave 2
	note F#, 2
	octave 4
	note C_, 2
	octave 3
	note A#, 2
	octave 2
	note F#, 2
	octave 3
	note F#, 2
	octave 2
	note F#, 2
	octave 3
	note C#, 2
	note F#, 2
	octave 2
	note F#, 2
	octave 3
	note A#, 2
	octave 4
	note C_, 2
	octave 2
	note C#, 2
	note D#, 2
	note F_, 2
	note __, 2
	octave 3
	note F_, 2
	note __, 2
	octave 2
	note F_, 2
	note F_, 2
	octave 3
	note F_, 2
	note C_, 2
	octave 2
	note F_, 2
	octave 3
	note F_, 2
	octave 2
	note F_, 2
	octave 3
	note F_, 2
	octave 2
	note F_, 2
	octave 3
	note E_, 2
	octave 2
	note F_, 2
	octave 3
	note F_, 2
	octave 2
	note D#, 2
	octave 3
	note D#, 2
	note G_, 2
	octave 2
	note D#, 2
	octave 3
	note A#, 2
	note G_, 2
	octave 2
	note D#, 2
	octave 3
	note D#, 2
	octave 2
	note D#, 2
	note A#, 2
	octave 3
	note D#, 2
	octave 2
	note D#, 2
	octave 3
	note A#, 2
	octave 4
	note C_, 2
	octave 3
	note D#, 2
	note D_, 2
	octave 2
	note C#, 2
	note C#, 2
	octave 3
	note G#, 2
	note C#, 2
	note C_, 2
	note C#, 2
	octave 2
	note G_, 2
	note G#, 2
	note C#, 2
	octave 3
	note C#, 2
	note G#, 2
	note C#, 2
	note E_, 2
	note F_, 2
	octave 2
	note A_, 2
	note A#, 2
	note D#, 2
	octave 3
	note D#, 2
	note A#, 2
	octave 2
	note A#, 2
	octave 3
	note D_, 2
	note D#, 2
	octave 2
	note G_, 2
	note A#, 2
	note G_, 2
	octave 3
	note G_, 2
	octave 2
	note F_, 2
	octave 3
	note F_, 2
	octave 2
	note D#, 2
	octave 3
	note D#, 2
	octave 2
	note C#, 2
	octave 3
	note C#, 2
	octave 2
	note C#, 2
	octave 3
	note C#, 2
	note G#, 2
	octave 2
	note C#, 2
	octave 3
	note C_, 2
	note C#, 2
	octave 2
	note G_, 2
	note G#, 2
	note C#, 2
	octave 3
	note G#, 2
	octave 2
	note C_, 2
	note C#, 2
	note C#, 2
	octave 3
	note C#, 2
	octave 2
	note D_, 2
	octave 3
	note D_, 2
	octave 2
	note D#, 2
	octave 3
	note G_, 2
	note G_, 2
	octave 2
	note D_, 2
	note D#, 2
	octave 3
	note G_, 2
	note G_, 2
	note D#, 2
	octave 2
	note D#, 2
	octave 3
	note D#, 2
	octave 2
	note E_, 2
	octave 3
	note E_, 2
	note G_, 2
	note E_, 2
	note D#, 1
	note E_, 1
	note C#, 2
	octave 2
	note D#, 2
	note A#, 2
	note D#, 2
	note A#, 2
	octave 3
	note E_, 2
	note E_, 2
	octave 2
	note D#, 2
	note G#, 2
	octave 3
	note F#, 2
	octave 2
	note D#, 2
	octave 3
	note G_, 2
	note C#, 2
	octave 2
	note D#, 2
	note A#, 2
	note D#, 2
	note A#, 2
	note D#, 2
	note A#, 2
	note D#, 2
	note A#, 2
	octave 3
	note E_, 2
	note E_, 2
	octave 2
	note D#, 2
	note G#, 2
	octave 3
	note E_, 2
	octave 2
	note D#, 2
	octave 3
	note G_, 2
	note C#, 2
	octave 2
	note D#, 2
	octave 3
	note D#, 2
	octave 2
	note D#, 2
	octave 3
	note G_, 2
	octave 2
	note D#, 2
	octave 3
	note D#, 2
	octave 2
	note D#, 2
	octave 3
	note D#, 2
	octave 2
	note D#, 2
	octave 3
	note D#, 2
	octave 2
	note D#, 2
	octave 3
	note D#, 2
	octave 2
	note D#, 2
	octave 3
	note D#, 2
	note E_, 1
	note F#, 1
	note D#, 1
	note C#, 1
	note D#, 2
	note C#, 2
	note D#, 2
	octave 2
	note A#, 2
	note D#, 2
	octave 3
	note D#, 2
	octave 2
	note D#, 2
	octave 3
	note D#, 2
	octave 2
	note D#, 2
	octave 3
	note D#, 2
	octave 2
	note D#, 2
	octave 3
	note D#, 2
	octave 2
	note D#, 2
	octave 3
	note D#, 2
	note C#, 1
	note D#, 1
	octave 2
	note G#, 1
	note A#, 1
	note D#, 2
	octave 3
	note D#, 2
	note C#, 2
	octave 2
	note A#, 2
	note E_, 2
	octave 3
	note E_, 2
	octave 2
	note E_, 2
	octave 3
	note E_, 2
	octave 2
	note E_, 2
	octave 3
	note E_, 2
	octave 2
	note E_, 2
	octave 3
	note E_, 2
	octave 2
	note E_, 2
	octave 3
	note E_, 2
	note D#, 1
	note E_, 1
	octave 2
	note B_, 1
	note G#, 1
	note E_, 2
	octave 3
	note E_, 2
	note G#, 2
	note E_, 2
	octave 2
	note D#, 2
	octave 3
	note D#, 2
	octave 2
	note D#, 2
	octave 3
	note D#, 2
	octave 2
	note D#, 2
	octave 3
	note D#, 2
	octave 2
	note D#, 2
	octave 3
	note D#, 2
	octave 2
	note D#, 2
	octave 3
	note D#, 2
	octave 2
	note D#, 2
	octave 3
	note D#, 2
	octave 2
	note D#, 2
	octave 3
	note D#, 2
	octave 2
	note D#, 2
	octave 3
	note D_, 1
	note D#, 1
	octave 2
	note D#, 2
	octave 3
	note D#, 2
	octave 2
	note D#, 2
	octave 3
	note D_, 1
	note D#, 1
	octave 2
	note D#, 2
	octave 3
	note D#, 2
	octave 2
	note D#, 2
	octave 3
	note D#, 2
	octave 2
	note D#, 2
	octave 3
	note D#, 2
	octave 2
	note D#, 2
	octave 3
	note D#, 2
	octave 2
	note D#, 2
	octave 3
	note D#, 2
	octave 2
	note D#, 2
	octave 3
	note D#, 2
	octave 2
	note E_, 2
	octave 3
	note E_, 2
	octave 2
	note E_, 2
	octave 3
	note D#, 1
	note E_, 1
	octave 2
	note E_, 2
	octave 3
	note E_, 2
	octave 2
	note E_, 2
	octave 3
	note E_, 2
	octave 2
	note C#, 2
	octave 3
	note C#, 2
	octave 2
	note C#, 2
	octave 3
	note C#, 2
	octave 2
	note C#, 2
	octave 3
	note C#, 2
	octave 2
	note C#, 2
	note D_, 2
	note D#, 2
	octave 3
	note D#, 2
	octave 2
	note D#, 2
	octave 3
	note D#, 2
	octave 2
	note D#, 2
	octave 3
	note C#, 2
	octave 2
	note D#, 2
	note B_, 2
	note D#, 2
	note G_, 2
	note D#, 2
	note A#, 2
	note D#, 2
	octave 3
	note D#, 2
	octave 2
	note D#, 2
	octave 3
	note D#, 2
	octave 2
	note D#, 2
	octave 3
	note D#, 2
	octave 2
	note D#, 2
	octave 3
	note D#, 2
	octave 2
	note D#, 2
	octave 3
	note C#, 2
	octave 2
	note D#, 2
	note B_, 2
	note D#, 2
	note G_, 2
	note F_, 2
	note G_, 2
	octave 3
	note D#, 2
	octave 2
	note D#, 2
	octave 3
	note D_, 4
	octave 2
	note C#, 2
	octave 3
	note C#, 2
	octave 2
	note C#, 2
	octave 3
	note C#, 2
	octave 2
	note C#, 2
	octave 3
	note C#, 2
	octave 2
	note C#, 2
	octave 3
	note C#, 2
	octave 2
	note C#, 2
	octave 3
	note F_, 2
	octave 2
	note C#, 2
	octave 3
	note D#, 2
	octave 2
	note C#, 2
	octave 3
	note C#, 2
	octave 2
	note D_, 2
	octave 3
	note D_, 2
	octave 2
	note D#, 2
	octave 3
	note D#, 2
	octave 2
	note D#, 2
	octave 3
	note D#, 2
	note C#, 2
	note D#, 2
	octave 2
	note D#, 2
	octave 3
	note D#, 2
	octave 2
	note D#, 2
	octave 3
	note G_, 1
	note G_, 1
	octave 2
	note D#, 2
	octave 3
	note F_, 1
	note F_, 1
	note D#, 2
	note C#, 2
	note D#, 2
	octave 2
	note A#, 2
	note C#, 2
	octave 3
	note C#, 2
	octave 2
	note C#, 2
	octave 3
	note C#, 2
	octave 2
	note G#, 2
	octave 3
	note F_, 2
	note C_, 2
	note C#, 2
	octave 2
	note C#, 2
	octave 3
	note F_, 2
	octave 2
	note C#, 2
	octave 3
	note D#, 2
	octave 2
	note C#, 2
	octave 3
	note C#, 2
	octave 2
	note C#, 2
	octave 3
	note D_, 2
	octave 2
	note D#, 2
	octave 3
	note D#, 2
	octave 2
	note D#, 2
	octave 3
	note D#, 2
	note C#, 2
	note D#, 2
	octave 2
	note D#, 2
	octave 3
	note D#, 2
	octave 2
	note D#, 2
	octave 3
	note G_, 1
	note G_, 1
	octave 2
	note D#, 2
	octave 3
	note G_, 1
	note G_, 1
	octave 2
	note D#, 2
	octave 3
	note D#, 2
	octave 2
	note E_, 2
	octave 3
	note E_, 2
	octave 2
	note F_, 2
	octave 3
	note F_, 2
	octave 2
	note F_, 2
	octave 3
	note F_, 2
	octave 2
	note F_, 2
	octave 3
	note C_, 2
	note F_, 2
	note A_, 2
	note F_, 2
	note C_, 2
	note F_, 2
	octave 2
	note F_, 2
	note A_, 2
	note G#, 2
	octave 3
	note C_, 2
	octave 2
	note F_, 2
	note G_, 2
	octave 3
	note G_, 2
	octave 2
	note G_, 2
	octave 3
	note G_, 2
	octave 2
	note G_, 2
	octave 3
	note D_, 2
	note G_, 2
	note B_, 2
	note G_, 2
	note D_, 2
	note G_, 2
	octave 2
	note G_, 2
	octave 3
	note G_, 2
	note D_, 2
	octave 2
	note G_, 2
	note G#, 2
	note A_, 2
	octave 3
	note A_, 2
	octave 2
	note A_, 2
	octave 3
	note A_, 2
	octave 2
	note A_, 2
	octave 3
	note E_, 2
	note A_, 2
	octave 4
	note C#, 2
	octave 3
	note A_, 2
	note E_, 2
	note A_, 2
	octave 2
	note A_, 2
	octave 3
	note A_, 2
	note E_, 2
	octave 2
	note G_, 2
	note G#, 2
	note A_, 2
	octave 3
	note A_, 2
	note __, 2
	note A_, 2
	octave 2
	note A_, 2
	octave 3
	note E_, 2
	note A_, 2
	octave 4
	note C#, 2
	octave 3
	note A_, 2
	note G_, 2
	note A_, 2
	octave 2
	note A_, 2
	note A#, 2
	note A_, 2
	note G_, 2
	note A#, 2
	note A_, 2
	octave 3
	note A_, 2
	note A_, 2
	octave 2
	note A_, 2
	octave 3
	note A_, 2
	note E_, 2
	note E_, 2
	note A#, 2
	octave 2
	note A_, 2
	octave 3
	note E_, 2
	note A_, 2
	octave 2
	note C#, 2
	note A_, 2
	note A#, 2
	note A_, 2
	note E_, 2
	note C#, 2
	note A_, 2
	note D_, 2
	note A#, 2
	note C#, 2
	note A_, 2
	note E_, 2
	octave 3
	note C_, 2
	octave 2
	note C#, 2
	note A_, 2
	note F#, 2
	octave 3
	note D_, 2
	octave 2
	note C#, 2
	note A_, 2
	note G_, 2
	octave 3
	note D#, 2
	octave 2
	note D#, 2
	note B_, 2
	note E_, 2
	octave 3
	note C_, 2
	octave 2
	note D#, 2
	note B_, 2
	note F#, 2
	octave 3
	note D_, 2
	octave 2
	note D#, 2
	note B_, 2
	note G#, 2
	octave 3
	note E_, 2
	octave 2
	note D#, 2
	note B_, 2
	note G#, 2
	octave 3
	note D#, 2
	octave 2
	note D#, 1
	note_type 4, 1, -1
	note __, 1
	note F#, 3
	note __, 1
	note G#, 3
	note __, 5
	note G#, 3
	note __, 1
	note G#, 3
	note __, 1
	octave 1
	note G#, 3
	note __, 5
	note G#, 3
	note __, 5
	note G#, 3
	note __, 1
	note G#, 3
	note __, 1
	octave 2
	note G#, 3
	note __, 1
	note F#, 3
	note __, 1
	note G#, 3
	note __, 5
	note G#, 3
	note __, 1
	note G#, 3
	note __, 1
	octave 1
	note G#, 3
	note __, 5
	note G#, 3
	note __, 5
	note G#, 3
	note __, 1
	note G#, 3
	note __, 1
	octave 2
	note C#, 3
	note __, 1
	note E_, 3
	note __, 1
	note A_, 3
	note __, 5
	note A_, 3
	note __, 1
	note A_, 3
	note __, 1
	note E_, 3
	note __, 1
	note C#, 3
	note __, 1
	octave 1
	note A_, 3
	note __, 5
	note A_, 3
	note __, 1
	note A_, 3
	note __, 1
	octave 2
	note A_, 3
	note __, 1
	note G#, 3
	note __, 1
	note A_, 3
	note __, 5
	note A_, 3
	note __, 1
	note A_, 3
	note __, 1
	note E_, 3
	note __, 1
	note A_, 3
	note __, 1
	octave 3
	note C#, 3
	note __, 5
	note C#, 3
	note __, 1
	note C#, 3
	note __, 1
	octave 2
	note B_, 3
	note __, 1
	note A_, 3
	note __, 1
	note F#, 3
	note __, 1
	octave 1
	note B_, 3
	note __, 1
	octave 2
	note B_, 3
	note __, 1
	octave 1
	note B_, 3
	note __, 1
	note B_, 3
	note __, 5
	note B_, 3
	note __, 5
	note B_, 3
	note __, 1
	note B_, 3
	note __, 1
	octave 2
	note F#, 3
	note __, 1
	note A_, 3
	note __, 1
	note B_, 3
	note __, 5
	note B_, 3
	note __, 1
	note B_, 3
	note __, 1
	octave 1
	note B_, 3
	note __, 1
	note B_, 3
	note __, 1
	note B_, 3
	note __, 1
	note B_, 3
	note __, 1
	octave 2
	note F#, 3
	note __, 1
	note B_, 3
	note __, 1
	octave 3
	note C#, 3
	note __, 1
	note C#, 3
	note __, 1
	note C#, 3
	note __, 5
	note C#, 3
	note __, 1
	note C#, 3
	note __, 1
	octave 2
	note C#, 3
	note __, 1
	note C#, 3
	note __, 1
	note C#, 3
	note __, 5
	note C#, 3
	note __, 1
	note C#, 3
	note __, 1
	note F_, 3
	note __, 1
	note G#, 3
	note __, 1
	octave 3
	note C#, 3
	note __, 5
	note C#, 3
	note __, 1
	note C#, 3
	note __, 1
	octave 2
	note C#, 3
	note __, 5
	note C#, 3
	note __, 1
	note C#, 3
	note __, 1
	note C#, 3
	note __, 1
	note C#, 3
	note __, 1
	note C#, 6
	octave 3
	note C_, 6
	note F_, 6
	note C_, 6
	note F#, 6
	note F#, 6
	octave 2
	note F_, 6
	note A#, 6
	octave 3
	note G#, 6
	octave 2
	note F_, 6
	octave 3
	note A_, 6
	note D#, 6
	octave 2
	note F_, 6
	octave 3
	note C_, 6
	note F_, 6
	note F#, 6
	octave 2
	note F_, 6
	octave 3
	note C_, 6
	note F_, 6
	note C_, 6
	note F#, 6
	note F#, 6
	octave 2
	note F_, 6
	note A#, 6
	octave 3
	note G#, 6
	octave 2
	note F_, 6
	octave 3
	note A_, 6
	note D#, 6
	octave 2
	note F_, 6
	octave 3
	note C_, 6
	note F_, 6
	note F#, 6
	note_type 12, 1, -1
	jumpchannel Music_TrainerBattleBW_Ch3_loop

Music_TrainerBattleBW_Ch4:
	note_type 12
	togglenoise 3
	note D#, 2
	note C_, 2
	note D#, 4
	note D#, 4
	note D#, 4
	note D#, 2
	note C_, 2
	note D#, 2
	note C_, 2
	note D#, 2
	note C_, 2
	note C_, 1
	note C_, 1
	note C_, 1
	note C_, 1
	note B_, 4
	note D#, 4
	note_type 7
	note D#, 3
	note_type 9
	note D#, 3
	note_type 12
	note D#, 4
	note D#, 4
	note D#, 4
	note D#, 1
	note D#, 1
	note D#, 2
	note D#, 2
	note D#, 2
	note D#, 4
	note D#, 4
	note C_, 10
	note_type 3
	note C_, 1
	note_type 11
	note C_, 6
	note_type 3
	note C_, 1
	note_type 15
	note C_, 5
	note_type 3
	note C_, 1
	note C_, 6
	note D#, 16
	note D#, 16
	note D#, 8
	note D#, 8
	note D#, 16
	note D#, 16
	note D#, 16
	note D#, 8
	note D#, 8
	note D#, 8
	note D#, 8
	note D#, 16
	note D#, 16
	note C_, 8
	note D#, 16
	note C_, 8
	note C_, 8
	note D#, 8
	note D#, 8
	note C_, 8
	note D#, 8
	note C_, 8
	note C_, 2
	note C_, 2
	note C_, 4
	note C_, 4
	note C_, 4
Music_TrainerBattleBW_Ch4_loop:
	note B_, 16
	note C_, 16
	note D#, 8
	note D#, 8
	note C_, 16
	note D#, 16
	note C_, 16
	note D#, 8
	note D#, 8
	note C_, 16
	note D#, 16
	note C_, 8
	note D#, 16
	note C_, 8
	note C_, 8
	note D#, 8
	note D#, 16
	note C_, 8
	note D#, 16
	note D#, 8
	note C_, 8
	note C_, 4
	note C_, 4
	note D#, 16
	note C_, 16
	note D#, 8
	note D#, 8
	note C_, 16
	note D#, 16
	note C_, 16
	note D#, 8
	note D#, 8
	note C_, 16
	note D#, 16
	note C_, 8
	note D#, 16
	note C_, 8
	note C_, 8
	note D#, 8
	note D#, 16
	note C_, 8
	note D#, 16
	note D#, 8
	note C_, 8
	note C_, 4
	note C_, 4
	note D#, 8
	note D#, 8
	note C_, 16
	note D#, 8
	note D#, 8
	note C_, 16
	note D#, 16
	note C_, 16
	note D#, 8
	note D#, 8
	note C_, 16
	note D#, 16
	note C_, 16
	note D#, 8
	note D#, 8
	note C_, 16
	note D#, 16
	note C_, 16
	note C_, 4
	note C_, 4
	note C_, 8
	note D#, 8
	note C_, 8
	note D#, 16
	note C_, 16
	note D#, 8
	note D#, 8
	note C_, 16
	note D#, 16
	note C_, 16
	note D#, 8
	note D#, 8
	note C_, 16
	note C_, 2
	note_type 15
	note C_, 4
	note_type 6
	note C_, 1
	note C_, 8
	note D#, 8
	note C_, 8
	note C_, 4
	note D#, 4
	note C_, 10
	note D#, 2
	note C_, 4
	note C_, 2
	note C_, 2
	note D#, 4
	note C_, 2
	note C_, 2
	note C_, 4
	note C_, 4
	note D#, 4
	note C_, 4
	note_type 11
	note C_, 1
	note_type 12
	note C_, 1
	note_type 5
	note C_, 5
	note_type 12
	note C_, 2
	note D#, 1
	note D#, 1
	note C_, 2
	note_type 11
	note D#, 1
	note_type 13
	note D#, 1
	note_type 12
	note D#, 2
	note C_, 2
	note C_, 1
	note C_, 1
	note C_, 2
	note D#, 4
	note C_, 2
	note D#, 2
	note C_, 2
	note C_, 2
	note D#, 2
	note C_, 2
	note C_, 2
	note D#, 1
	note D#, 1
	note C_, 2
	note_type 11
	note D#, 1
	note_type 13
	note D#, 1
	note_type 12
	note D#, 2
	note C_, 1
	note C_, 1
	note C_, 2
	note C_, 1
	note C_, 1
	note D#, 4
	note C_, 4
	note D#, 2
	note D#, 2
	note C_, 4
	note D#, 4
	note C_, 4
	note D#, 2
	note D#, 2
	note C_, 4
	note D#, 4
	note C_, 4
	note D#, 2
	note D#, 2
	note C_, 4
	note D#, 4
	note C_, 4
	note D#, 2
	note D#, 2
	note C_, 2
	note C_, 1
	note C_, 1
	note D#, 4
	note C_, 4
	note D#, 2
	note D#, 2
	note C_, 4
	note D#, 4
	note C_, 4
	note D#, 2
	note D#, 2
	note C_, 4
	note D#, 4
	note C_, 4
	note D#, 2
	note D#, 2
	note C_, 4
	note D#, 2
	note C_, 2
	note_type 9
	note C_, 3
	note_type 7
	note D#, 3
	note_type 12
	note C_, 2
	note D#, 2
	note C_, 2
	note C_, 1
	note C_, 1
	note D#, 4
	note C_, 4
	note D#, 2
	note D#, 2
	note C_, 4
	note D#, 4
	note C_, 4
	note D#, 2
	note D#, 2
	note C_, 4
	note D#, 4
	note C_, 4
	note D#, 2
	note D#, 2
	note C_, 4
	note D#, 4
	note C_, 4
	note D#, 2
	note D#, 2
	note C_, 4
	note D#, 4
	note C_, 4
	note D#, 2
	note D#, 2
	note C_, 4
	note D#, 4
	note C_, 4
	note D#, 2
	note D#, 2
	note C_, 4
	note D#, 4
	note C_, 4
	note D#, 2
	note D#, 2
	note C_, 4
	note D#, 2
	note C_, 4
	note D#, 2
	note_type 6
	note C_, 1
	note C_, 1
	note C_, 1
	note C_, 1
	note C_, 4
	note C_, 4
	note C_, 2
	note C_, 2
	note D#, 8
	note C_, 8
	note D#, 4
	note D#, 4
	note C_, 8
	note D#, 8
	note C_, 8
	note D#, 4
	note D#, 4
	note C_, 8
	note D#, 8
	note C_, 8
	note D#, 4
	note D#, 4
	note C_, 8
	note D#, 8
	note C_, 8
	note D#, 4
	note D#, 4
	note C_, 8
	note D#, 8
	note C_, 8
	note D#, 4
	note D#, 4
	note C_, 8
	note D#, 8
	note C_, 8
	note D#, 4
	note D#, 4
	note C_, 8
	note D#, 8
	note C_, 8
	note D#, 4
	note D#, 4
	note C_, 8
	note D#, 8
	note C_, 8
	note C_, 4
	note D#, 4
	note C_, 2
	note C_, 2
	note D#, 4
	note D#, 8
	note C_, 8
	note D#, 4
	note D#, 4
	note C_, 8
	note D#, 4
	note C_, 4
	note C_, 8
	note C_, 4
	note C_, 4
	note D#, 4
	note C_, 4
	note D#, 8
	note C_, 8
	note D#, 4
	note D#, 4
	note C_, 8
	note D#, 8
	note C_, 8
	note D#, 4
	note D#, 4
	note C_, 4
	note C_, 4
	note D#, 8
	note C_, 8
	note D#, 4
	note D#, 4
	note C_, 8
	note C_, 4
	note D#, 4
	note C_, 8
	note_type 3
	note C_, 1
	note C_, 4
	note C_, 3
	note D#, 7
	note D#, 9
	note C_, 8
	note D#, 8
	note_type 12
	note C_, 6
	note D#, 2
	note D#, 2
	note C_, 4
	note D#, 4
	note C_, 4
	note D#, 2
	note C_, 2
	note C_, 2
	note C_, 1
	note C_, 1
	note D#, 2
	note C_, 2
	note C_, 4
	note D#, 2
	note C_, 2
	note C_, 2
	note C_, 2
	note C_, 2
	note D#, 2
	note D#, 2
	note C_, 2
	note D#, 2
	note C_, 2
	note C_, 1
	note C_, 1
	note C_, 1
	note C_, 1
	note D#, 2
	note D#, 2
	note C_, 2
	note C_, 2
	note D#, 2
	note D#, 2
	note C_, 4
	note D#, 2
	note D#, 2
	note C_, 4
	note D#, 2
	note D#, 2
	note C_, 2
	note C_, 2
	note D#, 2
	note D#, 2
	note C_, 2
	note C_, 2
	note D#, 2
	note D#, 2
	note C_, 2
	note C_, 2
	note D#, 2
	note D#, 2
	note C_, 2
	note C_, 2
	note D#, 2
	note D#, 2
	note C_, 4
	note C_, 4
	note_type 8
	note D#, 2
	note D#, 2
	note D#, 1
	note C_, 1
	note C_, 4
	note C_, 2
	note D#, 2
	note D#, 2
	note D#, 2
	note C_, 6
	note D#, 2
	note D#, 2
	note D#, 1
	note C_, 1
	note C_, 4
	note C_, 2
	note D#, 2
	note D#, 2
	note D#, 2
	note C_, 6
	note D#, 2
	note D#, 2
	note D#, 1
	note C_, 1
	note C_, 4
	note C_, 2
	note D#, 2
	note D#, 2
	note D#, 2
	note C_, 6
	note D#, 2
	note D#, 2
	note D#, 1
	note C_, 1
	note C_, 4
	note C_, 2
	note D#, 2
	note C_, 1
	note C_, 1
	note D#, 2
	note C_, 6
	note D#, 2
	note D#, 2
	note D#, 1
	note C_, 1
	note C_, 4
	note C_, 2
	note D#, 2
	note D#, 2
	note D#, 2
	note C_, 6
	note D#, 2
	note D#, 2
	note D#, 1
	note C_, 1
	note C_, 4
	note C_, 2
	note D#, 2
	note D#, 2
	note D#, 2
	note C_, 6
	note D#, 2
	note D#, 2
	note D#, 1
	note C_, 1
	note C_, 4
	note C_, 2
	note D#, 2
	note D#, 2
	note D#, 2
	note C_, 4
	note D#, 2
	note D#, 2
	note D#, 2
	note D#, 1
	note C_, 1
	note C_, 4
	note C_, 2
	note C_, 2
	note C_, 2
	note C_, 2
	note D#, 6
	note D#, 6
	note D#, 6
	note D#, 6
	note D#, 6
	note D#, 6
	note D#, 6
	note D#, 6
	note D#, 6
	note D#, 6
	note D#, 6
	note D#, 6
	note D#, 6
	note D#, 6
	note D#, 3
	note D#, 3
	note C_, 3
	note_type 12
	note C_, 1
	note C_, 1
	note_type 3
	jumpchannel Music_TrainerBattleBW_Ch4_loop
